<svg width="1200" height="300" viewBox="0 0 1200 300" fill="none" xmlns="http://www.w3.org/2000/svg">
<rect width="1200" height="300" rx="4" fill="#F2F2F6"/>
<path d="M646.435 203H540.565C537.493 203 535 200.507 535 197.435V91.5654C535 88.4928 537.493 86 540.565 86H646.435C649.507 86 652 88.4928 652 91.5654V197.435C652 200.507 649.507 203 646.435 203ZM540.565 89.7102C539.545 89.7102 538.71 90.545 538.71 91.5654V197.435C538.71 198.455 539.545 199.29 540.565 199.29H646.435C647.455 199.29 648.29 198.455 648.29 197.435V91.5654C648.29 90.545 647.455 89.7102 646.435 89.7102H540.565Z" fill="#101C2B"/>
<ellipse cx="593" cy="144.5" rx="36" ry="40.5" fill="#4EAC78"/>
<path d="M611.097 121.542C610.929 121.542 610.761 121.511 610.594 121.46C610.428 121.409 610.262 121.338 610.101 121.259C609.939 121.179 609.779 121.091 609.624 121.005C609.468 120.919 609.317 120.836 609.17 120.766C608.986 120.679 608.801 120.593 608.615 120.507C608.43 120.422 608.244 120.338 608.057 120.255C607.871 120.173 607.684 120.091 607.496 120.011C607.308 119.931 607.12 119.852 606.931 119.774C606.606 119.64 606.279 119.511 605.95 119.386C605.621 119.26 605.29 119.14 604.958 119.023C604.626 118.907 604.293 118.796 603.957 118.688C603.621 118.582 603.284 118.48 602.945 118.384C602.287 118.196 601.623 118.028 600.954 117.882C600.286 117.735 599.613 117.609 598.937 117.503C598.261 117.396 597.581 117.309 596.9 117.242C596.218 117.175 595.534 117.126 594.849 117.097C593.398 117.035 591.947 117.052 590.504 117.15C589.061 117.247 587.626 117.426 586.206 117.686C584.787 117.947 583.384 118.29 582.006 118.716C580.628 119.143 579.274 119.654 577.953 120.25C577.706 120.362 577.435 120.517 577.148 120.681C576.861 120.845 576.559 121.019 576.253 121.165C575.947 121.312 575.637 121.432 575.332 121.49C575.027 121.548 574.728 121.544 574.445 121.443C574.179 121.348 573.959 121.192 573.793 120.998C573.627 120.804 573.513 120.573 573.458 120.329C573.403 120.086 573.407 119.83 573.477 119.586C573.546 119.342 573.68 119.11 573.885 118.915C573.995 118.809 574.122 118.716 574.259 118.629C574.395 118.543 574.541 118.465 574.69 118.392C574.84 118.318 574.992 118.25 575.141 118.184C575.291 118.117 575.437 118.052 575.574 117.986C575.739 117.906 575.904 117.827 576.07 117.75C576.236 117.672 576.403 117.595 576.57 117.52C576.738 117.444 576.905 117.37 577.073 117.297C577.241 117.224 577.411 117.151 577.58 117.081C577.906 116.944 578.234 116.812 578.564 116.684C578.894 116.556 579.225 116.433 579.559 116.314C579.892 116.195 580.227 116.08 580.563 115.97C580.9 115.861 581.238 115.755 581.577 115.654C582.949 115.247 584.344 114.915 585.754 114.659C587.165 114.402 588.591 114.22 590.023 114.113C591.455 114.007 592.893 113.975 594.327 114.019C595.762 114.063 597.193 114.181 598.612 114.375C599.393 114.482 600.171 114.614 600.943 114.771C601.714 114.927 602.481 115.108 603.241 115.311C604.002 115.514 604.755 115.741 605.502 115.989C606.249 116.237 606.989 116.506 607.72 116.796C607.908 116.871 608.096 116.946 608.282 117.023C608.469 117.1 608.655 117.178 608.841 117.258C609.027 117.337 609.212 117.418 609.397 117.499C609.582 117.581 609.766 117.664 609.95 117.748C610.124 117.827 610.314 117.906 610.509 117.987C610.705 118.068 610.906 118.151 611.102 118.241C611.299 118.33 611.492 118.426 611.671 118.531C611.85 118.637 612.016 118.753 612.159 118.882C612.408 119.109 612.552 119.388 612.606 119.68C612.66 119.972 612.625 120.276 612.515 120.552C612.405 120.827 612.222 121.075 611.98 121.253C611.738 121.431 611.438 121.541 611.096 121.541L611.097 121.542ZM566.564 137.553C566.318 137.553 566.087 137.496 565.881 137.396C565.675 137.297 565.495 137.154 565.352 136.982C565.208 136.81 565.103 136.609 565.047 136.391C564.99 136.173 564.983 135.94 565.036 135.704C565.087 135.481 565.185 135.256 565.314 135.035C565.442 134.813 565.601 134.595 565.771 134.384C565.941 134.172 566.123 133.966 566.299 133.771C566.474 133.575 566.643 133.389 566.789 133.216C567.141 132.797 567.504 132.386 567.876 131.984C568.249 131.583 568.633 131.191 569.026 130.808C569.419 130.426 569.822 130.053 570.235 129.692C570.648 129.33 571.07 128.978 571.503 128.638C572.352 127.969 573.235 127.344 574.148 126.765C575.061 126.186 576.004 125.653 576.971 125.166C577.939 124.68 578.931 124.24 579.943 123.848C580.955 123.457 581.986 123.113 583.032 122.818C585.156 122.22 587.343 121.816 589.552 121.609C591.76 121.401 593.991 121.39 596.203 121.576C598.415 121.763 600.609 122.147 602.743 122.731C604.878 123.315 606.953 124.099 608.929 125.084C609.897 125.566 610.838 126.095 611.749 126.668C612.661 127.241 613.543 127.858 614.391 128.517C615.239 129.175 616.054 129.875 616.831 130.614C617.609 131.353 618.349 132.131 619.048 132.945C619.204 133.127 619.382 133.32 619.567 133.522C619.752 133.723 619.942 133.934 620.121 134.15C620.301 134.367 620.47 134.589 620.611 134.816C620.753 135.043 620.867 135.273 620.937 135.504C621.004 135.725 621.015 135.948 620.982 136.161C620.947 136.374 620.867 136.576 620.749 136.755C620.631 136.934 620.477 137.091 620.294 137.211C620.111 137.33 619.899 137.414 619.668 137.45C619.399 137.491 619.167 137.465 618.96 137.393C618.754 137.321 618.574 137.201 618.411 137.054C618.247 136.907 618.1 136.732 617.957 136.549C617.815 136.367 617.68 136.176 617.539 135.996C617.369 135.778 617.196 135.562 617.02 135.349C616.843 135.136 616.664 134.925 616.482 134.717C616.3 134.509 616.114 134.303 615.927 134.099C615.738 133.896 615.548 133.695 615.354 133.497C613.817 131.927 612.112 130.558 610.28 129.394C608.448 128.23 606.49 127.271 604.449 126.519C602.408 125.767 600.284 125.223 598.121 124.891C595.957 124.558 593.754 124.436 591.553 124.528C589.334 124.622 587.144 124.937 585.02 125.464C582.897 125.992 580.84 126.731 578.887 127.673C576.934 128.616 575.085 129.761 573.379 131.099C571.672 132.437 570.107 133.969 568.721 135.684C568.576 135.863 568.436 136.07 568.291 136.279C568.145 136.488 567.995 136.699 567.829 136.888C567.663 137.076 567.481 137.243 567.274 137.362C567.066 137.481 566.833 137.553 566.564 137.553V137.553ZM586.014 174.36C585.717 174.36 585.425 174.257 585.143 174.091C584.862 173.925 584.589 173.695 584.331 173.441C584.073 173.186 583.83 172.907 583.604 172.642C583.379 172.376 583.173 172.125 582.99 171.926C582.788 171.708 582.589 171.487 582.395 171.263C582.2 171.039 582.009 170.812 581.821 170.582C581.633 170.353 581.45 170.12 581.27 169.884C581.09 169.648 580.914 169.41 580.743 169.168C580.334 168.592 579.94 168.003 579.565 167.401C579.19 166.801 578.834 166.187 578.501 165.562C578.168 164.937 577.858 164.301 577.575 163.654C577.293 163.007 577.037 162.349 576.815 161.681C576.397 160.429 576.049 159.119 575.799 157.782C575.549 156.446 575.398 155.082 575.373 153.723C575.349 152.363 575.45 151.008 575.705 149.687C575.961 148.367 576.371 147.081 576.963 145.862C578.047 143.628 579.595 141.75 581.444 140.262C583.292 138.774 585.44 137.676 587.727 137.004C590.012 136.332 592.435 136.086 594.831 136.3C597.227 136.515 599.597 137.191 601.777 138.362C602.808 138.916 603.779 139.571 604.673 140.313C605.567 141.054 606.383 141.881 607.106 142.78C607.828 143.679 608.458 144.649 608.976 145.676C609.494 146.703 609.9 147.786 610.18 148.911C610.25 149.195 610.314 149.482 610.369 149.771C610.425 150.061 610.472 150.352 610.511 150.645C610.55 150.937 610.58 151.231 610.6 151.524C610.62 151.818 610.63 152.112 610.63 152.405C610.63 152.697 610.564 152.978 610.448 153.226C610.331 153.474 610.163 153.689 609.957 153.849C609.752 154.009 609.508 154.116 609.239 154.144C608.971 154.174 608.678 154.125 608.375 153.98C608.085 153.84 607.888 153.64 607.754 153.402C607.619 153.164 607.547 152.888 607.506 152.597C607.464 152.306 607.455 152 607.447 151.702C607.438 151.404 607.431 151.114 607.394 150.854C607.353 150.569 607.303 150.287 607.242 150.006C607.182 149.724 607.112 149.446 607.032 149.17C606.952 148.894 606.863 148.62 606.764 148.35C606.666 148.08 606.557 147.813 606.441 147.549C605.415 145.242 603.819 143.401 601.893 142.049C599.967 140.698 597.712 139.835 595.369 139.486C593.026 139.136 590.595 139.299 588.317 139.998C586.04 140.697 583.916 141.932 582.186 143.726C581.786 144.14 581.414 144.579 581.072 145.038C580.729 145.498 580.416 145.979 580.136 146.477C579.856 146.975 579.609 147.491 579.399 148.022C579.188 148.552 579.012 149.096 578.876 149.65C578.715 150.306 578.61 150.976 578.551 151.653C578.493 152.33 578.48 153.015 578.503 153.7C578.527 154.384 578.587 155.069 578.673 155.746C578.758 156.423 578.87 157.094 578.999 157.749C579.14 158.471 579.317 159.178 579.527 159.87C579.737 160.562 579.98 161.24 580.254 161.906C580.528 162.572 580.833 163.227 581.167 163.871C581.5 164.516 581.862 165.15 582.251 165.776C582.586 166.316 582.939 166.833 583.309 167.334C583.68 167.835 584.066 168.319 584.465 168.793C584.864 169.267 585.276 169.731 585.699 170.191C586.122 170.65 586.554 171.106 586.994 171.563C587.232 171.811 587.394 172.109 587.477 172.417C587.56 172.725 587.564 173.044 587.487 173.332C587.41 173.62 587.25 173.876 587.006 174.061C586.762 174.246 586.433 174.359 586.017 174.359L586.014 174.36ZM608.327 168.718C607.169 168.718 606.028 168.619 604.917 168.418C603.806 168.218 602.725 167.917 601.686 167.515C600.647 167.112 599.65 166.608 598.708 166.001C597.767 165.394 596.881 164.685 596.062 163.872C595.341 163.156 594.672 162.358 594.077 161.499C593.482 160.64 592.961 159.721 592.534 158.763C592.106 157.806 591.774 156.81 591.557 155.797C591.34 154.785 591.239 153.756 591.274 152.734C591.283 152.496 591.331 152.266 591.416 152.058C591.501 151.85 591.623 151.663 591.776 151.511C591.929 151.358 592.114 151.239 592.327 151.168C592.539 151.096 592.78 151.071 593.043 151.106C593.334 151.144 593.561 151.235 593.74 151.364C593.918 151.493 594.047 151.66 594.141 151.853C594.235 152.045 594.294 152.262 594.333 152.489C594.371 152.717 594.389 152.956 594.4 153.191C594.424 153.703 594.48 154.212 594.567 154.716C594.653 155.22 594.772 155.718 594.92 156.207C595.067 156.697 595.245 157.178 595.45 157.647C595.656 158.117 595.891 158.575 596.152 159.018C596.706 159.956 597.366 160.811 598.114 161.571C598.862 162.331 599.697 162.996 600.6 163.556C601.503 164.116 602.474 164.571 603.494 164.91C604.515 165.249 605.583 165.472 606.682 165.569C607.007 165.598 607.331 165.616 607.655 165.626C607.98 165.635 608.304 165.636 608.628 165.627C608.952 165.619 609.275 165.603 609.599 165.578C609.922 165.553 610.246 165.52 610.569 165.48C610.841 165.446 611.129 165.405 611.413 165.385C611.697 165.364 611.978 165.364 612.235 165.412C612.492 165.459 612.726 165.554 612.917 165.723C613.108 165.892 613.257 166.136 613.343 166.481C613.492 167.077 613.345 167.515 613.018 167.836C612.691 168.158 612.183 168.363 611.612 168.494C611.04 168.625 610.403 168.681 609.818 168.704C609.232 168.728 608.697 168.719 608.327 168.719V168.718ZM602.072 175C601.897 175 601.717 174.977 601.534 174.94C601.35 174.902 601.165 174.85 600.981 174.791C600.796 174.732 600.614 174.667 600.436 174.602C600.257 174.538 600.084 174.475 599.919 174.422C599.727 174.36 599.536 174.297 599.345 174.231C599.154 174.165 598.964 174.099 598.774 174.029C598.585 173.96 598.396 173.889 598.208 173.815C598.021 173.742 597.834 173.667 597.648 173.589C597.335 173.459 597.025 173.323 596.719 173.18C596.412 173.037 596.109 172.888 595.809 172.732C595.509 172.576 595.213 172.414 594.921 172.244C594.629 172.075 594.34 171.899 594.056 171.717C593.437 171.319 592.834 170.892 592.251 170.438C591.667 169.984 591.104 169.504 590.562 169C590.022 168.496 589.504 167.968 589.013 167.419C588.523 166.87 588.059 166.301 587.626 165.712C587.176 165.102 586.759 164.47 586.376 163.818C585.992 163.167 585.643 162.496 585.329 161.811C585.015 161.125 584.736 160.424 584.495 159.71C584.253 158.996 584.048 158.27 583.882 157.535C583.733 156.875 583.598 156.191 583.498 155.497C583.397 154.804 583.33 154.099 583.315 153.397C583.3 152.695 583.339 151.996 583.448 151.311C583.557 150.627 583.739 149.958 584.01 149.317C584.531 148.088 585.31 147.037 586.26 146.187C587.21 145.338 588.333 144.689 589.541 144.263C590.748 143.838 592.043 143.635 593.337 143.679C594.631 143.722 595.926 144.01 597.135 144.566C597.712 144.831 598.261 145.153 598.772 145.523C599.283 145.894 599.755 146.314 600.18 146.775C600.605 147.236 600.982 147.739 601.303 148.275C601.623 148.812 601.886 149.383 602.084 149.98C602.186 150.291 602.255 150.603 602.305 150.915C602.354 151.227 602.384 151.539 602.409 151.853C602.435 152.166 602.456 152.479 602.487 152.793C602.518 153.106 602.558 153.42 602.624 153.734C602.686 154.037 602.776 154.332 602.889 154.618C603.001 154.904 603.138 155.18 603.296 155.444C603.453 155.709 603.633 155.961 603.83 156.199C604.028 156.438 604.244 156.661 604.477 156.867C604.977 157.31 605.542 157.666 606.147 157.933C606.751 158.201 607.393 158.378 608.05 158.466C608.706 158.553 609.376 158.549 610.032 158.452C610.688 158.356 611.332 158.166 611.938 157.881C612.559 157.589 613.096 157.225 613.549 156.802C614.002 156.378 614.373 155.897 614.661 155.37C614.95 154.844 615.158 154.272 615.286 153.668C615.414 153.064 615.463 152.429 615.435 151.775C615.381 150.525 615.202 149.29 614.909 148.085C614.615 146.879 614.206 145.704 613.693 144.574C613.179 143.445 612.56 142.36 611.847 141.335C611.133 140.311 610.324 139.347 609.43 138.458C607.47 136.509 605.184 134.985 602.716 133.892C600.247 132.8 597.596 132.139 594.905 131.918C592.214 131.697 589.483 131.915 586.856 132.58C584.229 133.245 581.705 134.356 579.426 135.922C578.212 136.757 577.092 137.704 576.086 138.747C575.08 139.789 574.187 140.927 573.427 142.143C572.666 143.359 572.039 144.651 571.563 146.004C571.087 147.357 570.762 148.77 570.609 150.225C570.543 150.847 570.502 151.474 570.485 152.102C570.468 152.731 570.475 153.36 570.503 153.99C570.531 154.619 570.581 155.248 570.651 155.873C570.72 156.498 570.811 157.12 570.919 157.736C570.99 158.14 571.07 158.543 571.158 158.944C571.246 159.345 571.342 159.744 571.446 160.142C571.55 160.539 571.662 160.934 571.781 161.327C571.9 161.721 572.026 162.112 572.16 162.5C572.215 162.659 572.281 162.821 572.348 162.987C572.415 163.152 572.482 163.32 572.538 163.49C572.593 163.659 572.636 163.831 572.656 164.003C572.676 164.175 572.671 164.348 572.631 164.519C572.594 164.678 572.531 164.825 572.447 164.958C572.363 165.092 572.258 165.21 572.136 165.311C572.015 165.412 571.878 165.495 571.73 165.556C571.582 165.617 571.423 165.657 571.258 165.672C570.833 165.709 570.493 165.592 570.217 165.377C569.941 165.161 569.728 164.849 569.557 164.494C569.386 164.139 569.257 163.744 569.149 163.364C569.041 162.984 568.952 162.619 568.863 162.327C568.734 161.904 568.613 161.479 568.5 161.052C568.387 160.625 568.283 160.196 568.187 159.764C568.092 159.333 568.004 158.9 567.925 158.466C567.847 158.032 567.777 157.596 567.716 157.159C567.598 156.307 567.509 155.449 567.456 154.587C567.403 153.726 567.385 152.861 567.407 151.998C567.429 151.136 567.49 150.274 567.597 149.418C567.703 148.563 567.854 147.713 568.055 146.874C568.384 145.501 568.856 144.172 569.453 142.901C570.05 141.629 570.772 140.415 571.599 139.273C572.426 138.13 573.358 137.058 574.377 136.071C575.395 135.085 576.5 134.183 577.671 133.38C579.952 131.815 582.455 130.648 585.068 129.876C587.682 129.103 590.404 128.728 593.123 128.749C595.842 128.769 598.557 129.186 601.155 130C603.754 130.813 606.236 132.023 608.488 133.629C609.518 134.363 610.49 135.173 611.394 136.05C612.298 136.926 613.133 137.868 613.89 138.868C614.647 139.867 615.325 140.923 615.914 142.026C616.503 143.129 617.002 144.279 617.401 145.468C617.792 146.629 618.119 147.86 618.325 149.106C618.531 150.353 618.614 151.615 618.517 152.84C618.42 154.066 618.142 155.254 617.625 156.352C617.107 157.451 616.351 158.46 615.296 159.326C614.257 160.18 613.067 160.781 611.814 161.136C610.561 161.491 609.246 161.6 607.957 161.47C606.668 161.341 605.405 160.972 604.257 160.371C603.109 159.77 602.076 158.936 601.246 157.877C601.053 157.631 600.873 157.375 600.708 157.11C600.542 156.846 600.391 156.573 600.255 156.293C600.118 156.013 599.997 155.726 599.892 155.433C599.787 155.141 599.698 154.842 599.626 154.54C599.552 154.23 599.508 153.916 599.477 153.602C599.446 153.288 599.428 152.972 599.406 152.657C599.384 152.342 599.359 152.028 599.312 151.717C599.265 151.406 599.198 151.098 599.092 150.794C598.879 150.18 598.563 149.621 598.169 149.126C597.775 148.631 597.302 148.201 596.775 147.844C596.248 147.488 595.666 147.206 595.054 147.007C594.442 146.809 593.799 146.695 593.15 146.674C592.504 146.654 591.859 146.725 591.239 146.88C590.619 147.036 590.022 147.275 589.474 147.59C588.926 147.906 588.424 148.297 587.994 148.756C587.563 149.216 587.204 149.743 586.937 150.331C586.793 150.65 586.687 150.975 586.612 151.304C586.537 151.633 586.493 151.966 586.47 152.302C586.447 152.638 586.446 152.977 586.458 153.317C586.471 153.657 586.496 153.998 586.527 154.339C586.561 154.717 586.606 155.094 586.662 155.47C586.719 155.845 586.786 156.219 586.864 156.591C586.943 156.963 587.032 157.332 587.133 157.699C587.234 158.065 587.346 158.429 587.468 158.789C587.931 160.148 588.555 161.448 589.316 162.668C590.077 163.888 590.973 165.028 591.981 166.065C592.988 167.103 594.106 168.039 595.309 168.851C596.512 169.663 597.8 170.351 599.149 170.894C599.317 170.962 599.485 171.028 599.655 171.092C599.824 171.156 599.995 171.218 600.166 171.278C600.336 171.338 600.508 171.397 600.68 171.453C600.852 171.51 601.025 171.566 601.198 171.62C601.357 171.669 601.528 171.711 601.703 171.753C601.877 171.796 602.056 171.84 602.23 171.892C602.404 171.944 602.573 172.006 602.73 172.085C602.886 172.164 603.028 172.26 603.15 172.382C603.378 172.612 603.509 172.891 603.556 173.179C603.603 173.468 603.566 173.767 603.459 174.036C603.351 174.306 603.173 174.547 602.938 174.721C602.702 174.894 602.409 175 602.072 175H602.072Z" fill="#101C2B"/>
<path d="M125.69 245.098C124.972 245.098 124.328 244.981 123.758 244.748C123.189 244.515 122.732 244.169 122.386 243.712C122.05 243.255 121.873 242.704 121.854 242.06H124.402C124.44 242.424 124.566 242.704 124.78 242.9C124.995 243.087 125.275 243.18 125.62 243.18C125.975 243.18 126.255 243.101 126.46 242.942C126.666 242.774 126.768 242.545 126.768 242.256C126.768 242.013 126.684 241.813 126.516 241.654C126.358 241.495 126.157 241.365 125.914 241.262C125.681 241.159 125.345 241.043 124.906 240.912C124.272 240.716 123.754 240.52 123.352 240.324C122.951 240.128 122.606 239.839 122.316 239.456C122.027 239.073 121.882 238.574 121.882 237.958C121.882 237.043 122.214 236.329 122.876 235.816C123.539 235.293 124.402 235.032 125.466 235.032C126.549 235.032 127.422 235.293 128.084 235.816C128.747 236.329 129.102 237.048 129.148 237.972H126.558C126.54 237.655 126.423 237.407 126.208 237.23C125.994 237.043 125.718 236.95 125.382 236.95C125.093 236.95 124.86 237.029 124.682 237.188C124.505 237.337 124.416 237.557 124.416 237.846C124.416 238.163 124.566 238.411 124.864 238.588C125.163 238.765 125.63 238.957 126.264 239.162C126.899 239.377 127.412 239.582 127.804 239.778C128.206 239.974 128.551 240.259 128.84 240.632C129.13 241.005 129.274 241.486 129.274 242.074C129.274 242.634 129.13 243.143 128.84 243.6C128.56 244.057 128.15 244.421 127.608 244.692C127.067 244.963 126.428 245.098 125.69 245.098ZM135.545 245.098C134.621 245.098 133.772 244.883 132.997 244.454C132.232 244.025 131.621 243.427 131.163 242.662C130.715 241.887 130.491 241.019 130.491 240.058C130.491 239.097 130.715 238.233 131.163 237.468C131.621 236.703 132.232 236.105 132.997 235.676C133.772 235.247 134.621 235.032 135.545 235.032C136.469 235.032 137.314 235.247 138.079 235.676C138.854 236.105 139.461 236.703 139.899 237.468C140.347 238.233 140.571 239.097 140.571 240.058C140.571 241.019 140.347 241.887 139.899 242.662C139.451 243.427 138.845 244.025 138.079 244.454C137.314 244.883 136.469 245.098 135.545 245.098ZM135.545 242.914C136.329 242.914 136.955 242.653 137.421 242.13C137.897 241.607 138.135 240.917 138.135 240.058C138.135 239.19 137.897 238.499 137.421 237.986C136.955 237.463 136.329 237.202 135.545 237.202C134.752 237.202 134.117 237.459 133.641 237.972C133.175 238.485 132.941 239.181 132.941 240.058C132.941 240.926 133.175 241.621 133.641 242.144C134.117 242.657 134.752 242.914 135.545 242.914ZM148.451 235.172V237.09H144.447V239.162H147.443V241.024H144.447V245H142.053V235.172H148.451ZM156.93 235.172V237.09H154.326V245H151.932V237.09H149.328V235.172H156.93ZM171.805 235.172L169.243 245H166.345L164.777 238.532L163.153 245H160.255L157.763 235.172H160.325L161.739 242.326L163.489 235.172H166.121L167.801 242.326L169.229 235.172H171.805ZM179.274 243.264H175.606L175.018 245H172.512L176.068 235.172H178.84L182.396 245H179.862L179.274 243.264ZM178.658 241.416L177.44 237.818L176.236 241.416H178.658ZM188.64 245L186.596 241.29H186.022V245H183.628V235.172H187.646C188.421 235.172 189.079 235.307 189.62 235.578C190.171 235.849 190.581 236.222 190.852 236.698C191.123 237.165 191.258 237.687 191.258 238.266C191.258 238.919 191.071 239.503 190.698 240.016C190.334 240.529 189.793 240.893 189.074 241.108L191.342 245H188.64ZM186.022 239.596H187.506C187.945 239.596 188.271 239.489 188.486 239.274C188.71 239.059 188.822 238.756 188.822 238.364C188.822 237.991 188.71 237.697 188.486 237.482C188.271 237.267 187.945 237.16 187.506 237.16H186.022V239.596ZM195.305 237.09V239.078H198.511V240.926H195.305V243.082H198.931V245H192.911V235.172H198.931V237.09H195.305ZM135.886 256.336C135.886 256.905 135.755 257.428 135.494 257.904C135.232 258.371 134.831 258.749 134.29 259.038C133.748 259.327 133.076 259.472 132.274 259.472H130.79V263H128.396V253.172H132.274C133.058 253.172 133.72 253.307 134.262 253.578C134.803 253.849 135.209 254.222 135.48 254.698C135.75 255.174 135.886 255.72 135.886 256.336ZM132.092 257.568C132.549 257.568 132.89 257.461 133.114 257.246C133.338 257.031 133.45 256.728 133.45 256.336C133.45 255.944 133.338 255.641 133.114 255.426C132.89 255.211 132.549 255.104 132.092 255.104H130.79V257.568H132.092ZM143.4 261.264H139.732L139.144 263H136.638L140.194 253.172H142.966L146.522 263H143.988L143.4 261.264ZM142.784 259.416L141.566 255.818L140.362 259.416H142.784ZM147.348 258.072C147.348 257.101 147.558 256.238 147.978 255.482C148.398 254.717 148.981 254.124 149.728 253.704C150.484 253.275 151.338 253.06 152.29 253.06C153.457 253.06 154.455 253.368 155.286 253.984C156.117 254.6 156.672 255.44 156.952 256.504H154.32C154.124 256.093 153.844 255.781 153.48 255.566C153.125 255.351 152.719 255.244 152.262 255.244C151.525 255.244 150.927 255.501 150.47 256.014C150.013 256.527 149.784 257.213 149.784 258.072C149.784 258.931 150.013 259.617 150.47 260.13C150.927 260.643 151.525 260.9 152.262 260.9C152.719 260.9 153.125 260.793 153.48 260.578C153.844 260.363 154.124 260.051 154.32 259.64H156.952C156.672 260.704 156.117 261.544 155.286 262.16C154.455 262.767 153.457 263.07 152.29 263.07C151.338 263.07 150.484 262.86 149.728 262.44C148.981 262.011 148.398 261.418 147.978 260.662C147.558 259.906 147.348 259.043 147.348 258.072ZM164.266 263L160.962 258.66V263H158.568V253.172H160.962V257.484L164.238 253.172H167.052L163.244 257.988L167.192 263H164.266ZM174.598 261.264H170.93L170.342 263H167.836L171.392 253.172H174.164L177.72 263H175.186L174.598 261.264ZM173.982 259.416L172.764 255.818L171.56 259.416H173.982ZM185.476 256.28C185.299 255.953 185.042 255.706 184.706 255.538C184.38 255.361 183.992 255.272 183.544 255.272C182.77 255.272 182.149 255.529 181.682 256.042C181.216 256.546 180.982 257.223 180.982 258.072C180.982 258.977 181.225 259.687 181.71 260.2C182.205 260.704 182.882 260.956 183.74 260.956C184.328 260.956 184.823 260.807 185.224 260.508C185.635 260.209 185.934 259.78 186.12 259.22H183.082V257.456H188.29V259.682C188.113 260.279 187.81 260.835 187.38 261.348C186.96 261.861 186.424 262.277 185.77 262.594C185.117 262.911 184.38 263.07 183.558 263.07C182.588 263.07 181.72 262.86 180.954 262.44C180.198 262.011 179.606 261.418 179.176 260.662C178.756 259.906 178.546 259.043 178.546 258.072C178.546 257.101 178.756 256.238 179.176 255.482C179.606 254.717 180.198 254.124 180.954 253.704C181.71 253.275 182.574 253.06 183.544 253.06C184.72 253.06 185.71 253.345 186.512 253.914C187.324 254.483 187.861 255.272 188.122 256.28H185.476ZM192.16 255.09V257.078H195.366V258.926H192.16V261.082H195.786V263H189.766V253.172H195.786V255.09H192.16Z" fill="#101C2B"/>
<path d="M562.927 240.072C562.927 239.101 563.137 238.238 563.557 237.482C563.977 236.717 564.56 236.124 565.307 235.704C566.063 235.275 566.917 235.06 567.869 235.06C569.036 235.06 570.034 235.368 570.865 235.984C571.696 236.6 572.251 237.44 572.531 238.504H569.899C569.703 238.093 569.423 237.781 569.059 237.566C568.704 237.351 568.298 237.244 567.841 237.244C567.104 237.244 566.506 237.501 566.049 238.014C565.592 238.527 565.363 239.213 565.363 240.072C565.363 240.931 565.592 241.617 566.049 242.13C566.506 242.643 567.104 242.9 567.841 242.9C568.298 242.9 568.704 242.793 569.059 242.578C569.423 242.363 569.703 242.051 569.899 241.64H572.531C572.251 242.704 571.696 243.544 570.865 244.16C570.034 244.767 569.036 245.07 567.869 245.07C566.917 245.07 566.063 244.86 565.307 244.44C564.56 244.011 563.977 243.418 563.557 242.662C563.137 241.906 562.927 241.043 562.927 240.072ZM579.159 245L577.115 241.29H576.541V245H574.147V235.172H578.165C578.94 235.172 579.598 235.307 580.139 235.578C580.69 235.849 581.1 236.222 581.371 236.698C581.642 237.165 581.777 237.687 581.777 238.266C581.777 238.919 581.59 239.503 581.217 240.016C580.853 240.529 580.312 240.893 579.593 241.108L581.861 245H579.159ZM576.541 239.596H578.025C578.464 239.596 578.79 239.489 579.005 239.274C579.229 239.059 579.341 238.756 579.341 238.364C579.341 237.991 579.229 237.697 579.005 237.482C578.79 237.267 578.464 237.16 578.025 237.16H576.541V239.596ZM591.858 235.172L588.456 241.752V245H586.062V241.752L582.66 235.172H585.376L587.28 239.288L589.17 235.172H591.858ZM600.462 238.336C600.462 238.905 600.332 239.428 600.07 239.904C599.809 240.371 599.408 240.749 598.866 241.038C598.325 241.327 597.653 241.472 596.85 241.472H595.366V245H592.972V235.172H596.85C597.634 235.172 598.297 235.307 598.838 235.578C599.38 235.849 599.786 236.222 600.056 236.698C600.327 237.174 600.462 237.72 600.462 238.336ZM596.668 239.568C597.126 239.568 597.466 239.461 597.69 239.246C597.914 239.031 598.026 238.728 598.026 238.336C598.026 237.944 597.914 237.641 597.69 237.426C597.466 237.211 597.126 237.104 596.668 237.104H595.366V239.568H596.668ZM608.929 235.172V237.09H606.325V245H603.931V237.09H601.327V235.172H608.929ZM614.928 245.098C614.004 245.098 613.155 244.883 612.38 244.454C611.615 244.025 611.004 243.427 610.546 242.662C610.098 241.887 609.874 241.019 609.874 240.058C609.874 239.097 610.098 238.233 610.546 237.468C611.004 236.703 611.615 236.105 612.38 235.676C613.155 235.247 614.004 235.032 614.928 235.032C615.852 235.032 616.697 235.247 617.462 235.676C618.237 236.105 618.844 236.703 619.282 237.468C619.73 238.233 619.954 239.097 619.954 240.058C619.954 241.019 619.73 241.887 619.282 242.662C618.834 243.427 618.228 244.025 617.462 244.454C616.697 244.883 615.852 245.098 614.928 245.098ZM614.928 242.914C615.712 242.914 616.338 242.653 616.804 242.13C617.28 241.607 617.518 240.917 617.518 240.058C617.518 239.19 617.28 238.499 616.804 237.986C616.338 237.463 615.712 237.202 614.928 237.202C614.135 237.202 613.5 237.459 613.024 237.972C612.558 238.485 612.324 239.181 612.324 240.058C612.324 240.926 612.558 241.621 613.024 242.144C613.5 242.657 614.135 242.914 614.928 242.914ZM554.276 253.172V255.09H550.272V257.162H553.268V259.024H550.272V263H547.878V253.172H554.276ZM558.078 253.172V263H555.684V253.172H558.078ZM568.755 263H566.361L562.357 256.938V263H559.963V253.172H562.357L566.361 259.262V253.172H568.755V263ZM577.164 256.28C576.987 255.953 576.73 255.706 576.394 255.538C576.068 255.361 575.68 255.272 575.232 255.272C574.458 255.272 573.837 255.529 573.37 256.042C572.904 256.546 572.67 257.223 572.67 258.072C572.67 258.977 572.913 259.687 573.398 260.2C573.893 260.704 574.57 260.956 575.428 260.956C576.016 260.956 576.511 260.807 576.912 260.508C577.323 260.209 577.622 259.78 577.808 259.22H574.77V257.456H579.978V259.682C579.801 260.279 579.498 260.835 579.068 261.348C578.648 261.861 578.112 262.277 577.458 262.594C576.805 262.911 576.068 263.07 575.246 263.07C574.276 263.07 573.408 262.86 572.642 262.44C571.886 262.011 571.294 261.418 570.864 260.662C570.444 259.906 570.234 259.043 570.234 258.072C570.234 257.101 570.444 256.238 570.864 255.482C571.294 254.717 571.886 254.124 572.642 253.704C573.398 253.275 574.262 253.06 575.232 253.06C576.408 253.06 577.398 253.345 578.2 253.914C579.012 254.483 579.549 255.272 579.81 256.28H577.164ZM583.848 255.09V257.078H587.054V258.926H583.848V261.082H587.474V263H581.454V253.172H587.474V255.09H583.848ZM594.191 263L592.147 259.29H591.573V263H589.179V253.172H593.197C593.971 253.172 594.629 253.307 595.171 253.578C595.721 253.849 596.132 254.222 596.403 254.698C596.673 255.165 596.809 255.687 596.809 256.266C596.809 256.919 596.622 257.503 596.249 258.016C595.885 258.529 595.343 258.893 594.625 259.108L596.893 263H594.191ZM591.573 257.596H593.057C593.495 257.596 593.822 257.489 594.037 257.274C594.261 257.059 594.373 256.756 594.373 256.364C594.373 255.991 594.261 255.697 594.037 255.482C593.822 255.267 593.495 255.16 593.057 255.16H591.573V257.596ZM605.951 256.336C605.951 256.905 605.821 257.428 605.559 257.904C605.298 258.371 604.897 258.749 604.355 259.038C603.814 259.327 603.142 259.472 602.339 259.472H600.855V263H598.461V253.172H602.339C603.123 253.172 603.786 253.307 604.327 253.578C604.869 253.849 605.275 254.222 605.545 254.698C605.816 255.174 605.951 255.72 605.951 256.336ZM602.157 257.568C602.615 257.568 602.955 257.461 603.179 257.246C603.403 257.031 603.515 256.728 603.515 256.336C603.515 255.944 603.403 255.641 603.179 255.426C602.955 255.211 602.615 255.104 602.157 255.104H600.855V257.568H602.157ZM612.36 263L610.316 259.29H609.742V263H607.348V253.172H611.366C612.14 253.172 612.798 253.307 613.34 253.578C613.89 253.849 614.301 254.222 614.572 254.698C614.842 255.165 614.978 255.687 614.978 256.266C614.978 256.919 614.791 257.503 614.418 258.016C614.054 258.529 613.512 258.893 612.794 259.108L615.062 263H612.36ZM609.742 257.596H611.226C611.664 257.596 611.991 257.489 612.206 257.274C612.43 257.059 612.542 256.756 612.542 256.364C612.542 255.991 612.43 255.697 612.206 255.482C611.991 255.267 611.664 255.16 611.226 255.16H609.742V257.596ZM619.024 253.172V263H616.63V253.172H619.024ZM629.701 263H627.307L623.303 256.938V263H620.909V253.172H623.303L627.307 259.262V253.172H629.701V263ZM638.657 253.172V255.09H636.053V263H633.659V255.09H631.055V253.172H638.657Z" fill="#101C2B"/>
<path d="M950.502 254.098C949.783 254.098 949.139 253.981 948.57 253.748C948.001 253.515 947.543 253.169 947.198 252.712C946.862 252.255 946.685 251.704 946.666 251.06H949.214C949.251 251.424 949.377 251.704 949.592 251.9C949.807 252.087 950.087 252.18 950.432 252.18C950.787 252.18 951.067 252.101 951.272 251.942C951.477 251.774 951.58 251.545 951.58 251.256C951.58 251.013 951.496 250.813 951.328 250.654C951.169 250.495 950.969 250.365 950.726 250.262C950.493 250.159 950.157 250.043 949.718 249.912C949.083 249.716 948.565 249.52 948.164 249.324C947.763 249.128 947.417 248.839 947.128 248.456C946.839 248.073 946.694 247.574 946.694 246.958C946.694 246.043 947.025 245.329 947.688 244.816C948.351 244.293 949.214 244.032 950.278 244.032C951.361 244.032 952.233 244.293 952.896 244.816C953.559 245.329 953.913 246.048 953.96 246.972H951.37C951.351 246.655 951.235 246.407 951.02 246.23C950.805 246.043 950.53 245.95 950.194 245.95C949.905 245.95 949.671 246.029 949.494 246.188C949.317 246.337 949.228 246.557 949.228 246.846C949.228 247.163 949.377 247.411 949.676 247.588C949.975 247.765 950.441 247.957 951.076 248.162C951.711 248.377 952.224 248.582 952.616 248.778C953.017 248.974 953.363 249.259 953.652 249.632C953.941 250.005 954.086 250.486 954.086 251.074C954.086 251.634 953.941 252.143 953.652 252.6C953.372 253.057 952.961 253.421 952.42 253.692C951.879 253.963 951.239 254.098 950.502 254.098ZM964.137 244.172L960.735 250.752V254H958.341V250.752L954.939 244.172H957.655L959.559 248.288L961.449 244.172H964.137ZM968.808 254.098C968.089 254.098 967.445 253.981 966.876 253.748C966.307 253.515 965.849 253.169 965.504 252.712C965.168 252.255 964.991 251.704 964.972 251.06H967.52C967.557 251.424 967.683 251.704 967.898 251.9C968.113 252.087 968.393 252.18 968.738 252.18C969.093 252.18 969.373 252.101 969.578 251.942C969.783 251.774 969.886 251.545 969.886 251.256C969.886 251.013 969.802 250.813 969.634 250.654C969.475 250.495 969.275 250.365 969.032 250.262C968.799 250.159 968.463 250.043 968.024 249.912C967.389 249.716 966.871 249.52 966.47 249.324C966.069 249.128 965.723 248.839 965.434 248.456C965.145 248.073 965 247.574 965 246.958C965 246.043 965.331 245.329 965.994 244.816C966.657 244.293 967.52 244.032 968.584 244.032C969.667 244.032 970.539 244.293 971.202 244.816C971.865 245.329 972.219 246.048 972.266 246.972H969.676C969.657 246.655 969.541 246.407 969.326 246.23C969.111 246.043 968.836 245.95 968.5 245.95C968.211 245.95 967.977 246.029 967.8 246.188C967.623 246.337 967.534 246.557 967.534 246.846C967.534 247.163 967.683 247.411 967.982 247.588C968.281 247.765 968.747 247.957 969.382 248.162C970.017 248.377 970.53 248.582 970.922 248.778C971.323 248.974 971.669 249.259 971.958 249.632C972.247 250.005 972.392 250.486 972.392 251.074C972.392 251.634 972.247 252.143 971.958 252.6C971.678 253.057 971.267 253.421 970.726 253.692C970.185 253.963 969.545 254.098 968.808 254.098ZM981.085 244.172V246.09H978.481V254H976.087V246.09H973.483V244.172H981.085ZM984.831 246.09V248.078H988.037V249.926H984.831V252.082H988.457V254H982.437V244.172H988.457V246.09H984.831ZM1001.29 244.172V254H998.897V248.106L996.699 254H994.767L992.555 248.092V254H990.161V244.172H992.989L995.747 250.976L998.477 244.172H1001.29ZM1010.93 254.098C1010 254.098 1009.15 253.883 1008.38 253.454C1007.61 253.025 1007 252.427 1006.55 251.662C1006.1 250.887 1005.87 250.019 1005.87 249.058C1005.87 248.097 1006.1 247.233 1006.55 246.468C1007 245.703 1007.61 245.105 1008.38 244.676C1009.15 244.247 1010 244.032 1010.93 244.032C1011.85 244.032 1012.7 244.247 1013.46 244.676C1014.24 245.105 1014.84 245.703 1015.28 246.468C1015.73 247.233 1015.95 248.097 1015.95 249.058C1015.95 250.019 1015.73 250.887 1015.28 251.662C1014.83 252.427 1014.23 253.025 1013.46 253.454C1012.7 253.883 1011.85 254.098 1010.93 254.098ZM1010.93 251.914C1011.71 251.914 1012.34 251.653 1012.8 251.13C1013.28 250.607 1013.52 249.917 1013.52 249.058C1013.52 248.19 1013.28 247.499 1012.8 246.986C1012.34 246.463 1011.71 246.202 1010.93 246.202C1010.13 246.202 1009.5 246.459 1009.02 246.972C1008.56 247.485 1008.32 248.181 1008.32 249.058C1008.32 249.926 1008.56 250.621 1009.02 251.144C1009.5 251.657 1010.13 251.914 1010.93 251.914ZM1023.83 244.172V246.09H1019.83V248.162H1022.83V250.024H1019.83V254H1017.44V244.172H1023.83ZM1033.37 254L1031.33 250.29H1030.75V254H1028.36V244.172H1032.38C1033.15 244.172 1033.81 244.307 1034.35 244.578C1034.9 244.849 1035.31 245.222 1035.58 245.698C1035.85 246.165 1035.99 246.687 1035.99 247.266C1035.99 247.919 1035.8 248.503 1035.43 249.016C1035.06 249.529 1034.52 249.893 1033.8 250.108L1036.07 254H1033.37ZM1030.75 248.596H1032.24C1032.67 248.596 1033 248.489 1033.22 248.274C1033.44 248.059 1033.55 247.756 1033.55 247.364C1033.55 246.991 1033.44 246.697 1033.22 246.482C1033 246.267 1032.67 246.16 1032.24 246.16H1030.75V248.596ZM1040.04 246.09V248.078H1043.24V249.926H1040.04V252.082H1043.66V254H1037.64V244.172H1043.66V246.09H1040.04ZM1044.96 249.072C1044.96 248.101 1045.17 247.238 1045.59 246.482C1046.01 245.717 1046.59 245.124 1047.34 244.704C1048.1 244.275 1048.95 244.06 1049.9 244.06C1051.07 244.06 1052.07 244.368 1052.9 244.984C1053.73 245.6 1054.28 246.44 1054.56 247.504H1051.93C1051.74 247.093 1051.46 246.781 1051.09 246.566C1050.74 246.351 1050.33 246.244 1049.87 246.244C1049.14 246.244 1048.54 246.501 1048.08 247.014C1047.62 247.527 1047.4 248.213 1047.4 249.072C1047.4 249.931 1047.62 250.617 1048.08 251.13C1048.54 251.643 1049.14 251.9 1049.87 251.9C1050.33 251.9 1050.74 251.793 1051.09 251.578C1051.46 251.363 1051.74 251.051 1051.93 250.64H1054.56C1054.28 251.704 1053.73 252.544 1052.9 253.16C1052.07 253.767 1051.07 254.07 1049.9 254.07C1048.95 254.07 1048.1 253.86 1047.34 253.44C1046.59 253.011 1046.01 252.418 1045.59 251.662C1045.17 250.906 1044.96 250.043 1044.96 249.072ZM1060.83 254.098C1059.9 254.098 1059.05 253.883 1058.28 253.454C1057.51 253.025 1056.9 252.427 1056.45 251.662C1056 250.887 1055.77 250.019 1055.77 249.058C1055.77 248.097 1056 247.233 1056.45 246.468C1056.9 245.703 1057.51 245.105 1058.28 244.676C1059.05 244.247 1059.9 244.032 1060.83 244.032C1061.75 244.032 1062.6 244.247 1063.36 244.676C1064.14 245.105 1064.74 245.703 1065.18 246.468C1065.63 247.233 1065.85 248.097 1065.85 249.058C1065.85 250.019 1065.63 250.887 1065.18 251.662C1064.73 252.427 1064.13 253.025 1063.36 253.454C1062.6 253.883 1061.75 254.098 1060.83 254.098ZM1060.83 251.914C1061.61 251.914 1062.24 251.653 1062.7 251.13C1063.18 250.607 1063.42 249.917 1063.42 249.058C1063.42 248.19 1063.18 247.499 1062.7 246.986C1062.24 246.463 1061.61 246.202 1060.83 246.202C1060.03 246.202 1059.4 246.459 1058.92 246.972C1058.46 247.485 1058.22 248.181 1058.22 249.058C1058.22 249.926 1058.46 250.621 1058.92 251.144C1059.4 251.657 1060.03 251.914 1060.83 251.914ZM1072.35 254L1070.3 250.29H1069.73V254H1067.34V244.172H1071.35C1072.13 244.172 1072.79 244.307 1073.33 244.578C1073.88 244.849 1074.29 245.222 1074.56 245.698C1074.83 246.165 1074.97 246.687 1074.97 247.266C1074.97 247.919 1074.78 248.503 1074.41 249.016C1074.04 249.529 1073.5 249.893 1072.78 250.108L1075.05 254H1072.35ZM1069.73 248.596H1071.21C1071.65 248.596 1071.98 248.489 1072.19 248.274C1072.42 248.059 1072.53 247.756 1072.53 247.364C1072.53 246.991 1072.42 246.697 1072.19 246.482C1071.98 246.267 1071.65 246.16 1071.21 246.16H1069.73V248.596ZM1080.3 244.172C1081.34 244.172 1082.24 244.377 1083.02 244.788C1083.79 245.199 1084.39 245.777 1084.81 246.524C1085.24 247.261 1085.45 248.115 1085.45 249.086C1085.45 250.047 1085.24 250.901 1084.81 251.648C1084.39 252.395 1083.79 252.973 1083 253.384C1082.23 253.795 1081.33 254 1080.3 254H1076.62V244.172H1080.3ZM1080.15 251.928C1081.05 251.928 1081.76 251.681 1082.26 251.186C1082.76 250.691 1083.02 249.991 1083.02 249.086C1083.02 248.181 1082.76 247.476 1082.26 246.972C1081.76 246.468 1081.05 246.216 1080.15 246.216H1079.01V251.928H1080.15Z" fill="#101C2B"/>
<path d="M1015.86 121.854C1046.61 121.854 1071.54 112.302 1071.54 100.52C1071.54 88.7379 1046.61 79.1865 1015.86 79.1865C985.102 79.1865 960.172 88.7379 960.172 100.52C960.172 112.302 985.102 121.854 1015.86 121.854Z" stroke="#101C2B" stroke-width="4" stroke-miterlimit="10"/>
<path fill-rule="evenodd" clip-rule="evenodd" d="M1069.54 106.206V169.231C1069.54 171.418 1068.39 173.727 1065.82 176.055C1063.25 178.383 1059.42 180.571 1054.51 182.45C1044.72 186.202 1031.05 188.565 1015.86 188.565C1000.66 188.565 986.991 186.203 977.196 182.45C972.292 180.571 968.461 178.383 965.891 176.055C963.321 173.727 962.172 171.418 962.172 169.231V106.206C960.868 104.396 960.172 102.489 960.172 100.52C960.172 100.468 960.172 100.415 960.173 100.363H958.172V169.231C958.172 172.938 960.14 176.243 963.205 179.02C966.27 181.796 970.593 184.204 975.765 186.186C986.123 190.154 1000.3 192.565 1015.86 192.565C1031.41 192.565 1045.59 190.154 1055.95 186.186C1061.12 184.204 1065.44 181.796 1068.5 179.02C1071.57 176.243 1073.54 172.938 1073.54 169.231V100.363H1071.54C1071.54 100.415 1071.54 100.468 1071.54 100.52C1071.54 102.489 1070.84 104.396 1069.54 106.206Z" fill="#101C2B"/>
<path d="M161.998 151.566L215.058 121.227L161.998 95.2217L108.938 121.227L161.998 151.566Z" stroke="#101C2B" stroke-width="4" stroke-linecap="round" stroke-linejoin="round"/>
<path d="M162 97L162 214" stroke="#101C2B" stroke-width="4" stroke-linecap="round" stroke-linejoin="round"/>
<path d="M109 160V184.436C109 185.153 109.383 185.814 110.005 186.171L162 216" stroke="#101C2B" stroke-width="4" stroke-linecap="round" stroke-linejoin="round"/>
<path d="M215 160V184.895C215 185.616 214.612 186.281 213.984 186.636L162 216" stroke="#101C2B" stroke-width="4" stroke-linecap="round" stroke-linejoin="round"/>
<path d="M161.127 151.752L146.822 179.804C146.293 180.841 144.994 181.209 144 180.603L94.6244 150.532C93.7144 149.977 93.3987 148.807 93.9066 147.87L108.483 120.985" stroke="#101C2B" stroke-width="4" stroke-linecap="round" stroke-linejoin="round"/>
<path d="M162 151.752L175.89 178.975C176.411 179.995 177.681 180.371 178.673 179.797L229.306 150.522C230.248 149.977 230.582 148.781 230.058 147.827L215.318 120.985" stroke="#101C2B" stroke-width="4" stroke-linecap="round" stroke-linejoin="round"/>
<path d="M162.344 94.8735L147.962 71.5411C147.422 70.6663 146.308 70.3425 145.384 70.7922L96.0874 94.7837C95.0239 95.3013 94.6395 96.6237 95.2596 97.6308L109.434 120.649" stroke="#101C2B" stroke-width="4" stroke-linecap="round" stroke-linejoin="round"/>
<path d="M162.34 94.8735L176.739 71.5398C177.279 70.6656 178.393 70.3423 179.317 70.7918L228.614 94.7837C229.677 95.3013 230.062 96.6237 229.442 97.6308L216.217 119.106C215.678 119.982 214.563 120.306 213.638 119.856L162.34 94.8735ZM162.34 94.8735L109.43 120.649" stroke="#101C2B" stroke-width="4" stroke-linecap="round" stroke-linejoin="round"/>
<path d="M235 143C234.172 143 233.5 143.672 233.5 144.5C233.5 145.328 234.172 146 235 146V144.5V143ZM532.061 145.561C532.646 144.975 532.646 144.025 532.061 143.439L522.515 133.893C521.929 133.308 520.979 133.308 520.393 133.893C519.808 134.479 519.808 135.429 520.393 136.015L528.879 144.5L520.393 152.985C519.808 153.571 519.808 154.521 520.393 155.107C520.979 155.692 521.929 155.692 522.515 155.107L532.061 145.561ZM235 144.5V146H531V144.5V143H235V144.5Z" fill="#4EAC78"/>
<path d="M656.01 143.025C655.181 143.02 654.505 143.687 654.5 144.516C654.495 145.344 655.162 146.02 655.99 146.025L656 144.525L656.01 143.025ZM955.226 147.506C955.815 146.924 955.822 145.974 955.24 145.384L945.755 135.777C945.173 135.188 944.223 135.182 943.634 135.764C943.044 136.346 943.038 137.296 943.62 137.885L952.051 146.425L943.511 154.855C942.922 155.437 942.916 156.387 943.498 156.977C944.08 157.566 945.029 157.572 945.619 156.99L955.226 147.506ZM656 144.525L655.99 146.025L954.162 147.938L954.172 146.438L954.182 144.938L656.01 143.025L656 144.525Z" fill="#4EAC78"/>
<rect x="286" y="119" width="200" height="50" rx="25" fill="#4EAC78"/>
<path d="M342.686 140.098C342.032 140.098 341.444 139.986 340.922 139.762C340.399 139.529 339.988 139.202 339.69 138.782C339.391 138.362 339.242 137.872 339.242 137.312H340.95C340.987 137.732 341.15 138.077 341.44 138.348C341.738 138.619 342.154 138.754 342.686 138.754C343.236 138.754 343.666 138.623 343.974 138.362C344.282 138.091 344.436 137.746 344.436 137.326C344.436 136.999 344.338 136.733 344.142 136.528C343.955 136.323 343.717 136.164 343.428 136.052C343.148 135.94 342.756 135.819 342.252 135.688C341.617 135.52 341.099 135.352 340.698 135.184C340.306 135.007 339.97 134.736 339.69 134.372C339.41 134.008 339.27 133.523 339.27 132.916C339.27 132.356 339.41 131.866 339.69 131.446C339.97 131.026 340.362 130.704 340.866 130.48C341.37 130.256 341.953 130.144 342.616 130.144C343.558 130.144 344.328 130.382 344.926 130.858C345.532 131.325 345.868 131.969 345.934 132.79H344.17C344.142 132.435 343.974 132.132 343.666 131.88C343.358 131.628 342.952 131.502 342.448 131.502C341.99 131.502 341.617 131.619 341.328 131.852C341.038 132.085 340.894 132.421 340.894 132.86C340.894 133.159 340.982 133.406 341.16 133.602C341.346 133.789 341.58 133.938 341.86 134.05C342.14 134.162 342.522 134.283 343.008 134.414C343.652 134.591 344.174 134.769 344.576 134.946C344.986 135.123 345.332 135.399 345.612 135.772C345.901 136.136 346.046 136.626 346.046 137.242C346.046 137.737 345.91 138.203 345.64 138.642C345.378 139.081 344.991 139.435 344.478 139.706C343.974 139.967 343.376 140.098 342.686 140.098ZM349.623 131.558V134.414H352.983V135.716H349.623V138.698H353.403V140H348.027V130.256H353.403V131.558H349.623ZM354.935 135.114C354.935 134.162 355.154 133.308 355.593 132.552C356.041 131.796 356.643 131.208 357.399 130.788C358.164 130.359 358.999 130.144 359.905 130.144C360.941 130.144 361.86 130.401 362.663 130.914C363.475 131.418 364.063 132.137 364.427 133.07H362.509C362.257 132.557 361.907 132.174 361.459 131.922C361.011 131.67 360.493 131.544 359.905 131.544C359.261 131.544 358.687 131.689 358.183 131.978C357.679 132.267 357.282 132.683 356.993 133.224C356.713 133.765 356.573 134.395 356.573 135.114C356.573 135.833 356.713 136.463 356.993 137.004C357.282 137.545 357.679 137.965 358.183 138.264C358.687 138.553 359.261 138.698 359.905 138.698C360.493 138.698 361.011 138.572 361.459 138.32C361.907 138.068 362.257 137.685 362.509 137.172H364.427C364.063 138.105 363.475 138.824 362.663 139.328C361.86 139.832 360.941 140.084 359.905 140.084C358.99 140.084 358.155 139.874 357.399 139.454C356.643 139.025 356.041 138.432 355.593 137.676C355.154 136.92 354.935 136.066 354.935 135.114ZM367.975 130.27V136.472C367.975 137.209 368.166 137.765 368.549 138.138C368.941 138.511 369.482 138.698 370.173 138.698C370.873 138.698 371.414 138.511 371.797 138.138C372.189 137.765 372.385 137.209 372.385 136.472V130.27H373.981V136.444C373.981 137.237 373.808 137.909 373.463 138.46C373.118 139.011 372.656 139.421 372.077 139.692C371.498 139.963 370.859 140.098 370.159 140.098C369.459 140.098 368.82 139.963 368.241 139.692C367.672 139.421 367.219 139.011 366.883 138.46C366.547 137.909 366.379 137.237 366.379 136.444V130.27H367.975ZM381.211 140L378.971 136.108H377.753V140H376.157V130.27H379.517C380.264 130.27 380.894 130.401 381.407 130.662C381.93 130.923 382.317 131.273 382.569 131.712C382.83 132.151 382.961 132.641 382.961 133.182C382.961 133.817 382.774 134.395 382.401 134.918C382.037 135.431 381.472 135.781 380.707 135.968L383.115 140H381.211ZM377.753 134.834H379.517C380.114 134.834 380.562 134.685 380.861 134.386C381.169 134.087 381.323 133.686 381.323 133.182C381.323 132.678 381.174 132.286 380.875 132.006C380.576 131.717 380.124 131.572 379.517 131.572H377.753V134.834ZM386.697 131.558V134.414H390.057V135.716H386.697V138.698H390.477V140H385.101V130.256H390.477V131.558H386.697ZM404.045 130.27V140H402.449V135.744H397.871V140H396.275V130.27H397.871V134.442H402.449V130.27H404.045ZM412.11 138.012H408.036L407.336 140H405.67L409.156 130.256H411.004L414.49 140H412.81L412.11 138.012ZM411.662 136.71L410.08 132.188L408.484 136.71H411.662ZM419.31 140.098C418.657 140.098 418.069 139.986 417.546 139.762C417.023 139.529 416.613 139.202 416.314 138.782C416.015 138.362 415.866 137.872 415.866 137.312H417.574C417.611 137.732 417.775 138.077 418.064 138.348C418.363 138.619 418.778 138.754 419.31 138.754C419.861 138.754 420.29 138.623 420.598 138.362C420.906 138.091 421.06 137.746 421.06 137.326C421.06 136.999 420.962 136.733 420.766 136.528C420.579 136.323 420.341 136.164 420.052 136.052C419.772 135.94 419.38 135.819 418.876 135.688C418.241 135.52 417.723 135.352 417.322 135.184C416.93 135.007 416.594 134.736 416.314 134.372C416.034 134.008 415.894 133.523 415.894 132.916C415.894 132.356 416.034 131.866 416.314 131.446C416.594 131.026 416.986 130.704 417.49 130.48C417.994 130.256 418.577 130.144 419.24 130.144C420.183 130.144 420.953 130.382 421.55 130.858C422.157 131.325 422.493 131.969 422.558 132.79H420.794C420.766 132.435 420.598 132.132 420.29 131.88C419.982 131.628 419.576 131.502 419.072 131.502C418.615 131.502 418.241 131.619 417.952 131.852C417.663 132.085 417.518 132.421 417.518 132.86C417.518 133.159 417.607 133.406 417.784 133.602C417.971 133.789 418.204 133.938 418.484 134.05C418.764 134.162 419.147 134.283 419.632 134.414C420.276 134.591 420.799 134.769 421.2 134.946C421.611 135.123 421.956 135.399 422.236 135.772C422.525 136.136 422.67 136.626 422.67 137.242C422.67 137.737 422.535 138.203 422.264 138.642C422.003 139.081 421.615 139.435 421.102 139.706C420.598 139.967 420.001 140.098 419.31 140.098ZM432.421 130.27V140H430.825V135.744H426.247V140H424.651V130.27H426.247V134.442H430.825V130.27H432.421ZM352.301 156.012H348.227L347.527 158H345.861L349.347 148.256H351.195L354.681 158H353.001L352.301 156.012ZM351.853 154.71L350.271 150.188L348.675 154.71H351.853ZM357.891 156.712H361.181V158H356.295V148.27H357.891V156.712ZM369.656 151.07C369.404 150.585 369.054 150.221 368.606 149.978C368.158 149.726 367.64 149.6 367.052 149.6C366.408 149.6 365.834 149.745 365.33 150.034C364.826 150.323 364.429 150.734 364.14 151.266C363.86 151.798 363.72 152.414 363.72 153.114C363.72 153.814 363.86 154.435 364.14 154.976C364.429 155.508 364.826 155.919 365.33 156.208C365.834 156.497 366.408 156.642 367.052 156.642C367.92 156.642 368.624 156.399 369.166 155.914C369.707 155.429 370.038 154.771 370.16 153.94H366.506V152.666H371.868V153.912C371.765 154.668 371.494 155.363 371.056 155.998C370.626 156.633 370.062 157.141 369.362 157.524C368.671 157.897 367.901 158.084 367.052 158.084C366.137 158.084 365.302 157.874 364.546 157.454C363.79 157.025 363.188 156.432 362.74 155.676C362.301 154.92 362.082 154.066 362.082 153.114C362.082 152.162 362.301 151.308 362.74 150.552C363.188 149.796 363.79 149.208 364.546 148.788C365.311 148.359 366.146 148.144 367.052 148.144C368.088 148.144 369.007 148.401 369.81 148.914C370.622 149.418 371.21 150.137 371.574 151.07H369.656ZM377.978 158.098C377.073 158.098 376.237 157.888 375.472 157.468C374.716 157.039 374.114 156.446 373.666 155.69C373.227 154.925 373.008 154.066 373.008 153.114C373.008 152.162 373.227 151.308 373.666 150.552C374.114 149.796 374.716 149.208 375.472 148.788C376.237 148.359 377.073 148.144 377.978 148.144C378.893 148.144 379.728 148.359 380.484 148.788C381.249 149.208 381.851 149.796 382.29 150.552C382.729 151.308 382.948 152.162 382.948 153.114C382.948 154.066 382.729 154.925 382.29 155.69C381.851 156.446 381.249 157.039 380.484 157.468C379.728 157.888 378.893 158.098 377.978 158.098ZM377.978 156.712C378.622 156.712 379.196 156.567 379.7 156.278C380.204 155.979 380.596 155.559 380.876 155.018C381.165 154.467 381.31 153.833 381.31 153.114C381.31 152.395 381.165 151.765 380.876 151.224C380.596 150.683 380.204 150.267 379.7 149.978C379.196 149.689 378.622 149.544 377.978 149.544C377.334 149.544 376.76 149.689 376.256 149.978C375.752 150.267 375.355 150.683 375.066 151.224C374.786 151.765 374.646 152.395 374.646 153.114C374.646 153.833 374.786 154.467 375.066 155.018C375.355 155.559 375.752 155.979 376.256 156.278C376.76 156.567 377.334 156.712 377.978 156.712ZM389.67 158L387.43 154.108H386.212V158H384.616V148.27H387.976C388.723 148.27 389.353 148.401 389.866 148.662C390.389 148.923 390.776 149.273 391.028 149.712C391.29 150.151 391.42 150.641 391.42 151.182C391.42 151.817 391.234 152.395 390.86 152.918C390.496 153.431 389.932 153.781 389.166 153.968L391.574 158H389.67ZM386.212 152.834H387.976C388.574 152.834 389.022 152.685 389.32 152.386C389.628 152.087 389.782 151.686 389.782 151.182C389.782 150.678 389.633 150.286 389.334 150.006C389.036 149.717 388.583 149.572 387.976 149.572H386.212V152.834ZM395.156 148.27V158H393.56V148.27H395.156ZM403.636 148.27V149.572H401.046V158H399.45V149.572H396.846V148.27H403.636ZM413.12 148.27V158H411.524V153.744H406.946V158H405.35V148.27H406.946V152.442H411.524V148.27H413.12ZM425.567 148.27V158H423.971V151.336L421.003 158H419.897L416.915 151.336V158H415.319V148.27H417.041L420.457 155.9L423.859 148.27H425.567Z" fill="white"/>
<rect x="704" y="119" width="200" height="50" rx="25" fill="#4EAC78"/>
<path d="M786.301 149.098C785.648 149.098 785.06 148.986 784.537 148.762C784.015 148.529 783.604 148.202 783.305 147.782C783.007 147.362 782.857 146.872 782.857 146.312H784.565C784.603 146.732 784.766 147.077 785.055 147.348C785.354 147.619 785.769 147.754 786.301 147.754C786.852 147.754 787.281 147.623 787.589 147.362C787.897 147.091 788.051 146.746 788.051 146.326C788.051 145.999 787.953 145.733 787.757 145.528C787.571 145.323 787.333 145.164 787.043 145.052C786.763 144.94 786.371 144.819 785.867 144.688C785.233 144.52 784.715 144.352 784.313 144.184C783.921 144.007 783.585 143.736 783.305 143.372C783.025 143.008 782.885 142.523 782.885 141.916C782.885 141.356 783.025 140.866 783.305 140.446C783.585 140.026 783.977 139.704 784.481 139.48C784.985 139.256 785.569 139.144 786.231 139.144C787.174 139.144 787.944 139.382 788.541 139.858C789.148 140.325 789.484 140.969 789.549 141.79H787.785C787.757 141.435 787.589 141.132 787.281 140.88C786.973 140.628 786.567 140.502 786.063 140.502C785.606 140.502 785.233 140.619 784.943 140.852C784.654 141.085 784.509 141.421 784.509 141.86C784.509 142.159 784.598 142.406 784.775 142.602C784.962 142.789 785.195 142.938 785.475 143.05C785.755 143.162 786.138 143.283 786.623 143.414C787.267 143.591 787.79 143.769 788.191 143.946C788.602 144.123 788.947 144.399 789.227 144.772C789.517 145.136 789.661 145.626 789.661 146.242C789.661 146.737 789.526 147.203 789.255 147.642C788.994 148.081 788.607 148.435 788.093 148.706C787.589 148.967 786.992 149.098 786.301 149.098ZM797.928 139.27V140.572H795.338V149H793.742V140.572H791.138V139.27H797.928ZM804.081 149.098C803.175 149.098 802.34 148.888 801.575 148.468C800.819 148.039 800.217 147.446 799.769 146.69C799.33 145.925 799.111 145.066 799.111 144.114C799.111 143.162 799.33 142.308 799.769 141.552C800.217 140.796 800.819 140.208 801.575 139.788C802.34 139.359 803.175 139.144 804.081 139.144C804.995 139.144 805.831 139.359 806.587 139.788C807.352 140.208 807.954 140.796 808.393 141.552C808.831 142.308 809.051 143.162 809.051 144.114C809.051 145.066 808.831 145.925 808.393 146.69C807.954 147.446 807.352 148.039 806.587 148.468C805.831 148.888 804.995 149.098 804.081 149.098ZM804.081 147.712C804.725 147.712 805.299 147.567 805.803 147.278C806.307 146.979 806.699 146.559 806.979 146.018C807.268 145.467 807.413 144.833 807.413 144.114C807.413 143.395 807.268 142.765 806.979 142.224C806.699 141.683 806.307 141.267 805.803 140.978C805.299 140.689 804.725 140.544 804.081 140.544C803.437 140.544 802.863 140.689 802.359 140.978C801.855 141.267 801.458 141.683 801.169 142.224C800.889 142.765 800.749 143.395 800.749 144.114C800.749 144.833 800.889 145.467 801.169 146.018C801.458 146.559 801.855 146.979 802.359 147.278C802.863 147.567 803.437 147.712 804.081 147.712ZM815.773 149L813.533 145.108H812.315V149H810.719V139.27H814.079C814.826 139.27 815.456 139.401 815.969 139.662C816.492 139.923 816.879 140.273 817.131 140.712C817.393 141.151 817.523 141.641 817.523 142.182C817.523 142.817 817.337 143.395 816.963 143.918C816.599 144.431 816.035 144.781 815.269 144.968L817.677 149H815.773ZM812.315 143.834H814.079C814.677 143.834 815.125 143.685 815.423 143.386C815.731 143.087 815.885 142.686 815.885 142.182C815.885 141.678 815.736 141.286 815.437 141.006C815.139 140.717 814.686 140.572 814.079 140.572H812.315V143.834ZM821.259 140.558V143.414H824.619V144.716H821.259V147.698H825.039V149H819.663V139.256H825.039V140.558H821.259Z" fill="white"/>
</svg>
