<svg width="1200" height="600" viewBox="0 0 1200 600" fill="none" xmlns="http://www.w3.org/2000/svg">
<rect width="1200" height="600" rx="4" fill="#F2F2F6"/>
<g clip-path="url(#clip0_2161_6316)">
<path d="M431.435 329H325.565C322.493 329 320 326.507 320 323.435V217.565C320 214.493 322.493 212 325.565 212H431.435C434.507 212 437 214.493 437 217.565V323.435C437 326.507 434.507 329 431.435 329ZM325.565 215.71C324.545 215.71 323.71 216.545 323.71 217.565V323.435C323.71 324.455 324.545 325.29 325.565 325.29H431.435C432.455 325.29 433.29 324.455 433.29 323.435V217.565C433.29 216.545 432.455 215.71 431.435 215.71H325.565Z" fill="#101C2B"/>
<path d="M378.679 251.143C378.679 251.119 378.679 251.095 378.679 251.072C378.679 240.021 369.723 231.06 358.676 231.06C347.629 231.06 338.672 240.021 338.672 251.072C338.672 262.123 347.627 271.087 358.676 271.087H375.821C377.4 271.087 378.68 269.805 378.68 268.225V251.143H378.679Z" fill="#4EAC78"/>
<path d="M377.517 272.942H358.672C346.618 272.942 336.812 263.132 336.812 251.072C336.812 239.013 346.618 229.205 358.672 229.205C370.725 229.205 380.531 239.015 380.531 251.072V269.901C380.531 272.501 380.118 272.942 377.518 272.942H377.517ZM358.672 232.915C348.664 232.915 340.523 241.06 340.523 251.072C340.523 261.084 348.664 269.232 358.672 269.232H375.816C376.369 269.232 376.82 268.781 376.82 268.225V251.072C376.82 241.06 368.679 232.915 358.672 232.915V232.915Z" fill="#101C2B"/>
<path d="M378.673 291.031C378.673 291.055 378.673 291.078 378.673 291.101C378.673 302.152 387.629 311.113 398.676 311.113C409.723 311.113 418.68 302.152 418.68 291.101C418.68 280.051 409.724 271.087 398.676 271.087H381.531C379.952 271.087 378.672 272.368 378.672 273.948V291.031H378.673Z" fill="#4EAC78"/>
<path d="M398.678 312.97C386.626 312.97 376.82 303.16 376.82 291.102V272.542C376.82 269.941 376.758 269.233 379.357 269.233H398.678C410.732 269.233 420.537 279.044 420.537 291.102C420.537 303.161 410.732 312.97 398.678 312.97ZM380.53 291.031V291.102C380.53 301.114 388.671 309.259 398.678 309.259C408.686 309.259 416.827 301.114 416.827 291.102C416.827 281.091 408.686 272.943 398.678 272.943H381.534C380.981 272.943 380.53 273.394 380.53 273.95V291.032V291.031Z" fill="#101C2B"/>
</g>
<rect x="278" y="98" width="200" height="50" rx="25" fill="#101C2B"/>
<path d="M344.629 120.098C343.975 120.098 343.387 119.986 342.865 119.762C342.342 119.529 341.931 119.202 341.633 118.782C341.334 118.362 341.185 117.872 341.185 117.312H342.893C342.93 117.732 343.093 118.077 343.383 118.348C343.681 118.619 344.097 118.754 344.629 118.754C345.179 118.754 345.609 118.623 345.917 118.362C346.225 118.091 346.379 117.746 346.379 117.326C346.379 116.999 346.281 116.733 346.085 116.528C345.898 116.323 345.66 116.164 345.371 116.052C345.091 115.94 344.699 115.819 344.195 115.688C343.56 115.52 343.042 115.352 342.641 115.184C342.249 115.007 341.913 114.736 341.633 114.372C341.353 114.008 341.213 113.523 341.213 112.916C341.213 112.356 341.353 111.866 341.633 111.446C341.913 111.026 342.305 110.704 342.809 110.48C343.313 110.256 343.896 110.144 344.559 110.144C345.501 110.144 346.271 110.382 346.869 110.858C347.475 111.325 347.811 111.969 347.877 112.79H346.113C346.085 112.435 345.917 112.132 345.609 111.88C345.301 111.628 344.895 111.502 344.391 111.502C343.933 111.502 343.56 111.619 343.271 111.852C342.981 112.085 342.837 112.421 342.837 112.86C342.837 113.159 342.925 113.406 343.103 113.602C343.289 113.789 343.523 113.938 343.803 114.05C344.083 114.162 344.465 114.283 344.951 114.414C345.595 114.591 346.117 114.769 346.519 114.946C346.929 115.123 347.275 115.399 347.555 115.772C347.844 116.136 347.989 116.626 347.989 117.242C347.989 117.737 347.853 118.203 347.583 118.642C347.321 119.081 346.934 119.435 346.421 119.706C345.917 119.967 345.319 120.098 344.629 120.098ZM354.408 120.098C353.503 120.098 352.667 119.888 351.902 119.468C351.146 119.039 350.544 118.446 350.096 117.69C349.657 116.925 349.438 116.066 349.438 115.114C349.438 114.162 349.657 113.308 350.096 112.552C350.544 111.796 351.146 111.208 351.902 110.788C352.667 110.359 353.503 110.144 354.408 110.144C355.323 110.144 356.158 110.359 356.914 110.788C357.679 111.208 358.281 111.796 358.72 112.552C359.159 113.308 359.378 114.162 359.378 115.114C359.378 116.066 359.159 116.925 358.72 117.69C358.281 118.446 357.679 119.039 356.914 119.468C356.158 119.888 355.323 120.098 354.408 120.098ZM354.408 118.712C355.052 118.712 355.626 118.567 356.13 118.278C356.634 117.979 357.026 117.559 357.306 117.018C357.595 116.467 357.74 115.833 357.74 115.114C357.74 114.395 357.595 113.765 357.306 113.224C357.026 112.683 356.634 112.267 356.13 111.978C355.626 111.689 355.052 111.544 354.408 111.544C353.764 111.544 353.19 111.689 352.686 111.978C352.182 112.267 351.785 112.683 351.496 113.224C351.216 113.765 351.076 114.395 351.076 115.114C351.076 115.833 351.216 116.467 351.496 117.018C351.785 117.559 352.182 117.979 352.686 118.278C353.19 118.567 353.764 118.712 354.408 118.712ZM366.772 110.27V111.572H362.642V114.442H365.862V115.744H362.642V120H361.046V110.27H366.772ZM374.635 110.27V111.572H372.045V120H370.449V111.572H367.845V110.27H374.635ZM389.02 110.27L386.136 120H384.33L382.286 112.636L380.116 120L378.324 120.014L375.566 110.27H377.26L379.276 118.194L381.46 110.27H383.252L385.282 118.152L387.312 110.27H389.02ZM396.3 118.012H392.226L391.526 120H389.86L393.346 110.256H395.194L398.68 120H397L396.3 118.012ZM395.852 116.71L394.27 112.188L392.674 116.71H395.852ZM405.348 120L403.108 116.108H401.89V120H400.294V110.27H403.654C404.401 110.27 405.031 110.401 405.544 110.662C406.067 110.923 406.454 111.273 406.706 111.712C406.967 112.151 407.098 112.641 407.098 113.182C407.098 113.817 406.911 114.395 406.538 114.918C406.174 115.431 405.609 115.781 404.844 115.968L407.252 120H405.348ZM401.89 114.834H403.654C404.251 114.834 404.699 114.685 404.998 114.386C405.306 114.087 405.46 113.686 405.46 113.182C405.46 112.678 405.311 112.286 405.012 112.006C404.713 111.717 404.261 111.572 403.654 111.572H401.89V114.834ZM410.834 111.558V114.414H414.194V115.716H410.834V118.698H414.614V120H409.238V110.256H414.614V111.558H410.834ZM332.97 128.27C334.006 128.27 334.912 128.471 335.686 128.872C336.47 129.264 337.072 129.833 337.492 130.58C337.922 131.317 338.136 132.181 338.136 133.17C338.136 134.159 337.922 135.018 337.492 135.746C337.072 136.474 336.47 137.034 335.686 137.426C334.912 137.809 334.006 138 332.97 138H329.792V128.27H332.97ZM332.97 136.698C334.109 136.698 334.982 136.39 335.588 135.774C336.195 135.158 336.498 134.29 336.498 133.17C336.498 132.041 336.195 131.159 335.588 130.524C334.982 129.889 334.109 129.572 332.97 129.572H331.388V136.698H332.97ZM341.412 129.558V132.414H344.772V133.716H341.412V136.698H345.192V138H339.816V128.256H345.192V129.558H341.412ZM355.642 128.27L351.988 138H350.14L346.472 128.27H348.18L351.064 136.362L353.962 128.27H355.642ZM358.671 129.558V132.414H362.031V133.716H358.671V136.698H362.451V138H357.075V128.256H362.451V129.558H358.671ZM366.11 136.712H369.4V138H364.514V128.27H366.11V136.712ZM375.271 138.098C374.366 138.098 373.531 137.888 372.765 137.468C372.009 137.039 371.407 136.446 370.959 135.69C370.521 134.925 370.301 134.066 370.301 133.114C370.301 132.162 370.521 131.308 370.959 130.552C371.407 129.796 372.009 129.208 372.765 128.788C373.531 128.359 374.366 128.144 375.271 128.144C376.186 128.144 377.021 128.359 377.777 128.788C378.543 129.208 379.145 129.796 379.583 130.552C380.022 131.308 380.241 132.162 380.241 133.114C380.241 134.066 380.022 134.925 379.583 135.69C379.145 136.446 378.543 137.039 377.777 137.468C377.021 137.888 376.186 138.098 375.271 138.098ZM375.271 136.712C375.915 136.712 376.489 136.567 376.993 136.278C377.497 135.979 377.889 135.559 378.169 135.018C378.459 134.467 378.603 133.833 378.603 133.114C378.603 132.395 378.459 131.765 378.169 131.224C377.889 130.683 377.497 130.267 376.993 129.978C376.489 129.689 375.915 129.544 375.271 129.544C374.627 129.544 374.053 129.689 373.549 129.978C373.045 130.267 372.649 130.683 372.359 131.224C372.079 131.765 371.939 132.395 371.939 133.114C371.939 133.833 372.079 134.467 372.359 135.018C372.649 135.559 373.045 135.979 373.549 136.278C374.053 136.567 374.627 136.712 375.271 136.712ZM388.714 131.168C388.714 131.663 388.597 132.129 388.364 132.568C388.13 133.007 387.757 133.366 387.244 133.646C386.73 133.917 386.072 134.052 385.27 134.052H383.506V138H381.91V128.27H385.27C386.016 128.27 386.646 128.401 387.16 128.662C387.682 128.914 388.07 129.259 388.322 129.698C388.583 130.137 388.714 130.627 388.714 131.168ZM385.27 132.75C385.876 132.75 386.329 132.615 386.628 132.344C386.926 132.064 387.076 131.672 387.076 131.168C387.076 130.104 386.474 129.572 385.27 129.572H383.506V132.75H385.27ZM400.582 128.27V138H398.986V131.336L396.018 138H394.912L391.93 131.336V138H390.334V128.27H392.056L395.472 135.9L398.874 128.27H400.582ZM404.374 129.558V132.414H407.734V133.716H404.374V136.698H408.154V138H402.778V128.256H408.154V129.558H404.374ZM418.211 138H416.615L411.813 130.734V138H410.217V128.256H411.813L416.615 135.508V128.256H418.211V138ZM426.691 128.27V129.572H424.101V138H422.505V129.572H419.901V128.27H426.691Z" fill="white"/>
<rect x="46" y="98" width="200" height="50" rx="25" fill="#101C2B"/>
<path d="M120.275 113.168C120.275 113.663 120.158 114.129 119.925 114.568C119.691 115.007 119.318 115.366 118.805 115.646C118.291 115.917 117.633 116.052 116.831 116.052H115.067V120H113.471V110.27H116.831C117.577 110.27 118.207 110.401 118.721 110.662C119.243 110.914 119.631 111.259 119.883 111.698C120.144 112.137 120.275 112.627 120.275 113.168ZM116.831 114.75C117.437 114.75 117.89 114.615 118.189 114.344C118.487 114.064 118.637 113.672 118.637 113.168C118.637 112.104 118.035 111.572 116.831 111.572H115.067V114.75H116.831ZM126.949 120L124.709 116.108H123.491V120H121.895V110.27H125.255C126.002 110.27 126.632 110.401 127.145 110.662C127.668 110.923 128.055 111.273 128.307 111.712C128.568 112.151 128.699 112.641 128.699 113.182C128.699 113.817 128.512 114.395 128.139 114.918C127.775 115.431 127.21 115.781 126.445 115.968L128.853 120H126.949ZM123.491 114.834H125.255C125.852 114.834 126.3 114.685 126.599 114.386C126.907 114.087 127.061 113.686 127.061 113.182C127.061 112.678 126.912 112.286 126.613 112.006C126.314 111.717 125.862 111.572 125.255 111.572H123.491V114.834ZM135.277 120.098C134.371 120.098 133.536 119.888 132.771 119.468C132.015 119.039 131.413 118.446 130.965 117.69C130.526 116.925 130.307 116.066 130.307 115.114C130.307 114.162 130.526 113.308 130.965 112.552C131.413 111.796 132.015 111.208 132.771 110.788C133.536 110.359 134.371 110.144 135.277 110.144C136.191 110.144 137.027 110.359 137.783 110.788C138.548 111.208 139.15 111.796 139.589 112.552C140.027 113.308 140.247 114.162 140.247 115.114C140.247 116.066 140.027 116.925 139.589 117.69C139.15 118.446 138.548 119.039 137.783 119.468C137.027 119.888 136.191 120.098 135.277 120.098ZM135.277 118.712C135.921 118.712 136.495 118.567 136.999 118.278C137.503 117.979 137.895 117.559 138.175 117.018C138.464 116.467 138.609 115.833 138.609 115.114C138.609 114.395 138.464 113.765 138.175 113.224C137.895 112.683 137.503 112.267 136.999 111.978C136.495 111.689 135.921 111.544 135.277 111.544C134.633 111.544 134.059 111.689 133.555 111.978C133.051 112.267 132.654 112.683 132.365 113.224C132.085 113.765 131.945 114.395 131.945 115.114C131.945 115.833 132.085 116.467 132.365 117.018C132.654 117.559 133.051 117.979 133.555 118.278C134.059 118.567 134.633 118.712 135.277 118.712ZM145.093 110.27C146.129 110.27 147.034 110.471 147.809 110.872C148.593 111.264 149.195 111.833 149.615 112.58C150.044 113.317 150.259 114.181 150.259 115.17C150.259 116.159 150.044 117.018 149.615 117.746C149.195 118.474 148.593 119.034 147.809 119.426C147.034 119.809 146.129 120 145.093 120H141.915V110.27H145.093ZM145.093 118.698C146.232 118.698 147.104 118.39 147.711 117.774C148.318 117.158 148.621 116.29 148.621 115.17C148.621 114.041 148.318 113.159 147.711 112.524C147.104 111.889 146.232 111.572 145.093 111.572H143.511V118.698H145.093ZM153.521 110.27V116.472C153.521 117.209 153.712 117.765 154.095 118.138C154.487 118.511 155.028 118.698 155.719 118.698C156.419 118.698 156.96 118.511 157.343 118.138C157.735 117.765 157.931 117.209 157.931 116.472V110.27H159.527V116.444C159.527 117.237 159.354 117.909 159.009 118.46C158.664 119.011 158.202 119.421 157.623 119.692C157.044 119.963 156.405 120.098 155.705 120.098C155.005 120.098 154.366 119.963 153.787 119.692C153.218 119.421 152.765 119.011 152.429 118.46C152.093 117.909 151.925 117.237 151.925 116.444V110.27H153.521ZM161.171 115.114C161.171 114.162 161.39 113.308 161.829 112.552C162.277 111.796 162.879 111.208 163.635 110.788C164.4 110.359 165.236 110.144 166.141 110.144C167.177 110.144 168.096 110.401 168.899 110.914C169.711 111.418 170.299 112.137 170.663 113.07H168.745C168.493 112.557 168.143 112.174 167.695 111.922C167.247 111.67 166.729 111.544 166.141 111.544C165.497 111.544 164.923 111.689 164.419 111.978C163.915 112.267 163.518 112.683 163.229 113.224C162.949 113.765 162.809 114.395 162.809 115.114C162.809 115.833 162.949 116.463 163.229 117.004C163.518 117.545 163.915 117.965 164.419 118.264C164.923 118.553 165.497 118.698 166.141 118.698C166.729 118.698 167.247 118.572 167.695 118.32C168.143 118.068 168.493 117.685 168.745 117.172H170.663C170.299 118.105 169.711 118.824 168.899 119.328C168.096 119.832 167.177 120.084 166.141 120.084C165.226 120.084 164.391 119.874 163.635 119.454C162.879 119.025 162.277 118.432 161.829 117.676C161.39 116.92 161.171 116.066 161.171 115.114ZM178.915 110.27V111.572H176.325V120H174.729V111.572H172.125V110.27H178.915ZM107.953 128.27V138H106.357V131.336L103.389 138H102.283L99.3007 131.336V138H97.7047V128.27H99.4267L102.843 135.9L106.245 128.27H107.953ZM116.014 136.012H111.94L111.24 138H109.574L113.06 128.256H114.908L118.394 138H116.714L116.014 136.012ZM115.566 134.71L113.984 130.188L112.388 134.71H115.566ZM128.002 138H126.406L121.604 130.734V138H120.008V128.256H121.604L126.406 135.508V128.256H128.002V138ZM136.062 136.012H131.988L131.288 138H129.622L133.108 128.256H134.956L138.442 138H136.762L136.062 136.012ZM135.614 134.71L134.032 130.188L132.436 134.71H135.614ZM147.098 131.07C146.846 130.585 146.496 130.221 146.048 129.978C145.6 129.726 145.082 129.6 144.494 129.6C143.85 129.6 143.276 129.745 142.772 130.034C142.268 130.323 141.871 130.734 141.582 131.266C141.302 131.798 141.162 132.414 141.162 133.114C141.162 133.814 141.302 134.435 141.582 134.976C141.871 135.508 142.268 135.919 142.772 136.208C143.276 136.497 143.85 136.642 144.494 136.642C145.362 136.642 146.066 136.399 146.608 135.914C147.149 135.429 147.48 134.771 147.602 133.94H143.948V132.666H149.31V133.912C149.207 134.668 148.936 135.363 148.498 135.998C148.068 136.633 147.504 137.141 146.804 137.524C146.113 137.897 145.343 138.084 144.494 138.084C143.579 138.084 142.744 137.874 141.988 137.454C141.232 137.025 140.63 136.432 140.182 135.676C139.743 134.92 139.524 134.066 139.524 133.114C139.524 132.162 139.743 131.308 140.182 130.552C140.63 129.796 141.232 129.208 141.988 128.788C142.753 128.359 143.588 128.144 144.494 128.144C145.53 128.144 146.449 128.401 147.252 128.914C148.064 129.418 148.652 130.137 149.016 131.07H147.098ZM152.578 129.558V132.414H155.938V133.716H152.578V136.698H156.358V138H150.982V128.256H156.358V129.558H152.578ZM168.67 128.27V138H167.074V131.336L164.106 138H163L160.018 131.336V138H158.422V128.27H160.144L163.56 135.9L166.962 128.27H168.67ZM172.461 129.558V132.414H175.821V133.716H172.461V136.698H176.241V138H170.865V128.256H176.241V129.558H172.461ZM186.299 138H184.703L179.901 130.734V138H178.305V128.256H179.901L184.703 135.508V128.256H186.299V138ZM194.779 128.27V129.572H192.189V138H190.593V129.572H187.989V128.27H194.779Z" fill="white"/>
<rect x="510" y="98" width="180" height="50" rx="25" fill="#101C2B"/>
<path d="M570.602 127.012H566.528L565.828 129H564.162L567.648 119.256H569.496L572.982 129H571.302L570.602 127.012ZM570.154 125.71L568.572 121.188L566.976 125.71H570.154ZM581.4 122.168C581.4 122.663 581.283 123.129 581.05 123.568C580.817 124.007 580.443 124.366 579.93 124.646C579.417 124.917 578.759 125.052 577.956 125.052H576.192V129H574.596V119.27H577.956C578.703 119.27 579.333 119.401 579.846 119.662C580.369 119.914 580.756 120.259 581.008 120.698C581.269 121.137 581.4 121.627 581.4 122.168ZM577.956 123.75C578.563 123.75 579.015 123.615 579.314 123.344C579.613 123.064 579.762 122.672 579.762 122.168C579.762 121.104 579.16 120.572 577.956 120.572H576.192V123.75H577.956ZM589.824 122.168C589.824 122.663 589.708 123.129 589.474 123.568C589.241 124.007 588.868 124.366 588.354 124.646C587.841 124.917 587.183 125.052 586.38 125.052H584.616V129H583.02V119.27H586.38C587.127 119.27 587.757 119.401 588.27 119.662C588.793 119.914 589.18 120.259 589.432 120.698C589.694 121.137 589.824 121.627 589.824 122.168ZM586.38 123.75C586.987 123.75 587.44 123.615 587.738 123.344C588.037 123.064 588.186 122.672 588.186 122.168C588.186 121.104 587.584 120.572 586.38 120.572H584.616V123.75H586.38ZM596.498 129L594.258 125.108H593.04V129H591.444V119.27H594.804C595.551 119.27 596.181 119.401 596.694 119.662C597.217 119.923 597.604 120.273 597.856 120.712C598.118 121.151 598.248 121.641 598.248 122.182C598.248 122.817 598.062 123.395 597.688 123.918C597.324 124.431 596.76 124.781 595.994 124.968L598.402 129H596.498ZM593.04 123.834H594.804C595.402 123.834 595.85 123.685 596.148 123.386C596.456 123.087 596.61 122.686 596.61 122.182C596.61 121.678 596.461 121.286 596.162 121.006C595.864 120.717 595.411 120.572 594.804 120.572H593.04V123.834ZM604.826 129.098C603.921 129.098 603.085 128.888 602.32 128.468C601.564 128.039 600.962 127.446 600.514 126.69C600.075 125.925 599.856 125.066 599.856 124.114C599.856 123.162 600.075 122.308 600.514 121.552C600.962 120.796 601.564 120.208 602.32 119.788C603.085 119.359 603.921 119.144 604.826 119.144C605.741 119.144 606.576 119.359 607.332 119.788C608.097 120.208 608.699 120.796 609.138 121.552C609.577 122.308 609.796 123.162 609.796 124.114C609.796 125.066 609.577 125.925 609.138 126.69C608.699 127.446 608.097 128.039 607.332 128.468C606.576 128.888 605.741 129.098 604.826 129.098ZM604.826 127.712C605.47 127.712 606.044 127.567 606.548 127.278C607.052 126.979 607.444 126.559 607.724 126.018C608.013 125.467 608.158 124.833 608.158 124.114C608.158 123.395 608.013 122.765 607.724 122.224C607.444 121.683 607.052 121.267 606.548 120.978C606.044 120.689 605.47 120.544 604.826 120.544C604.182 120.544 603.608 120.689 603.104 120.978C602.6 121.267 602.203 121.683 601.914 122.224C601.634 122.765 601.494 123.395 601.494 124.114C601.494 124.833 601.634 125.467 601.914 126.018C602.203 126.559 602.6 126.979 603.104 127.278C603.608 127.567 604.182 127.712 604.826 127.712ZM619.851 119.27L616.197 129H614.349L610.681 119.27H612.389L615.273 127.362L618.171 119.27H619.851ZM627.149 127.012H623.075L622.375 129H620.709L624.195 119.256H626.043L629.529 129H627.849L627.149 127.012ZM626.701 125.71L625.119 121.188L623.523 125.71H626.701ZM632.739 127.712H636.029V129H631.143V119.27H632.739V127.712Z" fill="white"/>
<path d="M482 121.5C481.172 121.5 480.5 122.172 480.5 123C480.5 123.828 481.172 124.5 482 124.5V123V121.5ZM507.061 124.061C507.646 123.475 507.646 122.525 507.061 121.939L497.515 112.393C496.929 111.808 495.979 111.808 495.393 112.393C494.808 112.979 494.808 113.929 495.393 114.515L503.879 123L495.393 131.485C494.808 132.071 494.808 133.021 495.393 133.607C495.979 134.192 496.929 134.192 497.515 133.607L507.061 124.061ZM482 123V124.5H506V123V121.5H482V123Z" fill="#4EAC78"/>
<rect x="722" y="98" width="200" height="50" rx="25" fill="#101C2B"/>
<path d="M781.263 110.27C782.299 110.27 783.205 110.471 783.979 110.872C784.763 111.264 785.365 111.833 785.785 112.58C786.215 113.317 786.429 114.181 786.429 115.17C786.429 116.159 786.215 117.018 785.785 117.746C785.365 118.474 784.763 119.034 783.979 119.426C783.205 119.809 782.299 120 781.263 120H778.085V110.27H781.263ZM781.263 118.698C782.402 118.698 783.275 118.39 783.881 117.774C784.488 117.158 784.791 116.29 784.791 115.17C784.791 114.041 784.488 113.159 783.881 112.524C783.275 111.889 782.402 111.572 781.263 111.572H779.681V118.698H781.263ZM789.705 111.558V114.414H793.065V115.716H789.705V118.698H793.485V120H788.109V110.256H793.485V111.558H789.705ZM802.353 113.168C802.353 113.663 802.236 114.129 802.003 114.568C801.77 115.007 801.396 115.366 800.883 115.646C800.37 115.917 799.712 116.052 798.909 116.052H797.145V120H795.549V110.27H798.909C799.656 110.27 800.286 110.401 800.799 110.662C801.322 110.914 801.709 111.259 801.961 111.698C802.222 112.137 802.353 112.627 802.353 113.168ZM798.909 114.75C799.516 114.75 799.968 114.615 800.267 114.344C800.566 114.064 800.715 113.672 800.715 113.168C800.715 112.104 800.113 111.572 798.909 111.572H797.145V114.75H798.909ZM805.569 118.712H808.859V120H803.973V110.27H805.569V118.712ZM814.73 120.098C813.825 120.098 812.989 119.888 812.224 119.468C811.468 119.039 810.866 118.446 810.418 117.69C809.979 116.925 809.76 116.066 809.76 115.114C809.76 114.162 809.979 113.308 810.418 112.552C810.866 111.796 811.468 111.208 812.224 110.788C812.989 110.359 813.825 110.144 814.73 110.144C815.645 110.144 816.48 110.359 817.236 110.788C818.001 111.208 818.603 111.796 819.042 112.552C819.481 113.308 819.7 114.162 819.7 115.114C819.7 116.066 819.481 116.925 819.042 117.69C818.603 118.446 818.001 119.039 817.236 119.468C816.48 119.888 815.645 120.098 814.73 120.098ZM814.73 118.712C815.374 118.712 815.948 118.567 816.452 118.278C816.956 117.979 817.348 117.559 817.628 117.018C817.917 116.467 818.062 115.833 818.062 115.114C818.062 114.395 817.917 113.765 817.628 113.224C817.348 112.683 816.956 112.267 816.452 111.978C815.948 111.689 815.374 111.544 814.73 111.544C814.086 111.544 813.512 111.689 813.008 111.978C812.504 112.267 812.107 112.683 811.818 113.224C811.538 113.765 811.398 114.395 811.398 115.114C811.398 115.833 811.538 116.467 811.818 117.018C812.107 117.559 812.504 117.979 813.008 118.278C813.512 118.567 814.086 118.712 814.73 118.712ZM828.578 110.27L825.358 116.472V120H823.762V116.472L820.528 110.27H822.306L824.56 115.044L826.814 110.27H828.578ZM840.191 110.27V120H838.595V113.336L835.627 120H834.521L831.539 113.336V120H829.943V110.27H831.665L835.081 117.9L838.483 110.27H840.191ZM843.983 111.558V114.414H847.343V115.716H843.983V118.698H847.763V120H842.387V110.256H847.763V111.558H843.983ZM857.82 120H856.224L851.422 112.734V120H849.826V110.256H851.422L856.224 117.508V110.256H857.82V120ZM866.3 110.27V111.572H863.71V120H862.114V111.572H859.51V110.27H866.3ZM789.302 133.114C789.302 132.162 789.521 131.308 789.96 130.552C790.408 129.796 791.01 129.208 791.766 128.788C792.531 128.359 793.367 128.144 794.272 128.144C795.308 128.144 796.227 128.401 797.03 128.914C797.842 129.418 798.43 130.137 798.794 131.07H796.876C796.624 130.557 796.274 130.174 795.826 129.922C795.378 129.67 794.86 129.544 794.272 129.544C793.628 129.544 793.054 129.689 792.55 129.978C792.046 130.267 791.649 130.683 791.36 131.224C791.08 131.765 790.94 132.395 790.94 133.114C790.94 133.833 791.08 134.463 791.36 135.004C791.649 135.545 792.046 135.965 792.55 136.264C793.054 136.553 793.628 136.698 794.272 136.698C794.86 136.698 795.378 136.572 795.826 136.32C796.274 136.068 796.624 135.685 796.876 135.172H798.794C798.43 136.105 797.842 136.824 797.03 137.328C796.227 137.832 795.308 138.084 794.272 138.084C793.357 138.084 792.522 137.874 791.766 137.454C791.01 137.025 790.408 136.432 789.96 135.676C789.521 134.92 789.302 134.066 789.302 133.114ZM805.198 138.098C804.293 138.098 803.458 137.888 802.692 137.468C801.936 137.039 801.334 136.446 800.886 135.69C800.448 134.925 800.228 134.066 800.228 133.114C800.228 132.162 800.448 131.308 800.886 130.552C801.334 129.796 801.936 129.208 802.692 128.788C803.458 128.359 804.293 128.144 805.198 128.144C806.113 128.144 806.948 128.359 807.704 128.788C808.47 129.208 809.072 129.796 809.51 130.552C809.949 131.308 810.168 132.162 810.168 133.114C810.168 134.066 809.949 134.925 809.51 135.69C809.072 136.446 808.47 137.039 807.704 137.468C806.948 137.888 806.113 138.098 805.198 138.098ZM805.198 136.712C805.842 136.712 806.416 136.567 806.92 136.278C807.424 135.979 807.816 135.559 808.096 135.018C808.386 134.467 808.53 133.833 808.53 133.114C808.53 132.395 808.386 131.765 808.096 131.224C807.816 130.683 807.424 130.267 806.92 129.978C806.416 129.689 805.842 129.544 805.198 129.544C804.554 129.544 803.98 129.689 803.476 129.978C802.972 130.267 802.576 130.683 802.286 131.224C802.006 131.765 801.866 132.395 801.866 133.114C801.866 133.833 802.006 134.467 802.286 135.018C802.576 135.559 802.972 135.979 803.476 136.278C803.98 136.567 804.554 136.712 805.198 136.712ZM819.831 138H818.235L813.433 130.734V138H811.837V128.256H813.433L818.235 135.508V128.256H819.831V138ZM828.311 128.27V129.572H825.721V138H824.125V129.572H821.521V128.27H828.311ZM835.079 138L832.839 134.108H831.621V138H830.025V128.27H833.385C834.132 128.27 834.762 128.401 835.275 128.662C835.798 128.923 836.185 129.273 836.437 129.712C836.698 130.151 836.829 130.641 836.829 131.182C836.829 131.817 836.642 132.395 836.269 132.918C835.905 133.431 835.34 133.781 834.575 133.968L836.983 138H835.079ZM831.621 132.834H833.385C833.982 132.834 834.43 132.685 834.729 132.386C835.037 132.087 835.191 131.686 835.191 131.182C835.191 130.678 835.042 130.286 834.743 130.006C834.444 129.717 833.992 129.572 833.385 129.572H831.621V132.834ZM843.407 138.098C842.501 138.098 841.666 137.888 840.901 137.468C840.145 137.039 839.543 136.446 839.095 135.69C838.656 134.925 838.437 134.066 838.437 133.114C838.437 132.162 838.656 131.308 839.095 130.552C839.543 129.796 840.145 129.208 840.901 128.788C841.666 128.359 842.501 128.144 843.407 128.144C844.321 128.144 845.157 128.359 845.913 128.788C846.678 129.208 847.28 129.796 847.719 130.552C848.157 131.308 848.377 132.162 848.377 133.114C848.377 134.066 848.157 134.925 847.719 135.69C847.28 136.446 846.678 137.039 845.913 137.468C845.157 137.888 844.321 138.098 843.407 138.098ZM843.407 136.712C844.051 136.712 844.625 136.567 845.129 136.278C845.633 135.979 846.025 135.559 846.305 135.018C846.594 134.467 846.739 133.833 846.739 133.114C846.739 132.395 846.594 131.765 846.305 131.224C846.025 130.683 845.633 130.267 845.129 129.978C844.625 129.689 844.051 129.544 843.407 129.544C842.763 129.544 842.189 129.689 841.685 129.978C841.181 130.267 840.784 130.683 840.495 131.224C840.215 131.765 840.075 132.395 840.075 133.114C840.075 133.833 840.215 134.467 840.495 135.018C840.784 135.559 841.181 135.979 841.685 136.278C842.189 136.567 842.763 136.712 843.407 136.712ZM851.641 136.712H854.931V138H850.045V128.27H851.641V136.712Z" fill="white"/>
<path d="M694 121.5C693.172 121.5 692.5 122.172 692.5 123C692.5 123.828 693.172 124.5 694 124.5V123V121.5ZM719.061 124.061C719.646 123.475 719.646 122.525 719.061 121.939L709.515 112.393C708.929 111.808 707.979 111.808 707.393 112.393C706.808 112.979 706.808 113.929 707.393 114.515L715.879 123L707.393 131.485C706.808 132.071 706.808 133.021 707.393 133.607C707.979 134.192 708.929 134.192 709.515 133.607L719.061 124.061ZM694 123V124.5H718V123V121.5H694V123Z" fill="#4EAC78"/>
<rect x="954" y="98" width="200" height="50" rx="25" fill="#101C2B"/>
<path d="M1015.8 122.168C1015.8 122.663 1015.68 123.129 1015.45 123.568C1015.21 124.007 1014.84 124.366 1014.33 124.646C1013.81 124.917 1013.16 125.052 1012.35 125.052H1010.59V129H1008.99V119.27H1012.35C1013.1 119.27 1013.73 119.401 1014.24 119.662C1014.77 119.914 1015.15 120.259 1015.4 120.698C1015.67 121.137 1015.8 121.627 1015.8 122.168ZM1012.35 123.75C1012.96 123.75 1013.41 123.615 1013.71 123.344C1014.01 123.064 1014.16 122.672 1014.16 122.168C1014.16 121.104 1013.56 120.572 1012.35 120.572H1010.59V123.75H1012.35ZM1022.47 129L1020.23 125.108H1019.01V129H1017.42V119.27H1020.78C1021.52 119.27 1022.15 119.401 1022.67 119.662C1023.19 119.923 1023.58 120.273 1023.83 120.712C1024.09 121.151 1024.22 121.641 1024.22 122.182C1024.22 122.817 1024.03 123.395 1023.66 123.918C1023.3 124.431 1022.73 124.781 1021.97 124.968L1024.37 129H1022.47ZM1019.01 123.834H1020.78C1021.37 123.834 1021.82 123.685 1022.12 123.386C1022.43 123.087 1022.58 122.686 1022.58 122.182C1022.58 121.678 1022.43 121.286 1022.13 121.006C1021.84 120.717 1021.38 120.572 1020.78 120.572H1019.01V123.834ZM1030.8 129.098C1029.89 129.098 1029.06 128.888 1028.29 128.468C1027.54 128.039 1026.93 127.446 1026.49 126.69C1026.05 125.925 1025.83 125.066 1025.83 124.114C1025.83 123.162 1026.05 122.308 1026.49 121.552C1026.93 120.796 1027.54 120.208 1028.29 119.788C1029.06 119.359 1029.89 119.144 1030.8 119.144C1031.71 119.144 1032.55 119.359 1033.3 119.788C1034.07 120.208 1034.67 120.796 1035.11 121.552C1035.55 122.308 1035.77 123.162 1035.77 124.114C1035.77 125.066 1035.55 125.925 1035.11 126.69C1034.67 127.446 1034.07 128.039 1033.3 128.468C1032.55 128.888 1031.71 129.098 1030.8 129.098ZM1030.8 127.712C1031.44 127.712 1032.02 127.567 1032.52 127.278C1033.02 126.979 1033.42 126.559 1033.7 126.018C1033.99 125.467 1034.13 124.833 1034.13 124.114C1034.13 123.395 1033.99 122.765 1033.7 122.224C1033.42 121.683 1033.02 121.267 1032.52 120.978C1032.02 120.689 1031.44 120.544 1030.8 120.544C1030.15 120.544 1029.58 120.689 1029.08 120.978C1028.57 121.267 1028.18 121.683 1027.89 122.224C1027.61 122.765 1027.47 123.395 1027.47 124.114C1027.47 124.833 1027.61 125.467 1027.89 126.018C1028.18 126.559 1028.57 126.979 1029.08 127.278C1029.58 127.567 1030.15 127.712 1030.8 127.712ZM1040.62 119.27C1041.65 119.27 1042.56 119.471 1043.33 119.872C1044.12 120.264 1044.72 120.833 1045.14 121.58C1045.57 122.317 1045.78 123.181 1045.78 124.17C1045.78 125.159 1045.57 126.018 1045.14 126.746C1044.72 127.474 1044.12 128.034 1043.33 128.426C1042.56 128.809 1041.65 129 1040.62 129H1037.44V119.27H1040.62ZM1040.62 127.698C1041.75 127.698 1042.63 127.39 1043.23 126.774C1043.84 126.158 1044.14 125.29 1044.14 124.17C1044.14 123.041 1043.84 122.159 1043.23 121.524C1042.63 120.889 1041.75 120.572 1040.62 120.572H1039.03V127.698H1040.62ZM1049.04 119.27V125.472C1049.04 126.209 1049.23 126.765 1049.62 127.138C1050.01 127.511 1050.55 127.698 1051.24 127.698C1051.94 127.698 1052.48 127.511 1052.86 127.138C1053.26 126.765 1053.45 126.209 1053.45 125.472V119.27H1055.05V125.444C1055.05 126.237 1054.88 126.909 1054.53 127.46C1054.19 128.011 1053.72 128.421 1053.14 128.692C1052.57 128.963 1051.93 129.098 1051.23 129.098C1050.53 129.098 1049.89 128.963 1049.31 128.692C1048.74 128.421 1048.29 128.011 1047.95 127.46C1047.61 126.909 1047.45 126.237 1047.45 125.444V119.27H1049.04ZM1056.69 124.114C1056.69 123.162 1056.91 122.308 1057.35 121.552C1057.8 120.796 1058.4 120.208 1059.16 119.788C1059.92 119.359 1060.76 119.144 1061.66 119.144C1062.7 119.144 1063.62 119.401 1064.42 119.914C1065.23 120.418 1065.82 121.137 1066.18 122.07H1064.27C1064.01 121.557 1063.66 121.174 1063.22 120.922C1062.77 120.67 1062.25 120.544 1061.66 120.544C1061.02 120.544 1060.44 120.689 1059.94 120.978C1059.44 121.267 1059.04 121.683 1058.75 122.224C1058.47 122.765 1058.33 123.395 1058.33 124.114C1058.33 124.833 1058.47 125.463 1058.75 126.004C1059.04 126.545 1059.44 126.965 1059.94 127.264C1060.44 127.553 1061.02 127.698 1061.66 127.698C1062.25 127.698 1062.77 127.572 1063.22 127.32C1063.66 127.068 1064.01 126.685 1064.27 126.172H1066.18C1065.82 127.105 1065.23 127.824 1064.42 128.328C1063.62 128.832 1062.7 129.084 1061.66 129.084C1060.75 129.084 1059.91 128.874 1059.16 128.454C1058.4 128.025 1057.8 127.432 1057.35 126.676C1056.91 125.92 1056.69 125.066 1056.69 124.114ZM1074.44 119.27V120.572H1071.85V129H1070.25V120.572H1067.65V119.27H1074.44ZM1077.75 119.27V129H1076.15V119.27H1077.75ZM1084.38 129.098C1083.47 129.098 1082.64 128.888 1081.87 128.468C1081.12 128.039 1080.51 127.446 1080.07 126.69C1079.63 125.925 1079.41 125.066 1079.41 124.114C1079.41 123.162 1079.63 122.308 1080.07 121.552C1080.51 120.796 1081.12 120.208 1081.87 119.788C1082.64 119.359 1083.47 119.144 1084.38 119.144C1085.29 119.144 1086.13 119.359 1086.88 119.788C1087.65 120.208 1088.25 120.796 1088.69 121.552C1089.13 122.308 1089.35 123.162 1089.35 124.114C1089.35 125.066 1089.13 125.925 1088.69 126.69C1088.25 127.446 1087.65 128.039 1086.88 128.468C1086.13 128.888 1085.29 129.098 1084.38 129.098ZM1084.38 127.712C1085.02 127.712 1085.6 127.567 1086.1 127.278C1086.6 126.979 1087 126.559 1087.28 126.018C1087.57 125.467 1087.71 124.833 1087.71 124.114C1087.71 123.395 1087.57 122.765 1087.28 122.224C1087 121.683 1086.6 121.267 1086.1 120.978C1085.6 120.689 1085.02 120.544 1084.38 120.544C1083.73 120.544 1083.16 120.689 1082.66 120.978C1082.15 121.267 1081.76 121.683 1081.47 122.224C1081.19 122.765 1081.05 123.395 1081.05 124.114C1081.05 124.833 1081.19 125.467 1081.47 126.018C1081.76 126.559 1082.15 126.979 1082.66 127.278C1083.16 127.567 1083.73 127.712 1084.38 127.712ZM1099.01 129H1097.42L1092.61 121.734V129H1091.02V119.256H1092.61L1097.42 126.508V119.256H1099.01V129Z" fill="white"/>
<rect x="722" y="453" width="200" height="50" rx="25" fill="#101C2B"/>
<path d="M788.136 474.27V484H786.54V477.336L783.572 484H782.466L779.484 477.336V484H777.888V474.27H779.61L783.026 481.9L786.428 474.27H788.136ZM794.77 484.098C793.865 484.098 793.029 483.888 792.264 483.468C791.508 483.039 790.906 482.446 790.458 481.69C790.019 480.925 789.8 480.066 789.8 479.114C789.8 478.162 790.019 477.308 790.458 476.552C790.906 475.796 791.508 475.208 792.264 474.788C793.029 474.359 793.865 474.144 794.77 474.144C795.685 474.144 796.52 474.359 797.276 474.788C798.041 475.208 798.643 475.796 799.082 476.552C799.521 477.308 799.74 478.162 799.74 479.114C799.74 480.066 799.521 480.925 799.082 481.69C798.643 482.446 798.041 483.039 797.276 483.468C796.52 483.888 795.685 484.098 794.77 484.098ZM794.77 482.712C795.414 482.712 795.988 482.567 796.492 482.278C796.996 481.979 797.388 481.559 797.668 481.018C797.957 480.467 798.102 479.833 798.102 479.114C798.102 478.395 797.957 477.765 797.668 477.224C797.388 476.683 796.996 476.267 796.492 475.978C795.988 475.689 795.414 475.544 794.77 475.544C794.126 475.544 793.552 475.689 793.048 475.978C792.544 476.267 792.147 476.683 791.858 477.224C791.578 477.765 791.438 478.395 791.438 479.114C791.438 479.833 791.578 480.467 791.858 481.018C792.147 481.559 792.544 481.979 793.048 482.278C793.552 482.567 794.126 482.712 794.77 482.712ZM809.403 484H807.807L803.005 476.734V484H801.409V474.256H803.005L807.807 481.508V474.256H809.403V484ZM813.192 474.27V484H811.596V474.27H813.192ZM821.672 474.27V475.572H819.082V484H817.486V475.572H814.882V474.27H821.672ZM827.824 484.098C826.919 484.098 826.083 483.888 825.318 483.468C824.562 483.039 823.96 482.446 823.512 481.69C823.073 480.925 822.854 480.066 822.854 479.114C822.854 478.162 823.073 477.308 823.512 476.552C823.96 475.796 824.562 475.208 825.318 474.788C826.083 474.359 826.919 474.144 827.824 474.144C828.739 474.144 829.574 474.359 830.33 474.788C831.095 475.208 831.697 475.796 832.136 476.552C832.575 477.308 832.794 478.162 832.794 479.114C832.794 480.066 832.575 480.925 832.136 481.69C831.697 482.446 831.095 483.039 830.33 483.468C829.574 483.888 828.739 484.098 827.824 484.098ZM827.824 482.712C828.468 482.712 829.042 482.567 829.546 482.278C830.05 481.979 830.442 481.559 830.722 481.018C831.011 480.467 831.156 479.833 831.156 479.114C831.156 478.395 831.011 477.765 830.722 477.224C830.442 476.683 830.05 476.267 829.546 475.978C829.042 475.689 828.468 475.544 827.824 475.544C827.18 475.544 826.606 475.689 826.102 475.978C825.598 476.267 825.201 476.683 824.912 477.224C824.632 477.765 824.492 478.395 824.492 479.114C824.492 479.833 824.632 480.467 824.912 481.018C825.201 481.559 825.598 481.979 826.102 482.278C826.606 482.567 827.18 482.712 827.824 482.712ZM839.517 484L837.277 480.108H836.059V484H834.463V474.27H837.823C838.569 474.27 839.199 474.401 839.713 474.662C840.235 474.923 840.623 475.273 840.875 475.712C841.136 476.151 841.267 476.641 841.267 477.182C841.267 477.817 841.08 478.395 840.707 478.918C840.343 479.431 839.778 479.781 839.013 479.968L841.421 484H839.517ZM836.059 478.834H837.823C838.42 478.834 838.868 478.685 839.167 478.386C839.475 478.087 839.629 477.686 839.629 477.182C839.629 476.678 839.479 476.286 839.181 476.006C838.882 475.717 838.429 475.572 837.823 475.572H836.059V478.834ZM845.002 474.27V484H843.406V474.27H845.002ZM855.19 484H853.594L848.792 476.734V484H847.196V474.256H848.792L853.594 481.508V474.256H855.19V484ZM864.426 477.07C864.174 476.585 863.824 476.221 863.376 475.978C862.928 475.726 862.41 475.6 861.822 475.6C861.178 475.6 860.604 475.745 860.1 476.034C859.596 476.323 859.199 476.734 858.91 477.266C858.63 477.798 858.49 478.414 858.49 479.114C858.49 479.814 858.63 480.435 858.91 480.976C859.199 481.508 859.596 481.919 860.1 482.208C860.604 482.497 861.178 482.642 861.822 482.642C862.69 482.642 863.394 482.399 863.936 481.914C864.477 481.429 864.808 480.771 864.93 479.94H861.276V478.666H866.638V479.912C866.535 480.668 866.264 481.363 865.826 481.998C865.396 482.633 864.832 483.141 864.132 483.524C863.441 483.897 862.671 484.084 861.822 484.084C860.907 484.084 860.072 483.874 859.316 483.454C858.56 483.025 857.958 482.432 857.51 481.676C857.071 480.92 856.852 480.066 856.852 479.114C856.852 478.162 857.071 477.308 857.51 476.552C857.958 475.796 858.56 475.208 859.316 474.788C860.081 474.359 860.916 474.144 861.822 474.144C862.858 474.144 863.777 474.401 864.58 474.914C865.392 475.418 865.98 476.137 866.344 477.07H864.426Z" fill="white"/>
<path d="M926 121.5C925.172 121.5 924.5 122.172 924.5 123C924.5 123.828 925.172 124.5 926 124.5V123V121.5ZM951.061 124.061C951.646 123.475 951.646 122.525 951.061 121.939L941.515 112.393C940.929 111.808 939.979 111.808 939.393 112.393C938.808 112.979 938.808 113.929 939.393 114.515L947.879 123L939.393 131.485C938.808 132.071 938.808 133.021 939.393 133.607C939.979 134.192 940.929 134.192 941.515 133.607L951.061 124.061ZM926 123V124.5H950V123V121.5H926V123Z" fill="#4EAC78"/>
<path d="M250 121.5C249.172 121.5 248.5 122.172 248.5 123C248.5 123.828 249.172 124.5 250 124.5V123V121.5ZM275.061 124.061C275.646 123.475 275.646 122.525 275.061 121.939L265.515 112.393C264.929 111.808 263.979 111.808 263.393 112.393C262.808 112.979 262.808 113.929 263.393 114.515L271.879 123L263.393 131.485C262.808 132.071 262.808 133.021 263.393 133.607C263.979 134.192 264.929 134.192 265.515 133.607L275.061 124.061ZM250 123V124.5H274V123V121.5H250V123Z" fill="#4EAC78"/>
<g clip-path="url(#clip1_2161_6316)">
<path d="M653.435 329H547.565C544.493 329 542 326.507 542 323.435V217.565C542 214.493 544.493 212 547.565 212H653.435C656.507 212 659 214.493 659 217.565V323.435C659 326.507 656.507 329 653.435 329ZM547.565 215.71C546.545 215.71 545.71 216.545 545.71 217.565V323.435C545.71 324.455 546.545 325.29 547.565 325.29H653.435C654.455 325.29 655.29 324.455 655.29 323.435V217.565C655.29 216.545 654.455 215.71 653.435 215.71H547.565Z" fill="#101C2B"/>
<path d="M637.573 245.837L630.806 239.069C629.356 237.62 627.007 237.62 625.559 239.069L590 274.629L575.406 260.035C573.957 258.585 571.608 258.585 570.159 260.035L563.392 266.802C561.942 268.252 561.942 270.601 563.392 272.049L587.201 295.858C587.97 296.627 588.993 296.989 590 296.941C591.007 296.989 592.03 296.628 592.799 295.858L637.573 251.084C639.023 249.634 639.023 247.285 637.573 245.837Z" fill="#4EAC78"/>
<path d="M590.169 298.801C590.111 298.801 590.053 298.801 589.996 298.799C588.462 298.846 586.97 298.256 585.885 297.171L562.075 273.361C561.024 272.31 560.445 270.913 560.445 269.426C560.445 267.94 561.024 266.542 562.075 265.491L568.843 258.723C569.895 257.672 571.292 257.093 572.778 257.093C574.265 257.093 575.663 257.672 576.714 258.723L589.996 272.006L624.244 237.757C625.296 236.706 626.693 236.127 628.179 236.127C629.666 236.127 631.064 236.706 632.114 237.757L638.882 244.525C639.934 245.576 640.512 246.974 640.512 248.46C640.512 249.946 639.934 251.345 638.882 252.395L594.108 297.17C593.064 298.213 591.64 298.8 590.17 298.8L590.169 298.801ZM589.996 295.086C590.025 295.086 590.054 295.086 590.083 295.088C590.613 295.114 591.109 294.921 591.484 294.547L636.258 249.773C636.608 249.422 636.802 248.956 636.802 248.461C636.802 247.966 636.608 247.5 636.258 247.15L629.491 240.382C629.14 240.032 628.674 239.838 628.179 239.838C627.684 239.838 627.218 240.031 626.868 240.382L591.309 275.941C590.584 276.666 589.41 276.666 588.685 275.941L574.091 261.347C573.741 260.997 573.275 260.804 572.78 260.804C572.284 260.804 571.818 260.996 571.468 261.347L564.7 268.115C564.35 268.465 564.157 268.931 564.157 269.426C564.157 269.921 564.349 270.388 564.7 270.738L588.51 294.547C588.883 294.921 589.381 295.114 589.91 295.088C589.939 295.087 589.968 295.086 589.997 295.086H589.996Z" fill="#101C2B"/>
</g>
<g clip-path="url(#clip2_2161_6316)">
<path d="M875.435 329H769.565C766.493 329 764 326.507 764 323.435V217.565C764 214.493 766.493 212 769.565 212H875.435C878.507 212 881 214.493 881 217.565V323.435C881 326.507 878.507 329 875.435 329ZM769.565 215.71C768.545 215.71 767.71 216.545 767.71 217.565V323.435C767.71 324.455 768.545 325.29 769.565 325.29H875.435C876.455 325.29 877.29 324.455 877.29 323.435V217.565C877.29 216.545 876.455 215.71 875.435 215.71H769.565Z" fill="#101C2B"/>
<path d="M824.724 307.555L785.378 269.561C784.256 268.477 784.225 266.688 785.309 265.566L799.793 250.567C800.867 249.454 800.848 247.685 799.747 246.596L791.761 238.691C789.967 236.915 791.224 233.857 793.749 233.857H857.831C859.392 233.857 860.657 235.122 860.657 236.683V300.064C860.657 302.574 857.628 303.838 855.844 302.074L846.679 293.01C845.561 291.904 843.753 291.924 842.66 293.055L828.718 307.486C827.634 308.608 825.845 308.64 824.723 307.555H824.724Z" fill="#4EAC78"/>
<path d="M826.69 310.2C825.519 310.2 824.347 309.764 823.439 308.889L784.093 270.896C783.194 270.028 782.687 268.861 782.665 267.61C782.643 266.36 783.109 265.176 783.977 264.277L798.461 249.278C798.829 248.898 798.822 248.286 798.446 247.913L790.46 240.008C789.106 238.668 788.699 236.663 789.423 234.901C790.148 233.139 791.848 232 793.753 232H857.834C860.415 232 862.515 234.1 862.515 236.681V300.064C862.515 301.988 861.412 303.642 859.637 304.383C857.862 305.124 855.91 304.744 854.543 303.392L845.378 294.329C845.134 294.086 844.85 294.048 844.695 294.048C844.692 294.048 844.688 294.048 844.685 294.048C844.533 294.049 844.243 294.091 843.997 294.344L830.056 308.774C829.139 309.723 827.915 310.2 826.689 310.2H826.69ZM826.017 306.22C826.402 306.592 827.017 306.58 827.389 306.195L841.331 291.765C842.206 290.858 843.383 290.352 844.644 290.337C844.663 290.337 844.681 290.337 844.699 290.337C845.939 290.337 847.106 290.815 847.988 291.69L857.152 300.753C857.568 301.163 858.029 301.034 858.209 300.958C858.388 300.883 858.806 300.646 858.806 300.062V236.683C858.806 236.147 858.37 235.713 857.835 235.713H793.753C793.166 235.713 792.929 236.133 792.855 236.314C792.781 236.495 792.652 236.96 793.07 237.373L801.056 245.278C802.868 247.072 802.901 250.022 801.13 251.857L786.646 266.855C786.467 267.042 786.369 267.288 786.374 267.546C786.379 267.805 786.484 268.047 786.671 268.228L826.017 306.222V306.22Z" fill="#101C2B"/>
</g>
<path d="M744 270.5C744 274.918 747.582 278.5 752 278.5C756.418 278.5 760 274.918 760 270.5C760 266.082 756.418 262.5 752 262.5C747.582 262.5 744 266.082 744 270.5ZM663 270.5C663 274.918 666.582 278.5 671 278.5C675.418 278.5 679 274.918 679 270.5C679 266.082 675.418 262.5 671 262.5C666.582 262.5 663 266.082 663 270.5ZM752 270.5V269H671V270.5V272H752V270.5Z" fill="#4EAC78"/>
<path d="M441 270.5C441 274.918 444.582 278.5 449 278.5C453.418 278.5 457 274.918 457 270.5C457 266.082 453.418 262.5 449 262.5C444.582 262.5 441 266.082 441 270.5ZM522 270.5C522 274.918 525.582 278.5 530 278.5C534.418 278.5 538 274.918 538 270.5C538 266.082 534.418 262.5 530 262.5C525.582 262.5 522 266.082 522 270.5ZM449 270.5V272H530V270.5V269H449V270.5Z" fill="#4EAC78"/>
<path d="M210 270.5C210 274.918 213.582 278.5 218 278.5C222.418 278.5 226 274.918 226 270.5C226 266.082 222.418 262.5 218 262.5C213.582 262.5 210 266.082 210 270.5ZM300 270.5C300 274.918 303.582 278.5 308 278.5C312.418 278.5 316 274.918 316 270.5C316 266.082 312.418 262.5 308 262.5C303.582 262.5 300 266.082 300 270.5ZM218 270.5V272H308V270.5V269H218V270.5Z" fill="#4EAC78"/>
<g clip-path="url(#clip3_2161_6316)">
<path d="M200.435 329H94.5654C91.4928 329 89 326.507 89 323.435V217.565C89 214.493 91.4928 212 94.5654 212H200.435C203.507 212 206 214.493 206 217.565V323.435C206 326.507 203.507 329 200.435 329ZM94.5654 215.71C93.545 215.71 92.7102 216.545 92.7102 217.565V323.435C92.7102 324.455 93.545 325.29 94.5654 325.29H200.435C201.455 325.29 202.29 324.455 202.29 323.435V217.565C202.29 216.545 201.455 215.71 200.435 215.71H94.5654Z" fill="#101C2B"/>
<path d="M137.156 230.472H110.593C108.544 230.472 106.883 232.133 106.883 234.182V306.816C106.883 308.865 108.544 310.526 110.593 310.526H137.156C139.205 310.526 140.866 308.865 140.866 306.816V234.182C140.866 232.133 139.205 230.472 137.156 230.472Z" fill="#4EAC78"/>
<path d="M137.16 312.383H110.597C107.528 312.383 105.031 309.886 105.031 306.817V234.184C105.031 231.114 107.528 228.618 110.597 228.618H137.16C140.229 228.618 142.725 231.114 142.725 234.184V306.817C142.725 309.886 140.229 312.383 137.16 312.383ZM110.597 232.328C109.574 232.328 108.741 233.161 108.741 234.184V306.817C108.741 307.84 109.574 308.672 110.597 308.672H137.16C138.182 308.672 139.015 307.84 139.015 306.817V234.184C139.015 233.161 138.182 232.328 137.16 232.328H110.597Z" fill="#101C2B"/>
<path d="M170.31 305.104H161.758V301.394H170.31C171.298 301.394 172.165 300.07 172.165 298.559V263.968H175.875V298.559C175.875 302.167 173.379 305.104 170.31 305.104Z" fill="#101C2B"/>
<path d="M132.416 240.94H115.535C114.51 240.94 113.68 240.11 113.68 239.085C113.68 238.06 114.51 237.229 115.535 237.229H132.415C133.44 237.229 134.27 238.06 134.27 239.085C134.27 240.11 133.44 240.94 132.415 240.94H132.416Z" fill="#101C2B"/>
<path d="M132.416 248.644H115.535C114.51 248.644 113.68 247.814 113.68 246.789C113.68 245.764 114.51 244.934 115.535 244.934H132.415C133.44 244.934 134.27 245.764 134.27 246.789C134.27 247.814 133.44 248.644 132.415 248.644H132.416Z" fill="#101C2B"/>
<path d="M132.416 256.348H115.535C114.51 256.348 113.68 255.518 113.68 254.493C113.68 253.468 114.51 252.638 115.535 252.638H132.415C133.44 252.638 134.27 253.468 134.27 254.493C134.27 255.518 133.44 256.348 132.415 256.348H132.416Z" fill="#101C2B"/>
<path d="M132.416 264.051H115.535C114.51 264.051 113.68 263.221 113.68 262.196C113.68 261.171 114.51 260.341 115.535 260.341H132.415C133.44 260.341 134.27 261.171 134.27 262.196C134.27 263.221 133.44 264.051 132.415 264.051H132.416Z" fill="#101C2B"/>
<path d="M132.416 271.756H115.535C114.51 271.756 113.68 270.925 113.68 269.901C113.68 268.876 114.51 268.045 115.535 268.045H132.415C133.44 268.045 134.27 268.876 134.27 269.901C134.27 270.925 133.44 271.756 132.415 271.756H132.416Z" fill="#101C2B"/>
<path d="M132.416 279.459H115.535C114.51 279.459 113.68 278.629 113.68 277.604C113.68 276.579 114.51 275.749 115.535 275.749H132.415C133.44 275.749 134.27 276.579 134.27 277.604C134.27 278.629 133.44 279.459 132.415 279.459H132.416Z" fill="#101C2B"/>
<path d="M132.416 287.163H115.535C114.51 287.163 113.68 286.333 113.68 285.308C113.68 284.283 114.51 283.453 115.535 283.453H132.415C133.44 283.453 134.27 284.283 134.27 285.308C134.27 286.333 133.44 287.163 132.415 287.163H132.416Z" fill="#101C2B"/>
<path d="M132.416 294.867H115.535C114.51 294.867 113.68 294.037 113.68 293.012C113.68 291.987 114.51 291.157 115.535 291.157H132.415C133.44 291.157 134.27 291.987 134.27 293.012C134.27 294.037 133.44 294.867 132.415 294.867H132.416Z" fill="#101C2B"/>
<path d="M132.416 302.572H115.535C114.51 302.572 113.68 301.741 113.68 300.716C113.68 299.691 114.51 298.861 115.535 298.861H132.415C133.44 298.861 134.27 299.691 134.27 300.716C134.27 301.741 133.44 302.572 132.415 302.572H132.416Z" fill="#101C2B"/>
<path d="M162.776 295.971H155.64C153.591 295.971 151.93 297.632 151.93 299.681V306.817C151.93 308.866 153.591 310.528 155.64 310.528H162.776C164.825 310.528 166.487 308.866 166.487 306.817V299.681C166.487 297.632 164.825 295.971 162.776 295.971Z" fill="#4EAC78"/>
<path d="M162.78 312.383H155.643C152.574 312.383 150.078 309.887 150.078 306.817V299.681C150.078 296.612 152.574 294.116 155.643 294.116H162.78C165.849 294.116 168.345 296.612 168.345 299.681V306.817C168.345 309.887 165.849 312.383 162.78 312.383ZM155.643 297.826C154.621 297.826 153.788 298.658 153.788 299.681V306.817C153.788 307.84 154.621 308.673 155.643 308.673H162.78C163.803 308.673 164.635 307.84 164.635 306.817V299.681C164.635 298.658 163.803 297.826 162.78 297.826H155.643Z" fill="#101C2B"/>
<path d="M172.65 230.394H155.64C153.591 230.394 151.93 232.055 151.93 234.104V251.114C151.93 253.163 153.591 254.824 155.64 254.824H172.65C174.699 254.824 176.36 253.163 176.36 251.114V234.104C176.36 232.055 174.699 230.394 172.65 230.394Z" fill="#4EAC78"/>
<path d="M172.654 256.68H155.643C152.574 256.68 150.078 254.183 150.078 251.114V234.104C150.078 231.035 152.574 228.539 155.643 228.539H172.654C175.723 228.539 178.219 231.035 178.219 234.104V251.114C178.219 254.183 175.723 256.68 172.654 256.68ZM155.643 232.249C154.621 232.249 153.788 233.081 153.788 234.104V251.114C153.788 252.137 154.621 252.969 155.643 252.969H172.654C173.676 252.969 174.509 252.137 174.509 251.114V234.104C174.509 233.081 173.676 232.249 172.654 232.249H155.643V232.249Z" fill="#101C2B"/>
<path d="M177.463 235.208H160.452C158.403 235.208 156.742 236.869 156.742 238.918V255.928C156.742 257.977 158.403 259.638 160.452 259.638H177.463C179.512 259.638 181.173 257.977 181.173 255.928V238.918C181.173 236.869 179.512 235.208 177.463 235.208Z" fill="#4EAC78"/>
<path d="M177.466 261.494H160.456C157.387 261.494 154.891 258.997 154.891 255.928V238.918C154.891 235.849 157.387 233.353 160.456 233.353H177.466C180.535 233.353 183.032 235.849 183.032 238.918V255.928C183.032 258.997 180.535 261.494 177.466 261.494ZM160.456 237.063C159.433 237.063 158.601 237.895 158.601 238.918V255.928C158.601 256.951 159.433 257.783 160.456 257.783H177.466C178.489 257.783 179.321 256.951 179.321 255.928V238.918C179.321 237.895 178.489 237.063 177.466 237.063H160.456Z" fill="#101C2B"/>
<path d="M182.275 240.021H165.265C163.216 240.021 161.555 241.682 161.555 243.731V260.741C161.555 262.79 163.216 264.451 165.265 264.451H182.275C184.324 264.451 185.985 262.79 185.985 260.741V243.731C185.985 241.682 184.324 240.021 182.275 240.021Z" fill="#4EAC78"/>
<path d="M182.279 266.307H165.268C162.199 266.307 159.703 263.81 159.703 260.741V243.731C159.703 240.662 162.199 238.166 165.268 238.166H182.279C185.348 238.166 187.844 240.662 187.844 243.731V260.741C187.844 263.81 185.348 266.307 182.279 266.307ZM165.268 241.876C164.246 241.876 163.413 242.708 163.413 243.731V260.741C163.413 261.764 164.246 262.596 165.268 262.596H182.279C183.301 262.596 184.134 261.764 184.134 260.741V243.731C184.134 242.708 183.301 241.876 182.279 241.876H165.268Z" fill="#101C2B"/>
</g>
<g clip-path="url(#clip4_2161_6316)">
<path d="M612.629 441.566H564.71C562.661 441.566 561 443.228 561 445.277V513.868C561 515.918 562.661 517.579 564.71 517.579H612.629C614.678 517.579 616.339 515.918 616.339 513.868V445.277C616.339 443.228 614.678 441.566 612.629 441.566Z" fill="#1E55CD"/>
<path d="M612.633 519.434H564.714C561.645 519.434 559.148 516.938 559.148 513.869V445.277C559.148 442.208 561.645 439.711 564.714 439.711H612.633C615.702 439.711 618.198 442.208 618.198 445.277V513.869C618.198 516.938 615.702 519.434 612.633 519.434ZM564.714 443.422C563.691 443.422 562.859 444.254 562.859 445.277V513.869C562.859 514.891 563.691 515.724 564.714 515.724H612.633C613.655 515.724 614.488 514.891 614.488 513.869V445.277C614.488 444.254 613.655 443.422 612.633 443.422H564.714Z" fill="#101C2B"/>
<path d="M607.36 466.423H570.464C569.44 466.423 568.609 465.592 568.609 464.568C568.609 463.543 569.44 462.712 570.464 462.712H607.36C608.385 462.712 609.216 463.543 609.216 464.568C609.216 465.592 608.385 466.423 607.36 466.423Z" fill="#101C2B"/>
<path d="M607.36 458.031H570.464C569.44 458.031 568.609 457.2 568.609 456.175C568.609 455.15 569.44 454.32 570.464 454.32H607.36C608.385 454.32 609.216 455.15 609.216 456.175C609.216 457.2 608.385 458.031 607.36 458.031Z" fill="#101C2B"/>
<path d="M607.36 474.815H570.464C569.44 474.815 568.609 473.985 568.609 472.96C568.609 471.935 569.44 471.104 570.464 471.104H607.36C608.385 471.104 609.216 471.935 609.216 472.96C609.216 473.985 608.385 474.815 607.36 474.815Z" fill="#101C2B"/>
<path d="M607.36 483.207H570.464C569.44 483.207 568.609 482.377 568.609 481.352C568.609 480.327 569.44 479.497 570.464 479.497H607.36C608.385 479.497 609.216 480.327 609.216 481.352C609.216 482.377 608.385 483.207 607.36 483.207Z" fill="#101C2B"/>
<path d="M607.36 491.6H570.464C569.44 491.6 568.609 490.77 568.609 489.745C568.609 488.72 569.44 487.89 570.464 487.89H607.36C608.385 487.89 609.216 488.72 609.216 489.745C609.216 490.77 608.385 491.6 607.36 491.6Z" fill="#101C2B"/>
<path d="M607.36 499.992H570.464C569.44 499.992 568.609 499.162 568.609 498.137C568.609 497.112 569.44 496.282 570.464 496.282H607.36C608.385 496.282 609.216 497.112 609.216 498.137C609.216 499.162 608.385 499.992 607.36 499.992Z" fill="#101C2B"/>
<path d="M607.36 508.384H570.464C569.44 508.384 568.609 507.554 568.609 506.529C568.609 505.504 569.44 504.674 570.464 504.674H607.36C608.385 504.674 609.216 505.504 609.216 506.529C609.216 507.554 608.385 508.384 607.36 508.384Z" fill="#101C2B"/>
<path d="M603.478 437.524H573.866C571.817 437.524 570.156 439.186 570.156 441.235V441.898C570.156 443.947 571.817 445.608 573.866 445.608H603.478C605.527 445.608 607.188 443.947 607.188 441.898V441.235C607.188 439.186 605.527 437.524 603.478 437.524Z" fill="#1E55CD"/>
<path d="M603.481 447.463H573.87C570.801 447.463 568.305 444.967 568.305 441.898V441.235C568.305 438.166 570.801 435.669 573.87 435.669H603.481C606.55 435.669 609.047 438.166 609.047 441.235V441.898C609.047 444.967 606.55 447.463 603.481 447.463ZM573.87 439.38C572.847 439.38 572.015 440.212 572.015 441.235V441.898C572.015 442.921 572.847 443.753 573.87 443.753H603.481C604.504 443.753 605.336 442.921 605.336 441.898V441.235C605.336 440.212 604.504 439.38 603.481 439.38H573.87Z" fill="#101C2B"/>
<path d="M653.435 536H547.565C544.493 536 542 533.507 542 530.435V424.565C542 421.493 544.493 419 547.565 419H653.435C656.507 419 659 421.493 659 424.565V530.435C659 533.507 656.507 536 653.435 536ZM547.565 422.71C546.545 422.71 545.71 423.545 545.71 424.565V530.435C545.71 531.455 546.545 532.29 547.565 532.29H653.435C654.455 532.29 655.29 531.455 655.29 530.435V424.565C655.29 423.545 654.455 422.71 653.435 422.71H547.565Z" fill="#101C2B"/>
<path d="M632.845 476.427C636.79 476.427 639.988 473.23 639.988 469.285C639.988 465.341 636.79 462.143 632.845 462.143C628.901 462.143 625.703 465.341 625.703 469.285C625.703 473.23 628.901 476.427 632.845 476.427Z" fill="#4EAC78"/>
<path d="M632.849 478.283C627.888 478.283 623.852 474.247 623.852 469.285C623.852 464.324 627.888 460.288 632.849 460.288C637.81 460.288 641.846 464.324 641.846 469.285C641.846 474.247 637.81 478.283 632.849 478.283V478.283ZM632.849 463.997C629.933 463.997 627.562 466.369 627.562 469.284C627.562 472.199 629.934 474.571 632.849 474.571C635.764 474.571 638.136 472.199 638.136 469.284C638.136 466.369 635.764 463.997 632.849 463.997Z" fill="#101C2B"/>
<path d="M632.845 455.852C636.79 455.852 639.988 452.654 639.988 448.71C639.988 444.765 636.79 441.567 632.845 441.567C628.901 441.567 625.703 444.765 625.703 448.71C625.703 452.654 628.901 455.852 632.845 455.852Z" fill="#4EAC78"/>
<path d="M632.849 457.707C627.888 457.707 623.852 453.671 623.852 448.71C623.852 443.748 627.888 439.712 632.849 439.712C637.81 439.712 641.846 443.748 641.846 448.71C641.846 453.671 637.81 457.707 632.849 457.707V457.707ZM632.849 443.421C629.933 443.421 627.562 445.794 627.562 448.709C627.562 451.623 629.934 453.996 632.849 453.996C635.764 453.996 638.136 451.623 638.136 448.709C638.136 445.794 635.764 443.421 632.849 443.421V443.421Z" fill="#101C2B"/>
<path d="M632.845 497.003C636.79 497.003 639.988 493.805 639.988 489.861C639.988 485.916 636.79 482.719 632.845 482.719C628.901 482.719 625.703 485.916 625.703 489.861C625.703 493.805 628.901 497.003 632.845 497.003Z" fill="#4EAC78"/>
<path d="M632.849 498.858C627.888 498.858 623.852 494.822 623.852 489.861C623.852 484.9 627.888 480.864 632.849 480.864C637.81 480.864 641.846 484.9 641.846 489.861C641.846 494.822 637.81 498.858 632.849 498.858ZM632.849 484.573C629.933 484.573 627.562 486.945 627.562 489.86C627.562 492.775 629.934 495.147 632.849 495.147C635.764 495.147 638.136 492.775 638.136 489.86C638.136 486.945 635.764 484.573 632.849 484.573Z" fill="#101C2B"/>
<path d="M632.845 517.578C636.79 517.578 639.988 514.381 639.988 510.436C639.988 506.492 636.79 503.294 632.845 503.294C628.901 503.294 625.703 506.492 625.703 510.436C625.703 514.381 628.901 517.578 632.845 517.578Z" fill="#4EAC78"/>
<path d="M632.849 519.434C627.888 519.434 623.852 515.398 623.852 510.436C623.852 505.475 627.888 501.439 632.849 501.439C637.81 501.439 641.846 505.475 641.846 510.436C641.846 515.398 637.81 519.434 632.849 519.434ZM632.849 505.148C629.933 505.148 627.562 507.52 627.562 510.435C627.562 513.35 629.934 515.722 632.849 515.722C635.764 515.722 638.136 513.35 638.136 510.435C638.136 507.52 635.764 505.148 632.849 505.148Z" fill="#101C2B"/>
</g>
<path d="M718 479C718.828 479 719.5 478.328 719.5 477.5C719.5 476.672 718.828 476 718 476V477.5V479ZM661.939 476.439C661.354 477.025 661.354 477.975 661.939 478.561L671.485 488.107C672.071 488.692 673.021 488.692 673.607 488.107C674.192 487.521 674.192 486.571 673.607 485.985L665.121 477.5L673.607 469.015C674.192 468.429 674.192 467.479 673.607 466.893C673.021 466.308 672.071 466.308 671.485 466.893L661.939 476.439ZM718 477.5V476H663V477.5V479H718V477.5Z" fill="#4EAC78"/>
<g clip-path="url(#clip5_2161_6316)">
<path d="M600.66 358.883C585.713 358.883 573.602 371.026 573.602 386.011C573.602 400.996 585.713 413.139 600.66 413.139C615.606 413.139 627.718 400.996 627.718 386.011C627.718 371.026 615.596 358.883 600.66 358.883ZM600.649 392.997C596.805 392.997 593.681 389.865 593.681 386.011C593.681 382.157 596.805 379.024 600.649 379.024C604.493 379.024 607.618 382.157 607.618 386.011C607.618 389.865 604.504 392.997 600.649 392.997V392.997Z" fill="#E5BE65"/>
<path d="M600.653 394.365C596.057 394.365 592.32 390.618 592.32 386.011C592.32 381.403 596.057 377.657 600.653 377.657C605.248 377.657 608.985 381.403 608.985 386.011C608.985 390.618 605.248 394.365 600.653 394.365V394.365ZM600.653 381.102C597.957 381.102 595.756 383.309 595.756 386.011C595.756 388.713 597.957 390.92 600.653 390.92C603.348 390.92 605.549 388.713 605.549 386.011C605.549 383.309 603.348 381.102 600.653 381.102V381.102Z" fill="#101C2B"/>
<path d="M600.502 414C593.888 414 587.069 412.794 580.24 410.426C574.764 408.531 569.267 405.883 563.887 402.546C554.642 396.819 548.855 391.027 548.221 390.392L547.47 389.628C545.515 387.625 545.505 384.374 547.47 382.383L548.221 381.619C549.166 380.65 571.715 358.021 600.502 358.021C607.105 358.021 613.924 359.227 620.753 361.595C626.229 363.49 631.726 366.138 637.106 369.476C646.2 375.095 651.945 380.79 652.74 381.597L652.782 381.64L653.534 382.404C655.488 384.407 655.488 387.647 653.534 389.649L652.782 390.414C652.149 391.06 646.372 396.851 637.117 402.567C631.737 405.894 626.229 408.542 620.763 410.447C613.924 412.805 607.105 414 600.502 414ZM600.502 361.466C573.132 361.466 551.582 383.115 550.669 384.041L549.918 384.805C549.263 385.472 549.263 386.56 549.918 387.216L550.669 387.981C551.571 388.907 573.121 410.555 600.502 410.555C627.882 410.555 649.432 388.907 650.334 387.981L651.086 387.216C651.741 386.549 651.741 385.472 651.086 384.805L650.334 384.041C649.422 383.115 627.85 361.466 600.502 361.466V361.466Z" fill="#101C2B"/>
<path d="M600.655 414C593.192 414 586.181 411.093 580.908 405.797C575.636 400.501 572.727 393.482 572.727 386C572.727 378.518 575.626 371.489 580.908 366.203C586.181 360.917 593.192 358 600.655 358C608.117 358 615.129 360.907 620.401 366.203C625.673 371.499 628.583 378.518 628.583 386C628.583 393.482 625.684 400.511 620.401 405.797C615.118 411.083 608.117 414 600.655 414ZM600.655 361.466C594.116 361.466 587.963 364.018 583.346 368.657C578.729 373.297 576.173 379.455 576.173 386.011C576.173 392.567 578.718 398.735 583.346 403.364C587.974 407.993 594.116 410.555 600.655 410.555C607.194 410.555 613.346 408.004 617.963 403.364C622.58 398.724 625.136 392.567 625.136 386.011C625.136 379.455 622.591 373.286 617.963 368.657C613.336 364.028 607.204 361.466 600.655 361.466V361.466Z" fill="#101C2B"/>
<path d="M600.653 379.379C597.003 379.379 594.039 382.351 594.039 386.011C594.039 389.671 597.003 392.642 600.653 392.642C604.304 392.642 607.268 389.671 607.268 386.011C607.268 382.351 604.315 379.379 600.653 379.379ZM598.635 386.614C597.389 386.614 596.38 385.602 596.38 384.353C596.38 383.104 597.389 382.092 598.635 382.092C599.88 382.092 600.89 383.104 600.89 384.353C600.89 385.602 599.88 386.614 598.635 386.614Z" fill="#101C2B"/>
</g>
<g clip-path="url(#clip6_2161_6316)">
<path d="M1107.43 329H1001.57C998.493 329 996 326.507 996 323.435V217.565C996 214.493 998.493 212 1001.57 212H1107.43C1110.51 212 1113 214.493 1113 217.565V323.435C1113 326.507 1110.51 329 1107.43 329ZM1001.57 215.71C1000.55 215.71 999.71 216.545 999.71 217.565V323.435C999.71 324.455 1000.55 325.29 1001.57 325.29H1107.43C1108.45 325.29 1109.29 324.455 1109.29 323.435V217.565C1109.29 216.545 1108.45 215.71 1107.43 215.71H1001.57Z" fill="#101C2B"/>
<path d="M1044.16 264.453H1017.6C1015.55 264.453 1013.89 262.795 1013.89 260.743V234.18C1013.89 232.128 1015.55 230.47 1017.6 230.47H1044.16C1046.22 230.47 1047.87 232.128 1047.87 234.18V260.743C1047.87 262.795 1046.22 264.453 1044.16 264.453Z" fill="#4EAC78"/>
<path d="M1044.17 266.308H1017.6C1014.53 266.308 1012.04 263.816 1012.04 260.743V234.18C1012.04 231.108 1014.53 228.615 1017.6 228.615H1044.17C1047.24 228.615 1049.73 231.108 1049.73 234.18V260.743C1049.73 263.816 1047.24 266.308 1044.17 266.308ZM1017.6 232.325C1016.58 232.325 1015.75 233.16 1015.75 234.18V260.743C1015.75 261.763 1016.58 262.598 1017.6 262.598H1044.17C1045.19 262.598 1046.02 261.763 1046.02 260.743V234.18C1046.02 233.16 1045.19 232.325 1044.17 232.325H1017.6Z" fill="#101C2B"/>
<path d="M1089.17 264.453H1062.61C1060.56 264.453 1058.9 262.795 1058.9 260.743V234.18C1058.9 232.128 1060.56 230.47 1062.61 230.47H1089.17C1091.22 230.47 1092.88 232.128 1092.88 234.18V260.743C1092.88 262.795 1091.21 264.453 1089.17 264.453Z" fill="#4EAC78"/>
<path d="M1089.18 266.308H1062.61C1059.54 266.308 1057.05 263.816 1057.05 260.743V234.18C1057.05 231.108 1059.54 228.615 1062.61 228.615H1089.18C1092.25 228.615 1094.74 231.108 1094.74 234.18V260.743C1094.74 263.816 1092.24 266.308 1089.18 266.308ZM1062.61 232.325C1061.59 232.325 1060.76 233.16 1060.76 234.18V260.743C1060.76 261.763 1061.59 262.598 1062.61 262.598H1089.18C1090.2 262.598 1091.03 261.763 1091.03 260.743V234.18C1091.03 233.16 1090.2 232.325 1089.18 232.325H1062.61V232.325Z" fill="#101C2B"/>
<path d="M1044.16 310.53H1017.6C1015.55 310.53 1013.89 308.872 1013.89 306.819V280.245C1013.89 278.193 1015.55 276.535 1017.6 276.535H1044.16C1046.22 276.535 1047.87 278.193 1047.87 280.245V306.808C1047.87 308.86 1046.22 310.53 1044.16 310.53Z" fill="#4EAC78"/>
<path d="M1044.17 312.385H1017.6C1014.53 312.385 1012.04 309.892 1012.04 306.82V280.245C1012.04 277.173 1014.53 274.68 1017.6 274.68H1044.17C1047.24 274.68 1049.73 277.173 1049.73 280.245V306.808C1049.73 309.881 1047.24 312.385 1044.17 312.385ZM1017.6 278.39C1016.58 278.39 1015.75 279.225 1015.75 280.245V306.808C1015.75 307.828 1016.58 308.663 1017.6 308.663H1044.17C1045.19 308.663 1046.02 307.828 1046.02 306.808V280.245C1046.02 279.225 1045.19 278.39 1044.17 278.39H1017.6V278.39Z" fill="#101C2B"/>
<path d="M1089.17 310.53H1062.61C1060.56 310.53 1058.9 308.872 1058.9 306.819V280.245C1058.9 278.193 1060.56 276.535 1062.61 276.535H1089.17C1091.22 276.535 1092.88 278.193 1092.88 280.245V306.808C1092.88 308.86 1091.21 310.53 1089.17 310.53Z" fill="#4EAC78"/>
<path d="M1089.18 312.385H1062.61C1059.54 312.385 1057.05 309.892 1057.05 306.82V280.245C1057.05 277.173 1059.54 274.68 1062.61 274.68H1089.18C1092.25 274.68 1094.74 277.173 1094.74 280.245V306.808C1094.74 309.881 1092.24 312.385 1089.18 312.385ZM1062.61 278.39C1061.59 278.39 1060.76 279.225 1060.76 280.245V306.808C1060.76 307.828 1061.59 308.663 1062.61 308.663H1089.18C1090.2 308.663 1091.03 307.828 1091.03 306.808V280.245C1091.03 279.225 1090.2 278.39 1089.18 278.39H1062.61Z" fill="#101C2B"/>
</g>
<path d="M1056 333C1056 332.172 1055.33 331.5 1054.5 331.5C1053.67 331.5 1053 332.172 1053 333H1054.5H1056ZM924.939 476.939C924.354 477.525 924.354 478.475 924.939 479.061L934.485 488.607C935.071 489.192 936.021 489.192 936.607 488.607C937.192 488.021 937.192 487.071 936.607 486.485L928.121 478L936.607 469.515C937.192 468.929 937.192 467.979 936.607 467.393C936.021 466.808 935.071 466.808 934.485 467.393L924.939 476.939ZM1054.5 333H1053V454H1054.5H1056V333H1054.5ZM1030.5 478V476.5H926V478V479.5H1030.5V478ZM1054.5 454H1053C1053 466.426 1042.93 476.5 1030.5 476.5V478V479.5C1044.58 479.5 1056 468.083 1056 454H1054.5Z" fill="#4EAC78"/>
<path d="M976 270.5C976 274.918 979.582 278.5 984 278.5C988.418 278.5 992 274.918 992 270.5C992 266.082 988.418 262.5 984 262.5C979.582 262.5 976 266.082 976 270.5ZM885 270.5C885 274.918 888.582 278.5 893 278.5C897.418 278.5 901 274.918 901 270.5C901 266.082 897.418 262.5 893 262.5C888.582 262.5 885 266.082 885 270.5ZM984 270.5V269H893V270.5V272H984V270.5Z" fill="#4EAC78"/>
<path d="M952 174H996V237H883V302H996V452H923V600H24V67H952V174Z" fill="#F2F2F6" fill-opacity="0.7"/>
<defs>
<clipPath id="clip0_2161_6316">
<rect width="117" height="117" fill="white" transform="translate(320 212)"/>
</clipPath>
<clipPath id="clip1_2161_6316">
<rect width="117" height="117" fill="white" transform="translate(542 212)"/>
</clipPath>
<clipPath id="clip2_2161_6316">
<rect width="117" height="117" fill="white" transform="translate(764 212)"/>
</clipPath>
<clipPath id="clip3_2161_6316">
<rect width="117" height="117" fill="white" transform="translate(89 212)"/>
</clipPath>
<clipPath id="clip4_2161_6316">
<rect width="117" height="117" fill="white" transform="translate(542 419)"/>
</clipPath>
<clipPath id="clip5_2161_6316">
<rect width="109" height="56" fill="white" transform="translate(546 358)"/>
</clipPath>
<clipPath id="clip6_2161_6316">
<rect width="117" height="117" fill="white" transform="translate(996 212)"/>
</clipPath>
</defs>
</svg>
