<svg width="1200" height="300" viewBox="0 0 1200 300" fill="none" xmlns="http://www.w3.org/2000/svg">
<rect width="1200" height="300" rx="4" fill="#F2F2F6"/>
<rect x="290" y="51" width="200" height="50" rx="25" fill="#101C2B"/>
<path d="M364.324 75.168C364.324 75.6627 364.207 76.1293 363.974 76.568C363.74 77.0067 363.367 77.366 362.854 77.646C362.34 77.9167 361.682 78.052 360.88 78.052H359.116V82H357.52V72.27H360.88C361.626 72.27 362.256 72.4007 362.77 72.662C363.292 72.914 363.68 73.2593 363.932 73.698C364.193 74.1367 364.324 74.6267 364.324 75.168ZM360.88 76.75C361.486 76.75 361.939 76.6147 362.238 76.344C362.536 76.064 362.686 75.672 362.686 75.168C362.686 74.104 362.084 73.572 360.88 73.572H359.116V76.75H360.88ZM370.998 82L368.758 78.108H367.54V82H365.944V72.27H369.304C370.051 72.27 370.681 72.4007 371.194 72.662C371.717 72.9233 372.104 73.2733 372.356 73.712C372.617 74.1507 372.748 74.6407 372.748 75.182C372.748 75.8167 372.561 76.3953 372.188 76.918C371.824 77.4313 371.259 77.7813 370.494 77.968L372.902 82H370.998ZM367.54 76.834H369.304C369.901 76.834 370.349 76.6847 370.648 76.386C370.956 76.0873 371.11 75.686 371.11 75.182C371.11 74.678 370.961 74.286 370.662 74.006C370.363 73.7167 369.911 73.572 369.304 73.572H367.54V76.834ZM379.326 82.098C378.42 82.098 377.585 81.888 376.82 81.468C376.064 81.0387 375.462 80.446 375.014 79.69C374.575 78.9247 374.356 78.066 374.356 77.114C374.356 76.162 374.575 75.308 375.014 74.552C375.462 73.796 376.064 73.208 376.82 72.788C377.585 72.3587 378.42 72.144 379.326 72.144C380.24 72.144 381.076 72.3587 381.832 72.788C382.597 73.208 383.199 73.796 383.638 74.552C384.076 75.308 384.296 76.162 384.296 77.114C384.296 78.066 384.076 78.9247 383.638 79.69C383.199 80.446 382.597 81.0387 381.832 81.468C381.076 81.888 380.24 82.098 379.326 82.098ZM379.326 80.712C379.97 80.712 380.544 80.5673 381.048 80.278C381.552 79.9793 381.944 79.5593 382.224 79.018C382.513 78.4673 382.658 77.8327 382.658 77.114C382.658 76.3953 382.513 75.7653 382.224 75.224C381.944 74.6827 381.552 74.2673 381.048 73.978C380.544 73.6887 379.97 73.544 379.326 73.544C378.682 73.544 378.108 73.6887 377.604 73.978C377.1 74.2673 376.703 74.6827 376.414 75.224C376.134 75.7653 375.994 76.3953 375.994 77.114C375.994 77.8327 376.134 78.4673 376.414 79.018C376.703 79.5593 377.1 79.9793 377.604 80.278C378.108 80.5673 378.682 80.712 379.326 80.712ZM389.142 72.27C390.178 72.27 391.083 72.4707 391.858 72.872C392.642 73.264 393.244 73.8333 393.664 74.58C394.093 75.3173 394.308 76.1807 394.308 77.17C394.308 78.1593 394.093 79.018 393.664 79.746C393.244 80.474 392.642 81.034 391.858 81.426C391.083 81.8087 390.178 82 389.142 82H385.964V72.27H389.142ZM389.142 80.698C390.281 80.698 391.153 80.39 391.76 79.774C392.367 79.158 392.67 78.29 392.67 77.17C392.67 76.0407 392.367 75.1587 391.76 74.524C391.153 73.8893 390.281 73.572 389.142 73.572H387.56V80.698H389.142ZM397.57 72.27V78.472C397.57 79.2093 397.761 79.7647 398.144 80.138C398.536 80.5113 399.077 80.698 399.768 80.698C400.468 80.698 401.009 80.5113 401.392 80.138C401.784 79.7647 401.98 79.2093 401.98 78.472V72.27H403.576V78.444C403.576 79.2373 403.403 79.9093 403.058 80.46C402.713 81.0107 402.251 81.4213 401.672 81.692C401.093 81.9627 400.454 82.098 399.754 82.098C399.054 82.098 398.415 81.9627 397.836 81.692C397.267 81.4213 396.814 81.0107 396.478 80.46C396.142 79.9093 395.974 79.2373 395.974 78.444V72.27H397.57ZM405.22 77.114C405.22 76.162 405.439 75.308 405.878 74.552C406.326 73.796 406.928 73.208 407.684 72.788C408.449 72.3587 409.285 72.144 410.19 72.144C411.226 72.144 412.145 72.4007 412.948 72.914C413.76 73.418 414.348 74.1367 414.712 75.07H412.794C412.542 74.5567 412.192 74.174 411.744 73.922C411.296 73.67 410.778 73.544 410.19 73.544C409.546 73.544 408.972 73.6887 408.468 73.978C407.964 74.2673 407.567 74.6827 407.278 75.224C406.998 75.7653 406.858 76.3953 406.858 77.114C406.858 77.8327 406.998 78.4627 407.278 79.004C407.567 79.5453 407.964 79.9653 408.468 80.264C408.972 80.5533 409.546 80.698 410.19 80.698C410.778 80.698 411.296 80.572 411.744 80.32C412.192 80.068 412.542 79.6853 412.794 79.172H414.712C414.348 80.1053 413.76 80.824 412.948 81.328C412.145 81.832 411.226 82.084 410.19 82.084C409.275 82.084 408.44 81.874 407.684 81.454C406.928 81.0247 406.326 80.432 405.878 79.676C405.439 78.92 405.22 78.066 405.22 77.114ZM422.964 72.27V73.572H420.374V82H418.778V73.572H416.174V72.27H422.964Z" fill="white"/>
<path d="M549.245 211.812C549.245 210.996 549.433 210.264 549.809 209.616C550.193 208.968 550.709 208.464 551.357 208.104C552.013 207.736 552.729 207.552 553.505 207.552C554.393 207.552 555.181 207.772 555.869 208.212C556.565 208.644 557.069 209.26 557.381 210.06H555.737C555.521 209.62 555.221 209.292 554.837 209.076C554.453 208.86 554.009 208.752 553.505 208.752C552.953 208.752 552.461 208.876 552.029 209.124C551.597 209.372 551.257 209.728 551.009 210.192C550.769 210.656 550.649 211.196 550.649 211.812C550.649 212.428 550.769 212.968 551.009 213.432C551.257 213.896 551.597 214.256 552.029 214.512C552.461 214.76 552.953 214.884 553.505 214.884C554.009 214.884 554.453 214.776 554.837 214.56C555.221 214.344 555.521 214.016 555.737 213.576H557.381C557.069 214.376 556.565 214.992 555.869 215.424C555.181 215.856 554.393 216.072 553.505 216.072C552.721 216.072 552.005 215.892 551.357 215.532C550.709 215.164 550.193 214.656 549.809 214.008C549.433 213.36 549.245 212.628 549.245 211.812ZM562.885 216.084C562.109 216.084 561.393 215.904 560.737 215.544C560.089 215.176 559.573 214.668 559.189 214.02C558.813 213.364 558.625 212.628 558.625 211.812C558.625 210.996 558.813 210.264 559.189 209.616C559.573 208.968 560.089 208.464 560.737 208.104C561.393 207.736 562.109 207.552 562.885 207.552C563.669 207.552 564.385 207.736 565.033 208.104C565.689 208.464 566.205 208.968 566.581 209.616C566.957 210.264 567.145 210.996 567.145 211.812C567.145 212.628 566.957 213.364 566.581 214.02C566.205 214.668 565.689 215.176 565.033 215.544C564.385 215.904 563.669 216.084 562.885 216.084ZM562.885 214.896C563.437 214.896 563.929 214.772 564.361 214.524C564.793 214.268 565.129 213.908 565.369 213.444C565.617 212.972 565.741 212.428 565.741 211.812C565.741 211.196 565.617 210.656 565.369 210.192C565.129 209.728 564.793 209.372 564.361 209.124C563.929 208.876 563.437 208.752 562.885 208.752C562.333 208.752 561.841 208.876 561.409 209.124C560.977 209.372 560.637 209.728 560.389 210.192C560.149 210.656 560.029 211.196 560.029 211.812C560.029 212.428 560.149 212.972 560.389 213.444C560.637 213.908 560.977 214.268 561.409 214.524C561.841 214.772 562.333 214.896 562.885 214.896ZM569.957 214.896H572.777V216H568.589V207.66H569.957V214.896ZM575.387 214.896H578.207V216H574.019V207.66H575.387V214.896ZM580.817 208.764V211.212H583.697V212.328H580.817V214.884H584.057V216H579.449V207.648H584.057V208.764H580.817ZM585.384 211.812C585.384 210.996 585.572 210.264 585.948 209.616C586.332 208.968 586.848 208.464 587.496 208.104C588.152 207.736 588.868 207.552 589.644 207.552C590.532 207.552 591.32 207.772 592.008 208.212C592.704 208.644 593.208 209.26 593.52 210.06H591.876C591.66 209.62 591.36 209.292 590.976 209.076C590.592 208.86 590.148 208.752 589.644 208.752C589.092 208.752 588.6 208.876 588.168 209.124C587.736 209.372 587.396 209.728 587.148 210.192C586.908 210.656 586.788 211.196 586.788 211.812C586.788 212.428 586.908 212.968 587.148 213.432C587.396 213.896 587.736 214.256 588.168 214.512C588.6 214.76 589.092 214.884 589.644 214.884C590.148 214.884 590.592 214.776 590.976 214.56C591.36 214.344 591.66 214.016 591.876 213.576H593.52C593.208 214.376 592.704 214.992 592.008 215.424C591.32 215.856 590.532 216.072 589.644 216.072C588.86 216.072 588.144 215.892 587.496 215.532C586.848 215.164 586.332 214.656 585.948 214.008C585.572 213.36 585.384 212.628 585.384 211.812ZM600.607 207.66V208.776H598.387V216H597.019V208.776H594.787V207.66H600.607ZM603.459 207.66V216H602.091V207.66H603.459ZM612.541 207.66L609.409 216H607.825L604.681 207.66H606.145L608.617 214.596L611.101 207.66H612.541ZM615.151 208.764V211.212H618.031V212.328H615.151V214.884H618.391V216H613.783V207.648H618.391V208.764H615.151ZM627.193 216.084C626.417 216.084 625.701 215.904 625.045 215.544C624.397 215.176 623.881 214.668 623.497 214.02C623.121 213.364 622.933 212.628 622.933 211.812C622.933 210.996 623.121 210.264 623.497 209.616C623.881 208.968 624.397 208.464 625.045 208.104C625.701 207.736 626.417 207.552 627.193 207.552C627.977 207.552 628.693 207.736 629.341 208.104C629.997 208.464 630.513 208.968 630.889 209.616C631.265 210.264 631.453 210.996 631.453 211.812C631.453 212.628 631.265 213.364 630.889 214.02C630.513 214.668 629.997 215.176 629.341 215.544C628.693 215.904 627.977 216.084 627.193 216.084ZM627.193 214.896C627.745 214.896 628.237 214.772 628.669 214.524C629.101 214.268 629.437 213.908 629.677 213.444C629.925 212.972 630.049 212.428 630.049 211.812C630.049 211.196 629.925 210.656 629.677 210.192C629.437 209.728 629.101 209.372 628.669 209.124C628.237 208.876 627.745 208.752 627.193 208.752C626.641 208.752 626.149 208.876 625.717 209.124C625.285 209.372 624.945 209.728 624.697 210.192C624.457 210.656 624.337 211.196 624.337 211.812C624.337 212.428 624.457 212.972 624.697 213.444C624.945 213.908 625.285 214.268 625.717 214.524C626.149 214.772 626.641 214.896 627.193 214.896ZM643.757 207.66L641.285 216H639.737L637.985 209.688L636.125 216L634.589 216.012L632.225 207.66H633.677L635.405 214.452L637.277 207.66H638.813L640.553 214.416L642.293 207.66H643.757ZM651.835 216H650.467L646.351 209.772V216H644.983V207.648H646.351L650.467 213.864V207.648H651.835V216ZM655.098 208.764V211.212H657.978V212.328H655.098V214.884H658.338V216H653.73V207.648H658.338V208.764H655.098ZM664.453 216L662.533 212.664H661.489V216H660.121V207.66H663.001C663.641 207.66 664.181 207.772 664.621 207.996C665.069 208.22 665.401 208.52 665.617 208.896C665.841 209.272 665.953 209.692 665.953 210.156C665.953 210.7 665.793 211.196 665.473 211.644C665.161 212.084 664.677 212.384 664.021 212.544L666.085 216H664.453ZM661.489 211.572H663.001C663.513 211.572 663.897 211.444 664.153 211.188C664.417 210.932 664.549 210.588 664.549 210.156C664.549 209.724 664.421 209.388 664.165 209.148C663.909 208.9 663.521 208.776 663.001 208.776H661.489V211.572ZM670.549 216.084C669.989 216.084 669.485 215.988 669.037 215.796C668.589 215.596 668.237 215.316 667.981 214.956C667.725 214.596 667.597 214.176 667.597 213.696H669.061C669.093 214.056 669.233 214.352 669.481 214.584C669.737 214.816 670.093 214.932 670.549 214.932C671.021 214.932 671.389 214.82 671.653 214.596C671.917 214.364 672.049 214.068 672.049 213.708C672.049 213.428 671.965 213.2 671.797 213.024C671.637 212.848 671.433 212.712 671.185 212.616C670.945 212.52 670.609 212.416 670.177 212.304C669.633 212.16 669.189 212.016 668.845 211.872C668.509 211.72 668.221 211.488 667.981 211.176C667.741 210.864 667.621 210.448 667.621 209.928C667.621 209.448 667.741 209.028 667.981 208.668C668.221 208.308 668.557 208.032 668.989 207.84C669.421 207.648 669.921 207.552 670.489 207.552C671.297 207.552 671.957 207.756 672.469 208.164C672.989 208.564 673.277 209.116 673.333 209.82H671.821C671.797 209.516 671.653 209.256 671.389 209.04C671.125 208.824 670.777 208.716 670.345 208.716C669.953 208.716 669.633 208.816 669.385 209.016C669.137 209.216 669.013 209.504 669.013 209.88C669.013 210.136 669.089 210.348 669.241 210.516C669.401 210.676 669.601 210.804 669.841 210.9C670.081 210.996 670.409 211.1 670.825 211.212C671.377 211.364 671.825 211.516 672.169 211.668C672.521 211.82 672.817 212.056 673.057 212.376C673.305 212.688 673.429 213.108 673.429 213.636C673.429 214.06 673.313 214.46 673.081 214.836C672.857 215.212 672.525 215.516 672.085 215.748C671.653 215.972 671.141 216.084 670.549 216.084ZM681.801 207.66V216H680.433V212.352H676.509V216H675.141V207.66H676.509V211.236H680.433V207.66H681.801ZM685.068 207.66V216H683.7V207.66H685.068ZM692.794 210.144C692.794 210.568 692.694 210.968 692.494 211.344C692.294 211.72 691.974 212.028 691.534 212.268C691.094 212.5 690.53 212.616 689.842 212.616H688.33V216H686.962V207.66H689.842C690.482 207.66 691.022 207.772 691.462 207.996C691.91 208.212 692.242 208.508 692.458 208.884C692.682 209.26 692.794 209.68 692.794 210.144ZM689.842 211.5C690.362 211.5 690.75 211.384 691.006 211.152C691.262 210.912 691.39 210.576 691.39 210.144C691.39 209.232 690.874 208.776 689.842 208.776H688.33V211.5H689.842Z" fill="#101C2B"/>
<rect x="521" y="51" width="200" height="50" rx="25" fill="#101C2B"/>
<path d="M575.871 77.114C575.871 76.162 576.09 75.308 576.529 74.552C576.977 73.796 577.579 73.208 578.335 72.788C579.1 72.3587 579.936 72.144 580.841 72.144C581.877 72.144 582.796 72.4007 583.599 72.914C584.411 73.418 584.999 74.1367 585.363 75.07H583.445C583.193 74.5567 582.843 74.174 582.395 73.922C581.947 73.67 581.429 73.544 580.841 73.544C580.197 73.544 579.623 73.6887 579.119 73.978C578.615 74.2673 578.218 74.6827 577.929 75.224C577.649 75.7653 577.509 76.3953 577.509 77.114C577.509 77.8327 577.649 78.4627 577.929 79.004C578.218 79.5453 578.615 79.9653 579.119 80.264C579.623 80.5533 580.197 80.698 580.841 80.698C581.429 80.698 581.947 80.572 582.395 80.32C582.843 80.068 583.193 79.6853 583.445 79.172H585.363C584.999 80.1053 584.411 80.824 583.599 81.328C582.796 81.832 581.877 82.084 580.841 82.084C579.926 82.084 579.091 81.874 578.335 81.454C577.579 81.0247 576.977 80.432 576.529 79.676C576.09 78.92 575.871 78.066 575.871 77.114ZM591.767 82.098C590.862 82.098 590.026 81.888 589.261 81.468C588.505 81.0387 587.903 80.446 587.455 79.69C587.016 78.9247 586.797 78.066 586.797 77.114C586.797 76.162 587.016 75.308 587.455 74.552C587.903 73.796 588.505 73.208 589.261 72.788C590.026 72.3587 590.862 72.144 591.767 72.144C592.682 72.144 593.517 72.3587 594.273 72.788C595.038 73.208 595.64 73.796 596.079 74.552C596.518 75.308 596.737 76.162 596.737 77.114C596.737 78.066 596.518 78.9247 596.079 79.69C595.64 80.446 595.038 81.0387 594.273 81.468C593.517 81.888 592.682 82.098 591.767 82.098ZM591.767 80.712C592.411 80.712 592.985 80.5673 593.489 80.278C593.993 79.9793 594.385 79.5593 594.665 79.018C594.954 78.4673 595.099 77.8327 595.099 77.114C595.099 76.3953 594.954 75.7653 594.665 75.224C594.385 74.6827 593.993 74.2673 593.489 73.978C592.985 73.6887 592.411 73.544 591.767 73.544C591.123 73.544 590.549 73.6887 590.045 73.978C589.541 74.2673 589.144 74.6827 588.855 75.224C588.575 75.7653 588.435 76.3953 588.435 77.114C588.435 77.8327 588.575 78.4673 588.855 79.018C589.144 79.5593 589.541 79.9793 590.045 80.278C590.549 80.5673 591.123 80.712 591.767 80.712ZM608.654 72.27V82H607.058V75.336L604.09 82H602.984L600.002 75.336V82H598.406V72.27H600.128L603.544 79.9L606.946 72.27H608.654ZM617.653 75.168C617.653 75.6627 617.537 76.1293 617.303 76.568C617.07 77.0067 616.697 77.366 616.183 77.646C615.67 77.9167 615.012 78.052 614.209 78.052H612.445V82H610.849V72.27H614.209C614.956 72.27 615.586 72.4007 616.099 72.662C616.622 72.914 617.009 73.2593 617.261 73.698C617.523 74.1367 617.653 74.6267 617.653 75.168ZM614.209 76.75C614.816 76.75 615.269 76.6147 615.567 76.344C615.866 76.064 616.015 75.672 616.015 75.168C616.015 74.104 615.413 73.572 614.209 73.572H612.445V76.75H614.209ZM620.869 80.712H624.159V82H619.273V72.27H620.869V80.712ZM627.188 72.27V82H625.592V72.27H627.188ZM635.248 80.012H631.174L630.474 82H628.808L632.294 72.256H634.142L637.628 82H635.948L635.248 80.012ZM634.8 78.71L633.218 74.188L631.622 78.71H634.8ZM647.235 82H645.639L640.837 74.734V82H639.241V72.256H640.837L645.639 79.508V72.256H647.235V82ZM648.897 77.114C648.897 76.162 649.116 75.308 649.555 74.552C650.003 73.796 650.605 73.208 651.361 72.788C652.126 72.3587 652.962 72.144 653.867 72.144C654.903 72.144 655.822 72.4007 656.625 72.914C657.437 73.418 658.025 74.1367 658.389 75.07H656.471C656.219 74.5567 655.869 74.174 655.421 73.922C654.973 73.67 654.455 73.544 653.867 73.544C653.223 73.544 652.649 73.6887 652.145 73.978C651.641 74.2673 651.244 74.6827 650.955 75.224C650.675 75.7653 650.535 76.3953 650.535 77.114C650.535 77.8327 650.675 78.4627 650.955 79.004C651.244 79.5453 651.641 79.9653 652.145 80.264C652.649 80.5533 653.223 80.698 653.867 80.698C654.455 80.698 654.973 80.572 655.421 80.32C655.869 80.068 656.219 79.6853 656.471 79.172H658.389C658.025 80.1053 657.437 80.824 656.625 81.328C655.822 81.832 654.903 82.084 653.867 82.084C652.952 82.084 652.117 81.874 651.361 81.454C650.605 81.0247 650.003 80.432 649.555 79.676C649.116 78.92 648.897 78.066 648.897 77.114ZM661.951 73.558V76.414H665.311V77.716H661.951V80.698H665.731V82H660.355V72.256H665.731V73.558H661.951Z" fill="white"/>
<rect x="752" y="51" width="200" height="50" rx="25" fill="#101C2B"/>
<path d="M813.797 74.168C813.797 74.6627 813.68 75.1293 813.447 75.568C813.213 76.0067 812.84 76.366 812.327 76.646C811.813 76.9167 811.155 77.052 810.353 77.052H808.589V81H806.993V71.27H810.353C811.099 71.27 811.729 71.4007 812.243 71.662C812.765 71.914 813.153 72.2593 813.405 72.698C813.666 73.1367 813.797 73.6267 813.797 74.168ZM810.353 75.75C810.959 75.75 811.412 75.6147 811.711 75.344C812.009 75.064 812.159 74.672 812.159 74.168C812.159 73.104 811.557 72.572 810.353 72.572H808.589V75.75H810.353ZM820.471 81L818.231 77.108H817.013V81H815.417V71.27H818.777C819.524 71.27 820.154 71.4007 820.667 71.662C821.19 71.9233 821.577 72.2733 821.829 72.712C822.09 73.1507 822.221 73.6407 822.221 74.182C822.221 74.8167 822.034 75.3953 821.661 75.918C821.297 76.4313 820.732 76.7813 819.967 76.968L822.375 81H820.471ZM817.013 75.834H818.777C819.374 75.834 819.822 75.6847 820.121 75.386C820.429 75.0873 820.583 74.686 820.583 74.182C820.583 73.678 820.434 73.286 820.135 73.006C819.836 72.7167 819.384 72.572 818.777 72.572H817.013V75.834ZM828.799 81.098C827.893 81.098 827.058 80.888 826.293 80.468C825.537 80.0387 824.935 79.446 824.487 78.69C824.048 77.9247 823.829 77.066 823.829 76.114C823.829 75.162 824.048 74.308 824.487 73.552C824.935 72.796 825.537 72.208 826.293 71.788C827.058 71.3587 827.893 71.144 828.799 71.144C829.713 71.144 830.549 71.3587 831.305 71.788C832.07 72.208 832.672 72.796 833.111 73.552C833.549 74.308 833.769 75.162 833.769 76.114C833.769 77.066 833.549 77.9247 833.111 78.69C832.672 79.446 832.07 80.0387 831.305 80.468C830.549 80.888 829.713 81.098 828.799 81.098ZM828.799 79.712C829.443 79.712 830.017 79.5673 830.521 79.278C831.025 78.9793 831.417 78.5593 831.697 78.018C831.986 77.4673 832.131 76.8327 832.131 76.114C832.131 75.3953 831.986 74.7653 831.697 74.224C831.417 73.6827 831.025 73.2673 830.521 72.978C830.017 72.6887 829.443 72.544 828.799 72.544C828.155 72.544 827.581 72.6887 827.077 72.978C826.573 73.2673 826.176 73.6827 825.887 74.224C825.607 74.7653 825.467 75.3953 825.467 76.114C825.467 76.8327 825.607 77.4673 825.887 78.018C826.176 78.5593 826.573 78.9793 827.077 79.278C827.581 79.5673 828.155 79.712 828.799 79.712ZM838.615 71.27C839.651 71.27 840.557 71.4707 841.331 71.872C842.115 72.264 842.717 72.8333 843.137 73.58C843.567 74.3173 843.781 75.1807 843.781 76.17C843.781 77.1593 843.567 78.018 843.137 78.746C842.717 79.474 842.115 80.034 841.331 80.426C840.557 80.8087 839.651 81 838.615 81H835.437V71.27H838.615ZM838.615 79.698C839.754 79.698 840.627 79.39 841.233 78.774C841.84 78.158 842.143 77.29 842.143 76.17C842.143 75.0407 841.84 74.1587 841.233 73.524C840.627 72.8893 839.754 72.572 838.615 72.572H837.033V79.698H838.615ZM847.043 71.27V77.472C847.043 78.2093 847.234 78.7647 847.617 79.138C848.009 79.5113 848.55 79.698 849.241 79.698C849.941 79.698 850.482 79.5113 850.865 79.138C851.257 78.7647 851.453 78.2093 851.453 77.472V71.27H853.049V77.444C853.049 78.2373 852.876 78.9093 852.531 79.46C852.186 80.0107 851.724 80.4213 851.145 80.692C850.566 80.9627 849.927 81.098 849.227 81.098C848.527 81.098 847.888 80.9627 847.309 80.692C846.74 80.4213 846.287 80.0107 845.951 79.46C845.615 78.9093 845.447 78.2373 845.447 77.444V71.27H847.043ZM854.693 76.114C854.693 75.162 854.912 74.308 855.351 73.552C855.799 72.796 856.401 72.208 857.157 71.788C857.922 71.3587 858.758 71.144 859.663 71.144C860.699 71.144 861.618 71.4007 862.421 71.914C863.233 72.418 863.821 73.1367 864.185 74.07H862.267C862.015 73.5567 861.665 73.174 861.217 72.922C860.769 72.67 860.251 72.544 859.663 72.544C859.019 72.544 858.445 72.6887 857.941 72.978C857.437 73.2673 857.04 73.6827 856.751 74.224C856.471 74.7653 856.331 75.3953 856.331 76.114C856.331 76.8327 856.471 77.4627 856.751 78.004C857.04 78.5453 857.437 78.9653 857.941 79.264C858.445 79.5533 859.019 79.698 859.663 79.698C860.251 79.698 860.769 79.572 861.217 79.32C861.665 79.068 862.015 78.6853 862.267 78.172H864.185C863.821 79.1053 863.233 79.824 862.421 80.328C861.618 80.832 860.699 81.084 859.663 81.084C858.748 81.084 857.913 80.874 857.157 80.454C856.401 80.0247 855.799 79.432 855.351 78.676C854.912 77.92 854.693 77.066 854.693 76.114ZM872.437 71.27V72.572H869.847V81H868.251V72.572H865.647V71.27H872.437ZM875.747 71.27V81H874.151V71.27H875.747ZM882.379 81.098C881.474 81.098 880.638 80.888 879.873 80.468C879.117 80.0387 878.515 79.446 878.067 78.69C877.628 77.9247 877.409 77.066 877.409 76.114C877.409 75.162 877.628 74.308 878.067 73.552C878.515 72.796 879.117 72.208 879.873 71.788C880.638 71.3587 881.474 71.144 882.379 71.144C883.294 71.144 884.129 71.3587 884.885 71.788C885.65 72.208 886.252 72.796 886.691 73.552C887.13 74.308 887.349 75.162 887.349 76.114C887.349 77.066 887.13 77.9247 886.691 78.69C886.252 79.446 885.65 80.0387 884.885 80.468C884.129 80.888 883.294 81.098 882.379 81.098ZM882.379 79.712C883.023 79.712 883.597 79.5673 884.101 79.278C884.605 78.9793 884.997 78.5593 885.277 78.018C885.566 77.4673 885.711 76.8327 885.711 76.114C885.711 75.3953 885.566 74.7653 885.277 74.224C884.997 73.6827 884.605 73.2673 884.101 72.978C883.597 72.6887 883.023 72.544 882.379 72.544C881.735 72.544 881.161 72.6887 880.657 72.978C880.153 73.2673 879.756 73.6827 879.467 74.224C879.187 74.7653 879.047 75.3953 879.047 76.114C879.047 76.8327 879.187 77.4673 879.467 78.018C879.756 78.5593 880.153 78.9793 880.657 79.278C881.161 79.5673 881.735 79.712 882.379 79.712ZM897.011 81H895.415L890.613 73.734V81H889.017V71.256H890.613L895.415 78.508V71.256H897.011V81Z" fill="white"/>
<path d="M956 74.5C955.172 74.5 954.5 75.1716 954.5 76C954.5 76.8284 955.172 77.5 956 77.5V76V74.5ZM287.061 77.0607C287.646 76.4749 287.646 75.5251 287.061 74.9393L277.515 65.3934C276.929 64.8076 275.979 64.8076 275.393 65.3934C274.808 65.9792 274.808 66.9289 275.393 67.5147L283.879 76L275.393 84.4853C274.808 85.0711 274.808 86.0208 275.393 86.6066C275.979 87.1924 276.929 87.1924 277.515 86.6066L287.061 77.0607ZM956 76V77.5H980V76V74.5H956V76ZM1004 100H1002.5V224H1004H1005.5V100H1004ZM980 248V246.5H257V248V249.5H980V248ZM233 224H234.5V100H233H231.5V224H233ZM257 76V77.5H286V76V74.5H257V76ZM233 100H234.5C234.5 87.5736 244.574 77.5 257 77.5V76V74.5C242.917 74.5 231.5 85.9167 231.5 100H233ZM257 248V246.5C244.574 246.5 234.5 236.426 234.5 224H233H231.5C231.5 238.083 242.917 249.5 257 249.5V248ZM1004 224H1002.5C1002.5 236.426 992.426 246.5 980 246.5V248V249.5C994.083 249.5 1005.5 238.083 1005.5 224H1004ZM980 76V77.5C992.426 77.5 1002.5 87.5736 1002.5 100H1004H1005.5C1005.5 85.9167 994.083 74.5 980 74.5V76Z" fill="#4EAC78"/>
<path d="M725 74.5C724.172 74.5 723.5 75.1716 723.5 76C723.5 76.8284 724.172 77.5 725 77.5V76V74.5ZM749.061 77.0607C749.646 76.4749 749.646 75.5251 749.061 74.9393L739.515 65.3934C738.929 64.8076 737.979 64.8076 737.393 65.3934C736.808 65.9792 736.808 66.9289 737.393 67.5147L745.879 76L737.393 84.4853C736.808 85.0711 736.808 86.0208 737.393 86.6066C737.979 87.1924 738.929 87.1924 739.515 86.6066L749.061 77.0607ZM725 76V77.5H748V76V74.5H725V76Z" fill="#4EAC78"/>
<path d="M494 74.5C493.172 74.5 492.5 75.1716 492.5 76C492.5 76.8284 493.172 77.5 494 77.5V76V74.5ZM518.061 77.0607C518.646 76.4749 518.646 75.5251 518.061 74.9393L508.515 65.3934C507.929 64.8076 506.979 64.8076 506.393 65.3934C505.808 65.9792 505.808 66.9289 506.393 67.5147L514.879 76L506.393 84.4853C505.808 85.0711 505.808 86.0208 506.393 86.6066C506.979 87.1924 507.929 87.1924 508.515 86.6066L518.061 77.0607ZM494 76V77.5H517V76V74.5H494V76Z" fill="#4EAC78"/>
<mask id="path-12-inside-1_2161_7900" fill="white">
<path d="M621.5 156C635.595 156 647.21 166.604 648.81 180.27C648.933 180.827 649 181.406 649 182V189C649 193.418 645.418 197 641 197H602C597.582 197 594 193.418 594 189V182C594 181.406 594.067 180.827 594.189 180.27C595.789 166.604 607.405 156 621.5 156Z"/>
</mask>
<path d="M621.5 156C635.595 156 647.21 166.604 648.81 180.27C648.933 180.827 649 181.406 649 182V189C649 193.418 645.418 197 641 197H602C597.582 197 594 193.418 594 189V182C594 181.406 594.067 180.827 594.189 180.27C595.789 166.604 607.405 156 621.5 156Z" fill="#1E55CD"/>
<path d="M648.81 180.27L644.837 180.734L644.86 180.934L644.903 181.131L648.81 180.27ZM649 182L653 182L649 182ZM594 189L590 189L594 189ZM594.189 180.27L598.096 181.131L598.139 180.934L598.162 180.734L594.189 180.27ZM621.5 156V160C633.541 160 643.471 169.06 644.837 180.734L648.81 180.27L652.782 179.805C650.95 164.148 637.648 152 621.5 152V156ZM648.81 180.27L644.903 181.131C644.967 181.42 645 181.71 645 182L649 182L653 182C653 181.102 652.898 180.234 652.716 179.408L648.81 180.27ZM649 182H645V189H649H653V182H649ZM649 189H645C645 191.209 643.209 193 641 193V197V201C647.627 201 653 195.627 653 189H649ZM641 197V193H602V197V201H641V197ZM602 197V193C599.791 193 598 191.209 598 189L594 189L590 189C590 195.627 595.373 201 602 201V197ZM594 189H598V182H594H590V189H594ZM594 182H598C598 181.705 598.033 181.415 598.096 181.131L594.189 180.27L590.283 179.408C590.1 180.238 590 181.106 590 182H594ZM594.189 180.27L598.162 180.734C599.528 169.061 609.458 160 621.5 160V156V152C605.352 152 592.049 164.148 590.217 179.805L594.189 180.27Z" fill="#101C2B" mask="url(#path-12-inside-1_2161_7900)"/>
<circle cx="578" cy="137" r="13" fill="#E5BE65" stroke="#101C2B" stroke-width="4"/>
<circle cx="621" cy="137" r="13" fill="#1E55CD" stroke="#101C2B" stroke-width="4"/>
<circle cx="663" cy="137" r="13" fill="#4EAC78" stroke="#101C2B" stroke-width="4"/>
<mask id="path-17-inside-2_2161_7900" fill="white">
<path d="M578.5 156C585.871 156 592.562 158.901 597.499 163.622C597.453 163.666 597.406 163.71 597.36 163.755C597.301 163.813 597.242 163.87 597.183 163.929C597.097 164.013 597.013 164.097 596.929 164.183C596.866 164.246 596.804 164.31 596.742 164.374C596.642 164.477 596.543 164.581 596.445 164.686C596.417 164.716 596.388 164.747 596.359 164.777C596.248 164.897 596.138 165.016 596.029 165.138C595.993 165.179 595.956 165.22 595.92 165.261C595.82 165.373 595.72 165.486 595.622 165.601C595.581 165.649 595.54 165.698 595.499 165.747C595.404 165.86 595.308 165.973 595.215 166.087C595.19 166.117 595.167 166.147 595.143 166.177C594.277 167.243 593.489 168.376 592.788 169.565C592.769 169.598 592.749 169.631 592.729 169.664C592.654 169.793 592.58 169.923 592.507 170.054C592.472 170.116 592.438 170.179 592.403 170.241C592.332 170.37 592.262 170.5 592.193 170.63C592.167 170.679 592.14 170.729 592.114 170.778C592.044 170.912 591.975 171.047 591.907 171.183C591.88 171.237 591.853 171.291 591.826 171.346C591.757 171.485 591.69 171.626 591.623 171.767C591.602 171.812 591.581 171.857 591.56 171.902C590.533 174.106 589.79 176.469 589.377 178.943C589.372 178.976 589.367 179.008 589.361 179.04C589.295 179.445 589.238 179.853 589.189 180.264C589.189 180.266 589.19 180.268 589.189 180.27C589.067 180.827 589 181.406 589 182V197H559C554.582 197 551 193.418 551 189V182C551 181.406 551.067 180.827 551.189 180.27C552.789 166.604 564.405 156 578.5 156Z"/>
</mask>
<path d="M578.5 156C585.871 156 592.562 158.901 597.499 163.622C597.453 163.666 597.406 163.71 597.36 163.755C597.301 163.813 597.242 163.87 597.183 163.929C597.097 164.013 597.013 164.097 596.929 164.183C596.866 164.246 596.804 164.31 596.742 164.374C596.642 164.477 596.543 164.581 596.445 164.686C596.417 164.716 596.388 164.747 596.359 164.777C596.248 164.897 596.138 165.016 596.029 165.138C595.993 165.179 595.956 165.22 595.92 165.261C595.82 165.373 595.72 165.486 595.622 165.601C595.581 165.649 595.54 165.698 595.499 165.747C595.404 165.86 595.308 165.973 595.215 166.087C595.19 166.117 595.167 166.147 595.143 166.177C594.277 167.243 593.489 168.376 592.788 169.565C592.769 169.598 592.749 169.631 592.729 169.664C592.654 169.793 592.58 169.923 592.507 170.054C592.472 170.116 592.438 170.179 592.403 170.241C592.332 170.37 592.262 170.5 592.193 170.63C592.167 170.679 592.14 170.729 592.114 170.778C592.044 170.912 591.975 171.047 591.907 171.183C591.88 171.237 591.853 171.291 591.826 171.346C591.757 171.485 591.69 171.626 591.623 171.767C591.602 171.812 591.581 171.857 591.56 171.902C590.533 174.106 589.79 176.469 589.377 178.943C589.372 178.976 589.367 179.008 589.361 179.04C589.295 179.445 589.238 179.853 589.189 180.264C589.189 180.266 589.19 180.268 589.189 180.27C589.067 180.827 589 181.406 589 182V197H559C554.582 197 551 193.418 551 189V182C551 181.406 551.067 180.827 551.189 180.27C552.789 166.604 564.405 156 578.5 156Z" fill="#E5BE65"/>
<path d="M597.499 163.622L600.262 166.514L603.288 163.623L600.264 160.731L597.499 163.622ZM597.36 163.755L594.576 160.883L594.576 160.883L597.36 163.755ZM597.183 163.929L599.993 166.775L599.993 166.775L597.183 163.929ZM596.929 164.183L594.082 161.373L594.082 161.373L596.929 164.183ZM596.742 164.374L599.616 167.156L599.616 167.156L596.742 164.374ZM596.445 164.686L593.529 161.948L593.528 161.948L596.445 164.686ZM596.359 164.777L599.288 167.501L599.289 167.501L596.359 164.777ZM596.029 165.138L593.053 162.466L593.052 162.466L596.029 165.138ZM595.92 165.261L598.912 167.915L598.913 167.915L595.92 165.261ZM595.622 165.601L592.587 162.996L592.586 162.996L595.622 165.601ZM595.499 165.747L598.553 168.331L598.553 168.331L595.499 165.747ZM595.215 166.087L592.12 163.552L592.12 163.553L595.215 166.087ZM595.143 166.177L598.248 168.698L598.248 168.698L595.143 166.177ZM592.788 169.565L589.341 167.536L589.341 167.536L592.788 169.565ZM592.729 169.664L596.185 171.68L596.185 171.679L592.729 169.664ZM592.507 170.054L589.019 168.095L589.019 168.095L592.507 170.054ZM592.403 170.241L595.906 172.173L595.906 172.172L592.403 170.241ZM592.193 170.63L588.66 168.755L588.66 168.755L592.193 170.63ZM592.114 170.778L595.659 172.631L595.659 172.631L592.114 170.778ZM591.907 171.183L588.332 169.389L588.332 169.389L591.907 171.183ZM591.826 171.346L595.413 173.116L595.413 173.116L591.826 171.346ZM591.623 171.767L588.006 170.058L588.006 170.058L591.623 171.767ZM591.56 171.902L595.185 173.591L595.186 173.591L591.56 171.902ZM589.377 178.943L585.431 178.285L585.431 178.285L589.377 178.943ZM589.361 179.04L593.309 179.684L593.309 179.684L589.361 179.04ZM589.189 180.264L585.217 179.798L585.217 179.798L589.189 180.264ZM589.189 180.27L593.096 181.131L593.139 180.934L593.162 180.734L589.189 180.27ZM589 182L585 182V182H589ZM589 197V201H593V197H589ZM551 189L547 189L551 189ZM551.189 180.27L555.096 181.131L555.139 180.934L555.162 180.734L551.189 180.27ZM578.5 156V160C584.8 160 590.512 162.475 594.735 166.513L597.499 163.622L600.264 160.731C594.613 155.327 586.942 152 578.5 152V156ZM597.499 163.622L594.736 160.73C594.704 160.761 594.636 160.825 594.576 160.883L597.36 163.755L600.145 166.627C600.177 166.596 600.202 166.572 600.262 166.514L597.499 163.622ZM597.36 163.755L594.576 160.883C594.509 160.948 594.441 161.014 594.372 161.082L597.183 163.929L599.993 166.775C600.042 166.727 600.093 166.677 600.145 166.627L597.36 163.755ZM597.183 163.929L594.373 161.082C594.275 161.178 594.178 161.275 594.082 161.373L596.929 164.183L599.775 166.993C599.847 166.92 599.92 166.847 599.993 166.775L597.183 163.929ZM596.929 164.183L594.082 161.373C594.004 161.452 593.929 161.529 593.868 161.592L596.742 164.374L599.616 167.156C599.68 167.091 599.729 167.04 599.776 166.992L596.929 164.183ZM596.742 164.374L593.868 161.592C593.753 161.71 593.64 161.829 593.529 161.948L596.445 164.686L599.362 167.423C599.447 167.333 599.531 167.244 599.616 167.156L596.742 164.374ZM596.445 164.686L593.528 161.948C593.504 161.975 593.467 162.014 593.43 162.053L596.359 164.777L599.289 167.501C599.309 167.479 599.33 167.457 599.362 167.423L596.445 164.686ZM596.359 164.777L593.43 162.053C593.311 162.182 593.183 162.32 593.053 162.466L596.029 165.138L599.006 167.81C599.093 167.713 599.186 167.612 599.288 167.501L596.359 164.777ZM596.029 165.138L593.052 162.466C593.005 162.519 592.955 162.575 592.927 162.607L595.92 165.261L598.913 167.915C598.958 167.864 598.98 167.838 599.006 167.809L596.029 165.138ZM595.92 165.261L592.927 162.607C592.828 162.719 592.708 162.854 592.587 162.996L595.622 165.601L598.658 168.205C598.732 168.119 598.812 168.028 598.912 167.915L595.92 165.261ZM595.622 165.601L592.586 162.996C592.546 163.043 592.51 163.086 592.489 163.112C592.462 163.144 592.454 163.153 592.445 163.163L595.499 165.747L598.553 168.331C598.585 168.292 598.618 168.253 598.632 168.236C598.641 168.225 598.647 168.218 598.652 168.212C598.656 168.207 598.658 168.205 598.658 168.205L595.622 165.601ZM595.499 165.747L592.446 163.163C592.35 163.276 592.236 163.411 592.12 163.552L595.215 166.087L598.309 168.621C598.381 168.534 598.457 168.443 598.553 168.331L595.499 165.747ZM595.215 166.087L592.12 163.553C592.091 163.588 592.065 163.62 592.053 163.635C592.037 163.656 592.037 163.656 592.037 163.655L595.143 166.177L598.248 168.698C598.261 168.682 598.273 168.667 598.282 168.655C598.291 168.645 598.3 168.634 598.304 168.628C598.316 168.613 598.314 168.615 598.31 168.621L595.215 166.087ZM595.143 166.177L592.038 163.655C591.046 164.876 590.144 166.172 589.341 167.536L592.788 169.565L596.235 171.595C596.834 170.579 597.507 169.611 598.248 168.698L595.143 166.177ZM592.788 169.565L589.341 167.536C589.342 167.535 589.341 167.536 589.338 167.541C589.335 167.546 589.332 167.551 589.326 167.562C589.316 167.578 589.296 167.611 589.274 167.649L592.729 169.664L596.185 171.679C596.182 171.684 596.182 171.684 596.192 171.668C596.195 171.662 596.202 171.65 596.209 171.639C596.216 171.627 596.225 171.612 596.235 171.595L592.788 169.565ZM592.729 169.664L589.274 167.649C589.185 167.801 589.1 167.951 589.019 168.095L592.507 170.054L595.994 172.012C596.06 171.895 596.123 171.785 596.185 171.68L592.729 169.664ZM592.507 170.054L589.019 168.095C588.974 168.175 588.919 168.276 588.9 168.31L592.403 170.241L595.906 172.172C595.957 172.081 595.969 172.057 595.995 172.012L592.507 170.054ZM592.403 170.241L588.901 168.31C588.817 168.461 588.737 168.61 588.66 168.755L592.193 170.63L595.727 172.505C595.788 172.389 595.848 172.279 595.906 172.173L592.403 170.241ZM592.193 170.63L588.66 168.755C588.652 168.77 588.645 168.782 588.628 168.814C588.614 168.841 588.592 168.881 588.569 168.925L592.114 170.778L595.659 172.631C595.685 172.582 595.664 172.624 595.727 172.504L592.193 170.63ZM592.114 170.778L588.569 168.925C588.489 169.08 588.41 169.234 588.332 169.389L591.907 171.183L595.482 172.977C595.541 172.86 595.6 172.745 595.659 172.631L592.114 170.778ZM591.907 171.183L588.332 169.389C588.299 169.454 588.268 169.517 588.239 169.576L591.826 171.346L595.413 173.116C595.438 173.065 595.461 173.02 595.482 172.976L591.907 171.183ZM591.826 171.346L588.239 169.575C588.159 169.738 588.082 169.898 588.006 170.058L591.623 171.767L595.24 173.475C595.298 173.353 595.355 173.233 595.413 173.116L591.826 171.346ZM591.623 171.767L588.006 170.058C587.979 170.116 587.952 170.173 587.934 170.214L591.56 171.902L595.186 173.591C595.209 173.541 595.224 173.508 595.24 173.475L591.623 171.767ZM591.56 171.902L587.934 170.213C586.757 172.74 585.905 175.449 585.431 178.285L589.377 178.943L593.322 179.601C593.675 177.489 594.309 175.473 595.185 173.591L591.56 171.902ZM589.377 178.943L585.431 178.285C585.426 178.315 585.422 178.343 585.419 178.36C585.416 178.381 585.415 178.388 585.413 178.396L589.361 179.04L593.309 179.684C593.323 179.597 593.316 179.638 593.322 179.601L589.377 178.943ZM589.361 179.04L585.413 178.396C585.338 178.857 585.272 179.325 585.217 179.798L589.189 180.264L593.162 180.729C593.203 180.381 593.252 180.033 593.309 179.684L589.361 179.04ZM589.189 180.264L585.217 179.798C585.203 179.914 585.196 180.018 585.193 180.105C585.191 180.148 585.19 180.189 585.19 180.225C585.189 180.261 585.189 180.294 585.19 180.323C585.19 180.351 585.191 180.377 585.192 180.398C585.192 180.42 585.193 180.438 585.194 180.452C585.194 180.466 585.195 180.478 585.195 180.485C585.196 180.488 585.196 180.491 585.196 180.493C585.196 180.494 585.196 180.495 585.196 180.495C585.196 180.495 585.196 180.495 585.196 180.496C585.196 180.496 585.196 180.496 585.196 180.496C585.196 180.496 585.196 180.495 585.196 180.493C585.196 180.492 585.196 180.489 585.195 180.486C585.195 180.479 585.194 180.468 585.194 180.454C585.193 180.44 585.192 180.422 585.192 180.401C585.191 180.38 585.19 180.354 585.19 180.326C585.19 180.297 585.189 180.265 585.19 180.229C585.19 180.193 585.191 180.153 585.193 180.11C585.196 180.023 585.203 179.92 585.217 179.805L589.189 180.27L593.162 180.734C593.176 180.618 593.183 180.515 593.186 180.428C593.188 180.384 593.189 180.344 593.189 180.308C593.19 180.272 593.19 180.239 593.189 180.21C593.189 180.181 593.188 180.156 593.187 180.135C593.187 180.113 593.186 180.095 593.185 180.081C593.184 180.067 593.184 180.055 593.183 180.048C593.183 180.045 593.183 180.042 593.183 180.04C593.183 180.039 593.183 180.039 593.183 180.038C593.183 180.038 593.183 180.038 593.183 180.038C593.183 180.038 593.183 180.038 593.183 180.038C593.183 180.037 593.183 180.037 593.183 180.037C593.183 180.037 593.183 180.038 593.183 180.04C593.183 180.042 593.183 180.044 593.183 180.048C593.184 180.054 593.184 180.066 593.185 180.079C593.186 180.093 593.186 180.111 593.187 180.133C593.188 180.154 593.189 180.179 593.189 180.208C593.189 180.236 593.19 180.269 593.189 180.305C593.189 180.341 593.188 180.381 593.186 180.424C593.183 180.511 593.176 180.614 593.162 180.729L589.189 180.264ZM589.189 180.27L585.283 179.408C585.1 180.238 585 181.106 585 182L589 182L593 182C593 181.705 593.033 181.415 593.096 181.131L589.189 180.27ZM589 182H585V197H589H593V182H589ZM589 197V193H559V197V201H589V197ZM559 197V193C556.791 193 555 191.209 555 189L551 189L547 189C547 195.627 552.373 201 559 201V197ZM551 189H555V182H551H547V189H551ZM551 182H555C555 181.705 555.033 181.415 555.096 181.131L551.189 180.27L547.283 179.408C547.1 180.238 547 181.106 547 182H551ZM551.189 180.27L555.162 180.734C556.528 169.061 566.458 160 578.5 160V156V152C562.352 152 549.049 164.148 547.217 179.805L551.189 180.27Z" fill="#101C2B" mask="url(#path-17-inside-2_2161_7900)"/>
<mask id="path-19-inside-3_2161_7900" fill="white">
<path d="M663.5 156C677.595 156 689.21 166.604 690.81 180.27C690.933 180.827 691 181.406 691 182V189C691 193.418 687.418 197 683 197H654V182C654 181.409 653.933 180.834 653.812 180.28C653.142 174.541 650.706 169.341 647.061 165.239C647.031 165.206 647.001 165.173 646.972 165.14C646.725 164.865 646.474 164.596 646.217 164.332C646.182 164.296 646.147 164.261 646.112 164.226C646 164.112 645.887 163.999 645.773 163.887C645.745 163.859 645.716 163.831 645.688 163.803C645.566 163.684 645.444 163.566 645.32 163.45C645.292 163.424 645.264 163.398 645.235 163.372C645.157 163.299 645.079 163.227 645 163.155C649.885 158.71 656.375 156 663.5 156Z"/>
</mask>
<path d="M663.5 156C677.595 156 689.21 166.604 690.81 180.27C690.933 180.827 691 181.406 691 182V189C691 193.418 687.418 197 683 197H654V182C654 181.409 653.933 180.834 653.812 180.28C653.142 174.541 650.706 169.341 647.061 165.239C647.031 165.206 647.001 165.173 646.972 165.14C646.725 164.865 646.474 164.596 646.217 164.332C646.182 164.296 646.147 164.261 646.112 164.226C646 164.112 645.887 163.999 645.773 163.887C645.745 163.859 645.716 163.831 645.688 163.803C645.566 163.684 645.444 163.566 645.32 163.45C645.292 163.424 645.264 163.398 645.235 163.372C645.157 163.299 645.079 163.227 645 163.155C649.885 158.71 656.375 156 663.5 156Z" fill="#4EAC78"/>
<path d="M690.81 180.27L686.837 180.734L686.86 180.934L686.903 181.131L690.81 180.27ZM691 182L695 182L691 182ZM654 197H650V201H654V197ZM654 182L658 182V182L654 182ZM653.812 180.28L649.838 180.744L649.862 180.942L649.904 181.137L653.812 180.28ZM647.061 165.239L644.07 167.896L644.071 167.897L647.061 165.239ZM646.972 165.14L649.949 162.468L649.949 162.468L646.972 165.14ZM646.217 164.332L643.349 167.12L643.349 167.121L646.217 164.332ZM646.112 164.226L648.965 161.422L648.965 161.422L646.112 164.226ZM645.773 163.887L642.969 166.739L642.97 166.74L645.773 163.887ZM645.688 163.803L648.479 160.938L648.479 160.938L645.688 163.803ZM645.32 163.45L642.582 166.366L642.582 166.366L645.32 163.45ZM645.235 163.372L647.962 160.445L647.961 160.445L645.235 163.372ZM645 163.155L642.308 160.197L639.062 163.151L642.303 166.11L645 163.155ZM663.5 156V160C675.541 160 685.471 169.06 686.837 180.734L690.81 180.27L694.782 179.805C692.95 164.148 679.648 152 663.5 152V156ZM690.81 180.27L686.903 181.131C686.967 181.42 687 181.71 687 182L691 182L695 182C695 181.102 694.898 180.234 694.716 179.408L690.81 180.27ZM691 182H687V189H691H695V182H691ZM691 189H687C687 191.209 685.209 193 683 193V197V201C689.627 201 695 195.627 695 189H691ZM683 197V193H654V197V201H683V197ZM654 197H658V182H654H650V197H654ZM654 182L658 182C658 181.106 657.898 180.243 657.719 179.424L653.812 180.28L649.904 181.137C649.968 181.425 650 181.713 650 182L654 182ZM653.812 180.28L657.785 179.817C657.017 173.236 654.223 167.277 650.05 162.582L647.061 165.239L644.071 167.897C647.189 171.405 649.267 175.845 649.838 180.744L653.812 180.28ZM647.061 165.239L650.051 162.582C650.019 162.547 649.985 162.508 649.949 162.468L646.972 165.14L643.994 167.811C644.018 167.837 644.043 167.865 644.07 167.896L647.061 165.239ZM646.972 165.14L649.949 162.468C649.665 162.152 649.377 161.844 649.085 161.544L646.217 164.332L643.349 167.121C643.57 167.348 643.786 167.578 643.995 167.811L646.972 165.14ZM646.217 164.332L649.085 161.544C649.04 161.498 648.986 161.443 648.965 161.422L646.112 164.226L643.259 167.029C643.309 167.08 643.324 167.095 643.349 167.12L646.217 164.332ZM646.112 164.226L648.965 161.422C648.837 161.291 648.708 161.162 648.577 161.034L645.773 163.887L642.97 166.74C643.067 166.835 643.164 166.932 643.26 167.029L646.112 164.226ZM645.773 163.887L648.578 161.034C648.542 160.999 648.507 160.965 648.479 160.938L645.688 163.803L642.896 166.667C642.926 166.697 642.948 166.718 642.969 166.739L645.773 163.887ZM645.688 163.803L648.479 160.938C648.352 160.814 648.209 160.676 648.058 160.534L645.32 163.45L642.582 166.366C642.679 166.457 642.78 166.554 642.896 166.668L645.688 163.803ZM645.32 163.45L648.059 160.535C648.021 160.499 647.986 160.468 647.973 160.455C647.953 160.437 647.957 160.44 647.962 160.445L645.235 163.372L642.509 166.299C642.527 166.316 642.543 166.331 642.555 166.342C642.566 166.352 642.578 166.362 642.583 166.367C642.598 166.381 642.592 166.375 642.582 166.366L645.32 163.45ZM645.235 163.372L647.961 160.445C647.871 160.361 647.782 160.279 647.697 160.201L645 163.155L642.303 166.11C642.375 166.175 642.443 166.238 642.509 166.299L645.235 163.372ZM645 163.155L647.692 166.114C651.869 162.312 657.41 160 663.5 160V156V152C655.341 152 647.9 155.108 642.308 160.197L645 163.155Z" fill="#101C2B" mask="url(#path-19-inside-3_2161_7900)"/>
</svg>
