<svg width="402" height="184" viewBox="0 0 402 184" fill="none" xmlns="http://www.w3.org/2000/svg">
<rect width="402" height="183.5" fill="#29B57D"/>
<path d="M241.233 81.2091C239.257 79.4523 236.231 79.6278 234.473 81.6019L194.581 126.374L194.577 126.37L193.312 127.778C173.992 148.524 141.406 150.145 120.114 131.214C109.677 121.934 103.481 109.124 102.667 95.1475C101.852 81.1712 106.521 67.7293 115.811 57.3024C126.15 45.6971 140.536 39.7807 154.985 39.7807C167.383 39.7807 179.83 44.1397 189.797 53.0033L196.162 45.8586C170.637 23.1583 131.382 25.4395 108.659 50.9434C97.6685 63.2786 92.1454 79.1752 93.1075 95.7019C94.0696 112.231 101.401 127.379 113.749 138.359C125.542 148.843 140.256 154 154.924 153.998C171.581 153.998 188.17 147.342 200.322 134.295L201.458 133.054L201.454 133.05L241.627 87.9609C243.385 85.9868 243.209 82.9639 241.233 81.2071V81.2091Z" fill="white"/>
<path d="M307.891 88.2961C306.929 71.7675 299.598 56.6187 287.25 45.6394C262.167 23.338 223.839 25.1506 200.954 49.4082L200.112 50.3573C199.984 50.473 199.86 50.5946 199.745 50.7262L159.372 96.039C157.614 98.0131 157.789 101.036 159.765 102.793C160.678 103.604 161.815 104.003 162.947 104.003C164.266 104.003 165.58 103.463 166.526 102.4L206.898 57.0873C206.924 57.0593 206.944 57.0274 206.968 56.9995L207.92 55.9726C218.174 45.103 232.093 39.5655 246.071 39.5655C258.469 39.5655 270.916 43.9245 280.883 52.7881C302.468 71.9808 304.398 105.138 285.186 126.702C265.974 148.263 232.783 150.191 211.2 131.001L204.833 138.145C216.625 148.63 231.34 153.785 246.007 153.785C263.094 153.785 280.112 146.784 292.338 133.063C303.328 120.725 308.851 104.831 307.889 88.3021L307.891 88.2961Z" fill="white"/>
<path d="M236.598 102.552L258.469 78.0168C259.309 77.0736 260.491 76.5033 261.752 76.4295C263.014 76.3557 264.253 76.7865 265.197 77.6279L274.914 86.2741C276.88 88.0229 277.054 91.0319 275.303 92.9961C273.553 94.9602 270.541 95.1337 268.575 93.3849L262.417 87.9073L243.716 108.887C241.965 110.851 238.953 111.024 236.987 109.276C235.021 107.527 234.847 104.518 236.598 102.554V102.552Z" fill="white"/>
<path d="M165.083 81.4445L143.212 105.979C142.372 106.922 141.19 107.493 139.928 107.567C138.667 107.64 137.427 107.21 136.483 106.368L126.766 97.7219C124.8 95.9731 124.626 92.9641 126.377 91C128.128 89.0358 131.14 88.8624 133.106 90.6111L139.264 96.0888L157.965 75.1094C159.715 73.1453 162.727 72.9718 164.693 74.7206C166.66 76.4693 166.833 79.4784 165.083 81.4425V81.4445Z" fill="white"/>
</svg>
