<svg width="1200" height="370" viewBox="0 0 1200 370" fill="none" xmlns="http://www.w3.org/2000/svg">
<rect width="1200" height="370" rx="4" fill="#F7F9FC"/>
<rect x="62" y="39" width="1076" height="294" rx="15" fill="#E6E7F2" stroke="#000E41" stroke-width="2" stroke-linecap="square"/>
<path d="M141.582 118.887C142.201 118.529 142.963 118.529 143.582 118.887L153.516 124.622C154.135 124.979 154.516 125.639 154.516 126.354V137.824C154.516 138.539 154.135 139.199 153.516 139.556L143.582 145.291C142.963 145.649 142.201 145.649 141.582 145.291L140.737 146.755L141.582 145.291L131.649 139.556C131.03 139.199 130.649 138.539 130.649 137.824V126.354C130.649 125.639 131.03 124.979 131.649 124.622L141.582 118.887Z" fill="#969BAC" stroke="#000E41" stroke-width="4"/>
<path d="M141.582 173.709C142.201 173.351 142.963 173.351 143.582 173.709L153.516 179.444C154.135 179.801 154.516 180.461 154.516 181.176V192.646C154.516 193.36 154.135 194.021 153.516 194.378L143.582 200.113C142.963 200.47 142.201 200.47 141.582 200.113L140.737 201.577L141.582 200.113L131.649 194.378C131.03 194.021 130.649 193.36 130.649 192.646V181.176C130.649 180.461 131.03 179.801 131.649 179.444L141.582 173.709Z" fill="#969BAC" stroke="#000E41" stroke-width="4"/>
<path d="M126.089 146.298C126.708 145.941 127.47 145.941 128.089 146.298L138.023 152.033C138.641 152.39 139.023 153.051 139.023 153.765V165.235C139.023 165.95 138.641 166.61 138.023 166.967L128.089 172.702C127.47 173.06 126.708 173.06 126.089 172.702L125.244 174.167L126.089 172.702L116.156 166.967C115.537 166.61 115.156 165.95 115.156 165.235V153.765C115.156 153.051 115.537 152.39 116.156 152.033L126.089 146.298Z" fill="#969BAC" stroke="#000E41" stroke-width="4"/>
<path d="M172.569 118.887C173.187 118.529 173.95 118.529 174.569 118.887L184.502 124.622C185.121 124.979 185.502 125.639 185.502 126.354V137.824C185.502 138.539 185.121 139.199 184.502 139.556L174.569 145.291C173.95 145.649 173.187 145.649 172.569 145.291L171.723 146.755L172.569 145.291L162.635 139.556C162.016 139.199 161.635 138.539 161.635 137.824V126.354C161.635 125.639 162.016 124.979 162.635 124.622L172.569 118.887Z" fill="#969BAC" stroke="#000E41" stroke-width="4"/>
<path d="M172.569 173.709C173.187 173.351 173.95 173.351 174.569 173.709L184.502 179.444C185.121 179.801 185.502 180.461 185.502 181.176V192.646C185.502 193.36 185.121 194.021 184.502 194.378L174.569 200.113C173.95 200.47 173.187 200.47 172.569 200.113L171.723 201.577L172.569 200.113L162.635 194.378C162.016 194.021 161.635 193.36 161.635 192.646V181.176C161.635 180.461 162.016 179.801 162.635 179.444L172.569 173.709Z" fill="#969BAC" stroke="#000E41" stroke-width="4"/>
<path d="M157.075 146.298C157.694 145.941 158.457 145.941 159.075 146.298L169.009 152.033C169.628 152.39 170.009 153.051 170.009 153.765V165.235C170.009 165.95 169.628 166.61 169.009 166.967L159.075 172.702C158.457 173.06 157.694 173.06 157.075 172.702L156.23 174.167L157.075 172.702L147.142 166.967C146.523 166.61 146.142 165.95 146.142 165.235V153.765C146.142 153.051 146.523 152.39 147.142 152.033L157.075 146.298Z" fill="#969BAC" stroke="#000E41" stroke-width="4"/>
<path d="M188.062 146.298C188.681 145.941 189.443 145.941 190.062 146.298L199.995 152.033C200.614 152.39 200.995 153.051 200.995 153.765V165.235C200.995 165.95 200.614 166.61 199.995 166.967L190.062 172.702C189.443 173.06 188.681 173.06 188.062 172.702L187.217 174.167L188.062 172.702L178.128 166.967C177.509 166.61 177.128 165.95 177.128 165.235V153.765C177.128 153.051 177.51 152.39 178.128 152.033L188.062 146.298Z" fill="#969BAC" stroke="#000E41" stroke-width="4"/>
<rect x="271" y="60" width="845" height="249" rx="15" fill="#F7F9FC" stroke="#000E41" stroke-width="2"/>
<path d="M1077.43 217H971.565C968.493 217 966 214.507 966 211.435V105.565C966 102.493 968.493 100 971.565 100H1077.43C1080.51 100 1083 102.493 1083 105.565V211.435C1083 214.507 1080.51 217 1077.43 217ZM971.565 103.71C970.545 103.71 969.71 104.545 969.71 105.565V211.435C969.71 212.455 970.545 213.29 971.565 213.29H1077.43C1078.45 213.29 1079.29 212.455 1079.29 211.435V105.565C1079.29 104.545 1078.45 103.71 1077.43 103.71H971.565Z" fill="#000E41"/>
<ellipse cx="1024" cy="158.5" rx="36" ry="40.5" fill="#29B57D"/>
<path d="M1042.1 135.542C1041.93 135.542 1041.76 135.511 1041.59 135.46C1041.43 135.409 1041.26 135.338 1041.1 135.259C1040.94 135.179 1040.78 135.091 1040.62 135.005C1040.47 134.919 1040.32 134.836 1040.17 134.766C1039.99 134.679 1039.8 134.593 1039.62 134.507C1039.43 134.422 1039.24 134.338 1039.06 134.255C1038.87 134.173 1038.68 134.091 1038.5 134.011C1038.31 133.931 1038.12 133.852 1037.93 133.774C1037.61 133.64 1037.28 133.511 1036.95 133.386C1036.62 133.26 1036.29 133.14 1035.96 133.023C1035.63 132.907 1035.29 132.796 1034.96 132.688C1034.62 132.582 1034.28 132.48 1033.95 132.384C1033.29 132.196 1032.62 132.028 1031.95 131.882C1031.29 131.735 1030.61 131.609 1029.94 131.503C1029.26 131.396 1028.58 131.309 1027.9 131.242C1027.22 131.175 1026.53 131.126 1025.85 131.097C1024.4 131.035 1022.95 131.052 1021.5 131.15C1020.06 131.247 1018.63 131.426 1017.21 131.686C1015.79 131.947 1014.38 132.29 1013.01 132.716C1011.63 133.143 1010.27 133.654 1008.95 134.25C1008.71 134.362 1008.43 134.517 1008.15 134.681C1007.86 134.845 1007.56 135.019 1007.25 135.165C1006.95 135.312 1006.64 135.432 1006.33 135.49C1006.03 135.548 1005.73 135.544 1005.44 135.443C1005.18 135.348 1004.96 135.192 1004.79 134.998C1004.63 134.804 1004.51 134.573 1004.46 134.329C1004.4 134.086 1004.41 133.83 1004.48 133.586C1004.55 133.342 1004.68 133.11 1004.88 132.915C1005 132.809 1005.12 132.716 1005.26 132.629C1005.39 132.543 1005.54 132.465 1005.69 132.392C1005.84 132.318 1005.99 132.25 1006.14 132.184C1006.29 132.117 1006.44 132.052 1006.57 131.986C1006.74 131.906 1006.9 131.827 1007.07 131.75C1007.24 131.672 1007.4 131.595 1007.57 131.52C1007.74 131.444 1007.9 131.37 1008.07 131.297C1008.24 131.224 1008.41 131.151 1008.58 131.081C1008.91 130.944 1009.23 130.812 1009.56 130.684C1009.89 130.556 1010.22 130.433 1010.56 130.314C1010.89 130.195 1011.23 130.08 1011.56 129.97C1011.9 129.861 1012.24 129.755 1012.58 129.654C1013.95 129.247 1015.34 128.915 1016.75 128.659C1018.16 128.402 1019.59 128.22 1021.02 128.113C1022.45 128.007 1023.89 127.975 1025.33 128.019C1026.76 128.063 1028.19 128.181 1029.61 128.375C1030.39 128.482 1031.17 128.614 1031.94 128.771C1032.71 128.927 1033.48 129.108 1034.24 129.311C1035 129.514 1035.76 129.741 1036.5 129.989C1037.25 130.237 1037.99 130.506 1038.72 130.796C1038.91 130.871 1039.1 130.946 1039.28 131.023C1039.47 131.1 1039.66 131.178 1039.84 131.258C1040.03 131.337 1040.21 131.418 1040.4 131.499C1040.58 131.581 1040.77 131.664 1040.95 131.748C1041.12 131.827 1041.31 131.906 1041.51 131.987C1041.7 132.068 1041.91 132.151 1042.1 132.241C1042.3 132.33 1042.49 132.426 1042.67 132.531C1042.85 132.637 1043.02 132.753 1043.16 132.882C1043.41 133.109 1043.55 133.388 1043.61 133.68C1043.66 133.972 1043.62 134.276 1043.51 134.552C1043.4 134.827 1043.22 135.075 1042.98 135.253C1042.74 135.431 1042.44 135.541 1042.1 135.541L1042.1 135.542ZM997.564 151.553C997.318 151.553 997.087 151.496 996.881 151.396C996.675 151.297 996.495 151.154 996.352 150.982C996.208 150.81 996.103 150.609 996.047 150.391C995.99 150.173 995.983 149.94 996.036 149.704C996.087 149.481 996.185 149.256 996.314 149.035C996.442 148.813 996.601 148.595 996.771 148.384C996.941 148.172 997.123 147.966 997.299 147.771C997.474 147.575 997.643 147.389 997.789 147.216C998.141 146.797 998.504 146.386 998.876 145.984C999.249 145.583 999.633 145.191 1000.03 144.808C1000.42 144.426 1000.82 144.053 1001.24 143.692C1001.65 143.33 1002.07 142.978 1002.5 142.638C1003.35 141.969 1004.23 141.344 1005.15 140.765C1006.06 140.186 1007 139.653 1007.97 139.166C1008.94 138.68 1009.93 138.24 1010.94 137.848C1011.95 137.457 1012.99 137.113 1014.03 136.818C1016.16 136.22 1018.34 135.816 1020.55 135.609C1022.76 135.401 1024.99 135.39 1027.2 135.576C1029.42 135.763 1031.61 136.147 1033.74 136.731C1035.88 137.315 1037.95 138.099 1039.93 139.084C1040.9 139.566 1041.84 140.095 1042.75 140.668C1043.66 141.241 1044.54 141.858 1045.39 142.517C1046.24 143.175 1047.05 143.875 1047.83 144.614C1048.61 145.353 1049.35 146.131 1050.05 146.945C1050.2 147.127 1050.38 147.32 1050.57 147.522C1050.75 147.723 1050.94 147.934 1051.12 148.15C1051.3 148.367 1051.47 148.589 1051.61 148.816C1051.75 149.043 1051.87 149.273 1051.94 149.504C1052 149.725 1052.02 149.948 1051.98 150.161C1051.95 150.374 1051.87 150.576 1051.75 150.755C1051.63 150.934 1051.48 151.091 1051.29 151.211C1051.11 151.33 1050.9 151.414 1050.67 151.45C1050.4 151.491 1050.17 151.465 1049.96 151.393C1049.75 151.321 1049.57 151.201 1049.41 151.054C1049.25 150.907 1049.1 150.732 1048.96 150.549C1048.82 150.367 1048.68 150.176 1048.54 149.996C1048.37 149.778 1048.2 149.562 1048.02 149.349C1047.84 149.136 1047.66 148.925 1047.48 148.717C1047.3 148.509 1047.11 148.303 1046.93 148.099C1046.74 147.896 1046.55 147.695 1046.35 147.497C1044.82 145.927 1043.11 144.558 1041.28 143.394C1039.45 142.23 1037.49 141.271 1035.45 140.519C1033.41 139.767 1031.28 139.223 1029.12 138.891C1026.96 138.558 1024.75 138.436 1022.55 138.528C1020.33 138.622 1018.14 138.937 1016.02 139.464C1013.9 139.992 1011.84 140.731 1009.89 141.673C1007.93 142.616 1006.09 143.761 1004.38 145.099C1002.67 146.437 1001.11 147.969 999.721 149.684C999.576 149.863 999.436 150.07 999.291 150.279C999.145 150.488 998.995 150.699 998.829 150.888C998.663 151.076 998.481 151.243 998.274 151.362C998.066 151.481 997.833 151.553 997.564 151.553V151.553ZM1017.01 188.36C1016.72 188.36 1016.43 188.257 1016.14 188.091C1015.86 187.925 1015.59 187.695 1015.33 187.441C1015.07 187.186 1014.83 186.907 1014.6 186.642C1014.38 186.376 1014.17 186.125 1013.99 185.926C1013.79 185.708 1013.59 185.487 1013.39 185.263C1013.2 185.039 1013.01 184.812 1012.82 184.582C1012.63 184.353 1012.45 184.12 1012.27 183.884C1012.09 183.648 1011.91 183.41 1011.74 183.168C1011.33 182.592 1010.94 182.003 1010.57 181.401C1010.19 180.801 1009.83 180.187 1009.5 179.562C1009.17 178.937 1008.86 178.301 1008.58 177.654C1008.29 177.007 1008.04 176.349 1007.81 175.681C1007.4 174.429 1007.05 173.119 1006.8 171.782C1006.55 170.446 1006.4 169.082 1006.37 167.723C1006.35 166.363 1006.45 165.008 1006.71 163.687C1006.96 162.367 1007.37 161.081 1007.96 159.862C1009.05 157.628 1010.6 155.75 1012.44 154.262C1014.29 152.774 1016.44 151.676 1018.73 151.004C1021.01 150.332 1023.43 150.086 1025.83 150.3C1028.23 150.515 1030.6 151.191 1032.78 152.362C1033.81 152.916 1034.78 153.571 1035.67 154.313C1036.57 155.054 1037.38 155.881 1038.11 156.78C1038.83 157.679 1039.46 158.649 1039.98 159.676C1040.49 160.703 1040.9 161.786 1041.18 162.911C1041.25 163.195 1041.31 163.482 1041.37 163.771C1041.42 164.061 1041.47 164.352 1041.51 164.645C1041.55 164.937 1041.58 165.231 1041.6 165.524C1041.62 165.818 1041.63 166.112 1041.63 166.405C1041.63 166.697 1041.56 166.978 1041.45 167.226C1041.33 167.474 1041.16 167.689 1040.96 167.849C1040.75 168.009 1040.51 168.116 1040.24 168.144C1039.97 168.174 1039.68 168.125 1039.37 167.98C1039.08 167.84 1038.89 167.64 1038.75 167.402C1038.62 167.164 1038.55 166.888 1038.51 166.597C1038.46 166.306 1038.46 166 1038.45 165.702C1038.44 165.404 1038.43 165.114 1038.39 164.854C1038.35 164.569 1038.3 164.287 1038.24 164.006C1038.18 163.724 1038.11 163.446 1038.03 163.17C1037.95 162.894 1037.86 162.62 1037.76 162.35C1037.67 162.08 1037.56 161.813 1037.44 161.549C1036.41 159.242 1034.82 157.401 1032.89 156.049C1030.97 154.698 1028.71 153.835 1026.37 153.486C1024.03 153.136 1021.6 153.299 1019.32 153.998C1017.04 154.697 1014.92 155.932 1013.19 157.726C1012.79 158.14 1012.41 158.579 1012.07 159.038C1011.73 159.498 1011.42 159.979 1011.14 160.477C1010.86 160.975 1010.61 161.491 1010.4 162.022C1010.19 162.552 1010.01 163.096 1009.88 163.65C1009.71 164.306 1009.61 164.976 1009.55 165.653C1009.49 166.33 1009.48 167.015 1009.5 167.7C1009.53 168.384 1009.59 169.069 1009.67 169.746C1009.76 170.423 1009.87 171.094 1010 171.749C1010.14 172.471 1010.32 173.178 1010.53 173.87C1010.74 174.562 1010.98 175.24 1011.25 175.906C1011.53 176.572 1011.83 177.227 1012.17 177.871C1012.5 178.516 1012.86 179.15 1013.25 179.776C1013.59 180.316 1013.94 180.833 1014.31 181.334C1014.68 181.835 1015.07 182.319 1015.46 182.793C1015.86 183.267 1016.28 183.731 1016.7 184.191C1017.12 184.65 1017.55 185.106 1017.99 185.563C1018.23 185.811 1018.39 186.109 1018.48 186.417C1018.56 186.725 1018.56 187.044 1018.49 187.332C1018.41 187.62 1018.25 187.876 1018.01 188.061C1017.76 188.246 1017.43 188.359 1017.02 188.359L1017.01 188.36ZM1039.33 182.718C1038.17 182.718 1037.03 182.619 1035.92 182.418C1034.81 182.218 1033.72 181.917 1032.69 181.515C1031.65 181.112 1030.65 180.608 1029.71 180.001C1028.77 179.394 1027.88 178.685 1027.06 177.872C1026.34 177.156 1025.67 176.358 1025.08 175.499C1024.48 174.64 1023.96 173.721 1023.53 172.763C1023.11 171.806 1022.77 170.81 1022.56 169.797C1022.34 168.785 1022.24 167.756 1022.27 166.734C1022.28 166.496 1022.33 166.266 1022.42 166.058C1022.5 165.85 1022.62 165.663 1022.78 165.511C1022.93 165.358 1023.11 165.239 1023.33 165.168C1023.54 165.096 1023.78 165.071 1024.04 165.106C1024.33 165.144 1024.56 165.235 1024.74 165.364C1024.92 165.493 1025.05 165.66 1025.14 165.853C1025.24 166.045 1025.29 166.262 1025.33 166.489C1025.37 166.717 1025.39 166.956 1025.4 167.191C1025.42 167.703 1025.48 168.212 1025.57 168.716C1025.65 169.22 1025.77 169.718 1025.92 170.207C1026.07 170.697 1026.24 171.178 1026.45 171.647C1026.66 172.117 1026.89 172.575 1027.15 173.018C1027.71 173.956 1028.37 174.811 1029.11 175.571C1029.86 176.331 1030.7 176.996 1031.6 177.556C1032.5 178.116 1033.47 178.571 1034.49 178.91C1035.51 179.249 1036.58 179.472 1037.68 179.569C1038.01 179.598 1038.33 179.616 1038.66 179.626C1038.98 179.635 1039.3 179.636 1039.63 179.627C1039.95 179.619 1040.28 179.603 1040.6 179.578C1040.92 179.553 1041.25 179.52 1041.57 179.48C1041.84 179.446 1042.13 179.405 1042.41 179.385C1042.7 179.364 1042.98 179.364 1043.24 179.412C1043.49 179.459 1043.73 179.554 1043.92 179.723C1044.11 179.892 1044.26 180.136 1044.34 180.481C1044.49 181.077 1044.35 181.515 1044.02 181.836C1043.69 182.158 1043.18 182.363 1042.61 182.494C1042.04 182.625 1041.4 182.681 1040.82 182.704C1040.23 182.728 1039.7 182.719 1039.33 182.719V182.718ZM1033.07 189C1032.9 189 1032.72 188.977 1032.53 188.94C1032.35 188.902 1032.16 188.85 1031.98 188.791C1031.8 188.732 1031.61 188.667 1031.44 188.602C1031.26 188.538 1031.08 188.475 1030.92 188.422C1030.73 188.36 1030.54 188.297 1030.34 188.231C1030.15 188.165 1029.96 188.099 1029.77 188.029C1029.59 187.96 1029.4 187.889 1029.21 187.815C1029.02 187.742 1028.83 187.667 1028.65 187.589C1028.34 187.459 1028.03 187.323 1027.72 187.18C1027.41 187.037 1027.11 186.888 1026.81 186.732C1026.51 186.576 1026.21 186.414 1025.92 186.244C1025.63 186.075 1025.34 185.899 1025.06 185.717C1024.44 185.319 1023.83 184.892 1023.25 184.438C1022.67 183.984 1022.1 183.504 1021.56 183C1021.02 182.496 1020.5 181.968 1020.01 181.419C1019.52 180.87 1019.06 180.301 1018.63 179.712C1018.18 179.102 1017.76 178.47 1017.38 177.818C1016.99 177.167 1016.64 176.496 1016.33 175.811C1016.01 175.125 1015.74 174.424 1015.49 173.71C1015.25 172.996 1015.05 172.27 1014.88 171.535C1014.73 170.875 1014.6 170.191 1014.5 169.497C1014.4 168.804 1014.33 168.099 1014.31 167.397C1014.3 166.695 1014.34 165.996 1014.45 165.311C1014.56 164.627 1014.74 163.958 1015.01 163.317C1015.53 162.088 1016.31 161.037 1017.26 160.187C1018.21 159.338 1019.33 158.689 1020.54 158.263C1021.75 157.838 1023.04 157.635 1024.34 157.679C1025.63 157.722 1026.93 158.01 1028.14 158.566C1028.71 158.831 1029.26 159.153 1029.77 159.523C1030.28 159.894 1030.76 160.314 1031.18 160.775C1031.61 161.236 1031.98 161.739 1032.3 162.275C1032.62 162.812 1032.89 163.383 1033.08 163.98C1033.19 164.291 1033.26 164.603 1033.3 164.915C1033.35 165.227 1033.38 165.539 1033.41 165.853C1033.43 166.166 1033.46 166.479 1033.49 166.793C1033.52 167.106 1033.56 167.42 1033.62 167.734C1033.69 168.037 1033.78 168.332 1033.89 168.618C1034 168.904 1034.14 169.18 1034.3 169.444C1034.45 169.709 1034.63 169.961 1034.83 170.199C1035.03 170.438 1035.24 170.661 1035.48 170.867C1035.98 171.31 1036.54 171.666 1037.15 171.933C1037.75 172.201 1038.39 172.378 1039.05 172.466C1039.71 172.553 1040.38 172.549 1041.03 172.452C1041.69 172.356 1042.33 172.166 1042.94 171.881C1043.56 171.589 1044.1 171.225 1044.55 170.802C1045 170.378 1045.37 169.897 1045.66 169.37C1045.95 168.844 1046.16 168.272 1046.29 167.668C1046.41 167.064 1046.46 166.429 1046.44 165.775C1046.38 164.525 1046.2 163.29 1045.91 162.085C1045.61 160.879 1045.21 159.704 1044.69 158.574C1044.18 157.445 1043.56 156.36 1042.85 155.335C1042.13 154.311 1041.32 153.347 1040.43 152.458C1038.47 150.509 1036.18 148.985 1033.72 147.892C1031.25 146.8 1028.6 146.139 1025.9 145.918C1023.21 145.697 1020.48 145.915 1017.86 146.58C1015.23 147.245 1012.7 148.356 1010.43 149.922C1009.21 150.757 1008.09 151.704 1007.09 152.747C1006.08 153.789 1005.19 154.927 1004.43 156.143C1003.67 157.359 1003.04 158.651 1002.56 160.004C1002.09 161.357 1001.76 162.77 1001.61 164.225C1001.54 164.847 1001.5 165.474 1001.49 166.102C1001.47 166.731 1001.47 167.36 1001.5 167.99C1001.53 168.619 1001.58 169.248 1001.65 169.873C1001.72 170.498 1001.81 171.12 1001.92 171.736C1001.99 172.14 1002.07 172.543 1002.16 172.944C1002.25 173.345 1002.34 173.744 1002.45 174.142C1002.55 174.539 1002.66 174.934 1002.78 175.327C1002.9 175.721 1003.03 176.112 1003.16 176.5C1003.21 176.659 1003.28 176.821 1003.35 176.987C1003.42 177.152 1003.48 177.32 1003.54 177.49C1003.59 177.659 1003.64 177.831 1003.66 178.003C1003.68 178.175 1003.67 178.348 1003.63 178.519C1003.59 178.678 1003.53 178.825 1003.45 178.958C1003.36 179.092 1003.26 179.21 1003.14 179.311C1003.02 179.412 1002.88 179.495 1002.73 179.556C1002.58 179.617 1002.42 179.657 1002.26 179.672C1001.83 179.709 1001.49 179.592 1001.22 179.377C1000.94 179.161 1000.73 178.849 1000.56 178.494C1000.39 178.139 1000.26 177.744 1000.15 177.364C1000.04 176.984 999.952 176.619 999.863 176.327C999.734 175.904 999.613 175.479 999.5 175.052C999.387 174.625 999.283 174.196 999.187 173.764C999.092 173.333 999.004 172.9 998.925 172.466C998.847 172.032 998.777 171.596 998.716 171.159C998.598 170.307 998.509 169.449 998.456 168.587C998.403 167.726 998.385 166.861 998.407 165.998C998.429 165.136 998.49 164.274 998.597 163.418C998.703 162.563 998.854 161.713 999.055 160.874C999.384 159.501 999.856 158.172 1000.45 156.901C1001.05 155.629 1001.77 154.415 1002.6 153.273C1003.43 152.13 1004.36 151.058 1005.38 150.071C1006.4 149.085 1007.5 148.183 1008.67 147.38C1010.95 145.815 1013.46 144.648 1016.07 143.876C1018.68 143.103 1021.4 142.728 1024.12 142.749C1026.84 142.769 1029.56 143.186 1032.16 144C1034.75 144.813 1037.24 146.023 1039.49 147.629C1040.52 148.363 1041.49 149.173 1042.39 150.05C1043.3 150.926 1044.13 151.868 1044.89 152.868C1045.65 153.867 1046.33 154.923 1046.91 156.026C1047.5 157.129 1048 158.279 1048.4 159.468C1048.79 160.629 1049.12 161.86 1049.32 163.106C1049.53 164.353 1049.61 165.615 1049.52 166.84C1049.42 168.066 1049.14 169.254 1048.62 170.352C1048.11 171.451 1047.35 172.46 1046.3 173.326C1045.26 174.18 1044.07 174.781 1042.81 175.136C1041.56 175.491 1040.25 175.6 1038.96 175.47C1037.67 175.341 1036.4 174.972 1035.26 174.371C1034.11 173.77 1033.08 172.936 1032.25 171.877C1032.05 171.631 1031.87 171.375 1031.71 171.11C1031.54 170.846 1031.39 170.573 1031.25 170.293C1031.12 170.013 1031 169.726 1030.89 169.433C1030.79 169.141 1030.7 168.842 1030.63 168.54C1030.55 168.23 1030.51 167.916 1030.48 167.602C1030.45 167.288 1030.43 166.972 1030.41 166.657C1030.38 166.342 1030.36 166.028 1030.31 165.717C1030.27 165.406 1030.2 165.098 1030.09 164.794C1029.88 164.18 1029.56 163.621 1029.17 163.126C1028.78 162.631 1028.3 162.201 1027.78 161.844C1027.25 161.488 1026.67 161.206 1026.05 161.007C1025.44 160.809 1024.8 160.695 1024.15 160.674C1023.5 160.654 1022.86 160.725 1022.24 160.88C1021.62 161.036 1021.02 161.275 1020.47 161.59C1019.93 161.906 1019.42 162.297 1018.99 162.756C1018.56 163.216 1018.2 163.743 1017.94 164.331C1017.79 164.65 1017.69 164.975 1017.61 165.304C1017.54 165.633 1017.49 165.966 1017.47 166.302C1017.45 166.638 1017.45 166.977 1017.46 167.317C1017.47 167.657 1017.5 167.998 1017.53 168.339C1017.56 168.717 1017.61 169.094 1017.66 169.47C1017.72 169.845 1017.79 170.219 1017.86 170.591C1017.94 170.963 1018.03 171.332 1018.13 171.699C1018.23 172.065 1018.35 172.429 1018.47 172.789C1018.93 174.148 1019.56 175.448 1020.32 176.668C1021.08 177.888 1021.97 179.028 1022.98 180.065C1023.99 181.103 1025.11 182.039 1026.31 182.851C1027.51 183.663 1028.8 184.351 1030.15 184.894C1030.32 184.962 1030.49 185.028 1030.65 185.092C1030.82 185.156 1030.99 185.218 1031.17 185.278C1031.34 185.338 1031.51 185.397 1031.68 185.453C1031.85 185.51 1032.03 185.566 1032.2 185.62C1032.36 185.669 1032.53 185.711 1032.7 185.753C1032.88 185.796 1033.06 185.84 1033.23 185.892C1033.4 185.944 1033.57 186.006 1033.73 186.085C1033.89 186.164 1034.03 186.26 1034.15 186.382C1034.38 186.612 1034.51 186.891 1034.56 187.179C1034.6 187.468 1034.57 187.767 1034.46 188.036C1034.35 188.306 1034.17 188.547 1033.94 188.721C1033.7 188.894 1033.41 189 1033.07 189H1033.07Z" fill="#000E41"/>
<path d="M548.548 253.96C549.118 254.081 549.575 254.366 549.92 254.814C550.266 255.253 550.438 255.757 550.438 256.326C550.438 257.147 550.149 257.801 549.57 258.286C549.001 258.762 548.203 259 547.176 259H542.598V249.172H547.022C548.021 249.172 548.8 249.401 549.36 249.858C549.93 250.315 550.214 250.936 550.214 251.72C550.214 252.299 550.06 252.779 549.752 253.162C549.454 253.545 549.052 253.811 548.548 253.96ZM544.992 253.148H546.56C546.952 253.148 547.251 253.064 547.456 252.896C547.671 252.719 547.778 252.462 547.778 252.126C547.778 251.79 547.671 251.533 547.456 251.356C547.251 251.179 546.952 251.09 546.56 251.09H544.992V253.148ZM546.756 257.068C547.158 257.068 547.466 256.979 547.68 256.802C547.904 256.615 548.016 256.349 548.016 256.004C548.016 255.659 547.9 255.388 547.666 255.192C547.442 254.996 547.13 254.898 546.728 254.898H544.992V257.068H546.756ZM554.329 249.172V255.052C554.329 255.64 554.473 256.093 554.763 256.41C555.052 256.727 555.477 256.886 556.037 256.886C556.597 256.886 557.026 256.727 557.325 256.41C557.623 256.093 557.773 255.64 557.773 255.052V249.172H560.167V255.038C560.167 255.915 559.98 256.657 559.607 257.264C559.233 257.871 558.729 258.328 558.095 258.636C557.469 258.944 556.769 259.098 555.995 259.098C555.22 259.098 554.525 258.949 553.909 258.65C553.302 258.342 552.821 257.885 552.467 257.278C552.112 256.662 551.935 255.915 551.935 255.038V249.172H554.329ZM564.392 249.172V259H561.998V249.172H564.392ZM568.671 257.152H571.807V259H566.277V249.172H568.671V257.152ZM580.169 249.172V251.09H577.565V259H575.171V251.09H572.567V249.172H580.169ZM588.193 259.098C587.474 259.098 586.83 258.981 586.261 258.748C585.692 258.515 585.234 258.169 584.889 257.712C584.553 257.255 584.376 256.704 584.357 256.06H586.905C586.942 256.424 587.068 256.704 587.283 256.9C587.498 257.087 587.778 257.18 588.123 257.18C588.478 257.18 588.758 257.101 588.963 256.942C589.168 256.774 589.271 256.545 589.271 256.256C589.271 256.013 589.187 255.813 589.019 255.654C588.86 255.495 588.66 255.365 588.417 255.262C588.184 255.159 587.848 255.043 587.409 254.912C586.774 254.716 586.256 254.52 585.855 254.324C585.454 254.128 585.108 253.839 584.819 253.456C584.53 253.073 584.385 252.574 584.385 251.958C584.385 251.043 584.716 250.329 585.379 249.816C586.042 249.293 586.905 249.032 587.969 249.032C589.052 249.032 589.924 249.293 590.587 249.816C591.25 250.329 591.604 251.048 591.651 251.972H589.061C589.042 251.655 588.926 251.407 588.711 251.23C588.496 251.043 588.221 250.95 587.885 250.95C587.596 250.95 587.362 251.029 587.185 251.188C587.008 251.337 586.919 251.557 586.919 251.846C586.919 252.163 587.068 252.411 587.367 252.588C587.666 252.765 588.132 252.957 588.767 253.162C589.402 253.377 589.915 253.582 590.307 253.778C590.708 253.974 591.054 254.259 591.343 254.632C591.632 255.005 591.777 255.486 591.777 256.074C591.777 256.634 591.632 257.143 591.343 257.6C591.063 258.057 590.652 258.421 590.111 258.692C589.57 258.963 588.93 259.098 588.193 259.098ZM598.048 259.098C597.124 259.098 596.275 258.883 595.5 258.454C594.735 258.025 594.124 257.427 593.666 256.662C593.218 255.887 592.994 255.019 592.994 254.058C592.994 253.097 593.218 252.233 593.666 251.468C594.124 250.703 594.735 250.105 595.5 249.676C596.275 249.247 597.124 249.032 598.048 249.032C598.972 249.032 599.817 249.247 600.582 249.676C601.357 250.105 601.964 250.703 602.402 251.468C602.85 252.233 603.074 253.097 603.074 254.058C603.074 255.019 602.85 255.887 602.402 256.662C601.954 257.427 601.348 258.025 600.582 258.454C599.817 258.883 598.972 259.098 598.048 259.098ZM598.048 256.914C598.832 256.914 599.458 256.653 599.924 256.13C600.4 255.607 600.638 254.917 600.638 254.058C600.638 253.19 600.4 252.499 599.924 251.986C599.458 251.463 598.832 251.202 598.048 251.202C597.255 251.202 596.62 251.459 596.144 251.972C595.678 252.485 595.444 253.181 595.444 254.058C595.444 254.926 595.678 255.621 596.144 256.144C596.62 256.657 597.255 256.914 598.048 256.914ZM610.954 249.172V251.09H606.95V253.162H609.946V255.024H606.95V259H604.556V249.172H610.954ZM619.432 249.172V251.09H616.828V259H614.434V251.09H611.83V249.172H619.432ZM634.308 249.172L631.746 259H628.848L627.28 252.532L625.656 259H622.758L620.266 249.172H622.828L624.242 256.326L625.992 249.172H628.624L630.304 256.326L631.732 249.172H634.308ZM641.776 257.264H638.108L637.52 259H635.014L638.57 249.172H641.342L644.898 259H642.364L641.776 257.264ZM641.16 255.416L639.942 251.818L638.738 255.416H641.16ZM651.143 259L649.099 255.29H648.525V259H646.131V249.172H650.149C650.923 249.172 651.581 249.307 652.123 249.578C652.673 249.849 653.084 250.222 653.355 250.698C653.625 251.165 653.761 251.687 653.761 252.266C653.761 252.919 653.574 253.503 653.201 254.016C652.837 254.529 652.295 254.893 651.577 255.108L653.845 259H651.143ZM648.525 253.596H650.009C650.447 253.596 650.774 253.489 650.989 253.274C651.213 253.059 651.325 252.756 651.325 252.364C651.325 251.991 651.213 251.697 650.989 251.482C650.774 251.267 650.447 251.16 650.009 251.16H648.525V253.596ZM657.808 251.09V253.078H661.014V254.926H657.808V257.082H661.434V259H655.414V249.172H661.434V251.09H657.808ZM575.886 270.336C575.886 270.905 575.755 271.428 575.494 271.904C575.232 272.371 574.831 272.749 574.29 273.038C573.748 273.327 573.076 273.472 572.274 273.472H570.79V277H568.396V267.172H572.274C573.058 267.172 573.72 267.307 574.262 267.578C574.803 267.849 575.209 268.222 575.48 268.698C575.75 269.174 575.886 269.72 575.886 270.336ZM572.092 271.568C572.549 271.568 572.89 271.461 573.114 271.246C573.338 271.031 573.45 270.728 573.45 270.336C573.45 269.944 573.338 269.641 573.114 269.426C572.89 269.211 572.549 269.104 572.092 269.104H570.79V271.568H572.092ZM583.4 275.264H579.732L579.144 277H576.638L580.194 267.172H582.966L586.522 277H583.988L583.4 275.264ZM582.784 273.416L581.566 269.818L580.362 273.416H582.784ZM587.348 272.072C587.348 271.101 587.558 270.238 587.978 269.482C588.398 268.717 588.981 268.124 589.728 267.704C590.484 267.275 591.338 267.06 592.29 267.06C593.457 267.06 594.455 267.368 595.286 267.984C596.117 268.6 596.672 269.44 596.952 270.504H594.32C594.124 270.093 593.844 269.781 593.48 269.566C593.125 269.351 592.719 269.244 592.262 269.244C591.525 269.244 590.927 269.501 590.47 270.014C590.013 270.527 589.784 271.213 589.784 272.072C589.784 272.931 590.013 273.617 590.47 274.13C590.927 274.643 591.525 274.9 592.262 274.9C592.719 274.9 593.125 274.793 593.48 274.578C593.844 274.363 594.124 274.051 594.32 273.64H596.952C596.672 274.704 596.117 275.544 595.286 276.16C594.455 276.767 593.457 277.07 592.29 277.07C591.338 277.07 590.484 276.86 589.728 276.44C588.981 276.011 588.398 275.418 587.978 274.662C587.558 273.906 587.348 273.043 587.348 272.072ZM604.266 277L600.962 272.66V277H598.568V267.172H600.962V271.484L604.238 267.172H607.052L603.244 271.988L607.192 277H604.266ZM614.598 275.264H610.93L610.342 277H607.836L611.392 267.172H614.164L617.72 277H615.186L614.598 275.264ZM613.982 273.416L612.764 269.818L611.56 273.416H613.982ZM625.476 270.28C625.299 269.953 625.042 269.706 624.706 269.538C624.38 269.361 623.992 269.272 623.544 269.272C622.77 269.272 622.149 269.529 621.682 270.042C621.216 270.546 620.982 271.223 620.982 272.072C620.982 272.977 621.225 273.687 621.71 274.2C622.205 274.704 622.882 274.956 623.74 274.956C624.328 274.956 624.823 274.807 625.224 274.508C625.635 274.209 625.934 273.78 626.12 273.22H623.082V271.456H628.29V273.682C628.113 274.279 627.81 274.835 627.38 275.348C626.96 275.861 626.424 276.277 625.77 276.594C625.117 276.911 624.38 277.07 623.558 277.07C622.588 277.07 621.72 276.86 620.954 276.44C620.198 276.011 619.606 275.418 619.176 274.662C618.756 273.906 618.546 273.043 618.546 272.072C618.546 271.101 618.756 270.238 619.176 269.482C619.606 268.717 620.198 268.124 620.954 267.704C621.71 267.275 622.574 267.06 623.544 267.06C624.72 267.06 625.71 267.345 626.512 267.914C627.324 268.483 627.861 269.272 628.122 270.28H625.476ZM632.16 269.09V271.078H635.366V272.926H632.16V275.082H635.786V277H629.766V267.172H635.786V269.09H632.16Z" fill="#000E41"/>
<path d="M993.927 254.072C993.927 253.101 994.137 252.238 994.557 251.482C994.977 250.717 995.56 250.124 996.307 249.704C997.063 249.275 997.917 249.06 998.869 249.06C1000.04 249.06 1001.03 249.368 1001.87 249.984C1002.7 250.6 1003.25 251.44 1003.53 252.504H1000.9C1000.7 252.093 1000.42 251.781 1000.06 251.566C999.704 251.351 999.298 251.244 998.841 251.244C998.104 251.244 997.506 251.501 997.049 252.014C996.592 252.527 996.363 253.213 996.363 254.072C996.363 254.931 996.592 255.617 997.049 256.13C997.506 256.643 998.104 256.9 998.841 256.9C999.298 256.9 999.704 256.793 1000.06 256.578C1000.42 256.363 1000.7 256.051 1000.9 255.64H1003.53C1003.25 256.704 1002.7 257.544 1001.87 258.16C1001.03 258.767 1000.04 259.07 998.869 259.07C997.917 259.07 997.063 258.86 996.307 258.44C995.56 258.011 994.977 257.418 994.557 256.662C994.137 255.906 993.927 255.043 993.927 254.072ZM1010.16 259L1008.12 255.29H1007.54V259H1005.15V249.172H1009.17C1009.94 249.172 1010.6 249.307 1011.14 249.578C1011.69 249.849 1012.1 250.222 1012.37 250.698C1012.64 251.165 1012.78 251.687 1012.78 252.266C1012.78 252.919 1012.59 253.503 1012.22 254.016C1011.85 254.529 1011.31 254.893 1010.59 255.108L1012.86 259H1010.16ZM1007.54 253.596H1009.03C1009.46 253.596 1009.79 253.489 1010.01 253.274C1010.23 253.059 1010.34 252.756 1010.34 252.364C1010.34 251.991 1010.23 251.697 1010.01 251.482C1009.79 251.267 1009.46 251.16 1009.03 251.16H1007.54V253.596ZM1022.86 249.172L1019.46 255.752V259H1017.06V255.752L1013.66 249.172H1016.38L1018.28 253.288L1020.17 249.172H1022.86ZM1031.46 252.336C1031.46 252.905 1031.33 253.428 1031.07 253.904C1030.81 254.371 1030.41 254.749 1029.87 255.038C1029.33 255.327 1028.65 255.472 1027.85 255.472H1026.37V259H1023.97V249.172H1027.85C1028.63 249.172 1029.3 249.307 1029.84 249.578C1030.38 249.849 1030.79 250.222 1031.06 250.698C1031.33 251.174 1031.46 251.72 1031.46 252.336ZM1027.67 253.568C1028.13 253.568 1028.47 253.461 1028.69 253.246C1028.91 253.031 1029.03 252.728 1029.03 252.336C1029.03 251.944 1028.91 251.641 1028.69 251.426C1028.47 251.211 1028.13 251.104 1027.67 251.104H1026.37V253.568H1027.67ZM1039.93 249.172V251.09H1037.32V259H1034.93V251.09H1032.33V249.172H1039.93ZM1045.93 259.098C1045 259.098 1044.15 258.883 1043.38 258.454C1042.61 258.025 1042 257.427 1041.55 256.662C1041.1 255.887 1040.87 255.019 1040.87 254.058C1040.87 253.097 1041.1 252.233 1041.55 251.468C1042 250.703 1042.61 250.105 1043.38 249.676C1044.15 249.247 1045 249.032 1045.93 249.032C1046.85 249.032 1047.7 249.247 1048.46 249.676C1049.24 250.105 1049.84 250.703 1050.28 251.468C1050.73 252.233 1050.95 253.097 1050.95 254.058C1050.95 255.019 1050.73 255.887 1050.28 256.662C1049.83 257.427 1049.23 258.025 1048.46 258.454C1047.7 258.883 1046.85 259.098 1045.93 259.098ZM1045.93 256.914C1046.71 256.914 1047.34 256.653 1047.8 256.13C1048.28 255.607 1048.52 254.917 1048.52 254.058C1048.52 253.19 1048.28 252.499 1047.8 251.986C1047.34 251.463 1046.71 251.202 1045.93 251.202C1045.13 251.202 1044.5 251.459 1044.02 251.972C1043.56 252.485 1043.32 253.181 1043.32 254.058C1043.32 254.926 1043.56 255.621 1044.02 256.144C1044.5 256.657 1045.13 256.914 1045.93 256.914ZM985.276 267.172V269.09H981.272V271.162H984.268V273.024H981.272V277H978.878V267.172H985.276ZM989.078 267.172V277H986.684V267.172H989.078ZM999.755 277H997.361L993.357 270.938V277H990.963V267.172H993.357L997.361 273.262V267.172H999.755V277ZM1008.16 270.28C1007.99 269.953 1007.73 269.706 1007.39 269.538C1007.07 269.361 1006.68 269.272 1006.23 269.272C1005.46 269.272 1004.84 269.529 1004.37 270.042C1003.9 270.546 1003.67 271.223 1003.67 272.072C1003.67 272.977 1003.91 273.687 1004.4 274.2C1004.89 274.704 1005.57 274.956 1006.43 274.956C1007.02 274.956 1007.51 274.807 1007.91 274.508C1008.32 274.209 1008.62 273.78 1008.81 273.22H1005.77V271.456H1010.98V273.682C1010.8 274.279 1010.5 274.835 1010.07 275.348C1009.65 275.861 1009.11 276.277 1008.46 276.594C1007.8 276.911 1007.07 277.07 1006.25 277.07C1005.28 277.07 1004.41 276.86 1003.64 276.44C1002.89 276.011 1002.29 275.418 1001.86 274.662C1001.44 273.906 1001.23 273.043 1001.23 272.072C1001.23 271.101 1001.44 270.238 1001.86 269.482C1002.29 268.717 1002.89 268.124 1003.64 267.704C1004.4 267.275 1005.26 267.06 1006.23 267.06C1007.41 267.06 1008.4 267.345 1009.2 267.914C1010.01 268.483 1010.55 269.272 1010.81 270.28H1008.16ZM1014.85 269.09V271.078H1018.05V272.926H1014.85V275.082H1018.47V277H1012.45V267.172H1018.47V269.09H1014.85ZM1025.19 277L1023.15 273.29H1022.57V277H1020.18V267.172H1024.2C1024.97 267.172 1025.63 267.307 1026.17 267.578C1026.72 267.849 1027.13 268.222 1027.4 268.698C1027.67 269.165 1027.81 269.687 1027.81 270.266C1027.81 270.919 1027.62 271.503 1027.25 272.016C1026.88 272.529 1026.34 272.893 1025.62 273.108L1027.89 277H1025.19ZM1022.57 271.596H1024.06C1024.5 271.596 1024.82 271.489 1025.04 271.274C1025.26 271.059 1025.37 270.756 1025.37 270.364C1025.37 269.991 1025.26 269.697 1025.04 269.482C1024.82 269.267 1024.5 269.16 1024.06 269.16H1022.57V271.596ZM1036.95 270.336C1036.95 270.905 1036.82 271.428 1036.56 271.904C1036.3 272.371 1035.9 272.749 1035.36 273.038C1034.81 273.327 1034.14 273.472 1033.34 273.472H1031.86V277H1029.46V267.172H1033.34C1034.12 267.172 1034.79 267.307 1035.33 267.578C1035.87 267.849 1036.27 268.222 1036.55 268.698C1036.82 269.174 1036.95 269.72 1036.95 270.336ZM1033.16 271.568C1033.61 271.568 1033.96 271.461 1034.18 271.246C1034.4 271.031 1034.52 270.728 1034.52 270.336C1034.52 269.944 1034.4 269.641 1034.18 269.426C1033.96 269.211 1033.61 269.104 1033.16 269.104H1031.86V271.568H1033.16ZM1043.36 277L1041.32 273.29H1040.74V277H1038.35V267.172H1042.37C1043.14 267.172 1043.8 267.307 1044.34 267.578C1044.89 267.849 1045.3 268.222 1045.57 268.698C1045.84 269.165 1045.98 269.687 1045.98 270.266C1045.98 270.919 1045.79 271.503 1045.42 272.016C1045.05 272.529 1044.51 272.893 1043.79 273.108L1046.06 277H1043.36ZM1040.74 271.596H1042.23C1042.66 271.596 1042.99 271.489 1043.21 271.274C1043.43 271.059 1043.54 270.756 1043.54 270.364C1043.54 269.991 1043.43 269.697 1043.21 269.482C1042.99 269.267 1042.66 269.16 1042.23 269.16H1040.74V271.596ZM1050.02 267.172V277H1047.63V267.172H1050.02ZM1060.7 277H1058.31L1054.3 270.938V277H1051.91V267.172H1054.3L1058.31 273.262V267.172H1060.7V277ZM1069.66 267.172V269.09H1067.05V277H1064.66V269.09H1062.05V267.172H1069.66Z" fill="#000E41"/>
<path d="M598 156.035L658.75 121.276L598 91.4829L537.25 121.276L598 156.035Z" stroke="#000E41" stroke-width="4" stroke-linecap="round" stroke-linejoin="round"/>
<path d="M598 156.035V230.517" stroke="#000E41" stroke-width="4" stroke-linecap="round" stroke-linejoin="round"/>
<path d="M537.25 121.276V195.759L598 230.517" stroke="#000E41" stroke-width="4" stroke-linecap="round" stroke-linejoin="round"/>
<path d="M658.75 121.276V195.759L598 230.517" stroke="#000E41" stroke-width="4" stroke-linecap="round" stroke-linejoin="round"/>
<path d="M666.679 157.01C665.851 157.01 665.179 157.682 665.179 158.51C665.179 159.339 665.851 160.01 666.679 160.01L666.679 157.01ZM963.061 159.561C963.646 158.975 963.646 158.025 963.061 157.439L953.514 147.894C952.929 147.308 951.979 147.308 951.393 147.894C950.807 148.48 950.807 149.429 951.393 150.015L959.879 158.5L951.394 166.986C950.808 167.571 950.808 168.521 951.394 169.107C951.98 169.693 952.929 169.693 953.515 169.107L963.061 159.561ZM666.679 160.01L962 160L962 157L666.679 157.01L666.679 160.01Z" fill="#29B57D"/>
<path d="M102.824 226.364V239H99.746V231.422L96.92 239H94.436L91.592 231.404V239H88.514V226.364H92.15L95.696 235.112L99.206 226.364H102.824ZM104.575 233.96C104.575 232.928 104.767 232.022 105.151 231.242C105.547 230.462 106.081 229.862 106.753 229.442C107.425 229.022 108.175 228.812 109.003 228.812C109.711 228.812 110.329 228.956 110.857 229.244C111.397 229.532 111.811 229.91 112.099 230.378V228.956H115.177V239H112.099V237.578C111.799 238.046 111.379 238.424 110.839 238.712C110.311 239 109.693 239.144 108.985 239.144C108.169 239.144 107.425 238.934 106.753 238.514C106.081 238.082 105.547 237.476 105.151 236.696C104.767 235.904 104.575 234.992 104.575 233.96ZM112.099 233.978C112.099 233.21 111.883 232.604 111.451 232.16C111.031 231.716 110.515 231.494 109.903 231.494C109.291 231.494 108.769 231.716 108.337 232.16C107.917 232.592 107.707 233.192 107.707 233.96C107.707 234.728 107.917 235.34 108.337 235.796C108.769 236.24 109.291 236.462 109.903 236.462C110.515 236.462 111.031 236.24 111.451 235.796C111.883 235.352 112.099 234.746 112.099 233.978ZM123.674 228.848C124.85 228.848 125.786 229.232 126.482 230C127.19 230.756 127.544 231.8 127.544 233.132V239H124.484V233.546C124.484 232.874 124.31 232.352 123.962 231.98C123.614 231.608 123.146 231.422 122.558 231.422C121.97 231.422 121.502 231.608 121.154 231.98C120.806 232.352 120.632 232.874 120.632 233.546V239H117.554V228.956H120.632V230.288C120.944 229.844 121.364 229.496 121.892 229.244C122.42 228.98 123.014 228.848 123.674 228.848ZM129.221 233.96C129.221 232.928 129.413 232.022 129.797 231.242C130.193 230.462 130.727 229.862 131.399 229.442C132.071 229.022 132.821 228.812 133.649 228.812C134.357 228.812 134.975 228.956 135.503 229.244C136.043 229.532 136.457 229.91 136.745 230.378V228.956H139.823V239H136.745V237.578C136.445 238.046 136.025 238.424 135.485 238.712C134.957 239 134.339 239.144 133.631 239.144C132.815 239.144 132.071 238.934 131.399 238.514C130.727 238.082 130.193 237.476 129.797 236.696C129.413 235.904 129.221 234.992 129.221 233.96ZM136.745 233.978C136.745 233.21 136.529 232.604 136.097 232.16C135.677 231.716 135.161 231.494 134.549 231.494C133.937 231.494 133.415 231.716 132.983 232.16C132.563 232.592 132.353 233.192 132.353 233.96C132.353 234.728 132.563 235.34 132.983 235.796C133.415 236.24 133.937 236.462 134.549 236.462C135.161 236.462 135.677 236.24 136.097 235.796C136.529 235.352 136.745 234.746 136.745 233.978ZM146.016 228.812C146.724 228.812 147.342 228.956 147.87 229.244C148.41 229.532 148.824 229.91 149.112 230.378V228.956H152.19V238.982C152.19 239.906 152.004 240.74 151.632 241.484C151.272 242.24 150.714 242.84 149.958 243.284C149.214 243.728 148.284 243.95 147.168 243.95C145.68 243.95 144.474 243.596 143.55 242.888C142.626 242.192 142.098 241.244 141.966 240.044H145.008C145.104 240.428 145.332 240.728 145.692 240.944C146.052 241.172 146.496 241.286 147.024 241.286C147.66 241.286 148.164 241.1 148.536 240.728C148.92 240.368 149.112 239.786 149.112 238.982V237.56C148.812 238.028 148.398 238.412 147.87 238.712C147.342 239 146.724 239.144 146.016 239.144C145.188 239.144 144.438 238.934 143.766 238.514C143.094 238.082 142.56 237.476 142.164 236.696C141.78 235.904 141.588 234.992 141.588 233.96C141.588 232.928 141.78 232.022 142.164 231.242C142.56 230.462 143.094 229.862 143.766 229.442C144.438 229.022 145.188 228.812 146.016 228.812ZM149.112 233.978C149.112 233.21 148.896 232.604 148.464 232.16C148.044 231.716 147.528 231.494 146.916 231.494C146.304 231.494 145.782 231.716 145.35 232.16C144.93 232.592 144.72 233.192 144.72 233.96C144.72 234.728 144.93 235.34 145.35 235.796C145.782 236.24 146.304 236.462 146.916 236.462C147.528 236.462 148.044 236.24 148.464 235.796C148.896 235.352 149.112 234.746 149.112 233.978ZM164.035 233.816C164.035 234.104 164.017 234.404 163.981 234.716H157.015C157.063 235.34 157.261 235.82 157.609 236.156C157.969 236.48 158.407 236.642 158.923 236.642C159.691 236.642 160.225 236.318 160.525 235.67H163.801C163.633 236.33 163.327 236.924 162.883 237.452C162.451 237.98 161.905 238.394 161.245 238.694C160.585 238.994 159.847 239.144 159.031 239.144C158.047 239.144 157.171 238.934 156.403 238.514C155.635 238.094 155.035 237.494 154.603 236.714C154.171 235.934 153.955 235.022 153.955 233.978C153.955 232.934 154.165 232.022 154.585 231.242C155.017 230.462 155.617 229.862 156.385 229.442C157.153 229.022 158.035 228.812 159.031 228.812C160.003 228.812 160.867 229.016 161.623 229.424C162.379 229.832 162.967 230.414 163.387 231.17C163.819 231.926 164.035 232.808 164.035 233.816ZM160.885 233.006C160.885 232.478 160.705 232.058 160.345 231.746C159.985 231.434 159.535 231.278 158.995 231.278C158.479 231.278 158.041 231.428 157.681 231.728C157.333 232.028 157.117 232.454 157.033 233.006H160.885ZM165.197 233.96C165.197 232.928 165.389 232.022 165.773 231.242C166.169 230.462 166.703 229.862 167.375 229.442C168.047 229.022 168.797 228.812 169.625 228.812C170.285 228.812 170.885 228.95 171.425 229.226C171.977 229.502 172.409 229.874 172.721 230.342V225.68H175.799V239H172.721V237.56C172.433 238.04 172.019 238.424 171.479 238.712C170.951 239 170.333 239.144 169.625 239.144C168.797 239.144 168.047 238.934 167.375 238.514C166.703 238.082 166.169 237.476 165.773 236.696C165.389 235.904 165.197 234.992 165.197 233.96ZM172.721 233.978C172.721 233.21 172.505 232.604 172.073 232.16C171.653 231.716 171.137 231.494 170.525 231.494C169.913 231.494 169.391 231.716 168.959 232.16C168.539 232.592 168.329 233.192 168.329 233.96C168.329 234.728 168.539 235.34 168.959 235.796C169.391 236.24 169.913 236.462 170.525 236.462C171.137 236.462 171.653 236.24 172.073 235.796C172.505 235.352 172.721 234.746 172.721 233.978ZM189.79 232.52C190.522 232.676 191.11 233.042 191.554 233.618C191.998 234.182 192.22 234.83 192.22 235.562C192.22 236.618 191.848 237.458 191.104 238.082C190.372 238.694 189.346 239 188.026 239H182.14V226.364H187.828C189.112 226.364 190.114 226.658 190.834 227.246C191.566 227.834 191.932 228.632 191.932 229.64C191.932 230.384 191.734 231.002 191.338 231.494C190.954 231.986 190.438 232.328 189.79 232.52ZM185.218 231.476H187.234C187.738 231.476 188.122 231.368 188.386 231.152C188.662 230.924 188.8 230.594 188.8 230.162C188.8 229.73 188.662 229.4 188.386 229.172C188.122 228.944 187.738 228.83 187.234 228.83H185.218V231.476ZM187.486 236.516C188.002 236.516 188.398 236.402 188.674 236.174C188.962 235.934 189.106 235.592 189.106 235.148C189.106 234.704 188.956 234.356 188.656 234.104C188.368 233.852 187.966 233.726 187.45 233.726H185.218V236.516H187.486ZM204.073 228.956V239H200.995V237.632C200.683 238.076 200.257 238.436 199.717 238.712C199.189 238.976 198.601 239.108 197.953 239.108C197.185 239.108 196.507 238.94 195.919 238.604C195.331 238.256 194.875 237.758 194.551 237.11C194.227 236.462 194.065 235.7 194.065 234.824V228.956H197.125V234.41C197.125 235.082 197.299 235.604 197.647 235.976C197.995 236.348 198.463 236.534 199.051 236.534C199.651 236.534 200.125 236.348 200.473 235.976C200.821 235.604 200.995 235.082 200.995 234.41V228.956H204.073ZM207.982 227.912C207.442 227.912 206.998 227.756 206.65 227.444C206.314 227.12 206.146 226.724 206.146 226.256C206.146 225.776 206.314 225.38 206.65 225.068C206.998 224.744 207.442 224.582 207.982 224.582C208.51 224.582 208.942 224.744 209.278 225.068C209.626 225.38 209.8 225.776 209.8 226.256C209.8 226.724 209.626 227.12 209.278 227.444C208.942 227.756 208.51 227.912 207.982 227.912ZM209.512 228.956V239H206.434V228.956H209.512ZM214.971 225.68V239H211.893V225.68H214.971ZM216.739 233.96C216.739 232.928 216.931 232.022 217.315 231.242C217.711 230.462 218.245 229.862 218.917 229.442C219.589 229.022 220.339 228.812 221.167 228.812C221.827 228.812 222.427 228.95 222.967 229.226C223.519 229.502 223.951 229.874 224.263 230.342V225.68H227.341V239H224.263V237.56C223.975 238.04 223.561 238.424 223.021 238.712C222.493 239 221.875 239.144 221.167 239.144C220.339 239.144 219.589 238.934 218.917 238.514C218.245 238.082 217.711 237.476 217.315 236.696C216.931 235.904 216.739 234.992 216.739 233.96ZM224.263 233.978C224.263 233.21 224.047 232.604 223.615 232.16C223.195 231.716 222.679 231.494 222.067 231.494C221.455 231.494 220.933 231.716 220.501 232.16C220.081 232.592 219.871 233.192 219.871 233.96C219.871 234.728 220.081 235.34 220.501 235.796C220.933 236.24 221.455 236.462 222.067 236.462C222.679 236.462 223.195 236.24 223.615 235.796C224.047 235.352 224.263 234.746 224.263 233.978ZM129.022 263.126C128.098 263.126 127.27 262.976 126.538 262.676C125.806 262.376 125.218 261.932 124.774 261.344C124.342 260.756 124.114 260.048 124.09 259.22H127.366C127.414 259.688 127.576 260.048 127.852 260.3C128.128 260.54 128.488 260.66 128.932 260.66C129.388 260.66 129.748 260.558 130.012 260.354C130.276 260.138 130.408 259.844 130.408 259.472C130.408 259.16 130.3 258.902 130.084 258.698C129.88 258.494 129.622 258.326 129.31 258.194C129.01 258.062 128.578 257.912 128.014 257.744C127.198 257.492 126.532 257.24 126.016 256.988C125.5 256.736 125.056 256.364 124.684 255.872C124.312 255.38 124.126 254.738 124.126 253.946C124.126 252.77 124.552 251.852 125.404 251.192C126.256 250.52 127.366 250.184 128.734 250.184C130.126 250.184 131.248 250.52 132.1 251.192C132.952 251.852 133.408 252.776 133.468 253.964H130.138C130.114 253.556 129.964 253.238 129.688 253.01C129.412 252.77 129.058 252.65 128.626 252.65C128.254 252.65 127.954 252.752 127.726 252.956C127.498 253.148 127.384 253.43 127.384 253.802C127.384 254.21 127.576 254.528 127.96 254.756C128.344 254.984 128.944 255.23 129.76 255.494C130.576 255.77 131.236 256.034 131.74 256.286C132.256 256.538 132.7 256.904 133.072 257.384C133.444 257.864 133.63 258.482 133.63 259.238C133.63 259.958 133.444 260.612 133.072 261.2C132.712 261.788 132.184 262.256 131.488 262.604C130.792 262.952 129.97 263.126 129.022 263.126ZM145.142 257.816C145.142 258.104 145.124 258.404 145.088 258.716H138.122C138.17 259.34 138.368 259.82 138.716 260.156C139.076 260.48 139.514 260.642 140.03 260.642C140.798 260.642 141.332 260.318 141.632 259.67H144.908C144.74 260.33 144.434 260.924 143.99 261.452C143.558 261.98 143.012 262.394 142.352 262.694C141.692 262.994 140.954 263.144 140.138 263.144C139.154 263.144 138.278 262.934 137.51 262.514C136.742 262.094 136.142 261.494 135.71 260.714C135.278 259.934 135.062 259.022 135.062 257.978C135.062 256.934 135.272 256.022 135.692 255.242C136.124 254.462 136.724 253.862 137.492 253.442C138.26 253.022 139.142 252.812 140.138 252.812C141.11 252.812 141.974 253.016 142.73 253.424C143.486 253.832 144.074 254.414 144.494 255.17C144.926 255.926 145.142 256.808 145.142 257.816ZM141.992 257.006C141.992 256.478 141.812 256.058 141.452 255.746C141.092 255.434 140.642 255.278 140.102 255.278C139.586 255.278 139.148 255.428 138.788 255.728C138.44 256.028 138.224 256.454 138.14 257.006H141.992ZM149.994 254.63C150.354 254.078 150.804 253.646 151.344 253.334C151.884 253.01 152.484 252.848 153.144 252.848V256.106H152.298C151.53 256.106 150.954 256.274 150.57 256.61C150.186 256.934 149.994 257.51 149.994 258.338V263H146.916V252.956H149.994V254.63ZM159.283 260.12L161.461 252.956H164.737L161.173 263H157.375L153.811 252.956H157.105L159.283 260.12ZM167.731 251.912C167.191 251.912 166.747 251.756 166.399 251.444C166.063 251.12 165.895 250.724 165.895 250.256C165.895 249.776 166.063 249.38 166.399 249.068C166.747 248.744 167.191 248.582 167.731 248.582C168.259 248.582 168.691 248.744 169.027 249.068C169.375 249.38 169.549 249.776 169.549 250.256C169.549 250.724 169.375 251.12 169.027 251.444C168.691 251.756 168.259 251.912 167.731 251.912ZM169.261 252.956V263H166.183V252.956H169.261ZM171.03 257.978C171.03 256.934 171.24 256.022 171.66 255.242C172.092 254.462 172.686 253.862 173.442 253.442C174.21 253.022 175.086 252.812 176.07 252.812C177.33 252.812 178.38 253.142 179.22 253.802C180.072 254.462 180.63 255.392 180.894 256.592H177.618C177.342 255.824 176.808 255.44 176.016 255.44C175.452 255.44 175.002 255.662 174.666 256.106C174.33 256.538 174.162 257.162 174.162 257.978C174.162 258.794 174.33 259.424 174.666 259.868C175.002 260.3 175.452 260.516 176.016 260.516C176.808 260.516 177.342 260.132 177.618 259.364H180.894C180.63 260.54 180.072 261.464 179.22 262.136C178.368 262.808 177.318 263.144 176.07 263.144C175.086 263.144 174.21 262.934 173.442 262.514C172.686 262.094 172.092 261.494 171.66 260.714C171.24 259.934 171.03 259.022 171.03 257.978ZM192.158 257.816C192.158 258.104 192.14 258.404 192.104 258.716H185.138C185.186 259.34 185.384 259.82 185.732 260.156C186.092 260.48 186.53 260.642 187.046 260.642C187.814 260.642 188.348 260.318 188.648 259.67H191.924C191.756 260.33 191.45 260.924 191.006 261.452C190.574 261.98 190.028 262.394 189.368 262.694C188.708 262.994 187.97 263.144 187.154 263.144C186.17 263.144 185.294 262.934 184.526 262.514C183.758 262.094 183.158 261.494 182.726 260.714C182.294 259.934 182.078 259.022 182.078 257.978C182.078 256.934 182.288 256.022 182.708 255.242C183.14 254.462 183.74 253.862 184.508 253.442C185.276 253.022 186.158 252.812 187.154 252.812C188.126 252.812 188.99 253.016 189.746 253.424C190.502 253.832 191.09 254.414 191.51 255.17C191.942 255.926 192.158 256.808 192.158 257.816ZM189.008 257.006C189.008 256.478 188.828 256.058 188.468 255.746C188.108 255.434 187.658 255.278 187.118 255.278C186.602 255.278 186.164 255.428 185.804 255.728C185.456 256.028 185.24 256.454 185.156 257.006H189.008Z" fill="#000E41"/>
<path d="M305.725 226.364V239H302.647V226.364H305.725ZM320.922 228.848C322.17 228.848 323.16 229.226 323.892 229.982C324.636 230.738 325.008 231.788 325.008 233.132V239H321.948V233.546C321.948 232.898 321.774 232.4 321.426 232.052C321.09 231.692 320.622 231.512 320.022 231.512C319.422 231.512 318.948 231.692 318.6 232.052C318.264 232.4 318.096 232.898 318.096 233.546V239H315.036V233.546C315.036 232.898 314.862 232.4 314.514 232.052C314.178 231.692 313.71 231.512 313.11 231.512C312.51 231.512 312.036 231.692 311.688 232.052C311.352 232.4 311.184 232.898 311.184 233.546V239H308.106V228.956H311.184V230.216C311.496 229.796 311.904 229.466 312.408 229.226C312.912 228.974 313.482 228.848 314.118 228.848C314.874 228.848 315.546 229.01 316.134 229.334C316.734 229.658 317.202 230.12 317.538 230.72C317.886 230.168 318.36 229.718 318.96 229.37C319.56 229.022 320.214 228.848 320.922 228.848ZM340.127 228.848C341.375 228.848 342.365 229.226 343.097 229.982C343.841 230.738 344.213 231.788 344.213 233.132V239H341.153V233.546C341.153 232.898 340.979 232.4 340.631 232.052C340.295 231.692 339.827 231.512 339.227 231.512C338.627 231.512 338.153 231.692 337.805 232.052C337.469 232.4 337.301 232.898 337.301 233.546V239H334.241V233.546C334.241 232.898 334.067 232.4 333.719 232.052C333.383 231.692 332.915 231.512 332.315 231.512C331.715 231.512 331.241 231.692 330.893 232.052C330.557 232.4 330.389 232.898 330.389 233.546V239H327.311V228.956H330.389V230.216C330.701 229.796 331.109 229.466 331.613 229.226C332.117 228.974 332.687 228.848 333.323 228.848C334.079 228.848 334.751 229.01 335.339 229.334C335.939 229.658 336.407 230.12 336.743 230.72C337.091 230.168 337.565 229.718 338.165 229.37C338.765 229.022 339.419 228.848 340.127 228.848ZM356.433 228.956V239H353.355V237.632C353.043 238.076 352.617 238.436 352.077 238.712C351.549 238.976 350.961 239.108 350.313 239.108C349.545 239.108 348.867 238.94 348.279 238.604C347.691 238.256 347.235 237.758 346.911 237.11C346.587 236.462 346.425 235.7 346.425 234.824V228.956H349.485V234.41C349.485 235.082 349.659 235.604 350.007 235.976C350.355 236.348 350.823 236.534 351.411 236.534C352.011 236.534 352.485 236.348 352.833 235.976C353.181 235.604 353.355 235.082 353.355 234.41V228.956H356.433ZM364.392 236.39V239H362.826C361.71 239 360.84 238.73 360.216 238.19C359.592 237.638 359.28 236.744 359.28 235.508V231.512H358.056V228.956H359.28V226.508H362.358V228.956H364.374V231.512H362.358V235.544C362.358 235.844 362.43 236.06 362.574 236.192C362.718 236.324 362.958 236.39 363.294 236.39H364.392ZM365.645 233.96C365.645 232.928 365.837 232.022 366.221 231.242C366.617 230.462 367.151 229.862 367.823 229.442C368.495 229.022 369.245 228.812 370.073 228.812C370.781 228.812 371.399 228.956 371.927 229.244C372.467 229.532 372.881 229.91 373.169 230.378V228.956H376.247V239H373.169V237.578C372.869 238.046 372.449 238.424 371.909 238.712C371.381 239 370.763 239.144 370.055 239.144C369.239 239.144 368.495 238.934 367.823 238.514C367.151 238.082 366.617 237.476 366.221 236.696C365.837 235.904 365.645 234.992 365.645 233.96ZM373.169 233.978C373.169 233.21 372.953 232.604 372.521 232.16C372.101 231.716 371.585 231.494 370.973 231.494C370.361 231.494 369.839 231.716 369.407 232.16C368.987 232.592 368.777 233.192 368.777 233.96C368.777 234.728 368.987 235.34 369.407 235.796C369.839 236.24 370.361 236.462 370.973 236.462C371.585 236.462 372.101 236.24 372.521 235.796C372.953 235.352 373.169 234.746 373.169 233.978ZM381.701 230.378C381.989 229.91 382.403 229.532 382.943 229.244C383.483 228.956 384.101 228.812 384.797 228.812C385.625 228.812 386.375 229.022 387.047 229.442C387.719 229.862 388.247 230.462 388.631 231.242C389.027 232.022 389.225 232.928 389.225 233.96C389.225 234.992 389.027 235.904 388.631 236.696C388.247 237.476 387.719 238.082 387.047 238.514C386.375 238.934 385.625 239.144 384.797 239.144C384.089 239.144 383.471 239.006 382.943 238.73C382.415 238.442 382.001 238.064 381.701 237.596V239H378.623V225.68H381.701V230.378ZM386.093 233.96C386.093 233.192 385.877 232.592 385.445 232.16C385.025 231.716 384.503 231.494 383.879 231.494C383.267 231.494 382.745 231.716 382.313 232.16C381.893 232.604 381.683 233.21 381.683 233.978C381.683 234.746 381.893 235.352 382.313 235.796C382.745 236.24 383.267 236.462 383.879 236.462C384.491 236.462 385.013 236.24 385.445 235.796C385.877 235.34 386.093 234.728 386.093 233.96ZM394.068 225.68V239H390.99V225.68H394.068ZM405.917 233.816C405.917 234.104 405.899 234.404 405.863 234.716H398.897C398.945 235.34 399.143 235.82 399.491 236.156C399.851 236.48 400.289 236.642 400.805 236.642C401.573 236.642 402.107 236.318 402.407 235.67H405.683C405.515 236.33 405.209 236.924 404.765 237.452C404.333 237.98 403.787 238.394 403.127 238.694C402.467 238.994 401.729 239.144 400.913 239.144C399.929 239.144 399.053 238.934 398.285 238.514C397.517 238.094 396.917 237.494 396.485 236.714C396.053 235.934 395.837 235.022 395.837 233.978C395.837 232.934 396.047 232.022 396.467 231.242C396.899 230.462 397.499 229.862 398.267 229.442C399.035 229.022 399.917 228.812 400.913 228.812C401.885 228.812 402.749 229.016 403.505 229.424C404.261 229.832 404.849 230.414 405.269 231.17C405.701 231.926 405.917 232.808 405.917 233.816ZM402.767 233.006C402.767 232.478 402.587 232.058 402.227 231.746C401.867 231.434 401.417 231.278 400.877 231.278C400.361 231.278 399.923 231.428 399.563 231.728C399.215 232.028 398.999 232.454 398.915 233.006H402.767ZM414.733 230.378C415.021 229.91 415.435 229.532 415.975 229.244C416.515 228.956 417.133 228.812 417.829 228.812C418.657 228.812 419.407 229.022 420.079 229.442C420.751 229.862 421.279 230.462 421.663 231.242C422.059 232.022 422.257 232.928 422.257 233.96C422.257 234.992 422.059 235.904 421.663 236.696C421.279 237.476 420.751 238.082 420.079 238.514C419.407 238.934 418.657 239.144 417.829 239.144C417.121 239.144 416.503 239.006 415.975 238.73C415.447 238.442 415.033 238.064 414.733 237.596V239H411.655V225.68H414.733V230.378ZM419.125 233.96C419.125 233.192 418.909 232.592 418.477 232.16C418.057 231.716 417.535 231.494 416.911 231.494C416.299 231.494 415.777 231.716 415.345 232.16C414.925 232.604 414.715 233.21 414.715 233.978C414.715 234.746 414.925 235.352 415.345 235.796C415.777 236.24 416.299 236.462 416.911 236.462C417.523 236.462 418.045 236.24 418.477 235.796C418.909 235.34 419.125 234.728 419.125 233.96ZM433.94 228.956V239H430.862V237.632C430.55 238.076 430.124 238.436 429.584 238.712C429.056 238.976 428.468 239.108 427.82 239.108C427.052 239.108 426.374 238.94 425.786 238.604C425.198 238.256 424.742 237.758 424.418 237.11C424.094 236.462 423.932 235.7 423.932 234.824V228.956H426.992V234.41C426.992 235.082 427.166 235.604 427.514 235.976C427.862 236.348 428.33 236.534 428.918 236.534C429.518 236.534 429.992 236.348 430.34 235.976C430.688 235.604 430.862 235.082 430.862 234.41V228.956H433.94ZM437.849 227.912C437.309 227.912 436.865 227.756 436.517 227.444C436.181 227.12 436.013 226.724 436.013 226.256C436.013 225.776 436.181 225.38 436.517 225.068C436.865 224.744 437.309 224.582 437.849 224.582C438.377 224.582 438.809 224.744 439.145 225.068C439.493 225.38 439.667 225.776 439.667 226.256C439.667 226.724 439.493 227.12 439.145 227.444C438.809 227.756 438.377 227.912 437.849 227.912ZM439.379 228.956V239H436.301V228.956H439.379ZM444.837 225.68V239H441.759V225.68H444.837ZM446.606 233.96C446.606 232.928 446.798 232.022 447.182 231.242C447.578 230.462 448.112 229.862 448.784 229.442C449.456 229.022 450.206 228.812 451.034 228.812C451.694 228.812 452.294 228.95 452.834 229.226C453.386 229.502 453.818 229.874 454.13 230.342V225.68H457.208V239H454.13V237.56C453.842 238.04 453.428 238.424 452.888 238.712C452.36 239 451.742 239.144 451.034 239.144C450.206 239.144 449.456 238.934 448.784 238.514C448.112 238.082 447.578 237.476 447.182 236.696C446.798 235.904 446.606 234.992 446.606 233.96ZM454.13 233.978C454.13 233.21 453.914 232.604 453.482 232.16C453.062 231.716 452.546 231.494 451.934 231.494C451.322 231.494 450.8 231.716 450.368 232.16C449.948 232.592 449.738 233.192 449.738 233.96C449.738 234.728 449.948 235.34 450.368 235.796C450.8 236.24 451.322 236.462 451.934 236.462C452.546 236.462 453.062 236.24 453.482 235.796C453.914 235.352 454.13 234.746 454.13 233.978ZM329.497 257.816C329.497 258.104 329.479 258.404 329.443 258.716H322.477C322.525 259.34 322.723 259.82 323.071 260.156C323.431 260.48 323.869 260.642 324.385 260.642C325.153 260.642 325.687 260.318 325.987 259.67H329.263C329.095 260.33 328.789 260.924 328.345 261.452C327.913 261.98 327.367 262.394 326.707 262.694C326.047 262.994 325.309 263.144 324.493 263.144C323.509 263.144 322.633 262.934 321.865 262.514C321.097 262.094 320.497 261.494 320.065 260.714C319.633 259.934 319.417 259.022 319.417 257.978C319.417 256.934 319.627 256.022 320.047 255.242C320.479 254.462 321.079 253.862 321.847 253.442C322.615 253.022 323.497 252.812 324.493 252.812C325.465 252.812 326.329 253.016 327.085 253.424C327.841 253.832 328.429 254.414 328.849 255.17C329.281 255.926 329.497 256.808 329.497 257.816ZM326.347 257.006C326.347 256.478 326.167 256.058 325.807 255.746C325.447 255.434 324.997 255.278 324.457 255.278C323.941 255.278 323.503 255.428 323.143 255.728C322.795 256.028 322.579 256.454 322.495 257.006H326.347ZM337.391 252.848C338.567 252.848 339.503 253.232 340.199 254C340.907 254.756 341.261 255.8 341.261 257.132V263H338.201V257.546C338.201 256.874 338.027 256.352 337.679 255.98C337.331 255.608 336.863 255.422 336.275 255.422C335.687 255.422 335.219 255.608 334.871 255.98C334.523 256.352 334.349 256.874 334.349 257.546V263H331.271V252.956H334.349V254.288C334.661 253.844 335.081 253.496 335.609 253.244C336.137 252.98 336.731 252.848 337.391 252.848ZM348.068 260.12L350.246 252.956H353.522L349.958 263H346.16L342.596 252.956H345.89L348.068 260.12ZM356.515 251.912C355.975 251.912 355.531 251.756 355.183 251.444C354.847 251.12 354.679 250.724 354.679 250.256C354.679 249.776 354.847 249.38 355.183 249.068C355.531 248.744 355.975 248.582 356.515 248.582C357.043 248.582 357.475 248.744 357.811 249.068C358.159 249.38 358.333 249.776 358.333 250.256C358.333 250.724 358.159 251.12 357.811 251.444C357.475 251.756 357.043 251.912 356.515 251.912ZM358.045 252.956V263H354.967V252.956H358.045ZM363.504 254.63C363.864 254.078 364.314 253.646 364.854 253.334C365.394 253.01 365.994 252.848 366.654 252.848V256.106H365.808C365.04 256.106 364.464 256.274 364.08 256.61C363.696 256.934 363.504 257.51 363.504 258.338V263H360.426V252.956H363.504V254.63ZM372.847 263.144C371.863 263.144 370.975 262.934 370.183 262.514C369.403 262.094 368.785 261.494 368.329 260.714C367.885 259.934 367.663 259.022 367.663 257.978C367.663 256.946 367.891 256.04 368.347 255.26C368.803 254.468 369.427 253.862 370.219 253.442C371.011 253.022 371.899 252.812 372.883 252.812C373.867 252.812 374.755 253.022 375.547 253.442C376.339 253.862 376.963 254.468 377.419 255.26C377.875 256.04 378.103 256.946 378.103 257.978C378.103 259.01 377.869 259.922 377.401 260.714C376.945 261.494 376.315 262.094 375.511 262.514C374.719 262.934 373.831 263.144 372.847 263.144ZM372.847 260.48C373.435 260.48 373.933 260.264 374.341 259.832C374.761 259.4 374.971 258.782 374.971 257.978C374.971 257.174 374.767 256.556 374.359 256.124C373.963 255.692 373.471 255.476 372.883 255.476C372.283 255.476 371.785 255.692 371.389 256.124C370.993 256.544 370.795 257.162 370.795 257.978C370.795 258.782 370.987 259.4 371.371 259.832C371.767 260.264 372.259 260.48 372.847 260.48ZM386.006 252.848C387.182 252.848 388.118 253.232 388.814 254C389.522 254.756 389.876 255.8 389.876 257.132V263H386.816V257.546C386.816 256.874 386.642 256.352 386.294 255.98C385.946 255.608 385.478 255.422 384.89 255.422C384.302 255.422 383.834 255.608 383.486 255.98C383.138 256.352 382.964 256.874 382.964 257.546V263H379.886V252.956H382.964V254.288C383.276 253.844 383.696 253.496 384.224 253.244C384.752 252.98 385.346 252.848 386.006 252.848ZM404.981 252.848C406.229 252.848 407.219 253.226 407.951 253.982C408.695 254.738 409.067 255.788 409.067 257.132V263H406.007V257.546C406.007 256.898 405.833 256.4 405.485 256.052C405.149 255.692 404.681 255.512 404.081 255.512C403.481 255.512 403.007 255.692 402.659 256.052C402.323 256.4 402.155 256.898 402.155 257.546V263H399.095V257.546C399.095 256.898 398.921 256.4 398.573 256.052C398.237 255.692 397.769 255.512 397.169 255.512C396.569 255.512 396.095 255.692 395.747 256.052C395.411 256.4 395.243 256.898 395.243 257.546V263H392.165V252.956H395.243V254.216C395.555 253.796 395.963 253.466 396.467 253.226C396.971 252.974 397.541 252.848 398.177 252.848C398.933 252.848 399.605 253.01 400.193 253.334C400.793 253.658 401.261 254.12 401.597 254.72C401.945 254.168 402.419 253.718 403.019 253.37C403.619 253.022 404.273 252.848 404.981 252.848ZM420.838 257.816C420.838 258.104 420.82 258.404 420.784 258.716H413.818C413.866 259.34 414.064 259.82 414.412 260.156C414.772 260.48 415.21 260.642 415.726 260.642C416.494 260.642 417.028 260.318 417.328 259.67H420.604C420.436 260.33 420.13 260.924 419.686 261.452C419.254 261.98 418.708 262.394 418.048 262.694C417.388 262.994 416.65 263.144 415.834 263.144C414.85 263.144 413.974 262.934 413.206 262.514C412.438 262.094 411.838 261.494 411.406 260.714C410.974 259.934 410.758 259.022 410.758 257.978C410.758 256.934 410.968 256.022 411.388 255.242C411.82 254.462 412.42 253.862 413.188 253.442C413.956 253.022 414.838 252.812 415.834 252.812C416.806 252.812 417.67 253.016 418.426 253.424C419.182 253.832 419.77 254.414 420.19 255.17C420.622 255.926 420.838 256.808 420.838 257.816ZM417.688 257.006C417.688 256.478 417.508 256.058 417.148 255.746C416.788 255.434 416.338 255.278 415.798 255.278C415.282 255.278 414.844 255.428 414.484 255.728C414.136 256.028 413.92 256.454 413.836 257.006H417.688ZM428.732 252.848C429.908 252.848 430.844 253.232 431.54 254C432.248 254.756 432.602 255.8 432.602 257.132V263H429.542V257.546C429.542 256.874 429.368 256.352 429.02 255.98C428.672 255.608 428.204 255.422 427.616 255.422C427.028 255.422 426.56 255.608 426.212 255.98C425.864 256.352 425.69 256.874 425.69 257.546V263H422.612V252.956H425.69V254.288C426.002 253.844 426.422 253.496 426.95 253.244C427.478 252.98 428.072 252.848 428.732 252.848ZM440.488 260.39V263H438.922C437.806 263 436.936 262.73 436.312 262.19C435.688 261.638 435.376 260.744 435.376 259.508V255.512H434.152V252.956H435.376V250.508H438.454V252.956H440.47V255.512H438.454V259.544C438.454 259.844 438.526 260.06 438.67 260.192C438.814 260.324 439.054 260.39 439.39 260.39H440.488Z" fill="#000E41"/>
<path d="M419.862 204H341.138C338.854 204 337 202.146 337 199.862V121.138C337 118.854 338.854 117 341.138 117H419.862C422.146 117 424 118.854 424 121.138V199.862C424 202.146 422.146 204 419.862 204ZM341.138 119.759C340.38 119.759 339.759 120.38 339.759 121.138V199.862C339.759 200.62 340.38 201.241 341.138 201.241H419.862C420.62 201.241 421.241 200.62 421.241 199.862V121.138C421.241 120.38 420.62 119.759 419.862 119.759H341.138Z" fill="#000E41" stroke="#000E41" stroke-width="2" stroke-linejoin="round"/>
<path d="M372.814 156.004H353.062C351.536 156.004 350.303 154.771 350.303 153.245V133.493C350.303 131.967 351.536 130.734 353.062 130.734H372.814C374.34 130.734 375.573 131.967 375.573 133.493V153.245C375.573 154.771 374.34 156.004 372.814 156.004Z" fill="#969BAC" stroke="#000E41" stroke-width="2"/>
<path d="M372.814 157.383H353.062C350.777 157.383 348.924 155.529 348.924 153.245V133.493C348.924 131.208 350.777 129.354 353.062 129.354H372.814C375.099 129.354 376.952 131.208 376.952 133.493V153.245C376.952 155.529 375.099 157.383 372.814 157.383ZM353.062 132.113C352.303 132.113 351.682 132.734 351.682 133.493V153.245C351.682 154.003 352.303 154.624 353.062 154.624H372.814C373.573 154.624 374.193 154.003 374.193 153.245V133.493C374.193 132.734 373.573 132.113 372.814 132.113H353.062Z" fill="#000E41" stroke="#000E41" stroke-width="2"/>
<path d="M406.283 156.004H386.531C385.005 156.004 383.772 154.771 383.772 153.245V133.493C383.772 131.967 385.005 130.734 386.531 130.734H406.283C407.809 130.734 409.042 131.967 409.042 133.493V153.245C409.042 154.771 407.8 156.004 406.283 156.004Z" fill="#969BAC" stroke="#000E41" stroke-width="2"/>
<path d="M406.283 157.383H386.531C384.246 157.383 382.392 155.529 382.392 153.245V133.493C382.392 131.208 384.246 129.354 386.531 129.354H406.283C408.567 129.354 410.421 131.208 410.421 133.493V153.245C410.421 155.529 408.559 157.383 406.283 157.383ZM386.531 132.113C385.772 132.113 385.151 132.734 385.151 133.493V153.245C385.151 154.003 385.772 154.624 386.531 154.624H406.283C407.041 154.624 407.662 154.003 407.662 153.245V133.493C407.662 132.734 407.041 132.113 406.283 132.113H386.531Z" fill="#000E41" stroke="#000E41" stroke-width="2"/>
<path d="M372.814 190.266H353.062C351.536 190.266 350.303 189.033 350.303 187.507V167.747C350.303 166.221 351.536 164.988 353.062 164.988H372.814C374.34 164.988 375.573 166.221 375.573 167.747V187.499C375.573 189.025 374.34 190.266 372.814 190.266Z" fill="#969BAC" stroke="#000E41" stroke-width="2"/>
<path d="M372.814 191.646H353.062C350.777 191.646 348.924 189.792 348.924 187.507V167.747C348.924 165.462 350.777 163.608 353.062 163.608H372.814C375.099 163.608 376.952 165.462 376.952 167.747V187.499C376.952 189.783 375.099 191.646 372.814 191.646ZM353.062 166.367C352.303 166.367 351.682 166.988 351.682 167.747V187.499C351.682 188.257 352.303 188.878 353.062 188.878H372.814C373.573 188.878 374.193 188.257 374.193 187.499V167.747C374.193 166.988 373.573 166.367 372.814 166.367H353.062Z" fill="#000E41" stroke="#000E41" stroke-width="2"/>
<path d="M406.283 190.266H386.531C385.005 190.266 383.772 189.033 383.772 187.507V167.747C383.772 166.221 385.005 164.988 386.531 164.988H406.283C407.809 164.988 409.042 166.221 409.042 167.747V187.499C409.042 189.025 407.8 190.266 406.283 190.266Z" fill="#969BAC" stroke="#000E41" stroke-width="2"/>
<path d="M406.283 191.646H386.531C384.246 191.646 382.392 189.792 382.392 187.507V167.747C382.392 165.462 384.246 163.608 386.531 163.608H406.283C408.567 163.608 410.421 165.462 410.421 167.747V187.499C410.421 189.783 408.559 191.646 406.283 191.646ZM386.531 166.367C385.772 166.367 385.151 166.988 385.151 167.747V187.499C385.151 188.257 385.772 188.878 386.531 188.878H406.283C407.041 188.878 407.662 188.257 407.662 187.499V167.747C407.662 166.988 407.041 166.367 406.283 166.367H386.531Z" fill="#000E41" stroke="#000E41" stroke-width="2"/>
<ellipse cx="380.5" cy="159.942" rx="22.3077" ry="25.0962" fill="#969BAC"/>
<path d="M392.034 146.09C391.927 146.09 391.82 146.071 391.714 146.04C391.608 146.009 391.502 145.966 391.399 145.918C391.296 145.87 391.194 145.817 391.095 145.765C390.996 145.714 390.9 145.663 390.806 145.621C390.689 145.569 390.571 145.517 390.453 145.465C390.334 145.413 390.216 145.363 390.097 145.313C389.978 145.263 389.859 145.214 389.739 145.166C389.619 145.117 389.499 145.07 389.379 145.023C389.172 144.942 388.963 144.864 388.754 144.788C388.544 144.713 388.333 144.64 388.122 144.57C387.91 144.5 387.697 144.432 387.483 144.368C387.27 144.303 387.055 144.242 386.839 144.184C386.419 144.07 385.996 143.969 385.57 143.881C385.144 143.792 384.715 143.716 384.284 143.652C383.853 143.588 383.42 143.535 382.985 143.495C382.551 143.454 382.115 143.425 381.678 143.407C380.754 143.37 379.829 143.38 378.909 143.439C377.99 143.498 377.075 143.606 376.17 143.763C375.265 143.92 374.371 144.127 373.493 144.384C372.614 144.642 371.752 144.95 370.91 145.31C370.752 145.377 370.579 145.471 370.396 145.57C370.214 145.669 370.021 145.774 369.826 145.862C369.631 145.95 369.433 146.023 369.239 146.058C369.045 146.093 368.854 146.091 368.673 146.03C368.504 145.972 368.364 145.878 368.258 145.761C368.152 145.644 368.08 145.505 368.045 145.358C368.01 145.211 368.012 145.057 368.057 144.909C368.101 144.762 368.186 144.622 368.317 144.504C368.387 144.441 368.468 144.384 368.555 144.332C368.642 144.28 368.735 144.233 368.83 144.189C368.925 144.144 369.022 144.103 369.117 144.063C369.213 144.023 369.306 143.984 369.393 143.944C369.498 143.895 369.604 143.848 369.71 143.801C369.815 143.754 369.921 143.708 370.028 143.662C370.135 143.617 370.242 143.572 370.349 143.528C370.456 143.484 370.564 143.44 370.672 143.397C370.88 143.315 371.089 143.235 371.299 143.158C371.509 143.081 371.72 143.006 371.933 142.935C372.145 142.863 372.359 142.794 372.573 142.728C372.788 142.661 373.003 142.598 373.219 142.537C374.094 142.291 374.983 142.091 375.882 141.936C376.781 141.781 377.69 141.671 378.603 141.607C379.515 141.543 380.432 141.524 381.346 141.55C382.26 141.576 383.172 141.648 384.077 141.765C384.575 141.83 385.07 141.909 385.562 142.004C386.054 142.098 386.543 142.207 387.027 142.33C387.512 142.452 387.992 142.589 388.468 142.739C388.944 142.888 389.416 143.051 389.882 143.226C390.002 143.271 390.121 143.316 390.24 143.363C390.359 143.409 390.478 143.456 390.597 143.504C390.715 143.552 390.833 143.601 390.951 143.65C391.069 143.699 391.186 143.749 391.303 143.8C391.414 143.848 391.535 143.895 391.66 143.944C391.784 143.993 391.912 144.043 392.038 144.097C392.163 144.151 392.286 144.209 392.4 144.273C392.514 144.336 392.62 144.406 392.711 144.484C392.87 144.621 392.962 144.79 392.996 144.966C393.031 145.142 393.008 145.325 392.938 145.492C392.868 145.658 392.751 145.807 392.597 145.915C392.443 146.023 392.252 146.089 392.034 146.089L392.034 146.09ZM363.651 155.75C363.494 155.75 363.346 155.716 363.215 155.656C363.084 155.596 362.969 155.51 362.878 155.406C362.787 155.302 362.719 155.181 362.684 155.049C362.648 154.918 362.643 154.777 362.677 154.635C362.709 154.5 362.772 154.365 362.854 154.231C362.936 154.098 363.037 153.966 363.145 153.838C363.254 153.71 363.37 153.586 363.481 153.468C363.594 153.35 363.701 153.238 363.794 153.134C364.018 152.881 364.25 152.633 364.487 152.39C364.725 152.148 364.969 151.912 365.22 151.681C365.47 151.45 365.727 151.225 365.99 151.007C366.254 150.789 366.523 150.576 366.798 150.371C367.339 149.967 367.902 149.591 368.484 149.241C369.066 148.892 369.667 148.57 370.284 148.276C370.9 147.983 371.533 147.717 372.178 147.481C372.823 147.245 373.48 147.037 374.147 146.86C375.501 146.499 376.895 146.255 378.302 146.13C379.71 146.004 381.132 145.998 382.541 146.11C383.952 146.223 385.349 146.455 386.71 146.807C388.07 147.159 389.393 147.632 390.652 148.227C391.269 148.518 391.869 148.837 392.45 149.183C393.031 149.528 393.593 149.9 394.134 150.298C394.675 150.695 395.194 151.118 395.689 151.564C396.185 152.009 396.656 152.479 397.102 152.97C397.201 153.08 397.315 153.196 397.433 153.318C397.55 153.44 397.672 153.567 397.786 153.697C397.901 153.828 398.008 153.962 398.098 154.099C398.188 154.236 398.261 154.375 398.306 154.514C398.349 154.648 398.356 154.782 398.334 154.911C398.312 155.039 398.261 155.161 398.186 155.269C398.111 155.377 398.013 155.472 397.896 155.544C397.779 155.616 397.645 155.667 397.497 155.688C397.326 155.713 397.178 155.698 397.046 155.654C396.915 155.61 396.8 155.538 396.696 155.449C396.592 155.361 396.497 155.255 396.407 155.145C396.316 155.035 396.23 154.919 396.14 154.811C396.032 154.68 395.922 154.549 395.809 154.421C395.697 154.292 395.582 154.165 395.466 154.039C395.35 153.914 395.232 153.789 395.113 153.667C394.993 153.544 394.871 153.423 394.748 153.303C393.768 152.356 392.681 151.53 391.513 150.828C390.346 150.125 389.098 149.546 387.797 149.093C386.496 148.639 385.143 148.311 383.764 148.11C382.385 147.909 380.98 147.836 379.578 147.891C378.163 147.948 376.767 148.138 375.414 148.456C374.06 148.774 372.75 149.221 371.505 149.789C370.26 150.358 369.082 151.049 367.994 151.856C366.906 152.664 365.909 153.588 365.026 154.623C364.933 154.731 364.844 154.856 364.751 154.982C364.658 155.108 364.562 155.235 364.457 155.349C364.351 155.463 364.235 155.563 364.103 155.635C363.971 155.707 363.822 155.751 363.651 155.751V155.75ZM376.048 177.96C375.858 177.96 375.672 177.898 375.492 177.798C375.313 177.698 375.139 177.559 374.975 177.405C374.81 177.252 374.655 177.083 374.511 176.923C374.368 176.763 374.236 176.612 374.12 176.492C373.991 176.36 373.865 176.226 373.741 176.091C373.616 175.956 373.495 175.819 373.375 175.681C373.255 175.542 373.138 175.402 373.024 175.259C372.909 175.117 372.797 174.973 372.688 174.827C372.427 174.48 372.176 174.124 371.937 173.761C371.698 173.399 371.471 173.028 371.259 172.651C371.046 172.274 370.849 171.891 370.669 171.5C370.489 171.109 370.326 170.712 370.184 170.309C369.918 169.554 369.696 168.764 369.537 167.957C369.378 167.151 369.281 166.328 369.265 165.507C369.25 164.687 369.314 163.869 369.477 163.073C369.64 162.276 369.901 161.5 370.279 160.764C370.97 159.416 371.956 158.283 373.134 157.385C374.312 156.487 375.682 155.825 377.139 155.419C378.596 155.014 380.14 154.865 381.667 154.995C383.194 155.124 384.705 155.532 386.094 156.239C386.751 156.573 387.37 156.968 387.94 157.416C388.509 157.863 389.03 158.362 389.491 158.904C389.951 159.447 390.352 160.032 390.682 160.652C391.012 161.271 391.272 161.925 391.45 162.604C391.494 162.775 391.535 162.949 391.57 163.123C391.606 163.298 391.636 163.473 391.661 163.65C391.686 163.826 391.705 164.004 391.718 164.181C391.73 164.358 391.737 164.535 391.737 164.712C391.737 164.889 391.695 165.058 391.621 165.208C391.546 165.357 391.439 165.487 391.308 165.584C391.177 165.68 391.021 165.744 390.85 165.762C390.679 165.779 390.493 165.75 390.299 165.662C390.115 165.578 389.989 165.458 389.903 165.314C389.817 165.17 389.771 165.004 389.745 164.828C389.719 164.653 389.713 164.468 389.708 164.288C389.702 164.108 389.698 163.933 389.674 163.776C389.648 163.605 389.616 163.434 389.577 163.264C389.539 163.095 389.494 162.927 389.443 162.76C389.392 162.594 389.336 162.429 389.273 162.266C389.21 162.103 389.141 161.941 389.067 161.782C388.413 160.39 387.395 159.279 386.168 158.464C384.941 157.648 383.503 157.128 382.01 156.917C380.516 156.706 378.967 156.804 377.515 157.226C376.064 157.648 374.71 158.393 373.607 159.475C373.353 159.725 373.116 159.99 372.897 160.267C372.679 160.545 372.479 160.835 372.301 161.135C372.123 161.436 371.965 161.747 371.831 162.067C371.697 162.387 371.585 162.716 371.498 163.05C371.395 163.446 371.328 163.85 371.291 164.259C371.254 164.667 371.245 165.081 371.26 165.494C371.276 165.906 371.314 166.32 371.368 166.728C371.423 167.137 371.494 167.542 371.576 167.937C371.666 168.373 371.779 168.799 371.913 169.217C372.047 169.634 372.202 170.043 372.376 170.445C372.551 170.847 372.745 171.242 372.958 171.631C373.171 172.02 373.401 172.402 373.649 172.78C373.862 173.106 374.088 173.418 374.323 173.721C374.559 174.023 374.806 174.315 375.06 174.601C375.315 174.887 375.577 175.167 375.847 175.444C376.116 175.722 376.392 175.997 376.672 176.273C376.824 176.422 376.927 176.602 376.98 176.788C377.033 176.974 377.035 177.166 376.986 177.34C376.937 177.513 376.835 177.668 376.68 177.78C376.524 177.891 376.314 177.959 376.049 177.959L376.048 177.96ZM390.269 174.556C389.531 174.556 388.804 174.496 388.096 174.375C387.387 174.254 386.698 174.072 386.036 173.83C385.374 173.587 384.739 173.282 384.138 172.916C383.538 172.55 382.973 172.122 382.451 171.632C381.992 171.2 381.566 170.718 381.187 170.2C380.807 169.682 380.475 169.127 380.203 168.549C379.93 167.971 379.718 167.37 379.58 166.759C379.442 166.148 379.378 165.528 379.4 164.911C379.405 164.767 379.436 164.629 379.491 164.503C379.545 164.377 379.622 164.265 379.72 164.173C379.818 164.081 379.935 164.009 380.071 163.966C380.206 163.922 380.36 163.907 380.527 163.928C380.713 163.951 380.858 164.006 380.971 164.084C381.085 164.162 381.167 164.263 381.227 164.379C381.287 164.495 381.325 164.626 381.349 164.763C381.374 164.901 381.385 165.045 381.392 165.187C381.407 165.496 381.443 165.803 381.499 166.107C381.554 166.411 381.629 166.711 381.723 167.007C381.818 167.302 381.931 167.592 382.062 167.875C382.193 168.159 382.342 168.435 382.509 168.702C382.862 169.269 383.283 169.785 383.759 170.243C384.236 170.702 384.768 171.103 385.344 171.441C385.92 171.779 386.539 172.053 387.189 172.258C387.839 172.462 388.52 172.597 389.22 172.655C389.427 172.673 389.634 172.684 389.841 172.69C390.047 172.695 390.254 172.696 390.461 172.691C390.667 172.686 390.873 172.676 391.08 172.661C391.286 172.646 391.492 172.626 391.698 172.602C391.871 172.581 392.055 172.557 392.236 172.544C392.417 172.532 392.596 172.532 392.76 172.561C392.924 172.589 393.073 172.646 393.194 172.748C393.316 172.85 393.411 172.997 393.466 173.206C393.561 173.565 393.467 173.83 393.258 174.024C393.05 174.218 392.727 174.342 392.362 174.421C391.998 174.5 391.592 174.533 391.219 174.547C390.846 174.562 390.504 174.556 390.269 174.556V174.556ZM386.282 178.346C386.171 178.346 386.056 178.333 385.939 178.31C385.822 178.287 385.704 178.256 385.586 178.22C385.469 178.185 385.353 178.145 385.239 178.106C385.126 178.068 385.015 178.03 384.91 177.998C384.787 177.96 384.666 177.922 384.544 177.882C384.422 177.843 384.301 177.802 384.18 177.76C384.06 177.719 383.939 177.676 383.82 177.631C383.7 177.587 383.581 177.542 383.462 177.495C383.263 177.416 383.066 177.334 382.87 177.248C382.675 177.162 382.481 177.072 382.29 176.978C382.099 176.884 381.911 176.786 381.724 176.684C381.538 176.582 381.354 176.475 381.173 176.365C380.779 176.125 380.394 175.867 380.022 175.594C379.65 175.32 379.291 175.03 378.946 174.726C378.602 174.422 378.272 174.103 377.959 173.772C377.646 173.441 377.351 173.097 377.075 172.742C376.788 172.374 376.522 171.992 376.278 171.599C376.033 171.206 375.811 170.801 375.611 170.388C375.411 169.974 375.233 169.551 375.079 169.12C374.925 168.689 374.794 168.251 374.688 167.808C374.593 167.41 374.507 166.997 374.443 166.578C374.379 166.16 374.336 165.734 374.327 165.311C374.318 164.887 374.342 164.465 374.412 164.052C374.482 163.639 374.597 163.236 374.77 162.849C375.102 162.107 375.598 161.473 376.204 160.961C376.81 160.448 377.525 160.056 378.295 159.8C379.065 159.543 379.89 159.421 380.715 159.447C381.54 159.473 382.365 159.647 383.136 159.982C383.504 160.142 383.853 160.336 384.179 160.56C384.504 160.784 384.805 161.037 385.076 161.315C385.347 161.593 385.588 161.897 385.792 162.22C385.996 162.544 386.164 162.889 386.29 163.249C386.355 163.436 386.399 163.625 386.43 163.813C386.462 164.001 386.481 164.19 386.497 164.379C386.513 164.568 386.527 164.757 386.546 164.946C386.566 165.136 386.592 165.325 386.634 165.514C386.674 165.697 386.731 165.875 386.803 166.047C386.874 166.22 386.961 166.387 387.062 166.546C387.163 166.706 387.277 166.858 387.403 167.002C387.529 167.146 387.667 167.28 387.815 167.405C388.134 167.672 388.494 167.887 388.879 168.048C389.264 168.209 389.674 168.317 390.092 168.369C390.51 168.422 390.937 168.42 391.355 168.361C391.774 168.303 392.184 168.188 392.57 168.017C392.966 167.84 393.308 167.621 393.597 167.365C393.886 167.11 394.122 166.819 394.306 166.502C394.49 166.184 394.622 165.839 394.704 165.475C394.786 165.11 394.817 164.727 394.799 164.332C394.765 163.578 394.651 162.833 394.464 162.105C394.277 161.378 394.016 160.669 393.689 159.987C393.362 159.306 392.967 158.651 392.512 158.033C392.057 157.415 391.542 156.833 390.972 156.297C389.723 155.121 388.265 154.201 386.692 153.542C385.119 152.882 383.429 152.484 381.714 152.35C379.999 152.217 378.258 152.349 376.584 152.75C374.909 153.151 373.301 153.822 371.849 154.766C371.075 155.27 370.361 155.842 369.72 156.471C369.078 157.1 368.509 157.787 368.025 158.52C367.54 159.254 367.14 160.034 366.837 160.85C366.533 161.666 366.326 162.519 366.229 163.397C366.187 163.772 366.161 164.151 366.15 164.53C366.139 164.909 366.143 165.289 366.161 165.669C366.179 166.048 366.211 166.428 366.255 166.805C366.3 167.182 366.357 167.558 366.426 167.929C366.472 168.173 366.523 168.416 366.579 168.658C366.635 168.9 366.696 169.141 366.762 169.381C366.829 169.62 366.9 169.859 366.976 170.096C367.052 170.333 367.132 170.569 367.217 170.804C367.252 170.899 367.295 170.998 367.337 171.097C367.38 171.197 367.423 171.299 367.458 171.401C367.493 171.503 367.521 171.607 367.533 171.711C367.546 171.814 367.543 171.919 367.518 172.022C367.494 172.118 367.454 172.207 367.4 172.287C367.347 172.367 367.279 172.439 367.202 172.5C367.125 172.561 367.038 172.611 366.943 172.648C366.849 172.685 366.748 172.709 366.643 172.717C366.372 172.74 366.155 172.669 365.979 172.539C365.803 172.409 365.667 172.221 365.558 172.007C365.449 171.793 365.367 171.554 365.298 171.325C365.229 171.096 365.173 170.876 365.116 170.699C365.034 170.444 364.957 170.187 364.885 169.93C364.813 169.672 364.746 169.413 364.685 169.153C364.624 168.893 364.569 168.632 364.518 168.37C364.468 168.108 364.424 167.844 364.385 167.581C364.31 167.067 364.253 166.549 364.219 166.029C364.186 165.509 364.174 164.988 364.188 164.467C364.202 163.946 364.241 163.426 364.309 162.91C364.377 162.394 364.473 161.881 364.601 161.375C364.81 160.547 365.111 159.745 365.492 158.977C365.872 158.21 366.333 157.478 366.86 156.788C367.387 156.099 367.981 155.452 368.63 154.856C369.279 154.261 369.983 153.717 370.73 153.232C372.184 152.288 373.779 151.584 375.445 151.118C377.11 150.652 378.845 150.426 380.578 150.438C382.311 150.45 384.042 150.702 385.698 151.193C387.354 151.684 388.936 152.413 390.371 153.383C391.028 153.826 391.647 154.314 392.223 154.843C392.8 155.372 393.332 155.941 393.815 156.544C394.297 157.147 394.729 157.784 395.104 158.45C395.48 159.115 395.798 159.809 396.052 160.526C396.301 161.227 396.51 161.97 396.641 162.722C396.772 163.474 396.825 164.236 396.764 164.975C396.702 165.714 396.525 166.431 396.195 167.094C395.865 167.757 395.383 168.366 394.711 168.889C394.048 169.404 393.29 169.766 392.491 169.981C391.693 170.195 390.855 170.261 390.033 170.182C389.211 170.104 388.406 169.882 387.675 169.519C386.943 169.156 386.285 168.653 385.756 168.014C385.633 167.866 385.518 167.711 385.413 167.552C385.307 167.392 385.211 167.227 385.124 167.058C385.037 166.889 384.96 166.716 384.893 166.54C384.826 166.363 384.769 166.183 384.723 166C384.676 165.813 384.648 165.624 384.628 165.435C384.608 165.245 384.597 165.054 384.583 164.864C384.569 164.674 384.553 164.485 384.523 164.297C384.493 164.109 384.451 163.923 384.383 163.74C384.247 163.37 384.046 163.032 383.795 162.734C383.543 162.435 383.242 162.175 382.906 161.96C382.57 161.745 382.199 161.575 381.809 161.455C381.419 161.336 381.009 161.267 380.595 161.254C380.184 161.242 379.773 161.285 379.377 161.379C378.982 161.472 378.602 161.617 378.253 161.807C377.903 161.997 377.584 162.233 377.309 162.511C377.035 162.788 376.806 163.106 376.636 163.461C376.544 163.653 376.476 163.849 376.429 164.048C376.381 164.246 376.353 164.448 376.338 164.65C376.323 164.853 376.323 165.058 376.331 165.263C376.339 165.468 376.355 165.674 376.374 165.879C376.396 166.107 376.425 166.335 376.461 166.562C376.497 166.788 376.539 167.014 376.589 167.238C376.639 167.463 376.696 167.686 376.761 167.906C376.825 168.128 376.896 168.347 376.974 168.564C377.269 169.384 377.667 170.169 378.152 170.905C378.637 171.641 379.208 172.329 379.85 172.955C380.492 173.581 381.205 174.146 381.972 174.636C382.738 175.126 383.56 175.541 384.419 175.869C384.526 175.91 384.633 175.949 384.742 175.988C384.85 176.027 384.958 176.064 385.067 176.1C385.176 176.137 385.285 176.172 385.395 176.206C385.505 176.241 385.615 176.274 385.725 176.307C385.826 176.336 385.935 176.362 386.047 176.387C386.158 176.413 386.272 176.439 386.383 176.471C386.494 176.503 386.602 176.54 386.701 176.588C386.801 176.635 386.892 176.693 386.969 176.767C387.114 176.905 387.198 177.074 387.228 177.248C387.258 177.422 387.234 177.602 387.166 177.765C387.098 177.927 386.984 178.073 386.834 178.178C386.684 178.282 386.497 178.346 386.282 178.346H386.282Z" fill="#000E41"/>
<rect x="714" y="132" width="200" height="50" rx="25" fill="#29B57D"/>
<path d="M770.686 153.098C770.032 153.098 769.444 152.986 768.922 152.762C768.399 152.529 767.988 152.202 767.69 151.782C767.391 151.362 767.242 150.872 767.242 150.312H768.95C768.987 150.732 769.15 151.077 769.44 151.348C769.738 151.619 770.154 151.754 770.686 151.754C771.236 151.754 771.666 151.623 771.974 151.362C772.282 151.091 772.436 150.746 772.436 150.326C772.436 149.999 772.338 149.733 772.142 149.528C771.955 149.323 771.717 149.164 771.428 149.052C771.148 148.94 770.756 148.819 770.252 148.688C769.617 148.52 769.099 148.352 768.698 148.184C768.306 148.007 767.97 147.736 767.69 147.372C767.41 147.008 767.27 146.523 767.27 145.916C767.27 145.356 767.41 144.866 767.69 144.446C767.97 144.026 768.362 143.704 768.866 143.48C769.37 143.256 769.953 143.144 770.616 143.144C771.558 143.144 772.328 143.382 772.926 143.858C773.532 144.325 773.868 144.969 773.934 145.79H772.17C772.142 145.435 771.974 145.132 771.666 144.88C771.358 144.628 770.952 144.502 770.448 144.502C769.99 144.502 769.617 144.619 769.328 144.852C769.038 145.085 768.894 145.421 768.894 145.86C768.894 146.159 768.982 146.406 769.16 146.602C769.346 146.789 769.58 146.938 769.86 147.05C770.14 147.162 770.522 147.283 771.008 147.414C771.652 147.591 772.174 147.769 772.576 147.946C772.986 148.123 773.332 148.399 773.612 148.772C773.901 149.136 774.046 149.626 774.046 150.242C774.046 150.737 773.91 151.203 773.64 151.642C773.378 152.081 772.991 152.435 772.478 152.706C771.974 152.967 771.376 153.098 770.686 153.098ZM777.623 144.558V147.414H780.983V148.716H777.623V151.698H781.403V153H776.027V143.256H781.403V144.558H777.623ZM782.935 148.114C782.935 147.162 783.154 146.308 783.593 145.552C784.041 144.796 784.643 144.208 785.399 143.788C786.164 143.359 786.999 143.144 787.905 143.144C788.941 143.144 789.86 143.401 790.663 143.914C791.475 144.418 792.063 145.137 792.427 146.07H790.509C790.257 145.557 789.907 145.174 789.459 144.922C789.011 144.67 788.493 144.544 787.905 144.544C787.261 144.544 786.687 144.689 786.183 144.978C785.679 145.267 785.282 145.683 784.993 146.224C784.713 146.765 784.573 147.395 784.573 148.114C784.573 148.833 784.713 149.463 784.993 150.004C785.282 150.545 785.679 150.965 786.183 151.264C786.687 151.553 787.261 151.698 787.905 151.698C788.493 151.698 789.011 151.572 789.459 151.32C789.907 151.068 790.257 150.685 790.509 150.172H792.427C792.063 151.105 791.475 151.824 790.663 152.328C789.86 152.832 788.941 153.084 787.905 153.084C786.99 153.084 786.155 152.874 785.399 152.454C784.643 152.025 784.041 151.432 783.593 150.676C783.154 149.92 782.935 149.066 782.935 148.114ZM795.975 143.27V149.472C795.975 150.209 796.166 150.765 796.549 151.138C796.941 151.511 797.482 151.698 798.173 151.698C798.873 151.698 799.414 151.511 799.797 151.138C800.189 150.765 800.385 150.209 800.385 149.472V143.27H801.981V149.444C801.981 150.237 801.808 150.909 801.463 151.46C801.118 152.011 800.656 152.421 800.077 152.692C799.498 152.963 798.859 153.098 798.159 153.098C797.459 153.098 796.82 152.963 796.241 152.692C795.672 152.421 795.219 152.011 794.883 151.46C794.547 150.909 794.379 150.237 794.379 149.444V143.27H795.975ZM809.211 153L806.971 149.108H805.753V153H804.157V143.27H807.517C808.264 143.27 808.894 143.401 809.407 143.662C809.93 143.923 810.317 144.273 810.569 144.712C810.83 145.151 810.961 145.641 810.961 146.182C810.961 146.817 810.774 147.395 810.401 147.918C810.037 148.431 809.472 148.781 808.707 148.968L811.115 153H809.211ZM805.753 147.834H807.517C808.114 147.834 808.562 147.685 808.861 147.386C809.169 147.087 809.323 146.686 809.323 146.182C809.323 145.678 809.174 145.286 808.875 145.006C808.576 144.717 808.124 144.572 807.517 144.572H805.753V147.834ZM814.697 144.558V147.414H818.057V148.716H814.697V151.698H818.477V153H813.101V143.256H818.477V144.558H814.697ZM832.045 143.27V153H830.449V148.744H825.871V153H824.275V143.27H825.871V147.442H830.449V143.27H832.045ZM840.11 151.012H836.036L835.336 153H833.67L837.156 143.256H839.004L842.49 153H840.81L840.11 151.012ZM839.662 149.71L838.08 145.188L836.484 149.71H839.662ZM847.31 153.098C846.657 153.098 846.069 152.986 845.546 152.762C845.023 152.529 844.613 152.202 844.314 151.782C844.015 151.362 843.866 150.872 843.866 150.312H845.574C845.611 150.732 845.775 151.077 846.064 151.348C846.363 151.619 846.778 151.754 847.31 151.754C847.861 151.754 848.29 151.623 848.598 151.362C848.906 151.091 849.06 150.746 849.06 150.326C849.06 149.999 848.962 149.733 848.766 149.528C848.579 149.323 848.341 149.164 848.052 149.052C847.772 148.94 847.38 148.819 846.876 148.688C846.241 148.52 845.723 148.352 845.322 148.184C844.93 148.007 844.594 147.736 844.314 147.372C844.034 147.008 843.894 146.523 843.894 145.916C843.894 145.356 844.034 144.866 844.314 144.446C844.594 144.026 844.986 143.704 845.49 143.48C845.994 143.256 846.577 143.144 847.24 143.144C848.183 143.144 848.953 143.382 849.55 143.858C850.157 144.325 850.493 144.969 850.558 145.79H848.794C848.766 145.435 848.598 145.132 848.29 144.88C847.982 144.628 847.576 144.502 847.072 144.502C846.615 144.502 846.241 144.619 845.952 144.852C845.663 145.085 845.518 145.421 845.518 145.86C845.518 146.159 845.607 146.406 845.784 146.602C845.971 146.789 846.204 146.938 846.484 147.05C846.764 147.162 847.147 147.283 847.632 147.414C848.276 147.591 848.799 147.769 849.2 147.946C849.611 148.123 849.956 148.399 850.236 148.772C850.525 149.136 850.67 149.626 850.67 150.242C850.67 150.737 850.535 151.203 850.264 151.642C850.003 152.081 849.615 152.435 849.102 152.706C848.598 152.967 848.001 153.098 847.31 153.098ZM860.421 143.27V153H858.825V148.744H854.247V153H852.651V143.27H854.247V147.442H858.825V143.27H860.421ZM780.301 169.012H776.227L775.527 171H773.861L777.347 161.256H779.195L782.681 171H781.001L780.301 169.012ZM779.853 167.71L778.271 163.188L776.675 167.71H779.853ZM785.891 169.712H789.181V171H784.295V161.27H785.891V169.712ZM797.656 164.07C797.404 163.585 797.054 163.221 796.606 162.978C796.158 162.726 795.64 162.6 795.052 162.6C794.408 162.6 793.834 162.745 793.33 163.034C792.826 163.323 792.429 163.734 792.14 164.266C791.86 164.798 791.72 165.414 791.72 166.114C791.72 166.814 791.86 167.435 792.14 167.976C792.429 168.508 792.826 168.919 793.33 169.208C793.834 169.497 794.408 169.642 795.052 169.642C795.92 169.642 796.624 169.399 797.166 168.914C797.707 168.429 798.038 167.771 798.16 166.94H794.506V165.666H799.868V166.912C799.765 167.668 799.494 168.363 799.056 168.998C798.626 169.633 798.062 170.141 797.362 170.524C796.671 170.897 795.901 171.084 795.052 171.084C794.137 171.084 793.302 170.874 792.546 170.454C791.79 170.025 791.188 169.432 790.74 168.676C790.301 167.92 790.082 167.066 790.082 166.114C790.082 165.162 790.301 164.308 790.74 163.552C791.188 162.796 791.79 162.208 792.546 161.788C793.311 161.359 794.146 161.144 795.052 161.144C796.088 161.144 797.007 161.401 797.81 161.914C798.622 162.418 799.21 163.137 799.574 164.07H797.656ZM805.978 171.098C805.073 171.098 804.237 170.888 803.472 170.468C802.716 170.039 802.114 169.446 801.666 168.69C801.227 167.925 801.008 167.066 801.008 166.114C801.008 165.162 801.227 164.308 801.666 163.552C802.114 162.796 802.716 162.208 803.472 161.788C804.237 161.359 805.073 161.144 805.978 161.144C806.893 161.144 807.728 161.359 808.484 161.788C809.249 162.208 809.851 162.796 810.29 163.552C810.729 164.308 810.948 165.162 810.948 166.114C810.948 167.066 810.729 167.925 810.29 168.69C809.851 169.446 809.249 170.039 808.484 170.468C807.728 170.888 806.893 171.098 805.978 171.098ZM805.978 169.712C806.622 169.712 807.196 169.567 807.7 169.278C808.204 168.979 808.596 168.559 808.876 168.018C809.165 167.467 809.31 166.833 809.31 166.114C809.31 165.395 809.165 164.765 808.876 164.224C808.596 163.683 808.204 163.267 807.7 162.978C807.196 162.689 806.622 162.544 805.978 162.544C805.334 162.544 804.76 162.689 804.256 162.978C803.752 163.267 803.355 163.683 803.066 164.224C802.786 164.765 802.646 165.395 802.646 166.114C802.646 166.833 802.786 167.467 803.066 168.018C803.355 168.559 803.752 168.979 804.256 169.278C804.76 169.567 805.334 169.712 805.978 169.712ZM817.67 171L815.43 167.108H814.212V171H812.616V161.27H815.976C816.723 161.27 817.353 161.401 817.866 161.662C818.389 161.923 818.776 162.273 819.028 162.712C819.29 163.151 819.42 163.641 819.42 164.182C819.42 164.817 819.234 165.395 818.86 165.918C818.496 166.431 817.932 166.781 817.166 166.968L819.574 171H817.67ZM814.212 165.834H815.976C816.574 165.834 817.022 165.685 817.32 165.386C817.628 165.087 817.782 164.686 817.782 164.182C817.782 163.678 817.633 163.286 817.334 163.006C817.036 162.717 816.583 162.572 815.976 162.572H814.212V165.834ZM823.156 161.27V171H821.56V161.27H823.156ZM831.636 161.27V162.572H829.046V171H827.45V162.572H824.846V161.27H831.636ZM841.12 161.27V171H839.524V166.744H834.946V171H833.35V161.27H834.946V165.442H839.524V161.27H841.12ZM853.567 161.27V171H851.971V164.336L849.003 171H847.897L844.915 164.336V171H843.319V161.27H845.041L848.457 168.9L851.859 161.27H853.567Z" fill="white"/>
</svg>
