<svg width="402" height="184" viewBox="0 0 402 184" fill="none" xmlns="http://www.w3.org/2000/svg">
<rect width="402" height="183.5" fill="#ED475C"/>
<g clip-path="url(#clip0_658_1963)">
<path d="M203.904 90.6654H197.244C192.644 98.9998 185.794 107.82 176.843 116.926C163.029 130.974 147.968 141.808 142.498 145.58C137.043 141.821 122.051 131.041 108.242 117.014C98.2655 106.882 90.8917 97.104 86.3239 87.9495C80.8543 76.9852 79.477 66.9638 82.229 58.1629L82.2413 58.1212C83.9861 52.3136 87.6251 47.0905 92.4846 43.4169C97.5033 39.6206 103.493 37.6143 109.8 37.6143C121.977 37.6143 129.15 45.2194 137.457 54.0276C138.188 54.8012 138.923 55.5796 139.665 56.358L142.5 59.3293L145.336 56.358C145.951 55.7122 146.564 55.0664 147.174 54.423C155.711 45.4035 163.085 37.6143 175.198 37.6143C181.506 37.6143 187.493 39.6206 192.514 43.4169C197.373 47.093 201.01 52.3161 202.755 58.1212L202.767 58.1629C203.772 61.3724 204.223 64.7439 204.132 68.2653C206.347 65.5568 208.734 62.831 211.288 60.0906C211.03 58.6393 210.69 57.2199 210.256 55.835C208.031 48.451 203.409 41.8134 197.236 37.1453C190.845 32.3127 183.224 29.7564 175.198 29.7564C160.301 29.7564 151.158 38.8176 142.505 47.9377C133.95 38.8765 124.967 29.7539 109.8 29.7539C101.772 29.7539 94.1534 32.3102 87.7599 37.1428C81.587 41.811 76.9652 48.4485 74.7401 55.8325C71.3657 66.6372 72.9046 78.6255 79.3079 91.4635C84.2434 101.357 92.0999 111.811 102.657 122.534C120.436 140.59 139.557 153.092 140.361 153.615L142.496 155.002L144.63 153.615C145.436 153.092 164.556 140.59 182.334 122.534C192.891 111.813 200.238 102.273 205.173 92.3794C206.813 89.0938 208.163 85.8057 209.214 82.5471C207.303 85.2139 205.517 87.9274 203.902 90.6679L203.904 90.6654Z" fill="white"/>
<path d="M322.693 92.539C317.758 82.6453 309.901 72.1918 299.344 61.4681C281.565 43.412 262.444 30.9105 261.637 30.3874L259.503 29L257.368 30.3874C256.562 30.9105 237.441 43.412 219.664 61.4681C209.107 72.1893 201.251 82.6429 196.315 92.539C194.169 96.8437 192.571 101.053 191.52 105.153C193.465 102.666 195.308 100.122 197.011 97.5362L199.991 97.7744C200.214 97.298 202.868 96.7136 203.106 96.2323C207.656 87.09 215.209 77.1939 225.161 67.0743C238.975 53.0282 254.033 42.1916 259.503 38.4222C264.973 42.194 280.034 53.0282 293.847 67.0743C303.799 77.1939 311.153 86.9599 315.704 96.1021C321.152 107.047 322.521 117.051 319.772 125.837L319.76 125.879C318.015 131.686 314.376 136.907 309.516 140.583C304.498 144.379 298.508 146.386 292.201 146.386C280.024 146.386 272.851 138.781 264.546 129.972C263.816 129.199 263.081 128.42 262.338 127.642L259.503 124.671L256.668 127.642C256.053 128.288 255.44 128.934 254.83 129.577C246.292 138.597 238.918 146.386 226.805 146.386C220.497 146.386 214.511 144.379 209.489 140.583C204.63 136.907 200.993 131.686 199.249 125.879L199.236 125.837C198.185 122.473 197.737 118.929 197.889 115.224C195.634 117.955 193.203 120.702 190.605 123.463C190.887 125.054 191.265 126.62 191.747 128.163C193.97 135.547 198.594 142.184 204.767 146.855C211.158 151.687 218.78 154.244 226.805 154.244C241.702 154.244 250.845 145.182 259.498 136.065C268.05 145.121 277.032 154.244 292.198 154.244C300.224 154.244 307.845 151.687 314.239 146.855C320.412 142.187 325.036 135.549 327.261 128.165C330.633 117.36 329.096 105.375 322.691 92.5366L322.693 92.539Z" fill="white"/>
</g>
<defs>
<clipPath id="clip0_658_1963">
<rect width="256" height="126" fill="white" transform="translate(73 29)"/>
</clipPath>
</defs>
</svg>
