<svg width="1698" height="300" viewBox="0 0 1698 300" fill="none" xmlns="http://www.w3.org/2000/svg">
<rect width="1698" height="300" rx="4" fill="#F2F2F6"/>
<path d="M1612.06 241.061C1612.65 240.475 1612.65 239.525 1612.06 238.939L1602.51 229.393C1601.93 228.808 1600.98 228.808 1600.39 229.393C1599.81 229.979 1599.81 230.929 1600.39 231.515L1608.88 240L1600.39 248.485C1599.81 249.071 1599.81 250.021 1600.39 250.607C1600.98 251.192 1601.93 251.192 1602.51 250.607L1612.06 241.061ZM61 240V241.5H1611V240V238.5H61V240Z" fill="#4EAC78"/>
<path d="M73 61L201 61" stroke="#4EAC78" stroke-width="3" stroke-linecap="round"/>
<path d="M367 228.5C367.828 228.5 368.5 227.828 368.5 227V213.5C368.5 212.672 367.828 212 367 212C366.172 212 365.5 212.672 365.5 213.5V225.5H353.5C352.672 225.5 352 226.172 352 227C352 227.828 352.672 228.5 353.5 228.5H367ZM201 61L199.939 62.0607L365.939 228.061L367 227L368.061 225.939L202.061 59.9393L201 61Z" fill="#4EAC78"/>
<circle cx="379.5" cy="239.5" r="10.5" fill="#F2F2F6" stroke="#4EAC78" stroke-width="4"/>
<circle cx="199.5" cy="60.5" r="10.5" fill="#F2F2F6" stroke="#4EAC78" stroke-width="4"/>
<circle cx="73.5" cy="60.5" r="10.5" fill="#F2F2F6" stroke="#4EAC78" stroke-width="4"/>
<circle cx="136.5" cy="60.5" r="10.5" fill="#F2F2F6" stroke="#4EAC78" stroke-width="4"/>
<g clip-path="url(#clip0_2161_5910)">
<path d="M165.629 118.566H117.71C115.661 118.566 114 120.228 114 122.277V190.868C114 192.918 115.661 194.579 117.71 194.579H165.629C167.678 194.579 169.339 192.918 169.339 190.868V122.277C169.339 120.228 167.678 118.566 165.629 118.566Z" fill="#1E55CD"/>
<path d="M165.633 196.433H117.714C114.645 196.433 112.148 193.937 112.148 190.868V122.276C112.148 119.207 114.645 116.711 117.714 116.711H165.633C168.702 116.711 171.198 119.207 171.198 122.276V190.868C171.198 193.937 168.702 196.433 165.633 196.433ZM117.714 120.421C116.691 120.421 115.859 121.254 115.859 122.276V190.868C115.859 191.891 116.691 192.723 117.714 192.723H165.633C166.655 192.723 167.488 191.891 167.488 190.868V122.276C167.488 121.254 166.655 120.421 165.633 120.421H117.714Z" fill="#101C2B"/>
<path d="M160.36 143.422H123.464C122.44 143.422 121.609 142.592 121.609 141.567C121.609 140.542 122.44 139.712 123.464 139.712H160.36C161.385 139.712 162.216 140.542 162.216 141.567C162.216 142.592 161.385 143.422 160.36 143.422Z" fill="#101C2B"/>
<path d="M160.36 135.031H123.464C122.44 135.031 121.609 134.2 121.609 133.175C121.609 132.15 122.44 131.32 123.464 131.32H160.36C161.385 131.32 162.216 132.15 162.216 133.175C162.216 134.2 161.385 135.031 160.36 135.031Z" fill="#101C2B"/>
<path d="M160.36 151.815H123.464C122.44 151.815 121.609 150.985 121.609 149.96C121.609 148.935 122.44 148.104 123.464 148.104H160.36C161.385 148.104 162.216 148.935 162.216 149.96C162.216 150.985 161.385 151.815 160.36 151.815Z" fill="#101C2B"/>
<path d="M160.36 160.206H123.464C122.44 160.206 121.609 159.376 121.609 158.351C121.609 157.326 122.44 156.496 123.464 156.496H160.36C161.385 156.496 162.216 157.326 162.216 158.351C162.216 159.376 161.385 160.206 160.36 160.206Z" fill="#101C2B"/>
<path d="M160.36 168.6H123.464C122.44 168.6 121.609 167.77 121.609 166.745C121.609 165.72 122.44 164.89 123.464 164.89H160.36C161.385 164.89 162.216 165.72 162.216 166.745C162.216 167.77 161.385 168.6 160.36 168.6Z" fill="#101C2B"/>
<path d="M160.36 176.992H123.464C122.44 176.992 121.609 176.162 121.609 175.137C121.609 174.112 122.44 173.282 123.464 173.282H160.36C161.385 173.282 162.216 174.112 162.216 175.137C162.216 176.162 161.385 176.992 160.36 176.992Z" fill="#101C2B"/>
<path d="M160.36 185.384H123.464C122.44 185.384 121.609 184.554 121.609 183.529C121.609 182.504 122.44 181.674 123.464 181.674H160.36C161.385 181.674 162.216 182.504 162.216 183.529C162.216 184.554 161.385 185.384 160.36 185.384Z" fill="#101C2B"/>
<path d="M156.478 114.524H126.866C124.817 114.524 123.156 116.186 123.156 118.235V118.898C123.156 120.947 124.817 122.608 126.866 122.608H156.478C158.527 122.608 160.188 120.947 160.188 118.898V118.235C160.188 116.186 158.527 114.524 156.478 114.524Z" fill="#1E55CD"/>
<path d="M156.481 124.463H126.87C123.801 124.463 121.305 121.967 121.305 118.898V118.234C121.305 115.165 123.801 112.669 126.87 112.669H156.481C159.55 112.669 162.047 115.165 162.047 118.234V118.898C162.047 121.967 159.55 124.463 156.481 124.463ZM126.87 116.379C125.847 116.379 125.015 117.212 125.015 118.234V118.898C125.015 119.92 125.847 120.753 126.87 120.753H156.481C157.504 120.753 158.336 119.92 158.336 118.898V118.234C158.336 117.212 157.504 116.379 156.481 116.379H126.87Z" fill="#101C2B"/>
<path d="M206.435 213H100.565C97.4928 213 95 210.507 95 207.435V101.565C95 98.4928 97.4928 96 100.565 96H206.435C209.507 96 212 98.4928 212 101.565V207.435C212 210.507 209.507 213 206.435 213ZM100.565 99.7102C99.545 99.7102 98.7102 100.545 98.7102 101.565V207.435C98.7102 208.455 99.545 209.29 100.565 209.29H206.435C207.455 209.29 208.29 208.455 208.29 207.435V101.565C208.29 100.545 207.455 99.7102 206.435 99.7102H100.565Z" fill="#101C2B"/>
<path d="M185.845 153.428C189.79 153.428 192.988 150.23 192.988 146.286C192.988 142.341 189.79 139.144 185.845 139.144C181.901 139.144 178.703 142.341 178.703 146.286C178.703 150.23 181.901 153.428 185.845 153.428Z" fill="#4EAC78"/>
<path d="M185.849 155.283C180.888 155.283 176.852 151.247 176.852 146.285C176.852 141.324 180.888 137.288 185.849 137.288C190.81 137.288 194.846 141.324 194.846 146.285C194.846 151.247 190.81 155.283 185.849 155.283V155.283ZM185.849 140.997C182.933 140.997 180.562 143.369 180.562 146.284C180.562 149.199 182.934 151.571 185.849 151.571C188.764 151.571 191.136 149.199 191.136 146.284C191.136 143.369 188.764 140.997 185.849 140.997Z" fill="#101C2B"/>
<path d="M185.845 132.852C189.79 132.852 192.988 129.654 192.988 125.71C192.988 121.765 189.79 118.567 185.845 118.567C181.901 118.567 178.703 121.765 178.703 125.71C178.703 129.654 181.901 132.852 185.845 132.852Z" fill="#4EAC78"/>
<path d="M185.849 134.707C180.888 134.707 176.852 130.671 176.852 125.709C176.852 120.748 180.888 116.712 185.849 116.712C190.81 116.712 194.846 120.748 194.846 125.709C194.846 130.671 190.81 134.707 185.849 134.707V134.707ZM185.849 120.421C182.933 120.421 180.562 122.793 180.562 125.708C180.562 128.623 182.934 130.995 185.849 130.995C188.764 130.995 191.136 128.623 191.136 125.708C191.136 122.793 188.764 120.421 185.849 120.421V120.421Z" fill="#101C2B"/>
<path d="M185.845 174.003C189.79 174.003 192.988 170.805 192.988 166.861C192.988 162.916 189.79 159.719 185.845 159.719C181.901 159.719 178.703 162.916 178.703 166.861C178.703 170.805 181.901 174.003 185.845 174.003Z" fill="#4EAC78"/>
<path d="M185.849 175.858C180.888 175.858 176.852 171.822 176.852 166.861C176.852 161.899 180.888 157.863 185.849 157.863C190.81 157.863 194.846 161.899 194.846 166.861C194.846 171.822 190.81 175.858 185.849 175.858ZM185.849 161.572C182.933 161.572 180.562 163.945 180.562 166.859C180.562 169.774 182.934 172.147 185.849 172.147C188.764 172.147 191.136 169.774 191.136 166.859C191.136 163.945 188.764 161.572 185.849 161.572Z" fill="#101C2B"/>
<path d="M185.845 194.579C189.79 194.579 192.988 191.382 192.988 187.437C192.988 183.493 189.79 180.295 185.845 180.295C181.901 180.295 178.703 183.493 178.703 187.437C178.703 191.382 181.901 194.579 185.845 194.579Z" fill="#4EAC78"/>
<path d="M185.849 196.434C180.888 196.434 176.852 192.398 176.852 187.437C176.852 182.475 180.888 178.439 185.849 178.439C190.81 178.439 194.846 182.475 194.846 187.437C194.846 192.398 190.81 196.434 185.849 196.434ZM185.849 182.149C182.933 182.149 180.562 184.521 180.562 187.436C180.562 190.35 182.934 192.723 185.849 192.723C188.764 192.723 191.136 190.35 191.136 187.436C191.136 184.521 188.764 182.149 185.849 182.149Z" fill="#101C2B"/>
</g>
<path d="M415 61L543 61" stroke="#4EAC78" stroke-width="3" stroke-linecap="round"/>
<path d="M691.939 212.061C692.525 212.646 693.475 212.646 694.061 212.061C694.646 211.475 694.646 210.525 694.061 209.939L693 211L691.939 212.061ZM543 61L541.939 62.0607L691.939 212.061L693 211L694.061 209.939L544.061 59.9393L543 61Z" fill="#4EAC78"/>
<circle cx="721.5" cy="239.5" r="10.5" fill="#F2F2F6" stroke="#4EAC78" stroke-width="4"/>
<circle cx="541.5" cy="60.5" r="10.5" fill="#F2F2F6" stroke="#4EAC78" stroke-width="4"/>
<circle cx="415.5" cy="60.5" r="10.5" fill="#F2F2F6" stroke="#4EAC78" stroke-width="4"/>
<circle cx="478.5" cy="60.5" r="10.5" fill="#F2F2F6" stroke="#4EAC78" stroke-width="4"/>
<g clip-path="url(#clip1_2161_5910)">
<path d="M507.629 118.566H459.71C457.661 118.566 456 120.228 456 122.277V190.868C456 192.918 457.661 194.579 459.71 194.579H507.629C509.678 194.579 511.339 192.918 511.339 190.868V122.277C511.339 120.228 509.678 118.566 507.629 118.566Z" fill="#1E55CD"/>
<path d="M507.633 196.433H459.714C456.645 196.433 454.148 193.937 454.148 190.868V122.276C454.148 119.207 456.645 116.711 459.714 116.711H507.633C510.702 116.711 513.198 119.207 513.198 122.276V190.868C513.198 193.937 510.702 196.433 507.633 196.433ZM459.714 120.421C458.691 120.421 457.859 121.254 457.859 122.276V190.868C457.859 191.891 458.691 192.723 459.714 192.723H507.633C508.655 192.723 509.488 191.891 509.488 190.868V122.276C509.488 121.254 508.655 120.421 507.633 120.421H459.714Z" fill="#101C2B"/>
<path d="M502.36 143.422H465.464C464.44 143.422 463.609 142.592 463.609 141.567C463.609 140.542 464.44 139.712 465.464 139.712H502.36C503.385 139.712 504.216 140.542 504.216 141.567C504.216 142.592 503.385 143.422 502.36 143.422Z" fill="#101C2B"/>
<path d="M502.36 135.031H465.464C464.44 135.031 463.609 134.2 463.609 133.175C463.609 132.15 464.44 131.32 465.464 131.32H502.36C503.385 131.32 504.216 132.15 504.216 133.175C504.216 134.2 503.385 135.031 502.36 135.031Z" fill="#101C2B"/>
<path d="M502.36 151.815H465.464C464.44 151.815 463.609 150.985 463.609 149.96C463.609 148.935 464.44 148.104 465.464 148.104H502.36C503.385 148.104 504.216 148.935 504.216 149.96C504.216 150.985 503.385 151.815 502.36 151.815Z" fill="#101C2B"/>
<path d="M502.36 160.206H465.464C464.44 160.206 463.609 159.376 463.609 158.351C463.609 157.326 464.44 156.496 465.464 156.496H502.36C503.385 156.496 504.216 157.326 504.216 158.351C504.216 159.376 503.385 160.206 502.36 160.206Z" fill="#101C2B"/>
<path d="M502.36 168.6H465.464C464.44 168.6 463.609 167.77 463.609 166.745C463.609 165.72 464.44 164.89 465.464 164.89H502.36C503.385 164.89 504.216 165.72 504.216 166.745C504.216 167.77 503.385 168.6 502.36 168.6Z" fill="#101C2B"/>
<path d="M502.36 176.992H465.464C464.44 176.992 463.609 176.162 463.609 175.137C463.609 174.112 464.44 173.282 465.464 173.282H502.36C503.385 173.282 504.216 174.112 504.216 175.137C504.216 176.162 503.385 176.992 502.36 176.992Z" fill="#101C2B"/>
<path d="M502.36 185.384H465.464C464.44 185.384 463.609 184.554 463.609 183.529C463.609 182.504 464.44 181.674 465.464 181.674H502.36C503.385 181.674 504.216 182.504 504.216 183.529C504.216 184.554 503.385 185.384 502.36 185.384Z" fill="#101C2B"/>
<path d="M498.478 114.524H468.866C466.817 114.524 465.156 116.186 465.156 118.235V118.898C465.156 120.947 466.817 122.608 468.866 122.608H498.478C500.527 122.608 502.188 120.947 502.188 118.898V118.235C502.188 116.186 500.527 114.524 498.478 114.524Z" fill="#1E55CD"/>
<path d="M498.481 124.463H468.87C465.801 124.463 463.305 121.967 463.305 118.898V118.234C463.305 115.165 465.801 112.669 468.87 112.669H498.481C501.55 112.669 504.047 115.165 504.047 118.234V118.898C504.047 121.967 501.55 124.463 498.481 124.463ZM468.87 116.379C467.847 116.379 467.015 117.212 467.015 118.234V118.898C467.015 119.92 467.847 120.753 468.87 120.753H498.481C499.504 120.753 500.336 119.92 500.336 118.898V118.234C500.336 117.212 499.504 116.379 498.481 116.379H468.87Z" fill="#101C2B"/>
<path d="M548.435 213H442.565C439.493 213 437 210.507 437 207.435V101.565C437 98.4928 439.493 96 442.565 96H548.435C551.507 96 554 98.4928 554 101.565V207.435C554 210.507 551.507 213 548.435 213ZM442.565 99.7102C441.545 99.7102 440.71 100.545 440.71 101.565V207.435C440.71 208.455 441.545 209.29 442.565 209.29H548.435C549.455 209.29 550.29 208.455 550.29 207.435V101.565C550.29 100.545 549.455 99.7102 548.435 99.7102H442.565Z" fill="#101C2B"/>
<path d="M527.845 153.428C531.79 153.428 534.988 150.23 534.988 146.286C534.988 142.341 531.79 139.144 527.845 139.144C523.901 139.144 520.703 142.341 520.703 146.286C520.703 150.23 523.901 153.428 527.845 153.428Z" fill="#4EAC78"/>
<path d="M527.849 155.283C522.888 155.283 518.852 151.247 518.852 146.285C518.852 141.324 522.888 137.288 527.849 137.288C532.81 137.288 536.846 141.324 536.846 146.285C536.846 151.247 532.81 155.283 527.849 155.283V155.283ZM527.849 140.997C524.933 140.997 522.562 143.369 522.562 146.284C522.562 149.199 524.934 151.571 527.849 151.571C530.764 151.571 533.136 149.199 533.136 146.284C533.136 143.369 530.764 140.997 527.849 140.997Z" fill="#101C2B"/>
<path d="M527.845 132.852C531.79 132.852 534.988 129.654 534.988 125.71C534.988 121.765 531.79 118.567 527.845 118.567C523.901 118.567 520.703 121.765 520.703 125.71C520.703 129.654 523.901 132.852 527.845 132.852Z" fill="#4EAC78"/>
<path d="M527.849 134.707C522.888 134.707 518.852 130.671 518.852 125.709C518.852 120.748 522.888 116.712 527.849 116.712C532.81 116.712 536.846 120.748 536.846 125.709C536.846 130.671 532.81 134.707 527.849 134.707V134.707ZM527.849 120.421C524.933 120.421 522.562 122.793 522.562 125.708C522.562 128.623 524.934 130.995 527.849 130.995C530.764 130.995 533.136 128.623 533.136 125.708C533.136 122.793 530.764 120.421 527.849 120.421V120.421Z" fill="#101C2B"/>
<path d="M527.845 174.003C531.79 174.003 534.988 170.805 534.988 166.861C534.988 162.916 531.79 159.719 527.845 159.719C523.901 159.719 520.703 162.916 520.703 166.861C520.703 170.805 523.901 174.003 527.845 174.003Z" fill="#4EAC78"/>
<path d="M527.849 175.858C522.888 175.858 518.852 171.822 518.852 166.861C518.852 161.899 522.888 157.863 527.849 157.863C532.81 157.863 536.846 161.899 536.846 166.861C536.846 171.822 532.81 175.858 527.849 175.858ZM527.849 161.572C524.933 161.572 522.562 163.945 522.562 166.859C522.562 169.774 524.934 172.147 527.849 172.147C530.764 172.147 533.136 169.774 533.136 166.859C533.136 163.945 530.764 161.572 527.849 161.572Z" fill="#101C2B"/>
<path d="M527.845 194.579C531.79 194.579 534.988 191.382 534.988 187.437C534.988 183.493 531.79 180.295 527.845 180.295C523.901 180.295 520.703 183.493 520.703 187.437C520.703 191.382 523.901 194.579 527.845 194.579Z" fill="#4EAC78"/>
<path d="M527.849 196.434C522.888 196.434 518.852 192.398 518.852 187.437C518.852 182.475 522.888 178.439 527.849 178.439C532.81 178.439 536.846 182.475 536.846 187.437C536.846 192.398 532.81 196.434 527.849 196.434ZM527.849 182.149C524.933 182.149 522.562 184.521 522.562 187.436C522.562 190.35 524.934 192.723 527.849 192.723C530.764 192.723 533.136 190.35 533.136 187.436C533.136 184.521 530.764 182.149 527.849 182.149Z" fill="#101C2B"/>
</g>
<path d="M764 61L892 61" stroke="#4EAC78" stroke-width="3" stroke-linecap="round"/>
<path d="M1058 228.5C1058.83 228.5 1059.5 227.828 1059.5 227V213.5C1059.5 212.672 1058.83 212 1058 212C1057.17 212 1056.5 212.672 1056.5 213.5V225.5H1044.5C1043.67 225.5 1043 226.172 1043 227C1043 227.828 1043.67 228.5 1044.5 228.5H1058ZM892 61L890.939 62.0607L1056.94 228.061L1058 227L1059.06 225.939L893.061 59.9393L892 61Z" fill="#4EAC78"/>
<circle cx="1070.5" cy="239.5" r="10.5" fill="#F2F2F6" stroke="#4EAC78" stroke-width="4"/>
<circle cx="890.5" cy="60.5" r="10.5" fill="#F2F2F6" stroke="#4EAC78" stroke-width="4"/>
<circle cx="764.5" cy="60.5" r="10.5" fill="#F2F2F6" stroke="#4EAC78" stroke-width="4"/>
<circle cx="827.5" cy="60.5" r="10.5" fill="#F2F2F6" stroke="#4EAC78" stroke-width="4"/>
<g clip-path="url(#clip2_2161_5910)">
<path d="M856.629 118.566H808.71C806.661 118.566 805 120.228 805 122.277V190.868C805 192.918 806.661 194.579 808.71 194.579H856.629C858.678 194.579 860.339 192.918 860.339 190.868V122.277C860.339 120.228 858.678 118.566 856.629 118.566Z" fill="#1E55CD"/>
<path d="M856.633 196.433H808.714C805.645 196.433 803.148 193.937 803.148 190.868V122.276C803.148 119.207 805.645 116.711 808.714 116.711H856.633C859.702 116.711 862.198 119.207 862.198 122.276V190.868C862.198 193.937 859.702 196.433 856.633 196.433ZM808.714 120.421C807.691 120.421 806.859 121.254 806.859 122.276V190.868C806.859 191.891 807.691 192.723 808.714 192.723H856.633C857.655 192.723 858.488 191.891 858.488 190.868V122.276C858.488 121.254 857.655 120.421 856.633 120.421H808.714Z" fill="#101C2B"/>
<path d="M851.36 143.422H814.464C813.44 143.422 812.609 142.592 812.609 141.567C812.609 140.542 813.44 139.712 814.464 139.712H851.36C852.385 139.712 853.216 140.542 853.216 141.567C853.216 142.592 852.385 143.422 851.36 143.422Z" fill="#101C2B"/>
<path d="M851.36 135.031H814.464C813.44 135.031 812.609 134.2 812.609 133.175C812.609 132.15 813.44 131.32 814.464 131.32H851.36C852.385 131.32 853.216 132.15 853.216 133.175C853.216 134.2 852.385 135.031 851.36 135.031Z" fill="#101C2B"/>
<path d="M851.36 151.815H814.464C813.44 151.815 812.609 150.985 812.609 149.96C812.609 148.935 813.44 148.104 814.464 148.104H851.36C852.385 148.104 853.216 148.935 853.216 149.96C853.216 150.985 852.385 151.815 851.36 151.815Z" fill="#101C2B"/>
<path d="M851.36 160.206H814.464C813.44 160.206 812.609 159.376 812.609 158.351C812.609 157.326 813.44 156.496 814.464 156.496H851.36C852.385 156.496 853.216 157.326 853.216 158.351C853.216 159.376 852.385 160.206 851.36 160.206Z" fill="#101C2B"/>
<path d="M851.36 168.6H814.464C813.44 168.6 812.609 167.77 812.609 166.745C812.609 165.72 813.44 164.89 814.464 164.89H851.36C852.385 164.89 853.216 165.72 853.216 166.745C853.216 167.77 852.385 168.6 851.36 168.6Z" fill="#101C2B"/>
<path d="M851.36 176.992H814.464C813.44 176.992 812.609 176.162 812.609 175.137C812.609 174.112 813.44 173.282 814.464 173.282H851.36C852.385 173.282 853.216 174.112 853.216 175.137C853.216 176.162 852.385 176.992 851.36 176.992Z" fill="#101C2B"/>
<path d="M851.36 185.384H814.464C813.44 185.384 812.609 184.554 812.609 183.529C812.609 182.504 813.44 181.674 814.464 181.674H851.36C852.385 181.674 853.216 182.504 853.216 183.529C853.216 184.554 852.385 185.384 851.36 185.384Z" fill="#101C2B"/>
<path d="M847.478 114.524H817.866C815.817 114.524 814.156 116.186 814.156 118.235V118.898C814.156 120.947 815.817 122.608 817.866 122.608H847.478C849.527 122.608 851.188 120.947 851.188 118.898V118.235C851.188 116.186 849.527 114.524 847.478 114.524Z" fill="#1E55CD"/>
<path d="M847.481 124.463H817.87C814.801 124.463 812.305 121.967 812.305 118.898V118.234C812.305 115.165 814.801 112.669 817.87 112.669H847.481C850.55 112.669 853.047 115.165 853.047 118.234V118.898C853.047 121.967 850.55 124.463 847.481 124.463ZM817.87 116.379C816.847 116.379 816.015 117.212 816.015 118.234V118.898C816.015 119.92 816.847 120.753 817.87 120.753H847.481C848.504 120.753 849.336 119.92 849.336 118.898V118.234C849.336 117.212 848.504 116.379 847.481 116.379H817.87Z" fill="#101C2B"/>
<path d="M897.435 213H791.565C788.493 213 786 210.507 786 207.435V101.565C786 98.4928 788.493 96 791.565 96H897.435C900.507 96 903 98.4928 903 101.565V207.435C903 210.507 900.507 213 897.435 213ZM791.565 99.7102C790.545 99.7102 789.71 100.545 789.71 101.565V207.435C789.71 208.455 790.545 209.29 791.565 209.29H897.435C898.455 209.29 899.29 208.455 899.29 207.435V101.565C899.29 100.545 898.455 99.7102 897.435 99.7102H791.565Z" fill="#101C2B"/>
<path d="M876.845 153.428C880.79 153.428 883.988 150.23 883.988 146.286C883.988 142.341 880.79 139.144 876.845 139.144C872.901 139.144 869.703 142.341 869.703 146.286C869.703 150.23 872.901 153.428 876.845 153.428Z" fill="#4EAC78"/>
<path d="M876.849 155.283C871.888 155.283 867.852 151.247 867.852 146.285C867.852 141.324 871.888 137.288 876.849 137.288C881.81 137.288 885.846 141.324 885.846 146.285C885.846 151.247 881.81 155.283 876.849 155.283V155.283ZM876.849 140.997C873.933 140.997 871.562 143.369 871.562 146.284C871.562 149.199 873.934 151.571 876.849 151.571C879.764 151.571 882.136 149.199 882.136 146.284C882.136 143.369 879.764 140.997 876.849 140.997Z" fill="#101C2B"/>
<path d="M876.845 132.852C880.79 132.852 883.988 129.654 883.988 125.71C883.988 121.765 880.79 118.567 876.845 118.567C872.901 118.567 869.703 121.765 869.703 125.71C869.703 129.654 872.901 132.852 876.845 132.852Z" fill="#4EAC78"/>
<path d="M876.849 134.707C871.888 134.707 867.852 130.671 867.852 125.709C867.852 120.748 871.888 116.712 876.849 116.712C881.81 116.712 885.846 120.748 885.846 125.709C885.846 130.671 881.81 134.707 876.849 134.707V134.707ZM876.849 120.421C873.933 120.421 871.562 122.793 871.562 125.708C871.562 128.623 873.934 130.995 876.849 130.995C879.764 130.995 882.136 128.623 882.136 125.708C882.136 122.793 879.764 120.421 876.849 120.421V120.421Z" fill="#101C2B"/>
<path d="M876.845 174.003C880.79 174.003 883.988 170.805 883.988 166.861C883.988 162.916 880.79 159.719 876.845 159.719C872.901 159.719 869.703 162.916 869.703 166.861C869.703 170.805 872.901 174.003 876.845 174.003Z" fill="#4EAC78"/>
<path d="M876.849 175.858C871.888 175.858 867.852 171.822 867.852 166.861C867.852 161.899 871.888 157.863 876.849 157.863C881.81 157.863 885.846 161.899 885.846 166.861C885.846 171.822 881.81 175.858 876.849 175.858ZM876.849 161.572C873.933 161.572 871.562 163.945 871.562 166.859C871.562 169.774 873.934 172.147 876.849 172.147C879.764 172.147 882.136 169.774 882.136 166.859C882.136 163.945 879.764 161.572 876.849 161.572Z" fill="#101C2B"/>
<path d="M876.845 194.579C880.79 194.579 883.988 191.382 883.988 187.437C883.988 183.493 880.79 180.295 876.845 180.295C872.901 180.295 869.703 183.493 869.703 187.437C869.703 191.382 872.901 194.579 876.845 194.579Z" fill="#4EAC78"/>
<path d="M876.849 196.434C871.888 196.434 867.852 192.398 867.852 187.437C867.852 182.475 871.888 178.439 876.849 178.439C881.81 178.439 885.846 182.475 885.846 187.437C885.846 192.398 881.81 196.434 876.849 196.434ZM876.849 182.149C873.933 182.149 871.562 184.521 871.562 187.436C871.562 190.35 873.934 192.723 876.849 192.723C879.764 192.723 882.136 190.35 882.136 187.436C882.136 184.521 879.764 182.149 876.849 182.149Z" fill="#101C2B"/>
</g>
<path d="M1113 61L1241 61" stroke="#4EAC78" stroke-width="3" stroke-linecap="round"/>
<path d="M1407 228.5C1407.83 228.5 1408.5 227.828 1408.5 227V213.5C1408.5 212.672 1407.83 212 1407 212C1406.17 212 1405.5 212.672 1405.5 213.5V225.5H1393.5C1392.67 225.5 1392 226.172 1392 227C1392 227.828 1392.67 228.5 1393.5 228.5H1407ZM1241 61L1239.94 62.0607L1405.94 228.061L1407 227L1408.06 225.939L1242.06 59.9393L1241 61Z" fill="#4EAC78"/>
<circle cx="1419.5" cy="239.5" r="10.5" fill="#F2F2F6" stroke="#4EAC78" stroke-width="4"/>
<circle cx="1239.5" cy="60.5" r="10.5" fill="#F2F2F6" stroke="#4EAC78" stroke-width="4"/>
<circle cx="1113.5" cy="60.5" r="10.5" fill="#F2F2F6" stroke="#4EAC78" stroke-width="4"/>
<circle cx="1176.5" cy="60.5" r="10.5" fill="#F2F2F6" stroke="#4EAC78" stroke-width="4"/>
<g clip-path="url(#clip3_2161_5910)">
<path d="M1205.63 118.566H1157.71C1155.66 118.566 1154 120.228 1154 122.277V190.868C1154 192.918 1155.66 194.579 1157.71 194.579H1205.63C1207.68 194.579 1209.34 192.918 1209.34 190.868V122.277C1209.34 120.228 1207.68 118.566 1205.63 118.566Z" fill="#1E55CD"/>
<path d="M1205.63 196.433H1157.71C1154.64 196.433 1152.15 193.937 1152.15 190.868V122.276C1152.15 119.207 1154.64 116.711 1157.71 116.711H1205.63C1208.7 116.711 1211.2 119.207 1211.2 122.276V190.868C1211.2 193.937 1208.7 196.433 1205.63 196.433ZM1157.71 120.421C1156.69 120.421 1155.86 121.254 1155.86 122.276V190.868C1155.86 191.891 1156.69 192.723 1157.71 192.723H1205.63C1206.66 192.723 1207.49 191.891 1207.49 190.868V122.276C1207.49 121.254 1206.66 120.421 1205.63 120.421H1157.71Z" fill="#101C2B"/>
<path d="M1200.36 143.422H1163.46C1162.44 143.422 1161.61 142.592 1161.61 141.567C1161.61 140.542 1162.44 139.712 1163.46 139.712H1200.36C1201.39 139.712 1202.22 140.542 1202.22 141.567C1202.22 142.592 1201.39 143.422 1200.36 143.422Z" fill="#101C2B"/>
<path d="M1200.36 135.031H1163.46C1162.44 135.031 1161.61 134.2 1161.61 133.175C1161.61 132.15 1162.44 131.32 1163.46 131.32H1200.36C1201.39 131.32 1202.22 132.15 1202.22 133.175C1202.22 134.2 1201.39 135.031 1200.36 135.031Z" fill="#101C2B"/>
<path d="M1200.36 151.815H1163.46C1162.44 151.815 1161.61 150.985 1161.61 149.96C1161.61 148.935 1162.44 148.104 1163.46 148.104H1200.36C1201.39 148.104 1202.22 148.935 1202.22 149.96C1202.22 150.985 1201.39 151.815 1200.36 151.815Z" fill="#101C2B"/>
<path d="M1200.36 160.206H1163.46C1162.44 160.206 1161.61 159.376 1161.61 158.351C1161.61 157.326 1162.44 156.496 1163.46 156.496H1200.36C1201.39 156.496 1202.22 157.326 1202.22 158.351C1202.22 159.376 1201.39 160.206 1200.36 160.206Z" fill="#101C2B"/>
<path d="M1200.36 168.6H1163.46C1162.44 168.6 1161.61 167.77 1161.61 166.745C1161.61 165.72 1162.44 164.89 1163.46 164.89H1200.36C1201.39 164.89 1202.22 165.72 1202.22 166.745C1202.22 167.77 1201.39 168.6 1200.36 168.6Z" fill="#101C2B"/>
<path d="M1200.36 176.992H1163.46C1162.44 176.992 1161.61 176.162 1161.61 175.137C1161.61 174.112 1162.44 173.282 1163.46 173.282H1200.36C1201.39 173.282 1202.22 174.112 1202.22 175.137C1202.22 176.162 1201.39 176.992 1200.36 176.992Z" fill="#101C2B"/>
<path d="M1200.36 185.384H1163.46C1162.44 185.384 1161.61 184.554 1161.61 183.529C1161.61 182.504 1162.44 181.674 1163.46 181.674H1200.36C1201.39 181.674 1202.22 182.504 1202.22 183.529C1202.22 184.554 1201.39 185.384 1200.36 185.384Z" fill="#101C2B"/>
<path d="M1196.48 114.524H1166.87C1164.82 114.524 1163.16 116.186 1163.16 118.235V118.898C1163.16 120.947 1164.82 122.608 1166.87 122.608H1196.48C1198.53 122.608 1200.19 120.947 1200.19 118.898V118.235C1200.19 116.186 1198.53 114.524 1196.48 114.524Z" fill="#1E55CD"/>
<path d="M1196.48 124.463H1166.87C1163.8 124.463 1161.3 121.967 1161.3 118.898V118.234C1161.3 115.165 1163.8 112.669 1166.87 112.669H1196.48C1199.55 112.669 1202.05 115.165 1202.05 118.234V118.898C1202.05 121.967 1199.55 124.463 1196.48 124.463ZM1166.87 116.379C1165.85 116.379 1165.01 117.212 1165.01 118.234V118.898C1165.01 119.92 1165.85 120.753 1166.87 120.753H1196.48C1197.5 120.753 1198.34 119.92 1198.34 118.898V118.234C1198.34 117.212 1197.5 116.379 1196.48 116.379H1166.87Z" fill="#101C2B"/>
<path d="M1246.43 213H1140.57C1137.49 213 1135 210.507 1135 207.435V101.565C1135 98.4928 1137.49 96 1140.57 96H1246.43C1249.51 96 1252 98.4928 1252 101.565V207.435C1252 210.507 1249.51 213 1246.43 213ZM1140.57 99.7102C1139.55 99.7102 1138.71 100.545 1138.71 101.565V207.435C1138.71 208.455 1139.55 209.29 1140.57 209.29H1246.43C1247.45 209.29 1248.29 208.455 1248.29 207.435V101.565C1248.29 100.545 1247.45 99.7102 1246.43 99.7102H1140.57Z" fill="#101C2B"/>
<path d="M1225.85 153.428C1229.79 153.428 1232.99 150.23 1232.99 146.286C1232.99 142.341 1229.79 139.144 1225.85 139.144C1221.9 139.144 1218.7 142.341 1218.7 146.286C1218.7 150.23 1221.9 153.428 1225.85 153.428Z" fill="#4EAC78"/>
<path d="M1225.85 155.283C1220.89 155.283 1216.85 151.247 1216.85 146.285C1216.85 141.324 1220.89 137.288 1225.85 137.288C1230.81 137.288 1234.85 141.324 1234.85 146.285C1234.85 151.247 1230.81 155.283 1225.85 155.283V155.283ZM1225.85 140.997C1222.93 140.997 1220.56 143.369 1220.56 146.284C1220.56 149.199 1222.93 151.571 1225.85 151.571C1228.76 151.571 1231.14 149.199 1231.14 146.284C1231.14 143.369 1228.76 140.997 1225.85 140.997Z" fill="#101C2B"/>
<path d="M1225.85 132.852C1229.79 132.852 1232.99 129.654 1232.99 125.71C1232.99 121.765 1229.79 118.567 1225.85 118.567C1221.9 118.567 1218.7 121.765 1218.7 125.71C1218.7 129.654 1221.9 132.852 1225.85 132.852Z" fill="#4EAC78"/>
<path d="M1225.85 134.707C1220.89 134.707 1216.85 130.671 1216.85 125.709C1216.85 120.748 1220.89 116.712 1225.85 116.712C1230.81 116.712 1234.85 120.748 1234.85 125.709C1234.85 130.671 1230.81 134.707 1225.85 134.707V134.707ZM1225.85 120.421C1222.93 120.421 1220.56 122.793 1220.56 125.708C1220.56 128.623 1222.93 130.995 1225.85 130.995C1228.76 130.995 1231.14 128.623 1231.14 125.708C1231.14 122.793 1228.76 120.421 1225.85 120.421V120.421Z" fill="#101C2B"/>
<path d="M1225.85 174.003C1229.79 174.003 1232.99 170.805 1232.99 166.861C1232.99 162.916 1229.79 159.719 1225.85 159.719C1221.9 159.719 1218.7 162.916 1218.7 166.861C1218.7 170.805 1221.9 174.003 1225.85 174.003Z" fill="#4EAC78"/>
<path d="M1225.85 175.858C1220.89 175.858 1216.85 171.822 1216.85 166.861C1216.85 161.899 1220.89 157.863 1225.85 157.863C1230.81 157.863 1234.85 161.899 1234.85 166.861C1234.85 171.822 1230.81 175.858 1225.85 175.858ZM1225.85 161.572C1222.93 161.572 1220.56 163.945 1220.56 166.859C1220.56 169.774 1222.93 172.147 1225.85 172.147C1228.76 172.147 1231.14 169.774 1231.14 166.859C1231.14 163.945 1228.76 161.572 1225.85 161.572Z" fill="#101C2B"/>
<path d="M1225.85 194.579C1229.79 194.579 1232.99 191.382 1232.99 187.437C1232.99 183.493 1229.79 180.295 1225.85 180.295C1221.9 180.295 1218.7 183.493 1218.7 187.437C1218.7 191.382 1221.9 194.579 1225.85 194.579Z" fill="#4EAC78"/>
<path d="M1225.85 196.434C1220.89 196.434 1216.85 192.398 1216.85 187.437C1216.85 182.475 1220.89 178.439 1225.85 178.439C1230.81 178.439 1234.85 182.475 1234.85 187.437C1234.85 192.398 1230.81 196.434 1225.85 196.434ZM1225.85 182.149C1222.93 182.149 1220.56 184.521 1220.56 187.436C1220.56 190.35 1222.93 192.723 1225.85 192.723C1228.76 192.723 1231.14 190.35 1231.14 187.436C1231.14 184.521 1228.76 182.149 1225.85 182.149Z" fill="#101C2B"/>
</g>
<circle cx="676" cy="194" r="22" fill="#F2F2F6" stroke="#C8463A" stroke-width="8"/>
<line x1="660.828" y1="178.172" x2="690.828" y2="208.172" stroke="#C8463A" stroke-width="8"/>
<path d="M341.925 266.336C341.925 266.905 341.795 267.428 341.533 267.904C341.272 268.371 340.871 268.749 340.329 269.038C339.788 269.327 339.116 269.472 338.313 269.472H336.829V273H334.435V263.172H338.313C339.097 263.172 339.76 263.307 340.301 263.578C340.843 263.849 341.249 264.222 341.519 264.698C341.79 265.174 341.925 265.72 341.925 266.336ZM338.131 267.568C338.589 267.568 338.929 267.461 339.153 267.246C339.377 267.031 339.489 266.728 339.489 266.336C339.489 265.944 339.377 265.641 339.153 265.426C338.929 265.211 338.589 265.104 338.131 265.104H336.829V267.568H338.131ZM348.334 273L346.29 269.29H345.716V273H343.322V263.172H347.34C348.114 263.172 348.772 263.307 349.314 263.578C349.864 263.849 350.275 264.222 350.546 264.698C350.816 265.165 350.952 265.687 350.952 266.266C350.952 266.919 350.765 267.503 350.392 268.016C350.028 268.529 349.486 268.893 348.768 269.108L351.036 273H348.334ZM345.716 267.596H347.2C347.638 267.596 347.965 267.489 348.18 267.274C348.404 267.059 348.516 266.756 348.516 266.364C348.516 265.991 348.404 265.697 348.18 265.482C347.965 265.267 347.638 265.16 347.2 265.16H345.716V267.596ZM357.252 273.098C356.328 273.098 355.479 272.883 354.704 272.454C353.939 272.025 353.328 271.427 352.87 270.662C352.422 269.887 352.198 269.019 352.198 268.058C352.198 267.097 352.422 266.233 352.87 265.468C353.328 264.703 353.939 264.105 354.704 263.676C355.479 263.247 356.328 263.032 357.252 263.032C358.176 263.032 359.021 263.247 359.786 263.676C360.561 264.105 361.168 264.703 361.606 265.468C362.054 266.233 362.278 267.097 362.278 268.058C362.278 269.019 362.054 269.887 361.606 270.662C361.158 271.427 360.552 272.025 359.786 272.454C359.021 272.883 358.176 273.098 357.252 273.098ZM357.252 270.914C358.036 270.914 358.662 270.653 359.128 270.13C359.604 269.607 359.842 268.917 359.842 268.058C359.842 267.19 359.604 266.499 359.128 265.986C358.662 265.463 358.036 265.202 357.252 265.202C356.459 265.202 355.824 265.459 355.348 265.972C354.882 266.485 354.648 267.181 354.648 268.058C354.648 268.926 354.882 269.621 355.348 270.144C355.824 270.657 356.459 270.914 357.252 270.914ZM367.442 263.172C368.478 263.172 369.384 263.377 370.158 263.788C370.933 264.199 371.53 264.777 371.95 265.524C372.38 266.261 372.594 267.115 372.594 268.086C372.594 269.047 372.38 269.901 371.95 270.648C371.53 271.395 370.928 271.973 370.144 272.384C369.37 272.795 368.469 273 367.442 273H363.76V263.172H367.442ZM367.288 270.928C368.194 270.928 368.898 270.681 369.402 270.186C369.906 269.691 370.158 268.991 370.158 268.086C370.158 267.181 369.906 266.476 369.402 265.972C368.898 265.468 368.194 265.216 367.288 265.216H366.154V270.928H367.288ZM376.434 263.172V269.052C376.434 269.64 376.579 270.093 376.868 270.41C377.157 270.727 377.582 270.886 378.142 270.886C378.702 270.886 379.131 270.727 379.43 270.41C379.729 270.093 379.878 269.64 379.878 269.052V263.172H382.272V269.038C382.272 269.915 382.085 270.657 381.712 271.264C381.339 271.871 380.835 272.328 380.2 272.636C379.575 272.944 378.875 273.098 378.1 273.098C377.325 273.098 376.63 272.949 376.014 272.65C375.407 272.342 374.927 271.885 374.572 271.278C374.217 270.662 374.04 269.915 374.04 269.038V263.172H376.434ZM383.697 268.072C383.697 267.101 383.907 266.238 384.327 265.482C384.747 264.717 385.33 264.124 386.077 263.704C386.833 263.275 387.687 263.06 388.639 263.06C389.806 263.06 390.804 263.368 391.635 263.984C392.466 264.6 393.021 265.44 393.301 266.504H390.669C390.473 266.093 390.193 265.781 389.829 265.566C389.474 265.351 389.068 265.244 388.611 265.244C387.874 265.244 387.276 265.501 386.819 266.014C386.362 266.527 386.133 267.213 386.133 268.072C386.133 268.931 386.362 269.617 386.819 270.13C387.276 270.643 387.874 270.9 388.611 270.9C389.068 270.9 389.474 270.793 389.829 270.578C390.193 270.363 390.473 270.051 390.669 269.64H393.301C393.021 270.704 392.466 271.544 391.635 272.16C390.804 272.767 389.806 273.07 388.639 273.07C387.687 273.07 386.833 272.86 386.077 272.44C385.33 272.011 384.747 271.418 384.327 270.662C383.907 269.906 383.697 269.043 383.697 268.072ZM401.987 263.172V265.09H399.383V273H396.989V265.09H394.385V263.172H401.987ZM405.733 263.172V273H403.339V263.172H405.733ZM412.266 273.098C411.342 273.098 410.492 272.883 409.718 272.454C408.952 272.025 408.341 271.427 407.884 270.662C407.436 269.887 407.212 269.019 407.212 268.058C407.212 267.097 407.436 266.233 407.884 265.468C408.341 264.703 408.952 264.105 409.718 263.676C410.492 263.247 411.342 263.032 412.266 263.032C413.19 263.032 414.034 263.247 414.8 263.676C415.574 264.105 416.181 264.703 416.62 265.468C417.068 266.233 417.292 267.097 417.292 268.058C417.292 269.019 417.068 269.887 416.62 270.662C416.172 271.427 415.565 272.025 414.8 272.454C414.034 272.883 413.19 273.098 412.266 273.098ZM412.266 270.914C413.05 270.914 413.675 270.653 414.142 270.13C414.618 269.607 414.856 268.917 414.856 268.058C414.856 267.19 414.618 266.499 414.142 265.986C413.675 265.463 413.05 265.202 412.266 265.202C411.472 265.202 410.838 265.459 410.362 265.972C409.895 266.485 409.662 267.181 409.662 268.058C409.662 268.926 409.895 269.621 410.362 270.144C410.838 270.657 411.472 270.914 412.266 270.914ZM427.565 273H425.171L421.167 266.938V273H418.773V263.172H421.167L425.171 269.262V263.172H427.565V273Z" fill="#101C2B"/>
<path d="M1412.86 265.172V275H1410.46V269.106L1408.27 275H1406.33L1404.12 269.092V275H1401.73V265.172H1404.56L1407.31 271.976L1410.04 265.172H1412.86ZM1420.85 273.264H1417.18L1416.59 275H1414.09L1417.64 265.172H1420.41L1423.97 275H1421.44L1420.85 273.264ZM1420.23 271.416L1419.01 267.818L1417.81 271.416H1420.23ZM1427.6 265.172V275H1425.2V265.172H1427.6ZM1438.27 275H1435.88L1431.87 268.938V275H1429.48V265.172H1431.87L1435.88 271.262V265.172H1438.27V275Z" fill="#101C2B"/>
<line x1="442.657" y1="98.3431" x2="551.657" y2="207.343" stroke="#C8463A" stroke-width="16"/>
<line x1="439.343" y1="207.343" x2="548.343" y2="98.3431" stroke="#C8463A" stroke-width="16"/>
<defs>
<clipPath id="clip0_2161_5910">
<rect width="117" height="117" fill="white" transform="translate(95 96)"/>
</clipPath>
<clipPath id="clip1_2161_5910">
<rect width="117" height="117" fill="white" transform="translate(437 96)"/>
</clipPath>
<clipPath id="clip2_2161_5910">
<rect width="117" height="117" fill="white" transform="translate(786 96)"/>
</clipPath>
<clipPath id="clip3_2161_5910">
<rect width="117" height="117" fill="white" transform="translate(1135 96)"/>
</clipPath>
</defs>
</svg>
