<svg width="1698" height="300" viewBox="0 0 1698 300" fill="none" xmlns="http://www.w3.org/2000/svg">
<rect width="1698" height="300" rx="4" fill="#F7F9FC"/>
<path d="M1612.06 241.061C1612.65 240.475 1612.65 239.525 1612.06 238.939L1602.51 229.393C1601.93 228.808 1600.98 228.808 1600.39 229.393C1599.81 229.979 1599.81 230.929 1600.39 231.515L1608.88 240L1600.39 248.485C1599.81 249.071 1599.81 250.021 1600.39 250.607C1600.98 251.192 1601.93 251.192 1602.51 250.607L1612.06 241.061ZM61 241.5H1611V238.5H61V241.5Z" fill="#29B57D"/>
<path d="M73 61L201 61" stroke="#29B57D" stroke-width="3" stroke-linecap="round"/>
<path d="M367 228.5C367.828 228.5 368.5 227.828 368.5 227L368.5 213.5C368.5 212.672 367.828 212 367 212C366.172 212 365.5 212.672 365.5 213.5L365.5 225.5L353.5 225.5C352.672 225.5 352 226.172 352 227C352 227.828 352.672 228.5 353.5 228.5L367 228.5ZM199.939 62.0607L365.939 228.061L368.061 225.939L202.061 59.9393L199.939 62.0607Z" fill="#29B57D"/>
<circle cx="379.5" cy="239.5" r="10.5" fill="#F7F9FC" stroke="#29B57D" stroke-width="4"/>
<circle cx="199.5" cy="60.5" r="10.5" fill="#F7F9FC" stroke="#29B57D" stroke-width="4"/>
<circle cx="73.5" cy="60.5" r="10.5" fill="#F7F9FC" stroke="#29B57D" stroke-width="4"/>
<circle cx="136.5" cy="60.5" r="10.5" fill="#F7F9FC" stroke="#29B57D" stroke-width="4"/>
<path d="M165.635 118.566H117.716C115.667 118.566 114.006 120.228 114.006 122.277V190.868C114.006 192.918 115.667 194.579 117.716 194.579H165.635C167.684 194.579 169.345 192.918 169.345 190.868V122.277C169.345 120.228 167.684 118.566 165.635 118.566Z" fill="#2459D1"/>
<path d="M165.635 196.434H117.716C114.647 196.434 112.151 193.938 112.151 190.869V122.277C112.151 119.208 114.647 116.711 117.716 116.711H165.635C168.704 116.711 171.2 119.208 171.2 122.277V190.869C171.2 193.938 168.704 196.434 165.635 196.434ZM117.716 120.422C116.693 120.422 115.861 121.254 115.861 122.277V190.869C115.861 191.891 116.693 192.724 117.716 192.724H165.635C166.657 192.724 167.49 191.891 167.49 190.869V122.277C167.49 121.254 166.657 120.422 165.635 120.422H117.716Z" fill="#000E41"/>
<path d="M160.36 143.423H123.464C122.44 143.423 121.609 142.592 121.609 141.568C121.609 140.543 122.44 139.712 123.464 139.712H160.36C161.385 139.712 162.216 140.543 162.216 141.568C162.216 142.592 161.385 143.423 160.36 143.423Z" fill="#000E41"/>
<path d="M160.36 135.031H123.464C122.44 135.031 121.609 134.2 121.609 133.175C121.609 132.15 122.44 131.32 123.464 131.32H160.36C161.385 131.32 162.216 132.15 162.216 133.175C162.216 134.2 161.385 135.031 160.36 135.031Z" fill="#000E41"/>
<path d="M160.36 151.815H123.464C122.44 151.815 121.609 150.985 121.609 149.96C121.609 148.935 122.44 148.104 123.464 148.104H160.36C161.385 148.104 162.216 148.935 162.216 149.96C162.216 150.985 161.385 151.815 160.36 151.815Z" fill="#000E41"/>
<path d="M160.36 160.207H123.464C122.44 160.207 121.609 159.377 121.609 158.352C121.609 157.327 122.44 156.497 123.464 156.497H160.36C161.385 156.497 162.216 157.327 162.216 158.352C162.216 159.377 161.385 160.207 160.36 160.207Z" fill="#000E41"/>
<path d="M160.36 168.6H123.464C122.44 168.6 121.609 167.77 121.609 166.745C121.609 165.72 122.44 164.89 123.464 164.89H160.36C161.385 164.89 162.216 165.72 162.216 166.745C162.216 167.77 161.385 168.6 160.36 168.6Z" fill="#000E41"/>
<path d="M160.36 176.992H123.464C122.44 176.992 121.609 176.162 121.609 175.137C121.609 174.112 122.44 173.282 123.464 173.282H160.36C161.385 173.282 162.216 174.112 162.216 175.137C162.216 176.162 161.385 176.992 160.36 176.992Z" fill="#000E41"/>
<path d="M160.36 185.384H123.464C122.44 185.384 121.609 184.554 121.609 183.529C121.609 182.504 122.44 181.674 123.464 181.674H160.36C161.385 181.674 162.216 182.504 162.216 183.529C162.216 184.554 161.385 185.384 160.36 185.384Z" fill="#000E41"/>
<path d="M156.481 114.524H126.87C124.821 114.524 123.16 116.186 123.16 118.235V118.898C123.16 120.947 124.821 122.608 126.87 122.608H156.481C158.53 122.608 160.191 120.947 160.191 118.898V118.235C160.191 116.186 158.53 114.524 156.481 114.524Z" fill="#2459D1"/>
<path d="M156.481 124.463H126.87C123.801 124.463 121.304 121.967 121.304 118.898V118.235C121.304 115.166 123.801 112.669 126.87 112.669H156.481C159.55 112.669 162.046 115.166 162.046 118.235V118.898C162.046 121.967 159.55 124.463 156.481 124.463ZM126.87 116.38C125.847 116.38 125.015 117.212 125.015 118.235V118.898C125.015 119.921 125.847 120.753 126.87 120.753H156.481C157.504 120.753 158.336 119.921 158.336 118.898V118.235C158.336 117.212 157.504 116.38 156.481 116.38H126.87Z" fill="#000E41"/>
<path d="M206.435 213H100.565C97.4928 213 95 210.507 95 207.435V101.565C95 98.4928 97.4928 96 100.565 96H206.435C209.507 96 212 98.4928 212 101.565V207.435C212 210.507 209.507 213 206.435 213ZM100.565 99.7102C99.545 99.7102 98.7102 100.545 98.7102 101.565V207.435C98.7102 208.455 99.545 209.29 100.565 209.29H206.435C207.455 209.29 208.29 208.455 208.29 207.435V101.565C208.29 100.545 207.455 99.7102 206.435 99.7102H100.565Z" fill="#000E41"/>
<path d="M185.852 153.427C189.797 153.427 192.994 150.23 192.994 146.285C192.994 142.341 189.797 139.143 185.852 139.143C181.908 139.143 178.71 142.341 178.71 146.285C178.71 150.23 181.908 153.427 185.852 153.427Z" fill="#29B57D"/>
<path d="M185.852 155.283C180.891 155.283 176.855 151.247 176.855 146.285C176.855 141.324 180.891 137.288 185.852 137.288C190.813 137.288 194.849 141.324 194.849 146.285C194.849 151.247 190.813 155.283 185.852 155.283ZM185.852 140.997C182.936 140.997 180.565 143.369 180.565 146.284C180.565 149.199 182.937 151.571 185.852 151.571C188.767 151.571 191.139 149.199 191.139 146.284C191.139 143.369 188.767 140.997 185.852 140.997Z" fill="#000E41"/>
<path d="M185.852 132.852C189.797 132.852 192.994 129.654 192.994 125.71C192.994 121.765 189.797 118.567 185.852 118.567C181.908 118.567 178.71 121.765 178.71 125.71C178.71 129.654 181.908 132.852 185.852 132.852Z" fill="#29B57D"/>
<path d="M185.852 134.707C180.891 134.707 176.855 130.671 176.855 125.71C176.855 120.748 180.891 116.712 185.852 116.712C190.813 116.712 194.849 120.748 194.849 125.71C194.849 130.671 190.813 134.707 185.852 134.707ZM185.852 120.421C182.936 120.421 180.565 122.794 180.565 125.709C180.565 128.623 182.937 130.996 185.852 130.996C188.767 130.996 191.139 128.623 191.139 125.709C191.139 122.794 188.767 120.421 185.852 120.421Z" fill="#000E41"/>
<path d="M185.852 174.003C189.797 174.003 192.994 170.805 192.994 166.861C192.994 162.916 189.797 159.719 185.852 159.719C181.908 159.719 178.71 162.916 178.71 166.861C178.71 170.805 181.908 174.003 185.852 174.003Z" fill="#29B57D"/>
<path d="M185.852 175.858C180.891 175.858 176.855 171.822 176.855 166.861C176.855 161.9 180.891 157.864 185.852 157.864C190.813 157.864 194.849 161.9 194.849 166.861C194.849 171.822 190.813 175.858 185.852 175.858ZM185.852 161.573C182.936 161.573 180.565 163.945 180.565 166.86C180.565 169.775 182.937 172.147 185.852 172.147C188.767 172.147 191.139 169.775 191.139 166.86C191.139 163.945 188.767 161.573 185.852 161.573Z" fill="#000E41"/>
<path d="M185.852 194.578C189.797 194.578 192.994 191.381 192.994 187.436C192.994 183.492 189.797 180.294 185.852 180.294C181.908 180.294 178.71 183.492 178.71 187.436C178.71 191.381 181.908 194.578 185.852 194.578Z" fill="#29B57D"/>
<path d="M185.852 196.434C180.891 196.434 176.855 192.398 176.855 187.436C176.855 182.475 180.891 178.439 185.852 178.439C190.813 178.439 194.849 182.475 194.849 187.436C194.849 192.398 190.813 196.434 185.852 196.434ZM185.852 182.148C182.936 182.148 180.565 184.52 180.565 187.435C180.565 190.35 182.937 192.722 185.852 192.722C188.767 192.722 191.139 190.35 191.139 187.435C191.139 184.52 188.767 182.148 185.852 182.148Z" fill="#000E41"/>
<path d="M415 61L543 61" stroke="#29B57D" stroke-width="3" stroke-linecap="round"/>
<path d="M691.939 212.061C692.525 212.646 693.475 212.646 694.061 212.061C694.646 211.475 694.646 210.525 694.061 209.939L691.939 212.061ZM541.939 62.0607L691.939 212.061L694.061 209.939L544.061 59.9393L541.939 62.0607Z" fill="#29B57D"/>
<circle cx="721.5" cy="239.5" r="10.5" fill="#F7F9FC" stroke="#29B57D" stroke-width="4"/>
<circle cx="541.5" cy="60.5" r="10.5" fill="#F7F9FC" stroke="#29B57D" stroke-width="4"/>
<circle cx="415.5" cy="60.5" r="10.5" fill="#F7F9FC" stroke="#29B57D" stroke-width="4"/>
<circle cx="478.5" cy="60.5" r="10.5" fill="#F7F9FC" stroke="#29B57D" stroke-width="4"/>
<path d="M507.635 118.566H459.716C457.667 118.566 456.006 120.228 456.006 122.277V190.868C456.006 192.918 457.667 194.579 459.716 194.579H507.635C509.684 194.579 511.345 192.918 511.345 190.868V122.277C511.345 120.228 509.684 118.566 507.635 118.566Z" fill="#2459D1"/>
<path d="M507.635 196.434H459.716C456.647 196.434 454.151 193.938 454.151 190.869V122.277C454.151 119.208 456.647 116.711 459.716 116.711H507.635C510.704 116.711 513.2 119.208 513.2 122.277V190.869C513.2 193.938 510.704 196.434 507.635 196.434ZM459.716 120.422C458.693 120.422 457.861 121.254 457.861 122.277V190.869C457.861 191.891 458.693 192.724 459.716 192.724H507.635C508.657 192.724 509.49 191.891 509.49 190.869V122.277C509.49 121.254 508.657 120.422 507.635 120.422H459.716Z" fill="#000E41"/>
<path d="M502.36 143.423H465.464C464.44 143.423 463.609 142.592 463.609 141.568C463.609 140.543 464.44 139.712 465.464 139.712H502.36C503.385 139.712 504.216 140.543 504.216 141.568C504.216 142.592 503.385 143.423 502.36 143.423Z" fill="#000E41"/>
<path d="M502.36 135.031H465.464C464.44 135.031 463.609 134.2 463.609 133.175C463.609 132.15 464.44 131.32 465.464 131.32H502.36C503.385 131.32 504.216 132.15 504.216 133.175C504.216 134.2 503.385 135.031 502.36 135.031Z" fill="#000E41"/>
<path d="M502.36 151.815H465.464C464.44 151.815 463.609 150.985 463.609 149.96C463.609 148.935 464.44 148.104 465.464 148.104H502.36C503.385 148.104 504.216 148.935 504.216 149.96C504.216 150.985 503.385 151.815 502.36 151.815Z" fill="#000E41"/>
<path d="M502.36 160.207H465.464C464.44 160.207 463.609 159.377 463.609 158.352C463.609 157.327 464.44 156.497 465.464 156.497H502.36C503.385 156.497 504.216 157.327 504.216 158.352C504.216 159.377 503.385 160.207 502.36 160.207Z" fill="#000E41"/>
<path d="M502.36 168.6H465.464C464.44 168.6 463.609 167.77 463.609 166.745C463.609 165.72 464.44 164.89 465.464 164.89H502.36C503.385 164.89 504.216 165.72 504.216 166.745C504.216 167.77 503.385 168.6 502.36 168.6Z" fill="#000E41"/>
<path d="M502.36 176.992H465.464C464.44 176.992 463.609 176.162 463.609 175.137C463.609 174.112 464.44 173.282 465.464 173.282H502.36C503.385 173.282 504.216 174.112 504.216 175.137C504.216 176.162 503.385 176.992 502.36 176.992Z" fill="#000E41"/>
<path d="M502.36 185.384H465.464C464.44 185.384 463.609 184.554 463.609 183.529C463.609 182.504 464.44 181.674 465.464 181.674H502.36C503.385 181.674 504.216 182.504 504.216 183.529C504.216 184.554 503.385 185.384 502.36 185.384Z" fill="#000E41"/>
<path d="M498.481 114.524H468.87C466.821 114.524 465.16 116.186 465.16 118.235V118.898C465.16 120.947 466.821 122.608 468.87 122.608H498.481C500.53 122.608 502.191 120.947 502.191 118.898V118.235C502.191 116.186 500.53 114.524 498.481 114.524Z" fill="#2459D1"/>
<path d="M498.481 124.463H468.87C465.801 124.463 463.304 121.967 463.304 118.898V118.235C463.304 115.166 465.801 112.669 468.87 112.669H498.481C501.55 112.669 504.046 115.166 504.046 118.235V118.898C504.046 121.967 501.55 124.463 498.481 124.463ZM468.87 116.38C467.847 116.38 467.015 117.212 467.015 118.235V118.898C467.015 119.921 467.847 120.753 468.87 120.753H498.481C499.504 120.753 500.336 119.921 500.336 118.898V118.235C500.336 117.212 499.504 116.38 498.481 116.38H468.87Z" fill="#000E41"/>
<path d="M548.435 213H442.565C439.493 213 437 210.507 437 207.435V101.565C437 98.4928 439.493 96 442.565 96H548.435C551.507 96 554 98.4928 554 101.565V207.435C554 210.507 551.507 213 548.435 213ZM442.565 99.7102C441.545 99.7102 440.71 100.545 440.71 101.565V207.435C440.71 208.455 441.545 209.29 442.565 209.29H548.435C549.455 209.29 550.29 208.455 550.29 207.435V101.565C550.29 100.545 549.455 99.7102 548.435 99.7102H442.565Z" fill="#000E41"/>
<path d="M527.852 153.427C531.797 153.427 534.994 150.23 534.994 146.285C534.994 142.341 531.797 139.143 527.852 139.143C523.908 139.143 520.71 142.341 520.71 146.285C520.71 150.23 523.908 153.427 527.852 153.427Z" fill="#29B57D"/>
<path d="M527.852 155.283C522.891 155.283 518.855 151.247 518.855 146.285C518.855 141.324 522.891 137.288 527.852 137.288C532.813 137.288 536.849 141.324 536.849 146.285C536.849 151.247 532.813 155.283 527.852 155.283ZM527.852 140.997C524.936 140.997 522.565 143.369 522.565 146.284C522.565 149.199 524.937 151.571 527.852 151.571C530.767 151.571 533.139 149.199 533.139 146.284C533.139 143.369 530.767 140.997 527.852 140.997Z" fill="#000E41"/>
<path d="M527.852 132.852C531.797 132.852 534.994 129.654 534.994 125.71C534.994 121.765 531.797 118.567 527.852 118.567C523.908 118.567 520.71 121.765 520.71 125.71C520.71 129.654 523.908 132.852 527.852 132.852Z" fill="#29B57D"/>
<path d="M527.852 134.707C522.891 134.707 518.855 130.671 518.855 125.71C518.855 120.748 522.891 116.712 527.852 116.712C532.813 116.712 536.849 120.748 536.849 125.71C536.849 130.671 532.813 134.707 527.852 134.707ZM527.852 120.421C524.936 120.421 522.565 122.794 522.565 125.709C522.565 128.623 524.937 130.996 527.852 130.996C530.767 130.996 533.139 128.623 533.139 125.709C533.139 122.794 530.767 120.421 527.852 120.421Z" fill="#000E41"/>
<path d="M527.852 174.003C531.797 174.003 534.994 170.805 534.994 166.861C534.994 162.916 531.797 159.719 527.852 159.719C523.908 159.719 520.71 162.916 520.71 166.861C520.71 170.805 523.908 174.003 527.852 174.003Z" fill="#29B57D"/>
<path d="M527.852 175.858C522.891 175.858 518.855 171.822 518.855 166.861C518.855 161.9 522.891 157.864 527.852 157.864C532.813 157.864 536.849 161.9 536.849 166.861C536.849 171.822 532.813 175.858 527.852 175.858ZM527.852 161.573C524.936 161.573 522.565 163.945 522.565 166.86C522.565 169.775 524.937 172.147 527.852 172.147C530.767 172.147 533.139 169.775 533.139 166.86C533.139 163.945 530.767 161.573 527.852 161.573Z" fill="#000E41"/>
<path d="M527.852 194.578C531.797 194.578 534.994 191.381 534.994 187.436C534.994 183.492 531.797 180.294 527.852 180.294C523.908 180.294 520.71 183.492 520.71 187.436C520.71 191.381 523.908 194.578 527.852 194.578Z" fill="#29B57D"/>
<path d="M527.852 196.434C522.891 196.434 518.855 192.398 518.855 187.436C518.855 182.475 522.891 178.439 527.852 178.439C532.813 178.439 536.849 182.475 536.849 187.436C536.849 192.398 532.813 196.434 527.852 196.434ZM527.852 182.148C524.936 182.148 522.565 184.52 522.565 187.435C522.565 190.35 524.937 192.722 527.852 192.722C530.767 192.722 533.139 190.35 533.139 187.435C533.139 184.52 530.767 182.148 527.852 182.148Z" fill="#000E41"/>
<path d="M764 61L892 61" stroke="#29B57D" stroke-width="3" stroke-linecap="round"/>
<path d="M1058 228.5C1058.83 228.5 1059.5 227.828 1059.5 227L1059.5 213.5C1059.5 212.672 1058.83 212 1058 212C1057.17 212 1056.5 212.672 1056.5 213.5L1056.5 225.5L1044.5 225.5C1043.67 225.5 1043 226.172 1043 227C1043 227.828 1043.67 228.5 1044.5 228.5L1058 228.5ZM890.939 62.0607L1056.94 228.061L1059.06 225.939L893.061 59.9393L890.939 62.0607Z" fill="#29B57D"/>
<circle cx="1070.5" cy="239.5" r="10.5" fill="#F7F9FC" stroke="#29B57D" stroke-width="4"/>
<circle cx="890.5" cy="60.5" r="10.5" fill="#F7F9FC" stroke="#29B57D" stroke-width="4"/>
<circle cx="764.5" cy="60.5" r="10.5" fill="#F7F9FC" stroke="#29B57D" stroke-width="4"/>
<circle cx="827.5" cy="60.5" r="10.5" fill="#F7F9FC" stroke="#29B57D" stroke-width="4"/>
<path d="M856.635 118.566H808.716C806.667 118.566 805.006 120.228 805.006 122.277V190.868C805.006 192.918 806.667 194.579 808.716 194.579H856.635C858.684 194.579 860.345 192.918 860.345 190.868V122.277C860.345 120.228 858.684 118.566 856.635 118.566Z" fill="#2459D1"/>
<path d="M856.635 196.434H808.716C805.647 196.434 803.151 193.938 803.151 190.869V122.277C803.151 119.208 805.647 116.711 808.716 116.711H856.635C859.704 116.711 862.2 119.208 862.2 122.277V190.869C862.2 193.938 859.704 196.434 856.635 196.434ZM808.716 120.422C807.693 120.422 806.861 121.254 806.861 122.277V190.869C806.861 191.891 807.693 192.724 808.716 192.724H856.635C857.657 192.724 858.49 191.891 858.49 190.869V122.277C858.49 121.254 857.657 120.422 856.635 120.422H808.716Z" fill="#000E41"/>
<path d="M851.36 143.423H814.464C813.44 143.423 812.609 142.592 812.609 141.568C812.609 140.543 813.44 139.712 814.464 139.712H851.36C852.385 139.712 853.216 140.543 853.216 141.568C853.216 142.592 852.385 143.423 851.36 143.423Z" fill="#000E41"/>
<path d="M851.36 135.031H814.464C813.44 135.031 812.609 134.2 812.609 133.175C812.609 132.15 813.44 131.32 814.464 131.32H851.36C852.385 131.32 853.216 132.15 853.216 133.175C853.216 134.2 852.385 135.031 851.36 135.031Z" fill="#000E41"/>
<path d="M851.36 151.815H814.464C813.44 151.815 812.609 150.985 812.609 149.96C812.609 148.935 813.44 148.104 814.464 148.104H851.36C852.385 148.104 853.216 148.935 853.216 149.96C853.216 150.985 852.385 151.815 851.36 151.815Z" fill="#000E41"/>
<path d="M851.36 160.207H814.464C813.44 160.207 812.609 159.377 812.609 158.352C812.609 157.327 813.44 156.497 814.464 156.497H851.36C852.385 156.497 853.216 157.327 853.216 158.352C853.216 159.377 852.385 160.207 851.36 160.207Z" fill="#000E41"/>
<path d="M851.36 168.6H814.464C813.44 168.6 812.609 167.77 812.609 166.745C812.609 165.72 813.44 164.89 814.464 164.89H851.36C852.385 164.89 853.216 165.72 853.216 166.745C853.216 167.77 852.385 168.6 851.36 168.6Z" fill="#000E41"/>
<path d="M851.36 176.992H814.464C813.44 176.992 812.609 176.162 812.609 175.137C812.609 174.112 813.44 173.282 814.464 173.282H851.36C852.385 173.282 853.216 174.112 853.216 175.137C853.216 176.162 852.385 176.992 851.36 176.992Z" fill="#000E41"/>
<path d="M851.36 185.384H814.464C813.44 185.384 812.609 184.554 812.609 183.529C812.609 182.504 813.44 181.674 814.464 181.674H851.36C852.385 181.674 853.216 182.504 853.216 183.529C853.216 184.554 852.385 185.384 851.36 185.384Z" fill="#000E41"/>
<path d="M847.481 114.524H817.87C815.821 114.524 814.16 116.186 814.16 118.235V118.898C814.16 120.947 815.821 122.608 817.87 122.608H847.481C849.53 122.608 851.191 120.947 851.191 118.898V118.235C851.191 116.186 849.53 114.524 847.481 114.524Z" fill="#2459D1"/>
<path d="M847.481 124.463H817.87C814.801 124.463 812.304 121.967 812.304 118.898V118.235C812.304 115.166 814.801 112.669 817.87 112.669H847.481C850.55 112.669 853.046 115.166 853.046 118.235V118.898C853.046 121.967 850.55 124.463 847.481 124.463ZM817.87 116.38C816.847 116.38 816.015 117.212 816.015 118.235V118.898C816.015 119.921 816.847 120.753 817.87 120.753H847.481C848.504 120.753 849.336 119.921 849.336 118.898V118.235C849.336 117.212 848.504 116.38 847.481 116.38H817.87Z" fill="#000E41"/>
<path d="M897.435 213H791.565C788.493 213 786 210.507 786 207.435V101.565C786 98.4928 788.493 96 791.565 96H897.435C900.507 96 903 98.4928 903 101.565V207.435C903 210.507 900.507 213 897.435 213ZM791.565 99.7102C790.545 99.7102 789.71 100.545 789.71 101.565V207.435C789.71 208.455 790.545 209.29 791.565 209.29H897.435C898.455 209.29 899.29 208.455 899.29 207.435V101.565C899.29 100.545 898.455 99.7102 897.435 99.7102H791.565Z" fill="#000E41"/>
<path d="M876.852 153.427C880.797 153.427 883.994 150.23 883.994 146.285C883.994 142.341 880.797 139.143 876.852 139.143C872.908 139.143 869.71 142.341 869.71 146.285C869.71 150.23 872.908 153.427 876.852 153.427Z" fill="#29B57D"/>
<path d="M876.852 155.283C871.891 155.283 867.855 151.247 867.855 146.285C867.855 141.324 871.891 137.288 876.852 137.288C881.813 137.288 885.849 141.324 885.849 146.285C885.849 151.247 881.813 155.283 876.852 155.283ZM876.852 140.997C873.936 140.997 871.565 143.369 871.565 146.284C871.565 149.199 873.937 151.571 876.852 151.571C879.767 151.571 882.139 149.199 882.139 146.284C882.139 143.369 879.767 140.997 876.852 140.997Z" fill="#000E41"/>
<path d="M876.852 132.852C880.797 132.852 883.994 129.654 883.994 125.71C883.994 121.765 880.797 118.567 876.852 118.567C872.908 118.567 869.71 121.765 869.71 125.71C869.71 129.654 872.908 132.852 876.852 132.852Z" fill="#29B57D"/>
<path d="M876.852 134.707C871.891 134.707 867.855 130.671 867.855 125.71C867.855 120.748 871.891 116.712 876.852 116.712C881.813 116.712 885.849 120.748 885.849 125.71C885.849 130.671 881.813 134.707 876.852 134.707ZM876.852 120.421C873.936 120.421 871.565 122.794 871.565 125.709C871.565 128.623 873.937 130.996 876.852 130.996C879.767 130.996 882.139 128.623 882.139 125.709C882.139 122.794 879.767 120.421 876.852 120.421Z" fill="#000E41"/>
<path d="M876.852 174.003C880.797 174.003 883.994 170.805 883.994 166.861C883.994 162.916 880.797 159.719 876.852 159.719C872.908 159.719 869.71 162.916 869.71 166.861C869.71 170.805 872.908 174.003 876.852 174.003Z" fill="#29B57D"/>
<path d="M876.852 175.858C871.891 175.858 867.855 171.822 867.855 166.861C867.855 161.9 871.891 157.864 876.852 157.864C881.813 157.864 885.849 161.9 885.849 166.861C885.849 171.822 881.813 175.858 876.852 175.858ZM876.852 161.573C873.936 161.573 871.565 163.945 871.565 166.86C871.565 169.775 873.937 172.147 876.852 172.147C879.767 172.147 882.139 169.775 882.139 166.86C882.139 163.945 879.767 161.573 876.852 161.573Z" fill="#000E41"/>
<path d="M876.852 194.578C880.797 194.578 883.994 191.381 883.994 187.436C883.994 183.492 880.797 180.294 876.852 180.294C872.908 180.294 869.71 183.492 869.71 187.436C869.71 191.381 872.908 194.578 876.852 194.578Z" fill="#29B57D"/>
<path d="M876.852 196.434C871.891 196.434 867.855 192.398 867.855 187.436C867.855 182.475 871.891 178.439 876.852 178.439C881.813 178.439 885.849 182.475 885.849 187.436C885.849 192.398 881.813 196.434 876.852 196.434ZM876.852 182.148C873.936 182.148 871.565 184.52 871.565 187.435C871.565 190.35 873.937 192.722 876.852 192.722C879.767 192.722 882.139 190.35 882.139 187.435C882.139 184.52 879.767 182.148 876.852 182.148Z" fill="#000E41"/>
<path d="M1113 61L1241 61" stroke="#29B57D" stroke-width="3" stroke-linecap="round"/>
<path d="M1407 228.5C1407.83 228.5 1408.5 227.828 1408.5 227L1408.5 213.5C1408.5 212.672 1407.83 212 1407 212C1406.17 212 1405.5 212.672 1405.5 213.5L1405.5 225.5L1393.5 225.5C1392.67 225.5 1392 226.172 1392 227C1392 227.828 1392.67 228.5 1393.5 228.5L1407 228.5ZM1239.94 62.0607L1405.94 228.061L1408.06 225.939L1242.06 59.9393L1239.94 62.0607Z" fill="#29B57D"/>
<circle cx="1419.5" cy="239.5" r="10.5" fill="#F7F9FC" stroke="#29B57D" stroke-width="4"/>
<circle cx="1239.5" cy="60.5" r="10.5" fill="#F7F9FC" stroke="#29B57D" stroke-width="4"/>
<circle cx="1113.5" cy="60.5" r="10.5" fill="#F7F9FC" stroke="#29B57D" stroke-width="4"/>
<circle cx="1176.5" cy="60.5" r="10.5" fill="#F7F9FC" stroke="#29B57D" stroke-width="4"/>
<path d="M1205.63 118.566H1157.72C1155.67 118.566 1154.01 120.228 1154.01 122.277V190.868C1154.01 192.918 1155.67 194.579 1157.72 194.579H1205.63C1207.68 194.579 1209.35 192.918 1209.35 190.868V122.277C1209.35 120.228 1207.68 118.566 1205.63 118.566Z" fill="#2459D1"/>
<path d="M1205.63 196.434H1157.72C1154.65 196.434 1152.15 193.938 1152.15 190.869V122.277C1152.15 119.208 1154.65 116.711 1157.72 116.711H1205.63C1208.7 116.711 1211.2 119.208 1211.2 122.277V190.869C1211.2 193.938 1208.7 196.434 1205.63 196.434ZM1157.72 120.422C1156.69 120.422 1155.86 121.254 1155.86 122.277V190.869C1155.86 191.891 1156.69 192.724 1157.72 192.724H1205.63C1206.66 192.724 1207.49 191.891 1207.49 190.869V122.277C1207.49 121.254 1206.66 120.422 1205.63 120.422H1157.72Z" fill="#000E41"/>
<path d="M1200.36 143.423H1163.46C1162.44 143.423 1161.61 142.592 1161.61 141.568C1161.61 140.543 1162.44 139.712 1163.46 139.712H1200.36C1201.39 139.712 1202.22 140.543 1202.22 141.568C1202.22 142.592 1201.39 143.423 1200.36 143.423Z" fill="#000E41"/>
<path d="M1200.36 135.031H1163.46C1162.44 135.031 1161.61 134.2 1161.61 133.175C1161.61 132.15 1162.44 131.32 1163.46 131.32H1200.36C1201.39 131.32 1202.22 132.15 1202.22 133.175C1202.22 134.2 1201.39 135.031 1200.36 135.031Z" fill="#000E41"/>
<path d="M1200.36 151.815H1163.46C1162.44 151.815 1161.61 150.985 1161.61 149.96C1161.61 148.935 1162.44 148.104 1163.46 148.104H1200.36C1201.39 148.104 1202.22 148.935 1202.22 149.96C1202.22 150.985 1201.39 151.815 1200.36 151.815Z" fill="#000E41"/>
<path d="M1200.36 160.207H1163.46C1162.44 160.207 1161.61 159.377 1161.61 158.352C1161.61 157.327 1162.44 156.497 1163.46 156.497H1200.36C1201.39 156.497 1202.22 157.327 1202.22 158.352C1202.22 159.377 1201.39 160.207 1200.36 160.207Z" fill="#000E41"/>
<path d="M1200.36 168.6H1163.46C1162.44 168.6 1161.61 167.77 1161.61 166.745C1161.61 165.72 1162.44 164.89 1163.46 164.89H1200.36C1201.39 164.89 1202.22 165.72 1202.22 166.745C1202.22 167.77 1201.39 168.6 1200.36 168.6Z" fill="#000E41"/>
<path d="M1200.36 176.992H1163.46C1162.44 176.992 1161.61 176.162 1161.61 175.137C1161.61 174.112 1162.44 173.282 1163.46 173.282H1200.36C1201.39 173.282 1202.22 174.112 1202.22 175.137C1202.22 176.162 1201.39 176.992 1200.36 176.992Z" fill="#000E41"/>
<path d="M1200.36 185.384H1163.46C1162.44 185.384 1161.61 184.554 1161.61 183.529C1161.61 182.504 1162.44 181.674 1163.46 181.674H1200.36C1201.39 181.674 1202.22 182.504 1202.22 183.529C1202.22 184.554 1201.39 185.384 1200.36 185.384Z" fill="#000E41"/>
<path d="M1196.48 114.524H1166.87C1164.82 114.524 1163.16 116.186 1163.16 118.235V118.898C1163.16 120.947 1164.82 122.608 1166.87 122.608H1196.48C1198.53 122.608 1200.19 120.947 1200.19 118.898V118.235C1200.19 116.186 1198.53 114.524 1196.48 114.524Z" fill="#2459D1"/>
<path d="M1196.48 124.463H1166.87C1163.8 124.463 1161.3 121.967 1161.3 118.898V118.235C1161.3 115.166 1163.8 112.669 1166.87 112.669H1196.48C1199.55 112.669 1202.05 115.166 1202.05 118.235V118.898C1202.05 121.967 1199.55 124.463 1196.48 124.463ZM1166.87 116.38C1165.85 116.38 1165.01 117.212 1165.01 118.235V118.898C1165.01 119.921 1165.85 120.753 1166.87 120.753H1196.48C1197.5 120.753 1198.34 119.921 1198.34 118.898V118.235C1198.34 117.212 1197.5 116.38 1196.48 116.38H1166.87Z" fill="#000E41"/>
<path d="M1246.43 213H1140.57C1137.49 213 1135 210.507 1135 207.435V101.565C1135 98.4928 1137.49 96 1140.57 96H1246.43C1249.51 96 1252 98.4928 1252 101.565V207.435C1252 210.507 1249.51 213 1246.43 213ZM1140.57 99.7102C1139.55 99.7102 1138.71 100.545 1138.71 101.565V207.435C1138.71 208.455 1139.55 209.29 1140.57 209.29H1246.43C1247.45 209.29 1248.29 208.455 1248.29 207.435V101.565C1248.29 100.545 1247.45 99.7102 1246.43 99.7102H1140.57Z" fill="#000E41"/>
<path d="M1225.85 153.427C1229.8 153.427 1232.99 150.23 1232.99 146.285C1232.99 142.341 1229.8 139.143 1225.85 139.143C1221.91 139.143 1218.71 142.341 1218.71 146.285C1218.71 150.23 1221.91 153.427 1225.85 153.427Z" fill="#29B57D"/>
<path d="M1225.85 155.283C1220.89 155.283 1216.85 151.247 1216.85 146.285C1216.85 141.324 1220.89 137.288 1225.85 137.288C1230.81 137.288 1234.85 141.324 1234.85 146.285C1234.85 151.247 1230.81 155.283 1225.85 155.283ZM1225.85 140.997C1222.94 140.997 1220.57 143.369 1220.57 146.284C1220.57 149.199 1222.94 151.571 1225.85 151.571C1228.77 151.571 1231.14 149.199 1231.14 146.284C1231.14 143.369 1228.77 140.997 1225.85 140.997Z" fill="#000E41"/>
<path d="M1225.85 132.852C1229.8 132.852 1232.99 129.654 1232.99 125.71C1232.99 121.765 1229.8 118.567 1225.85 118.567C1221.91 118.567 1218.71 121.765 1218.71 125.71C1218.71 129.654 1221.91 132.852 1225.85 132.852Z" fill="#29B57D"/>
<path d="M1225.85 134.707C1220.89 134.707 1216.85 130.671 1216.85 125.71C1216.85 120.748 1220.89 116.712 1225.85 116.712C1230.81 116.712 1234.85 120.748 1234.85 125.71C1234.85 130.671 1230.81 134.707 1225.85 134.707ZM1225.85 120.421C1222.94 120.421 1220.57 122.794 1220.57 125.709C1220.57 128.623 1222.94 130.996 1225.85 130.996C1228.77 130.996 1231.14 128.623 1231.14 125.709C1231.14 122.794 1228.77 120.421 1225.85 120.421Z" fill="#000E41"/>
<path d="M1225.85 174.003C1229.8 174.003 1232.99 170.805 1232.99 166.861C1232.99 162.916 1229.8 159.719 1225.85 159.719C1221.91 159.719 1218.71 162.916 1218.71 166.861C1218.71 170.805 1221.91 174.003 1225.85 174.003Z" fill="#29B57D"/>
<path d="M1225.85 175.858C1220.89 175.858 1216.85 171.822 1216.85 166.861C1216.85 161.9 1220.89 157.864 1225.85 157.864C1230.81 157.864 1234.85 161.9 1234.85 166.861C1234.85 171.822 1230.81 175.858 1225.85 175.858ZM1225.85 161.573C1222.94 161.573 1220.57 163.945 1220.57 166.86C1220.57 169.775 1222.94 172.147 1225.85 172.147C1228.77 172.147 1231.14 169.775 1231.14 166.86C1231.14 163.945 1228.77 161.573 1225.85 161.573Z" fill="#000E41"/>
<path d="M1225.85 194.578C1229.8 194.578 1232.99 191.381 1232.99 187.436C1232.99 183.492 1229.8 180.294 1225.85 180.294C1221.91 180.294 1218.71 183.492 1218.71 187.436C1218.71 191.381 1221.91 194.578 1225.85 194.578Z" fill="#29B57D"/>
<path d="M1225.85 196.434C1220.89 196.434 1216.85 192.398 1216.85 187.436C1216.85 182.475 1220.89 178.439 1225.85 178.439C1230.81 178.439 1234.85 182.475 1234.85 187.436C1234.85 192.398 1230.81 196.434 1225.85 196.434ZM1225.85 182.148C1222.94 182.148 1220.57 184.52 1220.57 187.435C1220.57 190.35 1222.94 192.722 1225.85 192.722C1228.77 192.722 1231.14 190.35 1231.14 187.435C1231.14 184.52 1228.77 182.148 1225.85 182.148Z" fill="#000E41"/>
<circle cx="676" cy="194" r="22" fill="#F7F9FC" stroke="#ED475C" stroke-width="8"/>
<line x1="660.828" y1="178.172" x2="690.828" y2="208.172" stroke="#ED475C" stroke-width="8"/>
<path d="M341.925 266.336C341.925 266.905 341.795 267.428 341.533 267.904C341.272 268.371 340.871 268.749 340.329 269.038C339.788 269.327 339.116 269.472 338.313 269.472H336.829V273H334.435V263.172H338.313C339.097 263.172 339.76 263.307 340.301 263.578C340.843 263.849 341.249 264.222 341.519 264.698C341.79 265.174 341.925 265.72 341.925 266.336ZM338.131 267.568C338.589 267.568 338.929 267.461 339.153 267.246C339.377 267.031 339.489 266.728 339.489 266.336C339.489 265.944 339.377 265.641 339.153 265.426C338.929 265.211 338.589 265.104 338.131 265.104H336.829V267.568H338.131ZM348.334 273L346.29 269.29H345.716V273H343.322V263.172H347.34C348.114 263.172 348.772 263.307 349.314 263.578C349.864 263.849 350.275 264.222 350.546 264.698C350.816 265.165 350.952 265.687 350.952 266.266C350.952 266.919 350.765 267.503 350.392 268.016C350.028 268.529 349.486 268.893 348.768 269.108L351.036 273H348.334ZM345.716 267.596H347.2C347.638 267.596 347.965 267.489 348.18 267.274C348.404 267.059 348.516 266.756 348.516 266.364C348.516 265.991 348.404 265.697 348.18 265.482C347.965 265.267 347.638 265.16 347.2 265.16H345.716V267.596ZM357.252 273.098C356.328 273.098 355.479 272.883 354.704 272.454C353.939 272.025 353.328 271.427 352.87 270.662C352.422 269.887 352.198 269.019 352.198 268.058C352.198 267.097 352.422 266.233 352.87 265.468C353.328 264.703 353.939 264.105 354.704 263.676C355.479 263.247 356.328 263.032 357.252 263.032C358.176 263.032 359.021 263.247 359.786 263.676C360.561 264.105 361.168 264.703 361.606 265.468C362.054 266.233 362.278 267.097 362.278 268.058C362.278 269.019 362.054 269.887 361.606 270.662C361.158 271.427 360.552 272.025 359.786 272.454C359.021 272.883 358.176 273.098 357.252 273.098ZM357.252 270.914C358.036 270.914 358.662 270.653 359.128 270.13C359.604 269.607 359.842 268.917 359.842 268.058C359.842 267.19 359.604 266.499 359.128 265.986C358.662 265.463 358.036 265.202 357.252 265.202C356.459 265.202 355.824 265.459 355.348 265.972C354.882 266.485 354.648 267.181 354.648 268.058C354.648 268.926 354.882 269.621 355.348 270.144C355.824 270.657 356.459 270.914 357.252 270.914ZM367.442 263.172C368.478 263.172 369.384 263.377 370.158 263.788C370.933 264.199 371.53 264.777 371.95 265.524C372.38 266.261 372.594 267.115 372.594 268.086C372.594 269.047 372.38 269.901 371.95 270.648C371.53 271.395 370.928 271.973 370.144 272.384C369.37 272.795 368.469 273 367.442 273H363.76V263.172H367.442ZM367.288 270.928C368.194 270.928 368.898 270.681 369.402 270.186C369.906 269.691 370.158 268.991 370.158 268.086C370.158 267.181 369.906 266.476 369.402 265.972C368.898 265.468 368.194 265.216 367.288 265.216H366.154V270.928H367.288ZM376.434 263.172V269.052C376.434 269.64 376.579 270.093 376.868 270.41C377.157 270.727 377.582 270.886 378.142 270.886C378.702 270.886 379.131 270.727 379.43 270.41C379.729 270.093 379.878 269.64 379.878 269.052V263.172H382.272V269.038C382.272 269.915 382.085 270.657 381.712 271.264C381.339 271.871 380.835 272.328 380.2 272.636C379.575 272.944 378.875 273.098 378.1 273.098C377.325 273.098 376.63 272.949 376.014 272.65C375.407 272.342 374.927 271.885 374.572 271.278C374.217 270.662 374.04 269.915 374.04 269.038V263.172H376.434ZM383.697 268.072C383.697 267.101 383.907 266.238 384.327 265.482C384.747 264.717 385.33 264.124 386.077 263.704C386.833 263.275 387.687 263.06 388.639 263.06C389.806 263.06 390.804 263.368 391.635 263.984C392.466 264.6 393.021 265.44 393.301 266.504H390.669C390.473 266.093 390.193 265.781 389.829 265.566C389.474 265.351 389.068 265.244 388.611 265.244C387.874 265.244 387.276 265.501 386.819 266.014C386.362 266.527 386.133 267.213 386.133 268.072C386.133 268.931 386.362 269.617 386.819 270.13C387.276 270.643 387.874 270.9 388.611 270.9C389.068 270.9 389.474 270.793 389.829 270.578C390.193 270.363 390.473 270.051 390.669 269.64H393.301C393.021 270.704 392.466 271.544 391.635 272.16C390.804 272.767 389.806 273.07 388.639 273.07C387.687 273.07 386.833 272.86 386.077 272.44C385.33 272.011 384.747 271.418 384.327 270.662C383.907 269.906 383.697 269.043 383.697 268.072ZM401.987 263.172V265.09H399.383V273H396.989V265.09H394.385V263.172H401.987ZM405.733 263.172V273H403.339V263.172H405.733ZM412.266 273.098C411.342 273.098 410.492 272.883 409.718 272.454C408.952 272.025 408.341 271.427 407.884 270.662C407.436 269.887 407.212 269.019 407.212 268.058C407.212 267.097 407.436 266.233 407.884 265.468C408.341 264.703 408.952 264.105 409.718 263.676C410.492 263.247 411.342 263.032 412.266 263.032C413.19 263.032 414.034 263.247 414.8 263.676C415.574 264.105 416.181 264.703 416.62 265.468C417.068 266.233 417.292 267.097 417.292 268.058C417.292 269.019 417.068 269.887 416.62 270.662C416.172 271.427 415.565 272.025 414.8 272.454C414.034 272.883 413.19 273.098 412.266 273.098ZM412.266 270.914C413.05 270.914 413.675 270.653 414.142 270.13C414.618 269.607 414.856 268.917 414.856 268.058C414.856 267.19 414.618 266.499 414.142 265.986C413.675 265.463 413.05 265.202 412.266 265.202C411.472 265.202 410.838 265.459 410.362 265.972C409.895 266.485 409.662 267.181 409.662 268.058C409.662 268.926 409.895 269.621 410.362 270.144C410.838 270.657 411.472 270.914 412.266 270.914ZM427.565 273H425.171L421.167 266.938V273H418.773V263.172H421.167L425.171 269.262V263.172H427.565V273Z" fill="#000E41"/>
<path d="M1412.86 265.172V275H1410.46V269.106L1408.27 275H1406.33L1404.12 269.092V275H1401.73V265.172H1404.56L1407.31 271.976L1410.04 265.172H1412.86ZM1420.85 273.264H1417.18L1416.59 275H1414.09L1417.64 265.172H1420.41L1423.97 275H1421.44L1420.85 273.264ZM1420.23 271.416L1419.01 267.818L1417.81 271.416H1420.23ZM1427.6 265.172V275H1425.2V265.172H1427.6ZM1438.27 275H1435.88L1431.87 268.938V275H1429.48V265.172H1431.87L1435.88 271.262V265.172H1438.27V275Z" fill="#000E41"/>
<line x1="442.657" y1="98.3431" x2="551.657" y2="207.343" stroke="#ED475C" stroke-width="16"/>
<line x1="439.343" y1="207.343" x2="548.343" y2="98.3431" stroke="#ED475C" stroke-width="16"/>
</svg>
