<?xml version="1.0" encoding="utf-8"?>
<!-- Generator: Adobe Illustrator 26.0.3, SVG Export Plug-In . SVG Version: 6.00 Build 0)  -->
<svg version="1.1" id="Layer_1" xmlns="http://www.w3.org/2000/svg" xmlns:xlink="http://www.w3.org/1999/xlink" x="0px" y="0px"
	 viewBox="0 0 1455.7 1920" style="enable-background:new 0 0 1455.7 1920;" xml:space="preserve">
<style type="text/css">
	.st0{clip-path:url(#SVGID_00000071519878047248114630000009067374158780901281_);}
	.st1{clip-path:url(#SVGID_00000020399926002615465970000008117811207836095360_);fill:#CCCFE4;}
	.st2{opacity:0.16;clip-path:url(#SVGID_00000012449596066131453520000005663357143469861295_);}
	.st3{filter:url(#Adobe_OpacityMaskFilter);}
	.st4{clip-path:url(#SVGID_00000113317684290261556730000017886702704411692956_);}
	
		.st5{clip-path:url(#SVGID_00000181797330541708417270000003384768294988731020_);fill:url(#SVGID_00000047762422823504223730000014634675008062892214_);}
	
		.st6{clip-path:url(#SVGID_00000113317684290261556730000017886702704411692956_);mask:url(#SVGID_00000091009913889679217760000018118483922322537919_);}
	.st7{clip-path:url(#SVGID_00000153705898650701713330000017236479927336733621_);fill:#000D59;}
	.st8{clip-path:url(#SVGID_00000140707925542603824730000016515968305124516286_);fill:#00F4B8;}
	.st9{clip-path:url(#SVGID_00000183240394584089613570000004201576959118562437_);fill:#01ABE9;}
	.st10{clip-path:url(#SVGID_00000067922581370457904350000012523312688874687902_);fill:#0139D2;}
	.st11{clip-path:url(#SVGID_00000105416043281751794260000010719046312474615213_);fill:#000D59;}
	.st12{clip-path:url(#SVGID_00000032628558530147927370000007111238420195870113_);}
	.st13{clip-path:url(#SVGID_00000025401571802817144920000008917053329752963211_);fill:#00F4B9;}
	.st14{clip-path:url(#SVGID_00000092423237289398568910000015720406980541933996_);fill:#00F4B9;}
	.st15{clip-path:url(#SVGID_00000110466571488031630670000015926533906434059673_);}
	.st16{clip-path:url(#SVGID_00000096756317760611859180000010979037500300854942_);fill:#00F4B9;}
	.st17{clip-path:url(#SVGID_00000145744605896174959340000012795386552941159567_);fill:#00F4B9;}
	.st18{clip-path:url(#SVGID_00000085961895039799758440000007316822439677893817_);}
	.st19{clip-path:url(#SVGID_00000003788721337099117670000016173624471185859458_);fill:#000D59;}
	.st20{clip-path:url(#SVGID_00000061438115803400705530000012563568540305691046_);fill:#000D59;}
	.st21{clip-path:url(#SVGID_00000008112246664636981950000015301243902438004114_);}
	.st22{clip-path:url(#SVGID_00000037658909163868371430000009413380716106569389_);fill:#0139D2;}
	.st23{clip-path:url(#SVGID_00000051375072209696423820000001654527227797227399_);fill:#0139D2;}
	.st24{clip-path:url(#SVGID_00000062174644804395871810000001054117508686522535_);}
	.st25{clip-path:url(#SVGID_00000157266425901884108370000011337480978532996002_);fill:#00F4B9;}
	.st26{clip-path:url(#SVGID_00000041987325118891371830000016486936283153423772_);fill:#00F4B9;}
	.st27{fill:#F7F9FC;}
	.st28{fill:#000D59;}
</style>
<g>
	<g>
		<defs>
			<rect id="SVGID_1_" y="4.2" width="1455.7" height="1912.7"/>
		</defs>
		<clipPath id="SVGID_00000127740242073820238160000018033970635605807511_">
			<use xlink:href="#SVGID_1_"  style="overflow:visible;"/>
		</clipPath>
		<g style="clip-path:url(#SVGID_00000127740242073820238160000018033970635605807511_);">
			<g>
				<defs>
					<rect id="SVGID_00000113317413564625907450000017279413237669158060_" y="4.2" width="1455.7" height="1912.7"/>
				</defs>
				<clipPath id="SVGID_00000018220806046233575940000001068029175789727912_">
					<use xlink:href="#SVGID_00000113317413564625907450000017279413237669158060_"  style="overflow:visible;"/>
				</clipPath>
				<path style="clip-path:url(#SVGID_00000018220806046233575940000001068029175789727912_);fill:#CCCFE4;" d="M1186.6,1052.3V463
					c0-253.4-205.4-458.8-458.8-458.8C474.5,4.2,269.1,209.6,269.1,463v589.3h180V471.6c0-153.9,124.8-278.7,278.7-278.7
					s278.7,124.8,278.7,278.7v580.7H1186.6z"/>
			</g>
			<g>
				<defs>
					<rect id="SVGID_00000169554808299798589680000011255682962169630379_" y="4.2" width="1455.7" height="1912.7"/>
				</defs>
				<clipPath id="SVGID_00000033358753371757461150000004118747739476709277_">
					<use xlink:href="#SVGID_00000169554808299798589680000011255682962169630379_"  style="overflow:visible;"/>
				</clipPath>
				<g style="opacity:0.16;clip-path:url(#SVGID_00000033358753371757461150000004118747739476709277_);">
					<g>
						<g>
							<defs>
								<rect id="SVGID_00000174577120793670290530000002770498695525787832_" x="246.7" y="-13.2" width="962.3" height="1068"/>
							</defs>
							<clipPath id="SVGID_00000113344507015330418460000012902393272867755958_">
								<use xlink:href="#SVGID_00000174577120793670290530000002770498695525787832_"  style="overflow:visible;"/>
							</clipPath>
							<defs>
								<filter id="Adobe_OpacityMaskFilter" filterUnits="userSpaceOnUse" x="246.7" y="-13.2" width="962.3" height="1068">
									<feColorMatrix  type="matrix" values="1 0 0 0 0  0 1 0 0 0  0 0 1 0 0  0 0 0 1 0"/>
								</filter>
							</defs>
							
								<mask maskUnits="userSpaceOnUse" x="246.7" y="-13.2" width="962.3" height="1068" id="SVGID_00000091009913889679217760000018118483922322537919_">
								<g class="st3">
									<g>
										<defs>
											
												<rect id="SVGID_00000003807146109162249210000009118997667646565293_" x="246.7" y="-13.2" width="962.3" height="1068"/>
										</defs>
										
											<clipPath id="SVGID_00000021805259666221240200000006831462918758602400_" style="clip-path:url(#SVGID_00000113344507015330418460000012902393272867755958_);">
											<use xlink:href="#SVGID_00000003807146109162249210000009118997667646565293_"  style="overflow:visible;"/>
										</clipPath>
										
											<linearGradient id="SVGID_00000088116830170673731740000005511440488559279795_" gradientUnits="userSpaceOnUse" x1="-232.6331" y1="-0.5026" x2="-230.1433" y2="-0.5026" gradientTransform="matrix(-437.3583 329.5732 -329.5732 -437.3583 -100640.8906 76562.9844)">
											<stop  offset="0" style="stop-color:#FFFFFF"/>
											<stop  offset="1" style="stop-color:#000000"/>
										</linearGradient>
										
											<polygon style="clip-path:url(#SVGID_00000021805259666221240200000006831462918758602400_);fill:url(#SVGID_00000088116830170673731740000005511440488559279795_);" points="
											1722.3,668 595.2,1517.3 -266.6,373.6 860.5,-475.7 										"/>
									</g>
								</g>
							</mask>
							
								<g style="clip-path:url(#SVGID_00000113344507015330418460000012902393272867755958_);mask:url(#SVGID_00000091009913889679217760000018118483922322537919_);">
								<g>
									<g>
										<defs>
											
												<rect id="SVGID_00000014594744312885160610000005218226691705745290_" x="246.7" y="-13.2" width="962.3" height="1068"/>
										</defs>
										<clipPath id="SVGID_00000166673530710762103250000008348493504293423497_">
											<use xlink:href="#SVGID_00000014594744312885160610000005218226691705745290_"  style="overflow:visible;"/>
										</clipPath>
										<path style="clip-path:url(#SVGID_00000166673530710762103250000008348493504293423497_);fill:#000D59;" d="
											M1186.6,1052.3V463c0-253.4-205.4-458.8-458.8-458.8C474.5,4.2,269.1,209.6,269.1,463v589.3h180V471.6
											c0-153.9,124.8-278.7,278.7-278.7s278.7,124.8,278.7,278.7v580.7H1186.6z"/>
									</g>
								</g>
							</g>
						</g>
					</g>
				</g>
			</g>
		</g>
	</g>
	<g>
		<defs>
			<rect id="SVGID_00000043443194310350970360000015966302104134863753_" y="4.2" width="1455.7" height="1912.7"/>
		</defs>
		<clipPath id="SVGID_00000128460917426560996630000016270889203265253304_">
			<use xlink:href="#SVGID_00000043443194310350970360000015966302104134863753_"  style="overflow:visible;"/>
		</clipPath>
		
			<rect x="970.4" y="820.7" style="clip-path:url(#SVGID_00000128460917426560996630000016270889203265253304_);fill:#00F4B8;" width="485.2" height="1096.2"/>
	</g>
	<g>
		<defs>
			<rect id="SVGID_00000006700532008300660720000015338111364909278337_" y="4.2" width="1455.7" height="1912.7"/>
		</defs>
		<clipPath id="SVGID_00000132790377541477118760000009120809958814566070_">
			<use xlink:href="#SVGID_00000006700532008300660720000015338111364909278337_"  style="overflow:visible;"/>
		</clipPath>
	</g>
	<g>
		<defs>
			<rect id="SVGID_00000008837464047644517470000013269186113347864760_" y="4.2" width="1455.7" height="1912.7"/>
		</defs>
		<clipPath id="SVGID_00000061439827874112680250000001762644540423703230_">
			<use xlink:href="#SVGID_00000008837464047644517470000013269186113347864760_"  style="overflow:visible;"/>
		</clipPath>
	</g>
	<g>
		<defs>
			<rect id="SVGID_00000086666643564865951380000009968505556651918486_" y="4.2" width="1455.7" height="1912.7"/>
		</defs>
		<clipPath id="SVGID_00000150787603319368128580000004233643414956965037_">
			<use xlink:href="#SVGID_00000086666643564865951380000009968505556651918486_"  style="overflow:visible;"/>
		</clipPath>
		
			<rect y="820.7" style="clip-path:url(#SVGID_00000150787603319368128580000004233643414956965037_);fill:#01ABE9;" width="970.4" height="365.4"/>
	</g>
	<g>
		<defs>
			<rect id="SVGID_00000035494163399763640930000002523685038999242635_" y="4.2" width="1455.7" height="1912.7"/>
		</defs>
		<clipPath id="SVGID_00000034053892432084731990000007268394645044981430_">
			<use xlink:href="#SVGID_00000035494163399763640930000002523685038999242635_"  style="overflow:visible;"/>
		</clipPath>
		
			<rect y="1186.1" style="clip-path:url(#SVGID_00000034053892432084731990000007268394645044981430_);fill:#0139D2;" width="970.4" height="365.4"/>
	</g>
	<g>
		<defs>
			<rect id="SVGID_00000084517859519922678080000008074330615032459167_" y="4.2" width="1455.7" height="1912.7"/>
		</defs>
		<clipPath id="SVGID_00000011721924916035615960000001445979853510727613_">
			<use xlink:href="#SVGID_00000084517859519922678080000008074330615032459167_"  style="overflow:visible;"/>
		</clipPath>
		
			<rect y="1551.5" style="clip-path:url(#SVGID_00000011721924916035615960000001445979853510727613_);fill:#000D59;" width="970.4" height="365.4"/>
	</g>
	<g>
		<defs>
			<rect id="SVGID_00000178199147529102302950000000214436875523825083_" y="4.2" width="1455.7" height="1912.7"/>
		</defs>
		<clipPath id="SVGID_00000078035641180152681220000018006407232240784783_">
			<use xlink:href="#SVGID_00000178199147529102302950000000214436875523825083_"  style="overflow:visible;"/>
		</clipPath>
	</g>
	<g>
		<defs>
			<rect id="SVGID_00000138556126078136239970000015272553199001089945_" y="4.2" width="1455.7" height="1912.7"/>
		</defs>
		<clipPath id="SVGID_00000183240820986992550550000000259300909608732587_">
			<use xlink:href="#SVGID_00000138556126078136239970000015272553199001089945_"  style="overflow:visible;"/>
		</clipPath>
	</g>
	<g>
		<defs>
			<rect id="SVGID_00000041294542198515521480000015021755338773203894_" y="4.2" width="1455.7" height="1912.7"/>
		</defs>
		<clipPath id="SVGID_00000163048284312174560870000015137835672547176858_">
			<use xlink:href="#SVGID_00000041294542198515521480000015021755338773203894_"  style="overflow:visible;"/>
		</clipPath>
	</g>
	<g>
		<defs>
			<rect id="SVGID_00000169556583302908951690000002956124872136499331_" y="4.2" width="1455.7" height="1912.7"/>
		</defs>
		<clipPath id="SVGID_00000083785920357532303480000018173762046126639016_">
			<use xlink:href="#SVGID_00000169556583302908951690000002956124872136499331_"  style="overflow:visible;"/>
		</clipPath>
		<g style="clip-path:url(#SVGID_00000083785920357532303480000018173762046126639016_);">
			<g>
				<defs>
					<rect id="SVGID_00000132045654722928363730000004600637473305281435_" y="4.2" width="1455.7" height="1912.7"/>
				</defs>
				<clipPath id="SVGID_00000130643435767629220340000009147269811063532988_">
					<use xlink:href="#SVGID_00000132045654722928363730000004600637473305281435_"  style="overflow:visible;"/>
				</clipPath>
				<path style="clip-path:url(#SVGID_00000130643435767629220340000009147269811063532988_);fill:#00F4B9;" d="M925,1046.6
					c25.1,0,45.4-20,45.4-44.7s-20.3-44.7-45.4-44.7c-25.1,0-45.4,20-45.4,44.7S899.9,1046.6,925,1046.6"/>
			</g>
		</g>
	</g>
	<g>
		<defs>
			<rect id="SVGID_00000084488435508176665500000013837032546398948529_" y="4.2" width="1455.7" height="1912.7"/>
		</defs>
		<clipPath id="SVGID_00000152948012808808543990000017042132485073370767_">
			<use xlink:href="#SVGID_00000084488435508176665500000013837032546398948529_"  style="overflow:visible;"/>
		</clipPath>
		
			<rect x="915.1" y="977.8" style="clip-path:url(#SVGID_00000152948012808808543990000017042132485073370767_);fill:#00F4B9;" width="78.9" height="48.2"/>
	</g>
	<g>
		<defs>
			<rect id="SVGID_00000158743996725802426760000018344092602027740093_" y="4.2" width="1455.7" height="1912.7"/>
		</defs>
		<clipPath id="SVGID_00000057123607510714320430000001834087316671574167_">
			<use xlink:href="#SVGID_00000158743996725802426760000018344092602027740093_"  style="overflow:visible;"/>
		</clipPath>
		<g style="clip-path:url(#SVGID_00000057123607510714320430000001834087316671574167_);">
			<g>
				<defs>
					<rect id="SVGID_00000147924475611642511810000012758977511348219569_" y="4.2" width="1455.7" height="1912.7"/>
				</defs>
				<clipPath id="SVGID_00000032643134607964878650000010422444002840460940_">
					<use xlink:href="#SVGID_00000147924475611642511810000012758977511348219569_"  style="overflow:visible;"/>
				</clipPath>
				<path style="clip-path:url(#SVGID_00000032643134607964878650000010422444002840460940_);fill:#00F4B9;" d="M925,1413.5
					c25.1,0,45.4-20,45.4-44.7s-20.3-44.7-45.4-44.7c-25.1,0-45.4,20-45.4,44.7S899.9,1413.5,925,1413.5"/>
			</g>
		</g>
	</g>
	<g>
		<defs>
			<rect id="SVGID_00000032606757383205306270000010203628635546294412_" y="4.2" width="1455.7" height="1912.7"/>
		</defs>
		<clipPath id="SVGID_00000048468229302464065780000010779900038044305587_">
			<use xlink:href="#SVGID_00000032606757383205306270000010203628635546294412_"  style="overflow:visible;"/>
		</clipPath>
		
			<rect x="915.1" y="1344.7" style="clip-path:url(#SVGID_00000048468229302464065780000010779900038044305587_);fill:#00F4B9;" width="78.9" height="48.2"/>
	</g>
	<g>
		<defs>
			<rect id="SVGID_00000163056150292789623780000007770013069664049338_" y="4.2" width="1455.7" height="1912.7"/>
		</defs>
		<clipPath id="SVGID_00000135664027700029888850000014021974602880302519_">
			<use xlink:href="#SVGID_00000163056150292789623780000007770013069664049338_"  style="overflow:visible;"/>
		</clipPath>
		<g style="clip-path:url(#SVGID_00000135664027700029888850000014021974602880302519_);">
			<g>
				<defs>
					<rect id="SVGID_00000033363269388667429450000011598661472997689022_" y="4.2" width="1455.7" height="1912.7"/>
				</defs>
				<clipPath id="SVGID_00000064347815478026095460000016154090617899091872_">
					<use xlink:href="#SVGID_00000033363269388667429450000011598661472997689022_"  style="overflow:visible;"/>
				</clipPath>
				<path style="clip-path:url(#SVGID_00000064347815478026095460000016154090617899091872_);fill:#000D59;" d="M440.5,1506.6
					c0,25.1,20,45.4,44.7,45.4s44.7-20.3,44.7-45.4s-20-45.4-44.7-45.4S440.5,1481.6,440.5,1506.6"/>
			</g>
		</g>
	</g>
	<g>
		<defs>
			<rect id="SVGID_00000055680625806977841440000003875684599310520254_" y="4.2" width="1455.7" height="1912.7"/>
		</defs>
		<clipPath id="SVGID_00000163067578174672315110000012142157984848621477_">
			<use xlink:href="#SVGID_00000055680625806977841440000003875684599310520254_"  style="overflow:visible;"/>
		</clipPath>
		
			<rect x="461.1" y="1496.8" style="clip-path:url(#SVGID_00000163067578174672315110000012142157984848621477_);fill:#000D59;" width="48.2" height="78.9"/>
	</g>
	<g>
		<defs>
			<rect id="SVGID_00000110452004344214969210000005551495625676850850_" y="4.2" width="1455.7" height="1912.7"/>
		</defs>
		<clipPath id="SVGID_00000012465292710267374110000018209161940139437466_">
			<use xlink:href="#SVGID_00000110452004344214969210000005551495625676850850_"  style="overflow:visible;"/>
		</clipPath>
		<g style="clip-path:url(#SVGID_00000012465292710267374110000018209161940139437466_);">
			<g>
				<defs>
					<rect id="SVGID_00000000204268823493530990000011340748440217967535_" y="4.2" width="1455.7" height="1912.7"/>
				</defs>
				<clipPath id="SVGID_00000129170132494542630440000012466386916370919051_">
					<use xlink:href="#SVGID_00000000204268823493530990000011340748440217967535_"  style="overflow:visible;"/>
				</clipPath>
				<path style="clip-path:url(#SVGID_00000129170132494542630440000012466386916370919051_);fill:#0139D2;" d="M440.5,1141.3
					c0,25.1,20,45.4,44.7,45.4s44.7-20.3,44.7-45.4s-20-45.4-44.7-45.4S440.5,1116.2,440.5,1141.3"/>
			</g>
		</g>
	</g>
	<g>
		<defs>
			<rect id="SVGID_00000003099740477370751590000009381113885458631593_" y="4.2" width="1455.7" height="1912.7"/>
		</defs>
		<clipPath id="SVGID_00000007394002643611206840000016043486982105412491_">
			<use xlink:href="#SVGID_00000003099740477370751590000009381113885458631593_"  style="overflow:visible;"/>
		</clipPath>
		
			<rect x="461.1" y="1131.4" style="clip-path:url(#SVGID_00000007394002643611206840000016043486982105412491_);fill:#0139D2;" width="48.2" height="78.9"/>
	</g>
	<g>
		<defs>
			<rect id="SVGID_00000119839553404095793790000014269668553162066588_" y="4.2" width="1455.7" height="1912.7"/>
		</defs>
		<clipPath id="SVGID_00000025425315049193792540000002071732101309437877_">
			<use xlink:href="#SVGID_00000119839553404095793790000014269668553162066588_"  style="overflow:visible;"/>
		</clipPath>
		<g style="clip-path:url(#SVGID_00000025425315049193792540000002071732101309437877_);">
			<g>
				<defs>
					<rect id="SVGID_00000098202855892602155380000010769203082785931965_" y="4.2" width="1455.7" height="1912.7"/>
				</defs>
				<clipPath id="SVGID_00000018223163388536826960000000642775573778741128_">
					<use xlink:href="#SVGID_00000098202855892602155380000010769203082785931965_"  style="overflow:visible;"/>
				</clipPath>
				<path style="clip-path:url(#SVGID_00000018223163388536826960000000642775573778741128_);fill:#00F4B9;" d="M925,1778.9
					c25.1,0,45.4-20,45.4-44.7s-20.3-44.7-45.4-44.7c-25.1,0-45.4,20-45.4,44.7S899.9,1778.9,925,1778.9"/>
			</g>
		</g>
	</g>
	<g>
		<defs>
			<rect id="SVGID_00000051344850106664656450000007911082340377144456_" y="4.2" width="1455.7" height="1912.7"/>
		</defs>
		<clipPath id="SVGID_00000089562567307939863730000000902891554779021216_">
			<use xlink:href="#SVGID_00000051344850106664656450000007911082340377144456_"  style="overflow:visible;"/>
		</clipPath>
		
			<rect x="915.1" y="1710.1" style="clip-path:url(#SVGID_00000089562567307939863730000000902891554779021216_);fill:#00F4B9;" width="78.9" height="48.2"/>
	</g>
</g>
<g>
	<path class="st27" d="M134.8,1025c-3.7-1.5-6.6-3.7-8.8-6.7c-2.2-2.9-3.3-6.5-3.5-10.6H139c0.2,2.3,1,4.1,2.4,5.4
		c1.4,1.2,3.2,1.8,5.4,1.8c2.3,0,4.1-0.5,5.4-1.6c1.3-1,2-2.5,2-4.4c0-1.6-0.5-2.8-1.6-3.9c-1.1-1-2.3-1.9-3.9-2.5
		c-1.5-0.7-3.7-1.4-6.5-2.2c-4.1-1.3-7.4-2.5-10-3.8c-2.6-1.3-4.8-3.1-6.7-5.6c-1.9-2.5-2.8-5.7-2.8-9.6c0-5.9,2.1-10.5,6.4-13.8
		c4.3-3.3,9.8-5,16.6-5c7,0,12.6,1.7,16.8,5c4.3,3.3,6.5,8,6.8,13.9h-16.6c-0.1-2-0.9-3.6-2.2-4.8c-1.4-1.2-3.1-1.8-5.3-1.8
		c-1.9,0-3.4,0.5-4.5,1.5c-1.1,1-1.7,2.4-1.7,4.3c0,2,1,3.6,2.9,4.8c1.9,1.1,4.9,2.4,9,3.7c4.1,1.4,7.4,2.7,9.9,4
		c2.5,1.3,4.8,3.1,6.6,5.5c1.9,2.4,2.8,5.5,2.8,9.3c0,3.6-0.9,6.9-2.7,9.8c-1.8,2.9-4.5,5.3-8,7c-3.5,1.7-7.6,2.6-12.3,2.6
		C142.6,1027.2,138.5,1026.5,134.8,1025z"/>
	<path class="st27" d="M226.8,1005.2H192c0.2,3.1,1.2,5.5,3,7.2c1.8,1.7,3.9,2.5,6.5,2.5c3.8,0,6.5-1.6,8-4.9h16.4
		c-0.8,3.3-2.4,6.3-4.5,8.9c-2.2,2.6-4.9,4.7-8.2,6.2c-3.3,1.5-7,2.2-11.1,2.2c-4.9,0-9.3-1-13.1-3.2c-3.8-2.1-6.8-5.1-9-9
		c-2.2-3.9-3.2-8.5-3.2-13.7s1.1-9.8,3.2-13.7c2.1-3.9,5.1-6.9,9-9c3.8-2.1,8.2-3.2,13.2-3.2c4.9,0,9.2,1,13,3.1
		c3.8,2,6.7,4.9,8.9,8.7c2.1,3.8,3.2,8.2,3.2,13.2C227.1,1002.1,227,1003.6,226.8,1005.2z M211.3,996.6c0-2.6-0.9-4.7-2.7-6.3
		c-1.8-1.6-4.1-2.3-6.8-2.3c-2.6,0-4.8,0.8-6.5,2.2c-1.8,1.5-2.9,3.6-3.3,6.4H211.3z"/>
	<path class="st27" d="M235.3,987.8c2.1-3.9,5.1-6.9,8.9-9c3.8-2.1,8.2-3.2,13.1-3.2c6.3,0,11.6,1.7,15.8,5c4.2,3.3,7,8,8.3,14
		h-16.4c-1.4-3.8-4-5.8-8-5.8c-2.8,0-5.1,1.1-6.8,3.3c-1.7,2.2-2.5,5.3-2.5,9.4c0,4.1,0.8,7.2,2.5,9.4c1.7,2.2,3.9,3.3,6.8,3.3
		c4,0,6.6-1.9,8-5.8h16.4c-1.3,5.9-4.1,10.5-8.4,13.9c-4.3,3.4-9.5,5-15.8,5c-4.9,0-9.3-1-13.1-3.2c-3.8-2.1-6.8-5.1-8.9-9
		c-2.1-3.9-3.2-8.5-3.2-13.7S233.2,991.7,235.3,987.8z"/>
	<path class="st27" d="M339.2,976.4v50.2h-15.4v-6.8c-1.6,2.2-3.7,4-6.3,5.4c-2.7,1.4-5.6,2-8.9,2c-3.8,0-7.2-0.9-10.2-2.6
		c-2.9-1.7-5.2-4.2-6.8-7.4s-2.4-7-2.4-11.4v-29.3h15.3v27.3c0,3.4,0.9,6,2.6,7.8c1.7,1.9,4.1,2.8,7,2.8c3,0,5.4-0.9,7.1-2.8
		c1.7-1.9,2.6-4.5,2.6-7.8v-27.3H339.2z"/>
	<path class="st27" d="M372.4,978.2c2.7-1.6,5.7-2.4,9-2.4v16.3h-4.2c-3.8,0-6.7,0.8-8.6,2.5c-1.9,1.7-2.9,4.5-2.9,8.7v23.3h-15.4
		v-50.2h15.4v8.4C367.5,982,369.7,979.8,372.4,978.2z"/>
	<path class="st27" d="M435.9,1005.2h-34.8c0.2,3.1,1.2,5.5,3,7.2c1.8,1.7,3.9,2.5,6.5,2.5c3.8,0,6.5-1.6,8-4.9H435
		c-0.8,3.3-2.4,6.3-4.5,8.9c-2.2,2.6-4.9,4.7-8.2,6.2c-3.3,1.5-7,2.2-11.1,2.2c-4.9,0-9.3-1-13.1-3.2c-3.8-2.1-6.8-5.1-9-9
		c-2.2-3.9-3.2-8.5-3.2-13.7s1.1-9.8,3.2-13.7c2.1-3.9,5.1-6.9,9-9c3.8-2.1,8.2-3.2,13.2-3.2c4.9,0,9.2,1,13,3.1
		c3.8,2,6.7,4.9,8.9,8.7c2.1,3.8,3.2,8.2,3.2,13.2C436.2,1002.1,436.1,1003.6,435.9,1005.2z M420.4,996.6c0-2.6-0.9-4.7-2.7-6.3
		c-1.8-1.6-4.1-2.3-6.8-2.3c-2.6,0-4.8,0.8-6.5,2.2c-1.8,1.5-2.9,3.6-3.3,6.4H420.4z"/>
	<path class="st27" d="M495.6,1026.6l-13.1-23.9h-3.7v23.9h-15.4v-63.2h25.8c5,0,9.2,0.9,12.7,2.6c3.5,1.7,6.1,4.1,7.9,7.2
		c1.7,3,2.6,6.4,2.6,10.1c0,4.2-1.2,8-3.6,11.2c-2.4,3.3-5.9,5.6-10.5,7l14.6,25H495.6z M478.7,991.9h9.5c2.8,0,4.9-0.7,6.3-2.1
		c1.4-1.4,2.1-3.3,2.1-5.8c0-2.4-0.7-4.3-2.1-5.7c-1.4-1.4-3.5-2.1-6.3-2.1h-9.5V991.9z"/>
	<path class="st27" d="M571.6,976.4v50.2h-15.4v-6.8c-1.6,2.2-3.7,4-6.3,5.4c-2.7,1.4-5.6,2-8.9,2c-3.8,0-7.2-0.9-10.2-2.6
		c-2.9-1.7-5.2-4.2-6.8-7.4s-2.4-7-2.4-11.4v-29.3h15.3v27.3c0,3.4,0.9,6,2.6,7.8c1.7,1.9,4.1,2.8,7,2.8c3,0,5.4-0.9,7.1-2.8
		c1.7-1.9,2.6-4.5,2.6-7.8v-27.3H571.6z"/>
	<path class="st27" d="M627.4,981.6c3.5,3.8,5.3,9,5.3,15.7v29.3h-15.3v-27.3c0-3.4-0.9-6-2.6-7.8c-1.7-1.9-4.1-2.8-7-2.8
		c-2.9,0-5.3,0.9-7,2.8c-1.7,1.9-2.6,4.5-2.6,7.8v27.3h-15.4v-50.2h15.4v6.7c1.6-2.2,3.7-4,6.3-5.3c2.6-1.3,5.6-1.9,8.9-1.9
		C619.1,975.8,623.8,977.7,627.4,981.6z"/>
	<path class="st27" d="M671.3,1013.5v13h-7.8c-5.6,0-9.9-1.4-13.1-4.1c-3.1-2.7-4.7-7.2-4.7-13.4v-20h-6.1v-12.8h6.1v-12.2h15.4
		v12.2h10.1v12.8h-10.1v20.2c0,1.5,0.4,2.6,1.1,3.2c0.7,0.7,1.9,1,3.6,1H671.3z"/>
	<path class="st27" d="M681,968.8c-1.7-1.6-2.6-3.6-2.6-5.9c0-2.4,0.9-4.4,2.6-6c1.7-1.6,3.9-2.4,6.6-2.4c2.6,0,4.8,0.8,6.5,2.4
		c1.7,1.6,2.6,3.6,2.6,6c0,2.3-0.9,4.3-2.6,5.9c-1.7,1.6-3.9,2.4-6.5,2.4C684.9,971.2,682.7,970.4,681,968.8z M695.3,976.4v50.2
		h-15.4v-50.2H695.3z"/>
	<path class="st27" d="M785.4,981.5c3.7,3.8,5.5,9,5.5,15.8v29.3h-15.3v-27.3c0-3.2-0.9-5.7-2.6-7.5c-1.7-1.8-4.1-2.7-7.1-2.7
		c-3,0-5.4,0.9-7.1,2.7c-1.7,1.8-2.6,4.3-2.6,7.5v27.3h-15.3v-27.3c0-3.2-0.9-5.7-2.6-7.5c-1.7-1.8-4.1-2.7-7.1-2.7
		c-3,0-5.4,0.9-7.1,2.7c-1.7,1.8-2.6,4.3-2.6,7.5v27.3h-15.4v-50.2h15.4v6.3c1.6-2.1,3.6-3.8,6.1-5c2.5-1.2,5.4-1.8,8.5-1.8
		c3.8,0,7.2,0.8,10.1,2.4c3,1.6,5.3,3.9,7,6.9c1.7-2.8,4.1-5,7.1-6.8c3-1.7,6.3-2.6,9.8-2.6C776.7,975.8,781.7,977.7,785.4,981.5z"
		/>
	<path class="st27" d="M848.8,1005.2H814c0.2,3.1,1.2,5.5,3,7.2c1.8,1.7,3.9,2.5,6.5,2.5c3.8,0,6.5-1.6,8-4.9h16.4
		c-0.8,3.3-2.4,6.3-4.5,8.9c-2.2,2.6-4.9,4.7-8.2,6.2c-3.3,1.5-7,2.2-11.1,2.2c-4.9,0-9.3-1-13.1-3.2c-3.8-2.1-6.8-5.1-9-9
		c-2.2-3.9-3.2-8.5-3.2-13.7s1.1-9.8,3.2-13.7c2.1-3.9,5.1-6.9,9-9c3.8-2.1,8.2-3.2,13.2-3.2c4.9,0,9.2,1,13,3.1
		c3.8,2,6.7,4.9,8.9,8.7s3.2,8.2,3.2,13.2C849.1,1002.1,849,1003.6,848.8,1005.2z M833.3,996.6c0-2.6-0.9-4.7-2.7-6.3
		c-1.8-1.6-4-2.3-6.8-2.3c-2.6,0-4.8,0.8-6.5,2.2c-1.8,1.5-2.9,3.6-3.3,6.4H833.3z"/>
</g>
<g>
	<path class="st28" d="M1069.1,1282.6c-3.7-1.5-6.6-3.7-8.8-6.7c-2.2-2.9-3.3-6.5-3.5-10.6h16.4c0.2,2.3,1,4.1,2.4,5.4
		c1.4,1.2,3.2,1.8,5.4,1.8c2.3,0,4.1-0.5,5.4-1.6c1.3-1,2-2.5,2-4.4c0-1.6-0.5-2.8-1.6-3.9c-1-1-2.3-1.9-3.9-2.5
		c-1.5-0.7-3.7-1.4-6.5-2.2c-4.1-1.3-7.4-2.5-10-3.8c-2.6-1.3-4.8-3.1-6.7-5.6c-1.9-2.5-2.8-5.7-2.8-9.6c0-5.9,2.1-10.5,6.4-13.8
		c4.3-3.3,9.8-5,16.6-5c7,0,12.6,1.7,16.8,5c4.3,3.3,6.5,8,6.8,13.9h-16.6c-0.1-2-0.9-3.6-2.2-4.8c-1.4-1.2-3.2-1.8-5.3-1.8
		c-1.9,0-3.4,0.5-4.5,1.5c-1.1,1-1.7,2.4-1.7,4.3c0,2,1,3.6,2.9,4.8c1.9,1.1,4.9,2.4,9,3.7c4.1,1.4,7.4,2.7,9.9,4
		c2.5,1.3,4.8,3.1,6.6,5.5c1.9,2.4,2.8,5.5,2.8,9.3c0,3.6-0.9,6.9-2.7,9.8c-1.8,2.9-4.5,5.3-8,7c-3.5,1.7-7.6,2.6-12.3,2.6
		C1076.9,1284.9,1072.8,1284.1,1069.1,1282.6z"/>
	<path class="st28" d="M1161.1,1262.8h-34.8c0.2,3.1,1.2,5.5,3,7.2c1.8,1.7,3.9,2.5,6.5,2.5c3.8,0,6.5-1.6,8-4.9h16.4
		c-0.8,3.3-2.4,6.3-4.5,8.9c-2.2,2.6-4.9,4.7-8.2,6.2c-3.3,1.5-7,2.2-11.1,2.2c-4.9,0-9.3-1-13.1-3.2c-3.8-2.1-6.8-5.1-9-9
		c-2.2-3.9-3.2-8.5-3.2-13.7c0-5.2,1.1-9.8,3.2-13.7c2.1-3.9,5.1-6.9,9-9c3.8-2.1,8.2-3.1,13.2-3.1c4.9,0,9.2,1,13,3.1
		c3.8,2,6.7,5,8.9,8.7c2.1,3.8,3.2,8.2,3.2,13.2C1161.4,1259.8,1161.3,1261.3,1161.1,1262.8z M1145.6,1254.3c0-2.6-0.9-4.7-2.7-6.3
		c-1.8-1.6-4-2.3-6.8-2.3c-2.6,0-4.8,0.8-6.5,2.2c-1.8,1.5-2.9,3.6-3.3,6.4H1145.6z"/>
	<path class="st28" d="M1169.6,1245.4c2.1-3.9,5.1-6.9,8.9-9c3.8-2.1,8.2-3.1,13.1-3.1c6.3,0,11.6,1.7,15.8,4.9c4.2,3.3,7,8,8.3,14
		h-16.4c-1.4-3.8-4-5.8-8-5.8c-2.8,0-5.1,1.1-6.8,3.3c-1.7,2.2-2.5,5.3-2.5,9.4s0.8,7.2,2.5,9.4c1.7,2.2,3.9,3.3,6.8,3.3
		c4,0,6.6-1.9,8-5.8h16.4c-1.3,5.9-4.1,10.5-8.4,13.9c-4.3,3.4-9.5,5-15.8,5c-4.9,0-9.3-1-13.1-3.2c-3.8-2.1-6.8-5.1-8.9-9
		c-2.1-3.9-3.2-8.5-3.2-13.7C1166.4,1253.9,1167.5,1249.3,1169.6,1245.4z"/>
	<path class="st28" d="M1273.5,1234v50.2h-15.4v-6.8c-1.6,2.2-3.7,4-6.3,5.4c-2.7,1.3-5.6,2-8.9,2c-3.8,0-7.2-0.9-10.2-2.6
		c-2.9-1.7-5.2-4.2-6.8-7.4c-1.6-3.2-2.4-7-2.4-11.4V1234h15.3v27.3c0,3.4,0.9,6,2.6,7.8c1.7,1.9,4.1,2.8,7,2.8c3,0,5.4-0.9,7.1-2.8
		c1.7-1.9,2.6-4.5,2.6-7.8V1234H1273.5z"/>
	<path class="st28" d="M1306.7,1235.9c2.7-1.6,5.7-2.4,9-2.4v16.3h-4.2c-3.8,0-6.7,0.8-8.6,2.5c-1.9,1.7-2.9,4.5-2.9,8.7v23.3h-15.4
		V1234h15.4v8.4C1301.8,1239.6,1304,1237.4,1306.7,1235.9z"/>
	<path class="st28" d="M1370.2,1262.8h-34.8c0.2,3.1,1.2,5.5,3,7.2c1.8,1.7,3.9,2.5,6.5,2.5c3.8,0,6.5-1.6,8-4.9h16.4
		c-0.8,3.3-2.4,6.3-4.5,8.9c-2.2,2.6-4.9,4.7-8.2,6.2c-3.3,1.5-7,2.2-11.1,2.2c-4.9,0-9.3-1-13.1-3.2c-3.8-2.1-6.8-5.1-9-9
		c-2.2-3.9-3.2-8.5-3.2-13.7c0-5.2,1.1-9.8,3.2-13.7c2.1-3.9,5.1-6.9,9-9c3.8-2.1,8.2-3.1,13.2-3.1c4.9,0,9.2,1,13,3.1
		c3.8,2,6.7,5,8.9,8.7c2.1,3.8,3.2,8.2,3.2,13.2C1370.5,1259.8,1370.4,1261.3,1370.2,1262.8z M1354.7,1254.3c0-2.6-0.9-4.7-2.7-6.3
		c-1.8-1.6-4.1-2.3-6.8-2.3c-2.6,0-4.8,0.8-6.5,2.2c-1.8,1.5-2.9,3.6-3.3,6.4H1354.7z"/>
	<path class="st28" d="M1132.4,1367.1h-23.6l-3.8,11.2h-16.1l22.9-63.2h17.8l22.9,63.2h-16.3L1132.4,1367.1z M1128.4,1355.2
		l-7.8-23.1l-7.7,23.1H1128.4z"/>
	<path class="st28" d="M1209,1328v50.2h-15.4v-6.8c-1.6,2.2-3.7,4-6.3,5.4c-2.7,1.4-5.6,2-8.9,2c-3.8,0-7.2-0.9-10.2-2.6
		c-2.9-1.7-5.2-4.2-6.8-7.4s-2.4-7-2.4-11.4V1328h15.3v27.3c0,3.4,0.9,6,2.6,7.8c1.7,1.9,4.1,2.8,7,2.8c3,0,5.4-0.9,7.1-2.8
		c1.7-1.9,2.6-4.5,2.6-7.8V1328H1209z"/>
	<path class="st28" d="M1219.9,1339.4c1.9-3.9,4.6-6.9,8-9c3.4-2.1,7.1-3.1,11.2-3.1c3.3,0,6.3,0.7,9,2.1c2.7,1.4,4.9,3.2,6.4,5.6
		v-23.3h15.4v66.6h-15.4v-7.2c-1.4,2.4-3.5,4.3-6.2,5.8c-2.7,1.4-5.8,2.2-9.3,2.2c-4.1,0-7.9-1.1-11.2-3.2c-3.4-2.1-6-5.2-8-9.1
		c-2-3.9-2.9-8.5-2.9-13.6C1217,1347.9,1217.9,1343.3,1219.9,1339.4z M1251.4,1344c-2.1-2.2-4.7-3.3-7.8-3.3c-3.1,0-5.7,1.1-7.8,3.3
		c-2.1,2.2-3.2,5.2-3.2,9c0,3.8,1.1,6.9,3.2,9.1c2.1,2.2,4.7,3.4,7.8,3.4c3.1,0,5.7-1.1,7.8-3.3s3.2-5.2,3.2-9.1
		C1254.6,1349.3,1253.5,1346.3,1251.4,1344z"/>
	<path class="st28" d="M1282.3,1320.4c-1.7-1.6-2.6-3.6-2.6-5.9c0-2.4,0.9-4.4,2.6-6c1.7-1.6,3.9-2.4,6.6-2.4c2.6,0,4.8,0.8,6.5,2.4
		c1.7,1.6,2.6,3.6,2.6,6c0,2.3-0.9,4.3-2.6,5.9c-1.7,1.6-3.9,2.4-6.5,2.4C1286.2,1322.8,1284,1322,1282.3,1320.4z M1296.5,1328v50.2
		h-15.4V1328H1296.5z"/>
	<path class="st28" d="M1335.7,1365.2v13h-7.8c-5.6,0-9.9-1.4-13-4.1c-3.1-2.7-4.7-7.2-4.7-13.4v-20h-6.1V1328h6.1v-12.2h15.4v12.2
		h10.1v12.8h-10.1v20.2c0,1.5,0.4,2.6,1.1,3.2c0.7,0.7,1.9,1,3.6,1H1335.7z"/>
	<path class="st28" d="M1161.1,1409.1v12.3h-16.7v50.8H1129v-50.8h-16.7v-12.3H1161.1z"/>
	<path class="st28" d="M1191,1423.9c2.7-1.6,5.7-2.4,9-2.4v16.3h-4.2c-3.8,0-6.7,0.8-8.6,2.5c-1.9,1.7-2.9,4.5-2.9,8.7v23.3h-15.4
		V1422h15.4v8.4C1186.1,1427.6,1188.3,1425.4,1191,1423.9z"/>
	<path class="st28" d="M1207.2,1433.4c1.9-3.9,4.6-6.9,8-9c3.4-2.1,7.1-3.2,11.2-3.2c3.5,0,6.6,0.7,9.3,2.2c2.7,1.4,4.7,3.3,6.2,5.7
		v-7.1h15.4v50.2h-15.4v-7.1c-1.5,2.3-3.6,4.2-6.3,5.7c-2.7,1.4-5.8,2.2-9.3,2.2c-4.1,0-7.8-1.1-11.2-3.2c-3.4-2.1-6-5.2-8-9.1
		c-2-3.9-2.9-8.5-2.9-13.6C1204.3,1441.9,1205.3,1437.3,1207.2,1433.4z M1238.7,1438c-2.1-2.2-4.7-3.3-7.8-3.3
		c-3.1,0-5.7,1.1-7.8,3.3c-2.1,2.2-3.2,5.2-3.2,9c0,3.8,1.1,6.9,3.2,9.1c2.1,2.2,4.7,3.4,7.8,3.4c3.1,0,5.7-1.1,7.8-3.3
		c2.1-2.2,3.2-5.2,3.2-9.1C1241.9,1443.3,1240.9,1440.3,1238.7,1438z"/>
	<path class="st28" d="M1269.6,1414.4c-1.7-1.6-2.6-3.6-2.6-5.9c0-2.4,0.9-4.4,2.6-6c1.7-1.6,3.9-2.4,6.6-2.4c2.6,0,4.8,0.8,6.5,2.4
		c1.7,1.6,2.6,3.6,2.6,6c0,2.3-0.9,4.3-2.6,5.9c-1.7,1.6-3.9,2.4-6.5,2.4C1273.5,1416.8,1271.3,1416,1269.6,1414.4z M1283.9,1422
		v50.2h-15.4V1422H1283.9z"/>
	<path class="st28" d="M1310.4,1405.6v66.6H1295v-66.6H1310.4z"/>
</g>
<g>
	<path class="st27" d="M150.6,1396c-3.7-1.5-6.6-3.7-8.8-6.7c-2.2-2.9-3.3-6.5-3.5-10.6h16.4c0.2,2.3,1,4.1,2.4,5.4
		c1.4,1.2,3.2,1.8,5.4,1.8c2.3,0,4.1-0.5,5.4-1.6c1.3-1,2-2.5,2-4.4c0-1.6-0.5-2.8-1.6-3.9c-1.1-1-2.3-1.9-3.9-2.5
		c-1.5-0.7-3.7-1.4-6.5-2.2c-4.1-1.3-7.4-2.5-10-3.8c-2.6-1.3-4.8-3.1-6.7-5.6c-1.9-2.5-2.8-5.7-2.8-9.6c0-5.9,2.1-10.5,6.4-13.8
		c4.3-3.3,9.8-5,16.6-5c7,0,12.6,1.7,16.8,5c4.3,3.3,6.5,8,6.8,13.9h-16.6c-0.1-2-0.9-3.6-2.2-4.8c-1.4-1.2-3.1-1.8-5.3-1.8
		c-1.9,0-3.4,0.5-4.5,1.5c-1.1,1-1.7,2.4-1.7,4.3c0,2,1,3.6,2.9,4.8c1.9,1.1,4.9,2.4,9,3.7c4.1,1.4,7.4,2.7,9.9,4
		c2.5,1.3,4.8,3.1,6.6,5.5c1.9,2.4,2.8,5.5,2.8,9.3c0,3.6-0.9,6.9-2.7,9.8c-1.8,2.9-4.5,5.3-8,7c-3.5,1.7-7.6,2.6-12.3,2.6
		C158.4,1398.3,154.2,1397.5,150.6,1396z"/>
	<path class="st27" d="M242.6,1376.2h-34.8c0.2,3.1,1.2,5.5,3,7.2c1.8,1.7,3.9,2.5,6.5,2.5c3.8,0,6.5-1.6,8-4.9h16.4
		c-0.8,3.3-2.4,6.3-4.5,8.9c-2.2,2.6-4.9,4.7-8.2,6.2c-3.3,1.5-7,2.2-11.1,2.2c-4.9,0-9.3-1-13.1-3.2c-3.8-2.1-6.8-5.1-9-9
		c-2.2-3.9-3.2-8.5-3.2-13.7s1.1-9.8,3.2-13.7c2.1-3.9,5.1-6.9,9-9c3.8-2.1,8.2-3.2,13.2-3.2c4.9,0,9.2,1,13,3.1
		c3.8,2,6.7,4.9,8.9,8.7c2.1,3.8,3.2,8.2,3.2,13.2C242.8,1373.2,242.7,1374.7,242.6,1376.2z M227.1,1367.7c0-2.6-0.9-4.7-2.7-6.3
		c-1.8-1.6-4.1-2.3-6.8-2.3c-2.6,0-4.8,0.8-6.5,2.2c-1.8,1.5-2.9,3.6-3.3,6.4H227.1z"/>
	<path class="st27" d="M251.1,1358.9c2.1-3.9,5.1-6.9,8.9-9c3.8-2.1,8.2-3.2,13.1-3.2c6.3,0,11.6,1.7,15.8,5c4.2,3.3,7,8,8.3,14
		h-16.4c-1.4-3.8-4-5.8-8-5.8c-2.8,0-5.1,1.1-6.8,3.3c-1.7,2.2-2.5,5.3-2.5,9.4c0,4.1,0.8,7.2,2.5,9.4c1.7,2.2,3.9,3.3,6.8,3.3
		c4,0,6.6-1.9,8-5.8h16.4c-1.3,5.9-4.1,10.5-8.4,13.9c-4.3,3.4-9.5,5-15.8,5c-4.9,0-9.3-1-13.1-3.2c-3.8-2.1-6.8-5.1-8.9-9
		c-2.1-3.9-3.2-8.5-3.2-13.7S248.9,1362.8,251.1,1358.9z"/>
	<path class="st27" d="M355,1347.4v50.2h-15.4v-6.8c-1.6,2.2-3.7,4-6.3,5.4c-2.7,1.4-5.6,2-8.9,2c-3.8,0-7.2-0.9-10.2-2.6
		c-2.9-1.7-5.2-4.2-6.8-7.4s-2.4-7-2.4-11.4v-29.3h15.3v27.3c0,3.4,0.9,6,2.6,7.8c1.7,1.9,4.1,2.8,7,2.8c3,0,5.4-0.9,7.1-2.8
		c1.7-1.9,2.6-4.5,2.6-7.8v-27.3H355z"/>
	<path class="st27" d="M388.2,1349.3c2.7-1.6,5.7-2.4,9-2.4v16.3H393c-3.8,0-6.7,0.8-8.6,2.5c-1.9,1.7-2.9,4.5-2.9,8.7v23.3H366
		v-50.2h15.4v8.4C383.2,1353,385.5,1350.9,388.2,1349.3z"/>
	<path class="st27" d="M451.6,1376.2h-34.8c0.2,3.1,1.2,5.5,3,7.2c1.8,1.7,3.9,2.5,6.5,2.5c3.8,0,6.5-1.6,8-4.9h16.4
		c-0.8,3.3-2.4,6.3-4.5,8.9c-2.2,2.6-4.9,4.7-8.2,6.2c-3.3,1.5-7,2.2-11.1,2.2c-4.9,0-9.3-1-13.1-3.2c-3.8-2.1-6.8-5.1-9-9
		c-2.2-3.9-3.2-8.5-3.2-13.7s1.1-9.8,3.2-13.7c2.1-3.9,5.1-6.9,9-9c3.8-2.1,8.2-3.2,13.2-3.2c4.9,0,9.2,1,13,3.1
		c3.8,2,6.7,4.9,8.9,8.7c2.1,3.8,3.2,8.2,3.2,13.2C451.9,1373.2,451.8,1374.7,451.6,1376.2z M436.2,1367.7c0-2.6-0.9-4.7-2.7-6.3
		c-1.8-1.6-4.1-2.3-6.8-2.3c-2.6,0-4.8,0.8-6.5,2.2c-1.8,1.5-2.9,3.6-3.3,6.4H436.2z"/>
	<path class="st27" d="M524.7,1364.8c-1.7,3-4.3,5.5-7.7,7.3c-3.5,1.9-7.8,2.8-13,2.8h-9.5v22.7h-15.4v-63.2H504
		c5,0,9.3,0.9,12.8,2.6c3.5,1.7,6.1,4.1,7.8,7.2c1.7,3.1,2.6,6.6,2.6,10.5C527.2,1358.5,526.4,1361.8,524.7,1364.8z M509.4,1360.7
		c1.4-1.4,2.2-3.3,2.2-5.8c0-2.5-0.7-4.5-2.2-5.9c-1.4-1.4-3.6-2.1-6.6-2.1h-8.4v15.8h8.4C505.8,1362.7,508,1362,509.4,1360.7z"/>
	<path class="st27" d="M557.4,1349.3c2.7-1.6,5.7-2.4,9-2.4v16.3h-4.2c-3.8,0-6.7,0.8-8.6,2.5c-1.9,1.7-2.9,4.5-2.9,8.7v23.3h-15.4
		v-50.2h15.4v8.4C552.4,1353,554.7,1350.9,557.4,1349.3z"/>
	<path class="st27" d="M583.3,1395.2c-3.9-2.1-7-5.1-9.3-9c-2.2-3.9-3.4-8.5-3.4-13.7c0-5.2,1.1-9.7,3.4-13.6c2.3-3.9,5.4-6.9,9.4-9
		c4-2.1,8.4-3.2,13.3-3.2c4.9,0,9.4,1.1,13.3,3.2c4,2.1,7.1,5.1,9.4,9c2.3,3.9,3.4,8.5,3.4,13.6c0,5.2-1.2,9.7-3.5,13.6
		c-2.3,3.9-5.5,6.9-9.4,9c-4,2.1-8.4,3.2-13.4,3.2C591.7,1398.4,587.3,1397.3,583.3,1395.2z M604.1,1381.8c2.1-2.2,3.1-5.2,3.1-9.3
		c0-4-1-7.1-3-9.3c-2-2.2-4.5-3.2-7.4-3.2c-3,0-5.5,1.1-7.5,3.2s-3,5.2-3,9.3c0,4,1,7.1,2.9,9.3c1.9,2.2,4.4,3.2,7.3,3.2
		C599.6,1385,602.1,1384,604.1,1381.8z"/>
	<path class="st27" d="M631.2,1358.9c2.1-3.9,5.1-6.9,8.9-9c3.8-2.1,8.2-3.2,13.1-3.2c6.3,0,11.6,1.7,15.8,5c4.2,3.3,7,8,8.3,14H661
		c-1.4-3.8-4-5.8-8-5.8c-2.8,0-5.1,1.1-6.8,3.3c-1.7,2.2-2.5,5.3-2.5,9.4c0,4.1,0.8,7.2,2.5,9.4c1.7,2.2,3.9,3.3,6.8,3.3
		c4,0,6.6-1.9,8-5.8h16.4c-1.3,5.9-4.1,10.5-8.4,13.9c-4.3,3.4-9.5,5-15.8,5c-4.9,0-9.3-1-13.1-3.2c-3.8-2.1-6.8-5.1-8.9-9
		c-2.1-3.9-3.2-8.5-3.2-13.7S629.1,1362.8,631.2,1358.9z"/>
	<path class="st27" d="M732.6,1376.2h-34.8c0.2,3.1,1.2,5.5,3,7.2c1.8,1.7,3.9,2.5,6.5,2.5c3.8,0,6.5-1.6,8-4.9h16.4
		c-0.8,3.3-2.4,6.3-4.5,8.9c-2.2,2.6-4.9,4.7-8.2,6.2c-3.3,1.5-7,2.2-11.1,2.2c-4.9,0-9.3-1-13.1-3.2c-3.8-2.1-6.8-5.1-9-9
		c-2.2-3.9-3.2-8.5-3.2-13.7s1.1-9.8,3.2-13.7c2.1-3.9,5.1-6.9,9-9c3.8-2.1,8.2-3.2,13.2-3.2c4.9,0,9.2,1,13,3.1
		c3.8,2,6.7,4.9,8.9,8.7c2.1,3.8,3.2,8.2,3.2,13.2C732.9,1373.2,732.8,1374.7,732.6,1376.2z M717.1,1367.7c0-2.6-0.9-4.7-2.7-6.3
		c-1.8-1.6-4.1-2.3-6.8-2.3c-2.6,0-4.8,0.8-6.5,2.2c-1.8,1.5-2.9,3.6-3.3,6.4H717.1z"/>
	<path class="st27" d="M749.7,1396.1c-3.4-1.5-6.1-3.6-8.1-6.2c-2-2.6-3.1-5.5-3.3-8.8h15.2c0.2,1.7,1,3.2,2.4,4.2
		c1.4,1.1,3.2,1.6,5.3,1.6c1.9,0,3.4-0.4,4.5-1.1c1-0.8,1.6-1.7,1.6-2.9c0-1.4-0.8-2.5-2.2-3.2c-1.5-0.7-3.9-1.5-7.3-2.3
		c-3.6-0.8-6.6-1.7-9-2.7c-2.4-0.9-4.5-2.4-6.2-4.4c-1.7-2-2.6-4.7-2.6-8.1c0-2.9,0.8-5.5,2.4-7.9c1.6-2.4,3.9-4.2,7-5.6
		c3.1-1.4,6.8-2.1,11-2.1c6.3,0,11.3,1.6,14.9,4.7c3.6,3.1,5.7,7.3,6.3,12.4h-14.2c-0.2-1.7-1-3.1-2.3-4.1c-1.3-1-3-1.5-5.1-1.5
		c-1.8,0-3.2,0.3-4.1,1c-1,0.7-1.4,1.6-1.4,2.8c0,1.4,0.8,2.5,2.3,3.2c1.5,0.7,3.9,1.4,7.2,2.2c3.7,1,6.8,1.9,9.1,2.8
		c2.3,0.9,4.4,2.4,6.2,4.5c1.8,2.1,2.7,4.8,2.7,8.3c0,2.9-0.8,5.6-2.5,7.9c-1.7,2.3-4,4.1-7.1,5.4c-3.1,1.3-6.7,2-10.8,2
		C757,1398.4,753.1,1397.6,749.7,1396.1z"/>
	<path class="st27" d="M799.9,1396.1c-3.4-1.5-6.1-3.6-8.1-6.2c-2-2.6-3.1-5.5-3.3-8.8h15.2c0.2,1.7,1,3.2,2.4,4.2
		c1.4,1.1,3.2,1.6,5.3,1.6c1.9,0,3.4-0.4,4.5-1.1c1-0.8,1.6-1.7,1.6-2.9c0-1.4-0.8-2.5-2.2-3.2c-1.5-0.7-3.9-1.5-7.3-2.3
		c-3.6-0.8-6.6-1.7-9-2.7c-2.4-0.9-4.5-2.4-6.2-4.4c-1.7-2-2.6-4.7-2.6-8.1c0-2.9,0.8-5.5,2.4-7.9c1.6-2.4,3.9-4.2,7-5.6
		c3.1-1.4,6.8-2.1,11-2.1c6.3,0,11.3,1.6,14.9,4.7c3.6,3.1,5.7,7.3,6.3,12.4h-14.2c-0.2-1.7-1-3.1-2.3-4.1c-1.3-1-3-1.5-5.1-1.5
		c-1.8,0-3.2,0.3-4.1,1c-1,0.7-1.4,1.6-1.4,2.8c0,1.4,0.8,2.5,2.3,3.2c1.5,0.7,3.9,1.4,7.2,2.2c3.7,1,6.8,1.9,9.1,2.8
		c2.3,0.9,4.4,2.4,6.2,4.5c1.8,2.1,2.7,4.8,2.7,8.3c0,2.9-0.8,5.6-2.5,7.9c-1.7,2.3-4,4.1-7.1,5.4c-3.1,1.3-6.7,2-10.8,2
		C807.2,1398.4,803.3,1397.6,799.9,1396.1z"/>
</g>
<g>
	<path class="st27" d="M189.6,1767.1c-3.7-1.5-6.6-3.7-8.8-6.7c-2.2-2.9-3.3-6.5-3.5-10.6h16.4c0.2,2.3,1,4.1,2.4,5.4
		c1.4,1.2,3.2,1.8,5.4,1.8c2.3,0,4.1-0.5,5.4-1.6c1.3-1,2-2.5,2-4.4c0-1.6-0.5-2.8-1.6-3.9c-1.1-1-2.3-1.9-3.9-2.5
		c-1.5-0.7-3.7-1.4-6.5-2.2c-4.1-1.3-7.4-2.5-10-3.8c-2.6-1.3-4.8-3.1-6.7-5.6c-1.9-2.5-2.8-5.7-2.8-9.6c0-5.9,2.1-10.5,6.4-13.8
		c4.3-3.3,9.8-5,16.6-5c7,0,12.6,1.7,16.8,5c4.3,3.3,6.5,8,6.8,13.9h-16.6c-0.1-2-0.9-3.6-2.2-4.8c-1.4-1.2-3.1-1.8-5.3-1.8
		c-1.9,0-3.4,0.5-4.5,1.5c-1.1,1-1.7,2.4-1.7,4.3c0,2,1,3.6,2.9,4.8c1.9,1.1,4.9,2.4,9,3.7c4.1,1.4,7.4,2.7,9.9,4
		c2.5,1.3,4.8,3.1,6.6,5.5c1.9,2.4,2.8,5.5,2.8,9.3c0,3.6-0.9,6.9-2.7,9.8c-1.8,2.9-4.5,5.3-8,7c-3.5,1.7-7.6,2.6-12.3,2.6
		C197.4,1769.3,193.2,1768.6,189.6,1767.1z"/>
	<path class="st27" d="M281.5,1747.3h-34.8c0.2,3.1,1.2,5.5,3,7.2c1.8,1.7,3.9,2.5,6.5,2.5c3.8,0,6.5-1.6,8-4.9h16.4
		c-0.8,3.3-2.4,6.3-4.5,8.9c-2.2,2.6-4.9,4.7-8.2,6.2c-3.3,1.5-7,2.2-11.1,2.2c-4.9,0-9.3-1-13.1-3.2c-3.8-2.1-6.8-5.1-9-9
		c-2.2-3.9-3.2-8.5-3.2-13.7s1.1-9.8,3.2-13.7c2.1-3.9,5.1-6.9,9-9c3.8-2.1,8.2-3.2,13.2-3.2c4.9,0,9.2,1,13,3.1
		c3.8,2,6.7,4.9,8.9,8.7c2.1,3.8,3.2,8.2,3.2,13.2C281.8,1744.2,281.7,1745.7,281.5,1747.3z M266.1,1738.7c0-2.6-0.9-4.7-2.7-6.3
		c-1.8-1.6-4.1-2.3-6.8-2.3c-2.6,0-4.8,0.8-6.5,2.2c-1.8,1.5-2.9,3.6-3.3,6.4H266.1z"/>
	<path class="st27" d="M290,1729.9c2.1-3.9,5.1-6.9,8.9-9c3.8-2.1,8.2-3.2,13.1-3.2c6.3,0,11.6,1.7,15.8,5c4.2,3.3,7,8,8.3,14h-16.4
		c-1.4-3.8-4-5.8-8-5.8c-2.8,0-5.1,1.1-6.8,3.3c-1.7,2.2-2.5,5.3-2.5,9.4c0,4.1,0.8,7.2,2.5,9.4c1.7,2.2,3.9,3.3,6.8,3.3
		c4,0,6.6-1.9,8-5.8h16.4c-1.3,5.9-4.1,10.5-8.4,13.9c-4.3,3.4-9.5,5-15.8,5c-4.9,0-9.3-1-13.1-3.2c-3.8-2.1-6.8-5.1-8.9-9
		c-2.1-3.9-3.2-8.5-3.2-13.7S287.9,1733.8,290,1729.9z"/>
	<path class="st27" d="M393.9,1718.5v50.2h-15.4v-6.8c-1.6,2.2-3.7,4-6.3,5.4c-2.7,1.4-5.6,2-8.9,2c-3.8,0-7.2-0.9-10.2-2.6
		c-2.9-1.7-5.2-4.2-6.8-7.4s-2.4-7-2.4-11.4v-29.3h15.3v27.3c0,3.4,0.9,6,2.6,7.8c1.7,1.9,4.1,2.8,7,2.8c3,0,5.4-0.9,7.1-2.8
		c1.7-1.9,2.6-4.5,2.6-7.8v-27.3H393.9z"/>
	<path class="st27" d="M427.2,1720.3c2.7-1.6,5.7-2.4,9-2.4v16.3h-4.2c-3.8,0-6.7,0.8-8.6,2.5c-1.9,1.7-2.9,4.5-2.9,8.7v23.3H405
		v-50.2h15.4v8.4C422.2,1724.1,424.5,1721.9,427.2,1720.3z"/>
	<path class="st27" d="M490.6,1747.3h-34.8c0.2,3.1,1.2,5.5,3,7.2c1.8,1.7,3.9,2.5,6.5,2.5c3.8,0,6.5-1.6,8-4.9h16.4
		c-0.8,3.3-2.4,6.3-4.5,8.9c-2.2,2.6-4.9,4.7-8.2,6.2c-3.3,1.5-7,2.2-11.1,2.2c-4.9,0-9.3-1-13.1-3.2c-3.8-2.1-6.8-5.1-9-9
		c-2.2-3.9-3.2-8.5-3.2-13.7s1.1-9.8,3.2-13.7c2.1-3.9,5.1-6.9,9-9c3.8-2.1,8.2-3.2,13.2-3.2c4.9,0,9.2,1,13,3.1
		c3.8,2,6.7,4.9,8.9,8.7c2.1,3.8,3.2,8.2,3.2,13.2C490.9,1744.2,490.8,1745.7,490.6,1747.3z M475.1,1738.7c0-2.6-0.9-4.7-2.7-6.3
		c-1.8-1.6-4.1-2.3-6.8-2.3c-2.6,0-4.8,0.8-6.5,2.2c-1.8,1.5-2.9,3.6-3.3,6.4H475.1z"/>
	<path class="st27" d="M565.1,1741.7c2.2,2.9,3.3,6.1,3.3,9.8c0,5.3-1.8,9.5-5.5,12.6c-3.7,3.1-8.8,4.6-15.4,4.6h-29.4v-63.2h28.4
		c6.4,0,11.4,1.5,15.1,4.4c3.6,2.9,5.4,6.9,5.4,12c0,3.7-1,6.8-2.9,9.3c-2,2.5-4.5,4.2-7.8,5.1
		C560,1737.1,562.9,1738.9,565.1,1741.7z M533.4,1731.1h10.1c2.5,0,4.5-0.6,5.8-1.7c1.4-1.1,2-2.7,2-4.9s-0.7-3.8-2-5
		c-1.4-1.1-3.3-1.7-5.8-1.7h-10.1V1731.1z M550.8,1754.5c1.4-1.2,2.1-2.9,2.1-5.1s-0.7-4-2.2-5.2c-1.5-1.3-3.5-1.9-6.1-1.9h-11.2v14
		h11.3C547.4,1756.3,549.4,1755.7,550.8,1754.5z"/>
	<path class="st27" d="M626.9,1718.5v50.2h-15.4v-6.8c-1.6,2.2-3.7,4-6.3,5.4c-2.7,1.4-5.6,2-8.9,2c-3.8,0-7.2-0.9-10.2-2.6
		c-2.9-1.7-5.2-4.2-6.8-7.4s-2.4-7-2.4-11.4v-29.3h15.3v27.3c0,3.4,0.9,6,2.6,7.8c1.7,1.9,4.1,2.8,7,2.8c3,0,5.4-0.9,7.1-2.8
		c1.7-1.9,2.6-4.5,2.6-7.8v-27.3H626.9z"/>
	<path class="st27" d="M639.1,1710.9c-1.7-1.6-2.6-3.6-2.6-5.9c0-2.4,0.9-4.4,2.6-6c1.7-1.6,3.9-2.4,6.6-2.4c2.6,0,4.8,0.8,6.5,2.4
		c1.7,1.6,2.6,3.6,2.6,6c0,2.3-0.9,4.3-2.6,5.9c-1.7,1.6-3.9,2.4-6.5,2.4C643.1,1713.2,640.9,1712.5,639.1,1710.9z M653.4,1718.5
		v50.2H638v-50.2H653.4z"/>
	<path class="st27" d="M680,1702.1v66.6h-15.4v-66.6H680z"/>
	<path class="st27" d="M691,1729.9c1.9-3.9,4.6-6.9,8-9c3.4-2.1,7.1-3.2,11.2-3.2c3.3,0,6.3,0.7,9,2.1c2.7,1.4,4.9,3.2,6.4,5.6
		v-23.3h15.4v66.6h-15.4v-7.2c-1.4,2.4-3.5,4.3-6.2,5.8c-2.7,1.4-5.8,2.2-9.3,2.2c-4.1,0-7.9-1.1-11.2-3.2c-3.4-2.1-6-5.2-8-9.1
		c-2-3.9-2.9-8.5-2.9-13.6C688.1,1738.3,689,1733.8,691,1729.9z M722.5,1734.5c-2.1-2.2-4.7-3.3-7.8-3.3s-5.7,1.1-7.8,3.3
		c-2.1,2.2-3.2,5.2-3.2,9c0,3.8,1.1,6.9,3.2,9.1c2.1,2.2,4.7,3.4,7.8,3.4s5.7-1.1,7.8-3.3c2.1-2.2,3.2-5.2,3.2-9.1
		C725.7,1739.7,724.6,1736.7,722.5,1734.5z"/>
	<path class="st27" d="M761,1767.2c-3.4-1.5-6.1-3.6-8.1-6.2c-2-2.6-3.1-5.5-3.3-8.8h15.2c0.2,1.7,1,3.2,2.4,4.2
		c1.4,1.1,3.2,1.6,5.3,1.6c1.9,0,3.4-0.4,4.5-1.1c1-0.8,1.6-1.7,1.6-2.9c0-1.4-0.8-2.5-2.2-3.2c-1.5-0.7-3.9-1.5-7.3-2.3
		c-3.6-0.8-6.6-1.7-9-2.7c-2.4-0.9-4.5-2.4-6.2-4.4c-1.7-2-2.6-4.7-2.6-8.1c0-2.9,0.8-5.5,2.4-7.9c1.6-2.4,3.9-4.2,7-5.6
		c3.1-1.4,6.8-2.1,11-2.1c6.3,0,11.3,1.6,14.9,4.7c3.6,3.1,5.7,7.3,6.3,12.4h-14.2c-0.2-1.7-1-3.1-2.3-4.1c-1.3-1-3-1.5-5.1-1.5
		c-1.8,0-3.2,0.3-4.1,1c-1,0.7-1.4,1.6-1.4,2.8c0,1.4,0.8,2.5,2.3,3.2c1.5,0.7,3.9,1.4,7.2,2.2c3.7,1,6.8,1.9,9.1,2.8
		c2.3,0.9,4.4,2.4,6.2,4.5c1.8,2.1,2.7,4.8,2.7,8.3c0,2.9-0.8,5.6-2.5,7.9c-1.7,2.3-4,4.1-7.1,5.4c-3.1,1.3-6.7,2-10.8,2
		C768.3,1769.4,764.4,1768.7,761,1767.2z"/>
</g>
</svg>
