<svg width="1200" height="300" viewBox="0 0 1200 300" fill="none" xmlns="http://www.w3.org/2000/svg">
<rect width="1200" height="300" rx="4" fill="#F2F2F6"/>
<rect x="500" y="120" width="200" height="50" rx="25" fill="#101C2B"/>
<path d="M566.483 141.27C567.519 141.27 568.425 141.471 569.199 141.872C569.983 142.264 570.585 142.833 571.005 143.58C571.435 144.317 571.649 145.181 571.649 146.17C571.649 147.159 571.435 148.018 571.005 148.746C570.585 149.474 569.983 150.034 569.199 150.426C568.425 150.809 567.519 151 566.483 151H563.305V141.27H566.483ZM566.483 149.698C567.622 149.698 568.495 149.39 569.101 148.774C569.708 148.158 570.011 147.29 570.011 146.17C570.011 145.041 569.708 144.159 569.101 143.524C568.495 142.889 567.622 142.572 566.483 142.572H564.901V149.698H566.483ZM574.925 142.558V145.414H578.285V146.716H574.925V149.698H578.705V151H573.329V141.256H578.705V142.558H574.925ZM586.495 141.27V142.572H582.365V145.442H585.585V146.744H582.365V151H580.769V141.27H586.495ZM589.668 141.27V151H588.072V141.27H589.668ZM599.855 151H598.259L593.457 143.734V151H591.861V141.256H593.457L598.259 148.508V141.256H599.855V151ZM603.645 141.27V151H602.049V141.27H603.645ZM612.125 141.27V142.572H609.535V151H607.939V142.572H605.335V141.27H612.125ZM615.435 141.27V151H613.839V141.27H615.435ZM622.066 151.098C621.161 151.098 620.326 150.888 619.56 150.468C618.804 150.039 618.202 149.446 617.754 148.69C617.316 147.925 617.096 147.066 617.096 146.114C617.096 145.162 617.316 144.308 617.754 143.552C618.202 142.796 618.804 142.208 619.56 141.788C620.326 141.359 621.161 141.144 622.066 141.144C622.981 141.144 623.816 141.359 624.572 141.788C625.338 142.208 625.94 142.796 626.378 143.552C626.817 144.308 627.036 145.162 627.036 146.114C627.036 147.066 626.817 147.925 626.378 148.69C625.94 149.446 625.338 150.039 624.572 150.468C623.816 150.888 622.981 151.098 622.066 151.098ZM622.066 149.712C622.71 149.712 623.284 149.567 623.788 149.278C624.292 148.979 624.684 148.559 624.964 148.018C625.254 147.467 625.398 146.833 625.398 146.114C625.398 145.395 625.254 144.765 624.964 144.224C624.684 143.683 624.292 143.267 623.788 142.978C623.284 142.689 622.71 142.544 622.066 142.544C621.422 142.544 620.848 142.689 620.344 142.978C619.84 143.267 619.444 143.683 619.154 144.224C618.874 144.765 618.734 145.395 618.734 146.114C618.734 146.833 618.874 147.467 619.154 148.018C619.444 148.559 619.84 148.979 620.344 149.278C620.848 149.567 621.422 149.712 622.066 149.712ZM636.699 151H635.103L630.301 143.734V151H628.705V141.256H630.301L635.103 148.508V141.256H636.699V151Z" fill="white"/>
<rect x="700" y="194" width="200" height="50" rx="25" fill="#101C2B"/>
<path d="M742.994 215.27V225H741.398V215.27H742.994ZM755.436 215.27V225H753.84V218.336L750.872 225H749.766L746.784 218.336V225H745.188V215.27H746.91L750.326 222.9L753.728 215.27H755.436ZM764.435 218.168C764.435 218.663 764.319 219.129 764.085 219.568C763.852 220.007 763.479 220.366 762.965 220.646C762.452 220.917 761.794 221.052 760.991 221.052H759.227V225H757.631V215.27H760.991C761.738 215.27 762.368 215.401 762.881 215.662C763.404 215.914 763.791 216.259 764.043 216.698C764.305 217.137 764.435 217.627 764.435 218.168ZM760.991 219.75C761.598 219.75 762.051 219.615 762.349 219.344C762.648 219.064 762.797 218.672 762.797 218.168C762.797 217.104 762.195 216.572 760.991 216.572H759.227V219.75H760.991ZM767.652 223.712H770.942V225H766.056V215.27H767.652V223.712ZM773.97 216.558V219.414H777.33V220.716H773.97V223.698H777.75V225H772.374V215.256H777.75V216.558H773.97ZM790.062 215.27V225H788.466V218.336L785.498 225H784.392L781.41 218.336V225H779.814V215.27H781.536L784.952 222.9L788.354 215.27H790.062ZM793.854 216.558V219.414H797.214V220.716H793.854V223.698H797.634V225H792.258V215.256H797.634V216.558H793.854ZM807.692 225H806.096L801.294 217.734V225H799.698V215.256H801.294L806.096 222.508V215.256H807.692V225ZM816.171 215.27V216.572H813.581V225H811.985V216.572H809.381V215.27H816.171ZM823.752 223.012H819.678L818.978 225H817.312L820.798 215.256H822.646L826.132 225H824.452L823.752 223.012ZM823.304 221.71L821.722 217.188L820.126 221.71H823.304ZM834.032 215.27V216.572H831.442V225H829.846V216.572H827.242V215.27H834.032ZM837.342 215.27V225H835.746V215.27H837.342ZM843.973 225.098C843.068 225.098 842.233 224.888 841.467 224.468C840.711 224.039 840.109 223.446 839.661 222.69C839.223 221.925 839.003 221.066 839.003 220.114C839.003 219.162 839.223 218.308 839.661 217.552C840.109 216.796 840.711 216.208 841.467 215.788C842.233 215.359 843.068 215.144 843.973 215.144C844.888 215.144 845.723 215.359 846.479 215.788C847.245 216.208 847.847 216.796 848.285 217.552C848.724 218.308 848.943 219.162 848.943 220.114C848.943 221.066 848.724 221.925 848.285 222.69C847.847 223.446 847.245 224.039 846.479 224.468C845.723 224.888 844.888 225.098 843.973 225.098ZM843.973 223.712C844.617 223.712 845.191 223.567 845.695 223.278C846.199 222.979 846.591 222.559 846.871 222.018C847.161 221.467 847.305 220.833 847.305 220.114C847.305 219.395 847.161 218.765 846.871 218.224C846.591 217.683 846.199 217.267 845.695 216.978C845.191 216.689 844.617 216.544 843.973 216.544C843.329 216.544 842.755 216.689 842.251 216.978C841.747 217.267 841.351 217.683 841.061 218.224C840.781 218.765 840.641 219.395 840.641 220.114C840.641 220.833 840.781 221.467 841.061 222.018C841.351 222.559 841.747 222.979 842.251 223.278C842.755 223.567 843.329 223.712 843.973 223.712ZM858.606 225H857.01L852.208 217.734V225H850.612V215.256H852.208L857.01 222.508V215.256H858.606V225Z" fill="white"/>
<path d="M462.099 74.48C461.795 73.92 461.355 73.496 460.779 73.208C460.219 72.904 459.555 72.752 458.787 72.752C457.459 72.752 456.395 73.192 455.595 74.072C454.795 74.936 454.395 76.096 454.395 77.552C454.395 79.104 454.811 80.32 455.643 81.2C456.491 82.064 457.651 82.496 459.123 82.496C460.131 82.496 460.979 82.24 461.667 81.728C462.371 81.216 462.883 80.48 463.203 79.52H457.995V76.496H466.923V80.312C466.619 81.336 466.099 82.288 465.363 83.168C464.643 84.048 463.723 84.76 462.603 85.304C461.483 85.848 460.219 86.12 458.811 86.12C457.147 86.12 455.659 85.76 454.347 85.04C453.051 84.304 452.035 83.288 451.299 81.992C450.579 80.696 450.219 79.216 450.219 77.552C450.219 75.888 450.579 74.408 451.299 73.112C452.035 71.8 453.051 70.784 454.347 70.064C455.643 69.328 457.123 68.96 458.787 68.96C460.803 68.96 462.499 69.448 463.875 70.424C465.267 71.4 466.187 72.752 466.635 74.48H462.099ZM475.472 86.192C474.16 86.192 472.976 85.912 471.92 85.352C470.88 84.792 470.056 83.992 469.448 82.952C468.856 81.912 468.56 80.696 468.56 79.304C468.56 77.928 468.864 76.72 469.472 75.68C470.08 74.624 470.912 73.816 471.968 73.256C473.024 72.696 474.208 72.416 475.52 72.416C476.832 72.416 478.016 72.696 479.072 73.256C480.128 73.816 480.96 74.624 481.568 75.68C482.176 76.72 482.48 77.928 482.48 79.304C482.48 80.68 482.168 81.896 481.544 82.952C480.936 83.992 480.096 84.792 479.024 85.352C477.968 85.912 476.784 86.192 475.472 86.192ZM475.472 82.64C476.256 82.64 476.92 82.352 477.464 81.776C478.024 81.2 478.304 80.376 478.304 79.304C478.304 78.232 478.032 77.408 477.488 76.832C476.96 76.256 476.304 75.968 475.52 75.968C474.72 75.968 474.056 76.256 473.528 76.832C473 77.392 472.736 78.216 472.736 79.304C472.736 80.376 472.992 81.2 473.504 81.776C474.032 82.352 474.688 82.64 475.472 82.64ZM490.861 82.16L493.765 72.608H498.133L493.381 86H488.317L483.565 72.608H487.957L490.861 82.16ZM512.665 79.088C512.665 79.472 512.641 79.872 512.593 80.288H503.305C503.369 81.12 503.633 81.76 504.097 82.208C504.577 82.64 505.161 82.856 505.849 82.856C506.873 82.856 507.585 82.424 507.985 81.56H512.353C512.129 82.44 511.721 83.232 511.129 83.936C510.553 84.64 509.825 85.192 508.945 85.592C508.065 85.992 507.081 86.192 505.993 86.192C504.681 86.192 503.513 85.912 502.489 85.352C501.465 84.792 500.665 83.992 500.089 82.952C499.513 81.912 499.225 80.696 499.225 79.304C499.225 77.912 499.505 76.696 500.065 75.656C500.641 74.616 501.441 73.816 502.465 73.256C503.489 72.696 504.665 72.416 505.993 72.416C507.289 72.416 508.441 72.688 509.449 73.232C510.457 73.776 511.241 74.552 511.801 75.56C512.377 76.568 512.665 77.744 512.665 79.088ZM508.465 78.008C508.465 77.304 508.225 76.744 507.745 76.328C507.265 75.912 506.665 75.704 505.945 75.704C505.257 75.704 504.673 75.904 504.193 76.304C503.729 76.704 503.441 77.272 503.329 78.008H508.465ZM519.114 74.84C519.594 74.104 520.194 73.528 520.914 73.112C521.634 72.68 522.434 72.464 523.314 72.464V76.808H522.186C521.162 76.808 520.394 77.032 519.882 77.48C519.37 77.912 519.114 78.68 519.114 79.784V86H515.01V72.608H519.114V74.84ZM533.615 72.464C535.183 72.464 536.431 72.976 537.359 74C538.303 75.008 538.775 76.4 538.775 78.176V86H534.695V78.728C534.695 77.832 534.463 77.136 533.999 76.64C533.535 76.144 532.911 75.896 532.127 75.896C531.343 75.896 530.719 76.144 530.255 76.64C529.791 77.136 529.559 77.832 529.559 78.728V86H525.455V72.608H529.559V74.384C529.975 73.792 530.535 73.328 531.239 72.992C531.943 72.64 532.735 72.464 533.615 72.464ZM540.991 79.28C540.991 77.904 541.247 76.696 541.759 75.656C542.287 74.616 542.999 73.816 543.895 73.256C544.791 72.696 545.791 72.416 546.895 72.416C547.839 72.416 548.663 72.608 549.367 72.992C550.087 73.376 550.639 73.88 551.023 74.504V72.608H555.127V86H551.023V84.104C550.623 84.728 550.063 85.232 549.343 85.616C548.639 86 547.815 86.192 546.871 86.192C545.783 86.192 544.791 85.912 543.895 85.352C542.999 84.776 542.287 83.968 541.759 82.928C541.247 81.872 540.991 80.656 540.991 79.28ZM551.023 79.304C551.023 78.28 550.735 77.472 550.159 76.88C549.599 76.288 548.911 75.992 548.095 75.992C547.279 75.992 546.583 76.288 546.007 76.88C545.447 77.456 545.167 78.256 545.167 79.28C545.167 80.304 545.447 81.12 546.007 81.728C546.583 82.32 547.279 82.616 548.095 82.616C548.911 82.616 549.599 82.32 550.159 81.728C550.735 81.136 551.023 80.328 551.023 79.304ZM566.436 72.464C568.004 72.464 569.252 72.976 570.18 74C571.124 75.008 571.596 76.4 571.596 78.176V86H567.516V78.728C567.516 77.832 567.284 77.136 566.82 76.64C566.356 76.144 565.732 75.896 564.948 75.896C564.164 75.896 563.54 76.144 563.076 76.64C562.612 77.136 562.38 77.832 562.38 78.728V86H558.276V72.608H562.38V74.384C562.796 73.792 563.356 73.328 564.06 72.992C564.764 72.64 565.556 72.464 566.436 72.464ZM573.812 79.304C573.812 77.912 574.092 76.696 574.652 75.656C575.228 74.616 576.02 73.816 577.028 73.256C578.052 72.696 579.22 72.416 580.532 72.416C582.212 72.416 583.612 72.856 584.732 73.736C585.868 74.616 586.612 75.856 586.964 77.456H582.596C582.228 76.432 581.516 75.92 580.46 75.92C579.708 75.92 579.108 76.216 578.66 76.808C578.212 77.384 577.988 78.216 577.988 79.304C577.988 80.392 578.212 81.232 578.66 81.824C579.108 82.4 579.708 82.688 580.46 82.688C581.516 82.688 582.228 82.176 582.596 81.152H586.964C586.612 82.72 585.868 83.952 584.732 84.848C583.596 85.744 582.196 86.192 580.532 86.192C579.22 86.192 578.052 85.912 577.028 85.352C576.02 84.792 575.228 83.992 574.652 82.952C574.092 81.912 573.812 80.696 573.812 79.304ZM601.963 79.088C601.963 79.472 601.939 79.872 601.891 80.288H592.603C592.667 81.12 592.931 81.76 593.395 82.208C593.875 82.64 594.459 82.856 595.147 82.856C596.171 82.856 596.883 82.424 597.283 81.56H601.651C601.427 82.44 601.019 83.232 600.427 83.936C599.851 84.64 599.123 85.192 598.243 85.592C597.363 85.992 596.379 86.192 595.291 86.192C593.979 86.192 592.811 85.912 591.787 85.352C590.763 84.792 589.963 83.992 589.387 82.952C588.811 81.912 588.523 80.696 588.523 79.304C588.523 77.912 588.803 76.696 589.363 75.656C589.939 74.616 590.739 73.816 591.763 73.256C592.787 72.696 593.963 72.416 595.291 72.416C596.587 72.416 597.739 72.688 598.747 73.232C599.755 73.776 600.539 74.552 601.099 75.56C601.675 76.568 601.963 77.744 601.963 79.088ZM597.763 78.008C597.763 77.304 597.523 76.744 597.043 76.328C596.563 75.912 595.963 75.704 595.243 75.704C594.555 75.704 593.971 75.904 593.491 76.304C593.027 76.704 592.739 77.272 592.627 78.008H597.763ZM620.542 69.152V72.44H613.678V75.992H618.814V79.184H613.678V86H609.574V69.152H620.542ZM626.983 74.84C627.463 74.104 628.063 73.528 628.783 73.112C629.503 72.68 630.303 72.464 631.183 72.464V76.808H630.055C629.031 76.808 628.263 77.032 627.751 77.48C627.239 77.912 626.983 78.68 626.983 79.784V86H622.879V72.608H626.983V74.84ZM632.509 79.28C632.509 77.904 632.765 76.696 633.277 75.656C633.805 74.616 634.517 73.816 635.413 73.256C636.309 72.696 637.309 72.416 638.413 72.416C639.357 72.416 640.181 72.608 640.885 72.992C641.605 73.376 642.157 73.88 642.541 74.504V72.608H646.645V86H642.541V84.104C642.141 84.728 641.581 85.232 640.861 85.616C640.157 86 639.333 86.192 638.389 86.192C637.301 86.192 636.309 85.912 635.413 85.352C634.517 84.776 633.805 83.968 633.277 82.928C632.765 81.872 632.509 80.656 632.509 79.28ZM642.541 79.304C642.541 78.28 642.253 77.472 641.677 76.88C641.117 76.288 640.429 75.992 639.613 75.992C638.797 75.992 638.101 76.288 637.525 76.88C636.965 77.456 636.685 78.256 636.685 79.28C636.685 80.304 636.965 81.12 637.525 81.728C638.101 82.32 638.797 82.616 639.613 82.616C640.429 82.616 641.117 82.32 641.677 81.728C642.253 81.136 642.541 80.328 642.541 79.304ZM666.882 72.464C668.546 72.464 669.866 72.968 670.842 73.976C671.834 74.984 672.33 76.384 672.33 78.176V86H668.25V78.728C668.25 77.864 668.018 77.2 667.554 76.736C667.106 76.256 666.482 76.016 665.682 76.016C664.882 76.016 664.25 76.256 663.786 76.736C663.338 77.2 663.114 77.864 663.114 78.728V86H659.034V78.728C659.034 77.864 658.802 77.2 658.338 76.736C657.89 76.256 657.266 76.016 656.466 76.016C655.666 76.016 655.034 76.256 654.57 76.736C654.122 77.2 653.898 77.864 653.898 78.728V86H649.794V72.608H653.898V74.288C654.314 73.728 654.858 73.288 655.53 72.968C656.202 72.632 656.962 72.464 657.81 72.464C658.818 72.464 659.714 72.68 660.498 73.112C661.298 73.544 661.922 74.16 662.37 74.96C662.834 74.224 663.466 73.624 664.266 73.16C665.066 72.696 665.938 72.464 666.882 72.464ZM688.004 79.088C688.004 79.472 687.98 79.872 687.932 80.288H678.644C678.708 81.12 678.972 81.76 679.436 82.208C679.916 82.64 680.5 82.856 681.188 82.856C682.212 82.856 682.924 82.424 683.324 81.56H687.692C687.468 82.44 687.06 83.232 686.468 83.936C685.892 84.64 685.164 85.192 684.284 85.592C683.404 85.992 682.42 86.192 681.332 86.192C680.02 86.192 678.852 85.912 677.828 85.352C676.804 84.792 676.004 83.992 675.428 82.952C674.852 81.912 674.564 80.696 674.564 79.304C674.564 77.912 674.844 76.696 675.404 75.656C675.98 74.616 676.78 73.816 677.804 73.256C678.828 72.696 680.004 72.416 681.332 72.416C682.628 72.416 683.78 72.688 684.788 73.232C685.796 73.776 686.58 74.552 687.14 75.56C687.716 76.568 688.004 77.744 688.004 79.088ZM683.804 78.008C683.804 77.304 683.564 76.744 683.084 76.328C682.604 75.912 682.004 75.704 681.284 75.704C680.596 75.704 680.012 75.904 679.532 76.304C679.068 76.704 678.78 77.272 678.668 78.008H683.804ZM709.573 72.608L705.949 86H701.413L699.301 77.312L697.117 86H692.605L688.957 72.608H693.061L694.957 82.184L697.213 72.608H701.557L703.837 82.136L705.709 72.608H709.573ZM717.414 86.192C716.102 86.192 714.918 85.912 713.862 85.352C712.822 84.792 711.998 83.992 711.39 82.952C710.798 81.912 710.502 80.696 710.502 79.304C710.502 77.928 710.806 76.72 711.414 75.68C712.022 74.624 712.854 73.816 713.91 73.256C714.966 72.696 716.15 72.416 717.462 72.416C718.774 72.416 719.958 72.696 721.014 73.256C722.07 73.816 722.902 74.624 723.51 75.68C724.118 76.72 724.422 77.928 724.422 79.304C724.422 80.68 724.11 81.896 723.486 82.952C722.878 83.992 722.038 84.792 720.966 85.352C719.91 85.912 718.726 86.192 717.414 86.192ZM717.414 82.64C718.198 82.64 718.862 82.352 719.406 81.776C719.966 81.2 720.246 80.376 720.246 79.304C720.246 78.232 719.974 77.408 719.43 76.832C718.902 76.256 718.246 75.968 717.462 75.968C716.662 75.968 715.998 76.256 715.47 76.832C714.942 77.392 714.678 78.216 714.678 79.304C714.678 80.376 714.934 81.2 715.446 81.776C715.974 82.352 716.63 82.64 717.414 82.64ZM730.884 74.84C731.364 74.104 731.964 73.528 732.684 73.112C733.404 72.68 734.204 72.464 735.084 72.464V76.808H733.956C732.932 76.808 732.164 77.032 731.652 77.48C731.14 77.912 730.884 78.68 730.884 79.784V86H726.78V72.608H730.884V74.84ZM745.409 86L741.329 80.384V86H737.225V68.24H741.329V78.056L745.385 72.608H750.449L744.881 79.328L750.497 86H745.409Z" fill="#101C2B"/>
<rect x="300" y="194" width="200" height="50" rx="25" fill="#101C2B"/>
<path d="M384.491 218.168C384.491 218.663 384.374 219.129 384.141 219.568C383.908 220.007 383.534 220.366 383.021 220.646C382.508 220.917 381.85 221.052 381.047 221.052H379.283V225H377.687V215.27H381.047C381.794 215.27 382.424 215.401 382.937 215.662C383.46 215.914 383.847 216.259 384.099 216.698C384.36 217.137 384.491 217.627 384.491 218.168ZM381.047 219.75C381.654 219.75 382.106 219.615 382.405 219.344C382.704 219.064 382.853 218.672 382.853 218.168C382.853 217.104 382.251 216.572 381.047 216.572H379.283V219.75H381.047ZM391.165 225L388.925 221.108H387.707V225H386.111V215.27H389.471C390.218 215.27 390.848 215.401 391.361 215.662C391.884 215.923 392.271 216.273 392.523 216.712C392.785 217.151 392.915 217.641 392.915 218.182C392.915 218.817 392.729 219.395 392.355 219.918C391.991 220.431 391.427 220.781 390.661 220.968L393.069 225H391.165ZM387.707 219.834H389.471C390.069 219.834 390.517 219.685 390.815 219.386C391.123 219.087 391.277 218.686 391.277 218.182C391.277 217.678 391.128 217.286 390.829 217.006C390.531 216.717 390.078 216.572 389.471 216.572H387.707V219.834ZM399.493 225.098C398.588 225.098 397.752 224.888 396.987 224.468C396.231 224.039 395.629 223.446 395.181 222.69C394.742 221.925 394.523 221.066 394.523 220.114C394.523 219.162 394.742 218.308 395.181 217.552C395.629 216.796 396.231 216.208 396.987 215.788C397.752 215.359 398.588 215.144 399.493 215.144C400.408 215.144 401.243 215.359 401.999 215.788C402.764 216.208 403.366 216.796 403.805 217.552C404.244 218.308 404.463 219.162 404.463 220.114C404.463 221.066 404.244 221.925 403.805 222.69C403.366 223.446 402.764 224.039 401.999 224.468C401.243 224.888 400.408 225.098 399.493 225.098ZM399.493 223.712C400.137 223.712 400.711 223.567 401.215 223.278C401.719 222.979 402.111 222.559 402.391 222.018C402.68 221.467 402.825 220.833 402.825 220.114C402.825 219.395 402.68 218.765 402.391 218.224C402.111 217.683 401.719 217.267 401.215 216.978C400.711 216.689 400.137 216.544 399.493 216.544C398.849 216.544 398.275 216.689 397.771 216.978C397.267 217.267 396.87 217.683 396.581 218.224C396.301 218.765 396.161 219.395 396.161 220.114C396.161 220.833 396.301 221.467 396.581 222.018C396.87 222.559 397.267 222.979 397.771 223.278C398.275 223.567 398.849 223.712 399.493 223.712ZM410.569 225.098C409.664 225.098 408.829 224.888 408.063 224.468C407.307 224.039 406.705 223.446 406.257 222.69C405.819 221.925 405.599 221.066 405.599 220.114C405.599 219.162 405.819 218.308 406.257 217.552C406.705 216.796 407.307 216.208 408.063 215.788C408.829 215.359 409.664 215.144 410.569 215.144C411.484 215.144 412.319 215.359 413.075 215.788C413.841 216.208 414.443 216.796 414.881 217.552C415.32 218.308 415.539 219.162 415.539 220.114C415.539 221.066 415.32 221.925 414.881 222.69C414.443 223.446 413.841 224.039 413.075 224.468C412.319 224.888 411.484 225.098 410.569 225.098ZM410.569 223.712C411.213 223.712 411.787 223.567 412.291 223.278C412.795 222.979 413.187 222.559 413.467 222.018C413.757 221.467 413.901 220.833 413.901 220.114C413.901 219.395 413.757 218.765 413.467 218.224C413.187 217.683 412.795 217.267 412.291 216.978C411.787 216.689 411.213 216.544 410.569 216.544C409.925 216.544 409.351 216.689 408.847 216.978C408.343 217.267 407.947 217.683 407.657 218.224C407.377 218.765 407.237 219.395 407.237 220.114C407.237 220.833 407.377 221.467 407.657 222.018C407.947 222.559 408.343 222.979 408.847 223.278C409.351 223.567 409.925 223.712 410.569 223.712ZM422.934 215.27V216.572H418.804V219.442H422.024V220.744H418.804V225H417.208V215.27H422.934Z" fill="white"/>
<path d="M697.061 220.061C697.646 219.475 697.646 218.525 697.061 217.939L687.515 208.393C686.929 207.808 685.979 207.808 685.393 208.393C684.808 208.979 684.808 209.929 685.393 210.515L693.879 219L685.393 227.485C684.808 228.071 684.808 229.021 685.393 229.607C685.979 230.192 686.929 230.192 687.515 229.607L697.061 220.061ZM502.939 217.939C502.354 218.525 502.354 219.475 502.939 220.061L512.485 229.607C513.071 230.192 514.021 230.192 514.607 229.607C515.192 229.021 515.192 228.071 514.607 227.485L506.121 219L514.607 210.515C515.192 209.929 515.192 208.979 514.607 208.393C514.021 207.808 513.071 207.808 512.485 208.393L502.939 217.939ZM696 219V217.5H504V219V220.5H696V219Z" fill="#4EAC78"/>
<path d="M702.939 143.939C702.354 144.525 702.354 145.475 702.939 146.061L712.485 155.607C713.071 156.192 714.021 156.192 714.607 155.607C715.192 155.021 715.192 154.071 714.607 153.485L706.121 145L714.607 136.515C715.192 135.929 715.192 134.979 714.607 134.393C714.021 133.808 713.071 133.808 712.485 134.393L702.939 143.939ZM902.939 217.939C902.354 218.525 902.354 219.475 902.939 220.061L912.485 229.607C913.071 230.192 914.021 230.192 914.607 229.607C915.192 229.021 915.192 228.071 914.607 227.485L906.121 219L914.607 210.515C915.192 209.929 915.192 208.979 914.607 208.393C914.021 207.808 913.071 207.808 912.485 208.393L902.939 217.939ZM704 145V146.5H949V145V143.5H704V145ZM973 169H971.5V195H973H974.5V169H973ZM949 219V217.5H904V219V220.5H949V219ZM973 195H971.5C971.5 207.426 961.426 217.5 949 217.5V219V220.5C963.083 220.5 974.5 209.083 974.5 195H973ZM949 145V146.5C961.426 146.5 971.5 156.574 971.5 169H973H974.5C974.5 154.917 963.083 143.5 949 143.5V145Z" fill="#4EAC78"/>
<path d="M497.061 146.061C497.646 145.475 497.646 144.525 497.061 143.939L487.515 134.393C486.929 133.808 485.979 133.808 485.393 134.393C484.808 134.979 484.808 135.929 485.393 136.515L493.879 145L485.393 153.485C484.808 154.071 484.808 155.021 485.393 155.607C485.979 156.192 486.929 156.192 487.515 155.607L497.061 146.061ZM297.061 220.061C297.646 219.475 297.646 218.525 297.061 217.939L287.515 208.393C286.929 207.808 285.979 207.808 285.393 208.393C284.808 208.979 284.808 209.929 285.393 210.515L293.879 219L285.393 227.485C284.808 228.071 284.808 229.021 285.393 229.607C285.979 230.192 286.929 230.192 287.515 229.607L297.061 220.061ZM496 145V143.5H219V145V146.5H496V145ZM195 169H193.5V195H195H196.5V169H195ZM219 219V220.5H296V219V217.5H219V219ZM195 195H193.5C193.5 209.083 204.917 220.5 219 220.5V219V217.5C206.574 217.5 196.5 207.426 196.5 195H195ZM219 145V143.5C204.917 143.5 193.5 154.917 193.5 169H195H196.5C196.5 156.574 206.574 146.5 219 146.5V145Z" fill="#4EAC78"/>
</svg>
