<svg width="832" height="252" viewBox="0 0 832 252" fill="none" xmlns="http://www.w3.org/2000/svg">
<rect width="832" height="252" fill="#101C2B"/>
<mask id="mask0_7774_12301" style="mask-type:alpha" maskUnits="userSpaceOnUse" x="0" y="0" width="832" height="252">
<rect width="832" height="252" fill="#101C2B"/>
</mask>
<g mask="url(#mask0_7774_12301)">
<path d="M675.155 156.194C672.451 156.194 670.267 154.005 670.267 151.296C670.267 148.587 672.451 146.399 675.155 146.399C677.859 146.399 680.044 148.587 680.044 151.296C679.992 154.005 677.807 156.194 675.155 156.194ZM675.155 148.431C673.595 148.431 672.295 149.733 672.295 151.296C672.295 152.859 673.595 154.162 675.155 154.162C676.715 154.162 678.015 152.859 678.015 151.296C678.015 149.733 676.715 148.431 675.155 148.431Z" fill="#000D59"/>
<path d="M688.053 156.194C685.348 156.194 683.164 154.005 683.164 151.296C683.164 148.587 685.348 146.399 688.053 146.399C690.757 146.399 692.941 148.587 692.941 151.296C692.889 154.005 690.705 156.194 688.053 156.194ZM688.053 148.431C686.492 148.431 685.192 149.733 685.192 151.296C685.192 152.859 686.492 154.162 688.053 154.162C689.613 154.162 690.913 152.859 690.913 151.296C690.861 149.733 689.613 148.431 688.053 148.431Z" fill="#000D59"/>
<path d="M738.082 216.527V220.174L724.665 225.28V221.737L734.026 218.35L724.665 214.912V211.421L738.082 216.527Z" fill="#000D59"/>
<path d="M436.767 129.831C430.735 136.343 420.542 136.864 413.885 130.925C410.609 128.007 408.685 123.996 408.425 119.619C408.165 115.243 409.621 111.022 412.533 107.74C415.445 104.458 419.45 102.53 423.818 102.269C424.13 102.269 424.494 102.217 424.806 102.217C428.81 102.217 432.659 103.676 435.675 106.333L453.304 86.4827C444.724 78.876 433.751 75.0205 422.258 75.6978C410.817 76.3751 400.312 81.481 392.667 90.0256C385.075 98.6223 381.226 109.616 381.902 121.13C382.578 132.592 387.623 143.117 396.204 150.775C404.368 158.07 414.561 161.665 424.702 161.665C436.247 161.665 447.74 157.028 456.113 147.962L436.767 129.831Z" fill="#E5BE65"/>
<path d="M705.787 85.9096C697.206 78.3029 686.233 74.4474 674.74 75.1247C663.715 75.7499 653.574 80.5432 646.034 88.5668L665.327 106.802C668.552 103.416 672.868 101.644 677.236 101.644C681.137 101.644 684.985 102.999 688.105 105.812C694.866 111.856 695.438 122.224 689.457 128.997C686.545 132.28 682.541 134.207 678.172 134.468C673.804 134.728 669.592 133.269 666.315 130.352L648.686 150.202C656.591 157.288 666.627 161.091 677.184 161.091C678.016 161.091 678.9 161.091 679.733 161.039C691.174 160.362 701.678 155.308 709.323 146.712C725.081 128.893 723.468 101.644 705.787 85.9096Z" fill="#4EAC78"/>
<path d="M531.103 217.777C477.539 275.453 387.207 279.986 328.182 227.312C299.267 201.522 282.054 165.884 279.817 127.069C277.581 88.2017 290.478 50.8453 316.273 21.8771C344.927 -10.3735 384.815 -26.8374 424.858 -26.8374C459.233 -26.8374 493.712 -14.6979 521.379 9.94594L539.008 -9.90457C468.23 -73.0511 359.384 -66.6947 296.407 4.21482C265.932 38.4973 250.643 82.679 253.295 128.632C255.947 174.585 276.281 216.683 310.5 247.214C343.211 276.339 383.983 290.719 424.65 290.666C470.83 290.666 516.802 272.171 550.501 235.908L553.673 232.47L534.588 213.87L531.103 217.777Z" fill="#4EAC78"/>
<path d="M446.908 151.713C443.788 151.713 440.616 150.619 438.068 148.326C432.607 143.429 432.087 135.041 436.976 129.57L548.941 3.58964C553.83 -1.88097 562.202 -2.40197 567.663 2.49553C573.123 7.39303 573.643 15.7813 568.755 21.2519L456.841 147.232C454.189 150.202 450.549 151.713 446.908 151.713Z" fill="#E5BE65"/>
<path d="M478.995 180.316C475.875 180.316 472.702 179.222 470.154 176.93C464.694 172.032 464.173 163.644 469.062 158.173L580.976 32.1931C585.864 26.7225 594.237 26.2015 599.697 31.099C605.158 35.9965 605.678 44.3847 600.789 49.8554L488.876 175.836C486.275 178.806 482.635 180.316 478.995 180.316Z" fill="#C8463A"/>
<path d="M511.082 208.92C507.962 208.92 504.79 207.826 502.242 205.534C496.781 200.636 496.261 192.248 501.149 186.777L613.063 60.7969C617.952 55.3262 626.324 54.8052 631.785 59.7027C637.245 64.6002 637.765 72.9885 632.877 78.4591L520.963 204.439C518.363 207.409 514.723 208.92 511.082 208.92Z" fill="#0041AF"/>
<path d="M543.169 237.523C540.048 237.523 536.876 236.429 534.328 234.137C528.867 229.239 528.347 220.851 533.236 215.38L645.15 89.4C650.038 83.9294 658.411 83.4084 663.871 88.3059C669.332 93.2034 669.852 101.592 664.963 107.062L553.101 233.095C550.501 236.012 546.861 237.523 543.169 237.523Z" fill="#4EAC78"/>
<path d="M499.641 188.497C481.647 207.878 457.257 219.392 430.683 220.955C403.381 222.571 377.118 213.401 356.733 195.27C314.609 157.705 310.812 92.7868 348.308 50.585C368.486 27.8689 396.568 16.3025 424.806 16.3025C448.989 16.3025 473.327 24.847 492.776 42.1967L510.406 22.3462C457.309 -24.9616 375.714 -20.2204 328.494 32.9227C281.274 86.1179 286.006 167.864 339.051 215.172C362.817 236.377 392.928 247.788 424.546 247.788C427.095 247.788 429.643 247.735 432.243 247.579C465.682 245.651 496.417 231.167 519.091 206.732L521.379 204.283L501.877 186.204L499.641 188.497Z" fill="#0041AF"/>
<path d="M468.178 159.163C457.725 170.417 443.579 177.138 428.186 178.024C412.377 178.91 397.139 173.648 385.282 163.071C373.425 152.495 366.405 137.958 365.469 122.12C364.532 106.281 369.837 91.0152 380.394 79.1362C390.951 67.2572 405.46 60.2235 421.269 59.2857C422.466 59.2336 423.61 59.1815 424.806 59.1815C439.367 59.1815 453.252 64.4437 464.173 74.2387L473.17 64.1311L481.855 54.3361C464.693 39.0705 442.695 31.3595 419.761 32.7142C396.879 34.0688 375.817 44.2285 360.58 61.4218C345.343 78.6152 337.646 100.706 338.998 123.631C340.35 146.555 350.491 167.656 367.653 182.922C383.514 197.041 403.588 204.7 424.65 204.7C426.366 204.7 428.03 204.648 429.746 204.543C452.004 203.241 472.494 193.602 487.627 177.243L489.707 174.95L469.79 157.34L468.178 159.163Z" fill="#C8463A"/>
<path d="M734.388 53.7633C699.649 22.7632 646.501 25.2641 614.778 58.9734L611.658 62.2558L634.072 77.2088C645.669 64.8609 661.426 58.5566 677.287 58.5566C691.329 58.5566 705.422 63.5062 716.707 73.5617C728.564 84.1383 735.584 98.6745 736.52 114.513C737.457 130.352 732.152 145.618 721.595 157.497C699.857 181.984 662.258 184.172 637.816 162.394L620.186 182.245C636.516 196.833 656.902 203.971 677.235 203.971C700.897 203.971 724.507 194.228 741.461 175.159C772.924 139.782 769.751 85.2845 734.388 53.7633Z" fill="#0041AF"/>
<path d="M805.843 110.553C803.867 76.1146 788.577 44.4893 762.939 21.6169C710.778 -24.8573 631.107 -21.106 583.523 29.4841L579.623 33.7043L600.321 50.3767L602.817 47.7195C622.839 26.4623 649.985 15.5732 677.287 15.5732C701.47 15.5732 725.808 24.1177 745.257 41.4674C765.643 59.6507 777.708 84.7113 779.32 112.064C780.933 139.417 771.78 165.728 753.682 186.152C735.533 206.576 710.518 218.663 683.216 220.278C655.914 221.893 629.651 212.724 609.266 194.592L591.636 214.443C615.402 235.648 645.513 247.058 677.131 247.058C679.68 247.058 682.228 247.006 684.828 246.85C719.203 244.87 750.77 229.552 773.6 203.866C796.378 178.129 807.819 144.992 805.843 110.553Z" fill="#C8463A"/>
<path d="M848.695 108.052C846.043 62.0994 825.709 20.0017 791.49 -10.5295C721.96 -72.5298 615.715 -67.476 552.269 -0.0572128L549.097 3.53777L568.338 21.721L571.615 18.1782C600.061 -12.0405 638.597 -27.4103 677.392 -27.4103C711.767 -27.4103 746.246 -15.2707 773.912 9.37308C833.77 62.7246 839.074 154.891 785.821 214.86C732.517 274.724 640.521 280.09 580.663 226.739L563.034 246.589C595.745 275.714 636.516 290.042 677.184 290.042C724.56 290.042 771.728 270.556 805.635 232.418C836.058 198.187 851.399 154.006 848.695 108.052Z" fill="#E5BE65"/>
</g>
</svg>
