<svg width="1200" height="295" viewBox="0 0 1200 295" fill="none" xmlns="http://www.w3.org/2000/svg">
<rect width="1200" height="295" rx="4" fill="#101C2B"/>
<mask id="mask0_2162_8991" style="mask-type:alpha" maskUnits="userSpaceOnUse" x="0" y="0" width="1200" height="295">
<rect width="1200" height="295" rx="4" fill="#101C2B"/>
</mask>
<g mask="url(#mask0_2162_8991)">
<path d="M534.398 22.5916C607.52 -59.7397 733.898 -67.1198 816.077 6.19808L795.607 29.2459C763.485 0.632643 723.452 -13.4631 683.54 -13.4631C637.047 -13.463 590.734 5.6532 557.464 43.0985C527.515 76.7326 512.54 120.106 515.137 165.234C517.733 210.302 537.72 251.68 571.292 281.624C639.825 342.782 744.707 337.519 806.899 270.554L809.082 268.104C809.177 267.992 809.274 267.881 809.372 267.77L939.312 121.498C939.798 120.954 940.313 120.453 940.853 119.994C949.553 111.002 961.117 105.636 973.669 104.924C987.013 104.137 999.754 108.613 1009.72 117.445C1030.25 135.714 1032.12 167.352 1013.82 188.041C1004.95 198.022 992.75 203.89 979.466 204.677C978.5 204.737 977.473 204.737 976.507 204.737C964.25 204.737 952.596 200.321 943.418 192.094L963.888 169.046C967.692 172.433 972.582 174.127 977.654 173.825C982.726 173.523 987.375 171.284 990.757 167.473C997.701 159.609 997.037 147.571 989.187 140.554C985.565 137.287 981.096 135.715 976.567 135.715C971.495 135.715 966.484 137.771 962.74 141.703L962.65 141.618C962.542 141.748 962.431 141.877 962.317 142.005L833.092 287.6L833.104 287.612L832.519 288.245L832.437 288.339C832.309 288.483 832.176 288.623 832.043 288.762L829.421 291.605C790.294 333.708 736.917 355.183 683.299 355.183C636.081 355.244 588.741 338.548 550.762 304.732C511.031 269.283 487.422 220.405 484.343 167.05C481.263 113.695 499.015 62.3962 534.398 22.5916ZM831.477 17.6317C905.142 -60.6466 1028.5 -66.5145 1109.23 5.47249C1148.96 40.9215 1172.57 89.8002 1175.65 143.155C1178.79 196.51 1160.98 247.809 1125.65 287.553C1086.28 331.833 1031.52 354.458 976.512 354.458C929.294 354.458 881.955 337.822 843.976 304.007L864.444 280.959C933.943 342.904 1040.76 336.673 1102.65 267.166C1164.48 197.538 1158.32 90.526 1088.82 28.5809C1056.7 -0.0323607 1016.67 -14.128 976.754 -14.1281C931.71 -14.1281 886.967 3.71766 853.938 38.8035L850.134 42.9178L720.678 188.645C720.333 189.032 719.972 189.395 719.6 189.739C709.898 200.102 696.66 205.402 683.361 205.402C671.587 205.402 659.752 201.229 650.272 192.76C640.31 183.867 634.453 171.647 633.668 158.339C632.883 144.97 637.35 132.206 646.166 122.224C655.042 112.304 667.24 106.375 680.523 105.589C693.868 104.802 706.608 109.279 716.571 118.111L696.102 141.159C692.6 138.074 688.132 136.38 683.482 136.38C683.12 136.38 682.697 136.44 682.335 136.44C677.263 136.743 672.614 138.981 669.232 142.792C665.851 146.603 664.16 151.503 664.462 156.585C664.764 161.666 666.998 166.324 670.802 169.712C678.469 176.553 690.176 176.011 697.2 168.62C697.334 168.458 697.471 168.297 697.612 168.139L827.613 21.8651C827.981 21.454 828.364 21.0667 828.764 20.7039L831.477 17.6317ZM571.652 55.9237C626.478 -5.77943 721.216 -11.2844 782.865 43.6434L762.396 66.6912C739.814 46.547 711.556 36.6259 683.478 36.6258C650.691 36.6258 618.085 50.0554 594.657 76.4305C551.122 125.43 555.531 200.805 604.439 244.421C628.109 265.472 658.602 276.119 690.302 274.244C721.156 272.429 749.475 259.06 770.367 236.556L771.177 235.725C771.469 235.326 771.784 234.937 772.121 234.56L900.508 90.035L900.427 89.9813L904.05 86.1707C940.882 47.0316 1002.59 44.1274 1042.93 80.1209C1083.99 116.719 1087.67 179.995 1051.14 221.07C1031.45 243.211 1004.04 254.523 976.567 254.523C952.958 254.523 929.289 246.236 910.329 229.298L930.799 206.25C959.178 231.536 1002.83 228.995 1028.07 200.563C1040.33 186.771 1046.49 169.046 1045.4 150.656C1044.32 132.266 1036.16 115.388 1022.4 103.108C1009.29 91.4333 992.931 85.6864 976.628 85.6864C958.212 85.6864 939.916 93.0059 926.451 107.343L926.29 107.235C925.921 107.774 925.513 108.295 925.066 108.795L795.431 254.722L795.606 254.886L792.949 257.728C766.623 286.1 730.937 302.917 692.112 305.155C689.093 305.337 686.135 305.397 683.177 305.397C646.465 305.397 611.504 292.15 583.91 267.529C522.321 212.601 516.826 117.687 571.652 55.9237ZM867.765 51.9315C923.013 -6.80749 1015.52 -11.1633 1076.08 42.7967C1105.85 69.3532 1123.6 106.072 1125.89 146.058C1128.19 186.044 1114.9 224.519 1088.46 254.402C1061.95 284.225 1025.3 302.011 985.388 304.309C982.369 304.491 979.41 304.551 976.451 304.551C939.739 304.551 904.779 291.303 877.185 266.682L897.653 243.635C921.323 264.686 951.815 275.333 983.516 273.458C1015.22 271.583 1044.26 257.548 1065.33 233.835C1086.34 210.122 1096.97 179.572 1095.1 147.813C1093.23 116.054 1079.22 86.9567 1055.55 65.8446C1032.97 45.7003 1004.71 35.7791 976.632 35.7791C944.932 35.7792 913.413 48.4222 890.166 73.1034L887.343 76.1082L758.804 220.803L758.832 220.828L756.417 223.49C738.846 242.485 715.056 253.676 689.213 255.188C687.22 255.309 685.288 255.37 683.296 255.37C658.842 255.37 635.534 246.477 617.118 230.084C597.192 212.359 585.418 187.859 583.848 161.242C582.278 134.625 591.215 108.976 608.906 89.0135C626.598 69.0507 651.052 57.2543 677.62 55.6815C704.248 54.1088 729.789 63.0616 749.715 80.786L739.631 92.159L729.185 103.894C716.505 92.5216 700.383 86.4119 683.477 86.4119C682.088 86.4119 680.76 86.4726 679.371 86.533C661.015 87.6219 644.168 95.7884 631.911 109.581C619.654 123.373 613.495 141.098 614.582 159.488C615.669 177.878 623.82 194.756 637.587 207.036C651.354 219.316 669.046 225.426 687.401 224.397C705.274 223.369 721.698 215.565 733.835 202.499L735.706 200.382L735.715 200.389L863.241 56.8348L863.236 56.8309L863.46 56.5887L864.804 55.076C865.118 54.7246 865.445 54.3912 865.782 54.075L867.765 51.9315Z" fill="url(#paint0_linear_2162_8991)"/>
</g>
<ellipse cx="115.354" cy="118.172" rx="22.8538" ry="23.67" fill="#4EAC78"/>
<circle cx="115.354" cy="61.8538" r="22.8538" fill="#006D43"/>
<ellipse cx="59.8538" cy="118.172" rx="22.8538" ry="23.67" fill="#006D43"/>
<circle cx="59.8538" cy="61.8538" r="20.8538" stroke="#788596" stroke-width="4" stroke-dasharray="16 8"/>
<path d="M234.01 95.332C235.983 95.8883 237.851 96.7111 239.573 97.7617L238.533 99.4688C241.68 101.388 244.307 104.145 246.122 107.452L247.874 106.489C248.838 108.246 249.591 110.142 250.099 112.143L248.161 112.634C248.609 114.399 248.849 116.255 248.849 118.172C248.849 120.089 248.609 121.945 248.161 123.71L250.099 124.201C249.591 126.201 248.838 128.097 247.874 129.854L246.122 128.893C244.307 132.199 241.68 134.956 238.533 136.875L239.573 138.581C237.851 139.632 235.983 140.454 234.01 141.011L233.468 139.088C231.725 139.579 229.891 139.842 227.994 139.842C226.098 139.842 224.264 139.579 222.521 139.088L221.979 141.011C220.005 140.454 218.138 139.632 216.415 138.581L217.456 136.875C214.31 134.956 211.683 132.199 209.867 128.893L208.114 129.854C207.15 128.097 206.397 126.201 205.89 124.201L207.827 123.71C207.379 121.945 207.141 120.089 207.141 118.172C207.141 116.255 207.379 114.399 207.827 112.634L205.89 112.143C206.397 110.142 207.15 108.246 208.114 106.489L209.867 107.452C211.683 104.145 214.309 101.388 217.456 99.4688L216.415 97.7617C218.138 96.7111 220.005 95.8883 221.979 95.332L222.521 97.2559C224.264 96.7648 226.098 96.502 227.994 96.502C229.891 96.502 231.725 96.7648 233.468 97.2559L234.01 95.332Z" stroke="#788596" stroke-width="4" stroke-dasharray="16 8"/>
<circle cx="227.994" cy="61.8538" r="22.8538" fill="#4EAC78"/>
<ellipse cx="172.494" cy="118.172" rx="22.8538" ry="23.67" fill="#006D43"/>
<circle cx="172.494" cy="61.8538" r="22.8538" fill="#4EAC78"/>
<ellipse cx="115.354" cy="230.809" rx="22.8538" ry="23.67" fill="#006D43"/>
<circle cx="115.354" cy="174.491" r="20.8538" stroke="#788596" stroke-width="4" stroke-dasharray="16 8"/>
<path d="M65.8691 207.969C67.8428 208.525 69.7099 209.348 71.4326 210.398L70.3926 212.105C73.5392 214.025 76.166 216.782 77.9814 220.089L79.7334 219.126C80.6977 220.882 81.4508 222.779 81.958 224.779L80.0205 225.271C80.4682 227.036 80.708 228.892 80.708 230.809C80.708 232.725 80.4682 234.581 80.0205 236.347L81.958 236.838C81.4509 238.838 80.6975 240.734 79.7334 242.49L77.9814 241.529C76.166 244.836 73.5391 247.593 70.3926 249.512L71.4326 251.218C69.7099 252.268 67.8428 253.091 65.8691 253.647L65.3271 251.725C63.5848 252.216 61.75 252.479 59.8535 252.479C57.9572 252.478 56.123 252.216 54.3809 251.725L53.8379 253.647C51.8642 253.091 49.9971 252.268 48.2744 251.218L49.3154 249.512C46.1689 247.593 43.5421 244.836 41.7266 241.529L39.9736 242.49C39.0095 240.734 38.2562 238.838 37.749 236.838L39.6865 236.347C39.2388 234.581 39 232.725 39 230.809C39 228.892 39.2388 227.036 39.6865 225.271L37.749 224.779C38.2562 222.779 39.0093 220.882 39.9736 219.126L41.7266 220.089C43.5421 216.782 46.1688 214.025 49.3154 212.105L48.2744 210.398C49.9971 209.348 51.8643 208.525 53.8379 207.969L54.3809 209.893C56.123 209.402 57.9572 209.139 59.8535 209.139C61.75 209.139 63.5848 209.401 65.3271 209.893L65.8691 207.969Z" stroke="#788596" stroke-width="4" stroke-dasharray="16 8"/>
<circle cx="59.8538" cy="174.491" r="22.8538" fill="#4EAC78"/>
<ellipse cx="227.994" cy="230.809" rx="22.8538" ry="23.67" fill="#4EAC78"/>
<circle cx="227.994" cy="174.491" r="22.8538" fill="#006D43"/>
<path d="M178.51 207.969C180.483 208.525 182.351 209.348 184.073 210.398L183.033 212.105C186.18 214.025 188.807 216.782 190.622 220.089L192.374 219.126C193.338 220.882 194.091 222.779 194.599 224.779L192.661 225.271C193.109 227.036 193.349 228.892 193.349 230.809C193.349 232.725 193.109 234.581 192.661 236.347L194.599 236.838C194.091 238.838 193.338 240.734 192.374 242.49L190.622 241.529C188.807 244.836 186.18 247.593 183.033 249.512L184.073 251.218C182.351 252.268 180.483 253.091 178.51 253.647L177.968 251.725C176.225 252.216 174.391 252.479 172.494 252.479C170.598 252.478 168.764 252.216 167.021 251.725L166.479 253.647C164.505 253.091 162.638 252.268 160.915 251.218L161.956 249.512C158.81 247.593 156.183 244.836 154.367 241.529L152.614 242.49C151.65 240.734 150.897 238.838 150.39 236.838L152.327 236.347C151.879 234.581 151.641 232.725 151.641 230.809C151.641 228.892 151.879 227.036 152.327 225.271L150.39 224.779C150.897 222.779 151.65 220.882 152.614 219.126L154.367 220.089C156.183 216.782 158.809 214.025 161.956 212.105L160.915 210.398C162.638 209.348 164.505 208.525 166.479 207.969L167.021 209.893C168.764 209.402 170.598 209.139 172.494 209.139C174.391 209.139 176.225 209.401 177.968 209.893L178.51 207.969Z" stroke="#788596" stroke-width="4" stroke-dasharray="16 8"/>
<circle cx="172.494" cy="174.491" r="22.8538" fill="#4EAC78"/>
<defs>
<linearGradient id="paint0_linear_2162_8991" x1="559.857" y1="-49.6443" x2="1239.09" y2="355.184" gradientUnits="userSpaceOnUse">
<stop stop-color="#101C2B"/>
<stop offset="1" stop-color="#4EAC78"/>
</linearGradient>
</defs>
</svg>
