<svg width="116" height="40" viewBox="0 0 116 40" fill="none" xmlns="http://www.w3.org/2000/svg">
<g clip-path="url(#clip0_7436_5720)">
<path d="M36.6268 0H3.31865C1.49796 0 0.0304565 1.48397 0.0304565 3.30382V36.7084C0.0304565 38.5282 1.50405 40.0061 3.31865 40.0061H36.6268C38.4414 40.0061 39.915 38.5282 39.915 36.7084V3.30382C39.915 1.48397 38.4414 0.00610687 36.6268 0.00610687V0ZM33.229 31.4565H24.4179C23.8516 31.4565 23.3157 31.1878 22.9747 30.7298L15.4301 20.7328C15.3084 20.574 15.1439 20.3115 15.1439 20.055C15.1439 19.7985 15.3388 19.4931 15.4606 19.3405L22.9747 9.27634C23.3157 8.82443 23.8516 8.55573 24.4179 8.55573H33.229C33.978 8.55573 34.3981 9.4229 33.9475 10.0214L26.4334 20.055L33.9475 29.9786C34.4042 30.5832 33.978 31.4565 33.229 31.4565Z" fill="#0D1A28"/>
<path d="M11.1007 8.55664C8.17175 8.55664 5.80304 10.9383 5.80304 13.8696C5.80304 16.8009 8.17784 19.1826 11.1007 19.1826C14.0235 19.1826 16.3983 16.8009 16.3983 13.8696C16.3983 10.9383 14.0235 8.55664 11.1007 8.55664Z" fill="#59B281"/>
<path d="M11.1007 31.456C8.17175 31.456 5.80304 29.0805 5.80304 26.1431C5.80304 23.2057 8.17784 20.8301 11.1007 20.8301C14.0235 20.8301 16.3983 23.2057 16.3983 26.1431C16.3983 29.0805 14.0235 31.456 11.1007 31.456Z" fill="#C8463A"/>
<path d="M110.763 11.2793C110.763 9.88079 111.945 8.67773 113.345 8.67773C114.746 8.67773 115.963 9.88079 115.963 11.2793C115.963 12.6777 114.782 13.8441 113.345 13.8441C111.908 13.8441 110.763 12.6777 110.763 11.2793ZM111.488 15.2304H115.233C115.367 15.2304 115.476 15.3403 115.476 15.4686V31.2365C115.476 31.3709 115.367 31.4747 115.233 31.4747H111.488C111.354 31.4747 111.244 31.3648 111.244 31.2365V15.4686C111.244 15.3281 111.354 15.2304 111.488 15.2304Z" fill="#0D1A28"/>
<path d="M101.788 26.7122C101.788 30.297 98.6761 32.0252 95.1322 32.0252C91.5882 32.0252 89.5118 30.7061 88.2818 28.2878C88.2209 28.1718 88.2635 28.0252 88.3792 27.9641L91.643 26.126C91.7709 26.0527 91.9292 26.1077 91.984 26.242C92.4955 27.4451 93.5794 28.1473 95.1322 28.1473C96.6849 28.1473 97.4156 27.6832 97.4156 26.7183C97.4156 24.2939 88.8298 25.6252 88.8724 19.7809C88.8968 16.3183 91.7527 14.5962 95.1626 14.5046C97.6105 14.4374 100.01 15.6527 101.325 17.8023C101.398 17.9183 101.355 18.0771 101.234 18.1443L98.0307 19.897C97.915 19.958 97.7688 19.9214 97.7018 19.8054C97.1842 18.871 96.3013 18.3275 95.1626 18.3275C94.0239 18.3275 93.2445 18.7916 93.2445 19.6893C93.2445 22.1321 101.788 20.6054 101.788 26.7122Z" fill="#0D1A28"/>
<path d="M61.6231 20.085C61.5805 20.0361 61.5805 19.9628 61.6231 19.9079L70.3003 9.08648C70.4708 8.87274 70.3246 8.54297 70.0506 8.54297H65.1123C64.9174 8.54297 64.7286 8.63457 64.6068 8.79335L56.021 19.7552C55.9297 19.8712 55.8749 20.0239 55.8749 20.1704V20.2376C55.8749 20.3903 55.9236 20.5369 56.021 20.6529L64.6068 31.2056C64.7286 31.3643 64.9174 31.4559 65.1123 31.4559H70.0506C70.3307 31.4559 70.4769 31.1323 70.3003 30.9124L61.6231 20.085Z" fill="#0D1A28"/>
<path d="M50.7599 8.54883H55.1868C55.3451 8.54883 55.473 8.65264 55.473 8.77478V31.2236C55.473 31.3519 55.3451 31.4496 55.1868 31.4496H50.7599C50.6016 31.4496 50.4737 31.3458 50.4737 31.2236V8.78089C50.4737 8.65265 50.6016 8.55494 50.7599 8.55494V8.54883Z" fill="#0D1A28"/>
<path d="M78.0031 14.6562C73.2048 14.6562 69.3199 18.5158 69.3199 23.273C69.3199 28.0303 73.2048 31.8898 78.0031 31.8898C82.8015 31.8898 86.6864 28.0364 86.6864 23.273C86.6864 18.5097 82.8015 14.6562 78.0031 14.6562ZM78.0031 27.5234C75.6344 27.5234 73.7224 25.6242 73.7224 23.273C73.7224 20.9219 75.6405 19.0227 78.0031 19.0227C80.3658 19.0227 82.2839 20.9219 82.2839 23.273C82.2839 25.6242 80.3658 27.5234 78.0031 27.5234Z" fill="#0D1A28"/>
<path d="M104.296 8.7207H108.041C108.175 8.7207 108.285 8.83063 108.285 8.95887V31.2367C108.285 31.3711 108.175 31.4749 108.041 31.4749H104.296C104.163 31.4749 104.053 31.365 104.053 31.2367V8.96498C104.053 8.83063 104.163 8.72681 104.296 8.72681V8.7207Z" fill="#0D1A28"/>
</g>
<defs>
<clipPath id="clip0_7436_5720">
<rect width="116" height="40" fill="white"/>
</clipPath>
</defs>
</svg>
