<?xml version="1.0" encoding="UTF-8"?>
<svg id="Layer_1" xmlns="http://www.w3.org/2000/svg" version="1.1" viewBox="0 0 1905 655">
  <!-- Generator: Adobe Illustrator 29.2.1, SVG Export Plug-In . SVG Version: 2.1.0 Build 116)  -->
  <defs>
    <style>
      .st0 {
        fill: #0d1a28;
      }

      .st1 {
        fill: #59b281;
      }

      .st2 {
        fill: #c8463a;
      }
    </style>
  </defs>
  <path class="st0" d="M601.5,0H54.5C24.6,0,.5,24.3.5,54.1v547c0,29.8,24.2,54,54,54h547c29.8,0,54-24.2,54-54V54.1c0-29.8-24.2-54-54-54h0ZM545.7,515.1h-144.7c-9.3,0-18.1-4.4-23.7-11.9l-123.9-163.7c-2-2.6-4.7-6.9-4.7-11.1s3.2-9.2,5.2-11.7l123.4-164.8c5.6-7.4,14.4-11.8,23.7-11.8h144.7c12.3,0,19.2,14.2,11.8,24l-123.4,164.3,123.4,162.5c7.5,9.9.5,24.2-11.8,24.2Z"/>
  <path class="st1" d="M182.3,140.1c-48.1,0-87,39-87,87s39,87,87,87,87-39,87-87-39-87-87-87h0Z"/>
  <path class="st2" d="M182.3,515.1c-48.1,0-87-38.9-87-87s39-87,87-87,87,38.9,87,87-39,87-87,87h0Z"/>
  <path class="st0" d="M1819,184.7c0-22.9,19.4-42.6,42.4-42.6s43,19.7,43,42.6-19.4,42-43,42-42.4-19.1-42.4-42h0ZM1830.9,249.4h61.5c2.2,0,4,1.8,4,3.9v258.2c0,2.2-1.8,3.9-4,3.9h-61.5c-2.2,0-4-1.8-4-3.9V253.3c0-2.3,1.8-3.9,4-3.9h0Z"/>
  <path class="st0" d="M1671.6,437.4c0,58.7-51.1,87-109.3,87s-92.3-21.6-112.5-61.2c-1-1.9-.3-4.3,1.6-5.3l53.6-30.1c2.1-1.2,4.7-.3,5.6,1.9,8.4,19.7,26.2,31.2,51.7,31.2s37.5-7.6,37.5-23.4c0-39.7-141-17.9-140.3-113.6.4-56.7,47.3-84.9,103.3-86.4,40.2-1.1,79.6,18.8,101.2,54,1.2,1.9.5,4.5-1.5,5.6l-52.6,28.7c-1.9,1-4.3.4-5.4-1.5-8.5-15.3-23-24.2-41.7-24.2s-31.5,7.6-31.5,22.3c0,40,140.3,15,140.3,115h0Z"/>
  <path class="st0" d="M1012,328.9c-.7-.8-.7-2,0-2.9l142.5-177.2c2.8-3.5.4-8.9-4.1-8.9h-81.1c-3.2,0-6.3,1.5-8.3,4.1l-141,179.5c-1.5,1.9-2.4,4.4-2.4,6.8v1.1c0,2.5.8,4.9,2.4,6.8l141,172.8c2,2.6,5.1,4.1,8.3,4.1h81.1c4.6,0,7-5.3,4.1-8.9l-142.5-177.3h0Z"/>
  <path class="st0" d="M833.6,140h72.7c2.6,0,4.7,1.7,4.7,3.7v367.6c0,2.1-2.1,3.7-4.7,3.7h-72.7c-2.6,0-4.7-1.7-4.7-3.7V143.8c0-2.1,2.1-3.7,4.7-3.7h0Z"/>
  <path class="st0" d="M1281,240c-78.8,0-142.6,63.2-142.6,141.1s63.8,141.1,142.6,141.1,142.6-63.1,142.6-141.1-63.8-141.1-142.6-141.1ZM1281,450.7c-38.9,0-70.3-31.1-70.3-69.6s31.5-69.6,70.3-69.6,70.3,31.1,70.3,69.6-31.5,69.6-70.3,69.6Z"/>
  <path class="st0" d="M1712.8,142.8h61.5c2.2,0,4,1.8,4,3.9v364.8c0,2.2-1.8,3.9-4,3.9h-61.5c-2.2,0-4-1.8-4-3.9V146.8c0-2.2,1.8-3.9,4-3.9h0Z"/>
</svg>