<?xml version="1.0" encoding="utf-8"?>
<!-- Generator: Adobe Illustrator 26.3.1, SVG Export Plug-In . SVG Version: 6.00 Build 0)  -->
<svg version="1.1" id="Layer_1" xmlns="http://www.w3.org/2000/svg" xmlns:xlink="http://www.w3.org/1999/xlink" x="0px" y="0px"
	 viewBox="0 0 1920 622.9" style="enable-background:new 0 0 1920 622.9;" xml:space="preserve">
<style type="text/css">
	.st0{fill:#2459D1;}
	.st1{fill:#29B57D;}
	.st2{fill:#F7C22E;}
	.st3{fill:#ED475C;}
	.st4{fill:#000E41;}
</style>
<g>
	<path class="st0" d="M524.4,144.8c0,26.7-21.6,48.3-48.2,48.3c-26.6,0-48.2-21.6-48.2-48.3c0-26.6,21.6-48.2,48.2-48.2
		C502.8,96.6,524.4,118.2,524.4,144.8 M620.8,268.8V20.7c0-11.4-9.3-20.7-20.7-20.7h-248c-11.4,0-20.7,9.3-20.7,20.7v248.1
		c0,11.4,9.3,20.7,20.7,20.7h248C611.6,289.5,620.8,280.2,620.8,268.8"/>
	<path class="st1" d="M144.7,0.1C64.8,0.1,0,64.9,0,144.8c0,79.9,64.8,144.7,144.7,144.7c79.9,0,144.7-64.8,144.7-144.7
		C289.3,64.9,224.6,0.1,144.7,0.1"/>
	<path class="st2" d="M268.7,333.4h-124h-124C9.3,333.4,0,342.7,0,354.1v124v0c0,79.9,64.8,144.7,144.7,144.7
		s144.7-64.8,144.7-144.7v0v-124C289.3,342.7,280.1,333.4,268.7,333.4"/>
	<path class="st3" d="M620.8,478.7c0-0.2,0-0.3,0-0.5c0-79.9-64.8-144.7-144.7-144.7s-144.7,64.8-144.7,144.7
		c0,79.9,64.8,144.7,144.7,144.7c0.2,0,0.3,0,0.5,0v0h123.5c11.4,0,20.7-9.3,20.7-20.7L620.8,478.7L620.8,478.7z"/>
</g>
<path class="st4" d="M1675.7,422.5c0,58.7-51.1,87-109.3,87c-52.8,0-92.3-21.6-112.5-61.2c-1-1.9-0.3-4.3,1.6-5.3l53.6-30.1
	c2.1-1.2,4.7-0.3,5.6,1.9c8.4,19.7,26.2,31.2,51.7,31.2c22.3,0,37.5-7.6,37.5-23.4c0-39.7-140.3-17.9-140.3-113.6
	c0-55.5,47.3-86.4,103.3-86.4c42.6,0,79.6,18.8,101.2,54c1.2,1.9,0.5,4.5-1.5,5.6l-52.6,28.7c-1.9,1-4.3,0.4-5.4-1.5
	c-8.5-15.3-23-24.2-41.7-24.2c-17.4,0-31.5,7.6-31.5,22.3C1535.5,347.5,1675.7,322.5,1675.7,422.5z"/>
<path class="st4" d="M1723.7,105h62.2c2.2,0,4,1.8,4,4v388.9c0,2.2-1.8,4-4,4h-62.2c-2.2,0-4-1.8-4-4V109
	C1719.8,106.8,1721.5,105,1723.7,105z"/>
<path class="st4" d="M1831,154.5c0-23.4,19.6-43.5,42.9-43.5c23.9,0,43.5,20.1,43.5,43.5c0,23.4-19.6,42.9-43.5,42.9
	C1850.5,197.4,1831,177.9,1831,154.5z M1843.1,230.1h62.2c2.2,0,4,1.8,4,4v263.8c0,2.2-1.8,4-4,4h-62.2c-2.2,0-4-1.8-4-4V234.1
	C1839.1,231.8,1840.9,230.1,1843.1,230.1z"/>
<path class="st4" d="M1039.2,364.6l107.3-131.1c2.1-2.6,0.3-6.5-3.1-6.5h-69.3c-2.4,0-4.7,1.1-6.2,3l-93.8,117
	c-1.1,1.4-1.8,3.2-1.8,5v25.3c0,1.8,0.6,3.6,1.8,5l93.8,117c1.5,1.9,3.8,3,6.2,3h69.3c3.4,0,5.2-3.9,3.1-6.5L1039.2,364.6z"/>
<path class="st4" d="M1284.4,221.8c-79.6,0-144.1,64.6-144.1,144.2c0,79.6,64.5,144.2,144.1,144.2s144.1-64.5,144.1-144.2
	C1428.6,286.3,1364,221.8,1284.4,221.8 M1284.4,437.1c-39.3,0-71.1-31.8-71.1-71.1c0-39.3,31.8-71.1,71.1-71.1
	c39.3,0,71.1,31.8,71.1,71.1C1355.5,405.3,1323.7,437.1,1284.4,437.1"/>
<path class="st4" d="M892.5,120.9h62.2c2.2,0,4,1.7,4,3.8v373.4c0,2.1-1.8,3.8-4,3.8h-62.2c-2.2,0-4-1.7-4-3.8V124.7
	C888.5,122.6,890.3,120.9,892.5,120.9z"/>
</svg>
