<svg width="1200" height="295" viewBox="0 0 1200 295" fill="none" xmlns="http://www.w3.org/2000/svg">
<rect width="1200" height="295" rx="4" fill="#101C2B"/>
<mask id="mask0_2162_8992" style="mask-type:alpha" maskUnits="userSpaceOnUse" x="0" y="0" width="1200" height="295">
<rect width="1200" height="295" rx="4" fill="#101C2B"/>
</mask>
<g mask="url(#mask0_2162_8992)">
<path d="M1031.24 187.639C1037.58 181.296 1047.86 181.296 1054.21 187.639L1156.32 289.749C1169.23 302.662 1169.23 323.598 1156.32 336.51L1144.51 348.318C1131.6 361.23 1110.66 361.23 1097.75 348.318L995.64 246.208C989.297 239.865 989.297 229.582 995.64 223.24L1031.24 187.639H1031.24ZM780.398 -27.6023C842.262 -89.4659 942.561 -89.4659 1004.43 -27.6023C1066.29 34.2615 1066.29 134.561 1004.43 196.425C942.561 258.289 842.262 258.289 780.398 196.425C718.534 134.561 718.534 34.2615 780.398 -27.6023ZM892.41 -40.6023C876.159 -40.6023 860.326 -37.5223 845.351 -31.4499C829.865 -25.1695 815.957 -15.9302 804.013 -3.98606C792.069 7.95815 782.828 21.8656 776.548 37.3518C770.476 52.3269 767.397 68.1596 767.397 84.4114C767.397 100.663 770.476 116.496 776.548 131.471C782.829 146.957 792.069 160.865 804.013 172.809C815.957 184.753 829.865 193.994 845.351 200.274C860.326 206.346 876.159 209.425 892.41 209.425C908.662 209.425 924.495 206.346 939.47 200.274C954.956 193.993 968.864 184.753 980.808 172.809C992.752 160.865 1001.99 146.957 1008.27 131.471C1014.35 116.496 1017.42 100.663 1017.42 84.4114C1017.42 68.1596 1014.35 52.3269 1008.27 37.3518C1001.99 21.8656 992.752 7.95815 980.808 -3.98606C968.864 -15.9302 954.956 -25.1705 939.47 -31.4499C924.495 -37.5223 908.662 -40.6023 892.41 -40.6023Z" fill="url(#paint0_linear_2162_8992)"/>
<path d="M681.239 187.639C687.582 181.296 697.865 181.296 704.208 187.639L806.317 289.748C819.23 302.661 819.23 323.596 806.317 336.509L794.51 348.317C781.598 361.23 760.663 361.23 747.75 348.317L645.64 246.207C639.297 239.864 639.297 229.582 645.64 223.239L681.24 187.639H681.239ZM430.397 -27.6025C492.261 -89.4663 592.561 -89.4662 654.425 -27.6025C716.289 34.2613 716.289 134.561 654.425 196.425C592.561 258.288 492.261 258.289 430.397 196.425C368.534 134.561 368.534 34.2612 430.397 -27.6025ZM542.41 -40.6025C526.158 -40.6025 510.326 -37.5236 495.351 -31.4512C479.864 -25.1707 465.957 -15.9305 454.013 -3.98633C442.069 7.95784 432.828 21.8653 426.549 37.3516C420.476 52.3267 417.396 68.1592 417.396 84.4111C417.396 100.663 420.476 116.496 426.549 131.471C432.829 146.957 442.069 160.864 454.013 172.809C465.957 184.753 479.864 193.994 495.351 200.273C510.326 206.346 526.158 209.425 542.41 209.425C558.662 209.425 574.495 206.346 589.47 200.273C604.956 193.993 618.863 184.753 630.808 172.809C642.752 160.864 651.993 146.957 658.272 131.471C664.345 116.496 667.424 100.663 667.424 84.4111C667.424 68.1593 664.345 52.3266 658.272 37.3516C651.992 21.8653 642.752 7.95788 630.808 -3.98633C618.863 -15.9305 604.956 -25.1718 589.47 -31.4512C574.495 -37.5235 558.662 -40.6025 542.41 -40.6025Z" fill="url(#paint1_linear_2162_8992)"/>
</g>
<ellipse cx="115.354" cy="118.172" rx="22.8538" ry="23.67" fill="#4EAC78"/>
<circle cx="115.354" cy="61.8538" r="22.8538" fill="#006D43"/>
<ellipse cx="59.8538" cy="118.172" rx="22.8538" ry="23.67" fill="#006D43"/>
<circle cx="59.8538" cy="61.8538" r="20.8538" stroke="#788596" stroke-width="4" stroke-dasharray="16 8"/>
<path d="M234.01 95.332C235.983 95.8883 237.851 96.7111 239.573 97.7617L238.533 99.4688C241.68 101.388 244.307 104.145 246.122 107.452L247.874 106.489C248.838 108.246 249.591 110.142 250.099 112.143L248.161 112.634C248.609 114.399 248.849 116.255 248.849 118.172C248.849 120.089 248.609 121.945 248.161 123.71L250.099 124.201C249.591 126.201 248.838 128.097 247.874 129.854L246.122 128.893C244.307 132.199 241.68 134.956 238.533 136.875L239.573 138.581C237.851 139.632 235.983 140.454 234.01 141.011L233.468 139.088C231.725 139.579 229.891 139.842 227.994 139.842C226.098 139.842 224.264 139.579 222.521 139.088L221.979 141.011C220.005 140.454 218.138 139.632 216.415 138.581L217.456 136.875C214.31 134.956 211.683 132.199 209.867 128.893L208.114 129.854C207.15 128.097 206.397 126.201 205.89 124.201L207.827 123.71C207.379 121.945 207.141 120.089 207.141 118.172C207.141 116.255 207.379 114.399 207.827 112.634L205.89 112.143C206.397 110.142 207.15 108.246 208.114 106.489L209.867 107.452C211.683 104.145 214.309 101.388 217.456 99.4688L216.415 97.7617C218.138 96.7111 220.005 95.8883 221.979 95.332L222.521 97.2559C224.264 96.7648 226.098 96.502 227.994 96.502C229.891 96.502 231.725 96.7648 233.468 97.2559L234.01 95.332Z" stroke="#788596" stroke-width="4" stroke-dasharray="16 8"/>
<circle cx="227.994" cy="61.8538" r="22.8538" fill="#4EAC78"/>
<ellipse cx="172.494" cy="118.172" rx="22.8538" ry="23.67" fill="#006D43"/>
<circle cx="172.494" cy="61.8538" r="22.8538" fill="#4EAC78"/>
<ellipse cx="115.354" cy="230.809" rx="22.8538" ry="23.67" fill="#006D43"/>
<circle cx="115.354" cy="174.491" r="20.8538" stroke="#788596" stroke-width="4" stroke-dasharray="16 8"/>
<path d="M65.8691 207.969C67.8428 208.525 69.7099 209.348 71.4326 210.398L70.3926 212.105C73.5392 214.025 76.166 216.782 77.9814 220.089L79.7334 219.126C80.6977 220.882 81.4508 222.779 81.958 224.779L80.0205 225.271C80.4682 227.036 80.708 228.892 80.708 230.809C80.708 232.725 80.4682 234.581 80.0205 236.347L81.958 236.838C81.4509 238.838 80.6975 240.734 79.7334 242.49L77.9814 241.529C76.166 244.836 73.5391 247.593 70.3926 249.512L71.4326 251.218C69.7099 252.268 67.8428 253.091 65.8691 253.647L65.3271 251.725C63.5848 252.216 61.75 252.479 59.8535 252.479C57.9572 252.478 56.123 252.216 54.3809 251.725L53.8379 253.647C51.8642 253.091 49.9971 252.268 48.2744 251.218L49.3154 249.512C46.1689 247.593 43.5421 244.836 41.7266 241.529L39.9736 242.49C39.0095 240.734 38.2562 238.838 37.749 236.838L39.6865 236.347C39.2388 234.581 39 232.725 39 230.809C39 228.892 39.2388 227.036 39.6865 225.271L37.749 224.779C38.2562 222.779 39.0093 220.882 39.9736 219.126L41.7266 220.089C43.5421 216.782 46.1688 214.025 49.3154 212.105L48.2744 210.398C49.9971 209.348 51.8643 208.525 53.8379 207.969L54.3809 209.893C56.123 209.402 57.9572 209.139 59.8535 209.139C61.75 209.139 63.5848 209.401 65.3271 209.893L65.8691 207.969Z" stroke="#788596" stroke-width="4" stroke-dasharray="16 8"/>
<circle cx="59.8538" cy="174.491" r="22.8538" fill="#4EAC78"/>
<ellipse cx="227.994" cy="230.809" rx="22.8538" ry="23.67" fill="#4EAC78"/>
<circle cx="227.994" cy="174.491" r="22.8538" fill="#006D43"/>
<path d="M178.51 207.969C180.483 208.525 182.351 209.348 184.073 210.398L183.033 212.105C186.18 214.025 188.807 216.782 190.622 220.089L192.374 219.126C193.338 220.882 194.091 222.779 194.599 224.779L192.661 225.271C193.109 227.036 193.349 228.892 193.349 230.809C193.349 232.725 193.109 234.581 192.661 236.347L194.599 236.838C194.091 238.838 193.338 240.734 192.374 242.49L190.622 241.529C188.807 244.836 186.18 247.593 183.033 249.512L184.073 251.218C182.351 252.268 180.483 253.091 178.51 253.647L177.968 251.725C176.225 252.216 174.391 252.479 172.494 252.479C170.598 252.478 168.764 252.216 167.021 251.725L166.479 253.647C164.505 253.091 162.638 252.268 160.915 251.218L161.956 249.512C158.81 247.593 156.183 244.836 154.367 241.529L152.614 242.49C151.65 240.734 150.897 238.838 150.39 236.838L152.327 236.347C151.879 234.581 151.641 232.725 151.641 230.809C151.641 228.892 151.879 227.036 152.327 225.271L150.39 224.779C150.897 222.779 151.65 220.882 152.614 219.126L154.367 220.089C156.183 216.782 158.809 214.025 161.956 212.105L160.915 210.398C162.638 209.348 164.505 208.525 166.479 207.969L167.021 209.893C168.764 209.402 170.598 209.139 172.494 209.139C174.391 209.139 176.225 209.401 177.968 209.893L178.51 207.969Z" stroke="#788596" stroke-width="4" stroke-dasharray="16 8"/>
<circle cx="172.494" cy="174.491" r="22.8538" fill="#4EAC78"/>
<defs>
<linearGradient id="paint0_linear_2162_8992" x1="763" y1="-57.9995" x2="1317" y2="513.5" gradientUnits="userSpaceOnUse">
<stop stop-color="#101C2B"/>
<stop offset="1" stop-color="#4EAC78"/>
</linearGradient>
<linearGradient id="paint1_linear_2162_8992" x1="536" y1="98" x2="1615" y2="1129" gradientUnits="userSpaceOnUse">
<stop stop-color="#101C2B"/>
<stop offset="1" stop-color="#4EAC78"/>
</linearGradient>
</defs>
</svg>
