<svg width="318" height="305" viewBox="0 0 318 305" fill="none" xmlns="http://www.w3.org/2000/svg">
<rect x="2" y="100" width="314" height="203" rx="14" fill="#F7F9FC" stroke="#000E41" stroke-width="4" stroke-linecap="square"/>
<mask id="path-2-inside-1_1484_4007" fill="white">
<path fill-rule="evenodd" clip-rule="evenodd" d="M236 102V81V79H235.976C234.914 35.189 199.066 0 155 0C110.934 0 75.0859 35.189 74.0242 79H74V81V102H101V85H101.002C101.001 84.8335 101 84.6668 101 84.5C101 54.4005 125.4 30 155.5 30C185.6 30 210 54.4005 210 84.5C210 84.6668 209.999 84.8335 209.998 85H210V102H236Z"/>
</mask>
<path fill-rule="evenodd" clip-rule="evenodd" d="M236 102V81V79H235.976C234.914 35.189 199.066 0 155 0C110.934 0 75.0859 35.189 74.0242 79H74V81V102H101V85H101.002C101.001 84.8335 101 84.6668 101 84.5C101 54.4005 125.4 30 155.5 30C185.6 30 210 54.4005 210 84.5C210 84.6668 209.999 84.8335 209.998 85H210V102H236Z" fill="#F7F9FC"/>
<path d="M236 102V106H240V102H236ZM236 79H240V75H236V79ZM235.976 79L231.977 79.0969L232.072 83H235.976V79ZM74.0242 79V83H77.9285L78.023 79.0969L74.0242 79ZM74 79V75H70V79H74ZM74 102H70V106H74V102ZM101 102V106H105V102H101ZM101 85V81H97V85H101ZM101.002 85V89H105.038L105.002 84.964L101.002 85ZM209.998 85L205.998 84.9641L205.962 89H209.998V85ZM210 85H214V81H210V85ZM210 102H206V106H210V102ZM240 102V81H232V102H240ZM240 81V79H232V81H240ZM236 75H235.976V83H236V75ZM239.975 78.9031C238.86 32.9267 201.243 -4 155 -4V4C196.89 4 230.968 37.4514 231.977 79.0969L239.975 78.9031ZM155 -4C108.757 -4 71.1395 32.9267 70.0254 78.9031L78.023 79.0969C79.0322 37.4514 113.11 4 155 4V-4ZM74.0242 75H74V83H74.0242V75ZM70 79V81H78V79H70ZM70 81V102H78V81H70ZM74 106H101V98H74V106ZM105 102V85H97V102H105ZM101 89H101.002V81H101V89ZM105.002 84.964C105.001 84.8095 105 84.6549 105 84.5H97C97 84.6788 97.0008 84.8575 97.0024 85.036L105.002 84.964ZM105 84.5C105 56.6096 127.61 34 155.5 34V26C123.191 26 97 52.1913 97 84.5H105ZM155.5 34C183.39 34 206 56.6096 206 84.5H214C214 52.1913 187.809 26 155.5 26V34ZM206 84.5C206 84.6549 205.999 84.8096 205.998 84.9641L213.998 85.0359C213.999 84.8574 214 84.6788 214 84.5H206ZM209.998 89H210V81H209.998V89ZM206 85V102H214V85H206ZM210 106H236V98H210V106Z" fill="#000E41" mask="url(#path-2-inside-1_1484_4007)"/>
<rect x="12" y="293" width="56" height="186" rx="8" transform="rotate(-90 12 293)" fill="#2459D1"/>
<rect x="206" y="293" width="184" height="100" rx="8" transform="rotate(-90 206 293)" fill="#29B57D"/>
<rect x="12" y="229" width="56" height="186" rx="8" transform="rotate(-90 12 229)" fill="#2459D1"/>
<rect x="12" y="229" width="56" height="186" rx="8" transform="rotate(-90 12 229)" fill="white" fill-opacity="0.3"/>
<path d="M20 165C15.5817 165 12 161.418 12 157L12 117C12 112.582 15.5817 109 20 109L190 109C194.418 109 198 112.582 198 117L198 157C198 161.418 194.418 165 190 165L20 165Z" fill="#2459D1"/>
<path d="M20 165C15.5817 165 12 161.418 12 157L12 117C12 112.582 15.5817 109 20 109L190 109C194.418 109 198 112.582 198 117L198 157C198 161.418 194.418 165 190 165L20 165Z" fill="white" fill-opacity="0.5"/>
<path d="M91.4819 137.96C92.0512 138.081 92.5085 138.366 92.8539 138.814C93.1992 139.253 93.3719 139.757 93.3719 140.326C93.3719 141.147 93.0825 141.801 92.5039 142.286C91.9345 142.762 91.1365 143 90.1099 143H85.5319V133.172H89.9559C90.9545 133.172 91.7339 133.401 92.2939 133.858C92.8632 134.315 93.1479 134.936 93.1479 135.72C93.1479 136.299 92.9939 136.779 92.6859 137.162C92.3872 137.545 91.9859 137.811 91.4819 137.96ZM87.9259 137.148H89.4939C89.8859 137.148 90.1845 137.064 90.3899 136.896C90.6045 136.719 90.7119 136.462 90.7119 136.126C90.7119 135.79 90.6045 135.533 90.3899 135.356C90.1845 135.179 89.8859 135.09 89.4939 135.09H87.9259V137.148ZM89.6899 141.068C90.0912 141.068 90.3992 140.979 90.6139 140.802C90.8379 140.615 90.9499 140.349 90.9499 140.004C90.9499 139.659 90.8332 139.388 90.5999 139.192C90.3759 138.996 90.0632 138.898 89.6619 138.898H87.9259V141.068H89.6899ZM97.2624 133.172V139.052C97.2624 139.64 97.407 140.093 97.6964 140.41C97.9857 140.727 98.4104 140.886 98.9704 140.886C99.5304 140.886 99.9597 140.727 100.258 140.41C100.557 140.093 100.706 139.64 100.706 139.052V133.172H103.1V139.038C103.1 139.915 102.914 140.657 102.54 141.264C102.167 141.871 101.663 142.328 101.028 142.636C100.403 142.944 99.703 143.098 98.9284 143.098C98.1537 143.098 97.4584 142.949 96.8424 142.65C96.2357 142.342 95.755 141.885 95.4004 141.278C95.0457 140.662 94.8684 139.915 94.8684 139.038V133.172H97.2624ZM107.325 133.172V143H104.931V133.172H107.325ZM111.604 141.152H114.74V143H109.21V133.172H111.604V141.152ZM119.714 133.172C120.75 133.172 121.656 133.377 122.43 133.788C123.205 134.199 123.802 134.777 124.222 135.524C124.652 136.261 124.866 137.115 124.866 138.086C124.866 139.047 124.652 139.901 124.222 140.648C123.802 141.395 123.2 141.973 122.416 142.384C121.642 142.795 120.741 143 119.714 143H116.032V133.172H119.714ZM119.56 140.928C120.466 140.928 121.17 140.681 121.674 140.186C122.178 139.691 122.43 138.991 122.43 138.086C122.43 137.181 122.178 136.476 121.674 135.972C121.17 135.468 120.466 135.216 119.56 135.216H118.426V140.928H119.56Z" fill="#000E41"/>
<path d="M80.7381 199.336C80.7381 199.905 80.6074 200.428 80.3461 200.904C80.0847 201.371 79.6834 201.749 79.1421 202.038C78.6007 202.327 77.9287 202.472 77.1261 202.472H75.6421V206H73.2481V196.172H77.1261C77.9101 196.172 78.5727 196.307 79.1141 196.578C79.6554 196.849 80.0614 197.222 80.3321 197.698C80.6027 198.174 80.7381 198.72 80.7381 199.336ZM76.9441 200.568C77.4014 200.568 77.7421 200.461 77.9661 200.246C78.1901 200.031 78.3021 199.728 78.3021 199.336C78.3021 198.944 78.1901 198.641 77.9661 198.426C77.7421 198.211 77.4014 198.104 76.9441 198.104H75.6421V200.568H76.9441ZM87.1464 206L85.1024 202.29H84.5284V206H82.1344V196.172H86.1524C86.9271 196.172 87.5851 196.307 88.1264 196.578C88.6771 196.849 89.0877 197.222 89.3584 197.698C89.6291 198.165 89.7644 198.687 89.7644 199.266C89.7644 199.919 89.5777 200.503 89.2044 201.016C88.8404 201.529 88.2991 201.893 87.5804 202.108L89.8484 206H87.1464ZM84.5284 200.596H86.0124C86.4511 200.596 86.7777 200.489 86.9924 200.274C87.2164 200.059 87.3284 199.756 87.3284 199.364C87.3284 198.991 87.2164 198.697 86.9924 198.482C86.7777 198.267 86.4511 198.16 86.0124 198.16H84.5284V200.596ZM96.0652 206.098C95.1412 206.098 94.2919 205.883 93.5172 205.454C92.7519 205.025 92.1406 204.427 91.6832 203.662C91.2352 202.887 91.0112 202.019 91.0112 201.058C91.0112 200.097 91.2352 199.233 91.6832 198.468C92.1406 197.703 92.7519 197.105 93.5172 196.676C94.2919 196.247 95.1412 196.032 96.0652 196.032C96.9892 196.032 97.8339 196.247 98.5992 196.676C99.3739 197.105 99.9806 197.703 100.419 198.468C100.867 199.233 101.091 200.097 101.091 201.058C101.091 202.019 100.867 202.887 100.419 203.662C99.9712 204.427 99.3646 205.025 98.5992 205.454C97.8339 205.883 96.9892 206.098 96.0652 206.098ZM96.0652 203.914C96.8492 203.914 97.4746 203.653 97.9412 203.13C98.4172 202.607 98.6552 201.917 98.6552 201.058C98.6552 200.19 98.4172 199.499 97.9412 198.986C97.4746 198.463 96.8492 198.202 96.0652 198.202C95.2719 198.202 94.6372 198.459 94.1612 198.972C93.6946 199.485 93.4612 200.181 93.4612 201.058C93.4612 201.926 93.6946 202.621 94.1612 203.144C94.6372 203.657 95.2719 203.914 96.0652 203.914ZM102.167 201.072C102.167 200.101 102.377 199.238 102.797 198.482C103.217 197.717 103.8 197.124 104.547 196.704C105.303 196.275 106.157 196.06 107.109 196.06C108.276 196.06 109.274 196.368 110.105 196.984C110.936 197.6 111.491 198.44 111.771 199.504H109.139C108.943 199.093 108.663 198.781 108.299 198.566C107.944 198.351 107.538 198.244 107.081 198.244C106.344 198.244 105.746 198.501 105.289 199.014C104.832 199.527 104.603 200.213 104.603 201.072C104.603 201.931 104.832 202.617 105.289 203.13C105.746 203.643 106.344 203.9 107.081 203.9C107.538 203.9 107.944 203.793 108.299 203.578C108.663 203.363 108.943 203.051 109.139 202.64H111.771C111.491 203.704 110.936 204.544 110.105 205.16C109.274 205.767 108.276 206.07 107.109 206.07C106.157 206.07 105.303 205.86 104.547 205.44C103.8 205.011 103.217 204.418 102.797 203.662C102.377 202.906 102.167 202.043 102.167 201.072ZM115.781 198.09V200.078H118.987V201.926H115.781V204.082H119.407V206H113.387V196.172H119.407V198.09H115.781ZM124.667 206.098C123.949 206.098 123.305 205.981 122.735 205.748C122.166 205.515 121.709 205.169 121.363 204.712C121.027 204.255 120.85 203.704 120.831 203.06H123.379C123.417 203.424 123.543 203.704 123.757 203.9C123.972 204.087 124.252 204.18 124.597 204.18C124.952 204.18 125.232 204.101 125.437 203.942C125.643 203.774 125.745 203.545 125.745 203.256C125.745 203.013 125.661 202.813 125.493 202.654C125.335 202.495 125.134 202.365 124.891 202.262C124.658 202.159 124.322 202.043 123.883 201.912C123.249 201.716 122.731 201.52 122.329 201.324C121.928 201.128 121.583 200.839 121.293 200.456C121.004 200.073 120.859 199.574 120.859 198.958C120.859 198.043 121.191 197.329 121.853 196.816C122.516 196.293 123.379 196.032 124.443 196.032C125.526 196.032 126.399 196.293 127.061 196.816C127.724 197.329 128.079 198.048 128.125 198.972H125.535C125.517 198.655 125.4 198.407 125.185 198.23C124.971 198.043 124.695 197.95 124.359 197.95C124.07 197.95 123.837 198.029 123.659 198.188C123.482 198.337 123.393 198.557 123.393 198.846C123.393 199.163 123.543 199.411 123.841 199.588C124.14 199.765 124.607 199.957 125.241 200.162C125.876 200.377 126.389 200.582 126.781 200.778C127.183 200.974 127.528 201.259 127.817 201.632C128.107 202.005 128.251 202.486 128.251 203.074C128.251 203.634 128.107 204.143 127.817 204.6C127.537 205.057 127.127 205.421 126.585 205.692C126.044 205.963 125.405 206.098 124.667 206.098ZM133.431 206.098C132.712 206.098 132.068 205.981 131.499 205.748C130.929 205.515 130.472 205.169 130.127 204.712C129.791 204.255 129.613 203.704 129.595 203.06H132.143C132.18 203.424 132.306 203.704 132.521 203.9C132.735 204.087 133.015 204.18 133.361 204.18C133.715 204.18 133.995 204.101 134.201 203.942C134.406 203.774 134.509 203.545 134.509 203.256C134.509 203.013 134.425 202.813 134.257 202.654C134.098 202.495 133.897 202.365 133.655 202.262C133.421 202.159 133.085 202.043 132.647 201.912C132.012 201.716 131.494 201.52 131.093 201.324C130.691 201.128 130.346 200.839 130.057 200.456C129.767 200.073 129.623 199.574 129.623 198.958C129.623 198.043 129.954 197.329 130.617 196.816C131.279 196.293 132.143 196.032 133.207 196.032C134.289 196.032 135.162 196.293 135.825 196.816C136.487 197.329 136.842 198.048 136.889 198.972H134.299C134.28 198.655 134.163 198.407 133.949 198.23C133.734 198.043 133.459 197.95 133.123 197.95C132.833 197.95 132.6 198.029 132.423 198.188C132.245 198.337 132.157 198.557 132.157 198.846C132.157 199.163 132.306 199.411 132.605 199.588C132.903 199.765 133.37 199.957 134.005 200.162C134.639 200.377 135.153 200.582 135.545 200.778C135.946 200.974 136.291 201.259 136.581 201.632C136.87 202.005 137.015 202.486 137.015 203.074C137.015 203.634 136.87 204.143 136.581 204.6C136.301 205.057 135.89 205.421 135.349 205.692C134.807 205.963 134.168 206.098 133.431 206.098Z" fill="#000E41"/>
<path d="M233.259 189.098C232.54 189.098 231.896 188.981 231.327 188.748C230.758 188.515 230.3 188.169 229.955 187.712C229.619 187.255 229.442 186.704 229.423 186.06H231.971C232.008 186.424 232.134 186.704 232.349 186.9C232.564 187.087 232.844 187.18 233.189 187.18C233.544 187.18 233.824 187.101 234.029 186.942C234.234 186.774 234.337 186.545 234.337 186.256C234.337 186.013 234.253 185.813 234.085 185.654C233.926 185.495 233.726 185.365 233.483 185.262C233.25 185.159 232.914 185.043 232.475 184.912C231.84 184.716 231.322 184.52 230.921 184.324C230.52 184.128 230.174 183.839 229.885 183.456C229.596 183.073 229.451 182.574 229.451 181.958C229.451 181.043 229.782 180.329 230.445 179.816C231.108 179.293 231.971 179.032 233.035 179.032C234.118 179.032 234.99 179.293 235.653 179.816C236.316 180.329 236.67 181.048 236.717 181.972H234.127C234.108 181.655 233.992 181.407 233.777 181.23C233.562 181.043 233.287 180.95 232.951 180.95C232.662 180.95 232.428 181.029 232.251 181.188C232.074 181.337 231.985 181.557 231.985 181.846C231.985 182.163 232.134 182.411 232.433 182.588C232.732 182.765 233.198 182.957 233.833 183.162C234.468 183.377 234.981 183.582 235.373 183.778C235.774 183.974 236.12 184.259 236.409 184.632C236.698 185.005 236.843 185.486 236.843 186.074C236.843 186.634 236.698 187.143 236.409 187.6C236.129 188.057 235.718 188.421 235.177 188.692C234.636 188.963 233.996 189.098 233.259 189.098ZM240.86 181.09V183.078H244.066V184.926H240.86V187.082H244.486V189H238.466V179.172H244.486V181.09H240.86ZM245.785 184.072C245.785 183.101 245.995 182.238 246.415 181.482C246.835 180.717 247.418 180.124 248.165 179.704C248.921 179.275 249.775 179.06 250.727 179.06C251.893 179.06 252.892 179.368 253.723 179.984C254.553 180.6 255.109 181.44 255.389 182.504H252.757C252.561 182.093 252.281 181.781 251.917 181.566C251.562 181.351 251.156 181.244 250.699 181.244C249.961 181.244 249.364 181.501 248.907 182.014C248.449 182.527 248.221 183.213 248.221 184.072C248.221 184.931 248.449 185.617 248.907 186.13C249.364 186.643 249.961 186.9 250.699 186.9C251.156 186.9 251.562 186.793 251.917 186.578C252.281 186.363 252.561 186.051 252.757 185.64H255.389C255.109 186.704 254.553 187.544 253.723 188.16C252.892 188.767 251.893 189.07 250.727 189.07C249.775 189.07 248.921 188.86 248.165 188.44C247.418 188.011 246.835 187.418 246.415 186.662C245.995 185.906 245.785 185.043 245.785 184.072ZM259.357 179.172V185.052C259.357 185.64 259.501 186.093 259.791 186.41C260.08 186.727 260.505 186.886 261.065 186.886C261.625 186.886 262.054 186.727 262.353 186.41C262.651 186.093 262.801 185.64 262.801 185.052V179.172H265.195V185.038C265.195 185.915 265.008 186.657 264.635 187.264C264.261 187.871 263.757 188.328 263.123 188.636C262.497 188.944 261.797 189.098 261.023 189.098C260.248 189.098 259.553 188.949 258.937 188.65C258.33 188.342 257.849 187.885 257.495 187.278C257.14 186.662 256.963 185.915 256.963 185.038V179.172H259.357ZM272.038 189L269.994 185.29H269.42V189H267.026V179.172H271.044C271.818 179.172 272.476 179.307 273.018 179.578C273.568 179.849 273.979 180.222 274.25 180.698C274.52 181.165 274.656 181.687 274.656 182.266C274.656 182.919 274.469 183.503 274.096 184.016C273.732 184.529 273.19 184.893 272.472 185.108L274.74 189H272.038ZM269.42 183.596H270.904C271.342 183.596 271.669 183.489 271.884 183.274C272.108 183.059 272.22 182.756 272.22 182.364C272.22 181.991 272.108 181.697 271.884 181.482C271.669 181.267 271.342 181.16 270.904 181.16H269.42V183.596ZM278.703 181.09V183.078H281.909V184.926H278.703V187.082H282.329V189H276.309V179.172H282.329V181.09H278.703ZM241.228 205.264H237.56L236.972 207H234.466L238.022 197.172H240.794L244.35 207H241.816L241.228 205.264ZM240.612 203.416L239.394 199.818L238.19 203.416H240.612ZM247.934 197.172V203.052C247.934 203.64 248.079 204.093 248.368 204.41C248.658 204.727 249.082 204.886 249.642 204.886C250.202 204.886 250.632 204.727 250.93 204.41C251.229 204.093 251.378 203.64 251.378 203.052V197.172H253.772V203.038C253.772 203.915 253.586 204.657 253.212 205.264C252.839 205.871 252.335 206.328 251.7 206.636C251.075 206.944 250.375 207.098 249.6 207.098C248.826 207.098 248.13 206.949 247.514 206.65C246.908 206.342 246.427 205.885 246.072 205.278C245.718 204.662 245.54 203.915 245.54 203.038V197.172H247.934ZM259.286 197.172C260.322 197.172 261.227 197.377 262.002 197.788C262.776 198.199 263.374 198.777 263.794 199.524C264.223 200.261 264.438 201.115 264.438 202.086C264.438 203.047 264.223 203.901 263.794 204.648C263.374 205.395 262.772 205.973 261.988 206.384C261.213 206.795 260.312 207 259.286 207H255.604V197.172H259.286ZM259.132 204.928C260.037 204.928 260.742 204.681 261.246 204.186C261.75 203.691 262.002 202.991 262.002 202.086C262.002 201.181 261.75 200.476 261.246 199.972C260.742 199.468 260.037 199.216 259.132 199.216H257.998V204.928H259.132ZM268.319 197.172V207H265.925V197.172H268.319ZM277.274 197.172V199.09H274.67V207H272.276V199.09H269.672V197.172H277.274ZM244.374 215.172V217.09H241.77V225H239.376V217.09H236.772V215.172H244.374ZM250.738 225L248.694 221.29H248.12V225H245.726V215.172H249.744C250.518 215.172 251.176 215.307 251.718 215.578C252.268 215.849 252.679 216.222 252.95 216.698C253.22 217.165 253.356 217.687 253.356 218.266C253.356 218.919 253.169 219.503 252.796 220.016C252.432 220.529 251.89 220.893 251.172 221.108L253.44 225H250.738ZM248.12 219.596H249.604C250.042 219.596 250.369 219.489 250.584 219.274C250.808 219.059 250.92 218.756 250.92 218.364C250.92 217.991 250.808 217.697 250.584 217.482C250.369 217.267 250.042 217.16 249.604 217.16H248.12V219.596ZM261.127 223.264H257.459L256.871 225H254.365L257.921 215.172H260.693L264.249 225H261.715L261.127 223.264ZM260.511 221.416L259.293 217.818L258.089 221.416H260.511ZM267.875 215.172V225H265.481V215.172H267.875ZM272.154 223.152H275.29V225H269.76V215.172H272.154V223.152Z" fill="#000D40"/>
<path d="M75.0909 264.072C75.0909 263.101 75.3009 262.238 75.7209 261.482C76.1409 260.717 76.7242 260.124 77.4709 259.704C78.2269 259.275 79.0809 259.06 80.0329 259.06C81.1996 259.06 82.1982 259.368 83.0289 259.984C83.8596 260.6 84.4149 261.44 84.6949 262.504H82.0629C81.8669 262.093 81.5869 261.781 81.2229 261.566C80.8682 261.351 80.4622 261.244 80.0049 261.244C79.2676 261.244 78.6702 261.501 78.2129 262.014C77.7556 262.527 77.5269 263.213 77.5269 264.072C77.5269 264.931 77.7556 265.617 78.2129 266.13C78.6702 266.643 79.2676 266.9 80.0049 266.9C80.4622 266.9 80.8682 266.793 81.2229 266.578C81.5869 266.363 81.8669 266.051 82.0629 265.64H84.6949C84.4149 266.704 83.8596 267.544 83.0289 268.16C82.1982 268.767 81.1996 269.07 80.0329 269.07C79.0809 269.07 78.2269 268.86 77.4709 268.44C76.7242 268.011 76.1409 267.418 75.7209 266.662C75.3009 265.906 75.0909 265.043 75.0909 264.072ZM94.823 259.172V269H92.429V264.954H88.705V269H86.311V259.172H88.705V263.022H92.429V259.172H94.823ZM102.819 267.264H99.1512L98.5632 269H96.0572L99.6132 259.172H102.385L105.941 269H103.407L102.819 267.264ZM102.203 265.416L100.985 261.818L99.7812 265.416H102.203ZM115.965 269H113.571L109.567 262.938V269H107.173V259.172H109.567L113.571 265.262V259.172H115.965V269ZM124.375 262.28C124.197 261.953 123.941 261.706 123.605 261.538C123.278 261.361 122.891 261.272 122.443 261.272C121.668 261.272 121.047 261.529 120.581 262.042C120.114 262.546 119.881 263.223 119.881 264.072C119.881 264.977 120.123 265.687 120.609 266.2C121.103 266.704 121.78 266.956 122.639 266.956C123.227 266.956 123.721 266.807 124.123 266.508C124.533 266.209 124.832 265.78 125.019 265.22H121.981V263.456H127.189V265.682C127.011 266.279 126.708 266.835 126.279 267.348C125.859 267.861 125.322 268.277 124.669 268.594C124.015 268.911 123.278 269.07 122.457 269.07C121.486 269.07 120.618 268.86 119.853 268.44C119.097 268.011 118.504 267.418 118.075 266.662C117.655 265.906 117.445 265.043 117.445 264.072C117.445 263.101 117.655 262.238 118.075 261.482C118.504 260.717 119.097 260.124 119.853 259.704C120.609 259.275 121.472 259.06 122.443 259.06C123.619 259.06 124.608 259.345 125.411 259.914C126.223 260.483 126.759 261.272 127.021 262.28H124.375ZM131.059 261.09V263.078H134.265V264.926H131.059V267.082H134.685V269H128.665V259.172H134.685V261.09H131.059Z" fill="#000E41"/>
</svg>
