<svg width="318" height="305" viewBox="0 0 318 305" fill="none" xmlns="http://www.w3.org/2000/svg">
<rect x="2" y="100" width="314" height="203" rx="14" fill="#F7F9FC" stroke="#000E41" stroke-width="4" stroke-linecap="square"/>
<mask id="path-2-inside-1_1498_4019" fill="white">
<path fill-rule="evenodd" clip-rule="evenodd" d="M236 102V81V79H235.976C234.914 35.189 199.066 0 155 0C110.934 0 75.0859 35.189 74.0242 79H74V81V102H101V85H101.002C101.001 84.8335 101 84.6668 101 84.5C101 54.4005 125.4 30 155.5 30C185.6 30 210 54.4005 210 84.5C210 84.6668 209.999 84.8335 209.998 85H210V102H236Z"/>
</mask>
<path fill-rule="evenodd" clip-rule="evenodd" d="M236 102V81V79H235.976C234.914 35.189 199.066 0 155 0C110.934 0 75.0859 35.189 74.0242 79H74V81V102H101V85H101.002C101.001 84.8335 101 84.6668 101 84.5C101 54.4005 125.4 30 155.5 30C185.6 30 210 54.4005 210 84.5C210 84.6668 209.999 84.8335 209.998 85H210V102H236Z" fill="#F7F9FC"/>
<path d="M236 102V106H240V102H236ZM236 79H240V75H236V79ZM235.976 79L231.977 79.0969L232.072 83H235.976V79ZM74.0242 79V83H77.9285L78.023 79.0969L74.0242 79ZM74 79V75H70V79H74ZM74 102H70V106H74V102ZM101 102V106H105V102H101ZM101 85V81H97V85H101ZM101.002 85V89H105.038L105.002 84.964L101.002 85ZM209.998 85L205.998 84.9641L205.962 89H209.998V85ZM210 85H214V81H210V85ZM210 102H206V106H210V102ZM240 102V81H232V102H240ZM240 81V79H232V81H240ZM236 75H235.976V83H236V75ZM239.975 78.9031C238.86 32.9267 201.243 -4 155 -4V4C196.89 4 230.968 37.4514 231.977 79.0969L239.975 78.9031ZM155 -4C108.757 -4 71.1395 32.9267 70.0254 78.9031L78.023 79.0969C79.0322 37.4514 113.11 4 155 4V-4ZM74.0242 75H74V83H74.0242V75ZM70 79V81H78V79H70ZM70 81V102H78V81H70ZM74 106H101V98H74V106ZM105 102V85H97V102H105ZM101 89H101.002V81H101V89ZM105.002 84.964C105.001 84.8095 105 84.6549 105 84.5H97C97 84.6788 97.0008 84.8575 97.0024 85.036L105.002 84.964ZM105 84.5C105 56.6096 127.61 34 155.5 34V26C123.191 26 97 52.1913 97 84.5H105ZM155.5 34C183.39 34 206 56.6096 206 84.5H214C214 52.1913 187.809 26 155.5 26V34ZM206 84.5C206 84.6549 205.999 84.8096 205.998 84.9641L213.998 85.0359C213.999 84.8574 214 84.6788 214 84.5H206ZM209.998 89H210V81H209.998V89ZM206 85V102H214V85H206ZM210 106H236V98H210V106Z" fill="#000E41" mask="url(#path-2-inside-1_1498_4019)"/>
<rect x="12" y="293" width="56" height="186" rx="8" transform="rotate(-90 12 293)" fill="#2459D1"/>
<rect x="206" y="293" width="184" height="100" rx="8" transform="rotate(-90 206 293)" fill="#29B57D"/>
<rect x="12" y="229" width="56" height="186" rx="8" transform="rotate(-90 12 229)" fill="#2459D1"/>
<rect x="12" y="229" width="56" height="186" rx="8" transform="rotate(-90 12 229)" fill="white" fill-opacity="0.3"/>
<path d="M20 165C15.5817 165 12 161.418 12 157L12 117C12 112.582 15.5817 109 20 109L190 109C194.418 109 198 112.582 198 117L198 157C198 161.418 194.418 165 190 165L20 165Z" fill="#2459D1"/>
<path d="M20 165C15.5817 165 12 161.418 12 157L12 117C12 112.582 15.5817 109 20 109L190 109C194.418 109 198 112.582 198 117L198 157C198 161.418 194.418 165 190 165L20 165Z" fill="white" fill-opacity="0.5"/>
<path d="M55.983 143.098C55.2643 143.098 54.6203 142.981 54.051 142.748C53.4816 142.515 53.0243 142.169 52.679 141.712C52.343 141.255 52.1656 140.704 52.147 140.06H54.695C54.7323 140.424 54.8583 140.704 55.073 140.9C55.2876 141.087 55.5676 141.18 55.913 141.18C56.2676 141.18 56.5476 141.101 56.753 140.942C56.9583 140.774 57.061 140.545 57.061 140.256C57.061 140.013 56.977 139.813 56.809 139.654C56.6503 139.495 56.4496 139.365 56.207 139.262C55.9736 139.159 55.6376 139.043 55.199 138.912C54.5643 138.716 54.0463 138.52 53.645 138.324C53.2436 138.128 52.8983 137.839 52.609 137.456C52.3196 137.073 52.175 136.574 52.175 135.958C52.175 135.043 52.5063 134.329 53.169 133.816C53.8316 133.293 54.695 133.032 55.759 133.032C56.8416 133.032 57.7143 133.293 58.377 133.816C59.0396 134.329 59.3943 135.048 59.441 135.972H56.851C56.8323 135.655 56.7156 135.407 56.501 135.23C56.2863 135.043 56.011 134.95 55.675 134.95C55.3856 134.95 55.1523 135.029 54.975 135.188C54.7976 135.337 54.709 135.557 54.709 135.846C54.709 136.163 54.8583 136.411 55.157 136.588C55.4556 136.765 55.9223 136.957 56.557 137.162C57.1916 137.377 57.705 137.582 58.097 137.778C58.4983 137.974 58.8437 138.259 59.133 138.632C59.4223 139.005 59.567 139.486 59.567 140.074C59.567 140.634 59.4223 141.143 59.133 141.6C58.853 142.057 58.4423 142.421 57.901 142.692C57.3596 142.963 56.7203 143.098 55.983 143.098ZM63.5843 135.09V137.078H66.7903V138.926H63.5843V141.082H67.2103V143H61.1903V133.172H67.2103V135.09H63.5843ZM68.5085 138.072C68.5085 137.101 68.7185 136.238 69.1385 135.482C69.5585 134.717 70.1418 134.124 70.8885 133.704C71.6445 133.275 72.4985 133.06 73.4505 133.06C74.6171 133.06 75.6158 133.368 76.4465 133.984C77.2771 134.6 77.8325 135.44 78.1125 136.504H75.4805C75.2845 136.093 75.0045 135.781 74.6405 135.566C74.2858 135.351 73.8798 135.244 73.4225 135.244C72.6851 135.244 72.0878 135.501 71.6305 136.014C71.1731 136.527 70.9445 137.213 70.9445 138.072C70.9445 138.931 71.1731 139.617 71.6305 140.13C72.0878 140.643 72.6851 140.9 73.4225 140.9C73.8798 140.9 74.2858 140.793 74.6405 140.578C75.0045 140.363 75.2845 140.051 75.4805 139.64H78.1125C77.8325 140.704 77.2771 141.544 76.4465 142.16C75.6158 142.767 74.6171 143.07 73.4505 143.07C72.4985 143.07 71.6445 142.86 70.8885 142.44C70.1418 142.011 69.5585 141.418 69.1385 140.662C68.7185 139.906 68.5085 139.043 68.5085 138.072ZM82.0805 133.172V139.052C82.0805 139.64 82.2252 140.093 82.5146 140.41C82.8039 140.727 83.2286 140.886 83.7886 140.886C84.3486 140.886 84.7779 140.727 85.0766 140.41C85.3752 140.093 85.5246 139.64 85.5246 139.052V133.172H87.9186V139.038C87.9186 139.915 87.7319 140.657 87.3586 141.264C86.9852 141.871 86.4812 142.328 85.8466 142.636C85.2212 142.944 84.5212 143.098 83.7466 143.098C82.9719 143.098 82.2765 142.949 81.6605 142.65C81.0539 142.342 80.5732 141.885 80.2185 141.278C79.8639 140.662 79.6865 139.915 79.6865 139.038V133.172H82.0805ZM94.7616 143L92.7176 139.29H92.1436V143H89.7496V133.172H93.7676C94.5423 133.172 95.2003 133.307 95.7416 133.578C96.2923 133.849 96.703 134.222 96.9736 134.698C97.2443 135.165 97.3796 135.687 97.3796 136.266C97.3796 136.919 97.193 137.503 96.8196 138.016C96.4556 138.529 95.9143 138.893 95.1956 139.108L97.4636 143H94.7616ZM92.1436 137.596H93.6276C94.0663 137.596 94.393 137.489 94.6076 137.274C94.8316 137.059 94.9436 136.756 94.9436 136.364C94.9436 135.991 94.8316 135.697 94.6076 135.482C94.393 135.267 94.0663 135.16 93.6276 135.16H92.1436V137.596ZM101.426 135.09V137.078H104.632V138.926H101.426V141.082H105.052V143H99.0325V133.172H105.052V135.09H101.426ZM115.823 137.96C116.393 138.081 116.85 138.366 117.195 138.814C117.541 139.253 117.713 139.757 117.713 140.326C117.713 141.147 117.424 141.801 116.845 142.286C116.276 142.762 115.478 143 114.451 143H109.873V133.172H114.297C115.296 133.172 116.075 133.401 116.635 133.858C117.205 134.315 117.489 134.936 117.489 135.72C117.489 136.299 117.335 136.779 117.027 137.162C116.729 137.545 116.327 137.811 115.823 137.96ZM112.267 137.148H113.835C114.227 137.148 114.526 137.064 114.731 136.896C114.946 136.719 115.053 136.462 115.053 136.126C115.053 135.79 114.946 135.533 114.731 135.356C114.526 135.179 114.227 135.09 113.835 135.09H112.267V137.148ZM114.031 141.068C114.433 141.068 114.741 140.979 114.955 140.802C115.179 140.615 115.291 140.349 115.291 140.004C115.291 139.659 115.175 139.388 114.941 139.192C114.717 138.996 114.405 138.898 114.003 138.898H112.267V141.068H114.031ZM121.604 133.172V139.052C121.604 139.64 121.749 140.093 122.038 140.41C122.327 140.727 122.752 140.886 123.312 140.886C123.872 140.886 124.301 140.727 124.6 140.41C124.899 140.093 125.048 139.64 125.048 139.052V133.172H127.442V139.038C127.442 139.915 127.255 140.657 126.882 141.264C126.509 141.871 126.005 142.328 125.37 142.636C124.745 142.944 124.045 143.098 123.27 143.098C122.495 143.098 121.8 142.949 121.184 142.65C120.577 142.342 120.097 141.885 119.742 141.278C119.387 140.662 119.21 139.915 119.21 139.038V133.172H121.604ZM131.667 133.172V143H129.273V133.172H131.667ZM135.946 141.152H139.082V143H133.552V133.172H135.946V141.152ZM144.056 133.172C145.092 133.172 145.997 133.377 146.772 133.788C147.547 134.199 148.144 134.777 148.564 135.524C148.993 136.261 149.208 137.115 149.208 138.086C149.208 139.047 148.993 139.901 148.564 140.648C148.144 141.395 147.542 141.973 146.758 142.384C145.983 142.795 145.083 143 144.056 143H140.374V133.172H144.056ZM143.902 140.928C144.807 140.928 145.512 140.681 146.016 140.186C146.52 139.691 146.772 138.991 146.772 138.086C146.772 137.181 146.52 136.476 146.016 135.972C145.512 135.468 144.807 135.216 143.902 135.216H142.768V140.928H143.902ZM154.252 143.098C153.533 143.098 152.889 142.981 152.32 142.748C151.75 142.515 151.293 142.169 150.948 141.712C150.612 141.255 150.434 140.704 150.416 140.06H152.964C153.001 140.424 153.127 140.704 153.342 140.9C153.556 141.087 153.836 141.18 154.182 141.18C154.536 141.18 154.816 141.101 155.022 140.942C155.227 140.774 155.33 140.545 155.33 140.256C155.33 140.013 155.246 139.813 155.078 139.654C154.919 139.495 154.718 139.365 154.476 139.262C154.242 139.159 153.906 139.043 153.468 138.912C152.833 138.716 152.315 138.52 151.914 138.324C151.512 138.128 151.167 137.839 150.878 137.456C150.588 137.073 150.444 136.574 150.444 135.958C150.444 135.043 150.775 134.329 151.438 133.816C152.1 133.293 152.964 133.032 154.028 133.032C155.11 133.032 155.983 133.293 156.646 133.816C157.308 134.329 157.663 135.048 157.71 135.972H155.12C155.101 135.655 154.984 135.407 154.77 135.23C154.555 135.043 154.28 134.95 153.944 134.95C153.654 134.95 153.421 135.029 153.244 135.188C153.066 135.337 152.978 135.557 152.978 135.846C152.978 136.163 153.127 136.411 153.426 136.588C153.724 136.765 154.191 136.957 154.826 137.162C155.46 137.377 155.974 137.582 156.366 137.778C156.767 137.974 157.112 138.259 157.402 138.632C157.691 139.005 157.836 139.486 157.836 140.074C157.836 140.634 157.691 141.143 157.402 141.6C157.122 142.057 156.711 142.421 156.17 142.692C155.628 142.963 154.989 143.098 154.252 143.098Z" fill="#000E41"/>
<path d="M39.8371 206.098C39.1184 206.098 38.4744 205.981 37.9051 205.748C37.3358 205.515 36.8784 205.169 36.5331 204.712C36.1971 204.255 36.0198 203.704 36.0011 203.06H38.5491C38.5864 203.424 38.7124 203.704 38.9271 203.9C39.1418 204.087 39.4218 204.18 39.7671 204.18C40.1218 204.18 40.4018 204.101 40.6071 203.942C40.8124 203.774 40.9151 203.545 40.9151 203.256C40.9151 203.013 40.8311 202.813 40.6631 202.654C40.5044 202.495 40.3038 202.365 40.0611 202.262C39.8278 202.159 39.4918 202.043 39.0531 201.912C38.4184 201.716 37.9004 201.52 37.4991 201.324C37.0978 201.128 36.7524 200.839 36.4631 200.456C36.1738 200.073 36.0291 199.574 36.0291 198.958C36.0291 198.043 36.3604 197.329 37.0231 196.816C37.6858 196.293 38.5491 196.032 39.6131 196.032C40.6958 196.032 41.5684 196.293 42.2311 196.816C42.8938 197.329 43.2484 198.048 43.2951 198.972H40.7051C40.6864 198.655 40.5698 198.407 40.3551 198.23C40.1404 198.043 39.8651 197.95 39.5291 197.95C39.2398 197.95 39.0064 198.029 38.8291 198.188C38.6518 198.337 38.5631 198.557 38.5631 198.846C38.5631 199.163 38.7124 199.411 39.0111 199.588C39.3098 199.765 39.7764 199.957 40.4111 200.162C41.0458 200.377 41.5591 200.582 41.9511 200.778C42.3524 200.974 42.6978 201.259 42.9871 201.632C43.2764 202.005 43.4211 202.486 43.4211 203.074C43.4211 203.634 43.2764 204.143 42.9871 204.6C42.7071 205.057 42.2964 205.421 41.7551 205.692C41.2138 205.963 40.5744 206.098 39.8371 206.098ZM47.4384 198.09V200.078H50.6444V201.926H47.4384V204.082H51.0644V206H45.0444V196.172H51.0644V198.09H47.4384ZM52.3626 201.072C52.3626 200.101 52.5726 199.238 52.9926 198.482C53.4126 197.717 53.9959 197.124 54.7426 196.704C55.4986 196.275 56.3526 196.06 57.3046 196.06C58.4713 196.06 59.4699 196.368 60.3006 196.984C61.1313 197.6 61.6866 198.44 61.9666 199.504H59.3346C59.1386 199.093 58.8586 198.781 58.4946 198.566C58.1399 198.351 57.7339 198.244 57.2766 198.244C56.5393 198.244 55.9419 198.501 55.4846 199.014C55.0273 199.527 54.7986 200.213 54.7986 201.072C54.7986 201.931 55.0273 202.617 55.4846 203.13C55.9419 203.643 56.5393 203.9 57.2766 203.9C57.7339 203.9 58.1399 203.793 58.4946 203.578C58.8586 203.363 59.1386 203.051 59.3346 202.64H61.9666C61.6866 203.704 61.1313 204.544 60.3006 205.16C59.4699 205.767 58.4713 206.07 57.3046 206.07C56.3526 206.07 55.4986 205.86 54.7426 205.44C53.9959 205.011 53.4126 204.418 52.9926 203.662C52.5726 202.906 52.3626 202.043 52.3626 201.072ZM65.9346 196.172V202.052C65.9346 202.64 66.0793 203.093 66.3686 203.41C66.658 203.727 67.0826 203.886 67.6426 203.886C68.2026 203.886 68.632 203.727 68.9306 203.41C69.2293 203.093 69.3786 202.64 69.3786 202.052V196.172H71.7726V202.038C71.7726 202.915 71.586 203.657 71.2126 204.264C70.8393 204.871 70.3353 205.328 69.7006 205.636C69.0753 205.944 68.3753 206.098 67.6006 206.098C66.826 206.098 66.1306 205.949 65.5146 205.65C64.908 205.342 64.4273 204.885 64.0726 204.278C63.718 203.662 63.5406 202.915 63.5406 202.038V196.172H65.9346ZM78.6157 206L76.5717 202.29H75.9977V206H73.6037V196.172H77.6217C78.3964 196.172 79.0544 196.307 79.5957 196.578C80.1464 196.849 80.5571 197.222 80.8277 197.698C81.0984 198.165 81.2337 198.687 81.2337 199.266C81.2337 199.919 81.0471 200.503 80.6737 201.016C80.3097 201.529 79.7684 201.893 79.0497 202.108L81.3177 206H78.6157ZM75.9977 200.596H77.4817C77.9204 200.596 78.2471 200.489 78.4617 200.274C78.6857 200.059 78.7977 199.756 78.7977 199.364C78.7977 198.991 78.6857 198.697 78.4617 198.482C78.2471 198.267 77.9204 198.16 77.4817 198.16H75.9977V200.596ZM85.2806 198.09V200.078H88.4866V201.926H85.2806V204.082H88.9066V206H82.8866V196.172H88.9066V198.09H85.2806ZM101.218 199.336C101.218 199.905 101.087 200.428 100.826 200.904C100.564 201.371 100.163 201.749 99.6216 202.038C99.0802 202.327 98.4082 202.472 97.6056 202.472H96.1216V206H93.7276V196.172H97.6056C98.3896 196.172 99.0522 196.307 99.5936 196.578C100.135 196.849 100.541 197.222 100.812 197.698C101.082 198.174 101.218 198.72 101.218 199.336ZM97.4236 200.568C97.8809 200.568 98.2216 200.461 98.4456 200.246C98.6696 200.031 98.7816 199.728 98.7816 199.336C98.7816 198.944 98.6696 198.641 98.4456 198.426C98.2216 198.211 97.8809 198.104 97.4236 198.104H96.1216V200.568H97.4236ZM107.626 206L105.582 202.29H105.008V206H102.614V196.172H106.632C107.407 196.172 108.065 196.307 108.606 196.578C109.157 196.849 109.567 197.222 109.838 197.698C110.109 198.165 110.244 198.687 110.244 199.266C110.244 199.919 110.057 200.503 109.684 201.016C109.32 201.529 108.779 201.893 108.06 202.108L110.328 206H107.626ZM105.008 200.596H106.492C106.931 200.596 107.257 200.489 107.472 200.274C107.696 200.059 107.808 199.756 107.808 199.364C107.808 198.991 107.696 198.697 107.472 198.482C107.257 198.267 106.931 198.16 106.492 198.16H105.008V200.596ZM116.545 206.098C115.621 206.098 114.771 205.883 113.997 205.454C113.231 205.025 112.62 204.427 112.163 203.662C111.715 202.887 111.491 202.019 111.491 201.058C111.491 200.097 111.715 199.233 112.163 198.468C112.62 197.703 113.231 197.105 113.997 196.676C114.771 196.247 115.621 196.032 116.545 196.032C117.469 196.032 118.313 196.247 119.079 196.676C119.853 197.105 120.46 197.703 120.899 198.468C121.347 199.233 121.571 200.097 121.571 201.058C121.571 202.019 121.347 202.887 120.899 203.662C120.451 204.427 119.844 205.025 119.079 205.454C118.313 205.883 117.469 206.098 116.545 206.098ZM116.545 203.914C117.329 203.914 117.954 203.653 118.421 203.13C118.897 202.607 119.135 201.917 119.135 201.058C119.135 200.19 118.897 199.499 118.421 198.986C117.954 198.463 117.329 198.202 116.545 198.202C115.751 198.202 115.117 198.459 114.641 198.972C114.174 199.485 113.941 200.181 113.941 201.058C113.941 201.926 114.174 202.621 114.641 203.144C115.117 203.657 115.751 203.914 116.545 203.914ZM122.647 201.072C122.647 200.101 122.857 199.238 123.277 198.482C123.697 197.717 124.28 197.124 125.027 196.704C125.783 196.275 126.637 196.06 127.589 196.06C128.755 196.06 129.754 196.368 130.585 196.984C131.415 197.6 131.971 198.44 132.251 199.504H129.619C129.423 199.093 129.143 198.781 128.779 198.566C128.424 198.351 128.018 198.244 127.561 198.244C126.823 198.244 126.226 198.501 125.769 199.014C125.311 199.527 125.083 200.213 125.083 201.072C125.083 201.931 125.311 202.617 125.769 203.13C126.226 203.643 126.823 203.9 127.561 203.9C128.018 203.9 128.424 203.793 128.779 203.578C129.143 203.363 129.423 203.051 129.619 202.64H132.251C131.971 203.704 131.415 204.544 130.585 205.16C129.754 205.767 128.755 206.07 127.589 206.07C126.637 206.07 125.783 205.86 125.027 205.44C124.28 205.011 123.697 204.418 123.277 203.662C122.857 202.906 122.647 202.043 122.647 201.072ZM136.261 198.09V200.078H139.467V201.926H136.261V204.082H139.887V206H133.867V196.172H139.887V198.09H136.261ZM145.147 206.098C144.428 206.098 143.784 205.981 143.215 205.748C142.646 205.515 142.188 205.169 141.843 204.712C141.507 204.255 141.33 203.704 141.311 203.06H143.859C143.896 203.424 144.022 203.704 144.237 203.9C144.452 204.087 144.732 204.18 145.077 204.18C145.432 204.18 145.712 204.101 145.917 203.942C146.122 203.774 146.225 203.545 146.225 203.256C146.225 203.013 146.141 202.813 145.973 202.654C145.814 202.495 145.614 202.365 145.371 202.262C145.138 202.159 144.802 202.043 144.363 201.912C143.728 201.716 143.21 201.52 142.809 201.324C142.408 201.128 142.062 200.839 141.773 200.456C141.484 200.073 141.339 199.574 141.339 198.958C141.339 198.043 141.67 197.329 142.333 196.816C142.996 196.293 143.859 196.032 144.923 196.032C146.006 196.032 146.878 196.293 147.541 196.816C148.204 197.329 148.558 198.048 148.605 198.972H146.015C145.996 198.655 145.88 198.407 145.665 198.23C145.45 198.043 145.175 197.95 144.839 197.95C144.55 197.95 144.316 198.029 144.139 198.188C143.962 198.337 143.873 198.557 143.873 198.846C143.873 199.163 144.022 199.411 144.321 199.588C144.62 199.765 145.086 199.957 145.721 200.162C146.356 200.377 146.869 200.582 147.261 200.778C147.662 200.974 148.008 201.259 148.297 201.632C148.586 202.005 148.731 202.486 148.731 203.074C148.731 203.634 148.586 204.143 148.297 204.6C148.017 205.057 147.606 205.421 147.065 205.692C146.524 205.963 145.884 206.098 145.147 206.098ZM153.91 206.098C153.191 206.098 152.547 205.981 151.978 205.748C151.409 205.515 150.951 205.169 150.606 204.712C150.27 204.255 150.093 203.704 150.074 203.06H152.622C152.659 203.424 152.785 203.704 153 203.9C153.215 204.087 153.495 204.18 153.84 204.18C154.195 204.18 154.475 204.101 154.68 203.942C154.885 203.774 154.988 203.545 154.988 203.256C154.988 203.013 154.904 202.813 154.736 202.654C154.577 202.495 154.377 202.365 154.134 202.262C153.901 202.159 153.565 202.043 153.126 201.912C152.491 201.716 151.973 201.52 151.572 201.324C151.171 201.128 150.825 200.839 150.536 200.456C150.247 200.073 150.102 199.574 150.102 198.958C150.102 198.043 150.433 197.329 151.096 196.816C151.759 196.293 152.622 196.032 153.686 196.032C154.769 196.032 155.641 196.293 156.304 196.816C156.967 197.329 157.321 198.048 157.368 198.972H154.778C154.759 198.655 154.643 198.407 154.428 198.23C154.213 198.043 153.938 197.95 153.602 197.95C153.313 197.95 153.079 198.029 152.902 198.188C152.725 198.337 152.636 198.557 152.636 198.846C152.636 199.163 152.785 199.411 153.084 199.588C153.383 199.765 153.849 199.957 154.484 200.162C155.119 200.377 155.632 200.582 156.024 200.778C156.425 200.974 156.771 201.259 157.06 201.632C157.349 202.005 157.494 202.486 157.494 203.074C157.494 203.634 157.349 204.143 157.06 204.6C156.78 205.057 156.369 205.421 155.828 205.692C155.287 205.963 154.647 206.098 153.91 206.098ZM161.511 198.09V200.078H164.717V201.926H161.511V204.082H165.137V206H159.117V196.172H165.137V198.09H161.511ZM170.398 206.098C169.679 206.098 169.035 205.981 168.466 205.748C167.896 205.515 167.439 205.169 167.094 204.712C166.758 204.255 166.58 203.704 166.562 203.06H169.11C169.147 203.424 169.273 203.704 169.488 203.9C169.702 204.087 169.982 204.18 170.328 204.18C170.682 204.18 170.962 204.101 171.168 203.942C171.373 203.774 171.476 203.545 171.476 203.256C171.476 203.013 171.392 202.813 171.224 202.654C171.065 202.495 170.864 202.365 170.622 202.262C170.388 202.159 170.052 202.043 169.614 201.912C168.979 201.716 168.461 201.52 168.06 201.324C167.658 201.128 167.313 200.839 167.024 200.456C166.734 200.073 166.59 199.574 166.59 198.958C166.59 198.043 166.921 197.329 167.584 196.816C168.246 196.293 169.11 196.032 170.174 196.032C171.256 196.032 172.129 196.293 172.792 196.816C173.454 197.329 173.809 198.048 173.856 198.972H171.266C171.247 198.655 171.13 198.407 170.916 198.23C170.701 198.043 170.426 197.95 170.09 197.95C169.8 197.95 169.567 198.029 169.39 198.188C169.212 198.337 169.124 198.557 169.124 198.846C169.124 199.163 169.273 199.411 169.572 199.588C169.87 199.765 170.337 199.957 170.972 200.162C171.606 200.377 172.12 200.582 172.512 200.778C172.913 200.974 173.258 201.259 173.548 201.632C173.837 202.005 173.982 202.486 173.982 203.074C173.982 203.634 173.837 204.143 173.548 204.6C173.268 205.057 172.857 205.421 172.316 205.692C171.774 205.963 171.135 206.098 170.398 206.098Z" fill="#000E41"/>
<path d="M233.259 189.098C232.54 189.098 231.896 188.981 231.327 188.748C230.758 188.515 230.3 188.169 229.955 187.712C229.619 187.255 229.442 186.704 229.423 186.06H231.971C232.008 186.424 232.134 186.704 232.349 186.9C232.564 187.087 232.844 187.18 233.189 187.18C233.544 187.18 233.824 187.101 234.029 186.942C234.234 186.774 234.337 186.545 234.337 186.256C234.337 186.013 234.253 185.813 234.085 185.654C233.926 185.495 233.726 185.365 233.483 185.262C233.25 185.159 232.914 185.043 232.475 184.912C231.84 184.716 231.322 184.52 230.921 184.324C230.52 184.128 230.174 183.839 229.885 183.456C229.596 183.073 229.451 182.574 229.451 181.958C229.451 181.043 229.782 180.329 230.445 179.816C231.108 179.293 231.971 179.032 233.035 179.032C234.118 179.032 234.99 179.293 235.653 179.816C236.316 180.329 236.67 181.048 236.717 181.972H234.127C234.108 181.655 233.992 181.407 233.777 181.23C233.562 181.043 233.287 180.95 232.951 180.95C232.662 180.95 232.428 181.029 232.251 181.188C232.074 181.337 231.985 181.557 231.985 181.846C231.985 182.163 232.134 182.411 232.433 182.588C232.732 182.765 233.198 182.957 233.833 183.162C234.468 183.377 234.981 183.582 235.373 183.778C235.774 183.974 236.12 184.259 236.409 184.632C236.698 185.005 236.843 185.486 236.843 186.074C236.843 186.634 236.698 187.143 236.409 187.6C236.129 188.057 235.718 188.421 235.177 188.692C234.636 188.963 233.996 189.098 233.259 189.098ZM240.86 181.09V183.078H244.066V184.926H240.86V187.082H244.486V189H238.466V179.172H244.486V181.09H240.86ZM245.785 184.072C245.785 183.101 245.995 182.238 246.415 181.482C246.835 180.717 247.418 180.124 248.165 179.704C248.921 179.275 249.775 179.06 250.727 179.06C251.893 179.06 252.892 179.368 253.723 179.984C254.553 180.6 255.109 181.44 255.389 182.504H252.757C252.561 182.093 252.281 181.781 251.917 181.566C251.562 181.351 251.156 181.244 250.699 181.244C249.961 181.244 249.364 181.501 248.907 182.014C248.449 182.527 248.221 183.213 248.221 184.072C248.221 184.931 248.449 185.617 248.907 186.13C249.364 186.643 249.961 186.9 250.699 186.9C251.156 186.9 251.562 186.793 251.917 186.578C252.281 186.363 252.561 186.051 252.757 185.64H255.389C255.109 186.704 254.553 187.544 253.723 188.16C252.892 188.767 251.893 189.07 250.727 189.07C249.775 189.07 248.921 188.86 248.165 188.44C247.418 188.011 246.835 187.418 246.415 186.662C245.995 185.906 245.785 185.043 245.785 184.072ZM259.357 179.172V185.052C259.357 185.64 259.501 186.093 259.791 186.41C260.08 186.727 260.505 186.886 261.065 186.886C261.625 186.886 262.054 186.727 262.353 186.41C262.651 186.093 262.801 185.64 262.801 185.052V179.172H265.195V185.038C265.195 185.915 265.008 186.657 264.635 187.264C264.261 187.871 263.757 188.328 263.123 188.636C262.497 188.944 261.797 189.098 261.023 189.098C260.248 189.098 259.553 188.949 258.937 188.65C258.33 188.342 257.849 187.885 257.495 187.278C257.14 186.662 256.963 185.915 256.963 185.038V179.172H259.357ZM272.038 189L269.994 185.29H269.42V189H267.026V179.172H271.044C271.818 179.172 272.476 179.307 273.018 179.578C273.568 179.849 273.979 180.222 274.25 180.698C274.52 181.165 274.656 181.687 274.656 182.266C274.656 182.919 274.469 183.503 274.096 184.016C273.732 184.529 273.19 184.893 272.472 185.108L274.74 189H272.038ZM269.42 183.596H270.904C271.342 183.596 271.669 183.489 271.884 183.274C272.108 183.059 272.22 182.756 272.22 182.364C272.22 181.991 272.108 181.697 271.884 181.482C271.669 181.267 271.342 181.16 270.904 181.16H269.42V183.596ZM278.703 181.09V183.078H281.909V184.926H278.703V187.082H282.329V189H276.309V179.172H282.329V181.09H278.703ZM241.228 205.264H237.56L236.972 207H234.466L238.022 197.172H240.794L244.35 207H241.816L241.228 205.264ZM240.612 203.416L239.394 199.818L238.19 203.416H240.612ZM247.934 197.172V203.052C247.934 203.64 248.079 204.093 248.368 204.41C248.658 204.727 249.082 204.886 249.642 204.886C250.202 204.886 250.632 204.727 250.93 204.41C251.229 204.093 251.378 203.64 251.378 203.052V197.172H253.772V203.038C253.772 203.915 253.586 204.657 253.212 205.264C252.839 205.871 252.335 206.328 251.7 206.636C251.075 206.944 250.375 207.098 249.6 207.098C248.826 207.098 248.13 206.949 247.514 206.65C246.908 206.342 246.427 205.885 246.072 205.278C245.718 204.662 245.54 203.915 245.54 203.038V197.172H247.934ZM259.286 197.172C260.322 197.172 261.227 197.377 262.002 197.788C262.776 198.199 263.374 198.777 263.794 199.524C264.223 200.261 264.438 201.115 264.438 202.086C264.438 203.047 264.223 203.901 263.794 204.648C263.374 205.395 262.772 205.973 261.988 206.384C261.213 206.795 260.312 207 259.286 207H255.604V197.172H259.286ZM259.132 204.928C260.037 204.928 260.742 204.681 261.246 204.186C261.75 203.691 262.002 202.991 262.002 202.086C262.002 201.181 261.75 200.476 261.246 199.972C260.742 199.468 260.037 199.216 259.132 199.216H257.998V204.928H259.132ZM268.319 197.172V207H265.925V197.172H268.319ZM277.274 197.172V199.09H274.67V207H272.276V199.09H269.672V197.172H277.274ZM244.374 215.172V217.09H241.77V225H239.376V217.09H236.772V215.172H244.374ZM250.738 225L248.694 221.29H248.12V225H245.726V215.172H249.744C250.518 215.172 251.176 215.307 251.718 215.578C252.268 215.849 252.679 216.222 252.95 216.698C253.22 217.165 253.356 217.687 253.356 218.266C253.356 218.919 253.169 219.503 252.796 220.016C252.432 220.529 251.89 220.893 251.172 221.108L253.44 225H250.738ZM248.12 219.596H249.604C250.042 219.596 250.369 219.489 250.584 219.274C250.808 219.059 250.92 218.756 250.92 218.364C250.92 217.991 250.808 217.697 250.584 217.482C250.369 217.267 250.042 217.16 249.604 217.16H248.12V219.596ZM261.127 223.264H257.459L256.871 225H254.365L257.921 215.172H260.693L264.249 225H261.715L261.127 223.264ZM260.511 221.416L259.293 217.818L258.089 221.416H260.511ZM267.875 215.172V225H265.481V215.172H267.875ZM272.154 223.152H275.29V225H269.76V215.172H272.154V223.152Z" fill="#000D40"/>
<path d="M45.948 269.098C45.2294 269.098 44.5854 268.981 44.016 268.748C43.4467 268.515 42.9894 268.169 42.644 267.712C42.308 267.255 42.1307 266.704 42.112 266.06H44.66C44.6974 266.424 44.8234 266.704 45.038 266.9C45.2527 267.087 45.5327 267.18 45.878 267.18C46.2327 267.18 46.5127 267.101 46.718 266.942C46.9234 266.774 47.026 266.545 47.026 266.256C47.026 266.013 46.942 265.813 46.774 265.654C46.6154 265.495 46.4147 265.365 46.172 265.262C45.9387 265.159 45.6027 265.043 45.164 264.912C44.5294 264.716 44.0114 264.52 43.61 264.324C43.2087 264.128 42.8634 263.839 42.574 263.456C42.2847 263.073 42.14 262.574 42.14 261.958C42.14 261.043 42.4714 260.329 43.134 259.816C43.7967 259.293 44.66 259.032 45.724 259.032C46.8067 259.032 47.6794 259.293 48.342 259.816C49.0047 260.329 49.3594 261.048 49.406 261.972H46.816C46.7974 261.655 46.6807 261.407 46.466 261.23C46.2514 261.043 45.976 260.95 45.64 260.95C45.3507 260.95 45.1174 261.029 44.94 261.188C44.7627 261.337 44.674 261.557 44.674 261.846C44.674 262.163 44.8234 262.411 45.122 262.588C45.4207 262.765 45.8874 262.957 46.522 263.162C47.1567 263.377 47.67 263.582 48.062 263.778C48.4634 263.974 48.8087 264.259 49.098 264.632C49.3874 265.005 49.532 265.486 49.532 266.074C49.532 266.634 49.3874 267.143 49.098 267.6C48.818 268.057 48.4074 268.421 47.866 268.692C47.3247 268.963 46.6854 269.098 45.948 269.098ZM53.5493 261.09V263.078H56.7553V264.926H53.5493V267.082H57.1753V269H51.1553V259.172H57.1753V261.09H53.5493ZM58.4735 264.072C58.4735 263.101 58.6835 262.238 59.1035 261.482C59.5235 260.717 60.1069 260.124 60.8535 259.704C61.6095 259.275 62.4635 259.06 63.4155 259.06C64.5822 259.06 65.5809 259.368 66.4115 259.984C67.2422 260.6 67.7975 261.44 68.0775 262.504H65.4455C65.2495 262.093 64.9695 261.781 64.6055 261.566C64.2509 261.351 63.8449 261.244 63.3875 261.244C62.6502 261.244 62.0529 261.501 61.5955 262.014C61.1382 262.527 60.9095 263.213 60.9095 264.072C60.9095 264.931 61.1382 265.617 61.5955 266.13C62.0529 266.643 62.6502 266.9 63.3875 266.9C63.8449 266.9 64.2509 266.793 64.6055 266.578C64.9695 266.363 65.2495 266.051 65.4455 265.64H68.0775C67.7975 266.704 67.2422 267.544 66.4115 268.16C65.5809 268.767 64.5822 269.07 63.4155 269.07C62.4635 269.07 61.6095 268.86 60.8535 268.44C60.1069 268.011 59.5235 267.418 59.1035 266.662C58.6835 265.906 58.4735 265.043 58.4735 264.072ZM72.0456 259.172V265.052C72.0456 265.64 72.1903 266.093 72.4796 266.41C72.7689 266.727 73.1936 266.886 73.7536 266.886C74.3136 266.886 74.7429 266.727 75.0416 266.41C75.3403 266.093 75.4896 265.64 75.4896 265.052V259.172H77.8836V265.038C77.8836 265.915 77.6969 266.657 77.3236 267.264C76.9503 267.871 76.4463 268.328 75.8116 268.636C75.1863 268.944 74.4863 269.098 73.7116 269.098C72.9369 269.098 72.2416 268.949 71.6256 268.65C71.0189 268.342 70.5383 267.885 70.1836 267.278C69.8289 266.662 69.6516 265.915 69.6516 265.038V259.172H72.0456ZM84.7267 269L82.6827 265.29H82.1087V269H79.7147V259.172H83.7327C84.5073 259.172 85.1653 259.307 85.7067 259.578C86.2573 259.849 86.668 260.222 86.9387 260.698C87.2093 261.165 87.3447 261.687 87.3447 262.266C87.3447 262.919 87.158 263.503 86.7847 264.016C86.4207 264.529 85.8793 264.893 85.1607 265.108L87.4287 269H84.7267ZM82.1087 263.596H83.5927C84.0313 263.596 84.358 263.489 84.5727 263.274C84.7967 263.059 84.9087 262.756 84.9087 262.364C84.9087 261.991 84.7967 261.697 84.5727 261.482C84.358 261.267 84.0313 261.16 83.5927 261.16H82.1087V263.596ZM91.3915 261.09V263.078H94.5975V264.926H91.3915V267.082H95.0175V269H88.9975V259.172H95.0175V261.09H91.3915ZM99.4325 264.072C99.4325 263.101 99.6425 262.238 100.063 261.482C100.483 260.717 101.066 260.124 101.813 259.704C102.569 259.275 103.423 259.06 104.375 259.06C105.541 259.06 106.54 259.368 107.371 259.984C108.201 260.6 108.757 261.44 109.037 262.504H106.405C106.209 262.093 105.929 261.781 105.565 261.566C105.21 261.351 104.804 261.244 104.347 261.244C103.609 261.244 103.012 261.501 102.555 262.014C102.097 262.527 101.869 263.213 101.869 264.072C101.869 264.931 102.097 265.617 102.555 266.13C103.012 266.643 103.609 266.9 104.347 266.9C104.804 266.9 105.21 266.793 105.565 266.578C105.929 266.363 106.209 266.051 106.405 265.64H109.037C108.757 266.704 108.201 267.544 107.371 268.16C106.54 268.767 105.541 269.07 104.375 269.07C103.423 269.07 102.569 268.86 101.813 268.44C101.066 268.011 100.483 267.418 100.063 266.662C99.6425 265.906 99.4325 265.043 99.4325 264.072ZM119.165 259.172V269H116.771V264.954H113.047V269H110.653V259.172H113.047V263.022H116.771V259.172H119.165ZM127.161 267.264H123.493L122.905 269H120.399L123.955 259.172H126.727L130.283 269H127.749L127.161 267.264ZM126.545 265.416L125.327 261.818L124.123 265.416H126.545ZM140.307 269H137.913L133.909 262.938V269H131.515V259.172H133.909L137.913 265.262V259.172H140.307V269ZM148.716 262.28C148.539 261.953 148.282 261.706 147.946 261.538C147.62 261.361 147.232 261.272 146.784 261.272C146.01 261.272 145.389 261.529 144.922 262.042C144.456 262.546 144.222 263.223 144.222 264.072C144.222 264.977 144.465 265.687 144.95 266.2C145.445 266.704 146.122 266.956 146.98 266.956C147.568 266.956 148.063 266.807 148.464 266.508C148.875 266.209 149.174 265.78 149.36 265.22H146.322V263.456H151.53V265.682C151.353 266.279 151.05 266.835 150.62 267.348C150.2 267.861 149.664 268.277 149.01 268.594C148.357 268.911 147.62 269.07 146.798 269.07C145.828 269.07 144.96 268.86 144.194 268.44C143.438 268.011 142.846 267.418 142.416 266.662C141.996 265.906 141.786 265.043 141.786 264.072C141.786 263.101 141.996 262.238 142.416 261.482C142.846 260.717 143.438 260.124 144.194 259.704C144.95 259.275 145.814 259.06 146.784 259.06C147.96 259.06 148.95 259.345 149.752 259.914C150.564 260.483 151.101 261.272 151.362 262.28H148.716ZM155.4 261.09V263.078H158.606V264.926H155.4V267.082H159.026V269H153.006V259.172H159.026V261.09H155.4ZM164.287 269.098C163.568 269.098 162.924 268.981 162.355 268.748C161.785 268.515 161.328 268.169 160.983 267.712C160.647 267.255 160.469 266.704 160.451 266.06H162.999C163.036 266.424 163.162 266.704 163.377 266.9C163.591 267.087 163.871 267.18 164.217 267.18C164.571 267.18 164.851 267.101 165.057 266.942C165.262 266.774 165.365 266.545 165.365 266.256C165.365 266.013 165.281 265.813 165.113 265.654C164.954 265.495 164.753 265.365 164.511 265.262C164.277 265.159 163.941 265.043 163.503 264.912C162.868 264.716 162.35 264.52 161.949 264.324C161.547 264.128 161.202 263.839 160.913 263.456C160.623 263.073 160.479 262.574 160.479 261.958C160.479 261.043 160.81 260.329 161.473 259.816C162.135 259.293 162.999 259.032 164.063 259.032C165.145 259.032 166.018 259.293 166.681 259.816C167.343 260.329 167.698 261.048 167.745 261.972H165.155C165.136 261.655 165.019 261.407 164.805 261.23C164.59 261.043 164.315 260.95 163.979 260.95C163.689 260.95 163.456 261.029 163.279 261.188C163.101 261.337 163.013 261.557 163.013 261.846C163.013 262.163 163.162 262.411 163.461 262.588C163.759 262.765 164.226 262.957 164.861 263.162C165.495 263.377 166.009 263.582 166.401 263.778C166.802 263.974 167.147 264.259 167.437 264.632C167.726 265.005 167.871 265.486 167.871 266.074C167.871 266.634 167.726 267.143 167.437 267.6C167.157 268.057 166.746 268.421 166.205 268.692C165.663 268.963 165.024 269.098 164.287 269.098Z" fill="#000E41"/>
</svg>
