<svg width="318" height="305" viewBox="0 0 318 305" fill="none" xmlns="http://www.w3.org/2000/svg">
<rect x="2" y="100" width="314" height="203" rx="14" fill="#F7F9FC" stroke="#000E41" stroke-width="4" stroke-linecap="square"/>
<mask id="path-2-inside-1_615_1349" fill="white">
<path fill-rule="evenodd" clip-rule="evenodd" d="M236 102V81V79H235.976C234.914 35.189 199.066 0 155 0C110.934 0 75.0859 35.189 74.0242 79H74V81V102H101V85H101.002C101.001 84.8335 101 84.6668 101 84.5C101 54.4005 125.4 30 155.5 30C185.6 30 210 54.4005 210 84.5C210 84.6668 209.999 84.8335 209.998 85H210V102H236Z"/>
</mask>
<path fill-rule="evenodd" clip-rule="evenodd" d="M236 102V81V79H235.976C234.914 35.189 199.066 0 155 0C110.934 0 75.0859 35.189 74.0242 79H74V81V102H101V85H101.002C101.001 84.8335 101 84.6668 101 84.5C101 54.4005 125.4 30 155.5 30C185.6 30 210 54.4005 210 84.5C210 84.6668 209.999 84.8335 209.998 85H210V102H236Z" fill="#F7F9FC"/>
<path d="M236 102V106H240V102H236ZM236 79H240V75H236V79ZM235.976 79L231.977 79.0969L232.072 83H235.976V79ZM74.0242 79V83H77.9285L78.023 79.0969L74.0242 79ZM74 79V75H70V79H74ZM74 102H70V106H74V102ZM101 102V106H105V102H101ZM101 85V81H97V85H101ZM101.002 85V89H105.038L105.002 84.964L101.002 85ZM209.998 85L205.998 84.9641L205.962 89H209.998V85ZM210 85H214V81H210V85ZM210 102H206V106H210V102ZM240 102V81H232V102H240ZM240 81V79H232V81H240ZM236 75H235.976V83H236V75ZM239.975 78.9031C238.86 32.9267 201.243 -4 155 -4V4C196.89 4 230.968 37.4514 231.977 79.0969L239.975 78.9031ZM155 -4C108.757 -4 71.1395 32.9267 70.0254 78.9031L78.023 79.0969C79.0322 37.4514 113.11 4 155 4V-4ZM74.0242 75H74V83H74.0242V75ZM70 79V81H78V79H70ZM70 81V102H78V81H70ZM74 106H101V98H74V106ZM105 102V85H97V102H105ZM101 89H101.002V81H101V89ZM105.002 84.964C105.001 84.8095 105 84.6549 105 84.5H97C97 84.6788 97.0008 84.8575 97.0024 85.036L105.002 84.964ZM105 84.5C105 56.6096 127.61 34 155.5 34V26C123.191 26 97 52.1913 97 84.5H105ZM155.5 34C183.39 34 206 56.6096 206 84.5H214C214 52.1913 187.809 26 155.5 26V34ZM206 84.5C206 84.6549 205.999 84.8096 205.998 84.9641L213.998 85.0359C213.999 84.8574 214 84.6788 214 84.5H206ZM209.998 89H210V81H209.998V89ZM206 85V102H214V85H206ZM210 106H236V98H210V106Z" fill="#000E41" mask="url(#path-2-inside-1_615_1349)"/>
<rect x="12" y="293" width="56" height="186" rx="8" transform="rotate(-90 12 293)" fill="#2459D1"/>
<rect x="206" y="293" width="184" height="100" rx="8" transform="rotate(-90 206 293)" fill="#29B57D"/>
<rect x="12" y="229" width="56" height="186" rx="8" transform="rotate(-90 12 229)" fill="#2459D1"/>
<rect x="12" y="229" width="56" height="186" rx="8" transform="rotate(-90 12 229)" fill="white" fill-opacity="0.3"/>
<path d="M20 165C15.5817 165 12 161.418 12 157L12 117C12 112.582 15.5817 109 20 109L190 109C194.418 109 198 112.582 198 117L198 157C198 161.418 194.418 165 190 165L20 165Z" fill="#2459D1"/>
<path d="M20 165C15.5817 165 12 161.418 12 157L12 117C12 112.582 15.5817 109 20 109L190 109C194.418 109 198 112.582 198 117L198 157C198 161.418 194.418 165 190 165L20 165Z" fill="white" fill-opacity="0.5"/>
<path d="M49.072 143.098C48.3534 143.098 47.7094 142.981 47.14 142.748C46.5707 142.515 46.1134 142.169 45.768 141.712C45.432 141.255 45.2547 140.704 45.236 140.06H47.784C47.8214 140.424 47.9474 140.704 48.162 140.9C48.3767 141.087 48.6567 141.18 49.002 141.18C49.3567 141.18 49.6367 141.101 49.842 140.942C50.0474 140.774 50.15 140.545 50.15 140.256C50.15 140.013 50.066 139.813 49.898 139.654C49.7394 139.495 49.5387 139.365 49.296 139.262C49.0627 139.159 48.7267 139.043 48.288 138.912C47.6534 138.716 47.1354 138.52 46.734 138.324C46.3327 138.128 45.9874 137.839 45.698 137.456C45.4087 137.073 45.264 136.574 45.264 135.958C45.264 135.043 45.5954 134.329 46.258 133.816C46.9207 133.293 47.784 133.032 48.848 133.032C49.9307 133.032 50.8034 133.293 51.466 133.816C52.1287 134.329 52.4834 135.048 52.53 135.972H49.94C49.9214 135.655 49.8047 135.407 49.59 135.23C49.3754 135.043 49.1 134.95 48.764 134.95C48.4747 134.95 48.2414 135.029 48.064 135.188C47.8867 135.337 47.798 135.557 47.798 135.846C47.798 136.163 47.9474 136.411 48.246 136.588C48.5447 136.765 49.0114 136.957 49.646 137.162C50.2807 137.377 50.794 137.582 51.186 137.778C51.5874 137.974 51.9327 138.259 52.222 138.632C52.5114 139.005 52.656 139.486 52.656 140.074C52.656 140.634 52.5114 141.143 52.222 141.6C51.942 142.057 51.5314 142.421 50.99 142.692C50.4487 142.963 49.8094 143.098 49.072 143.098ZM56.6733 135.09V137.078H59.8793V138.926H56.6733V141.082H60.2993V143H54.2793V133.172H60.2993V135.09H56.6733ZM61.5975 138.072C61.5975 137.101 61.8075 136.238 62.2275 135.482C62.6475 134.717 63.2309 134.124 63.9775 133.704C64.7335 133.275 65.5875 133.06 66.5395 133.06C67.7062 133.06 68.7049 133.368 69.5355 133.984C70.3662 134.6 70.9215 135.44 71.2015 136.504H68.5695C68.3735 136.093 68.0935 135.781 67.7295 135.566C67.3749 135.351 66.9689 135.244 66.5115 135.244C65.7742 135.244 65.1769 135.501 64.7195 136.014C64.2622 136.527 64.0335 137.213 64.0335 138.072C64.0335 138.931 64.2622 139.617 64.7195 140.13C65.1769 140.643 65.7742 140.9 66.5115 140.9C66.9689 140.9 67.3749 140.793 67.7295 140.578C68.0935 140.363 68.3735 140.051 68.5695 139.64H71.2015C70.9215 140.704 70.3662 141.544 69.5355 142.16C68.7049 142.767 67.7062 143.07 66.5395 143.07C65.5875 143.07 64.7335 142.86 63.9775 142.44C63.2309 142.011 62.6475 141.418 62.2275 140.662C61.8075 139.906 61.5975 139.043 61.5975 138.072ZM75.1696 133.172V139.052C75.1696 139.64 75.3143 140.093 75.6036 140.41C75.8929 140.727 76.3176 140.886 76.8776 140.886C77.4376 140.886 77.8669 140.727 78.1656 140.41C78.4643 140.093 78.6136 139.64 78.6136 139.052V133.172H81.0076V139.038C81.0076 139.915 80.8209 140.657 80.4476 141.264C80.0743 141.871 79.5703 142.328 78.9356 142.636C78.3103 142.944 77.6103 143.098 76.8356 143.098C76.0609 143.098 75.3656 142.949 74.7496 142.65C74.1429 142.342 73.6623 141.885 73.3076 141.278C72.9529 140.662 72.7756 139.915 72.7756 139.038V133.172H75.1696ZM87.8507 143L85.8067 139.29H85.2327V143H82.8387V133.172H86.8567C87.6314 133.172 88.2894 133.307 88.8307 133.578C89.3814 133.849 89.792 134.222 90.0627 134.698C90.3334 135.165 90.4687 135.687 90.4687 136.266C90.4687 136.919 90.282 137.503 89.9087 138.016C89.5447 138.529 89.0034 138.893 88.2847 139.108L90.5527 143H87.8507ZM85.2327 137.596H86.7167C87.1554 137.596 87.482 137.489 87.6967 137.274C87.9207 137.059 88.0327 136.756 88.0327 136.364C88.0327 135.991 87.9207 135.697 87.6967 135.482C87.482 135.267 87.1554 135.16 86.7167 135.16H85.2327V137.596ZM94.5155 135.09V137.078H97.7215V138.926H94.5155V141.082H98.1415V143H92.1215V133.172H98.1415V135.09H94.5155ZM107.975 143L105.931 139.29H105.357V143H102.963V133.172H106.981C107.755 133.172 108.413 133.307 108.955 133.578C109.505 133.849 109.916 134.222 110.187 134.698C110.457 135.165 110.593 135.687 110.593 136.266C110.593 136.919 110.406 137.503 110.033 138.016C109.669 138.529 109.127 138.893 108.409 139.108L110.677 143H107.975ZM105.357 137.596H106.841C107.279 137.596 107.606 137.489 107.821 137.274C108.045 137.059 108.157 136.756 108.157 136.364C108.157 135.991 108.045 135.697 107.821 135.482C107.606 135.267 107.279 135.16 106.841 135.16H105.357V137.596ZM114.597 133.172V139.052C114.597 139.64 114.742 140.093 115.031 140.41C115.321 140.727 115.745 140.886 116.305 140.886C116.865 140.886 117.295 140.727 117.593 140.41C117.892 140.093 118.041 139.64 118.041 139.052V133.172H120.435V139.038C120.435 139.915 120.249 140.657 119.875 141.264C119.502 141.871 118.998 142.328 118.363 142.636C117.738 142.944 117.038 143.098 116.263 143.098C115.489 143.098 114.793 142.949 114.177 142.65C113.571 142.342 113.09 141.885 112.735 141.278C112.381 140.662 112.203 139.915 112.203 139.038V133.172H114.597ZM131.058 143H128.664L124.66 136.938V143H122.266V133.172H124.66L128.664 139.262V133.172H131.058V143ZM140.014 133.172V135.09H137.41V143H135.016V135.09H132.412V133.172H140.014ZM143.759 133.172V143H141.365V133.172H143.759ZM156.774 133.172V143H154.38V137.106L152.182 143H150.25L148.038 137.092V143H145.644V133.172H148.472L151.23 139.976L153.96 133.172H156.774ZM161.04 135.09V137.078H164.246V138.926H161.04V141.082H164.666V143H158.646V133.172H164.666V135.09H161.04Z" fill="#000E41"/>
<path d="M48.0808 206.098C47.3622 206.098 46.7182 205.981 46.1488 205.748C45.5795 205.515 45.1222 205.169 44.7768 204.712C44.4408 204.255 44.2635 203.704 44.2448 203.06H46.7928C46.8302 203.424 46.9562 203.704 47.1708 203.9C47.3855 204.087 47.6655 204.18 48.0108 204.18C48.3655 204.18 48.6455 204.101 48.8508 203.942C49.0562 203.774 49.1588 203.545 49.1588 203.256C49.1588 203.013 49.0748 202.813 48.9068 202.654C48.7482 202.495 48.5475 202.365 48.3048 202.262C48.0715 202.159 47.7355 202.043 47.2968 201.912C46.6622 201.716 46.1442 201.52 45.7428 201.324C45.3415 201.128 44.9962 200.839 44.7068 200.456C44.4175 200.073 44.2728 199.574 44.2728 198.958C44.2728 198.043 44.6042 197.329 45.2668 196.816C45.9295 196.293 46.7928 196.032 47.8568 196.032C48.9395 196.032 49.8122 196.293 50.4748 196.816C51.1375 197.329 51.4922 198.048 51.5388 198.972H48.9488C48.9302 198.655 48.8135 198.407 48.5988 198.23C48.3842 198.043 48.1088 197.95 47.7728 197.95C47.4835 197.95 47.2502 198.029 47.0728 198.188C46.8955 198.337 46.8068 198.557 46.8068 198.846C46.8068 199.163 46.9562 199.411 47.2548 199.588C47.5535 199.765 48.0202 199.957 48.6548 200.162C49.2895 200.377 49.8028 200.582 50.1948 200.778C50.5962 200.974 50.9415 201.259 51.2308 201.632C51.5202 202.005 51.6648 202.486 51.6648 203.074C51.6648 203.634 51.5202 204.143 51.2308 204.6C50.9508 205.057 50.5402 205.421 49.9988 205.692C49.4575 205.963 48.8182 206.098 48.0808 206.098ZM55.6821 198.09V200.078H58.8881V201.926H55.6821V204.082H59.3081V206H53.2881V196.172H59.3081V198.09H55.6821ZM60.6063 201.072C60.6063 200.101 60.8163 199.238 61.2363 198.482C61.6563 197.717 62.2397 197.124 62.9863 196.704C63.7423 196.275 64.5963 196.06 65.5483 196.06C66.715 196.06 67.7137 196.368 68.5443 196.984C69.375 197.6 69.9303 198.44 70.2103 199.504H67.5783C67.3823 199.093 67.1023 198.781 66.7383 198.566C66.3837 198.351 65.9777 198.244 65.5203 198.244C64.783 198.244 64.1857 198.501 63.7283 199.014C63.271 199.527 63.0423 200.213 63.0423 201.072C63.0423 201.931 63.271 202.617 63.7283 203.13C64.1857 203.643 64.783 203.9 65.5203 203.9C65.9777 203.9 66.3837 203.793 66.7383 203.578C67.1023 203.363 67.3823 203.051 67.5783 202.64H70.2103C69.9303 203.704 69.375 204.544 68.5443 205.16C67.7137 205.767 66.715 206.07 65.5483 206.07C64.5963 206.07 63.7423 205.86 62.9863 205.44C62.2397 205.011 61.6563 204.418 61.2363 203.662C60.8163 202.906 60.6063 202.043 60.6063 201.072ZM74.1784 196.172V202.052C74.1784 202.64 74.3231 203.093 74.6124 203.41C74.9017 203.727 75.3264 203.886 75.8864 203.886C76.4464 203.886 76.8757 203.727 77.1744 203.41C77.4731 203.093 77.6224 202.64 77.6224 202.052V196.172H80.0164V202.038C80.0164 202.915 79.8297 203.657 79.4564 204.264C79.0831 204.871 78.5791 205.328 77.9444 205.636C77.3191 205.944 76.6191 206.098 75.8444 206.098C75.0697 206.098 74.3744 205.949 73.7584 205.65C73.1517 205.342 72.6711 204.885 72.3164 204.278C71.9617 203.662 71.7844 202.915 71.7844 202.038V196.172H74.1784ZM86.8595 206L84.8155 202.29H84.2415V206H81.8475V196.172H85.8655C86.6402 196.172 87.2982 196.307 87.8395 196.578C88.3902 196.849 88.8008 197.222 89.0715 197.698C89.3422 198.165 89.4775 198.687 89.4775 199.266C89.4775 199.919 89.2908 200.503 88.9175 201.016C88.5535 201.529 88.0122 201.893 87.2935 202.108L89.5615 206H86.8595ZM84.2415 200.596H85.7255C86.1642 200.596 86.4908 200.489 86.7055 200.274C86.9295 200.059 87.0415 199.756 87.0415 199.364C87.0415 198.991 86.9295 198.697 86.7055 198.482C86.4908 198.267 86.1642 198.16 85.7255 198.16H84.2415V200.596ZM93.5243 198.09V200.078H96.7303V201.926H93.5243V204.082H97.1503V206H91.1303V196.172H97.1503V198.09H93.5243ZM109.461 199.336C109.461 199.905 109.331 200.428 109.069 200.904C108.808 201.371 108.407 201.749 107.865 202.038C107.324 202.327 106.652 202.472 105.849 202.472H104.365V206H101.971V196.172H105.849C106.633 196.172 107.296 196.307 107.837 196.578C108.379 196.849 108.785 197.222 109.055 197.698C109.326 198.174 109.461 198.72 109.461 199.336ZM105.667 200.568C106.125 200.568 106.465 200.461 106.689 200.246C106.913 200.031 107.025 199.728 107.025 199.336C107.025 198.944 106.913 198.641 106.689 198.426C106.465 198.211 106.125 198.104 105.667 198.104H104.365V200.568H105.667ZM115.87 206L113.826 202.29H113.252V206H110.858V196.172H114.876C115.65 196.172 116.308 196.307 116.85 196.578C117.4 196.849 117.811 197.222 118.082 197.698C118.352 198.165 118.488 198.687 118.488 199.266C118.488 199.919 118.301 200.503 117.928 201.016C117.564 201.529 117.022 201.893 116.304 202.108L118.572 206H115.87ZM113.252 200.596H114.736C115.174 200.596 115.501 200.489 115.716 200.274C115.94 200.059 116.052 199.756 116.052 199.364C116.052 198.991 115.94 198.697 115.716 198.482C115.501 198.267 115.174 198.16 114.736 198.16H113.252V200.596ZM124.788 206.098C123.864 206.098 123.015 205.883 122.24 205.454C121.475 205.025 120.864 204.427 120.406 203.662C119.958 202.887 119.734 202.019 119.734 201.058C119.734 200.097 119.958 199.233 120.406 198.468C120.864 197.703 121.475 197.105 122.24 196.676C123.015 196.247 123.864 196.032 124.788 196.032C125.712 196.032 126.557 196.247 127.322 196.676C128.097 197.105 128.704 197.703 129.142 198.468C129.59 199.233 129.814 200.097 129.814 201.058C129.814 202.019 129.59 202.887 129.142 203.662C128.694 204.427 128.088 205.025 127.322 205.454C126.557 205.883 125.712 206.098 124.788 206.098ZM124.788 203.914C125.572 203.914 126.198 203.653 126.664 203.13C127.14 202.607 127.378 201.917 127.378 201.058C127.378 200.19 127.14 199.499 126.664 198.986C126.198 198.463 125.572 198.202 124.788 198.202C123.995 198.202 123.36 198.459 122.884 198.972C122.418 199.485 122.184 200.181 122.184 201.058C122.184 201.926 122.418 202.621 122.884 203.144C123.36 203.657 123.995 203.914 124.788 203.914ZM130.89 201.072C130.89 200.101 131.1 199.238 131.52 198.482C131.94 197.717 132.524 197.124 133.27 196.704C134.026 196.275 134.88 196.06 135.832 196.06C136.999 196.06 137.998 196.368 138.828 196.984C139.659 197.6 140.214 198.44 140.494 199.504H137.862C137.666 199.093 137.386 198.781 137.022 198.566C136.668 198.351 136.262 198.244 135.804 198.244C135.067 198.244 134.47 198.501 134.012 199.014C133.555 199.527 133.326 200.213 133.326 201.072C133.326 201.931 133.555 202.617 134.012 203.13C134.47 203.643 135.067 203.9 135.804 203.9C136.262 203.9 136.668 203.793 137.022 203.578C137.386 203.363 137.666 203.051 137.862 202.64H140.494C140.214 203.704 139.659 204.544 138.828 205.16C137.998 205.767 136.999 206.07 135.832 206.07C134.88 206.07 134.026 205.86 133.27 205.44C132.524 205.011 131.94 204.418 131.52 203.662C131.1 202.906 130.89 202.043 130.89 201.072ZM144.504 198.09V200.078H147.71V201.926H144.504V204.082H148.13V206H142.11V196.172H148.13V198.09H144.504ZM153.391 206.098C152.672 206.098 152.028 205.981 151.459 205.748C150.889 205.515 150.432 205.169 150.087 204.712C149.751 204.255 149.573 203.704 149.555 203.06H152.103C152.14 203.424 152.266 203.704 152.481 203.9C152.695 204.087 152.975 204.18 153.321 204.18C153.675 204.18 153.955 204.101 154.161 203.942C154.366 203.774 154.469 203.545 154.469 203.256C154.469 203.013 154.385 202.813 154.217 202.654C154.058 202.495 153.857 202.365 153.615 202.262C153.381 202.159 153.045 202.043 152.607 201.912C151.972 201.716 151.454 201.52 151.053 201.324C150.651 201.128 150.306 200.839 150.017 200.456C149.727 200.073 149.583 199.574 149.583 198.958C149.583 198.043 149.914 197.329 150.577 196.816C151.239 196.293 152.103 196.032 153.167 196.032C154.249 196.032 155.122 196.293 155.785 196.816C156.447 197.329 156.802 198.048 156.849 198.972H154.259C154.24 198.655 154.123 198.407 153.909 198.23C153.694 198.043 153.419 197.95 153.083 197.95C152.793 197.95 152.56 198.029 152.383 198.188C152.205 198.337 152.117 198.557 152.117 198.846C152.117 199.163 152.266 199.411 152.565 199.588C152.863 199.765 153.33 199.957 153.965 200.162C154.599 200.377 155.113 200.582 155.505 200.778C155.906 200.974 156.251 201.259 156.541 201.632C156.83 202.005 156.975 202.486 156.975 203.074C156.975 203.634 156.83 204.143 156.541 204.6C156.261 205.057 155.85 205.421 155.309 205.692C154.767 205.963 154.128 206.098 153.391 206.098ZM162.154 206.098C161.435 206.098 160.791 205.981 160.222 205.748C159.653 205.515 159.195 205.169 158.85 204.712C158.514 204.255 158.337 203.704 158.318 203.06H160.866C160.903 203.424 161.029 203.704 161.244 203.9C161.459 204.087 161.739 204.18 162.084 204.18C162.439 204.18 162.719 204.101 162.924 203.942C163.129 203.774 163.232 203.545 163.232 203.256C163.232 203.013 163.148 202.813 162.98 202.654C162.821 202.495 162.621 202.365 162.378 202.262C162.145 202.159 161.809 202.043 161.37 201.912C160.735 201.716 160.217 201.52 159.816 201.324C159.415 201.128 159.069 200.839 158.78 200.456C158.491 200.073 158.346 199.574 158.346 198.958C158.346 198.043 158.677 197.329 159.34 196.816C160.003 196.293 160.866 196.032 161.93 196.032C163.013 196.032 163.885 196.293 164.548 196.816C165.211 197.329 165.565 198.048 165.612 198.972H163.022C163.003 198.655 162.887 198.407 162.672 198.23C162.457 198.043 162.182 197.95 161.846 197.95C161.557 197.95 161.323 198.029 161.146 198.188C160.969 198.337 160.88 198.557 160.88 198.846C160.88 199.163 161.029 199.411 161.328 199.588C161.627 199.765 162.093 199.957 162.728 200.162C163.363 200.377 163.876 200.582 164.268 200.778C164.669 200.974 165.015 201.259 165.304 201.632C165.593 202.005 165.738 202.486 165.738 203.074C165.738 203.634 165.593 204.143 165.304 204.6C165.024 205.057 164.613 205.421 164.072 205.692C163.531 205.963 162.891 206.098 162.154 206.098Z" fill="#000E41"/>
<path d="M233.259 189.098C232.54 189.098 231.896 188.981 231.327 188.748C230.758 188.515 230.3 188.169 229.955 187.712C229.619 187.255 229.442 186.704 229.423 186.06H231.971C232.008 186.424 232.134 186.704 232.349 186.9C232.564 187.087 232.844 187.18 233.189 187.18C233.544 187.18 233.824 187.101 234.029 186.942C234.234 186.774 234.337 186.545 234.337 186.256C234.337 186.013 234.253 185.813 234.085 185.654C233.926 185.495 233.726 185.365 233.483 185.262C233.25 185.159 232.914 185.043 232.475 184.912C231.84 184.716 231.322 184.52 230.921 184.324C230.52 184.128 230.174 183.839 229.885 183.456C229.596 183.073 229.451 182.574 229.451 181.958C229.451 181.043 229.782 180.329 230.445 179.816C231.108 179.293 231.971 179.032 233.035 179.032C234.118 179.032 234.99 179.293 235.653 179.816C236.316 180.329 236.67 181.048 236.717 181.972H234.127C234.108 181.655 233.992 181.407 233.777 181.23C233.562 181.043 233.287 180.95 232.951 180.95C232.662 180.95 232.428 181.029 232.251 181.188C232.074 181.337 231.985 181.557 231.985 181.846C231.985 182.163 232.134 182.411 232.433 182.588C232.732 182.765 233.198 182.957 233.833 183.162C234.468 183.377 234.981 183.582 235.373 183.778C235.774 183.974 236.12 184.259 236.409 184.632C236.698 185.005 236.843 185.486 236.843 186.074C236.843 186.634 236.698 187.143 236.409 187.6C236.129 188.057 235.718 188.421 235.177 188.692C234.636 188.963 233.996 189.098 233.259 189.098ZM240.86 181.09V183.078H244.066V184.926H240.86V187.082H244.486V189H238.466V179.172H244.486V181.09H240.86ZM245.785 184.072C245.785 183.101 245.995 182.238 246.415 181.482C246.835 180.717 247.418 180.124 248.165 179.704C248.921 179.275 249.775 179.06 250.727 179.06C251.893 179.06 252.892 179.368 253.723 179.984C254.553 180.6 255.109 181.44 255.389 182.504H252.757C252.561 182.093 252.281 181.781 251.917 181.566C251.562 181.351 251.156 181.244 250.699 181.244C249.961 181.244 249.364 181.501 248.907 182.014C248.449 182.527 248.221 183.213 248.221 184.072C248.221 184.931 248.449 185.617 248.907 186.13C249.364 186.643 249.961 186.9 250.699 186.9C251.156 186.9 251.562 186.793 251.917 186.578C252.281 186.363 252.561 186.051 252.757 185.64H255.389C255.109 186.704 254.553 187.544 253.723 188.16C252.892 188.767 251.893 189.07 250.727 189.07C249.775 189.07 248.921 188.86 248.165 188.44C247.418 188.011 246.835 187.418 246.415 186.662C245.995 185.906 245.785 185.043 245.785 184.072ZM259.357 179.172V185.052C259.357 185.64 259.501 186.093 259.791 186.41C260.08 186.727 260.505 186.886 261.065 186.886C261.625 186.886 262.054 186.727 262.353 186.41C262.651 186.093 262.801 185.64 262.801 185.052V179.172H265.195V185.038C265.195 185.915 265.008 186.657 264.635 187.264C264.261 187.871 263.757 188.328 263.123 188.636C262.497 188.944 261.797 189.098 261.023 189.098C260.248 189.098 259.553 188.949 258.937 188.65C258.33 188.342 257.849 187.885 257.495 187.278C257.14 186.662 256.963 185.915 256.963 185.038V179.172H259.357ZM272.038 189L269.994 185.29H269.42V189H267.026V179.172H271.044C271.818 179.172 272.476 179.307 273.018 179.578C273.568 179.849 273.979 180.222 274.25 180.698C274.52 181.165 274.656 181.687 274.656 182.266C274.656 182.919 274.469 183.503 274.096 184.016C273.732 184.529 273.19 184.893 272.472 185.108L274.74 189H272.038ZM269.42 183.596H270.904C271.342 183.596 271.669 183.489 271.884 183.274C272.108 183.059 272.22 182.756 272.22 182.364C272.22 181.991 272.108 181.697 271.884 181.482C271.669 181.267 271.342 181.16 270.904 181.16H269.42V183.596ZM278.703 181.09V183.078H281.909V184.926H278.703V187.082H282.329V189H276.309V179.172H282.329V181.09H278.703ZM241.228 205.264H237.56L236.972 207H234.466L238.022 197.172H240.794L244.35 207H241.816L241.228 205.264ZM240.612 203.416L239.394 199.818L238.19 203.416H240.612ZM247.934 197.172V203.052C247.934 203.64 248.079 204.093 248.368 204.41C248.658 204.727 249.082 204.886 249.642 204.886C250.202 204.886 250.632 204.727 250.93 204.41C251.229 204.093 251.378 203.64 251.378 203.052V197.172H253.772V203.038C253.772 203.915 253.586 204.657 253.212 205.264C252.839 205.871 252.335 206.328 251.7 206.636C251.075 206.944 250.375 207.098 249.6 207.098C248.826 207.098 248.13 206.949 247.514 206.65C246.908 206.342 246.427 205.885 246.072 205.278C245.718 204.662 245.54 203.915 245.54 203.038V197.172H247.934ZM259.286 197.172C260.322 197.172 261.227 197.377 262.002 197.788C262.776 198.199 263.374 198.777 263.794 199.524C264.223 200.261 264.438 201.115 264.438 202.086C264.438 203.047 264.223 203.901 263.794 204.648C263.374 205.395 262.772 205.973 261.988 206.384C261.213 206.795 260.312 207 259.286 207H255.604V197.172H259.286ZM259.132 204.928C260.037 204.928 260.742 204.681 261.246 204.186C261.75 203.691 262.002 202.991 262.002 202.086C262.002 201.181 261.75 200.476 261.246 199.972C260.742 199.468 260.037 199.216 259.132 199.216H257.998V204.928H259.132ZM268.319 197.172V207H265.925V197.172H268.319ZM277.274 197.172V199.09H274.67V207H272.276V199.09H269.672V197.172H277.274ZM244.374 215.172V217.09H241.77V225H239.376V217.09H236.772V215.172H244.374ZM250.738 225L248.694 221.29H248.12V225H245.726V215.172H249.744C250.518 215.172 251.176 215.307 251.718 215.578C252.268 215.849 252.679 216.222 252.95 216.698C253.22 217.165 253.356 217.687 253.356 218.266C253.356 218.919 253.169 219.503 252.796 220.016C252.432 220.529 251.89 220.893 251.172 221.108L253.44 225H250.738ZM248.12 219.596H249.604C250.042 219.596 250.369 219.489 250.584 219.274C250.808 219.059 250.92 218.756 250.92 218.364C250.92 217.991 250.808 217.697 250.584 217.482C250.369 217.267 250.042 217.16 249.604 217.16H248.12V219.596ZM261.127 223.264H257.459L256.871 225H254.365L257.921 215.172H260.693L264.249 225H261.715L261.127 223.264ZM260.511 221.416L259.293 217.818L258.089 221.416H260.511ZM267.875 215.172V225H265.481V215.172H267.875ZM272.154 223.152H275.29V225H269.76V215.172H272.154V223.152Z" fill="#000E41"/>
<path d="M55.983 269.098C55.2643 269.098 54.6203 268.981 54.051 268.748C53.4816 268.515 53.0243 268.169 52.679 267.712C52.343 267.255 52.1656 266.704 52.147 266.06H54.695C54.7323 266.424 54.8583 266.704 55.073 266.9C55.2876 267.087 55.5676 267.18 55.913 267.18C56.2676 267.18 56.5476 267.101 56.753 266.942C56.9583 266.774 57.061 266.545 57.061 266.256C57.061 266.013 56.977 265.813 56.809 265.654C56.6503 265.495 56.4496 265.365 56.207 265.262C55.9736 265.159 55.6376 265.043 55.199 264.912C54.5643 264.716 54.0463 264.52 53.645 264.324C53.2436 264.128 52.8983 263.839 52.609 263.456C52.3196 263.073 52.175 262.574 52.175 261.958C52.175 261.043 52.5063 260.329 53.169 259.816C53.8316 259.293 54.695 259.032 55.759 259.032C56.8416 259.032 57.7143 259.293 58.377 259.816C59.0396 260.329 59.3943 261.048 59.441 261.972H56.851C56.8323 261.655 56.7156 261.407 56.501 261.23C56.2863 261.043 56.011 260.95 55.675 260.95C55.3856 260.95 55.1523 261.029 54.975 261.188C54.7976 261.337 54.709 261.557 54.709 261.846C54.709 262.163 54.8583 262.411 55.157 262.588C55.4556 262.765 55.9223 262.957 56.557 263.162C57.1916 263.377 57.705 263.582 58.097 263.778C58.4983 263.974 58.8437 264.259 59.133 264.632C59.4223 265.005 59.567 265.486 59.567 266.074C59.567 266.634 59.4223 267.143 59.133 267.6C58.853 268.057 58.4423 268.421 57.901 268.692C57.3596 268.963 56.7203 269.098 55.983 269.098ZM63.5843 261.09V263.078H66.7903V264.926H63.5843V267.082H67.2103V269H61.1903V259.172H67.2103V261.09H63.5843ZM68.5085 264.072C68.5085 263.101 68.7185 262.238 69.1385 261.482C69.5585 260.717 70.1418 260.124 70.8885 259.704C71.6445 259.275 72.4985 259.06 73.4505 259.06C74.6171 259.06 75.6158 259.368 76.4465 259.984C77.2771 260.6 77.8325 261.44 78.1125 262.504H75.4805C75.2845 262.093 75.0045 261.781 74.6405 261.566C74.2858 261.351 73.8798 261.244 73.4225 261.244C72.6851 261.244 72.0878 261.501 71.6305 262.014C71.1731 262.527 70.9445 263.213 70.9445 264.072C70.9445 264.931 71.1731 265.617 71.6305 266.13C72.0878 266.643 72.6851 266.9 73.4225 266.9C73.8798 266.9 74.2858 266.793 74.6405 266.578C75.0045 266.363 75.2845 266.051 75.4805 265.64H78.1125C77.8325 266.704 77.2771 267.544 76.4465 268.16C75.6158 268.767 74.6171 269.07 73.4505 269.07C72.4985 269.07 71.6445 268.86 70.8885 268.44C70.1418 268.011 69.5585 267.418 69.1385 266.662C68.7185 265.906 68.5085 265.043 68.5085 264.072ZM82.0805 259.172V265.052C82.0805 265.64 82.2252 266.093 82.5146 266.41C82.8039 266.727 83.2286 266.886 83.7886 266.886C84.3486 266.886 84.7779 266.727 85.0766 266.41C85.3752 266.093 85.5246 265.64 85.5246 265.052V259.172H87.9186V265.038C87.9186 265.915 87.7319 266.657 87.3586 267.264C86.9852 267.871 86.4812 268.328 85.8466 268.636C85.2212 268.944 84.5212 269.098 83.7466 269.098C82.9719 269.098 82.2765 268.949 81.6605 268.65C81.0539 268.342 80.5732 267.885 80.2185 267.278C79.8639 266.662 79.6865 265.915 79.6865 265.038V259.172H82.0805ZM94.7616 269L92.7176 265.29H92.1436V269H89.7496V259.172H93.7676C94.5423 259.172 95.2003 259.307 95.7416 259.578C96.2923 259.849 96.703 260.222 96.9736 260.698C97.2443 261.165 97.3796 261.687 97.3796 262.266C97.3796 262.919 97.193 263.503 96.8196 264.016C96.4556 264.529 95.9143 264.893 95.1956 265.108L97.4636 269H94.7616ZM92.1436 263.596H93.6276C94.0663 263.596 94.393 263.489 94.6076 263.274C94.8316 263.059 94.9436 262.756 94.9436 262.364C94.9436 261.991 94.8316 261.697 94.6076 261.482C94.393 261.267 94.0663 261.16 93.6276 261.16H92.1436V263.596ZM101.426 261.09V263.078H104.632V264.926H101.426V267.082H105.052V269H99.0325V259.172H105.052V261.09H101.426ZM115.823 263.96C116.393 264.081 116.85 264.366 117.195 264.814C117.541 265.253 117.713 265.757 117.713 266.326C117.713 267.147 117.424 267.801 116.845 268.286C116.276 268.762 115.478 269 114.451 269H109.873V259.172H114.297C115.296 259.172 116.075 259.401 116.635 259.858C117.205 260.315 117.489 260.936 117.489 261.72C117.489 262.299 117.335 262.779 117.027 263.162C116.729 263.545 116.327 263.811 115.823 263.96ZM112.267 263.148H113.835C114.227 263.148 114.526 263.064 114.731 262.896C114.946 262.719 115.053 262.462 115.053 262.126C115.053 261.79 114.946 261.533 114.731 261.356C114.526 261.179 114.227 261.09 113.835 261.09H112.267V263.148ZM114.031 267.068C114.433 267.068 114.741 266.979 114.955 266.802C115.179 266.615 115.291 266.349 115.291 266.004C115.291 265.659 115.175 265.388 114.941 265.192C114.717 264.996 114.405 264.898 114.003 264.898H112.267V267.068H114.031ZM121.604 259.172V265.052C121.604 265.64 121.749 266.093 122.038 266.41C122.327 266.727 122.752 266.886 123.312 266.886C123.872 266.886 124.301 266.727 124.6 266.41C124.899 266.093 125.048 265.64 125.048 265.052V259.172H127.442V265.038C127.442 265.915 127.255 266.657 126.882 267.264C126.509 267.871 126.005 268.328 125.37 268.636C124.745 268.944 124.045 269.098 123.27 269.098C122.495 269.098 121.8 268.949 121.184 268.65C120.577 268.342 120.097 267.885 119.742 267.278C119.387 266.662 119.21 265.915 119.21 265.038V259.172H121.604ZM131.667 259.172V269H129.273V259.172H131.667ZM135.946 267.152H139.082V269H133.552V259.172H135.946V267.152ZM144.056 259.172C145.092 259.172 145.997 259.377 146.772 259.788C147.547 260.199 148.144 260.777 148.564 261.524C148.993 262.261 149.208 263.115 149.208 264.086C149.208 265.047 148.993 265.901 148.564 266.648C148.144 267.395 147.542 267.973 146.758 268.384C145.983 268.795 145.083 269 144.056 269H140.374V259.172H144.056ZM143.902 266.928C144.807 266.928 145.512 266.681 146.016 266.186C146.52 265.691 146.772 264.991 146.772 264.086C146.772 263.181 146.52 262.476 146.016 261.972C145.512 261.468 144.807 261.216 143.902 261.216H142.768V266.928H143.902ZM154.252 269.098C153.533 269.098 152.889 268.981 152.32 268.748C151.75 268.515 151.293 268.169 150.948 267.712C150.612 267.255 150.434 266.704 150.416 266.06H152.964C153.001 266.424 153.127 266.704 153.342 266.9C153.556 267.087 153.836 267.18 154.182 267.18C154.536 267.18 154.816 267.101 155.022 266.942C155.227 266.774 155.33 266.545 155.33 266.256C155.33 266.013 155.246 265.813 155.078 265.654C154.919 265.495 154.718 265.365 154.476 265.262C154.242 265.159 153.906 265.043 153.468 264.912C152.833 264.716 152.315 264.52 151.914 264.324C151.512 264.128 151.167 263.839 150.878 263.456C150.588 263.073 150.444 262.574 150.444 261.958C150.444 261.043 150.775 260.329 151.438 259.816C152.1 259.293 152.964 259.032 154.028 259.032C155.11 259.032 155.983 259.293 156.646 259.816C157.308 260.329 157.663 261.048 157.71 261.972H155.12C155.101 261.655 154.984 261.407 154.77 261.23C154.555 261.043 154.28 260.95 153.944 260.95C153.654 260.95 153.421 261.029 153.244 261.188C153.066 261.337 152.978 261.557 152.978 261.846C152.978 262.163 153.127 262.411 153.426 262.588C153.724 262.765 154.191 262.957 154.826 263.162C155.46 263.377 155.974 263.582 156.366 263.778C156.767 263.974 157.112 264.259 157.402 264.632C157.691 265.005 157.836 265.486 157.836 266.074C157.836 266.634 157.691 267.143 157.402 267.6C157.122 268.057 156.711 268.421 156.17 268.692C155.628 268.963 154.989 269.098 154.252 269.098Z" fill="#000E41"/>
</svg>
