<svg width="1200" height="600" viewBox="0 0 1200 600" fill="none" xmlns="http://www.w3.org/2000/svg">
<rect width="1200" height="600" rx="4" fill="#F7F9FC"/>
<path d="M562.326 109.024H556.038L555.03 112H550.734L556.83 95.152H561.582L567.678 112H563.334L562.326 109.024ZM561.27 105.856L559.182 99.688L557.118 105.856H561.27ZM569.018 103.552C569.018 101.888 569.378 100.408 570.098 99.112C570.818 97.8 571.818 96.784 573.098 96.064C574.394 95.328 575.858 94.96 577.49 94.96C579.49 94.96 581.202 95.488 582.626 96.544C584.05 97.6 585.002 99.04 585.482 100.864H580.97C580.634 100.16 580.154 99.624 579.53 99.256C578.922 98.888 578.226 98.704 577.442 98.704C576.178 98.704 575.154 99.144 574.37 100.024C573.586 100.904 573.194 102.08 573.194 103.552C573.194 105.024 573.586 106.2 574.37 107.08C575.154 107.96 576.178 108.4 577.442 108.4C578.226 108.4 578.922 108.216 579.53 107.848C580.154 107.48 580.634 106.944 580.97 106.24H585.482C585.002 108.064 584.05 109.504 582.626 110.56C581.202 111.6 579.49 112.12 577.49 112.12C575.858 112.12 574.394 111.76 573.098 111.04C571.818 110.304 570.818 109.288 570.098 107.992C569.378 106.696 569.018 105.216 569.018 103.552ZM607.255 95.152V112H603.151V101.896L599.383 112H596.071L592.279 101.872V112H588.175V95.152H593.023L597.751 106.816L602.431 95.152H607.255ZM614.49 98.44V101.848H619.986V105.016H614.49V108.712H620.706V112H610.386V95.152H620.706V98.44H614.49ZM628.12 103.552C628.12 101.888 628.48 100.408 629.2 99.112C629.92 97.8 630.92 96.784 632.2 96.064C633.496 95.328 634.96 94.96 636.592 94.96C638.592 94.96 640.304 95.488 641.728 96.544C643.152 97.6 644.104 99.04 644.584 100.864H640.072C639.736 100.16 639.256 99.624 638.632 99.256C638.024 98.888 637.328 98.704 636.544 98.704C635.28 98.704 634.256 99.144 633.472 100.024C632.688 100.904 632.296 102.08 632.296 103.552C632.296 105.024 632.688 106.2 633.472 107.08C634.256 107.96 635.28 108.4 636.544 108.4C637.328 108.4 638.024 108.216 638.632 107.848C639.256 107.48 639.736 106.944 640.072 106.24H644.584C644.104 108.064 643.152 109.504 641.728 110.56C640.304 111.6 638.592 112.12 636.592 112.12C634.96 112.12 633.496 111.76 632.2 111.04C630.92 110.304 629.92 109.288 629.2 107.992C628.48 106.696 628.12 105.216 628.12 103.552ZM655.246 112.168C653.662 112.168 652.206 111.8 650.878 111.064C649.566 110.328 648.518 109.304 647.734 107.992C646.966 106.664 646.582 105.176 646.582 103.528C646.582 101.88 646.966 100.4 647.734 99.088C648.518 97.776 649.566 96.752 650.878 96.016C652.206 95.28 653.662 94.912 655.246 94.912C656.83 94.912 658.278 95.28 659.59 96.016C660.918 96.752 661.958 97.776 662.71 99.088C663.478 100.4 663.862 101.88 663.862 103.528C663.862 105.176 663.478 106.664 662.71 107.992C661.942 109.304 660.902 110.328 659.59 111.064C658.278 111.8 656.83 112.168 655.246 112.168ZM655.246 108.424C656.59 108.424 657.662 107.976 658.462 107.08C659.278 106.184 659.686 105 659.686 103.528C659.686 102.04 659.278 100.856 658.462 99.976C657.662 99.08 656.59 98.632 655.246 98.632C653.886 98.632 652.798 99.072 651.982 99.952C651.182 100.832 650.782 102.024 650.782 103.528C650.782 105.016 651.182 106.208 651.982 107.104C652.798 107.984 653.886 108.424 655.246 108.424ZM674.917 112L671.413 105.64H670.429V112H666.325V95.152H673.213C674.541 95.152 675.669 95.384 676.597 95.848C677.541 96.312 678.245 96.952 678.709 97.768C679.173 98.568 679.405 99.464 679.405 100.456C679.405 101.576 679.085 102.576 678.445 103.456C677.821 104.336 676.893 104.96 675.661 105.328L679.549 112H674.917ZM670.429 102.736H672.973C673.725 102.736 674.285 102.552 674.653 102.184C675.037 101.816 675.229 101.296 675.229 100.624C675.229 99.984 675.037 99.48 674.653 99.112C674.285 98.744 673.725 98.56 672.973 98.56H670.429V102.736ZM695.001 100.576C695.001 101.552 694.777 102.448 694.329 103.264C693.881 104.064 693.193 104.712 692.265 105.208C691.337 105.704 690.185 105.952 688.809 105.952H686.265V112H682.161V95.152H688.809C690.153 95.152 691.289 95.384 692.217 95.848C693.145 96.312 693.841 96.952 694.305 97.768C694.769 98.584 695.001 99.52 695.001 100.576ZM688.497 102.688C689.281 102.688 689.865 102.504 690.249 102.136C690.633 101.768 690.825 101.248 690.825 100.576C690.825 99.904 690.633 99.384 690.249 99.016C689.865 98.648 689.281 98.464 688.497 98.464H686.265V102.688H688.497Z" fill="#000E41"/>
<path d="M987.545 109.024H981.257L980.249 112H975.953L982.049 95.152H986.801L992.897 112H988.553L987.545 109.024ZM986.489 105.856L984.401 99.688L982.337 105.856H986.489ZM998.965 95.152V105.232C998.965 106.24 999.213 107.016 999.709 107.56C1000.2 108.104 1000.93 108.376 1001.89 108.376C1002.85 108.376 1003.59 108.104 1004.1 107.56C1004.61 107.016 1004.87 106.24 1004.87 105.232V95.152H1008.97V105.208C1008.97 106.712 1008.65 107.984 1008.01 109.024C1007.37 110.064 1006.51 110.848 1005.42 111.376C1004.35 111.904 1003.15 112.168 1001.82 112.168C1000.49 112.168 999.301 111.912 998.245 111.4C997.205 110.872 996.381 110.088 995.773 109.048C995.165 107.992 994.861 106.712 994.861 105.208V95.152H998.965ZM1018.35 95.152C1020.12 95.152 1021.67 95.504 1023 96.208C1024.33 96.912 1025.35 97.904 1026.07 99.184C1026.81 100.448 1027.18 101.912 1027.18 103.576C1027.18 105.224 1026.81 106.688 1026.07 107.968C1025.35 109.248 1024.32 110.24 1022.98 110.944C1021.65 111.648 1020.11 112 1018.35 112H1012.03V95.152H1018.35ZM1018.08 108.448C1019.63 108.448 1020.84 108.024 1021.71 107.176C1022.57 106.328 1023 105.128 1023 103.576C1023 102.024 1022.57 100.816 1021.71 99.952C1020.84 99.088 1019.63 98.656 1018.08 98.656H1016.14V108.448H1018.08ZM1033.76 95.152V112H1029.65V95.152H1033.76ZM1049.03 95.152V98.44H1044.57V112H1040.46V98.44H1036V95.152H1049.03ZM1059.24 112.168C1057.65 112.168 1056.2 111.8 1054.87 111.064C1053.56 110.328 1052.51 109.304 1051.73 107.992C1050.96 106.664 1050.57 105.176 1050.57 103.528C1050.57 101.88 1050.96 100.4 1051.73 99.088C1052.51 97.776 1053.56 96.752 1054.87 96.016C1056.2 95.28 1057.65 94.912 1059.24 94.912C1060.82 94.912 1062.27 95.28 1063.58 96.016C1064.91 96.752 1065.95 97.776 1066.7 99.088C1067.47 100.4 1067.85 101.88 1067.85 103.528C1067.85 105.176 1067.47 106.664 1066.7 107.992C1065.93 109.304 1064.89 110.328 1063.58 111.064C1062.27 111.8 1060.82 112.168 1059.24 112.168ZM1059.24 108.424C1060.58 108.424 1061.65 107.976 1062.45 107.08C1063.27 106.184 1063.68 105 1063.68 103.528C1063.68 102.04 1063.27 100.856 1062.45 99.976C1061.65 99.08 1060.58 98.632 1059.24 98.632C1057.88 98.632 1056.79 99.072 1055.97 99.952C1055.17 100.832 1054.77 102.024 1054.77 103.528C1054.77 105.016 1055.17 106.208 1055.97 107.104C1056.79 107.984 1057.88 108.424 1059.24 108.424ZM1078.91 112L1075.4 105.64H1074.42V112H1070.32V95.152H1077.2C1078.53 95.152 1079.66 95.384 1080.59 95.848C1081.53 96.312 1082.24 96.952 1082.7 97.768C1083.16 98.568 1083.4 99.464 1083.4 100.456C1083.4 101.576 1083.08 102.576 1082.44 103.456C1081.81 104.336 1080.88 104.96 1079.65 105.328L1083.54 112H1078.91ZM1074.42 102.736H1076.96C1077.72 102.736 1078.28 102.552 1078.64 102.184C1079.03 101.816 1079.22 101.296 1079.22 100.624C1079.22 99.984 1079.03 99.48 1078.64 99.112C1078.28 98.744 1077.72 98.56 1076.96 98.56H1074.42V102.736ZM1092.25 112.168C1091.02 112.168 1089.91 111.968 1088.94 111.568C1087.96 111.168 1087.18 110.576 1086.59 109.792C1086.01 109.008 1085.71 108.064 1085.67 106.96H1090.04C1090.11 107.584 1090.32 108.064 1090.69 108.4C1091.06 108.72 1091.54 108.88 1092.13 108.88C1092.74 108.88 1093.22 108.744 1093.57 108.472C1093.92 108.184 1094.1 107.792 1094.1 107.296C1094.1 106.88 1093.95 106.536 1093.67 106.264C1093.39 105.992 1093.05 105.768 1092.63 105.592C1092.23 105.416 1091.66 105.216 1090.91 104.992C1089.82 104.656 1088.93 104.32 1088.24 103.984C1087.55 103.648 1086.96 103.152 1086.47 102.496C1085.97 101.84 1085.72 100.984 1085.72 99.928C1085.72 98.36 1086.29 97.136 1087.43 96.256C1088.56 95.36 1090.04 94.912 1091.87 94.912C1093.72 94.912 1095.22 95.36 1096.35 96.256C1097.49 97.136 1098.1 98.368 1098.18 99.952H1093.74C1093.71 99.408 1093.51 98.984 1093.14 98.68C1092.77 98.36 1092.3 98.2 1091.72 98.2C1091.23 98.2 1090.83 98.336 1090.52 98.608C1090.22 98.864 1090.07 99.24 1090.07 99.736C1090.07 100.28 1090.32 100.704 1090.83 101.008C1091.35 101.312 1092.15 101.64 1093.23 101.992C1094.32 102.36 1095.2 102.712 1095.87 103.048C1096.56 103.384 1097.15 103.872 1097.65 104.512C1098.15 105.152 1098.39 105.976 1098.39 106.984C1098.39 107.944 1098.15 108.816 1097.65 109.6C1097.17 110.384 1096.47 111.008 1095.54 111.472C1094.61 111.936 1093.51 112.168 1092.25 112.168Z" fill="#000E41"/>
<rect x="56" y="62" width="301" height="487" rx="15" fill="#E6E7F2" stroke="#000E41" stroke-width="2" stroke-linecap="square"/>
<path d="M147.001 304.308C147.853 305.016 148.279 305.85 148.279 306.81C148.279 307.422 148.111 307.974 147.775 308.466C147.451 308.958 146.977 309.342 146.353 309.618C145.729 309.894 144.991 310.032 144.139 310.032C142.927 310.032 141.961 309.72 141.241 309.096C140.521 308.484 140.137 307.662 140.089 306.63H143.131C143.179 307.458 143.527 307.872 144.175 307.872C144.847 307.872 145.183 307.578 145.183 306.99C145.183 306.738 145.099 306.516 144.931 306.324C144.775 306.132 144.505 305.934 144.121 305.73C143.749 305.526 143.185 305.262 142.429 304.938C141.445 304.518 140.701 304.044 140.197 303.516C139.693 302.976 139.441 302.34 139.441 301.608C139.441 301.008 139.591 300.474 139.891 300.006C140.203 299.526 140.695 299.16 141.367 298.908C140.515 298.2 140.089 297.366 140.089 296.406C140.089 295.794 140.251 295.242 140.575 294.75C140.911 294.258 141.391 293.874 142.015 293.598C142.639 293.322 143.377 293.184 144.229 293.184C145.441 293.184 146.407 293.496 147.127 294.12C147.847 294.732 148.231 295.554 148.279 296.586H145.237C145.189 295.758 144.841 295.344 144.193 295.344C143.521 295.344 143.185 295.638 143.185 296.226C143.185 296.478 143.263 296.7 143.419 296.892C143.587 297.084 143.857 297.282 144.229 297.486C144.613 297.69 145.183 297.954 145.939 298.278C146.923 298.698 147.667 299.178 148.171 299.718C148.675 300.246 148.927 300.876 148.927 301.608C148.927 302.196 148.771 302.718 148.459 303.174C148.159 303.618 147.673 303.996 147.001 304.308ZM144.193 303.012C144.649 303.012 145.009 302.88 145.273 302.616C145.549 302.34 145.687 302.004 145.687 301.608C145.687 301.212 145.549 300.882 145.273 300.618C145.009 300.342 144.649 300.204 144.193 300.204C143.737 300.204 143.371 300.342 143.095 300.618C142.831 300.882 142.699 301.212 142.699 301.608C142.699 302.004 142.831 302.34 143.095 302.616C143.371 302.88 143.737 303.012 144.193 303.012ZM150.102 295.722V292.86H155.088V306H151.884V295.722H150.102ZM159.089 306.144C158.549 306.144 158.105 305.988 157.757 305.676C157.421 305.352 157.253 304.956 157.253 304.488C157.253 304.008 157.421 303.606 157.757 303.282C158.105 302.958 158.549 302.796 159.089 302.796C159.617 302.796 160.049 302.958 160.385 303.282C160.733 303.606 160.907 304.008 160.907 304.488C160.907 304.956 160.733 305.352 160.385 305.676C160.049 305.988 159.617 306.144 159.089 306.144ZM162.249 295.722V292.86H167.235V306H164.031V295.722H162.249ZM180.206 306L177.578 301.23H176.84V306H173.762V293.364H178.928C179.924 293.364 180.77 293.538 181.466 293.886C182.174 294.234 182.702 294.714 183.05 295.326C183.398 295.926 183.572 296.598 183.572 297.342C183.572 298.182 183.332 298.932 182.852 299.592C182.384 300.252 181.688 300.72 180.764 300.996L183.68 306H180.206ZM176.84 299.052H178.748C179.312 299.052 179.732 298.914 180.008 298.638C180.296 298.362 180.44 297.972 180.44 297.468C180.44 296.988 180.296 296.61 180.008 296.334C179.732 296.058 179.312 295.92 178.748 295.92H176.84V299.052ZM195.122 300.816C195.122 301.104 195.104 301.404 195.068 301.716H188.102C188.15 302.34 188.348 302.82 188.696 303.156C189.056 303.48 189.494 303.642 190.01 303.642C190.778 303.642 191.312 303.318 191.612 302.67H194.888C194.72 303.33 194.414 303.924 193.97 304.452C193.538 304.98 192.992 305.394 192.332 305.694C191.672 305.994 190.934 306.144 190.118 306.144C189.134 306.144 188.258 305.934 187.49 305.514C186.722 305.094 186.122 304.494 185.69 303.714C185.258 302.934 185.042 302.022 185.042 300.978C185.042 299.934 185.252 299.022 185.672 298.242C186.104 297.462 186.704 296.862 187.472 296.442C188.24 296.022 189.122 295.812 190.118 295.812C191.09 295.812 191.954 296.016 192.71 296.424C193.466 296.832 194.054 297.414 194.474 298.17C194.906 298.926 195.122 299.808 195.122 300.816ZM191.972 300.006C191.972 299.478 191.792 299.058 191.432 298.746C191.072 298.434 190.622 298.278 190.082 298.278C189.566 298.278 189.128 298.428 188.768 298.728C188.42 299.028 188.204 299.454 188.12 300.006H191.972ZM200.711 295.812C201.419 295.812 202.037 295.956 202.565 296.244C203.105 296.532 203.519 296.91 203.807 297.378V295.956H206.885V305.982C206.885 306.906 206.699 307.74 206.327 308.484C205.967 309.24 205.409 309.84 204.653 310.284C203.909 310.728 202.979 310.95 201.863 310.95C200.375 310.95 199.169 310.596 198.245 309.888C197.321 309.192 196.793 308.244 196.661 307.044H199.703C199.799 307.428 200.027 307.728 200.387 307.944C200.747 308.172 201.191 308.286 201.719 308.286C202.355 308.286 202.859 308.1 203.231 307.728C203.615 307.368 203.807 306.786 203.807 305.982V304.56C203.507 305.028 203.093 305.412 202.565 305.712C202.037 306 201.419 306.144 200.711 306.144C199.883 306.144 199.133 305.934 198.461 305.514C197.789 305.082 197.255 304.476 196.859 303.696C196.475 302.904 196.283 301.992 196.283 300.96C196.283 299.928 196.475 299.022 196.859 298.242C197.255 297.462 197.789 296.862 198.461 296.442C199.133 296.022 199.883 295.812 200.711 295.812ZM203.807 300.978C203.807 300.21 203.591 299.604 203.159 299.16C202.739 298.716 202.223 298.494 201.611 298.494C200.999 298.494 200.477 298.716 200.045 299.16C199.625 299.592 199.415 300.192 199.415 300.96C199.415 301.728 199.625 302.34 200.045 302.796C200.477 303.24 200.999 303.462 201.611 303.462C202.223 303.462 202.739 303.24 203.159 302.796C203.591 302.352 203.807 301.746 203.807 300.978ZM219.18 295.956V306H216.102V304.632C215.79 305.076 215.364 305.436 214.824 305.712C214.296 305.976 213.708 306.108 213.06 306.108C212.292 306.108 211.614 305.94 211.026 305.604C210.438 305.256 209.982 304.758 209.658 304.11C209.334 303.462 209.172 302.7 209.172 301.824V295.956H212.232V301.41C212.232 302.082 212.406 302.604 212.754 302.976C213.102 303.348 213.57 303.534 214.158 303.534C214.758 303.534 215.232 303.348 215.58 302.976C215.928 302.604 216.102 302.082 216.102 301.41V295.956H219.18ZM224.619 292.68V306H221.541V292.68H224.619ZM226.388 300.96C226.388 299.928 226.58 299.022 226.964 298.242C227.36 297.462 227.894 296.862 228.566 296.442C229.238 296.022 229.988 295.812 230.816 295.812C231.524 295.812 232.142 295.956 232.67 296.244C233.21 296.532 233.624 296.91 233.912 297.378V295.956H236.99V306H233.912V304.578C233.612 305.046 233.192 305.424 232.652 305.712C232.124 306 231.506 306.144 230.798 306.144C229.982 306.144 229.238 305.934 228.566 305.514C227.894 305.082 227.36 304.476 226.964 303.696C226.58 302.904 226.388 301.992 226.388 300.96ZM233.912 300.978C233.912 300.21 233.696 299.604 233.264 299.16C232.844 298.716 232.328 298.494 231.716 298.494C231.104 298.494 230.582 298.716 230.15 299.16C229.73 299.592 229.52 300.192 229.52 300.96C229.52 301.728 229.73 302.34 230.15 302.796C230.582 303.24 231.104 303.462 231.716 303.462C232.328 303.462 232.844 303.24 233.264 302.796C233.696 302.352 233.912 301.746 233.912 300.978ZM244.965 303.39V306H243.399C242.283 306 241.413 305.73 240.789 305.19C240.165 304.638 239.853 303.744 239.853 302.508V298.512H238.629V295.956H239.853V293.508H242.931V295.956H244.947V298.512H242.931V302.544C242.931 302.844 243.003 303.06 243.147 303.192C243.291 303.324 243.531 303.39 243.867 303.39H244.965ZM248.377 294.912C247.837 294.912 247.393 294.756 247.045 294.444C246.709 294.12 246.541 293.724 246.541 293.256C246.541 292.776 246.709 292.38 247.045 292.068C247.393 291.744 247.837 291.582 248.377 291.582C248.905 291.582 249.337 291.744 249.673 292.068C250.021 292.38 250.195 292.776 250.195 293.256C250.195 293.724 250.021 294.12 249.673 294.444C249.337 294.756 248.905 294.912 248.377 294.912ZM249.907 295.956V306H246.829V295.956H249.907ZM256.86 306.144C255.876 306.144 254.988 305.934 254.196 305.514C253.416 305.094 252.798 304.494 252.342 303.714C251.898 302.934 251.676 302.022 251.676 300.978C251.676 299.946 251.904 299.04 252.36 298.26C252.816 297.468 253.44 296.862 254.232 296.442C255.024 296.022 255.912 295.812 256.896 295.812C257.88 295.812 258.768 296.022 259.56 296.442C260.352 296.862 260.976 297.468 261.432 298.26C261.888 299.04 262.116 299.946 262.116 300.978C262.116 302.01 261.882 302.922 261.414 303.714C260.958 304.494 260.328 305.094 259.524 305.514C258.732 305.934 257.844 306.144 256.86 306.144ZM256.86 303.48C257.448 303.48 257.946 303.264 258.354 302.832C258.774 302.4 258.984 301.782 258.984 300.978C258.984 300.174 258.78 299.556 258.372 299.124C257.976 298.692 257.484 298.476 256.896 298.476C256.296 298.476 255.798 298.692 255.402 299.124C255.006 299.544 254.808 300.162 254.808 300.978C254.808 301.782 255 302.4 255.384 302.832C255.78 303.264 256.272 303.48 256.86 303.48ZM270.019 295.848C271.195 295.848 272.131 296.232 272.827 297C273.535 297.756 273.889 298.8 273.889 300.132V306H270.829V300.546C270.829 299.874 270.655 299.352 270.307 298.98C269.959 298.608 269.491 298.422 268.903 298.422C268.315 298.422 267.847 298.608 267.499 298.98C267.151 299.352 266.977 299.874 266.977 300.546V306H263.899V295.956H266.977V297.288C267.289 296.844 267.709 296.496 268.237 296.244C268.765 295.98 269.359 295.848 270.019 295.848ZM280.264 306.144C279.388 306.144 278.608 305.994 277.924 305.694C277.24 305.394 276.7 304.986 276.304 304.47C275.908 303.942 275.686 303.354 275.638 302.706H278.68C278.716 303.054 278.878 303.336 279.166 303.552C279.454 303.768 279.808 303.876 280.228 303.876C280.612 303.876 280.906 303.804 281.11 303.66C281.326 303.504 281.434 303.306 281.434 303.066C281.434 302.778 281.284 302.568 280.984 302.436C280.684 302.292 280.198 302.136 279.526 301.968C278.806 301.8 278.206 301.626 277.726 301.446C277.246 301.254 276.832 300.96 276.484 300.564C276.136 300.156 275.962 299.61 275.962 298.926C275.962 298.35 276.118 297.828 276.43 297.36C276.754 296.88 277.222 296.502 277.834 296.226C278.458 295.95 279.196 295.812 280.048 295.812C281.308 295.812 282.298 296.124 283.018 296.748C283.75 297.372 284.17 298.2 284.278 299.232H281.434C281.386 298.884 281.23 298.608 280.966 298.404C280.714 298.2 280.378 298.098 279.958 298.098C279.598 298.098 279.322 298.17 279.13 298.314C278.938 298.446 278.842 298.632 278.842 298.872C278.842 299.16 278.992 299.376 279.292 299.52C279.604 299.664 280.084 299.808 280.732 299.952C281.476 300.144 282.082 300.336 282.55 300.528C283.018 300.708 283.426 301.008 283.774 301.428C284.134 301.836 284.32 302.388 284.332 303.084C284.332 303.672 284.164 304.2 283.828 304.668C283.504 305.124 283.03 305.484 282.406 305.748C281.794 306.012 281.08 306.144 280.264 306.144Z" fill="#000E41"/>
<path d="M421.584 135.172V137.09H418.98V145H416.586V137.09H413.982V135.172H421.584ZM427.948 145L425.904 141.29H425.33V145H422.936V135.172H426.954C427.728 135.172 428.386 135.307 428.928 135.578C429.478 135.849 429.889 136.222 430.16 136.698C430.43 137.165 430.566 137.687 430.566 138.266C430.566 138.919 430.379 139.503 430.006 140.016C429.642 140.529 429.1 140.893 428.382 141.108L430.65 145H427.948ZM425.33 139.596H426.814C427.252 139.596 427.579 139.489 427.794 139.274C428.018 139.059 428.13 138.756 428.13 138.364C428.13 137.991 428.018 137.697 427.794 137.482C427.579 137.267 427.252 137.16 426.814 137.16H425.33V139.596ZM438.337 143.264H434.669L434.081 145H431.575L435.131 135.172H437.903L441.459 145H438.925L438.337 143.264ZM437.721 141.416L436.503 137.818L435.299 141.416H437.721ZM451.483 145H449.089L445.085 138.938V145H442.691V135.172H445.085L449.089 141.262V135.172H451.483V145ZM456.924 145.098C456.206 145.098 455.562 144.981 454.992 144.748C454.423 144.515 453.966 144.169 453.62 143.712C453.284 143.255 453.107 142.704 453.088 142.06H455.636C455.674 142.424 455.8 142.704 456.014 142.9C456.229 143.087 456.509 143.18 456.854 143.18C457.209 143.18 457.489 143.101 457.694 142.942C457.9 142.774 458.002 142.545 458.002 142.256C458.002 142.013 457.918 141.813 457.75 141.654C457.592 141.495 457.391 141.365 457.148 141.262C456.915 141.159 456.579 141.043 456.14 140.912C455.506 140.716 454.988 140.52 454.586 140.324C454.185 140.128 453.84 139.839 453.55 139.456C453.261 139.073 453.116 138.574 453.116 137.958C453.116 137.043 453.448 136.329 454.11 135.816C454.773 135.293 455.636 135.032 456.7 135.032C457.783 135.032 458.656 135.293 459.318 135.816C459.981 136.329 460.336 137.048 460.382 137.972H457.792C457.774 137.655 457.657 137.407 457.442 137.23C457.228 137.043 456.952 136.95 456.616 136.95C456.327 136.95 456.094 137.029 455.916 137.188C455.739 137.337 455.65 137.557 455.65 137.846C455.65 138.163 455.8 138.411 456.098 138.588C456.397 138.765 456.864 138.957 457.498 139.162C458.133 139.377 458.646 139.582 459.038 139.778C459.44 139.974 459.785 140.259 460.074 140.632C460.364 141.005 460.508 141.486 460.508 142.074C460.508 142.634 460.364 143.143 460.074 143.6C459.794 144.057 459.384 144.421 458.842 144.692C458.301 144.963 457.662 145.098 456.924 145.098ZM464.525 143.152H467.661V145H462.131V135.172H464.525V143.152ZM475.071 143.264H471.403L470.815 145H468.309L471.865 135.172H474.637L478.193 145H475.659L475.071 143.264ZM474.455 141.416L473.237 137.818L472.033 141.416H474.455ZM486.496 135.172V137.09H483.892V145H481.498V137.09H478.894V135.172H486.496ZM490.241 137.09V139.078H493.447V140.926H490.241V143.082H493.867V145H487.847V135.172H493.867V137.09H490.241ZM501.082 135.172V145H498.688V135.172H501.082ZM511.759 145H509.365L505.361 138.938V145H502.967V135.172H505.361L509.365 141.262V135.172H511.759V145ZM520.714 135.172V137.09H518.11V145H515.716V137.09H513.112V135.172H520.714ZM526.714 145.098C525.79 145.098 524.941 144.883 524.166 144.454C523.401 144.025 522.789 143.427 522.332 142.662C521.884 141.887 521.66 141.019 521.66 140.058C521.66 139.097 521.884 138.233 522.332 137.468C522.789 136.703 523.401 136.105 524.166 135.676C524.941 135.247 525.79 135.032 526.714 135.032C527.638 135.032 528.483 135.247 529.248 135.676C530.023 136.105 530.629 136.703 531.068 137.468C531.516 138.233 531.74 139.097 531.74 140.058C531.74 141.019 531.516 141.887 531.068 142.662C530.62 143.427 530.013 144.025 529.248 144.454C528.483 144.883 527.638 145.098 526.714 145.098ZM526.714 142.914C527.498 142.914 528.123 142.653 528.59 142.13C529.066 141.607 529.304 140.917 529.304 140.058C529.304 139.19 529.066 138.499 528.59 137.986C528.123 137.463 527.498 137.202 526.714 137.202C525.921 137.202 525.286 137.459 524.81 137.972C524.343 138.485 524.11 139.181 524.11 140.058C524.11 140.926 524.343 141.621 524.81 142.144C525.286 142.657 525.921 142.914 526.714 142.914ZM448.738 156.336C448.738 156.905 448.607 157.428 448.346 157.904C448.085 158.371 447.683 158.749 447.142 159.038C446.601 159.327 445.929 159.472 445.126 159.472H443.642V163H441.248V153.172H445.126C445.91 153.172 446.573 153.307 447.114 153.578C447.655 153.849 448.061 154.222 448.332 154.698C448.603 155.174 448.738 155.72 448.738 156.336ZM444.944 157.568C445.401 157.568 445.742 157.461 445.966 157.246C446.19 157.031 446.302 156.728 446.302 156.336C446.302 155.944 446.19 155.641 445.966 155.426C445.742 155.211 445.401 155.104 444.944 155.104H443.642V157.568H444.944ZM455.146 163L453.102 159.29H452.528V163H450.134V153.172H454.152C454.927 153.172 455.585 153.307 456.126 153.578C456.677 153.849 457.088 154.222 457.358 154.698C457.629 155.165 457.764 155.687 457.764 156.266C457.764 156.919 457.578 157.503 457.204 158.016C456.84 158.529 456.299 158.893 455.58 159.108L457.848 163H455.146ZM452.528 157.596H454.012C454.451 157.596 454.778 157.489 454.992 157.274C455.216 157.059 455.328 156.756 455.328 156.364C455.328 155.991 455.216 155.697 454.992 155.482C454.778 155.267 454.451 155.16 454.012 155.16H452.528V157.596ZM464.065 163.098C463.141 163.098 462.292 162.883 461.517 162.454C460.752 162.025 460.141 161.427 459.683 160.662C459.235 159.887 459.011 159.019 459.011 158.058C459.011 157.097 459.235 156.233 459.683 155.468C460.141 154.703 460.752 154.105 461.517 153.676C462.292 153.247 463.141 153.032 464.065 153.032C464.989 153.032 465.834 153.247 466.599 153.676C467.374 154.105 467.981 154.703 468.419 155.468C468.867 156.233 469.091 157.097 469.091 158.058C469.091 159.019 468.867 159.887 468.419 160.662C467.971 161.427 467.365 162.025 466.599 162.454C465.834 162.883 464.989 163.098 464.065 163.098ZM464.065 160.914C464.849 160.914 465.475 160.653 465.941 160.13C466.417 159.607 466.655 158.917 466.655 158.058C466.655 157.19 466.417 156.499 465.941 155.986C465.475 155.463 464.849 155.202 464.065 155.202C463.272 155.202 462.637 155.459 462.161 155.972C461.695 156.485 461.461 157.181 461.461 158.058C461.461 158.926 461.695 159.621 462.161 160.144C462.637 160.657 463.272 160.914 464.065 160.914ZM470.167 158.072C470.167 157.101 470.377 156.238 470.797 155.482C471.217 154.717 471.8 154.124 472.547 153.704C473.303 153.275 474.157 153.06 475.109 153.06C476.276 153.06 477.274 153.368 478.105 153.984C478.936 154.6 479.491 155.44 479.771 156.504H477.139C476.943 156.093 476.663 155.781 476.299 155.566C475.944 155.351 475.538 155.244 475.081 155.244C474.344 155.244 473.746 155.501 473.289 156.014C472.832 156.527 472.603 157.213 472.603 158.072C472.603 158.931 472.832 159.617 473.289 160.13C473.746 160.643 474.344 160.9 475.081 160.9C475.538 160.9 475.944 160.793 476.299 160.578C476.663 160.363 476.943 160.051 477.139 159.64H479.771C479.491 160.704 478.936 161.544 478.105 162.16C477.274 162.767 476.276 163.07 475.109 163.07C474.157 163.07 473.303 162.86 472.547 162.44C471.8 162.011 471.217 161.418 470.797 160.662C470.377 159.906 470.167 159.043 470.167 158.072ZM483.781 155.09V157.078H486.987V158.926H483.781V161.082H487.407V163H481.387V153.172H487.407V155.09H483.781ZM492.667 163.098C491.949 163.098 491.305 162.981 490.735 162.748C490.166 162.515 489.709 162.169 489.363 161.712C489.027 161.255 488.85 160.704 488.831 160.06H491.379C491.417 160.424 491.543 160.704 491.757 160.9C491.972 161.087 492.252 161.18 492.597 161.18C492.952 161.18 493.232 161.101 493.437 160.942C493.643 160.774 493.745 160.545 493.745 160.256C493.745 160.013 493.661 159.813 493.493 159.654C493.335 159.495 493.134 159.365 492.891 159.262C492.658 159.159 492.322 159.043 491.883 158.912C491.249 158.716 490.731 158.52 490.329 158.324C489.928 158.128 489.583 157.839 489.293 157.456C489.004 157.073 488.859 156.574 488.859 155.958C488.859 155.043 489.191 154.329 489.853 153.816C490.516 153.293 491.379 153.032 492.443 153.032C493.526 153.032 494.399 153.293 495.061 153.816C495.724 154.329 496.079 155.048 496.125 155.972H493.535C493.517 155.655 493.4 155.407 493.185 155.23C492.971 155.043 492.695 154.95 492.359 154.95C492.07 154.95 491.837 155.029 491.659 155.188C491.482 155.337 491.393 155.557 491.393 155.846C491.393 156.163 491.543 156.411 491.841 156.588C492.14 156.765 492.607 156.957 493.241 157.162C493.876 157.377 494.389 157.582 494.781 157.778C495.183 157.974 495.528 158.259 495.817 158.632C496.107 159.005 496.251 159.486 496.251 160.074C496.251 160.634 496.107 161.143 495.817 161.6C495.537 162.057 495.127 162.421 494.585 162.692C494.044 162.963 493.405 163.098 492.667 163.098ZM501.431 163.098C500.712 163.098 500.068 162.981 499.499 162.748C498.929 162.515 498.472 162.169 498.127 161.712C497.791 161.255 497.613 160.704 497.595 160.06H500.143C500.18 160.424 500.306 160.704 500.521 160.9C500.735 161.087 501.015 161.18 501.361 161.18C501.715 161.18 501.995 161.101 502.201 160.942C502.406 160.774 502.509 160.545 502.509 160.256C502.509 160.013 502.425 159.813 502.257 159.654C502.098 159.495 501.897 159.365 501.655 159.262C501.421 159.159 501.085 159.043 500.647 158.912C500.012 158.716 499.494 158.52 499.093 158.324C498.691 158.128 498.346 157.839 498.057 157.456C497.767 157.073 497.623 156.574 497.623 155.958C497.623 155.043 497.954 154.329 498.617 153.816C499.279 153.293 500.143 153.032 501.207 153.032C502.289 153.032 503.162 153.293 503.825 153.816C504.487 154.329 504.842 155.048 504.889 155.972H502.299C502.28 155.655 502.163 155.407 501.949 155.23C501.734 155.043 501.459 154.95 501.123 154.95C500.833 154.95 500.6 155.029 500.423 155.188C500.245 155.337 500.157 155.557 500.157 155.846C500.157 156.163 500.306 156.411 500.605 156.588C500.903 156.765 501.37 156.957 502.005 157.162C502.639 157.377 503.153 157.582 503.545 157.778C503.946 157.974 504.291 158.259 504.581 158.632C504.87 159.005 505.015 159.486 505.015 160.074C505.015 160.634 504.87 161.143 504.581 161.6C504.301 162.057 503.89 162.421 503.349 162.692C502.807 162.963 502.168 163.098 501.431 163.098Z" fill="#000E41"/>
<path d="M493.469 469.072C493.469 468.101 493.679 467.238 494.099 466.482C494.519 465.717 495.102 465.124 495.849 464.704C496.605 464.275 497.459 464.06 498.411 464.06C499.578 464.06 500.576 464.368 501.407 464.984C502.238 465.6 502.793 466.44 503.073 467.504H500.441C500.245 467.093 499.965 466.781 499.601 466.566C499.246 466.351 498.84 466.244 498.383 466.244C497.646 466.244 497.048 466.501 496.591 467.014C496.134 467.527 495.905 468.213 495.905 469.072C495.905 469.931 496.134 470.617 496.591 471.13C497.048 471.643 497.646 471.9 498.383 471.9C498.84 471.9 499.246 471.793 499.601 471.578C499.965 471.363 500.245 471.051 500.441 470.64H503.073C502.793 471.704 502.238 472.544 501.407 473.16C500.576 473.767 499.578 474.07 498.411 474.07C497.459 474.07 496.605 473.86 495.849 473.44C495.102 473.011 494.519 472.418 494.099 471.662C493.679 470.906 493.469 470.043 493.469 469.072ZM509.337 474.098C508.413 474.098 507.564 473.883 506.789 473.454C506.024 473.025 505.412 472.427 504.955 471.662C504.507 470.887 504.283 470.019 504.283 469.058C504.283 468.097 504.507 467.233 504.955 466.468C505.412 465.703 506.024 465.105 506.789 464.676C507.564 464.247 508.413 464.032 509.337 464.032C510.261 464.032 511.106 464.247 511.871 464.676C512.646 465.105 513.252 465.703 513.691 466.468C514.139 467.233 514.363 468.097 514.363 469.058C514.363 470.019 514.139 470.887 513.691 471.662C513.243 472.427 512.636 473.025 511.871 473.454C511.106 473.883 510.261 474.098 509.337 474.098ZM509.337 471.914C510.121 471.914 510.746 471.653 511.213 471.13C511.689 470.607 511.927 469.917 511.927 469.058C511.927 468.19 511.689 467.499 511.213 466.986C510.746 466.463 510.121 466.202 509.337 466.202C508.544 466.202 507.909 466.459 507.433 466.972C506.966 467.485 506.733 468.181 506.733 469.058C506.733 469.926 506.966 470.621 507.433 471.144C507.909 471.657 508.544 471.914 509.337 471.914ZM524.637 474H522.243L518.239 467.938V474H515.845V464.172H518.239L522.243 470.262V464.172H524.637V474ZM533.592 464.172V466.09H530.988V474H528.594V466.09H525.99V464.172H533.592ZM537.338 464.172V474H534.944V464.172H537.338ZM548.014 474H545.62L541.616 467.938V474H539.222V464.172H541.616L545.62 470.262V464.172H548.014V474ZM552.252 464.172V470.052C552.252 470.64 552.397 471.093 552.686 471.41C552.975 471.727 553.4 471.886 553.96 471.886C554.52 471.886 554.949 471.727 555.248 471.41C555.547 471.093 555.696 470.64 555.696 470.052V464.172H558.09V470.038C558.09 470.915 557.903 471.657 557.53 472.264C557.157 472.871 556.653 473.328 556.018 473.636C555.393 473.944 554.693 474.098 553.918 474.098C553.143 474.098 552.448 473.949 551.832 473.65C551.225 473.342 550.745 472.885 550.39 472.278C550.035 471.662 549.858 470.915 549.858 470.038V464.172H552.252ZM564.569 474.098C563.645 474.098 562.796 473.883 562.021 473.454C561.256 473.025 560.644 472.427 560.187 471.662C559.739 470.887 559.515 470.019 559.515 469.058C559.515 468.097 559.739 467.233 560.187 466.468C560.644 465.703 561.256 465.105 562.021 464.676C562.796 464.247 563.645 464.032 564.569 464.032C565.493 464.032 566.338 464.247 567.103 464.676C567.878 465.105 568.484 465.703 568.923 466.468C569.371 467.233 569.595 468.097 569.595 469.058C569.595 470.019 569.371 470.887 568.923 471.662C568.475 472.427 567.868 473.025 567.103 473.454C566.338 473.883 565.493 474.098 564.569 474.098ZM564.569 471.914C565.353 471.914 565.978 471.653 566.445 471.13C566.921 470.607 567.159 469.917 567.159 469.058C567.159 468.19 566.921 467.499 566.445 466.986C565.978 466.463 565.353 466.202 564.569 466.202C563.776 466.202 563.141 466.459 562.665 466.972C562.198 467.485 561.965 468.181 561.965 469.058C561.965 469.926 562.198 470.621 562.665 471.144C563.141 471.657 563.776 471.914 564.569 471.914ZM573.429 464.172V470.052C573.429 470.64 573.573 471.093 573.863 471.41C574.152 471.727 574.577 471.886 575.137 471.886C575.697 471.886 576.126 471.727 576.425 471.41C576.723 471.093 576.873 470.64 576.873 470.052V464.172H579.267V470.038C579.267 470.915 579.08 471.657 578.707 472.264C578.333 472.871 577.829 473.328 577.195 473.636C576.569 473.944 575.869 474.098 575.095 474.098C574.32 474.098 573.625 473.949 573.009 473.65C572.402 473.342 571.921 472.885 571.567 472.278C571.212 471.662 571.035 470.915 571.035 470.038V464.172H573.429ZM584.654 474.098C583.935 474.098 583.291 473.981 582.722 473.748C582.153 473.515 581.695 473.169 581.35 472.712C581.014 472.255 580.837 471.704 580.818 471.06H583.366C583.403 471.424 583.529 471.704 583.744 471.9C583.959 472.087 584.239 472.18 584.584 472.18C584.939 472.18 585.219 472.101 585.424 471.942C585.629 471.774 585.732 471.545 585.732 471.256C585.732 471.013 585.648 470.813 585.48 470.654C585.321 470.495 585.121 470.365 584.878 470.262C584.645 470.159 584.309 470.043 583.87 469.912C583.235 469.716 582.717 469.52 582.316 469.324C581.915 469.128 581.569 468.839 581.28 468.456C580.991 468.073 580.846 467.574 580.846 466.958C580.846 466.043 581.177 465.329 581.84 464.816C582.503 464.293 583.366 464.032 584.43 464.032C585.513 464.032 586.385 464.293 587.048 464.816C587.711 465.329 588.065 466.048 588.112 466.972H585.522C585.503 466.655 585.387 466.407 585.172 466.23C584.957 466.043 584.682 465.95 584.346 465.95C584.057 465.95 583.823 466.029 583.646 466.188C583.469 466.337 583.38 466.557 583.38 466.846C583.38 467.163 583.529 467.411 583.828 467.588C584.127 467.765 584.593 467.957 585.228 468.162C585.863 468.377 586.376 468.582 586.768 468.778C587.169 468.974 587.515 469.259 587.804 469.632C588.093 470.005 588.238 470.486 588.238 471.074C588.238 471.634 588.093 472.143 587.804 472.6C587.524 473.057 587.113 473.421 586.572 473.692C586.031 473.963 585.391 474.098 584.654 474.098ZM482.053 482.172C483.089 482.172 483.995 482.377 484.769 482.788C485.544 483.199 486.141 483.777 486.561 484.524C486.991 485.261 487.205 486.115 487.205 487.086C487.205 488.047 486.991 488.901 486.561 489.648C486.141 490.395 485.539 490.973 484.755 491.384C483.981 491.795 483.08 492 482.053 492H478.371V482.172H482.053ZM481.899 489.928C482.805 489.928 483.509 489.681 484.013 489.186C484.517 488.691 484.769 487.991 484.769 487.086C484.769 486.181 484.517 485.476 484.013 484.972C483.509 484.468 482.805 484.216 481.899 484.216H480.765V489.928H481.899ZM493.341 492.098C492.417 492.098 491.568 491.883 490.793 491.454C490.028 491.025 489.417 490.427 488.959 489.662C488.511 488.887 488.287 488.019 488.287 487.058C488.287 486.097 488.511 485.233 488.959 484.468C489.417 483.703 490.028 483.105 490.793 482.676C491.568 482.247 492.417 482.032 493.341 482.032C494.265 482.032 495.11 482.247 495.875 482.676C496.65 483.105 497.257 483.703 497.695 484.468C498.143 485.233 498.367 486.097 498.367 487.058C498.367 488.019 498.143 488.887 497.695 489.662C497.247 490.427 496.641 491.025 495.875 491.454C495.11 491.883 494.265 492.098 493.341 492.098ZM493.341 489.914C494.125 489.914 494.751 489.653 495.217 489.13C495.693 488.607 495.931 487.917 495.931 487.058C495.931 486.19 495.693 485.499 495.217 484.986C494.751 484.463 494.125 484.202 493.341 484.202C492.548 484.202 491.913 484.459 491.437 484.972C490.971 485.485 490.737 486.181 490.737 487.058C490.737 487.926 490.971 488.621 491.437 489.144C491.913 489.657 492.548 489.914 493.341 489.914ZM499.443 487.072C499.443 486.101 499.653 485.238 500.073 484.482C500.493 483.717 501.076 483.124 501.823 482.704C502.579 482.275 503.433 482.06 504.385 482.06C505.552 482.06 506.55 482.368 507.381 482.984C508.212 483.6 508.767 484.44 509.047 485.504H506.415C506.219 485.093 505.939 484.781 505.575 484.566C505.22 484.351 504.814 484.244 504.357 484.244C503.62 484.244 503.022 484.501 502.565 485.014C502.108 485.527 501.879 486.213 501.879 487.072C501.879 487.931 502.108 488.617 502.565 489.13C503.022 489.643 503.62 489.9 504.357 489.9C504.814 489.9 505.22 489.793 505.575 489.578C505.939 489.363 506.219 489.051 506.415 488.64H509.047C508.767 489.704 508.212 490.544 507.381 491.16C506.55 491.767 505.552 492.07 504.385 492.07C503.433 492.07 502.579 491.86 501.823 491.44C501.076 491.011 500.493 490.418 500.073 489.662C499.653 488.906 499.443 488.043 499.443 487.072ZM513.015 482.172V488.052C513.015 488.64 513.16 489.093 513.449 489.41C513.738 489.727 514.163 489.886 514.723 489.886C515.283 489.886 515.712 489.727 516.011 489.41C516.31 489.093 516.459 488.64 516.459 488.052V482.172H518.853V488.038C518.853 488.915 518.666 489.657 518.293 490.264C517.92 490.871 517.416 491.328 516.781 491.636C516.156 491.944 515.456 492.098 514.681 492.098C513.906 492.098 513.211 491.949 512.595 491.65C511.988 491.342 511.508 490.885 511.153 490.278C510.798 489.662 510.621 488.915 510.621 488.038V482.172H513.015ZM531.814 482.172V492H529.42V486.106L527.222 492H525.29L523.078 486.092V492H520.684V482.172H523.512L526.27 488.976L529 482.172H531.814ZM536.08 484.09V486.078H539.286V487.926H536.08V490.082H539.706V492H533.686V482.172H539.706V484.09H536.08ZM550.202 492H547.808L543.804 485.938V492H541.41V482.172H543.804L547.808 488.262V482.172H550.202V492ZM559.157 482.172V484.09H556.553V492H554.159V484.09H551.555V482.172H559.157ZM566.627 490.264H562.959L562.371 492H559.865L563.421 482.172H566.193L569.749 492H567.215L566.627 490.264ZM566.011 488.416L564.793 484.818L563.589 488.416H566.011ZM578.051 482.172V484.09H575.447V492H573.053V484.09H570.449V482.172H578.051ZM581.797 482.172V492H579.403V482.172H581.797ZM588.329 492.098C587.405 492.098 586.556 491.883 585.781 491.454C585.016 491.025 584.405 490.427 583.947 489.662C583.499 488.887 583.275 488.019 583.275 487.058C583.275 486.097 583.499 485.233 583.947 484.468C584.405 483.703 585.016 483.105 585.781 482.676C586.556 482.247 587.405 482.032 588.329 482.032C589.253 482.032 590.098 482.247 590.863 482.676C591.638 483.105 592.245 483.703 592.683 484.468C593.131 485.233 593.355 486.097 593.355 487.058C593.355 488.019 593.131 488.887 592.683 489.662C592.235 490.427 591.629 491.025 590.863 491.454C590.098 491.883 589.253 492.098 588.329 492.098ZM588.329 489.914C589.113 489.914 589.739 489.653 590.205 489.13C590.681 488.607 590.919 487.917 590.919 487.058C590.919 486.19 590.681 485.499 590.205 484.986C589.739 484.463 589.113 484.202 588.329 484.202C587.536 484.202 586.901 484.459 586.425 484.972C585.959 485.485 585.725 486.181 585.725 487.058C585.725 487.926 585.959 488.621 586.425 489.144C586.901 489.657 587.536 489.914 588.329 489.914ZM603.629 492H601.235L597.231 485.938V492H594.837V482.172H597.231L601.235 488.262V482.172H603.629V492Z" fill="#000E41"/>
<path d="M730.355 135.228V145H728.395V138.644L725.777 145H724.293L721.661 138.644V145H719.701V135.228H721.927L725.035 142.494L728.143 135.228H730.355ZM734.403 136.81V139.26H737.693V140.814H734.403V143.404H738.113V145H732.443V135.214H738.113V136.81H734.403ZM742.004 136.81V139.26H745.294V140.814H742.004V143.404H745.714V145H740.044V135.214H745.714V136.81H742.004ZM754.295 135.228V136.81H751.691V145H749.731V136.81H747.127V135.228H754.295ZM757.835 135.228V145H755.875V135.228H757.835ZM768.279 145H766.319L761.881 138.294V145H759.921V135.214H761.881L766.319 141.934V135.214H768.279V145ZM777.17 138.168C776.946 137.757 776.638 137.445 776.246 137.23C775.854 137.015 775.397 136.908 774.874 136.908C774.296 136.908 773.782 137.039 773.334 137.3C772.886 137.561 772.536 137.935 772.284 138.42C772.032 138.905 771.906 139.465 771.906 140.1C771.906 140.753 772.032 141.323 772.284 141.808C772.546 142.293 772.905 142.667 773.362 142.928C773.82 143.189 774.352 143.32 774.958 143.32C775.705 143.32 776.316 143.124 776.792 142.732C777.268 142.331 777.581 141.775 777.73 141.066H774.37V139.568H779.662V141.276C779.532 141.957 779.252 142.587 778.822 143.166C778.393 143.745 777.838 144.211 777.156 144.566C776.484 144.911 775.728 145.084 774.888 145.084C773.946 145.084 773.092 144.874 772.326 144.454C771.57 144.025 770.973 143.432 770.534 142.676C770.105 141.92 769.89 141.061 769.89 140.1C769.89 139.139 770.105 138.28 770.534 137.524C770.973 136.759 771.57 136.166 772.326 135.746C773.092 135.317 773.941 135.102 774.874 135.102C775.976 135.102 776.932 135.373 777.744 135.914C778.556 136.446 779.116 137.197 779.424 138.168H777.17ZM784.636 145.098C783.955 145.098 783.339 144.981 782.788 144.748C782.247 144.515 781.818 144.179 781.5 143.74C781.183 143.301 781.02 142.783 781.01 142.186H783.11C783.138 142.587 783.278 142.905 783.53 143.138C783.792 143.371 784.146 143.488 784.594 143.488C785.052 143.488 785.411 143.381 785.672 143.166C785.934 142.942 786.064 142.653 786.064 142.298C786.064 142.009 785.976 141.771 785.798 141.584C785.621 141.397 785.397 141.253 785.126 141.15C784.865 141.038 784.501 140.917 784.034 140.786C783.4 140.599 782.882 140.417 782.48 140.24C782.088 140.053 781.748 139.778 781.458 139.414C781.178 139.041 781.038 138.546 781.038 137.93C781.038 137.351 781.183 136.847 781.472 136.418C781.762 135.989 782.168 135.662 782.69 135.438C783.213 135.205 783.81 135.088 784.482 135.088C785.49 135.088 786.307 135.335 786.932 135.83C787.567 136.315 787.917 136.997 787.982 137.874H785.826C785.808 137.538 785.663 137.263 785.392 137.048C785.131 136.824 784.781 136.712 784.342 136.712C783.96 136.712 783.652 136.81 783.418 137.006C783.194 137.202 783.082 137.487 783.082 137.86C783.082 138.121 783.166 138.341 783.334 138.518C783.512 138.686 783.726 138.826 783.978 138.938C784.24 139.041 784.604 139.162 785.07 139.302C785.705 139.489 786.223 139.675 786.624 139.862C787.026 140.049 787.371 140.329 787.66 140.702C787.95 141.075 788.094 141.565 788.094 142.172C788.094 142.695 787.959 143.18 787.688 143.628C787.418 144.076 787.021 144.435 786.498 144.706C785.976 144.967 785.355 145.098 784.636 145.098ZM799.422 143.138H795.53L794.886 145H792.828L796.342 135.214H798.624L802.138 145H800.066L799.422 143.138ZM798.89 141.57L797.476 137.482L796.062 141.57H798.89ZM811.959 145H809.999L805.561 138.294V145H803.601V135.214H805.561L809.999 141.934V135.214H811.959V145ZM817.462 135.228C818.489 135.228 819.389 135.429 820.164 135.83C820.948 136.231 821.55 136.805 821.97 137.552C822.399 138.289 822.614 139.148 822.614 140.128C822.614 141.108 822.399 141.967 821.97 142.704C821.55 143.432 820.948 143.997 820.164 144.398C819.389 144.799 818.489 145 817.462 145H814.046V135.228H817.462ZM817.392 143.334C818.419 143.334 819.212 143.054 819.772 142.494C820.332 141.934 820.612 141.145 820.612 140.128C820.612 139.111 820.332 138.317 819.772 137.748C819.212 137.169 818.419 136.88 817.392 136.88H816.006V143.334H817.392ZM740.895 163.098C740.214 163.098 739.598 162.981 739.047 162.748C738.506 162.515 738.076 162.179 737.759 161.74C737.442 161.301 737.278 160.783 737.269 160.186H739.369C739.397 160.587 739.537 160.905 739.789 161.138C740.05 161.371 740.405 161.488 740.853 161.488C741.31 161.488 741.67 161.381 741.931 161.166C742.192 160.942 742.323 160.653 742.323 160.298C742.323 160.009 742.234 159.771 742.057 159.584C741.88 159.397 741.656 159.253 741.385 159.15C741.124 159.038 740.76 158.917 740.293 158.786C739.658 158.599 739.14 158.417 738.739 158.24C738.347 158.053 738.006 157.778 737.717 157.414C737.437 157.041 737.297 156.546 737.297 155.93C737.297 155.351 737.442 154.847 737.731 154.418C738.02 153.989 738.426 153.662 738.949 153.438C739.472 153.205 740.069 153.088 740.741 153.088C741.749 153.088 742.566 153.335 743.191 153.83C743.826 154.315 744.176 154.997 744.241 155.874H742.085C742.066 155.538 741.922 155.263 741.651 155.048C741.39 154.824 741.04 154.712 740.601 154.712C740.218 154.712 739.91 154.81 739.677 155.006C739.453 155.202 739.341 155.487 739.341 155.86C739.341 156.121 739.425 156.341 739.593 156.518C739.77 156.686 739.985 156.826 740.237 156.938C740.498 157.041 740.862 157.162 741.329 157.302C741.964 157.489 742.482 157.675 742.883 157.862C743.284 158.049 743.63 158.329 743.919 158.702C744.208 159.075 744.353 159.565 744.353 160.172C744.353 160.695 744.218 161.18 743.947 161.628C743.676 162.076 743.28 162.435 742.757 162.706C742.234 162.967 741.614 163.098 740.895 163.098ZM748.162 153.228V163H746.202V153.228H748.162ZM757.053 156.168C756.829 155.757 756.521 155.445 756.129 155.23C755.737 155.015 755.279 154.908 754.757 154.908C754.178 154.908 753.665 155.039 753.217 155.3C752.769 155.561 752.419 155.935 752.167 156.42C751.915 156.905 751.789 157.465 751.789 158.1C751.789 158.753 751.915 159.323 752.167 159.808C752.428 160.293 752.787 160.667 753.245 160.928C753.702 161.189 754.234 161.32 754.841 161.32C755.587 161.32 756.199 161.124 756.675 160.732C757.151 160.331 757.463 159.775 757.613 159.066H754.253V157.568H759.545V159.276C759.414 159.957 759.134 160.587 758.705 161.166C758.275 161.745 757.72 162.211 757.039 162.566C756.367 162.911 755.611 163.084 754.771 163.084C753.828 163.084 752.974 162.874 752.209 162.454C751.453 162.025 750.855 161.432 750.417 160.676C749.987 159.92 749.773 159.061 749.773 158.1C749.773 157.139 749.987 156.28 750.417 155.524C750.855 154.759 751.453 154.166 752.209 153.746C752.974 153.317 753.823 153.102 754.757 153.102C755.858 153.102 756.815 153.373 757.627 153.914C758.439 154.446 758.999 155.197 759.307 156.168H757.053ZM769.503 163H767.543L763.105 156.294V163H761.145V153.214H763.105L767.543 159.934V153.214H769.503V163ZM776.126 163.098C775.211 163.098 774.371 162.883 773.606 162.454C772.84 162.025 772.234 161.432 771.786 160.676C771.338 159.911 771.114 159.047 771.114 158.086C771.114 157.134 771.338 156.28 771.786 155.524C772.234 154.759 772.84 154.161 773.606 153.732C774.371 153.303 775.211 153.088 776.126 153.088C777.05 153.088 777.89 153.303 778.646 153.732C779.411 154.161 780.013 154.759 780.452 155.524C780.9 156.28 781.124 157.134 781.124 158.086C781.124 159.047 780.9 159.911 780.452 160.676C780.013 161.432 779.411 162.025 778.646 162.454C777.88 162.883 777.04 163.098 776.126 163.098ZM776.126 161.348C776.714 161.348 777.232 161.217 777.68 160.956C778.128 160.685 778.478 160.303 778.73 159.808C778.982 159.313 779.108 158.739 779.108 158.086C779.108 157.433 778.982 156.863 778.73 156.378C778.478 155.883 778.128 155.505 777.68 155.244C777.232 154.983 776.714 154.852 776.126 154.852C775.538 154.852 775.015 154.983 774.558 155.244C774.11 155.505 773.76 155.883 773.508 156.378C773.256 156.863 773.13 157.433 773.13 158.086C773.13 158.739 773.256 159.313 773.508 159.808C773.76 160.303 774.11 160.685 774.558 160.956C775.015 161.217 775.538 161.348 776.126 161.348ZM788.766 153.228V154.81H784.692V157.316H787.814V158.87H784.692V163H782.732V153.228H788.766ZM796.34 153.228V154.81H792.266V157.316H795.388V158.87H792.266V163H790.306V153.228H796.34ZM801.254 163.098C800.572 163.098 799.956 162.981 799.406 162.748C798.864 162.515 798.435 162.179 798.118 161.74C797.8 161.301 797.637 160.783 797.628 160.186H799.728C799.756 160.587 799.896 160.905 800.148 161.138C800.409 161.371 800.764 161.488 801.212 161.488C801.669 161.488 802.028 161.381 802.29 161.166C802.551 160.942 802.682 160.653 802.682 160.298C802.682 160.009 802.593 159.771 802.416 159.584C802.238 159.397 802.014 159.253 801.744 159.15C801.482 159.038 801.118 158.917 800.652 158.786C800.017 158.599 799.499 158.417 799.098 158.24C798.706 158.053 798.365 157.778 798.076 157.414C797.796 157.041 797.656 156.546 797.656 155.93C797.656 155.351 797.8 154.847 798.09 154.418C798.379 153.989 798.785 153.662 799.308 153.438C799.83 153.205 800.428 153.088 801.1 153.088C802.108 153.088 802.924 153.335 803.55 153.83C804.184 154.315 804.534 154.997 804.6 155.874H802.444C802.425 155.538 802.28 155.263 802.01 155.048C801.748 154.824 801.398 154.712 800.96 154.712C800.577 154.712 800.269 154.81 800.036 155.006C799.812 155.202 799.7 155.487 799.7 155.86C799.7 156.121 799.784 156.341 799.952 156.518C800.129 156.686 800.344 156.826 800.596 156.938C800.857 157.041 801.221 157.162 801.688 157.302C802.322 157.489 802.84 157.675 803.242 157.862C803.643 158.049 803.988 158.329 804.278 158.702C804.567 159.075 804.712 159.565 804.712 160.172C804.712 160.695 804.576 161.18 804.306 161.628C804.035 162.076 803.638 162.435 803.116 162.706C802.593 162.967 801.972 163.098 801.254 163.098Z" fill="#000E41"/>
<g clip-path="url(#clip0_603_1793)">
<path d="M1026.79 250.592C999.782 250.592 977.891 272.493 977.891 299.519C977.891 326.546 999.782 348.447 1026.79 348.447C1053.81 348.447 1075.7 326.546 1075.7 299.519C1075.7 272.493 1053.79 250.592 1026.79 250.592ZM1026.78 312.12C1019.83 312.12 1014.18 306.47 1014.18 299.519C1014.18 292.569 1019.83 286.919 1026.78 286.919C1033.72 286.919 1039.37 292.569 1039.37 299.519C1039.37 306.47 1033.74 312.12 1026.78 312.12Z" fill="#F7C22E"/>
<path d="M1026.78 314.586C1018.47 314.586 1011.72 307.829 1011.72 299.519C1011.72 291.21 1018.47 284.453 1026.78 284.453C1035.08 284.453 1041.83 291.21 1041.83 299.519C1041.83 307.829 1035.08 314.586 1026.78 314.586ZM1026.78 290.666C1021.9 290.666 1017.93 294.646 1017.93 299.519C1017.93 304.393 1021.9 308.373 1026.78 308.373C1031.65 308.373 1035.62 304.393 1035.62 299.519C1035.62 294.646 1031.65 290.666 1026.78 290.666Z" fill="#000E41"/>
<path d="M1026.5 350C1014.55 350 1002.23 347.825 989.884 343.554C979.987 340.137 970.051 335.361 960.329 329.342C943.62 319.013 933.16 308.567 932.015 307.422L930.657 306.043C927.125 302.432 927.105 296.568 930.657 292.976L932.015 291.598C933.723 289.85 974.476 249.039 1026.5 249.039C1038.44 249.039 1050.76 251.213 1063.1 255.485C1073 258.902 1082.94 263.678 1092.66 269.697C1109.1 279.832 1119.48 290.103 1120.92 291.559L1120.99 291.637L1122.35 293.015C1125.88 296.626 1125.88 302.471 1122.35 306.082L1120.99 307.46C1119.85 308.625 1109.41 319.071 1092.68 329.381C1082.96 335.38 1073 340.156 1063.12 343.593C1050.76 347.845 1038.44 350 1026.5 350ZM1026.5 255.252C977.038 255.252 938.089 294.297 936.44 295.966L935.081 297.345C933.898 298.549 933.898 300.51 935.081 301.694L936.44 303.072C938.07 304.742 977.018 343.787 1026.5 343.787C1075.99 343.787 1114.94 304.742 1116.57 303.072L1117.93 301.694C1119.11 300.49 1119.11 298.549 1117.93 297.345L1116.57 295.966C1114.92 294.297 1075.93 255.252 1026.5 255.252Z" fill="#000E41"/>
<path d="M1026.78 350C1013.29 350 1000.62 344.758 991.088 335.205C981.559 325.653 976.3 312.994 976.3 299.5C976.3 286.006 981.54 273.328 991.088 263.795C1000.62 254.262 1013.29 249 1026.78 249C1040.26 249 1052.94 254.242 1062.46 263.795C1071.99 273.347 1077.25 286.006 1077.25 299.5C1077.25 312.994 1072.01 325.672 1062.46 335.205C1052.92 344.738 1040.26 350 1026.78 350ZM1026.78 255.252C1014.96 255.252 1003.84 259.853 995.493 268.221C987.148 276.59 982.529 287.695 982.529 299.519C982.529 311.344 987.129 322.469 995.493 330.817C1003.86 339.166 1014.96 343.787 1026.78 343.787C1038.59 343.787 1049.71 339.186 1058.06 330.817C1066.4 322.449 1071.02 311.344 1071.02 299.519C1071.02 287.695 1066.42 276.57 1058.06 268.221C1049.69 259.873 1038.61 255.252 1026.78 255.252Z" fill="#000E41"/>
<path d="M1026.78 287.559C1020.18 287.559 1014.82 292.918 1014.82 299.519C1014.82 306.121 1020.18 311.479 1026.78 311.479C1033.37 311.479 1038.73 306.121 1038.73 299.519C1038.73 292.918 1033.39 287.559 1026.78 287.559ZM1023.13 300.607C1020.88 300.607 1019.05 298.782 1019.05 296.529C1019.05 294.277 1020.88 292.452 1023.13 292.452C1025.38 292.452 1027.2 294.277 1027.2 296.529C1027.2 298.782 1025.38 300.607 1023.13 300.607Z" fill="#000E41"/>
</g>
<path d="M690.484 419.855H642.565C640.516 419.855 638.855 421.516 638.855 423.565V492.157C638.855 494.206 640.516 495.868 642.565 495.868H690.484C692.533 495.868 694.194 494.206 694.194 492.157V423.565C694.194 421.516 692.533 419.855 690.484 419.855Z" fill="#2459D1"/>
<path d="M690.484 497.723H642.565C639.496 497.723 637 495.226 637 492.157V423.565C637 420.496 639.496 418 642.565 418H690.484C693.553 418 696.05 420.496 696.05 423.565V492.157C696.05 495.226 693.553 497.723 690.484 497.723ZM642.565 421.71C641.543 421.71 640.71 422.543 640.71 423.565V492.157C640.71 493.18 641.543 494.012 642.565 494.012H690.484C691.507 494.012 692.339 493.18 692.339 492.157V423.565C692.339 422.543 691.507 421.71 690.484 421.71H642.565Z" fill="#000E41"/>
<path d="M685.601 447.679H648.705C647.68 447.679 646.849 446.849 646.849 445.824C646.849 444.799 647.68 443.969 648.705 443.969H685.601C686.625 443.969 687.456 444.799 687.456 445.824C687.456 446.849 686.625 447.679 685.601 447.679Z" fill="#000E41"/>
<path d="M685.601 438.999H648.705C647.68 438.999 646.849 438.169 646.849 437.144C646.849 436.119 647.68 435.289 648.705 435.289H685.601C686.625 435.289 687.456 436.119 687.456 437.144C687.456 438.169 686.625 438.999 685.601 438.999Z" fill="#000E41"/>
<path d="M685.601 430.999H648.705C647.68 430.999 646.849 430.169 646.849 429.144C646.849 428.119 647.68 427.289 648.705 427.289H685.601C686.625 427.289 687.456 428.119 687.456 429.144C687.456 430.169 686.625 430.999 685.601 430.999Z" fill="#000E41"/>
<path d="M685.601 455.679H648.705C647.68 455.679 646.849 454.849 646.849 453.824C646.849 452.799 647.68 451.969 648.705 451.969H685.601C686.625 451.969 687.456 452.799 687.456 453.824C687.456 454.849 686.625 455.679 685.601 455.679Z" fill="#000E41"/>
<path d="M685.601 463.679H648.705C647.68 463.679 646.849 462.849 646.849 461.824C646.849 460.799 647.68 459.969 648.705 459.969H685.601C686.625 459.969 687.456 460.799 687.456 461.824C687.456 462.849 686.625 463.679 685.601 463.679Z" fill="#000E41"/>
<path d="M685.601 471.679H648.705C647.68 471.679 646.849 470.849 646.849 469.824C646.849 468.799 647.68 467.969 648.705 467.969H685.601C686.625 467.969 687.456 468.799 687.456 469.824C687.456 470.849 686.625 471.679 685.601 471.679Z" fill="#000E41"/>
<path d="M685.601 479.679H648.705C647.68 479.679 646.849 478.849 646.849 477.824C646.849 476.799 647.68 475.969 648.705 475.969H685.601C686.625 475.969 687.456 476.799 687.456 477.824C687.456 478.849 686.625 479.679 685.601 479.679Z" fill="#000E41"/>
<path d="M685.601 487.679H648.705C647.68 487.679 646.849 486.849 646.849 485.824C646.849 484.799 647.68 483.969 648.705 483.969H685.601C686.625 483.969 687.456 484.799 687.456 485.824C687.456 486.849 686.625 487.679 685.601 487.679Z" fill="#000E41"/>
<path d="M698.484 427.855H650.565C648.516 427.855 646.855 429.516 646.855 431.565V500.157C646.855 502.206 648.516 503.868 650.565 503.868H698.484C700.533 503.868 702.194 502.206 702.194 500.157V431.565C702.194 429.516 700.533 427.855 698.484 427.855Z" fill="#2459D1"/>
<path d="M698.484 505.723H650.565C647.496 505.723 645 503.226 645 500.157V431.565C645 428.496 647.496 426 650.565 426H698.484C701.553 426 704.05 428.496 704.05 431.565V500.157C704.05 503.226 701.553 505.723 698.484 505.723ZM650.565 429.71C649.543 429.71 648.71 430.543 648.71 431.565V500.157C648.71 501.18 649.543 502.012 650.565 502.012H698.484C699.507 502.012 700.339 501.18 700.339 500.157V431.565C700.339 430.543 699.507 429.71 698.484 429.71H650.565Z" fill="#000E41"/>
<path d="M693.601 455.679H656.705C655.68 455.679 654.849 454.849 654.849 453.824C654.849 452.799 655.68 451.969 656.705 451.969H693.601C694.625 451.969 695.456 452.799 695.456 453.824C695.456 454.849 694.625 455.679 693.601 455.679Z" fill="#000E41"/>
<path d="M693.601 446.999H656.705C655.68 446.999 654.849 446.169 654.849 445.144C654.849 444.119 655.68 443.289 656.705 443.289H693.601C694.625 443.289 695.456 444.119 695.456 445.144C695.456 446.169 694.625 446.999 693.601 446.999Z" fill="#000E41"/>
<path d="M693.601 438.999H656.705C655.68 438.999 654.849 438.169 654.849 437.144C654.849 436.119 655.68 435.289 656.705 435.289H693.601C694.625 435.289 695.456 436.119 695.456 437.144C695.456 438.169 694.625 438.999 693.601 438.999Z" fill="#000E41"/>
<path d="M693.601 463.679H656.705C655.68 463.679 654.849 462.849 654.849 461.824C654.849 460.799 655.68 459.969 656.705 459.969H693.601C694.625 459.969 695.456 460.799 695.456 461.824C695.456 462.849 694.625 463.679 693.601 463.679Z" fill="#000E41"/>
<path d="M693.601 471.679H656.705C655.68 471.679 654.849 470.849 654.849 469.824C654.849 468.799 655.68 467.969 656.705 467.969H693.601C694.625 467.969 695.456 468.799 695.456 469.824C695.456 470.849 694.625 471.679 693.601 471.679Z" fill="#000E41"/>
<path d="M693.601 479.679H656.705C655.68 479.679 654.849 478.849 654.849 477.824C654.849 476.799 655.68 475.969 656.705 475.969H693.601C694.625 475.969 695.456 476.799 695.456 477.824C695.456 478.849 694.625 479.679 693.601 479.679Z" fill="#000E41"/>
<path d="M693.601 487.679H656.705C655.68 487.679 654.849 486.849 654.849 485.824C654.849 484.799 655.68 483.969 656.705 483.969H693.601C694.625 483.969 695.456 484.799 695.456 485.824C695.456 486.849 694.625 487.679 693.601 487.679Z" fill="#000E41"/>
<path d="M693.601 495.679H656.705C655.68 495.679 654.849 494.849 654.849 493.824C654.849 492.799 655.68 491.969 656.705 491.969H693.601C694.625 491.969 695.456 492.799 695.456 493.824C695.456 494.849 694.625 495.679 693.601 495.679Z" fill="#000E41"/>
<path d="M706.484 435.855H658.565C656.516 435.855 654.855 437.516 654.855 439.565V508.157C654.855 510.206 656.516 511.868 658.565 511.868H706.484C708.533 511.868 710.194 510.206 710.194 508.157V439.565C710.194 437.516 708.533 435.855 706.484 435.855Z" fill="#2459D1"/>
<path d="M706.484 513.723H658.565C655.496 513.723 653 511.226 653 508.157V439.565C653 436.496 655.496 434 658.565 434H706.484C709.553 434 712.05 436.496 712.05 439.565V508.157C712.05 511.226 709.553 513.723 706.484 513.723ZM658.565 437.71C657.543 437.71 656.71 438.543 656.71 439.565V508.157C656.71 509.18 657.543 510.012 658.565 510.012H706.484C707.507 510.012 708.339 509.18 708.339 508.157V439.565C708.339 438.543 707.507 437.71 706.484 437.71H658.565Z" fill="#000E41"/>
<path d="M701.601 463.679H664.705C663.68 463.679 662.849 462.849 662.849 461.824C662.849 460.799 663.68 459.969 664.705 459.969H701.601C702.625 459.969 703.456 460.799 703.456 461.824C703.456 462.849 702.625 463.679 701.601 463.679Z" fill="#000E41"/>
<path d="M701.601 454.999H664.705C663.68 454.999 662.849 454.169 662.849 453.144C662.849 452.119 663.68 451.289 664.705 451.289H701.601C702.625 451.289 703.456 452.119 703.456 453.144C703.456 454.169 702.625 454.999 701.601 454.999Z" fill="#000E41"/>
<path d="M701.601 446.999H664.705C663.68 446.999 662.849 446.169 662.849 445.144C662.849 444.119 663.68 443.289 664.705 443.289H701.601C702.625 443.289 703.456 444.119 703.456 445.144C703.456 446.169 702.625 446.999 701.601 446.999Z" fill="#000E41"/>
<path d="M701.601 471.679H664.705C663.68 471.679 662.849 470.849 662.849 469.824C662.849 468.799 663.68 467.969 664.705 467.969H701.601C702.625 467.969 703.456 468.799 703.456 469.824C703.456 470.849 702.625 471.679 701.601 471.679Z" fill="#000E41"/>
<path d="M701.601 479.679H664.705C663.68 479.679 662.849 478.849 662.849 477.824C662.849 476.799 663.68 475.969 664.705 475.969H701.601C702.625 475.969 703.456 476.799 703.456 477.824C703.456 478.849 702.625 479.679 701.601 479.679Z" fill="#000E41"/>
<path d="M701.601 487.679H664.705C663.68 487.679 662.849 486.849 662.849 485.824C662.849 484.799 663.68 483.969 664.705 483.969H701.601C702.625 483.969 703.456 484.799 703.456 485.824C703.456 486.849 702.625 487.679 701.601 487.679Z" fill="#000E41"/>
<path d="M701.601 495.679H664.705C663.68 495.679 662.849 494.849 662.849 493.824C662.849 492.799 663.68 491.969 664.705 491.969H701.601C702.625 491.969 703.456 492.799 703.456 493.824C703.456 494.849 702.625 495.679 701.601 495.679Z" fill="#000E41"/>
<path d="M701.601 503.679H664.705C663.68 503.679 662.849 502.849 662.849 501.824C662.849 500.799 663.68 499.969 664.705 499.969H701.601C702.625 499.969 703.456 500.799 703.456 501.824C703.456 502.849 702.625 503.679 701.601 503.679Z" fill="#000E41"/>
<rect x="380" y="62" width="486" height="487" rx="15" stroke="#000E41" stroke-width="2" stroke-linecap="square" stroke-dasharray="4 16"/>
<path d="M713.484 442.855H665.565C663.516 442.855 661.855 444.516 661.855 446.565V515.157C661.855 517.206 663.516 518.868 665.565 518.868H713.484C715.533 518.868 717.194 517.206 717.194 515.157V446.565C717.194 444.516 715.533 442.855 713.484 442.855Z" fill="#2459D1"/>
<path d="M713.484 520.723H665.565C662.496 520.723 660 518.226 660 515.157V446.565C660 443.496 662.496 441 665.565 441H713.484C716.553 441 719.05 443.496 719.05 446.565V515.157C719.05 518.226 716.553 520.723 713.484 520.723ZM665.565 444.71C664.543 444.71 663.71 445.543 663.71 446.565V515.157C663.71 516.18 664.543 517.012 665.565 517.012H713.484C714.507 517.012 715.339 516.18 715.339 515.157V446.565C715.339 445.543 714.507 444.71 713.484 444.71H665.565Z" fill="#000E41"/>
<path d="M708.601 470.679H671.705C670.68 470.679 669.849 469.849 669.849 468.824C669.849 467.799 670.68 466.969 671.705 466.969H708.601C709.625 466.969 710.456 467.799 710.456 468.824C710.456 469.849 709.625 470.679 708.601 470.679Z" fill="#000E41"/>
<path d="M708.601 461.999H671.705C670.68 461.999 669.849 461.169 669.849 460.144C669.849 459.119 670.68 458.289 671.705 458.289H708.601C709.625 458.289 710.456 459.119 710.456 460.144C710.456 461.169 709.625 461.999 708.601 461.999Z" fill="#000E41"/>
<path d="M708.601 453.999H671.705C670.68 453.999 669.849 453.169 669.849 452.144C669.849 451.119 670.68 450.289 671.705 450.289H708.601C709.625 450.289 710.456 451.119 710.456 452.144C710.456 453.169 709.625 453.999 708.601 453.999Z" fill="#000E41"/>
<path d="M708.601 478.679H671.705C670.68 478.679 669.849 477.849 669.849 476.824C669.849 475.799 670.68 474.969 671.705 474.969H708.601C709.625 474.969 710.456 475.799 710.456 476.824C710.456 477.849 709.625 478.679 708.601 478.679Z" fill="#000E41"/>
<path d="M708.601 486.679H671.705C670.68 486.679 669.849 485.849 669.849 484.824C669.849 483.799 670.68 482.969 671.705 482.969H708.601C709.625 482.969 710.456 483.799 710.456 484.824C710.456 485.849 709.625 486.679 708.601 486.679Z" fill="#000E41"/>
<path d="M708.601 494.679H671.705C670.68 494.679 669.849 493.849 669.849 492.824C669.849 491.799 670.68 490.969 671.705 490.969H708.601C709.625 490.969 710.456 491.799 710.456 492.824C710.456 493.849 709.625 494.679 708.601 494.679Z" fill="#000E41"/>
<path d="M708.601 502.679H671.705C670.68 502.679 669.849 501.849 669.849 500.824C669.849 499.799 670.68 498.969 671.705 498.969H708.601C709.625 498.969 710.456 499.799 710.456 500.824C710.456 501.849 709.625 502.679 708.601 502.679Z" fill="#000E41"/>
<path d="M708.601 510.679H671.705C670.68 510.679 669.849 509.849 669.849 508.824C669.849 507.799 670.68 506.969 671.705 506.969H708.601C709.625 506.969 710.456 507.799 710.456 508.824C710.456 509.849 709.625 510.679 708.601 510.679Z" fill="#000E41"/>
<rect x="457" y="238" width="82" height="33" rx="6" stroke="#000E41" stroke-width="4"/>
<rect x="457" y="314" width="82" height="72" rx="6" stroke="#000E41" stroke-width="4"/>
<path d="M361.254 252.927C360.425 252.927 359.753 253.598 359.753 254.426C359.752 255.255 360.423 255.927 361.252 255.927L361.254 252.927ZM452.06 255.558C452.646 254.973 452.647 254.023 452.061 253.437L442.523 243.884C441.938 243.297 440.988 243.297 440.402 243.882C439.815 244.467 439.815 245.417 440.4 246.003L448.879 254.495L440.387 262.974C439.801 263.559 439.8 264.509 440.385 265.095C440.971 265.681 441.92 265.682 442.507 265.097L452.06 255.558ZM361.252 255.927L450.999 255.997L451.001 252.997L361.254 252.927L361.252 255.927Z" fill="#29B57D"/>
<rect x="707" y="238" width="82" height="33" rx="6" stroke="#000E41" stroke-width="4"/>
<path d="M619.563 218.08L619.593 218.061L619.623 218.041C621.66 216.653 624.34 216.653 626.377 218.041L626.407 218.061L626.437 218.08L676.405 249.56C679.865 251.943 679.865 257.057 676.405 259.44L626.437 290.92L626.407 290.939L626.377 290.959C624.34 292.347 621.66 292.347 619.623 290.959L619.593 290.939L619.563 290.92L569.595 259.44C566.135 257.057 566.135 251.943 569.595 249.56L619.563 218.08Z" stroke="#000E41" stroke-width="4"/>
<rect x="707" y="314" width="82" height="33" rx="6" stroke="#000E41" stroke-width="4"/>
<path d="M749.5 353C749.5 352.172 748.828 351.5 748 351.5C747.172 351.5 746.5 352.172 746.5 353H749.5ZM721.989 479.801C721.403 480.386 721.403 481.336 721.989 481.922L731.535 491.468C732.121 492.054 733.07 492.054 733.656 491.468C734.242 490.882 734.242 489.932 733.656 489.347L725.171 480.861L733.656 472.376C734.242 471.79 734.242 470.84 733.656 470.255C733.07 469.669 732.121 469.669 731.535 470.255L721.989 479.801ZM746.5 353V456.861H749.5V353H746.5ZM724 479.361H723.05V482.361H724V479.361ZM746.5 456.861C746.5 469.288 736.426 479.361 724 479.361V482.361C738.083 482.361 749.5 470.945 749.5 456.861H746.5Z" fill="#29B57D"/>
<rect x="582" y="314" width="82" height="33" rx="6" stroke="#000E41" stroke-width="4"/>
<path d="M624.5 353C624.5 352.172 623.828 351.5 623 351.5C622.172 351.5 621.5 352.172 621.5 353H624.5ZM657.061 481.922C657.646 481.336 657.646 480.386 657.061 479.801L647.515 470.255C646.929 469.669 645.979 469.669 645.393 470.255C644.808 470.84 644.808 471.79 645.393 472.376L653.879 480.861L645.393 489.347C644.808 489.932 644.808 490.882 645.393 491.468C645.979 492.054 646.929 492.054 647.515 491.468L657.061 481.922ZM621.5 353V456.861H624.5V353H621.5ZM647 482.361H656V479.361H647V482.361ZM621.5 456.861C621.5 470.945 632.917 482.361 647 482.361V479.361C634.574 479.361 624.5 469.288 624.5 456.861H621.5Z" fill="#29B57D"/>
<rect x="582" y="139" width="82" height="33" rx="16.5" stroke="#000E41" stroke-width="4"/>
<path d="M624.5 178C624.5 177.172 623.828 176.5 623 176.5C622.172 176.5 621.5 177.172 621.5 178H624.5ZM621.939 212.061C622.525 212.646 623.475 212.646 624.061 212.061L633.607 202.515C634.192 201.929 634.192 200.979 633.607 200.393C633.021 199.808 632.071 199.808 631.485 200.393L623 208.879L614.515 200.393C613.929 199.808 612.979 199.808 612.393 200.393C611.808 200.979 611.808 201.929 612.393 202.515L621.939 212.061ZM621.5 178V211H624.5V178H621.5Z" fill="#29B57D"/>
<path d="M561 256C561.828 256 562.5 255.328 562.5 254.5C562.5 253.672 561.828 253 561 253V256ZM543.939 253.439C543.354 254.025 543.354 254.975 543.939 255.561L553.485 265.107C554.071 265.692 555.021 265.692 555.607 265.107C556.192 264.521 556.192 263.571 555.607 262.985L547.121 254.5L555.607 246.015C556.192 245.429 556.192 244.479 555.607 243.893C555.021 243.308 554.071 243.308 553.485 243.893L543.939 253.439ZM561 253H545V256H561V253Z" fill="#29B57D"/>
<path d="M499.5 277C499.5 276.172 498.828 275.5 498 275.5C497.172 275.5 496.5 276.172 496.5 277H499.5ZM496.939 309.061C497.525 309.646 498.475 309.646 499.061 309.061L508.607 299.515C509.192 298.929 509.192 297.979 508.607 297.393C508.021 296.808 507.071 296.808 506.485 297.393L498 305.879L489.515 297.393C488.929 296.808 487.979 296.808 487.393 297.393C486.808 297.979 486.808 298.929 487.393 299.515L496.939 309.061ZM496.5 277V308H499.5V277H496.5Z" fill="#29B57D"/>
<path d="M749.5 277C749.5 276.172 748.828 275.5 748 275.5C747.172 275.5 746.5 276.172 746.5 277H749.5ZM746.939 309.061C747.525 309.646 748.475 309.646 749.061 309.061L758.607 299.515C759.192 298.929 759.192 297.979 758.607 297.393C758.021 296.808 757.071 296.808 756.485 297.393L748 305.879L739.515 297.393C738.929 296.808 737.979 296.808 737.393 297.393C736.808 297.979 736.808 298.929 737.393 299.515L746.939 309.061ZM746.5 277V308H749.5V277H746.5Z" fill="#29B57D"/>
<path d="M701 332C701.828 332 702.5 331.328 702.5 330.5C702.5 329.672 701.828 329 701 329V332ZM668.939 329.439C668.354 330.025 668.354 330.975 668.939 331.561L678.485 341.107C679.071 341.692 680.021 341.692 680.607 341.107C681.192 340.521 681.192 339.571 680.607 338.985L672.121 330.5L680.607 322.015C681.192 321.429 681.192 320.479 680.607 319.893C680.021 319.308 679.071 319.308 678.485 319.893L668.939 329.439ZM701 329H670V332H701V329Z" fill="#29B57D"/>
<path d="M685 253C684.172 253 683.5 253.672 683.5 254.5C683.5 255.328 684.172 256 685 256V253ZM702.061 255.561C702.646 254.975 702.646 254.025 702.061 253.439L692.515 243.893C691.929 243.308 690.979 243.308 690.393 243.893C689.808 244.479 689.808 245.429 690.393 246.015L698.879 254.5L690.393 262.985C689.808 263.571 689.808 264.521 690.393 265.107C690.979 265.692 691.929 265.692 692.515 265.107L702.061 255.561ZM685 256H701V253H685V256Z" fill="#29B57D"/>
<defs>
<clipPath id="clip0_603_1793">
<rect width="197" height="101" fill="white" transform="translate(928 249)"/>
</clipPath>
</defs>
</svg>
