<svg width="1200" height="300" viewBox="0 0 1200 300" fill="none" xmlns="http://www.w3.org/2000/svg">
<rect width="1200" height="300" rx="4" fill="#F2F2F6"/>
<rect x="152" y="68" width="200" height="50" rx="25" fill="#101C2B"/>
<path d="M226.324 92.168C226.324 92.6627 226.207 93.1293 225.974 93.568C225.74 94.0067 225.367 94.366 224.854 94.646C224.34 94.9167 223.682 95.052 222.88 95.052H221.116V99H219.52V89.27H222.88C223.626 89.27 224.256 89.4007 224.77 89.662C225.292 89.914 225.68 90.2593 225.932 90.698C226.193 91.1367 226.324 91.6267 226.324 92.168ZM222.88 93.75C223.486 93.75 223.939 93.6147 224.238 93.344C224.536 93.064 224.686 92.672 224.686 92.168C224.686 91.104 224.084 90.572 222.88 90.572H221.116V93.75H222.88ZM232.998 99L230.758 95.108H229.54V99H227.944V89.27H231.304C232.051 89.27 232.681 89.4007 233.194 89.662C233.717 89.9233 234.104 90.2733 234.356 90.712C234.617 91.1507 234.748 91.6407 234.748 92.182C234.748 92.8167 234.561 93.3953 234.188 93.918C233.824 94.4313 233.259 94.7813 232.494 94.968L234.902 99H232.998ZM229.54 93.834H231.304C231.901 93.834 232.349 93.6847 232.648 93.386C232.956 93.0873 233.11 92.686 233.11 92.182C233.11 91.678 232.961 91.286 232.662 91.006C232.363 90.7167 231.911 90.572 231.304 90.572H229.54V93.834ZM241.326 99.098C240.42 99.098 239.585 98.888 238.82 98.468C238.064 98.0387 237.462 97.446 237.014 96.69C236.575 95.9247 236.356 95.066 236.356 94.114C236.356 93.162 236.575 92.308 237.014 91.552C237.462 90.796 238.064 90.208 238.82 89.788C239.585 89.3587 240.42 89.144 241.326 89.144C242.24 89.144 243.076 89.3587 243.832 89.788C244.597 90.208 245.199 90.796 245.638 91.552C246.076 92.308 246.296 93.162 246.296 94.114C246.296 95.066 246.076 95.9247 245.638 96.69C245.199 97.446 244.597 98.0387 243.832 98.468C243.076 98.888 242.24 99.098 241.326 99.098ZM241.326 97.712C241.97 97.712 242.544 97.5673 243.048 97.278C243.552 96.9793 243.944 96.5593 244.224 96.018C244.513 95.4673 244.658 94.8327 244.658 94.114C244.658 93.3953 244.513 92.7653 244.224 92.224C243.944 91.6827 243.552 91.2673 243.048 90.978C242.544 90.6887 241.97 90.544 241.326 90.544C240.682 90.544 240.108 90.6887 239.604 90.978C239.1 91.2673 238.703 91.6827 238.414 92.224C238.134 92.7653 237.994 93.3953 237.994 94.114C237.994 94.8327 238.134 95.4673 238.414 96.018C238.703 96.5593 239.1 96.9793 239.604 97.278C240.108 97.5673 240.682 97.712 241.326 97.712ZM251.142 89.27C252.178 89.27 253.083 89.4707 253.858 89.872C254.642 90.264 255.244 90.8333 255.664 91.58C256.093 92.3173 256.308 93.1807 256.308 94.17C256.308 95.1593 256.093 96.018 255.664 96.746C255.244 97.474 254.642 98.034 253.858 98.426C253.083 98.8087 252.178 99 251.142 99H247.964V89.27H251.142ZM251.142 97.698C252.281 97.698 253.153 97.39 253.76 96.774C254.367 96.158 254.67 95.29 254.67 94.17C254.67 93.0407 254.367 92.1587 253.76 91.524C253.153 90.8893 252.281 90.572 251.142 90.572H249.56V97.698H251.142ZM259.57 89.27V95.472C259.57 96.2093 259.761 96.7647 260.144 97.138C260.536 97.5113 261.077 97.698 261.768 97.698C262.468 97.698 263.009 97.5113 263.392 97.138C263.784 96.7647 263.98 96.2093 263.98 95.472V89.27H265.576V95.444C265.576 96.2373 265.403 96.9093 265.058 97.46C264.713 98.0107 264.251 98.4213 263.672 98.692C263.093 98.9627 262.454 99.098 261.754 99.098C261.054 99.098 260.415 98.9627 259.836 98.692C259.267 98.4213 258.814 98.0107 258.478 97.46C258.142 96.9093 257.974 96.2373 257.974 95.444V89.27H259.57ZM267.22 94.114C267.22 93.162 267.439 92.308 267.878 91.552C268.326 90.796 268.928 90.208 269.684 89.788C270.449 89.3587 271.285 89.144 272.19 89.144C273.226 89.144 274.145 89.4007 274.948 89.914C275.76 90.418 276.348 91.1367 276.712 92.07H274.794C274.542 91.5567 274.192 91.174 273.744 90.922C273.296 90.67 272.778 90.544 272.19 90.544C271.546 90.544 270.972 90.6887 270.468 90.978C269.964 91.2673 269.567 91.6827 269.278 92.224C268.998 92.7653 268.858 93.3953 268.858 94.114C268.858 94.8327 268.998 95.4627 269.278 96.004C269.567 96.5453 269.964 96.9653 270.468 97.264C270.972 97.5533 271.546 97.698 272.19 97.698C272.778 97.698 273.296 97.572 273.744 97.32C274.192 97.068 274.542 96.6853 274.794 96.172H276.712C276.348 97.1053 275.76 97.824 274.948 98.328C274.145 98.832 273.226 99.084 272.19 99.084C271.275 99.084 270.44 98.874 269.684 98.454C268.928 98.0247 268.326 97.432 267.878 96.676C267.439 95.92 267.22 95.066 267.22 94.114ZM284.964 89.27V90.572H282.374V99H280.778V90.572H278.174V89.27H284.964Z" fill="white"/>
<path d="M417.545 70.66C418.433 70.66 419.209 70.832 419.873 71.176C420.545 71.512 421.061 72 421.421 72.64C421.789 73.272 421.973 74.012 421.973 74.86C421.973 75.708 421.789 76.444 421.421 77.068C421.061 77.692 420.545 78.172 419.873 78.508C419.209 78.836 418.433 79 417.545 79H414.821V70.66H417.545ZM417.545 77.884C418.521 77.884 419.269 77.62 419.789 77.092C420.309 76.564 420.569 75.82 420.569 74.86C420.569 73.892 420.309 73.136 419.789 72.592C419.269 72.048 418.521 71.776 417.545 71.776H416.189V77.884H417.545ZM424.795 71.764V74.212H427.675V75.328H424.795V77.884H428.035V79H423.427V70.648H428.035V71.764H424.795ZM431.186 77.896H434.006V79H429.818V70.66H431.186V77.896ZM440.276 77.296H436.784L436.184 79H434.756L437.744 70.648H439.328L442.316 79H440.876L440.276 77.296ZM439.892 76.18L438.536 72.304L437.168 76.18H439.892ZM449.893 70.66L447.133 75.976V79H445.765V75.976L442.993 70.66H444.517L446.449 74.752L448.381 70.66H449.893Z" fill="#101C2B"/>
<path d="M213.333 224.66C214.221 224.66 214.997 224.832 215.661 225.176C216.333 225.512 216.849 226 217.209 226.64C217.577 227.272 217.761 228.012 217.761 228.86C217.761 229.708 217.577 230.444 217.209 231.068C216.849 231.692 216.333 232.172 215.661 232.508C214.997 232.836 214.221 233 213.333 233H210.609V224.66H213.333ZM213.333 231.884C214.309 231.884 215.057 231.62 215.577 231.092C216.097 230.564 216.357 229.82 216.357 228.86C216.357 227.892 216.097 227.136 215.577 226.592C215.057 226.048 214.309 225.776 213.333 225.776H211.977V231.884H213.333ZM220.583 225.764V228.212H223.463V229.328H220.583V231.884H223.823V233H219.215V224.648H223.823V225.764H220.583ZM232.794 224.66L229.662 233H228.078L224.934 224.66H226.398L228.87 231.596L231.354 224.66H232.794ZM235.404 225.764V228.212H238.284V229.328H235.404V231.884H238.644V233H234.036V224.648H238.644V225.764H235.404ZM241.795 231.896H244.615V233H240.427V224.66H241.795V231.896ZM249.661 233.084C248.885 233.084 248.169 232.904 247.513 232.544C246.865 232.176 246.349 231.668 245.965 231.02C245.589 230.364 245.401 229.628 245.401 228.812C245.401 227.996 245.589 227.264 245.965 226.616C246.349 225.968 246.865 225.464 247.513 225.104C248.169 224.736 248.885 224.552 249.661 224.552C250.445 224.552 251.161 224.736 251.809 225.104C252.465 225.464 252.981 225.968 253.357 226.616C253.733 227.264 253.921 227.996 253.921 228.812C253.921 229.628 253.733 230.364 253.357 231.02C252.981 231.668 252.465 232.176 251.809 232.544C251.161 232.904 250.445 233.084 249.661 233.084ZM249.661 231.896C250.213 231.896 250.705 231.772 251.137 231.524C251.569 231.268 251.905 230.908 252.145 230.444C252.393 229.972 252.517 229.428 252.517 228.812C252.517 228.196 252.393 227.656 252.145 227.192C251.905 226.728 251.569 226.372 251.137 226.124C250.705 225.876 250.213 225.752 249.661 225.752C249.109 225.752 248.617 225.876 248.185 226.124C247.753 226.372 247.413 226.728 247.165 227.192C246.925 227.656 246.805 228.196 246.805 228.812C246.805 229.428 246.925 229.972 247.165 230.444C247.413 230.908 247.753 231.268 248.185 231.524C248.617 231.772 249.109 231.896 249.661 231.896ZM261.197 227.144C261.197 227.568 261.097 227.968 260.897 228.344C260.697 228.72 260.377 229.028 259.937 229.268C259.497 229.5 258.933 229.616 258.245 229.616H256.733V233H255.365V224.66H258.245C258.885 224.66 259.425 224.772 259.865 224.996C260.313 225.212 260.645 225.508 260.861 225.884C261.085 226.26 261.197 226.68 261.197 227.144ZM258.245 228.5C258.765 228.5 259.153 228.384 259.409 228.152C259.665 227.912 259.793 227.576 259.793 227.144C259.793 226.232 259.277 225.776 258.245 225.776H256.733V228.5H258.245ZM271.384 224.66V233H270.016V227.288L267.472 233H266.524L263.968 227.288V233H262.6V224.66H264.076L267.004 231.2L269.92 224.66H271.384ZM274.648 225.764V228.212H277.528V229.328H274.648V231.884H277.888V233H273.28V224.648H277.888V225.764H274.648ZM286.523 233H285.155L281.039 226.772V233H279.671V224.648H281.039L285.155 230.864V224.648H286.523V233ZM293.805 224.66V225.776H291.585V233H290.217V225.776H287.985V224.66H293.805Z" fill="#101C2B"/>
<path d="M592.931 228.812C592.931 227.996 593.119 227.264 593.495 226.616C593.879 225.968 594.395 225.464 595.043 225.104C595.699 224.736 596.415 224.552 597.191 224.552C598.079 224.552 598.867 224.772 599.555 225.212C600.251 225.644 600.755 226.26 601.067 227.06H599.423C599.207 226.62 598.907 226.292 598.523 226.076C598.139 225.86 597.695 225.752 597.191 225.752C596.639 225.752 596.147 225.876 595.715 226.124C595.283 226.372 594.943 226.728 594.695 227.192C594.455 227.656 594.335 228.196 594.335 228.812C594.335 229.428 594.455 229.968 594.695 230.432C594.943 230.896 595.283 231.256 595.715 231.512C596.147 231.76 596.639 231.884 597.191 231.884C597.695 231.884 598.139 231.776 598.523 231.56C598.907 231.344 599.207 231.016 599.423 230.576H601.067C600.755 231.376 600.251 231.992 599.555 232.424C598.867 232.856 598.079 233.072 597.191 233.072C596.407 233.072 595.691 232.892 595.043 232.532C594.395 232.164 593.879 231.656 593.495 231.008C593.119 230.36 592.931 229.628 592.931 228.812ZM606.571 233.084C605.795 233.084 605.079 232.904 604.423 232.544C603.775 232.176 603.259 231.668 602.875 231.02C602.499 230.364 602.311 229.628 602.311 228.812C602.311 227.996 602.499 227.264 602.875 226.616C603.259 225.968 603.775 225.464 604.423 225.104C605.079 224.736 605.795 224.552 606.571 224.552C607.355 224.552 608.071 224.736 608.719 225.104C609.375 225.464 609.891 225.968 610.267 226.616C610.643 227.264 610.831 227.996 610.831 228.812C610.831 229.628 610.643 230.364 610.267 231.02C609.891 231.668 609.375 232.176 608.719 232.544C608.071 232.904 607.355 233.084 606.571 233.084ZM606.571 231.896C607.123 231.896 607.615 231.772 608.047 231.524C608.479 231.268 608.815 230.908 609.055 230.444C609.303 229.972 609.427 229.428 609.427 228.812C609.427 228.196 609.303 227.656 609.055 227.192C608.815 226.728 608.479 226.372 608.047 226.124C607.615 225.876 607.123 225.752 606.571 225.752C606.019 225.752 605.527 225.876 605.095 226.124C604.663 226.372 604.323 226.728 604.075 227.192C603.835 227.656 603.715 228.196 603.715 228.812C603.715 229.428 603.835 229.972 604.075 230.444C604.323 230.908 604.663 231.268 605.095 231.524C605.527 231.772 606.019 231.896 606.571 231.896ZM619.127 233H617.759L613.643 226.772V233H612.275V224.648H613.643L617.759 230.864V224.648H619.127V233ZM626.409 224.66V225.776H624.189V233H622.821V225.776H620.589V224.66H626.409ZM632.225 233L630.305 229.664H629.261V233H627.893V224.66H630.773C631.413 224.66 631.953 224.772 632.393 224.996C632.841 225.22 633.173 225.52 633.389 225.896C633.613 226.272 633.725 226.692 633.725 227.156C633.725 227.7 633.565 228.196 633.245 228.644C632.933 229.084 632.449 229.384 631.793 229.544L633.857 233H632.225ZM629.261 228.572H630.773C631.285 228.572 631.669 228.444 631.925 228.188C632.189 227.932 632.321 227.588 632.321 227.156C632.321 226.724 632.193 226.388 631.937 226.148C631.681 225.9 631.293 225.776 630.773 225.776H629.261V228.572ZM639.377 233.084C638.601 233.084 637.885 232.904 637.229 232.544C636.581 232.176 636.065 231.668 635.681 231.02C635.305 230.364 635.117 229.628 635.117 228.812C635.117 227.996 635.305 227.264 635.681 226.616C636.065 225.968 636.581 225.464 637.229 225.104C637.885 224.736 638.601 224.552 639.377 224.552C640.161 224.552 640.877 224.736 641.525 225.104C642.181 225.464 642.697 225.968 643.073 226.616C643.449 227.264 643.637 227.996 643.637 228.812C643.637 229.628 643.449 230.364 643.073 231.02C642.697 231.668 642.181 232.176 641.525 232.544C640.877 232.904 640.161 233.084 639.377 233.084ZM639.377 231.896C639.929 231.896 640.421 231.772 640.853 231.524C641.285 231.268 641.621 230.908 641.861 230.444C642.109 229.972 642.233 229.428 642.233 228.812C642.233 228.196 642.109 227.656 641.861 227.192C641.621 226.728 641.285 226.372 640.853 226.124C640.421 225.876 639.929 225.752 639.377 225.752C638.825 225.752 638.333 225.876 637.901 226.124C637.469 226.372 637.129 226.728 636.881 227.192C636.641 227.656 636.521 228.196 636.521 228.812C636.521 229.428 636.641 229.972 636.881 230.444C637.129 230.908 637.469 231.268 637.901 231.524C638.333 231.772 638.825 231.896 639.377 231.896ZM646.449 231.896H649.269V233H645.081V224.66H646.449V231.896Z" fill="#101C2B"/>
<path d="M957.249 233.084C956.473 233.084 955.757 232.904 955.101 232.544C954.453 232.176 953.937 231.668 953.553 231.02C953.177 230.364 952.989 229.628 952.989 228.812C952.989 227.996 953.177 227.264 953.553 226.616C953.937 225.968 954.453 225.464 955.101 225.104C955.757 224.736 956.473 224.552 957.249 224.552C958.033 224.552 958.749 224.736 959.397 225.104C960.053 225.464 960.569 225.968 960.945 226.616C961.321 227.264 961.509 227.996 961.509 228.812C961.509 229.628 961.321 230.364 960.945 231.02C960.569 231.668 960.053 232.176 959.397 232.544C958.749 232.904 958.033 233.084 957.249 233.084ZM957.249 231.896C957.801 231.896 958.293 231.772 958.725 231.524C959.157 231.268 959.493 230.908 959.733 230.444C959.981 229.972 960.105 229.428 960.105 228.812C960.105 228.196 959.981 227.656 959.733 227.192C959.493 226.728 959.157 226.372 958.725 226.124C958.293 225.876 957.801 225.752 957.249 225.752C956.697 225.752 956.205 225.876 955.773 226.124C955.341 226.372 955.001 226.728 954.753 227.192C954.513 227.656 954.393 228.196 954.393 228.812C954.393 229.428 954.513 229.972 954.753 230.444C955.001 230.908 955.341 231.268 955.773 231.524C956.205 231.772 956.697 231.896 957.249 231.896ZM968.785 227.144C968.785 227.568 968.685 227.968 968.485 228.344C968.285 228.72 967.965 229.028 967.525 229.268C967.085 229.5 966.521 229.616 965.833 229.616H964.321V233H962.953V224.66H965.833C966.473 224.66 967.013 224.772 967.453 224.996C967.901 225.212 968.233 225.508 968.449 225.884C968.673 226.26 968.785 226.68 968.785 227.144ZM965.833 228.5C966.353 228.5 966.741 228.384 966.997 228.152C967.253 227.912 967.381 227.576 967.381 227.144C967.381 226.232 966.865 225.776 965.833 225.776H964.321V228.5H965.833ZM971.556 225.764V228.212H974.436V229.328H971.556V231.884H974.796V233H970.188V224.648H974.796V225.764H971.556ZM980.911 233L978.991 229.664H977.947V233H976.579V224.66H979.459C980.099 224.66 980.639 224.772 981.079 224.996C981.527 225.22 981.859 225.52 982.075 225.896C982.299 226.272 982.411 226.692 982.411 227.156C982.411 227.7 982.251 228.196 981.931 228.644C981.619 229.084 981.135 229.384 980.479 229.544L982.543 233H980.911ZM977.947 228.572H979.459C979.971 228.572 980.355 228.444 980.611 228.188C980.875 227.932 981.007 227.588 981.007 227.156C981.007 226.724 980.879 226.388 980.623 226.148C980.367 225.9 979.979 225.776 979.459 225.776H977.947V228.572ZM989.287 231.296H985.795L985.195 233H983.767L986.755 224.648H988.339L991.327 233H989.887L989.287 231.296ZM988.903 230.18L987.547 226.304L986.179 230.18H988.903ZM998.112 224.66V225.776H995.892V233H994.524V225.776H992.292V224.66H998.112ZM1000.96 224.66V233H999.596V224.66H1000.96ZM1006.66 233.084C1005.89 233.084 1005.17 232.904 1004.51 232.544C1003.87 232.176 1003.35 231.668 1002.97 231.02C1002.59 230.364 1002.4 229.628 1002.4 228.812C1002.4 227.996 1002.59 227.264 1002.97 226.616C1003.35 225.968 1003.87 225.464 1004.51 225.104C1005.17 224.736 1005.89 224.552 1006.66 224.552C1007.45 224.552 1008.16 224.736 1008.81 225.104C1009.47 225.464 1009.98 225.968 1010.36 226.616C1010.73 227.264 1010.92 227.996 1010.92 228.812C1010.92 229.628 1010.73 230.364 1010.36 231.02C1009.98 231.668 1009.47 232.176 1008.81 232.544C1008.16 232.904 1007.45 233.084 1006.66 233.084ZM1006.66 231.896C1007.21 231.896 1007.71 231.772 1008.14 231.524C1008.57 231.268 1008.91 230.908 1009.15 230.444C1009.39 229.972 1009.52 229.428 1009.52 228.812C1009.52 228.196 1009.39 227.656 1009.15 227.192C1008.91 226.728 1008.57 226.372 1008.14 226.124C1007.71 225.876 1007.21 225.752 1006.66 225.752C1006.11 225.752 1005.62 225.876 1005.19 226.124C1004.75 226.372 1004.41 226.728 1004.17 227.192C1003.93 227.656 1003.81 228.196 1003.81 228.812C1003.81 229.428 1003.93 229.972 1004.17 230.444C1004.41 230.908 1004.75 231.268 1005.19 231.524C1005.62 231.772 1006.11 231.896 1006.66 231.896ZM1019.22 233H1017.85L1013.73 226.772V233H1012.37V224.648H1013.73L1017.85 230.864V224.648H1019.22V233ZM1023.86 233.084C1023.3 233.084 1022.8 232.988 1022.35 232.796C1021.9 232.596 1021.55 232.316 1021.29 231.956C1021.04 231.596 1020.91 231.176 1020.91 230.696H1022.37C1022.4 231.056 1022.54 231.352 1022.79 231.584C1023.05 231.816 1023.4 231.932 1023.86 231.932C1024.33 231.932 1024.7 231.82 1024.96 231.596C1025.23 231.364 1025.36 231.068 1025.36 230.708C1025.36 230.428 1025.28 230.2 1025.11 230.024C1024.95 229.848 1024.74 229.712 1024.5 229.616C1024.26 229.52 1023.92 229.416 1023.49 229.304C1022.94 229.16 1022.5 229.016 1022.16 228.872C1021.82 228.72 1021.53 228.488 1021.29 228.176C1021.05 227.864 1020.93 227.448 1020.93 226.928C1020.93 226.448 1021.05 226.028 1021.29 225.668C1021.53 225.308 1021.87 225.032 1022.3 224.84C1022.73 224.648 1023.23 224.552 1023.8 224.552C1024.61 224.552 1025.27 224.756 1025.78 225.164C1026.3 225.564 1026.59 226.116 1026.64 226.82H1025.13C1025.11 226.516 1024.96 226.256 1024.7 226.04C1024.44 225.824 1024.09 225.716 1023.66 225.716C1023.26 225.716 1022.94 225.816 1022.7 226.016C1022.45 226.216 1022.32 226.504 1022.32 226.88C1022.32 227.136 1022.4 227.348 1022.55 227.516C1022.71 227.676 1022.91 227.804 1023.15 227.9C1023.39 227.996 1023.72 228.1 1024.14 228.212C1024.69 228.364 1025.14 228.516 1025.48 228.668C1025.83 228.82 1026.13 229.056 1026.37 229.376C1026.62 229.688 1026.74 230.108 1026.74 230.636C1026.74 231.06 1026.62 231.46 1026.39 231.836C1026.17 232.212 1025.84 232.516 1025.4 232.748C1024.96 232.972 1024.45 233.084 1023.86 233.084Z" fill="#101C2B"/>
<path d="M790.545 70.66C791.433 70.66 792.209 70.832 792.873 71.176C793.545 71.512 794.061 72 794.421 72.64C794.789 73.272 794.973 74.012 794.973 74.86C794.973 75.708 794.789 76.444 794.421 77.068C794.061 77.692 793.545 78.172 792.873 78.508C792.209 78.836 791.433 79 790.545 79H787.821V70.66H790.545ZM790.545 77.884C791.521 77.884 792.269 77.62 792.789 77.092C793.309 76.564 793.569 75.82 793.569 74.86C793.569 73.892 793.309 73.136 792.789 72.592C792.269 72.048 791.521 71.776 790.545 71.776H789.189V77.884H790.545ZM797.795 71.764V74.212H800.675V75.328H797.795V77.884H801.035V79H796.427V70.648H801.035V71.764H797.795ZM804.186 77.896H807.006V79H802.818V70.66H804.186V77.896ZM813.276 77.296H809.784L809.184 79H807.756L810.744 70.648H812.328L815.316 79H813.876L813.276 77.296ZM812.892 76.18L811.536 72.304L810.168 76.18H812.892ZM822.893 70.66L820.133 75.976V79H818.765V75.976L815.993 70.66H817.517L819.449 74.752L821.381 70.66H822.893Z" fill="#101C2B"/>
<rect x="521" y="68" width="200" height="50" rx="25" fill="#101C2B"/>
<path d="M575.871 94.114C575.871 93.162 576.09 92.308 576.529 91.552C576.977 90.796 577.579 90.208 578.335 89.788C579.1 89.3587 579.936 89.144 580.841 89.144C581.877 89.144 582.796 89.4007 583.599 89.914C584.411 90.418 584.999 91.1367 585.363 92.07H583.445C583.193 91.5567 582.843 91.174 582.395 90.922C581.947 90.67 581.429 90.544 580.841 90.544C580.197 90.544 579.623 90.6887 579.119 90.978C578.615 91.2673 578.218 91.6827 577.929 92.224C577.649 92.7653 577.509 93.3953 577.509 94.114C577.509 94.8327 577.649 95.4627 577.929 96.004C578.218 96.5453 578.615 96.9653 579.119 97.264C579.623 97.5533 580.197 97.698 580.841 97.698C581.429 97.698 581.947 97.572 582.395 97.32C582.843 97.068 583.193 96.6853 583.445 96.172H585.363C584.999 97.1053 584.411 97.824 583.599 98.328C582.796 98.832 581.877 99.084 580.841 99.084C579.926 99.084 579.091 98.874 578.335 98.454C577.579 98.0247 576.977 97.432 576.529 96.676C576.09 95.92 575.871 95.066 575.871 94.114ZM591.767 99.098C590.862 99.098 590.026 98.888 589.261 98.468C588.505 98.0387 587.903 97.446 587.455 96.69C587.016 95.9247 586.797 95.066 586.797 94.114C586.797 93.162 587.016 92.308 587.455 91.552C587.903 90.796 588.505 90.208 589.261 89.788C590.026 89.3587 590.862 89.144 591.767 89.144C592.682 89.144 593.517 89.3587 594.273 89.788C595.038 90.208 595.64 90.796 596.079 91.552C596.518 92.308 596.737 93.162 596.737 94.114C596.737 95.066 596.518 95.9247 596.079 96.69C595.64 97.446 595.038 98.0387 594.273 98.468C593.517 98.888 592.682 99.098 591.767 99.098ZM591.767 97.712C592.411 97.712 592.985 97.5673 593.489 97.278C593.993 96.9793 594.385 96.5593 594.665 96.018C594.954 95.4673 595.099 94.8327 595.099 94.114C595.099 93.3953 594.954 92.7653 594.665 92.224C594.385 91.6827 593.993 91.2673 593.489 90.978C592.985 90.6887 592.411 90.544 591.767 90.544C591.123 90.544 590.549 90.6887 590.045 90.978C589.541 91.2673 589.144 91.6827 588.855 92.224C588.575 92.7653 588.435 93.3953 588.435 94.114C588.435 94.8327 588.575 95.4673 588.855 96.018C589.144 96.5593 589.541 96.9793 590.045 97.278C590.549 97.5673 591.123 97.712 591.767 97.712ZM608.654 89.27V99H607.058V92.336L604.09 99H602.984L600.002 92.336V99H598.406V89.27H600.128L603.544 96.9L606.946 89.27H608.654ZM617.653 92.168C617.653 92.6627 617.537 93.1293 617.303 93.568C617.07 94.0067 616.697 94.366 616.183 94.646C615.67 94.9167 615.012 95.052 614.209 95.052H612.445V99H610.849V89.27H614.209C614.956 89.27 615.586 89.4007 616.099 89.662C616.622 89.914 617.009 90.2593 617.261 90.698C617.523 91.1367 617.653 91.6267 617.653 92.168ZM614.209 93.75C614.816 93.75 615.269 93.6147 615.567 93.344C615.866 93.064 616.015 92.672 616.015 92.168C616.015 91.104 615.413 90.572 614.209 90.572H612.445V93.75H614.209ZM620.869 97.712H624.159V99H619.273V89.27H620.869V97.712ZM627.188 89.27V99H625.592V89.27H627.188ZM635.248 97.012H631.174L630.474 99H628.808L632.294 89.256H634.142L637.628 99H635.948L635.248 97.012ZM634.8 95.71L633.218 91.188L631.622 95.71H634.8ZM647.235 99H645.639L640.837 91.734V99H639.241V89.256H640.837L645.639 96.508V89.256H647.235V99ZM648.897 94.114C648.897 93.162 649.116 92.308 649.555 91.552C650.003 90.796 650.605 90.208 651.361 89.788C652.126 89.3587 652.962 89.144 653.867 89.144C654.903 89.144 655.822 89.4007 656.625 89.914C657.437 90.418 658.025 91.1367 658.389 92.07H656.471C656.219 91.5567 655.869 91.174 655.421 90.922C654.973 90.67 654.455 90.544 653.867 90.544C653.223 90.544 652.649 90.6887 652.145 90.978C651.641 91.2673 651.244 91.6827 650.955 92.224C650.675 92.7653 650.535 93.3953 650.535 94.114C650.535 94.8327 650.675 95.4627 650.955 96.004C651.244 96.5453 651.641 96.9653 652.145 97.264C652.649 97.5533 653.223 97.698 653.867 97.698C654.455 97.698 654.973 97.572 655.421 97.32C655.869 97.068 656.219 96.6853 656.471 96.172H658.389C658.025 97.1053 657.437 97.824 656.625 98.328C655.822 98.832 654.903 99.084 653.867 99.084C652.952 99.084 652.117 98.874 651.361 98.454C650.605 98.0247 650.003 97.432 649.555 96.676C649.116 95.92 648.897 95.066 648.897 94.114ZM661.951 90.558V93.414H665.311V94.716H661.951V97.698H665.731V99H660.355V89.256H665.731V90.558H661.951Z" fill="white"/>
<rect x="890" y="68" width="200" height="50" rx="25" fill="#101C2B"/>
<path d="M951.797 91.168C951.797 91.6627 951.68 92.1293 951.447 92.568C951.213 93.0067 950.84 93.366 950.327 93.646C949.813 93.9167 949.155 94.052 948.353 94.052H946.589V98H944.993V88.27H948.353C949.099 88.27 949.729 88.4007 950.243 88.662C950.765 88.914 951.153 89.2593 951.405 89.698C951.666 90.1367 951.797 90.6267 951.797 91.168ZM948.353 92.75C948.959 92.75 949.412 92.6147 949.711 92.344C950.009 92.064 950.159 91.672 950.159 91.168C950.159 90.104 949.557 89.572 948.353 89.572H946.589V92.75H948.353ZM958.471 98L956.231 94.108H955.013V98H953.417V88.27H956.777C957.524 88.27 958.154 88.4007 958.667 88.662C959.19 88.9233 959.577 89.2733 959.829 89.712C960.09 90.1507 960.221 90.6407 960.221 91.182C960.221 91.8167 960.034 92.3953 959.661 92.918C959.297 93.4313 958.732 93.7813 957.967 93.968L960.375 98H958.471ZM955.013 92.834H956.777C957.374 92.834 957.822 92.6847 958.121 92.386C958.429 92.0873 958.583 91.686 958.583 91.182C958.583 90.678 958.434 90.286 958.135 90.006C957.836 89.7167 957.384 89.572 956.777 89.572H955.013V92.834ZM966.799 98.098C965.893 98.098 965.058 97.888 964.293 97.468C963.537 97.0387 962.935 96.446 962.487 95.69C962.048 94.9247 961.829 94.066 961.829 93.114C961.829 92.162 962.048 91.308 962.487 90.552C962.935 89.796 963.537 89.208 964.293 88.788C965.058 88.3587 965.893 88.144 966.799 88.144C967.713 88.144 968.549 88.3587 969.305 88.788C970.07 89.208 970.672 89.796 971.111 90.552C971.549 91.308 971.769 92.162 971.769 93.114C971.769 94.066 971.549 94.9247 971.111 95.69C970.672 96.446 970.07 97.0387 969.305 97.468C968.549 97.888 967.713 98.098 966.799 98.098ZM966.799 96.712C967.443 96.712 968.017 96.5673 968.521 96.278C969.025 95.9793 969.417 95.5593 969.697 95.018C969.986 94.4673 970.131 93.8327 970.131 93.114C970.131 92.3953 969.986 91.7653 969.697 91.224C969.417 90.6827 969.025 90.2673 968.521 89.978C968.017 89.6887 967.443 89.544 966.799 89.544C966.155 89.544 965.581 89.6887 965.077 89.978C964.573 90.2673 964.176 90.6827 963.887 91.224C963.607 91.7653 963.467 92.3953 963.467 93.114C963.467 93.8327 963.607 94.4673 963.887 95.018C964.176 95.5593 964.573 95.9793 965.077 96.278C965.581 96.5673 966.155 96.712 966.799 96.712ZM976.615 88.27C977.651 88.27 978.557 88.4707 979.331 88.872C980.115 89.264 980.717 89.8333 981.137 90.58C981.567 91.3173 981.781 92.1807 981.781 93.17C981.781 94.1593 981.567 95.018 981.137 95.746C980.717 96.474 980.115 97.034 979.331 97.426C978.557 97.8087 977.651 98 976.615 98H973.437V88.27H976.615ZM976.615 96.698C977.754 96.698 978.627 96.39 979.233 95.774C979.84 95.158 980.143 94.29 980.143 93.17C980.143 92.0407 979.84 91.1587 979.233 90.524C978.627 89.8893 977.754 89.572 976.615 89.572H975.033V96.698H976.615ZM985.043 88.27V94.472C985.043 95.2093 985.234 95.7647 985.617 96.138C986.009 96.5113 986.55 96.698 987.241 96.698C987.941 96.698 988.482 96.5113 988.865 96.138C989.257 95.7647 989.453 95.2093 989.453 94.472V88.27H991.049V94.444C991.049 95.2373 990.876 95.9093 990.531 96.46C990.186 97.0107 989.724 97.4213 989.145 97.692C988.566 97.9627 987.927 98.098 987.227 98.098C986.527 98.098 985.888 97.9627 985.309 97.692C984.74 97.4213 984.287 97.0107 983.951 96.46C983.615 95.9093 983.447 95.2373 983.447 94.444V88.27H985.043ZM992.693 93.114C992.693 92.162 992.912 91.308 993.351 90.552C993.799 89.796 994.401 89.208 995.157 88.788C995.922 88.3587 996.758 88.144 997.663 88.144C998.699 88.144 999.618 88.4007 1000.42 88.914C1001.23 89.418 1001.82 90.1367 1002.18 91.07H1000.27C1000.01 90.5567 999.665 90.174 999.217 89.922C998.769 89.67 998.251 89.544 997.663 89.544C997.019 89.544 996.445 89.6887 995.941 89.978C995.437 90.2673 995.04 90.6827 994.751 91.224C994.471 91.7653 994.331 92.3953 994.331 93.114C994.331 93.8327 994.471 94.4627 994.751 95.004C995.04 95.5453 995.437 95.9653 995.941 96.264C996.445 96.5533 997.019 96.698 997.663 96.698C998.251 96.698 998.769 96.572 999.217 96.32C999.665 96.068 1000.01 95.6853 1000.27 95.172H1002.18C1001.82 96.1053 1001.23 96.824 1000.42 97.328C999.618 97.832 998.699 98.084 997.663 98.084C996.748 98.084 995.913 97.874 995.157 97.454C994.401 97.0247 993.799 96.432 993.351 95.676C992.912 94.92 992.693 94.066 992.693 93.114ZM1010.44 88.27V89.572H1007.85V98H1006.25V89.572H1003.65V88.27H1010.44ZM1013.75 88.27V98H1012.15V88.27H1013.75ZM1020.38 98.098C1019.47 98.098 1018.64 97.888 1017.87 97.468C1017.12 97.0387 1016.51 96.446 1016.07 95.69C1015.63 94.9247 1015.41 94.066 1015.41 93.114C1015.41 92.162 1015.63 91.308 1016.07 90.552C1016.51 89.796 1017.12 89.208 1017.87 88.788C1018.64 88.3587 1019.47 88.144 1020.38 88.144C1021.29 88.144 1022.13 88.3587 1022.88 88.788C1023.65 89.208 1024.25 89.796 1024.69 90.552C1025.13 91.308 1025.35 92.162 1025.35 93.114C1025.35 94.066 1025.13 94.9247 1024.69 95.69C1024.25 96.446 1023.65 97.0387 1022.88 97.468C1022.13 97.888 1021.29 98.098 1020.38 98.098ZM1020.38 96.712C1021.02 96.712 1021.6 96.5673 1022.1 96.278C1022.6 95.9793 1023 95.5593 1023.28 95.018C1023.57 94.4673 1023.71 93.8327 1023.71 93.114C1023.71 92.3953 1023.57 91.7653 1023.28 91.224C1023 90.6827 1022.6 90.2673 1022.1 89.978C1021.6 89.6887 1021.02 89.544 1020.38 89.544C1019.73 89.544 1019.16 89.6887 1018.66 89.978C1018.15 90.2673 1017.76 90.6827 1017.47 91.224C1017.19 91.7653 1017.05 92.3953 1017.05 93.114C1017.05 93.8327 1017.19 94.4673 1017.47 95.018C1017.76 95.5593 1018.15 95.9793 1018.66 96.278C1019.16 96.5673 1019.73 96.712 1020.38 96.712ZM1035.01 98H1033.42L1028.61 90.734V98H1027.02V88.256H1028.61L1033.42 95.508V88.256H1035.01V98Z" fill="white"/>
<path d="M725 91.5C724.172 91.5 723.5 92.1716 723.5 93C723.5 93.8284 724.172 94.5 725 94.5V93V91.5ZM887.061 94.0607C887.646 93.4749 887.646 92.5251 887.061 91.9393L877.515 82.3934C876.929 81.8076 875.979 81.8076 875.393 82.3934C874.808 82.9792 874.808 83.9289 875.393 84.5147L883.879 93L875.393 101.485C874.808 102.071 874.808 103.021 875.393 103.607C875.979 104.192 876.929 104.192 877.515 103.607L887.061 94.0607ZM725 93V94.5H728.096V93V91.5H725V93ZM734.288 93V94.5H740.481V93V91.5H734.288V93ZM746.673 93V94.5H752.865V93V91.5H746.673V93ZM759.058 93V94.5H765.25V93V91.5H759.058V93ZM771.442 93V94.5H777.635V93V91.5H771.442V93ZM783.827 93V94.5H790.019V93V91.5H783.827V93ZM796.212 93V94.5H802.404V93V91.5H796.212V93ZM808.596 93V94.5H814.788V93V91.5H808.596V93ZM820.981 93V94.5H827.173V93V91.5H820.981V93ZM833.365 93V94.5H839.558V93V91.5H833.365V93ZM845.75 93V94.5H851.942V93V91.5H845.75V93ZM858.135 93V94.5H864.327V93V91.5H858.135V93ZM870.519 93V94.5H876.712V93V91.5H870.519V93ZM882.904 93V94.5H886V93V91.5H882.904V93Z" fill="#788596"/>
<path d="M356 91.5C355.172 91.5 354.5 92.1716 354.5 93C354.5 93.8284 355.172 94.5 356 94.5V93V91.5ZM518.061 94.0607C518.646 93.4749 518.646 92.5251 518.061 91.9393L508.515 82.3934C507.929 81.8076 506.979 81.8076 506.393 82.3934C505.808 82.9792 505.808 83.9289 506.393 84.5147L514.879 93L506.393 101.485C505.808 102.071 505.808 103.021 506.393 103.607C506.979 104.192 507.929 104.192 508.515 103.607L518.061 94.0607ZM356 93V94.5H359.096V93V91.5H356V93ZM365.288 93V94.5H371.481V93V91.5H365.288V93ZM377.673 93V94.5H383.865V93V91.5H377.673V93ZM390.058 93V94.5H396.25V93V91.5H390.058V93ZM402.442 93V94.5H408.635V93V91.5H402.442V93ZM414.827 93V94.5H421.019V93V91.5H414.827V93ZM427.212 93V94.5H433.404V93V91.5H427.212V93ZM439.596 93V94.5H445.788V93V91.5H439.596V93ZM451.981 93V94.5H458.173V93V91.5H451.981V93ZM464.365 93V94.5H470.558V93V91.5H464.365V93ZM476.75 93V94.5H482.942V93V91.5H476.75V93ZM489.135 93V94.5H495.327V93V91.5H489.135V93ZM501.519 93V94.5H507.712V93V91.5H501.519V93ZM513.904 93V94.5H517V93V91.5H513.904V93Z" fill="#788596"/>
<mask id="path-15-inside-1_2161_7711" fill="white">
<path d="M252.5 169C266.595 169 278.21 179.604 279.81 193.27C279.933 193.827 280 194.406 280 195V202C280 206.418 276.418 210 272 210H233C228.582 210 225 206.418 225 202V195C225 194.406 225.067 193.827 225.189 193.27C226.789 179.604 238.405 169 252.5 169Z"/>
</mask>
<path d="M252.5 169C266.595 169 278.21 179.604 279.81 193.27C279.933 193.827 280 194.406 280 195V202C280 206.418 276.418 210 272 210H233C228.582 210 225 206.418 225 202V195C225 194.406 225.067 193.827 225.189 193.27C226.789 179.604 238.405 169 252.5 169Z" fill="#E5BE65"/>
<path d="M279.81 193.27L275.837 193.734L275.86 193.934L275.903 194.131L279.81 193.27ZM280 195L284 195L280 195ZM225 202L221 202L225 202ZM225.189 193.27L229.096 194.131L229.139 193.934L229.162 193.734L225.189 193.27ZM252.5 169V173C264.541 173 274.471 182.06 275.837 193.734L279.81 193.27L283.782 192.805C281.95 177.148 268.648 165 252.5 165V169ZM279.81 193.27L275.903 194.131C275.967 194.42 276 194.71 276 195L280 195L284 195C284 194.102 283.898 193.234 283.716 192.408L279.81 193.27ZM280 195H276V202H280H284V195H280ZM280 202H276C276 204.209 274.209 206 272 206V210V214C278.627 214 284 208.627 284 202H280ZM272 210V206H233V210V214H272V210ZM233 210V206C230.791 206 229 204.209 229 202L225 202L221 202C221 208.627 226.373 214 233 214V210ZM225 202H229V195H225H221V202H225ZM225 195H229C229 194.705 229.033 194.415 229.096 194.131L225.189 193.27L221.283 192.408C221.1 193.238 221 194.106 221 195H225ZM225.189 193.27L229.162 193.734C230.528 182.061 240.458 173 252.5 173V169V165C236.352 165 223.049 177.148 221.217 192.805L225.189 193.27Z" fill="#101C2B" mask="url(#path-15-inside-1_2161_7711)"/>
<circle cx="209" cy="150" r="13" fill="#E5BE65" stroke="#101C2B" stroke-width="4"/>
<circle cx="252" cy="150" r="13" fill="#E5BE65" stroke="#101C2B" stroke-width="4"/>
<circle cx="294" cy="150" r="13" fill="#E5BE65" stroke="#101C2B" stroke-width="4"/>
<mask id="path-20-inside-2_2161_7711" fill="white">
<path d="M209.5 169C216.871 169 223.562 171.901 228.499 176.622C228.453 176.666 228.406 176.71 228.36 176.755C228.301 176.813 228.242 176.87 228.183 176.929C228.097 177.013 228.013 177.097 227.929 177.183C227.866 177.246 227.804 177.31 227.742 177.374C227.642 177.477 227.543 177.581 227.445 177.686C227.417 177.716 227.388 177.747 227.359 177.777C227.248 177.897 227.138 178.016 227.029 178.138C226.993 178.179 226.956 178.22 226.92 178.261C226.82 178.373 226.72 178.486 226.622 178.601C226.581 178.649 226.54 178.698 226.499 178.747C226.404 178.86 226.308 178.973 226.215 179.087C226.19 179.117 226.167 179.147 226.143 179.177C225.277 180.243 224.489 181.376 223.788 182.565C223.769 182.598 223.749 182.631 223.729 182.664C223.654 182.793 223.58 182.923 223.507 183.054C223.472 183.116 223.438 183.179 223.403 183.241C223.332 183.37 223.262 183.5 223.193 183.63C223.167 183.679 223.14 183.729 223.114 183.778C223.044 183.912 222.975 184.047 222.907 184.183C222.88 184.237 222.853 184.291 222.826 184.346C222.757 184.485 222.69 184.626 222.623 184.767C222.602 184.812 222.581 184.857 222.56 184.902C221.533 187.106 220.79 189.469 220.377 191.943C220.372 191.976 220.367 192.008 220.361 192.04C220.295 192.445 220.238 192.853 220.189 193.264C220.189 193.266 220.19 193.268 220.189 193.27C220.067 193.827 220 194.406 220 195V210H190C185.582 210 182 206.418 182 202V195C182 194.406 182.067 193.827 182.189 193.27C183.789 179.604 195.405 169 209.5 169Z"/>
</mask>
<path d="M209.5 169C216.871 169 223.562 171.901 228.499 176.622C228.453 176.666 228.406 176.71 228.36 176.755C228.301 176.813 228.242 176.87 228.183 176.929C228.097 177.013 228.013 177.097 227.929 177.183C227.866 177.246 227.804 177.31 227.742 177.374C227.642 177.477 227.543 177.581 227.445 177.686C227.417 177.716 227.388 177.747 227.359 177.777C227.248 177.897 227.138 178.016 227.029 178.138C226.993 178.179 226.956 178.22 226.92 178.261C226.82 178.373 226.72 178.486 226.622 178.601C226.581 178.649 226.54 178.698 226.499 178.747C226.404 178.86 226.308 178.973 226.215 179.087C226.19 179.117 226.167 179.147 226.143 179.177C225.277 180.243 224.489 181.376 223.788 182.565C223.769 182.598 223.749 182.631 223.729 182.664C223.654 182.793 223.58 182.923 223.507 183.054C223.472 183.116 223.438 183.179 223.403 183.241C223.332 183.37 223.262 183.5 223.193 183.63C223.167 183.679 223.14 183.729 223.114 183.778C223.044 183.912 222.975 184.047 222.907 184.183C222.88 184.237 222.853 184.291 222.826 184.346C222.757 184.485 222.69 184.626 222.623 184.767C222.602 184.812 222.581 184.857 222.56 184.902C221.533 187.106 220.79 189.469 220.377 191.943C220.372 191.976 220.367 192.008 220.361 192.04C220.295 192.445 220.238 192.853 220.189 193.264C220.189 193.266 220.19 193.268 220.189 193.27C220.067 193.827 220 194.406 220 195V210H190C185.582 210 182 206.418 182 202V195C182 194.406 182.067 193.827 182.189 193.27C183.789 179.604 195.405 169 209.5 169Z" fill="#E5BE65"/>
<path d="M228.499 176.622L231.262 179.514L234.288 176.623L231.264 173.731L228.499 176.622ZM228.36 176.755L225.576 173.883L225.576 173.883L228.36 176.755ZM228.183 176.929L230.993 179.775L230.993 179.775L228.183 176.929ZM227.929 177.183L225.082 174.373L225.082 174.373L227.929 177.183ZM227.742 177.374L230.616 180.156L230.616 180.156L227.742 177.374ZM227.445 177.686L224.529 174.948L224.528 174.948L227.445 177.686ZM227.359 177.777L230.288 180.501L230.289 180.501L227.359 177.777ZM227.029 178.138L224.053 175.466L224.052 175.466L227.029 178.138ZM226.92 178.261L229.912 180.915L229.913 180.915L226.92 178.261ZM226.622 178.601L223.587 175.996L223.586 175.996L226.622 178.601ZM226.499 178.747L229.553 181.331L229.553 181.331L226.499 178.747ZM226.215 179.087L223.12 176.552L223.12 176.553L226.215 179.087ZM226.143 179.177L229.248 181.698L229.248 181.698L226.143 179.177ZM223.788 182.565L220.341 180.536L220.341 180.536L223.788 182.565ZM223.729 182.664L227.185 184.68L227.185 184.679L223.729 182.664ZM223.507 183.054L220.019 181.095L220.019 181.095L223.507 183.054ZM223.403 183.241L226.906 185.173L226.906 185.172L223.403 183.241ZM223.193 183.63L219.66 181.755L219.66 181.755L223.193 183.63ZM223.114 183.778L226.659 185.631L226.659 185.631L223.114 183.778ZM222.907 184.183L219.332 182.389L219.332 182.389L222.907 184.183ZM222.826 184.346L226.413 186.116L226.413 186.116L222.826 184.346ZM222.623 184.767L219.006 183.058L219.006 183.058L222.623 184.767ZM222.56 184.902L226.185 186.591L226.186 186.591L222.56 184.902ZM220.377 191.943L216.431 191.285L216.431 191.285L220.377 191.943ZM220.361 192.04L224.309 192.684L224.309 192.684L220.361 192.04ZM220.189 193.264L216.217 192.798L216.217 192.798L220.189 193.264ZM220.189 193.27L224.096 194.131L224.139 193.934L224.162 193.734L220.189 193.27ZM220 195L216 195V195H220ZM220 210V214H224V210H220ZM182 202L178 202L182 202ZM182.189 193.27L186.096 194.131L186.139 193.934L186.162 193.734L182.189 193.27ZM209.5 169V173C215.8 173 221.512 175.475 225.735 179.513L228.499 176.622L231.264 173.731C225.613 168.327 217.942 165 209.5 165V169ZM228.499 176.622L225.736 173.73C225.704 173.761 225.636 173.825 225.576 173.883L228.36 176.755L231.145 179.627C231.177 179.596 231.202 179.572 231.262 179.514L228.499 176.622ZM228.36 176.755L225.576 173.883C225.509 173.948 225.441 174.014 225.372 174.082L228.183 176.929L230.993 179.775C231.042 179.727 231.093 179.677 231.145 179.627L228.36 176.755ZM228.183 176.929L225.373 174.082C225.275 174.178 225.178 174.275 225.082 174.373L227.929 177.183L230.775 179.993C230.847 179.92 230.92 179.847 230.993 179.775L228.183 176.929ZM227.929 177.183L225.082 174.373C225.004 174.452 224.929 174.529 224.868 174.592L227.742 177.374L230.616 180.156C230.68 180.091 230.729 180.04 230.776 179.992L227.929 177.183ZM227.742 177.374L224.868 174.592C224.753 174.71 224.64 174.829 224.529 174.948L227.445 177.686L230.362 180.423C230.447 180.333 230.531 180.244 230.616 180.156L227.742 177.374ZM227.445 177.686L224.528 174.948C224.504 174.975 224.467 175.014 224.43 175.053L227.359 177.777L230.289 180.501C230.309 180.479 230.33 180.457 230.362 180.423L227.445 177.686ZM227.359 177.777L224.43 175.053C224.311 175.182 224.183 175.32 224.053 175.466L227.029 178.138L230.006 180.81C230.093 180.713 230.186 180.612 230.288 180.501L227.359 177.777ZM227.029 178.138L224.052 175.466C224.005 175.519 223.955 175.575 223.927 175.607L226.92 178.261L229.913 180.915C229.958 180.864 229.98 180.838 230.006 180.809L227.029 178.138ZM226.92 178.261L223.927 175.607C223.828 175.719 223.708 175.854 223.587 175.996L226.622 178.601L229.658 181.205C229.732 181.119 229.812 181.028 229.912 180.915L226.92 178.261ZM226.622 178.601L223.586 175.996C223.546 176.043 223.51 176.086 223.489 176.112C223.462 176.144 223.454 176.153 223.445 176.163L226.499 178.747L229.553 181.331C229.585 181.292 229.618 181.253 229.632 181.236C229.641 181.225 229.647 181.218 229.652 181.212C229.656 181.207 229.658 181.205 229.658 181.205L226.622 178.601ZM226.499 178.747L223.446 176.163C223.35 176.276 223.236 176.411 223.12 176.552L226.215 179.087L229.309 181.621C229.381 181.534 229.457 181.443 229.553 181.331L226.499 178.747ZM226.215 179.087L223.12 176.553C223.091 176.588 223.065 176.62 223.053 176.635C223.037 176.656 223.037 176.656 223.037 176.655L226.143 179.177L229.248 181.698C229.261 181.682 229.273 181.667 229.282 181.655C229.291 181.645 229.3 181.634 229.304 181.628C229.316 181.613 229.314 181.615 229.31 181.621L226.215 179.087ZM226.143 179.177L223.038 176.655C222.046 177.876 221.144 179.172 220.341 180.536L223.788 182.565L227.235 184.595C227.834 183.579 228.507 182.611 229.248 181.698L226.143 179.177ZM223.788 182.565L220.341 180.536C220.342 180.535 220.341 180.536 220.338 180.541C220.335 180.546 220.332 180.551 220.326 180.562C220.316 180.578 220.296 180.611 220.274 180.649L223.729 182.664L227.185 184.679C227.182 184.684 227.182 184.684 227.192 184.668C227.195 184.662 227.202 184.65 227.209 184.639C227.216 184.627 227.225 184.612 227.235 184.595L223.788 182.565ZM223.729 182.664L220.274 180.649C220.185 180.801 220.1 180.951 220.019 181.095L223.507 183.054L226.994 185.012C227.06 184.895 227.123 184.785 227.185 184.68L223.729 182.664ZM223.507 183.054L220.019 181.095C219.974 181.175 219.919 181.276 219.9 181.31L223.403 183.241L226.906 185.172C226.957 185.081 226.969 185.057 226.995 185.012L223.507 183.054ZM223.403 183.241L219.901 181.31C219.817 181.461 219.737 181.61 219.66 181.755L223.193 183.63L226.727 185.505C226.788 185.389 226.848 185.279 226.906 185.173L223.403 183.241ZM223.193 183.63L219.66 181.755C219.652 181.77 219.645 181.782 219.628 181.814C219.614 181.841 219.592 181.881 219.569 181.925L223.114 183.778L226.659 185.631C226.685 185.582 226.664 185.624 226.727 185.504L223.193 183.63ZM223.114 183.778L219.569 181.925C219.489 182.08 219.41 182.234 219.332 182.389L222.907 184.183L226.482 185.977C226.541 185.86 226.6 185.745 226.659 185.631L223.114 183.778ZM222.907 184.183L219.332 182.389C219.299 182.454 219.268 182.517 219.239 182.576L222.826 184.346L226.413 186.116C226.438 186.065 226.461 186.02 226.482 185.976L222.907 184.183ZM222.826 184.346L219.239 182.575C219.159 182.738 219.082 182.898 219.006 183.058L222.623 184.767L226.24 186.475C226.298 186.353 226.355 186.233 226.413 186.116L222.826 184.346ZM222.623 184.767L219.006 183.058C218.979 183.116 218.952 183.173 218.934 183.214L222.56 184.902L226.186 186.591C226.209 186.541 226.224 186.508 226.24 186.475L222.623 184.767ZM222.56 184.902L218.934 183.213C217.757 185.74 216.905 188.449 216.431 191.285L220.377 191.943L224.322 192.601C224.675 190.489 225.309 188.473 226.185 186.591L222.56 184.902ZM220.377 191.943L216.431 191.285C216.426 191.315 216.422 191.343 216.419 191.36C216.416 191.381 216.415 191.388 216.413 191.396L220.361 192.04L224.309 192.684C224.323 192.597 224.316 192.638 224.322 192.601L220.377 191.943ZM220.361 192.04L216.413 191.396C216.338 191.857 216.272 192.325 216.217 192.798L220.189 193.264L224.162 193.729C224.203 193.381 224.252 193.033 224.309 192.684L220.361 192.04ZM220.189 193.264L216.217 192.798C216.203 192.914 216.196 193.018 216.193 193.105C216.191 193.148 216.19 193.189 216.19 193.225C216.189 193.261 216.189 193.294 216.19 193.323C216.19 193.351 216.191 193.377 216.192 193.398C216.192 193.42 216.193 193.438 216.194 193.452C216.194 193.466 216.195 193.478 216.195 193.485C216.196 193.488 216.196 193.491 216.196 193.493C216.196 193.494 216.196 193.495 216.196 193.495C216.196 193.495 216.196 193.495 216.196 193.496C216.196 193.496 216.196 193.496 216.196 193.496C216.196 193.496 216.196 193.495 216.196 193.493C216.196 193.492 216.196 193.489 216.195 193.486C216.195 193.479 216.194 193.468 216.194 193.454C216.193 193.44 216.192 193.422 216.192 193.401C216.191 193.38 216.19 193.354 216.19 193.326C216.19 193.297 216.189 193.265 216.19 193.229C216.19 193.193 216.191 193.153 216.193 193.11C216.196 193.023 216.203 192.92 216.217 192.805L220.189 193.27L224.162 193.734C224.176 193.618 224.183 193.515 224.186 193.428C224.188 193.384 224.189 193.344 224.189 193.308C224.19 193.272 224.19 193.239 224.189 193.21C224.189 193.181 224.188 193.156 224.187 193.135C224.187 193.113 224.186 193.095 224.185 193.081C224.184 193.067 224.184 193.055 224.183 193.048C224.183 193.045 224.183 193.042 224.183 193.04C224.183 193.039 224.183 193.039 224.183 193.038C224.183 193.038 224.183 193.038 224.183 193.038C224.183 193.038 224.183 193.038 224.183 193.038C224.183 193.037 224.183 193.037 224.183 193.037C224.183 193.037 224.183 193.038 224.183 193.04C224.183 193.042 224.183 193.044 224.183 193.048C224.184 193.054 224.184 193.066 224.185 193.079C224.186 193.093 224.186 193.111 224.187 193.133C224.188 193.154 224.189 193.179 224.189 193.208C224.189 193.236 224.19 193.269 224.189 193.305C224.189 193.341 224.188 193.381 224.186 193.424C224.183 193.511 224.176 193.614 224.162 193.729L220.189 193.264ZM220.189 193.27L216.283 192.408C216.1 193.238 216 194.106 216 195L220 195L224 195C224 194.705 224.033 194.415 224.096 194.131L220.189 193.27ZM220 195H216V210H220H224V195H220ZM220 210V206H190V210V214H220V210ZM190 210V206C187.791 206 186 204.209 186 202L182 202L178 202C178 208.627 183.373 214 190 214V210ZM182 202H186V195H182H178V202H182ZM182 195H186C186 194.705 186.033 194.415 186.096 194.131L182.189 193.27L178.283 192.408C178.1 193.238 178 194.106 178 195H182ZM182.189 193.27L186.162 193.734C187.528 182.061 197.458 173 209.5 173V169V165C193.352 165 180.049 177.148 178.217 192.805L182.189 193.27Z" fill="#101C2B" mask="url(#path-20-inside-2_2161_7711)"/>
<mask id="path-22-inside-3_2161_7711" fill="white">
<path d="M294.5 169C308.595 169 320.21 179.604 321.81 193.27C321.933 193.827 322 194.406 322 195V202C322 206.418 318.418 210 314 210H285V195C285 194.409 284.933 193.834 284.812 193.28C284.142 187.541 281.706 182.341 278.061 178.239C278.031 178.206 278.001 178.173 277.972 178.14C277.725 177.865 277.474 177.596 277.217 177.332C277.182 177.296 277.147 177.261 277.112 177.226C277 177.112 276.887 176.999 276.773 176.887C276.745 176.859 276.716 176.831 276.688 176.803C276.566 176.684 276.444 176.566 276.32 176.45C276.292 176.424 276.264 176.398 276.235 176.372C276.157 176.299 276.079 176.227 276 176.155C280.885 171.71 287.375 169 294.5 169Z"/>
</mask>
<path d="M294.5 169C308.595 169 320.21 179.604 321.81 193.27C321.933 193.827 322 194.406 322 195V202C322 206.418 318.418 210 314 210H285V195C285 194.409 284.933 193.834 284.812 193.28C284.142 187.541 281.706 182.341 278.061 178.239C278.031 178.206 278.001 178.173 277.972 178.14C277.725 177.865 277.474 177.596 277.217 177.332C277.182 177.296 277.147 177.261 277.112 177.226C277 177.112 276.887 176.999 276.773 176.887C276.745 176.859 276.716 176.831 276.688 176.803C276.566 176.684 276.444 176.566 276.32 176.45C276.292 176.424 276.264 176.398 276.235 176.372C276.157 176.299 276.079 176.227 276 176.155C280.885 171.71 287.375 169 294.5 169Z" fill="#E5BE65"/>
<path d="M321.81 193.27L317.837 193.734L317.86 193.934L317.903 194.131L321.81 193.27ZM322 195L326 195L322 195ZM285 210H281V214H285V210ZM285 195L289 195V195L285 195ZM284.812 193.28L280.838 193.744L280.862 193.942L280.904 194.137L284.812 193.28ZM278.061 178.239L275.07 180.896L275.071 180.897L278.061 178.239ZM277.972 178.14L280.949 175.468L280.949 175.468L277.972 178.14ZM277.217 177.332L274.349 180.12L274.349 180.121L277.217 177.332ZM277.112 177.226L279.965 174.422L279.965 174.422L277.112 177.226ZM276.773 176.887L273.969 179.739L273.97 179.74L276.773 176.887ZM276.688 176.803L279.479 173.938L279.479 173.938L276.688 176.803ZM276.32 176.45L273.582 179.366L273.582 179.366L276.32 176.45ZM276.235 176.372L278.962 173.445L278.961 173.445L276.235 176.372ZM276 176.155L273.308 173.197L270.062 176.151L273.303 179.11L276 176.155ZM294.5 169V173C306.541 173 316.471 182.06 317.837 193.734L321.81 193.27L325.782 192.805C323.95 177.148 310.648 165 294.5 165V169ZM321.81 193.27L317.903 194.131C317.967 194.42 318 194.71 318 195L322 195L326 195C326 194.102 325.898 193.234 325.716 192.408L321.81 193.27ZM322 195H318V202H322H326V195H322ZM322 202H318C318 204.209 316.209 206 314 206V210V214C320.627 214 326 208.627 326 202H322ZM314 210V206H285V210V214H314V210ZM285 210H289V195H285H281V210H285ZM285 195L289 195C289 194.106 288.898 193.243 288.719 192.424L284.812 193.28L280.904 194.137C280.968 194.425 281 194.713 281 195L285 195ZM284.812 193.28L288.785 192.817C288.017 186.236 285.223 180.277 281.05 175.582L278.061 178.239L275.071 180.897C278.189 184.405 280.267 188.845 280.838 193.744L284.812 193.28ZM278.061 178.239L281.051 175.582C281.019 175.547 280.985 175.508 280.949 175.468L277.972 178.14L274.994 180.811C275.018 180.837 275.043 180.865 275.07 180.896L278.061 178.239ZM277.972 178.14L280.949 175.468C280.665 175.152 280.377 174.844 280.085 174.544L277.217 177.332L274.349 180.121C274.57 180.348 274.786 180.578 274.995 180.811L277.972 178.14ZM277.217 177.332L280.085 174.544C280.04 174.498 279.986 174.443 279.965 174.422L277.112 177.226L274.259 180.029C274.309 180.08 274.324 180.095 274.349 180.12L277.217 177.332ZM277.112 177.226L279.965 174.422C279.837 174.291 279.708 174.162 279.577 174.034L276.773 176.887L273.97 179.74C274.067 179.835 274.164 179.932 274.26 180.029L277.112 177.226ZM276.773 176.887L279.578 174.034C279.542 173.999 279.507 173.965 279.479 173.938L276.688 176.803L273.896 179.667C273.926 179.697 273.948 179.718 273.969 179.739L276.773 176.887ZM276.688 176.803L279.479 173.938C279.352 173.814 279.209 173.676 279.058 173.534L276.32 176.45L273.582 179.366C273.679 179.457 273.78 179.554 273.896 179.668L276.688 176.803ZM276.32 176.45L279.059 173.535C279.021 173.499 278.986 173.468 278.973 173.455C278.953 173.437 278.957 173.44 278.962 173.445L276.235 176.372L273.509 179.299C273.527 179.316 273.543 179.331 273.555 179.342C273.566 179.352 273.578 179.362 273.583 179.367C273.598 179.381 273.592 179.375 273.582 179.366L276.32 176.45ZM276.235 176.372L278.961 173.445C278.871 173.361 278.782 173.279 278.697 173.201L276 176.155L273.303 179.11C273.375 179.175 273.443 179.238 273.509 179.299L276.235 176.372ZM276 176.155L278.692 179.114C282.869 175.312 288.41 173 294.5 173V169V165C286.341 165 278.9 168.108 273.308 173.197L276 176.155Z" fill="#101C2B" mask="url(#path-22-inside-3_2161_7711)"/>
<mask id="path-24-inside-4_2161_7711" fill="white">
<path d="M621.5 169C635.595 169 647.21 179.604 648.81 193.27C648.933 193.827 649 194.406 649 195V202C649 206.418 645.418 210 641 210H602C597.582 210 594 206.418 594 202V195C594 194.406 594.067 193.827 594.189 193.27C595.789 179.604 607.405 169 621.5 169Z"/>
</mask>
<path d="M621.5 169C635.595 169 647.21 179.604 648.81 193.27C648.933 193.827 649 194.406 649 195V202C649 206.418 645.418 210 641 210H602C597.582 210 594 206.418 594 202V195C594 194.406 594.067 193.827 594.189 193.27C595.789 179.604 607.405 169 621.5 169Z" fill="#1E55CD"/>
<path d="M648.81 193.27L644.837 193.734L644.86 193.934L644.903 194.131L648.81 193.27ZM649 195L653 195L649 195ZM594 202L590 202L594 202ZM594.189 193.27L598.096 194.131L598.139 193.934L598.162 193.734L594.189 193.27ZM621.5 169V173C633.541 173 643.471 182.06 644.837 193.734L648.81 193.27L652.782 192.805C650.95 177.148 637.648 165 621.5 165V169ZM648.81 193.27L644.903 194.131C644.967 194.42 645 194.71 645 195L649 195L653 195C653 194.102 652.898 193.234 652.716 192.408L648.81 193.27ZM649 195H645V202H649H653V195H649ZM649 202H645C645 204.209 643.209 206 641 206V210V214C647.627 214 653 208.627 653 202H649ZM641 210V206H602V210V214H641V210ZM602 210V206C599.791 206 598 204.209 598 202L594 202L590 202C590 208.627 595.373 214 602 214V210ZM594 202H598V195H594H590V202H594ZM594 195H598C598 194.705 598.033 194.415 598.096 194.131L594.189 193.27L590.283 192.408C590.1 193.238 590 194.106 590 195H594ZM594.189 193.27L598.162 193.734C599.528 182.061 609.458 173 621.5 173V169V165C605.352 165 592.049 177.148 590.217 192.805L594.189 193.27Z" fill="#101C2B" mask="url(#path-24-inside-4_2161_7711)"/>
<circle cx="578" cy="150" r="13" fill="#1E55CD" stroke="#101C2B" stroke-width="4"/>
<circle cx="621" cy="150" r="13" fill="#1E55CD" stroke="#101C2B" stroke-width="4"/>
<circle cx="663" cy="150" r="13" fill="#1E55CD" stroke="#101C2B" stroke-width="4"/>
<mask id="path-29-inside-5_2161_7711" fill="white">
<path d="M578.5 169C585.871 169 592.562 171.901 597.499 176.622C597.453 176.666 597.406 176.71 597.36 176.755C597.301 176.813 597.242 176.87 597.183 176.929C597.097 177.013 597.013 177.097 596.929 177.183C596.866 177.246 596.804 177.31 596.742 177.374C596.642 177.477 596.543 177.581 596.445 177.686C596.417 177.716 596.388 177.747 596.359 177.777C596.248 177.897 596.138 178.016 596.029 178.138C595.993 178.179 595.956 178.22 595.92 178.261C595.82 178.373 595.72 178.486 595.622 178.601C595.581 178.649 595.54 178.698 595.499 178.747C595.404 178.86 595.308 178.973 595.215 179.087C595.19 179.117 595.167 179.147 595.143 179.177C594.277 180.243 593.489 181.376 592.788 182.565C592.769 182.598 592.749 182.631 592.729 182.664C592.654 182.793 592.58 182.923 592.507 183.054C592.472 183.116 592.438 183.179 592.403 183.241C592.332 183.37 592.262 183.5 592.193 183.63C592.167 183.679 592.14 183.729 592.114 183.778C592.044 183.912 591.975 184.047 591.907 184.183C591.88 184.237 591.853 184.291 591.826 184.346C591.757 184.485 591.69 184.626 591.623 184.767C591.602 184.812 591.581 184.857 591.56 184.902C590.533 187.106 589.79 189.469 589.377 191.943C589.372 191.976 589.367 192.008 589.361 192.04C589.295 192.445 589.238 192.853 589.189 193.264C589.189 193.266 589.19 193.268 589.189 193.27C589.067 193.827 589 194.406 589 195V210H559C554.582 210 551 206.418 551 202V195C551 194.406 551.067 193.827 551.189 193.27C552.789 179.604 564.405 169 578.5 169Z"/>
</mask>
<path d="M578.5 169C585.871 169 592.562 171.901 597.499 176.622C597.453 176.666 597.406 176.71 597.36 176.755C597.301 176.813 597.242 176.87 597.183 176.929C597.097 177.013 597.013 177.097 596.929 177.183C596.866 177.246 596.804 177.31 596.742 177.374C596.642 177.477 596.543 177.581 596.445 177.686C596.417 177.716 596.388 177.747 596.359 177.777C596.248 177.897 596.138 178.016 596.029 178.138C595.993 178.179 595.956 178.22 595.92 178.261C595.82 178.373 595.72 178.486 595.622 178.601C595.581 178.649 595.54 178.698 595.499 178.747C595.404 178.86 595.308 178.973 595.215 179.087C595.19 179.117 595.167 179.147 595.143 179.177C594.277 180.243 593.489 181.376 592.788 182.565C592.769 182.598 592.749 182.631 592.729 182.664C592.654 182.793 592.58 182.923 592.507 183.054C592.472 183.116 592.438 183.179 592.403 183.241C592.332 183.37 592.262 183.5 592.193 183.63C592.167 183.679 592.14 183.729 592.114 183.778C592.044 183.912 591.975 184.047 591.907 184.183C591.88 184.237 591.853 184.291 591.826 184.346C591.757 184.485 591.69 184.626 591.623 184.767C591.602 184.812 591.581 184.857 591.56 184.902C590.533 187.106 589.79 189.469 589.377 191.943C589.372 191.976 589.367 192.008 589.361 192.04C589.295 192.445 589.238 192.853 589.189 193.264C589.189 193.266 589.19 193.268 589.189 193.27C589.067 193.827 589 194.406 589 195V210H559C554.582 210 551 206.418 551 202V195C551 194.406 551.067 193.827 551.189 193.27C552.789 179.604 564.405 169 578.5 169Z" fill="#1E55CD"/>
<path d="M597.499 176.622L600.262 179.514L603.288 176.623L600.264 173.731L597.499 176.622ZM597.36 176.755L594.576 173.883L594.576 173.883L597.36 176.755ZM597.183 176.929L599.993 179.775L599.993 179.775L597.183 176.929ZM596.929 177.183L594.082 174.373L594.082 174.373L596.929 177.183ZM596.742 177.374L599.616 180.156L599.616 180.156L596.742 177.374ZM596.445 177.686L593.529 174.948L593.528 174.948L596.445 177.686ZM596.359 177.777L599.288 180.501L599.289 180.501L596.359 177.777ZM596.029 178.138L593.053 175.466L593.052 175.466L596.029 178.138ZM595.92 178.261L598.912 180.915L598.913 180.915L595.92 178.261ZM595.622 178.601L592.587 175.996L592.586 175.996L595.622 178.601ZM595.499 178.747L598.553 181.331L598.553 181.331L595.499 178.747ZM595.215 179.087L592.12 176.552L592.12 176.553L595.215 179.087ZM595.143 179.177L598.248 181.698L598.248 181.698L595.143 179.177ZM592.788 182.565L589.341 180.536L589.341 180.536L592.788 182.565ZM592.729 182.664L596.185 184.68L596.185 184.679L592.729 182.664ZM592.507 183.054L589.019 181.095L589.019 181.095L592.507 183.054ZM592.403 183.241L595.906 185.173L595.906 185.172L592.403 183.241ZM592.193 183.63L588.66 181.755L588.66 181.755L592.193 183.63ZM592.114 183.778L595.659 185.631L595.659 185.631L592.114 183.778ZM591.907 184.183L588.332 182.389L588.332 182.389L591.907 184.183ZM591.826 184.346L595.413 186.116L595.413 186.116L591.826 184.346ZM591.623 184.767L588.006 183.058L588.006 183.058L591.623 184.767ZM591.56 184.902L595.185 186.591L595.186 186.591L591.56 184.902ZM589.377 191.943L585.431 191.285L585.431 191.285L589.377 191.943ZM589.361 192.04L593.309 192.684L593.309 192.684L589.361 192.04ZM589.189 193.264L585.217 192.798L585.217 192.798L589.189 193.264ZM589.189 193.27L593.096 194.131L593.139 193.934L593.162 193.734L589.189 193.27ZM589 195L585 195V195H589ZM589 210V214H593V210H589ZM551 202L547 202L551 202ZM551.189 193.27L555.096 194.131L555.139 193.934L555.162 193.734L551.189 193.27ZM578.5 169V173C584.8 173 590.512 175.475 594.735 179.513L597.499 176.622L600.264 173.731C594.613 168.327 586.942 165 578.5 165V169ZM597.499 176.622L594.736 173.73C594.704 173.761 594.636 173.825 594.576 173.883L597.36 176.755L600.145 179.627C600.177 179.596 600.202 179.572 600.262 179.514L597.499 176.622ZM597.36 176.755L594.576 173.883C594.509 173.948 594.441 174.014 594.372 174.082L597.183 176.929L599.993 179.775C600.042 179.727 600.093 179.677 600.145 179.627L597.36 176.755ZM597.183 176.929L594.373 174.082C594.275 174.178 594.178 174.275 594.082 174.373L596.929 177.183L599.775 179.993C599.847 179.92 599.92 179.847 599.993 179.775L597.183 176.929ZM596.929 177.183L594.082 174.373C594.004 174.452 593.929 174.529 593.868 174.592L596.742 177.374L599.616 180.156C599.68 180.091 599.729 180.04 599.776 179.992L596.929 177.183ZM596.742 177.374L593.868 174.592C593.753 174.71 593.64 174.829 593.529 174.948L596.445 177.686L599.362 180.423C599.447 180.333 599.531 180.244 599.616 180.156L596.742 177.374ZM596.445 177.686L593.528 174.948C593.504 174.975 593.467 175.014 593.43 175.053L596.359 177.777L599.289 180.501C599.309 180.479 599.33 180.457 599.362 180.423L596.445 177.686ZM596.359 177.777L593.43 175.053C593.311 175.182 593.183 175.32 593.053 175.466L596.029 178.138L599.006 180.81C599.093 180.713 599.186 180.612 599.288 180.501L596.359 177.777ZM596.029 178.138L593.052 175.466C593.005 175.519 592.955 175.575 592.927 175.607L595.92 178.261L598.913 180.915C598.958 180.864 598.98 180.838 599.006 180.809L596.029 178.138ZM595.92 178.261L592.927 175.607C592.828 175.719 592.708 175.854 592.587 175.996L595.622 178.601L598.658 181.205C598.732 181.119 598.812 181.028 598.912 180.915L595.92 178.261ZM595.622 178.601L592.586 175.996C592.546 176.043 592.51 176.086 592.489 176.112C592.462 176.144 592.454 176.153 592.445 176.163L595.499 178.747L598.553 181.331C598.585 181.292 598.618 181.253 598.632 181.236C598.641 181.225 598.647 181.218 598.652 181.212C598.656 181.207 598.658 181.205 598.658 181.205L595.622 178.601ZM595.499 178.747L592.446 176.163C592.35 176.276 592.236 176.411 592.12 176.552L595.215 179.087L598.309 181.621C598.381 181.534 598.457 181.443 598.553 181.331L595.499 178.747ZM595.215 179.087L592.12 176.553C592.091 176.588 592.065 176.62 592.053 176.635C592.037 176.656 592.037 176.656 592.037 176.655L595.143 179.177L598.248 181.698C598.261 181.682 598.273 181.667 598.282 181.655C598.291 181.645 598.3 181.634 598.304 181.628C598.316 181.613 598.314 181.615 598.31 181.621L595.215 179.087ZM595.143 179.177L592.038 176.655C591.046 177.876 590.144 179.172 589.341 180.536L592.788 182.565L596.235 184.595C596.834 183.579 597.507 182.611 598.248 181.698L595.143 179.177ZM592.788 182.565L589.341 180.536C589.342 180.535 589.341 180.536 589.338 180.541C589.335 180.546 589.332 180.551 589.326 180.562C589.316 180.578 589.296 180.611 589.274 180.649L592.729 182.664L596.185 184.679C596.182 184.684 596.182 184.684 596.192 184.668C596.195 184.662 596.202 184.65 596.209 184.639C596.216 184.627 596.225 184.612 596.235 184.595L592.788 182.565ZM592.729 182.664L589.274 180.649C589.185 180.801 589.1 180.951 589.019 181.095L592.507 183.054L595.994 185.012C596.06 184.895 596.123 184.785 596.185 184.68L592.729 182.664ZM592.507 183.054L589.019 181.095C588.974 181.175 588.919 181.276 588.9 181.31L592.403 183.241L595.906 185.172C595.957 185.081 595.969 185.057 595.995 185.012L592.507 183.054ZM592.403 183.241L588.901 181.31C588.817 181.461 588.737 181.61 588.66 181.755L592.193 183.63L595.727 185.505C595.788 185.389 595.848 185.279 595.906 185.173L592.403 183.241ZM592.193 183.63L588.66 181.755C588.652 181.77 588.645 181.782 588.628 181.814C588.614 181.841 588.592 181.881 588.569 181.925L592.114 183.778L595.659 185.631C595.685 185.582 595.664 185.624 595.727 185.504L592.193 183.63ZM592.114 183.778L588.569 181.925C588.489 182.08 588.41 182.234 588.332 182.389L591.907 184.183L595.482 185.977C595.541 185.86 595.6 185.745 595.659 185.631L592.114 183.778ZM591.907 184.183L588.332 182.389C588.299 182.454 588.268 182.517 588.239 182.576L591.826 184.346L595.413 186.116C595.438 186.065 595.461 186.02 595.482 185.976L591.907 184.183ZM591.826 184.346L588.239 182.575C588.159 182.738 588.082 182.898 588.006 183.058L591.623 184.767L595.24 186.475C595.298 186.353 595.355 186.233 595.413 186.116L591.826 184.346ZM591.623 184.767L588.006 183.058C587.979 183.116 587.952 183.173 587.934 183.214L591.56 184.902L595.186 186.591C595.209 186.541 595.224 186.508 595.24 186.475L591.623 184.767ZM591.56 184.902L587.934 183.213C586.757 185.74 585.905 188.449 585.431 191.285L589.377 191.943L593.322 192.601C593.675 190.489 594.309 188.473 595.185 186.591L591.56 184.902ZM589.377 191.943L585.431 191.285C585.426 191.315 585.422 191.343 585.419 191.36C585.416 191.381 585.415 191.388 585.413 191.396L589.361 192.04L593.309 192.684C593.323 192.597 593.316 192.638 593.322 192.601L589.377 191.943ZM589.361 192.04L585.413 191.396C585.338 191.857 585.272 192.325 585.217 192.798L589.189 193.264L593.162 193.729C593.203 193.381 593.252 193.033 593.309 192.684L589.361 192.04ZM589.189 193.264L585.217 192.798C585.203 192.914 585.196 193.018 585.193 193.105C585.191 193.148 585.19 193.189 585.19 193.225C585.189 193.261 585.189 193.294 585.19 193.323C585.19 193.351 585.191 193.377 585.192 193.398C585.192 193.42 585.193 193.438 585.194 193.452C585.194 193.466 585.195 193.478 585.195 193.485C585.196 193.488 585.196 193.491 585.196 193.493C585.196 193.494 585.196 193.495 585.196 193.495C585.196 193.495 585.196 193.495 585.196 193.496C585.196 193.496 585.196 193.496 585.196 193.496C585.196 193.496 585.196 193.495 585.196 193.493C585.196 193.492 585.196 193.489 585.195 193.486C585.195 193.479 585.194 193.468 585.194 193.454C585.193 193.44 585.192 193.422 585.192 193.401C585.191 193.38 585.19 193.354 585.19 193.326C585.19 193.297 585.189 193.265 585.19 193.229C585.19 193.193 585.191 193.153 585.193 193.11C585.196 193.023 585.203 192.92 585.217 192.805L589.189 193.27L593.162 193.734C593.176 193.618 593.183 193.515 593.186 193.428C593.188 193.384 593.189 193.344 593.189 193.308C593.19 193.272 593.19 193.239 593.189 193.21C593.189 193.181 593.188 193.156 593.187 193.135C593.187 193.113 593.186 193.095 593.185 193.081C593.184 193.067 593.184 193.055 593.183 193.048C593.183 193.045 593.183 193.042 593.183 193.04C593.183 193.039 593.183 193.039 593.183 193.038C593.183 193.038 593.183 193.038 593.183 193.038C593.183 193.038 593.183 193.038 593.183 193.038C593.183 193.037 593.183 193.037 593.183 193.037C593.183 193.037 593.183 193.038 593.183 193.04C593.183 193.042 593.183 193.044 593.183 193.048C593.184 193.054 593.184 193.066 593.185 193.079C593.186 193.093 593.186 193.111 593.187 193.133C593.188 193.154 593.189 193.179 593.189 193.208C593.189 193.236 593.19 193.269 593.189 193.305C593.189 193.341 593.188 193.381 593.186 193.424C593.183 193.511 593.176 193.614 593.162 193.729L589.189 193.264ZM589.189 193.27L585.283 192.408C585.1 193.238 585 194.106 585 195L589 195L593 195C593 194.705 593.033 194.415 593.096 194.131L589.189 193.27ZM589 195H585V210H589H593V195H589ZM589 210V206H559V210V214H589V210ZM559 210V206C556.791 206 555 204.209 555 202L551 202L547 202C547 208.627 552.373 214 559 214V210ZM551 202H555V195H551H547V202H551ZM551 195H555C555 194.705 555.033 194.415 555.096 194.131L551.189 193.27L547.283 192.408C547.1 193.238 547 194.106 547 195H551ZM551.189 193.27L555.162 193.734C556.528 182.061 566.458 173 578.5 173V169V165C562.352 165 549.049 177.148 547.217 192.805L551.189 193.27Z" fill="#101C2B" mask="url(#path-29-inside-5_2161_7711)"/>
<mask id="path-31-inside-6_2161_7711" fill="white">
<path d="M663.5 169C677.595 169 689.21 179.604 690.81 193.27C690.933 193.827 691 194.406 691 195V202C691 206.418 687.418 210 683 210H654V195C654 194.409 653.933 193.834 653.812 193.28C653.142 187.541 650.706 182.341 647.061 178.239C647.031 178.206 647.001 178.173 646.972 178.14C646.725 177.865 646.474 177.596 646.217 177.332C646.182 177.296 646.147 177.261 646.112 177.226C646 177.112 645.887 176.999 645.773 176.887C645.745 176.859 645.716 176.831 645.688 176.803C645.566 176.684 645.444 176.566 645.32 176.45C645.292 176.424 645.264 176.398 645.235 176.372C645.157 176.299 645.079 176.227 645 176.155C649.885 171.71 656.375 169 663.5 169Z"/>
</mask>
<path d="M663.5 169C677.595 169 689.21 179.604 690.81 193.27C690.933 193.827 691 194.406 691 195V202C691 206.418 687.418 210 683 210H654V195C654 194.409 653.933 193.834 653.812 193.28C653.142 187.541 650.706 182.341 647.061 178.239C647.031 178.206 647.001 178.173 646.972 178.14C646.725 177.865 646.474 177.596 646.217 177.332C646.182 177.296 646.147 177.261 646.112 177.226C646 177.112 645.887 176.999 645.773 176.887C645.745 176.859 645.716 176.831 645.688 176.803C645.566 176.684 645.444 176.566 645.32 176.45C645.292 176.424 645.264 176.398 645.235 176.372C645.157 176.299 645.079 176.227 645 176.155C649.885 171.71 656.375 169 663.5 169Z" fill="#1E55CD"/>
<path d="M690.81 193.27L686.837 193.734L686.86 193.934L686.903 194.131L690.81 193.27ZM691 195L695 195L691 195ZM654 210H650V214H654V210ZM654 195L658 195V195L654 195ZM653.812 193.28L649.838 193.744L649.862 193.942L649.904 194.137L653.812 193.28ZM647.061 178.239L644.07 180.896L644.071 180.897L647.061 178.239ZM646.972 178.14L649.949 175.468L649.949 175.468L646.972 178.14ZM646.217 177.332L643.349 180.12L643.349 180.121L646.217 177.332ZM646.112 177.226L648.965 174.422L648.965 174.422L646.112 177.226ZM645.773 176.887L642.969 179.739L642.97 179.74L645.773 176.887ZM645.688 176.803L648.479 173.938L648.479 173.938L645.688 176.803ZM645.32 176.45L642.582 179.366L642.582 179.366L645.32 176.45ZM645.235 176.372L647.962 173.445L647.961 173.445L645.235 176.372ZM645 176.155L642.308 173.197L639.062 176.151L642.303 179.11L645 176.155ZM663.5 169V173C675.541 173 685.471 182.06 686.837 193.734L690.81 193.27L694.782 192.805C692.95 177.148 679.648 165 663.5 165V169ZM690.81 193.27L686.903 194.131C686.967 194.42 687 194.71 687 195L691 195L695 195C695 194.102 694.898 193.234 694.716 192.408L690.81 193.27ZM691 195H687V202H691H695V195H691ZM691 202H687C687 204.209 685.209 206 683 206V210V214C689.627 214 695 208.627 695 202H691ZM683 210V206H654V210V214H683V210ZM654 210H658V195H654H650V210H654ZM654 195L658 195C658 194.106 657.898 193.243 657.719 192.424L653.812 193.28L649.904 194.137C649.968 194.425 650 194.713 650 195L654 195ZM653.812 193.28L657.785 192.817C657.017 186.236 654.223 180.277 650.05 175.582L647.061 178.239L644.071 180.897C647.189 184.405 649.267 188.845 649.838 193.744L653.812 193.28ZM647.061 178.239L650.051 175.582C650.019 175.547 649.985 175.508 649.949 175.468L646.972 178.14L643.994 180.811C644.018 180.837 644.043 180.865 644.07 180.896L647.061 178.239ZM646.972 178.14L649.949 175.468C649.665 175.152 649.377 174.844 649.085 174.544L646.217 177.332L643.349 180.121C643.57 180.348 643.786 180.578 643.995 180.811L646.972 178.14ZM646.217 177.332L649.085 174.544C649.04 174.498 648.986 174.443 648.965 174.422L646.112 177.226L643.259 180.029C643.309 180.08 643.324 180.095 643.349 180.12L646.217 177.332ZM646.112 177.226L648.965 174.422C648.837 174.291 648.708 174.162 648.577 174.034L645.773 176.887L642.97 179.74C643.067 179.835 643.164 179.932 643.26 180.029L646.112 177.226ZM645.773 176.887L648.578 174.034C648.542 173.999 648.507 173.965 648.479 173.938L645.688 176.803L642.896 179.667C642.926 179.697 642.948 179.718 642.969 179.739L645.773 176.887ZM645.688 176.803L648.479 173.938C648.352 173.814 648.209 173.676 648.058 173.534L645.32 176.45L642.582 179.366C642.679 179.457 642.78 179.554 642.896 179.668L645.688 176.803ZM645.32 176.45L648.059 173.535C648.021 173.499 647.986 173.468 647.973 173.455C647.953 173.437 647.957 173.44 647.962 173.445L645.235 176.372L642.509 179.299C642.527 179.316 642.543 179.331 642.555 179.342C642.566 179.352 642.578 179.362 642.583 179.367C642.598 179.381 642.592 179.375 642.582 179.366L645.32 176.45ZM645.235 176.372L647.961 173.445C647.871 173.361 647.782 173.279 647.697 173.201L645 176.155L642.303 179.11C642.375 179.175 642.443 179.238 642.509 179.299L645.235 176.372ZM645 176.155L647.692 179.114C651.869 175.312 657.41 173 663.5 173V169V165C655.341 165 647.9 168.108 642.308 173.197L645 176.155Z" fill="#101C2B" mask="url(#path-31-inside-6_2161_7711)"/>
<mask id="path-33-inside-7_2161_7711" fill="white">
<path d="M990.5 169C1004.59 169 1016.21 179.604 1017.81 193.27C1017.93 193.827 1018 194.406 1018 195V202C1018 206.418 1014.42 210 1010 210H971C966.582 210 963 206.418 963 202V195C963 194.406 963.067 193.827 963.189 193.27C964.789 179.604 976.405 169 990.5 169Z"/>
</mask>
<path d="M990.5 169C1004.59 169 1016.21 179.604 1017.81 193.27C1017.93 193.827 1018 194.406 1018 195V202C1018 206.418 1014.42 210 1010 210H971C966.582 210 963 206.418 963 202V195C963 194.406 963.067 193.827 963.189 193.27C964.789 179.604 976.405 169 990.5 169Z" fill="#4EAC78"/>
<path d="M1017.81 193.27L1013.84 193.734L1013.86 193.934L1013.9 194.131L1017.81 193.27ZM1018 195L1022 195L1018 195ZM963 202L959 202L963 202ZM963.189 193.27L967.096 194.131L967.139 193.934L967.162 193.734L963.189 193.27ZM990.5 169V173C1002.54 173 1012.47 182.06 1013.84 193.734L1017.81 193.27L1021.78 192.805C1019.95 177.148 1006.65 165 990.5 165V169ZM1017.81 193.27L1013.9 194.131C1013.97 194.42 1014 194.71 1014 195L1018 195L1022 195C1022 194.102 1021.9 193.234 1021.72 192.408L1017.81 193.27ZM1018 195H1014V202H1018H1022V195H1018ZM1018 202H1014C1014 204.209 1012.21 206 1010 206V210V214C1016.63 214 1022 208.627 1022 202H1018ZM1010 210V206H971V210V214H1010V210ZM971 210V206C968.791 206 967 204.209 967 202L963 202L959 202C959 208.627 964.373 214 971 214V210ZM963 202H967V195H963H959V202H963ZM963 195H967C967 194.705 967.033 194.415 967.096 194.131L963.189 193.27L959.283 192.408C959.1 193.238 959 194.106 959 195H963ZM963.189 193.27L967.162 193.734C968.528 182.061 978.458 173 990.5 173V169V165C974.352 165 961.049 177.148 959.217 192.805L963.189 193.27Z" fill="#101C2B" mask="url(#path-33-inside-7_2161_7711)"/>
<circle cx="947" cy="150" r="13" fill="#4EAC78" stroke="#101C2B" stroke-width="4"/>
<circle cx="990" cy="150" r="13" fill="#4EAC78" stroke="#101C2B" stroke-width="4"/>
<circle cx="1032" cy="150" r="13" fill="#4EAC78" stroke="#101C2B" stroke-width="4"/>
<mask id="path-38-inside-8_2161_7711" fill="white">
<path d="M947.5 169C954.871 169 961.562 171.901 966.499 176.622C966.453 176.666 966.406 176.71 966.36 176.755C966.301 176.813 966.242 176.87 966.183 176.929C966.097 177.013 966.013 177.097 965.929 177.183C965.866 177.246 965.804 177.31 965.742 177.374C965.642 177.477 965.543 177.581 965.445 177.686C965.417 177.716 965.388 177.747 965.359 177.777C965.248 177.897 965.138 178.016 965.029 178.138C964.993 178.179 964.956 178.22 964.92 178.261C964.82 178.373 964.72 178.486 964.622 178.601C964.581 178.649 964.54 178.698 964.499 178.747C964.404 178.86 964.308 178.973 964.215 179.087C964.19 179.117 964.167 179.147 964.143 179.177C963.277 180.243 962.489 181.376 961.788 182.565C961.769 182.598 961.749 182.631 961.729 182.664C961.654 182.793 961.58 182.923 961.507 183.054C961.472 183.116 961.438 183.179 961.403 183.241C961.332 183.37 961.262 183.5 961.193 183.63C961.167 183.679 961.14 183.729 961.114 183.778C961.044 183.912 960.975 184.047 960.907 184.183C960.88 184.237 960.853 184.291 960.826 184.346C960.757 184.485 960.69 184.626 960.623 184.767C960.602 184.812 960.581 184.857 960.56 184.902C959.533 187.106 958.79 189.469 958.377 191.943C958.372 191.976 958.367 192.008 958.361 192.04C958.295 192.445 958.238 192.853 958.189 193.264C958.189 193.266 958.19 193.268 958.189 193.27C958.067 193.827 958 194.406 958 195V210H928C923.582 210 920 206.418 920 202V195C920 194.406 920.067 193.827 920.189 193.27C921.789 179.604 933.405 169 947.5 169Z"/>
</mask>
<path d="M947.5 169C954.871 169 961.562 171.901 966.499 176.622C966.453 176.666 966.406 176.71 966.36 176.755C966.301 176.813 966.242 176.87 966.183 176.929C966.097 177.013 966.013 177.097 965.929 177.183C965.866 177.246 965.804 177.31 965.742 177.374C965.642 177.477 965.543 177.581 965.445 177.686C965.417 177.716 965.388 177.747 965.359 177.777C965.248 177.897 965.138 178.016 965.029 178.138C964.993 178.179 964.956 178.22 964.92 178.261C964.82 178.373 964.72 178.486 964.622 178.601C964.581 178.649 964.54 178.698 964.499 178.747C964.404 178.86 964.308 178.973 964.215 179.087C964.19 179.117 964.167 179.147 964.143 179.177C963.277 180.243 962.489 181.376 961.788 182.565C961.769 182.598 961.749 182.631 961.729 182.664C961.654 182.793 961.58 182.923 961.507 183.054C961.472 183.116 961.438 183.179 961.403 183.241C961.332 183.37 961.262 183.5 961.193 183.63C961.167 183.679 961.14 183.729 961.114 183.778C961.044 183.912 960.975 184.047 960.907 184.183C960.88 184.237 960.853 184.291 960.826 184.346C960.757 184.485 960.69 184.626 960.623 184.767C960.602 184.812 960.581 184.857 960.56 184.902C959.533 187.106 958.79 189.469 958.377 191.943C958.372 191.976 958.367 192.008 958.361 192.04C958.295 192.445 958.238 192.853 958.189 193.264C958.189 193.266 958.19 193.268 958.189 193.27C958.067 193.827 958 194.406 958 195V210H928C923.582 210 920 206.418 920 202V195C920 194.406 920.067 193.827 920.189 193.27C921.789 179.604 933.405 169 947.5 169Z" fill="#4EAC78"/>
<path d="M966.499 176.622L969.262 179.514L972.288 176.623L969.264 173.731L966.499 176.622ZM966.36 176.755L963.576 173.883L963.576 173.883L966.36 176.755ZM966.183 176.929L968.993 179.775L968.993 179.775L966.183 176.929ZM965.929 177.183L963.082 174.373L963.082 174.373L965.929 177.183ZM965.742 177.374L968.616 180.156L968.616 180.156L965.742 177.374ZM965.445 177.686L962.529 174.948L962.528 174.948L965.445 177.686ZM965.359 177.777L968.288 180.501L968.289 180.501L965.359 177.777ZM965.029 178.138L962.053 175.466L962.052 175.466L965.029 178.138ZM964.92 178.261L967.912 180.915L967.913 180.915L964.92 178.261ZM964.622 178.601L961.587 175.996L961.586 175.996L964.622 178.601ZM964.499 178.747L967.553 181.331L967.553 181.331L964.499 178.747ZM964.215 179.087L961.12 176.552L961.12 176.553L964.215 179.087ZM964.143 179.177L967.248 181.698L967.248 181.698L964.143 179.177ZM961.788 182.565L958.341 180.536L958.341 180.536L961.788 182.565ZM961.729 182.664L965.185 184.68L965.185 184.679L961.729 182.664ZM961.507 183.054L958.019 181.095L958.019 181.095L961.507 183.054ZM961.403 183.241L964.906 185.173L964.906 185.172L961.403 183.241ZM961.193 183.63L957.66 181.755L957.66 181.755L961.193 183.63ZM961.114 183.778L964.659 185.631L964.659 185.631L961.114 183.778ZM960.907 184.183L957.332 182.389L957.332 182.389L960.907 184.183ZM960.826 184.346L964.413 186.116L964.413 186.116L960.826 184.346ZM960.623 184.767L957.006 183.058L957.006 183.058L960.623 184.767ZM960.56 184.902L964.185 186.591L964.186 186.591L960.56 184.902ZM958.377 191.943L954.431 191.285L954.431 191.285L958.377 191.943ZM958.361 192.04L962.309 192.684L962.309 192.684L958.361 192.04ZM958.189 193.264L954.217 192.798L954.217 192.798L958.189 193.264ZM958.189 193.27L962.096 194.131L962.139 193.934L962.162 193.734L958.189 193.27ZM958 195L954 195V195H958ZM958 210V214H962V210H958ZM920 202L916 202L920 202ZM920.189 193.27L924.096 194.131L924.139 193.934L924.162 193.734L920.189 193.27ZM947.5 169V173C953.8 173 959.512 175.475 963.735 179.513L966.499 176.622L969.264 173.731C963.613 168.327 955.942 165 947.5 165V169ZM966.499 176.622L963.736 173.73C963.704 173.761 963.636 173.825 963.576 173.883L966.36 176.755L969.145 179.627C969.177 179.596 969.202 179.572 969.262 179.514L966.499 176.622ZM966.36 176.755L963.576 173.883C963.509 173.948 963.441 174.014 963.372 174.082L966.183 176.929L968.993 179.775C969.042 179.727 969.093 179.677 969.145 179.627L966.36 176.755ZM966.183 176.929L963.373 174.082C963.275 174.178 963.178 174.275 963.082 174.373L965.929 177.183L968.775 179.993C968.847 179.92 968.92 179.847 968.993 179.775L966.183 176.929ZM965.929 177.183L963.082 174.373C963.004 174.452 962.929 174.529 962.868 174.592L965.742 177.374L968.616 180.156C968.68 180.091 968.729 180.04 968.776 179.992L965.929 177.183ZM965.742 177.374L962.868 174.592C962.753 174.71 962.64 174.829 962.529 174.948L965.445 177.686L968.362 180.423C968.447 180.333 968.531 180.244 968.616 180.156L965.742 177.374ZM965.445 177.686L962.528 174.948C962.504 174.975 962.467 175.014 962.43 175.053L965.359 177.777L968.289 180.501C968.309 180.479 968.33 180.457 968.362 180.423L965.445 177.686ZM965.359 177.777L962.43 175.053C962.311 175.182 962.183 175.32 962.053 175.466L965.029 178.138L968.006 180.81C968.093 180.713 968.186 180.612 968.288 180.501L965.359 177.777ZM965.029 178.138L962.052 175.466C962.005 175.519 961.955 175.575 961.927 175.607L964.92 178.261L967.913 180.915C967.958 180.864 967.98 180.838 968.006 180.809L965.029 178.138ZM964.92 178.261L961.927 175.607C961.828 175.719 961.708 175.854 961.587 175.996L964.622 178.601L967.658 181.205C967.732 181.119 967.812 181.028 967.912 180.915L964.92 178.261ZM964.622 178.601L961.586 175.996C961.546 176.043 961.51 176.086 961.489 176.112C961.462 176.144 961.454 176.153 961.445 176.163L964.499 178.747L967.553 181.331C967.585 181.292 967.618 181.253 967.632 181.236C967.641 181.225 967.647 181.218 967.652 181.212C967.656 181.207 967.658 181.205 967.658 181.205L964.622 178.601ZM964.499 178.747L961.446 176.163C961.35 176.276 961.236 176.411 961.12 176.552L964.215 179.087L967.309 181.621C967.381 181.534 967.457 181.443 967.553 181.331L964.499 178.747ZM964.215 179.087L961.12 176.553C961.091 176.588 961.065 176.62 961.053 176.635C961.037 176.656 961.037 176.656 961.037 176.655L964.143 179.177L967.248 181.698C967.261 181.682 967.273 181.667 967.282 181.655C967.291 181.645 967.3 181.634 967.304 181.628C967.316 181.613 967.314 181.615 967.31 181.621L964.215 179.087ZM964.143 179.177L961.038 176.655C960.046 177.876 959.144 179.172 958.341 180.536L961.788 182.565L965.235 184.595C965.834 183.579 966.507 182.611 967.248 181.698L964.143 179.177ZM961.788 182.565L958.341 180.536C958.342 180.535 958.341 180.536 958.338 180.541C958.335 180.546 958.332 180.551 958.326 180.562C958.316 180.578 958.296 180.611 958.274 180.649L961.729 182.664L965.185 184.679C965.182 184.684 965.182 184.684 965.192 184.668C965.195 184.662 965.202 184.65 965.209 184.639C965.216 184.627 965.225 184.612 965.235 184.595L961.788 182.565ZM961.729 182.664L958.274 180.649C958.185 180.801 958.1 180.951 958.019 181.095L961.507 183.054L964.994 185.012C965.06 184.895 965.123 184.785 965.185 184.68L961.729 182.664ZM961.507 183.054L958.019 181.095C957.974 181.175 957.919 181.276 957.9 181.31L961.403 183.241L964.906 185.172C964.957 185.081 964.969 185.057 964.995 185.012L961.507 183.054ZM961.403 183.241L957.901 181.31C957.817 181.461 957.737 181.61 957.66 181.755L961.193 183.63L964.727 185.505C964.788 185.389 964.848 185.279 964.906 185.173L961.403 183.241ZM961.193 183.63L957.66 181.755C957.652 181.77 957.645 181.782 957.628 181.814C957.614 181.841 957.592 181.881 957.569 181.925L961.114 183.778L964.659 185.631C964.685 185.582 964.664 185.624 964.727 185.504L961.193 183.63ZM961.114 183.778L957.569 181.925C957.489 182.08 957.41 182.234 957.332 182.389L960.907 184.183L964.482 185.977C964.541 185.86 964.6 185.745 964.659 185.631L961.114 183.778ZM960.907 184.183L957.332 182.389C957.299 182.454 957.268 182.517 957.239 182.576L960.826 184.346L964.413 186.116C964.438 186.065 964.461 186.02 964.482 185.976L960.907 184.183ZM960.826 184.346L957.239 182.575C957.159 182.738 957.082 182.898 957.006 183.058L960.623 184.767L964.24 186.475C964.298 186.353 964.355 186.233 964.413 186.116L960.826 184.346ZM960.623 184.767L957.006 183.058C956.979 183.116 956.952 183.173 956.934 183.214L960.56 184.902L964.186 186.591C964.209 186.541 964.224 186.508 964.24 186.475L960.623 184.767ZM960.56 184.902L956.934 183.213C955.757 185.74 954.905 188.449 954.431 191.285L958.377 191.943L962.322 192.601C962.675 190.489 963.309 188.473 964.185 186.591L960.56 184.902ZM958.377 191.943L954.431 191.285C954.426 191.315 954.422 191.343 954.419 191.36C954.416 191.381 954.415 191.388 954.413 191.396L958.361 192.04L962.309 192.684C962.323 192.597 962.316 192.638 962.322 192.601L958.377 191.943ZM958.361 192.04L954.413 191.396C954.338 191.857 954.272 192.325 954.217 192.798L958.189 193.264L962.162 193.729C962.203 193.381 962.252 193.033 962.309 192.684L958.361 192.04ZM958.189 193.264L954.217 192.798C954.203 192.914 954.196 193.018 954.193 193.105C954.191 193.148 954.19 193.189 954.19 193.225C954.189 193.261 954.189 193.294 954.19 193.323C954.19 193.351 954.191 193.377 954.192 193.398C954.192 193.42 954.193 193.438 954.194 193.452C954.194 193.466 954.195 193.478 954.195 193.485C954.196 193.488 954.196 193.491 954.196 193.493C954.196 193.494 954.196 193.495 954.196 193.495C954.196 193.495 954.196 193.495 954.196 193.496C954.196 193.496 954.196 193.496 954.196 193.496C954.196 193.496 954.196 193.495 954.196 193.493C954.196 193.492 954.196 193.489 954.195 193.486C954.195 193.479 954.194 193.468 954.194 193.454C954.193 193.44 954.192 193.422 954.192 193.401C954.191 193.38 954.19 193.354 954.19 193.326C954.19 193.297 954.189 193.265 954.19 193.229C954.19 193.193 954.191 193.153 954.193 193.11C954.196 193.023 954.203 192.92 954.217 192.805L958.189 193.27L962.162 193.734C962.176 193.618 962.183 193.515 962.186 193.428C962.188 193.384 962.189 193.344 962.189 193.308C962.19 193.272 962.19 193.239 962.189 193.21C962.189 193.181 962.188 193.156 962.187 193.135C962.187 193.113 962.186 193.095 962.185 193.081C962.184 193.067 962.184 193.055 962.183 193.048C962.183 193.045 962.183 193.042 962.183 193.04C962.183 193.039 962.183 193.039 962.183 193.038C962.183 193.038 962.183 193.038 962.183 193.038C962.183 193.038 962.183 193.038 962.183 193.038C962.183 193.037 962.183 193.037 962.183 193.037C962.183 193.037 962.183 193.038 962.183 193.04C962.183 193.042 962.183 193.044 962.183 193.048C962.184 193.054 962.184 193.066 962.185 193.079C962.186 193.093 962.186 193.111 962.187 193.133C962.188 193.154 962.189 193.179 962.189 193.208C962.189 193.236 962.19 193.269 962.189 193.305C962.189 193.341 962.188 193.381 962.186 193.424C962.183 193.511 962.176 193.614 962.162 193.729L958.189 193.264ZM958.189 193.27L954.283 192.408C954.1 193.238 954 194.106 954 195L958 195L962 195C962 194.705 962.033 194.415 962.096 194.131L958.189 193.27ZM958 195H954V210H958H962V195H958ZM958 210V206H928V210V214H958V210ZM928 210V206C925.791 206 924 204.209 924 202L920 202L916 202C916 208.627 921.373 214 928 214V210ZM920 202H924V195H920H916V202H920ZM920 195H924C924 194.705 924.033 194.415 924.096 194.131L920.189 193.27L916.283 192.408C916.1 193.238 916 194.106 916 195H920ZM920.189 193.27L924.162 193.734C925.528 182.061 935.458 173 947.5 173V169V165C931.352 165 918.049 177.148 916.217 192.805L920.189 193.27Z" fill="#101C2B" mask="url(#path-38-inside-8_2161_7711)"/>
<mask id="path-40-inside-9_2161_7711" fill="white">
<path d="M1032.5 169C1046.59 169 1058.21 179.604 1059.81 193.27C1059.93 193.827 1060 194.406 1060 195V202C1060 206.418 1056.42 210 1052 210H1023V195C1023 194.409 1022.93 193.834 1022.81 193.28C1022.14 187.541 1019.71 182.341 1016.06 178.239C1016.03 178.206 1016 178.173 1015.97 178.14C1015.73 177.865 1015.47 177.596 1015.22 177.332C1015.18 177.296 1015.15 177.261 1015.11 177.226C1015 177.112 1014.89 176.999 1014.77 176.887C1014.74 176.859 1014.72 176.831 1014.69 176.803C1014.57 176.684 1014.44 176.566 1014.32 176.45C1014.29 176.424 1014.26 176.398 1014.24 176.372C1014.16 176.299 1014.08 176.227 1014 176.155C1018.88 171.71 1025.38 169 1032.5 169Z"/>
</mask>
<path d="M1032.5 169C1046.59 169 1058.21 179.604 1059.81 193.27C1059.93 193.827 1060 194.406 1060 195V202C1060 206.418 1056.42 210 1052 210H1023V195C1023 194.409 1022.93 193.834 1022.81 193.28C1022.14 187.541 1019.71 182.341 1016.06 178.239C1016.03 178.206 1016 178.173 1015.97 178.14C1015.73 177.865 1015.47 177.596 1015.22 177.332C1015.18 177.296 1015.15 177.261 1015.11 177.226C1015 177.112 1014.89 176.999 1014.77 176.887C1014.74 176.859 1014.72 176.831 1014.69 176.803C1014.57 176.684 1014.44 176.566 1014.32 176.45C1014.29 176.424 1014.26 176.398 1014.24 176.372C1014.16 176.299 1014.08 176.227 1014 176.155C1018.88 171.71 1025.38 169 1032.5 169Z" fill="#4EAC78"/>
<path d="M1059.81 193.27L1055.84 193.734L1055.86 193.934L1055.9 194.131L1059.81 193.27ZM1060 195L1064 195L1060 195ZM1023 210H1019V214H1023V210ZM1023 195L1027 195V195L1023 195ZM1022.81 193.28L1018.84 193.744L1018.86 193.942L1018.9 194.137L1022.81 193.28ZM1016.06 178.239L1013.07 180.896L1013.07 180.897L1016.06 178.239ZM1015.97 178.14L1018.95 175.468L1018.95 175.468L1015.97 178.14ZM1015.22 177.332L1012.35 180.12L1012.35 180.121L1015.22 177.332ZM1015.11 177.226L1017.97 174.422L1017.97 174.422L1015.11 177.226ZM1014.77 176.887L1011.97 179.739L1011.97 179.74L1014.77 176.887ZM1014.69 176.803L1017.48 173.938L1017.48 173.938L1014.69 176.803ZM1014.32 176.45L1011.58 179.366L1011.58 179.366L1014.32 176.45ZM1014.24 176.372L1016.96 173.445L1016.96 173.445L1014.24 176.372ZM1014 176.155L1011.31 173.197L1008.06 176.151L1011.3 179.11L1014 176.155ZM1032.5 169V173C1044.54 173 1054.47 182.06 1055.84 193.734L1059.81 193.27L1063.78 192.805C1061.95 177.148 1048.65 165 1032.5 165V169ZM1059.81 193.27L1055.9 194.131C1055.97 194.42 1056 194.71 1056 195L1060 195L1064 195C1064 194.102 1063.9 193.234 1063.72 192.408L1059.81 193.27ZM1060 195H1056V202H1060H1064V195H1060ZM1060 202H1056C1056 204.209 1054.21 206 1052 206V210V214C1058.63 214 1064 208.627 1064 202H1060ZM1052 210V206H1023V210V214H1052V210ZM1023 210H1027V195H1023H1019V210H1023ZM1023 195L1027 195C1027 194.106 1026.9 193.243 1026.72 192.424L1022.81 193.28L1018.9 194.137C1018.97 194.425 1019 194.713 1019 195L1023 195ZM1022.81 193.28L1026.78 192.817C1026.02 186.236 1023.22 180.277 1019.05 175.582L1016.06 178.239L1013.07 180.897C1016.19 184.405 1018.27 188.845 1018.84 193.744L1022.81 193.28ZM1016.06 178.239L1019.05 175.582C1019.02 175.547 1018.98 175.508 1018.95 175.468L1015.97 178.14L1012.99 180.811C1013.02 180.837 1013.04 180.865 1013.07 180.896L1016.06 178.239ZM1015.97 178.14L1018.95 175.468C1018.67 175.152 1018.38 174.844 1018.08 174.544L1015.22 177.332L1012.35 180.121C1012.57 180.348 1012.79 180.578 1012.99 180.811L1015.97 178.14ZM1015.22 177.332L1018.08 174.544C1018.04 174.498 1017.99 174.443 1017.97 174.422L1015.11 177.226L1012.26 180.029C1012.31 180.08 1012.32 180.095 1012.35 180.12L1015.22 177.332ZM1015.11 177.226L1017.97 174.422C1017.84 174.291 1017.71 174.162 1017.58 174.034L1014.77 176.887L1011.97 179.74C1012.07 179.835 1012.16 179.932 1012.26 180.029L1015.11 177.226ZM1014.77 176.887L1017.58 174.034C1017.54 173.999 1017.51 173.965 1017.48 173.938L1014.69 176.803L1011.9 179.667C1011.93 179.697 1011.95 179.718 1011.97 179.739L1014.77 176.887ZM1014.69 176.803L1017.48 173.938C1017.35 173.814 1017.21 173.676 1017.06 173.534L1014.32 176.45L1011.58 179.366C1011.68 179.457 1011.78 179.554 1011.9 179.668L1014.69 176.803ZM1014.32 176.45L1017.06 173.535C1017.02 173.499 1016.99 173.468 1016.97 173.455C1016.95 173.437 1016.96 173.44 1016.96 173.445L1014.24 176.372L1011.51 179.299C1011.53 179.316 1011.54 179.331 1011.56 179.342C1011.57 179.352 1011.58 179.362 1011.58 179.367C1011.6 179.381 1011.59 179.375 1011.58 179.366L1014.32 176.45ZM1014.24 176.372L1016.96 173.445C1016.87 173.361 1016.78 173.279 1016.7 173.201L1014 176.155L1011.3 179.11C1011.38 179.175 1011.44 179.238 1011.51 179.299L1014.24 176.372ZM1014 176.155L1016.69 179.114C1020.87 175.312 1026.41 173 1032.5 173V169V165C1024.34 165 1016.9 168.108 1011.31 173.197L1014 176.155Z" fill="#101C2B" mask="url(#path-40-inside-9_2161_7711)"/>
</svg>
