<svg width="1200" height="300" viewBox="0 0 1200 300" fill="none" xmlns="http://www.w3.org/2000/svg">
<rect width="1200" height="300" rx="4" fill="#F7F9FC"/>
<rect x="152" y="68" width="200" height="50" rx="25" fill="#000E41"/>
<path d="M226.324 92.168C226.324 92.6627 226.207 93.1293 225.974 93.568C225.74 94.0067 225.367 94.366 224.854 94.646C224.34 94.9167 223.682 95.052 222.88 95.052H221.116V99H219.52V89.27H222.88C223.626 89.27 224.256 89.4007 224.77 89.662C225.292 89.914 225.68 90.2593 225.932 90.698C226.193 91.1367 226.324 91.6267 226.324 92.168ZM222.88 93.75C223.486 93.75 223.939 93.6147 224.238 93.344C224.536 93.064 224.686 92.672 224.686 92.168C224.686 91.104 224.084 90.572 222.88 90.572H221.116V93.75H222.88ZM232.998 99L230.758 95.108H229.54V99H227.944V89.27H231.304C232.051 89.27 232.681 89.4007 233.194 89.662C233.717 89.9233 234.104 90.2733 234.356 90.712C234.617 91.1507 234.748 91.6407 234.748 92.182C234.748 92.8167 234.561 93.3953 234.188 93.918C233.824 94.4313 233.259 94.7813 232.494 94.968L234.902 99H232.998ZM229.54 93.834H231.304C231.901 93.834 232.349 93.6847 232.648 93.386C232.956 93.0873 233.11 92.686 233.11 92.182C233.11 91.678 232.961 91.286 232.662 91.006C232.363 90.7167 231.911 90.572 231.304 90.572H229.54V93.834ZM241.326 99.098C240.42 99.098 239.585 98.888 238.82 98.468C238.064 98.0387 237.462 97.446 237.014 96.69C236.575 95.9247 236.356 95.066 236.356 94.114C236.356 93.162 236.575 92.308 237.014 91.552C237.462 90.796 238.064 90.208 238.82 89.788C239.585 89.3587 240.42 89.144 241.326 89.144C242.24 89.144 243.076 89.3587 243.832 89.788C244.597 90.208 245.199 90.796 245.638 91.552C246.076 92.308 246.296 93.162 246.296 94.114C246.296 95.066 246.076 95.9247 245.638 96.69C245.199 97.446 244.597 98.0387 243.832 98.468C243.076 98.888 242.24 99.098 241.326 99.098ZM241.326 97.712C241.97 97.712 242.544 97.5673 243.048 97.278C243.552 96.9793 243.944 96.5593 244.224 96.018C244.513 95.4673 244.658 94.8327 244.658 94.114C244.658 93.3953 244.513 92.7653 244.224 92.224C243.944 91.6827 243.552 91.2673 243.048 90.978C242.544 90.6887 241.97 90.544 241.326 90.544C240.682 90.544 240.108 90.6887 239.604 90.978C239.1 91.2673 238.703 91.6827 238.414 92.224C238.134 92.7653 237.994 93.3953 237.994 94.114C237.994 94.8327 238.134 95.4673 238.414 96.018C238.703 96.5593 239.1 96.9793 239.604 97.278C240.108 97.5673 240.682 97.712 241.326 97.712ZM251.142 89.27C252.178 89.27 253.083 89.4707 253.858 89.872C254.642 90.264 255.244 90.8333 255.664 91.58C256.093 92.3173 256.308 93.1807 256.308 94.17C256.308 95.1593 256.093 96.018 255.664 96.746C255.244 97.474 254.642 98.034 253.858 98.426C253.083 98.8087 252.178 99 251.142 99H247.964V89.27H251.142ZM251.142 97.698C252.281 97.698 253.153 97.39 253.76 96.774C254.367 96.158 254.67 95.29 254.67 94.17C254.67 93.0407 254.367 92.1587 253.76 91.524C253.153 90.8893 252.281 90.572 251.142 90.572H249.56V97.698H251.142ZM259.57 89.27V95.472C259.57 96.2093 259.761 96.7647 260.144 97.138C260.536 97.5113 261.077 97.698 261.768 97.698C262.468 97.698 263.009 97.5113 263.392 97.138C263.784 96.7647 263.98 96.2093 263.98 95.472V89.27H265.576V95.444C265.576 96.2373 265.403 96.9093 265.058 97.46C264.713 98.0107 264.251 98.4213 263.672 98.692C263.093 98.9627 262.454 99.098 261.754 99.098C261.054 99.098 260.415 98.9627 259.836 98.692C259.267 98.4213 258.814 98.0107 258.478 97.46C258.142 96.9093 257.974 96.2373 257.974 95.444V89.27H259.57ZM267.22 94.114C267.22 93.162 267.439 92.308 267.878 91.552C268.326 90.796 268.928 90.208 269.684 89.788C270.449 89.3587 271.285 89.144 272.19 89.144C273.226 89.144 274.145 89.4007 274.948 89.914C275.76 90.418 276.348 91.1367 276.712 92.07H274.794C274.542 91.5567 274.192 91.174 273.744 90.922C273.296 90.67 272.778 90.544 272.19 90.544C271.546 90.544 270.972 90.6887 270.468 90.978C269.964 91.2673 269.567 91.6827 269.278 92.224C268.998 92.7653 268.858 93.3953 268.858 94.114C268.858 94.8327 268.998 95.4627 269.278 96.004C269.567 96.5453 269.964 96.9653 270.468 97.264C270.972 97.5533 271.546 97.698 272.19 97.698C272.778 97.698 273.296 97.572 273.744 97.32C274.192 97.068 274.542 96.6853 274.794 96.172H276.712C276.348 97.1053 275.76 97.824 274.948 98.328C274.145 98.832 273.226 99.084 272.19 99.084C271.275 99.084 270.44 98.874 269.684 98.454C268.928 98.0247 268.326 97.432 267.878 96.676C267.439 95.92 267.22 95.066 267.22 94.114ZM284.964 89.27V90.572H282.374V99H280.778V90.572H278.174V89.27H284.964Z" fill="white"/>
<path d="M417.545 70.66C418.433 70.66 419.209 70.832 419.873 71.176C420.545 71.512 421.061 72 421.421 72.64C421.789 73.272 421.973 74.012 421.973 74.86C421.973 75.708 421.789 76.444 421.421 77.068C421.061 77.692 420.545 78.172 419.873 78.508C419.209 78.836 418.433 79 417.545 79H414.821V70.66H417.545ZM417.545 77.884C418.521 77.884 419.269 77.62 419.789 77.092C420.309 76.564 420.569 75.82 420.569 74.86C420.569 73.892 420.309 73.136 419.789 72.592C419.269 72.048 418.521 71.776 417.545 71.776H416.189V77.884H417.545ZM424.795 71.764V74.212H427.675V75.328H424.795V77.884H428.035V79H423.427V70.648H428.035V71.764H424.795ZM431.186 77.896H434.006V79H429.818V70.66H431.186V77.896ZM440.276 77.296H436.784L436.184 79H434.756L437.744 70.648H439.328L442.316 79H440.876L440.276 77.296ZM439.892 76.18L438.536 72.304L437.168 76.18H439.892ZM449.893 70.66L447.133 75.976V79H445.765V75.976L442.993 70.66H444.517L446.449 74.752L448.381 70.66H449.893Z" fill="#000E41"/>
<path d="M213.333 224.66C214.221 224.66 214.997 224.832 215.661 225.176C216.333 225.512 216.849 226 217.209 226.64C217.577 227.272 217.761 228.012 217.761 228.86C217.761 229.708 217.577 230.444 217.209 231.068C216.849 231.692 216.333 232.172 215.661 232.508C214.997 232.836 214.221 233 213.333 233H210.609V224.66H213.333ZM213.333 231.884C214.309 231.884 215.057 231.62 215.577 231.092C216.097 230.564 216.357 229.82 216.357 228.86C216.357 227.892 216.097 227.136 215.577 226.592C215.057 226.048 214.309 225.776 213.333 225.776H211.977V231.884H213.333ZM220.583 225.764V228.212H223.463V229.328H220.583V231.884H223.823V233H219.215V224.648H223.823V225.764H220.583ZM232.794 224.66L229.662 233H228.078L224.934 224.66H226.398L228.87 231.596L231.354 224.66H232.794ZM235.404 225.764V228.212H238.284V229.328H235.404V231.884H238.644V233H234.036V224.648H238.644V225.764H235.404ZM241.795 231.896H244.615V233H240.427V224.66H241.795V231.896ZM249.661 233.084C248.885 233.084 248.169 232.904 247.513 232.544C246.865 232.176 246.349 231.668 245.965 231.02C245.589 230.364 245.401 229.628 245.401 228.812C245.401 227.996 245.589 227.264 245.965 226.616C246.349 225.968 246.865 225.464 247.513 225.104C248.169 224.736 248.885 224.552 249.661 224.552C250.445 224.552 251.161 224.736 251.809 225.104C252.465 225.464 252.981 225.968 253.357 226.616C253.733 227.264 253.921 227.996 253.921 228.812C253.921 229.628 253.733 230.364 253.357 231.02C252.981 231.668 252.465 232.176 251.809 232.544C251.161 232.904 250.445 233.084 249.661 233.084ZM249.661 231.896C250.213 231.896 250.705 231.772 251.137 231.524C251.569 231.268 251.905 230.908 252.145 230.444C252.393 229.972 252.517 229.428 252.517 228.812C252.517 228.196 252.393 227.656 252.145 227.192C251.905 226.728 251.569 226.372 251.137 226.124C250.705 225.876 250.213 225.752 249.661 225.752C249.109 225.752 248.617 225.876 248.185 226.124C247.753 226.372 247.413 226.728 247.165 227.192C246.925 227.656 246.805 228.196 246.805 228.812C246.805 229.428 246.925 229.972 247.165 230.444C247.413 230.908 247.753 231.268 248.185 231.524C248.617 231.772 249.109 231.896 249.661 231.896ZM261.197 227.144C261.197 227.568 261.097 227.968 260.897 228.344C260.697 228.72 260.377 229.028 259.937 229.268C259.497 229.5 258.933 229.616 258.245 229.616H256.733V233H255.365V224.66H258.245C258.885 224.66 259.425 224.772 259.865 224.996C260.313 225.212 260.645 225.508 260.861 225.884C261.085 226.26 261.197 226.68 261.197 227.144ZM258.245 228.5C258.765 228.5 259.153 228.384 259.409 228.152C259.665 227.912 259.793 227.576 259.793 227.144C259.793 226.232 259.277 225.776 258.245 225.776H256.733V228.5H258.245ZM271.384 224.66V233H270.016V227.288L267.472 233H266.524L263.968 227.288V233H262.6V224.66H264.076L267.004 231.2L269.92 224.66H271.384ZM274.648 225.764V228.212H277.528V229.328H274.648V231.884H277.888V233H273.28V224.648H277.888V225.764H274.648ZM286.523 233H285.155L281.039 226.772V233H279.671V224.648H281.039L285.155 230.864V224.648H286.523V233ZM293.805 224.66V225.776H291.585V233H290.217V225.776H287.985V224.66H293.805Z" fill="#000E41"/>
<path d="M592.931 228.812C592.931 227.996 593.119 227.264 593.495 226.616C593.879 225.968 594.395 225.464 595.043 225.104C595.699 224.736 596.415 224.552 597.191 224.552C598.079 224.552 598.867 224.772 599.555 225.212C600.251 225.644 600.755 226.26 601.067 227.06H599.423C599.207 226.62 598.907 226.292 598.523 226.076C598.139 225.86 597.695 225.752 597.191 225.752C596.639 225.752 596.147 225.876 595.715 226.124C595.283 226.372 594.943 226.728 594.695 227.192C594.455 227.656 594.335 228.196 594.335 228.812C594.335 229.428 594.455 229.968 594.695 230.432C594.943 230.896 595.283 231.256 595.715 231.512C596.147 231.76 596.639 231.884 597.191 231.884C597.695 231.884 598.139 231.776 598.523 231.56C598.907 231.344 599.207 231.016 599.423 230.576H601.067C600.755 231.376 600.251 231.992 599.555 232.424C598.867 232.856 598.079 233.072 597.191 233.072C596.407 233.072 595.691 232.892 595.043 232.532C594.395 232.164 593.879 231.656 593.495 231.008C593.119 230.36 592.931 229.628 592.931 228.812ZM606.571 233.084C605.795 233.084 605.079 232.904 604.423 232.544C603.775 232.176 603.259 231.668 602.875 231.02C602.499 230.364 602.311 229.628 602.311 228.812C602.311 227.996 602.499 227.264 602.875 226.616C603.259 225.968 603.775 225.464 604.423 225.104C605.079 224.736 605.795 224.552 606.571 224.552C607.355 224.552 608.071 224.736 608.719 225.104C609.375 225.464 609.891 225.968 610.267 226.616C610.643 227.264 610.831 227.996 610.831 228.812C610.831 229.628 610.643 230.364 610.267 231.02C609.891 231.668 609.375 232.176 608.719 232.544C608.071 232.904 607.355 233.084 606.571 233.084ZM606.571 231.896C607.123 231.896 607.615 231.772 608.047 231.524C608.479 231.268 608.815 230.908 609.055 230.444C609.303 229.972 609.427 229.428 609.427 228.812C609.427 228.196 609.303 227.656 609.055 227.192C608.815 226.728 608.479 226.372 608.047 226.124C607.615 225.876 607.123 225.752 606.571 225.752C606.019 225.752 605.527 225.876 605.095 226.124C604.663 226.372 604.323 226.728 604.075 227.192C603.835 227.656 603.715 228.196 603.715 228.812C603.715 229.428 603.835 229.972 604.075 230.444C604.323 230.908 604.663 231.268 605.095 231.524C605.527 231.772 606.019 231.896 606.571 231.896ZM619.127 233H617.759L613.643 226.772V233H612.275V224.648H613.643L617.759 230.864V224.648H619.127V233ZM626.409 224.66V225.776H624.189V233H622.821V225.776H620.589V224.66H626.409ZM632.225 233L630.305 229.664H629.261V233H627.893V224.66H630.773C631.413 224.66 631.953 224.772 632.393 224.996C632.841 225.22 633.173 225.52 633.389 225.896C633.613 226.272 633.725 226.692 633.725 227.156C633.725 227.7 633.565 228.196 633.245 228.644C632.933 229.084 632.449 229.384 631.793 229.544L633.857 233H632.225ZM629.261 228.572H630.773C631.285 228.572 631.669 228.444 631.925 228.188C632.189 227.932 632.321 227.588 632.321 227.156C632.321 226.724 632.193 226.388 631.937 226.148C631.681 225.9 631.293 225.776 630.773 225.776H629.261V228.572ZM639.377 233.084C638.601 233.084 637.885 232.904 637.229 232.544C636.581 232.176 636.065 231.668 635.681 231.02C635.305 230.364 635.117 229.628 635.117 228.812C635.117 227.996 635.305 227.264 635.681 226.616C636.065 225.968 636.581 225.464 637.229 225.104C637.885 224.736 638.601 224.552 639.377 224.552C640.161 224.552 640.877 224.736 641.525 225.104C642.181 225.464 642.697 225.968 643.073 226.616C643.449 227.264 643.637 227.996 643.637 228.812C643.637 229.628 643.449 230.364 643.073 231.02C642.697 231.668 642.181 232.176 641.525 232.544C640.877 232.904 640.161 233.084 639.377 233.084ZM639.377 231.896C639.929 231.896 640.421 231.772 640.853 231.524C641.285 231.268 641.621 230.908 641.861 230.444C642.109 229.972 642.233 229.428 642.233 228.812C642.233 228.196 642.109 227.656 641.861 227.192C641.621 226.728 641.285 226.372 640.853 226.124C640.421 225.876 639.929 225.752 639.377 225.752C638.825 225.752 638.333 225.876 637.901 226.124C637.469 226.372 637.129 226.728 636.881 227.192C636.641 227.656 636.521 228.196 636.521 228.812C636.521 229.428 636.641 229.972 636.881 230.444C637.129 230.908 637.469 231.268 637.901 231.524C638.333 231.772 638.825 231.896 639.377 231.896ZM646.449 231.896H649.269V233H645.081V224.66H646.449V231.896Z" fill="#000E41"/>
<path d="M957.249 233.084C956.473 233.084 955.757 232.904 955.101 232.544C954.453 232.176 953.937 231.668 953.553 231.02C953.177 230.364 952.989 229.628 952.989 228.812C952.989 227.996 953.177 227.264 953.553 226.616C953.937 225.968 954.453 225.464 955.101 225.104C955.757 224.736 956.473 224.552 957.249 224.552C958.033 224.552 958.749 224.736 959.397 225.104C960.053 225.464 960.569 225.968 960.945 226.616C961.321 227.264 961.509 227.996 961.509 228.812C961.509 229.628 961.321 230.364 960.945 231.02C960.569 231.668 960.053 232.176 959.397 232.544C958.749 232.904 958.033 233.084 957.249 233.084ZM957.249 231.896C957.801 231.896 958.293 231.772 958.725 231.524C959.157 231.268 959.493 230.908 959.733 230.444C959.981 229.972 960.105 229.428 960.105 228.812C960.105 228.196 959.981 227.656 959.733 227.192C959.493 226.728 959.157 226.372 958.725 226.124C958.293 225.876 957.801 225.752 957.249 225.752C956.697 225.752 956.205 225.876 955.773 226.124C955.341 226.372 955.001 226.728 954.753 227.192C954.513 227.656 954.393 228.196 954.393 228.812C954.393 229.428 954.513 229.972 954.753 230.444C955.001 230.908 955.341 231.268 955.773 231.524C956.205 231.772 956.697 231.896 957.249 231.896ZM968.785 227.144C968.785 227.568 968.685 227.968 968.485 228.344C968.285 228.72 967.965 229.028 967.525 229.268C967.085 229.5 966.521 229.616 965.833 229.616H964.321V233H962.953V224.66H965.833C966.473 224.66 967.013 224.772 967.453 224.996C967.901 225.212 968.233 225.508 968.449 225.884C968.673 226.26 968.785 226.68 968.785 227.144ZM965.833 228.5C966.353 228.5 966.741 228.384 966.997 228.152C967.253 227.912 967.381 227.576 967.381 227.144C967.381 226.232 966.865 225.776 965.833 225.776H964.321V228.5H965.833ZM971.556 225.764V228.212H974.436V229.328H971.556V231.884H974.796V233H970.188V224.648H974.796V225.764H971.556ZM980.911 233L978.991 229.664H977.947V233H976.579V224.66H979.459C980.099 224.66 980.639 224.772 981.079 224.996C981.527 225.22 981.859 225.52 982.075 225.896C982.299 226.272 982.411 226.692 982.411 227.156C982.411 227.7 982.251 228.196 981.931 228.644C981.619 229.084 981.135 229.384 980.479 229.544L982.543 233H980.911ZM977.947 228.572H979.459C979.971 228.572 980.355 228.444 980.611 228.188C980.875 227.932 981.007 227.588 981.007 227.156C981.007 226.724 980.879 226.388 980.623 226.148C980.367 225.9 979.979 225.776 979.459 225.776H977.947V228.572ZM989.287 231.296H985.795L985.195 233H983.767L986.755 224.648H988.339L991.327 233H989.887L989.287 231.296ZM988.903 230.18L987.547 226.304L986.179 230.18H988.903ZM998.112 224.66V225.776H995.892V233H994.524V225.776H992.292V224.66H998.112ZM1000.96 224.66V233H999.596V224.66H1000.96ZM1006.66 233.084C1005.89 233.084 1005.17 232.904 1004.51 232.544C1003.87 232.176 1003.35 231.668 1002.97 231.02C1002.59 230.364 1002.4 229.628 1002.4 228.812C1002.4 227.996 1002.59 227.264 1002.97 226.616C1003.35 225.968 1003.87 225.464 1004.51 225.104C1005.17 224.736 1005.89 224.552 1006.66 224.552C1007.45 224.552 1008.16 224.736 1008.81 225.104C1009.47 225.464 1009.98 225.968 1010.36 226.616C1010.73 227.264 1010.92 227.996 1010.92 228.812C1010.92 229.628 1010.73 230.364 1010.36 231.02C1009.98 231.668 1009.47 232.176 1008.81 232.544C1008.16 232.904 1007.45 233.084 1006.66 233.084ZM1006.66 231.896C1007.21 231.896 1007.71 231.772 1008.14 231.524C1008.57 231.268 1008.91 230.908 1009.15 230.444C1009.39 229.972 1009.52 229.428 1009.52 228.812C1009.52 228.196 1009.39 227.656 1009.15 227.192C1008.91 226.728 1008.57 226.372 1008.14 226.124C1007.71 225.876 1007.21 225.752 1006.66 225.752C1006.11 225.752 1005.62 225.876 1005.19 226.124C1004.75 226.372 1004.41 226.728 1004.17 227.192C1003.93 227.656 1003.81 228.196 1003.81 228.812C1003.81 229.428 1003.93 229.972 1004.17 230.444C1004.41 230.908 1004.75 231.268 1005.19 231.524C1005.62 231.772 1006.11 231.896 1006.66 231.896ZM1019.22 233H1017.85L1013.73 226.772V233H1012.37V224.648H1013.73L1017.85 230.864V224.648H1019.22V233ZM1023.86 233.084C1023.3 233.084 1022.8 232.988 1022.35 232.796C1021.9 232.596 1021.55 232.316 1021.29 231.956C1021.04 231.596 1020.91 231.176 1020.91 230.696H1022.37C1022.4 231.056 1022.54 231.352 1022.79 231.584C1023.05 231.816 1023.4 231.932 1023.86 231.932C1024.33 231.932 1024.7 231.82 1024.96 231.596C1025.23 231.364 1025.36 231.068 1025.36 230.708C1025.36 230.428 1025.28 230.2 1025.11 230.024C1024.95 229.848 1024.74 229.712 1024.5 229.616C1024.26 229.52 1023.92 229.416 1023.49 229.304C1022.94 229.16 1022.5 229.016 1022.16 228.872C1021.82 228.72 1021.53 228.488 1021.29 228.176C1021.05 227.864 1020.93 227.448 1020.93 226.928C1020.93 226.448 1021.05 226.028 1021.29 225.668C1021.53 225.308 1021.87 225.032 1022.3 224.84C1022.73 224.648 1023.23 224.552 1023.8 224.552C1024.61 224.552 1025.27 224.756 1025.78 225.164C1026.3 225.564 1026.59 226.116 1026.64 226.82H1025.13C1025.11 226.516 1024.96 226.256 1024.7 226.04C1024.44 225.824 1024.09 225.716 1023.66 225.716C1023.26 225.716 1022.94 225.816 1022.7 226.016C1022.45 226.216 1022.32 226.504 1022.32 226.88C1022.32 227.136 1022.4 227.348 1022.55 227.516C1022.71 227.676 1022.91 227.804 1023.15 227.9C1023.39 227.996 1023.72 228.1 1024.14 228.212C1024.69 228.364 1025.14 228.516 1025.48 228.668C1025.83 228.82 1026.13 229.056 1026.37 229.376C1026.62 229.688 1026.74 230.108 1026.74 230.636C1026.74 231.06 1026.62 231.46 1026.39 231.836C1026.17 232.212 1025.84 232.516 1025.4 232.748C1024.96 232.972 1024.45 233.084 1023.86 233.084Z" fill="#000E41"/>
<path d="M790.545 70.66C791.433 70.66 792.209 70.832 792.873 71.176C793.545 71.512 794.061 72 794.421 72.64C794.789 73.272 794.973 74.012 794.973 74.86C794.973 75.708 794.789 76.444 794.421 77.068C794.061 77.692 793.545 78.172 792.873 78.508C792.209 78.836 791.433 79 790.545 79H787.821V70.66H790.545ZM790.545 77.884C791.521 77.884 792.269 77.62 792.789 77.092C793.309 76.564 793.569 75.82 793.569 74.86C793.569 73.892 793.309 73.136 792.789 72.592C792.269 72.048 791.521 71.776 790.545 71.776H789.189V77.884H790.545ZM797.795 71.764V74.212H800.675V75.328H797.795V77.884H801.035V79H796.427V70.648H801.035V71.764H797.795ZM804.186 77.896H807.006V79H802.818V70.66H804.186V77.896ZM813.276 77.296H809.784L809.184 79H807.756L810.744 70.648H812.328L815.316 79H813.876L813.276 77.296ZM812.892 76.18L811.536 72.304L810.168 76.18H812.892ZM822.893 70.66L820.133 75.976V79H818.765V75.976L815.993 70.66H817.517L819.449 74.752L821.381 70.66H822.893Z" fill="#000E41"/>
<rect x="521" y="68" width="200" height="50" rx="25" fill="#000E41"/>
<path d="M575.871 94.114C575.871 93.162 576.09 92.308 576.529 91.552C576.977 90.796 577.579 90.208 578.335 89.788C579.1 89.3587 579.936 89.144 580.841 89.144C581.877 89.144 582.796 89.4007 583.599 89.914C584.411 90.418 584.999 91.1367 585.363 92.07H583.445C583.193 91.5567 582.843 91.174 582.395 90.922C581.947 90.67 581.429 90.544 580.841 90.544C580.197 90.544 579.623 90.6887 579.119 90.978C578.615 91.2673 578.218 91.6827 577.929 92.224C577.649 92.7653 577.509 93.3953 577.509 94.114C577.509 94.8327 577.649 95.4627 577.929 96.004C578.218 96.5453 578.615 96.9653 579.119 97.264C579.623 97.5533 580.197 97.698 580.841 97.698C581.429 97.698 581.947 97.572 582.395 97.32C582.843 97.068 583.193 96.6853 583.445 96.172H585.363C584.999 97.1053 584.411 97.824 583.599 98.328C582.796 98.832 581.877 99.084 580.841 99.084C579.926 99.084 579.091 98.874 578.335 98.454C577.579 98.0247 576.977 97.432 576.529 96.676C576.09 95.92 575.871 95.066 575.871 94.114ZM591.767 99.098C590.862 99.098 590.026 98.888 589.261 98.468C588.505 98.0387 587.903 97.446 587.455 96.69C587.016 95.9247 586.797 95.066 586.797 94.114C586.797 93.162 587.016 92.308 587.455 91.552C587.903 90.796 588.505 90.208 589.261 89.788C590.026 89.3587 590.862 89.144 591.767 89.144C592.682 89.144 593.517 89.3587 594.273 89.788C595.038 90.208 595.64 90.796 596.079 91.552C596.518 92.308 596.737 93.162 596.737 94.114C596.737 95.066 596.518 95.9247 596.079 96.69C595.64 97.446 595.038 98.0387 594.273 98.468C593.517 98.888 592.682 99.098 591.767 99.098ZM591.767 97.712C592.411 97.712 592.985 97.5673 593.489 97.278C593.993 96.9793 594.385 96.5593 594.665 96.018C594.954 95.4673 595.099 94.8327 595.099 94.114C595.099 93.3953 594.954 92.7653 594.665 92.224C594.385 91.6827 593.993 91.2673 593.489 90.978C592.985 90.6887 592.411 90.544 591.767 90.544C591.123 90.544 590.549 90.6887 590.045 90.978C589.541 91.2673 589.144 91.6827 588.855 92.224C588.575 92.7653 588.435 93.3953 588.435 94.114C588.435 94.8327 588.575 95.4673 588.855 96.018C589.144 96.5593 589.541 96.9793 590.045 97.278C590.549 97.5673 591.123 97.712 591.767 97.712ZM608.654 89.27V99H607.058V92.336L604.09 99H602.984L600.002 92.336V99H598.406V89.27H600.128L603.544 96.9L606.946 89.27H608.654ZM617.653 92.168C617.653 92.6627 617.537 93.1293 617.303 93.568C617.07 94.0067 616.697 94.366 616.183 94.646C615.67 94.9167 615.012 95.052 614.209 95.052H612.445V99H610.849V89.27H614.209C614.956 89.27 615.586 89.4007 616.099 89.662C616.622 89.914 617.009 90.2593 617.261 90.698C617.523 91.1367 617.653 91.6267 617.653 92.168ZM614.209 93.75C614.816 93.75 615.269 93.6147 615.567 93.344C615.866 93.064 616.015 92.672 616.015 92.168C616.015 91.104 615.413 90.572 614.209 90.572H612.445V93.75H614.209ZM620.869 97.712H624.159V99H619.273V89.27H620.869V97.712ZM627.188 89.27V99H625.592V89.27H627.188ZM635.248 97.012H631.174L630.474 99H628.808L632.294 89.256H634.142L637.628 99H635.948L635.248 97.012ZM634.8 95.71L633.218 91.188L631.622 95.71H634.8ZM647.235 99H645.639L640.837 91.734V99H639.241V89.256H640.837L645.639 96.508V89.256H647.235V99ZM648.897 94.114C648.897 93.162 649.116 92.308 649.555 91.552C650.003 90.796 650.605 90.208 651.361 89.788C652.126 89.3587 652.962 89.144 653.867 89.144C654.903 89.144 655.822 89.4007 656.625 89.914C657.437 90.418 658.025 91.1367 658.389 92.07H656.471C656.219 91.5567 655.869 91.174 655.421 90.922C654.973 90.67 654.455 90.544 653.867 90.544C653.223 90.544 652.649 90.6887 652.145 90.978C651.641 91.2673 651.244 91.6827 650.955 92.224C650.675 92.7653 650.535 93.3953 650.535 94.114C650.535 94.8327 650.675 95.4627 650.955 96.004C651.244 96.5453 651.641 96.9653 652.145 97.264C652.649 97.5533 653.223 97.698 653.867 97.698C654.455 97.698 654.973 97.572 655.421 97.32C655.869 97.068 656.219 96.6853 656.471 96.172H658.389C658.025 97.1053 657.437 97.824 656.625 98.328C655.822 98.832 654.903 99.084 653.867 99.084C652.952 99.084 652.117 98.874 651.361 98.454C650.605 98.0247 650.003 97.432 649.555 96.676C649.116 95.92 648.897 95.066 648.897 94.114ZM661.951 90.558V93.414H665.311V94.716H661.951V97.698H665.731V99H660.355V89.256H665.731V90.558H661.951Z" fill="white"/>
<rect x="890" y="68" width="200" height="50" rx="25" fill="#000E41"/>
<path d="M951.797 91.168C951.797 91.6627 951.68 92.1293 951.447 92.568C951.213 93.0067 950.84 93.366 950.327 93.646C949.813 93.9167 949.155 94.052 948.353 94.052H946.589V98H944.993V88.27H948.353C949.099 88.27 949.729 88.4007 950.243 88.662C950.765 88.914 951.153 89.2593 951.405 89.698C951.666 90.1367 951.797 90.6267 951.797 91.168ZM948.353 92.75C948.959 92.75 949.412 92.6147 949.711 92.344C950.009 92.064 950.159 91.672 950.159 91.168C950.159 90.104 949.557 89.572 948.353 89.572H946.589V92.75H948.353ZM958.471 98L956.231 94.108H955.013V98H953.417V88.27H956.777C957.524 88.27 958.154 88.4007 958.667 88.662C959.19 88.9233 959.577 89.2733 959.829 89.712C960.09 90.1507 960.221 90.6407 960.221 91.182C960.221 91.8167 960.034 92.3953 959.661 92.918C959.297 93.4313 958.732 93.7813 957.967 93.968L960.375 98H958.471ZM955.013 92.834H956.777C957.374 92.834 957.822 92.6847 958.121 92.386C958.429 92.0873 958.583 91.686 958.583 91.182C958.583 90.678 958.434 90.286 958.135 90.006C957.836 89.7167 957.384 89.572 956.777 89.572H955.013V92.834ZM966.799 98.098C965.893 98.098 965.058 97.888 964.293 97.468C963.537 97.0387 962.935 96.446 962.487 95.69C962.048 94.9247 961.829 94.066 961.829 93.114C961.829 92.162 962.048 91.308 962.487 90.552C962.935 89.796 963.537 89.208 964.293 88.788C965.058 88.3587 965.893 88.144 966.799 88.144C967.713 88.144 968.549 88.3587 969.305 88.788C970.07 89.208 970.672 89.796 971.111 90.552C971.549 91.308 971.769 92.162 971.769 93.114C971.769 94.066 971.549 94.9247 971.111 95.69C970.672 96.446 970.07 97.0387 969.305 97.468C968.549 97.888 967.713 98.098 966.799 98.098ZM966.799 96.712C967.443 96.712 968.017 96.5673 968.521 96.278C969.025 95.9793 969.417 95.5593 969.697 95.018C969.986 94.4673 970.131 93.8327 970.131 93.114C970.131 92.3953 969.986 91.7653 969.697 91.224C969.417 90.6827 969.025 90.2673 968.521 89.978C968.017 89.6887 967.443 89.544 966.799 89.544C966.155 89.544 965.581 89.6887 965.077 89.978C964.573 90.2673 964.176 90.6827 963.887 91.224C963.607 91.7653 963.467 92.3953 963.467 93.114C963.467 93.8327 963.607 94.4673 963.887 95.018C964.176 95.5593 964.573 95.9793 965.077 96.278C965.581 96.5673 966.155 96.712 966.799 96.712ZM976.615 88.27C977.651 88.27 978.557 88.4707 979.331 88.872C980.115 89.264 980.717 89.8333 981.137 90.58C981.567 91.3173 981.781 92.1807 981.781 93.17C981.781 94.1593 981.567 95.018 981.137 95.746C980.717 96.474 980.115 97.034 979.331 97.426C978.557 97.8087 977.651 98 976.615 98H973.437V88.27H976.615ZM976.615 96.698C977.754 96.698 978.627 96.39 979.233 95.774C979.84 95.158 980.143 94.29 980.143 93.17C980.143 92.0407 979.84 91.1587 979.233 90.524C978.627 89.8893 977.754 89.572 976.615 89.572H975.033V96.698H976.615ZM985.043 88.27V94.472C985.043 95.2093 985.234 95.7647 985.617 96.138C986.009 96.5113 986.55 96.698 987.241 96.698C987.941 96.698 988.482 96.5113 988.865 96.138C989.257 95.7647 989.453 95.2093 989.453 94.472V88.27H991.049V94.444C991.049 95.2373 990.876 95.9093 990.531 96.46C990.186 97.0107 989.724 97.4213 989.145 97.692C988.566 97.9627 987.927 98.098 987.227 98.098C986.527 98.098 985.888 97.9627 985.309 97.692C984.74 97.4213 984.287 97.0107 983.951 96.46C983.615 95.9093 983.447 95.2373 983.447 94.444V88.27H985.043ZM992.693 93.114C992.693 92.162 992.912 91.308 993.351 90.552C993.799 89.796 994.401 89.208 995.157 88.788C995.922 88.3587 996.758 88.144 997.663 88.144C998.699 88.144 999.618 88.4007 1000.42 88.914C1001.23 89.418 1001.82 90.1367 1002.18 91.07H1000.27C1000.01 90.5567 999.665 90.174 999.217 89.922C998.769 89.67 998.251 89.544 997.663 89.544C997.019 89.544 996.445 89.6887 995.941 89.978C995.437 90.2673 995.04 90.6827 994.751 91.224C994.471 91.7653 994.331 92.3953 994.331 93.114C994.331 93.8327 994.471 94.4627 994.751 95.004C995.04 95.5453 995.437 95.9653 995.941 96.264C996.445 96.5533 997.019 96.698 997.663 96.698C998.251 96.698 998.769 96.572 999.217 96.32C999.665 96.068 1000.01 95.6853 1000.27 95.172H1002.18C1001.82 96.1053 1001.23 96.824 1000.42 97.328C999.618 97.832 998.699 98.084 997.663 98.084C996.748 98.084 995.913 97.874 995.157 97.454C994.401 97.0247 993.799 96.432 993.351 95.676C992.912 94.92 992.693 94.066 992.693 93.114ZM1010.44 88.27V89.572H1007.85V98H1006.25V89.572H1003.65V88.27H1010.44ZM1013.75 88.27V98H1012.15V88.27H1013.75ZM1020.38 98.098C1019.47 98.098 1018.64 97.888 1017.87 97.468C1017.12 97.0387 1016.51 96.446 1016.07 95.69C1015.63 94.9247 1015.41 94.066 1015.41 93.114C1015.41 92.162 1015.63 91.308 1016.07 90.552C1016.51 89.796 1017.12 89.208 1017.87 88.788C1018.64 88.3587 1019.47 88.144 1020.38 88.144C1021.29 88.144 1022.13 88.3587 1022.88 88.788C1023.65 89.208 1024.25 89.796 1024.69 90.552C1025.13 91.308 1025.35 92.162 1025.35 93.114C1025.35 94.066 1025.13 94.9247 1024.69 95.69C1024.25 96.446 1023.65 97.0387 1022.88 97.468C1022.13 97.888 1021.29 98.098 1020.38 98.098ZM1020.38 96.712C1021.02 96.712 1021.6 96.5673 1022.1 96.278C1022.6 95.9793 1023 95.5593 1023.28 95.018C1023.57 94.4673 1023.71 93.8327 1023.71 93.114C1023.71 92.3953 1023.57 91.7653 1023.28 91.224C1023 90.6827 1022.6 90.2673 1022.1 89.978C1021.6 89.6887 1021.02 89.544 1020.38 89.544C1019.73 89.544 1019.16 89.6887 1018.66 89.978C1018.15 90.2673 1017.76 90.6827 1017.47 91.224C1017.19 91.7653 1017.05 92.3953 1017.05 93.114C1017.05 93.8327 1017.19 94.4673 1017.47 95.018C1017.76 95.5593 1018.15 95.9793 1018.66 96.278C1019.16 96.5673 1019.73 96.712 1020.38 96.712ZM1035.01 98H1033.42L1028.61 90.734V98H1027.02V88.256H1028.61L1033.42 95.508V88.256H1035.01V98Z" fill="white"/>
<path d="M725 91.5C724.172 91.5 723.5 92.1716 723.5 93C723.5 93.8284 724.172 94.5 725 94.5V91.5ZM887.061 94.0607C887.646 93.4749 887.646 92.5251 887.061 91.9393L877.515 82.3934C876.929 81.8076 875.979 81.8076 875.393 82.3934C874.808 82.9792 874.808 83.9289 875.393 84.5147L883.879 93L875.393 101.485C874.808 102.071 874.808 103.021 875.393 103.607C875.979 104.192 876.929 104.192 877.515 103.607L887.061 94.0607ZM725 94.5H728.096V91.5H725V94.5ZM734.288 94.5H740.481V91.5H734.288V94.5ZM746.673 94.5H752.865V91.5H746.673V94.5ZM759.058 94.5H765.25V91.5H759.058V94.5ZM771.442 94.5H777.635V91.5H771.442V94.5ZM783.827 94.5H790.019V91.5H783.827V94.5ZM796.212 94.5H802.404V91.5H796.212V94.5ZM808.596 94.5H814.788V91.5H808.596V94.5ZM820.981 94.5H827.173V91.5H820.981V94.5ZM833.365 94.5H839.558V91.5H833.365V94.5ZM845.75 94.5H851.942V91.5H845.75V94.5ZM858.135 94.5H864.327V91.5H858.135V94.5ZM870.519 94.5H876.712V91.5H870.519V94.5ZM882.904 94.5H886V91.5H882.904V94.5Z" fill="#969BAC"/>
<path d="M356 91.5C355.171 91.5 354.5 92.1716 354.5 93C354.5 93.8284 355.171 94.5 356 94.5V91.5ZM518.06 94.0607C518.646 93.4749 518.646 92.5251 518.06 91.9393L508.514 82.3934C507.929 81.8076 506.979 81.8076 506.393 82.3934C505.807 82.9792 505.807 83.9289 506.393 84.5147L514.878 93L506.393 101.485C505.807 102.071 505.807 103.021 506.393 103.607C506.979 104.192 507.929 104.192 508.514 103.607L518.06 94.0607ZM356 94.5H359.096V91.5H356V94.5ZM365.288 94.5H371.481V91.5H365.288V94.5ZM377.673 94.5H383.865V91.5H377.673V94.5ZM390.057 94.5H396.25V91.5H390.057V94.5ZM402.442 94.5H408.634V91.5H402.442V94.5ZM414.827 94.5H421.019V91.5H414.827V94.5ZM427.211 94.5H433.404V91.5H427.211V94.5ZM439.596 94.5H445.788V91.5H439.596V94.5ZM451.981 94.5H458.173V91.5H451.981V94.5ZM464.365 94.5H470.557V91.5H464.365V94.5ZM476.75 94.5H482.942V91.5H476.75V94.5ZM489.134 94.5H495.327V91.5H489.134V94.5ZM501.519 94.5H507.711V91.5H501.519V94.5ZM513.904 94.5H517V91.5H513.904V94.5Z" fill="#969BAC"/>
<mask id="path-15-inside-1_615_1131" fill="white">
<path fill-rule="evenodd" clip-rule="evenodd" d="M225 196.5V202C225 206.418 228.582 210 233 210H272C276.418 210 280 206.418 280 202V196.5V195C280 194.406 279.935 193.826 279.812 193.269C278.213 179.604 266.595 169 252.5 169C238.405 169 226.787 179.604 225.188 193.269C225.065 193.826 225 194.406 225 195V196.5Z"/>
</mask>
<path fill-rule="evenodd" clip-rule="evenodd" d="M225 196.5V202C225 206.418 228.582 210 233 210H272C276.418 210 280 206.418 280 202V196.5V195C280 194.406 279.935 193.826 279.812 193.269C278.213 179.604 266.595 169 252.5 169C238.405 169 226.787 179.604 225.188 193.269C225.065 193.826 225 194.406 225 195V196.5Z" fill="#F7C22E"/>
<path d="M279.812 193.269L275.839 193.734L275.863 193.934L275.906 194.13L279.812 193.269ZM225.188 193.269L229.094 194.13L229.137 193.934L229.161 193.734L225.188 193.269ZM229 202V196.5H221V202H229ZM233 206C230.791 206 229 204.209 229 202H221C221 208.627 226.373 214 233 214V206ZM272 206H233V214H272V206ZM276 202C276 204.209 274.209 206 272 206V214C278.627 214 284 208.627 284 202H276ZM276 196.5V202H284V196.5H276ZM276 195V196.5H284V195H276ZM275.906 194.13C275.967 194.407 276 194.697 276 195H284C284 194.114 283.903 193.246 283.718 192.407L275.906 194.13ZM283.785 192.804C281.952 177.147 268.648 165 252.5 165V173C264.542 173 274.473 182.06 275.839 193.734L283.785 192.804ZM252.5 165C236.352 165 223.048 177.147 221.215 192.804L229.161 193.734C230.527 182.06 240.458 173 252.5 173V165ZM229 195C229 194.697 229.033 194.407 229.094 194.13L221.282 192.407C221.097 193.246 221 194.114 221 195H229ZM229 196.5V195H221V196.5H229Z" fill="#000E41" mask="url(#path-15-inside-1_615_1131)"/>
<circle cx="209" cy="150" r="13" fill="#F7C22E" stroke="#000E41" stroke-width="4"/>
<circle cx="252" cy="150" r="13" fill="#F7C22E" stroke="#000E41" stroke-width="4"/>
<circle cx="294" cy="150" r="13" fill="#F7C22E" stroke="#000E41" stroke-width="4"/>
<mask id="path-20-inside-2_615_1131" fill="white">
<path fill-rule="evenodd" clip-rule="evenodd" d="M182 202V196.5V195C182 194.406 182.065 193.826 182.188 193.269C183.787 179.604 195.405 169 209.5 169C216.87 169 223.563 171.899 228.5 176.619C223.995 180.926 220.951 186.749 220.188 193.269C220.065 193.826 220 194.406 220 195V196.5V210H190C185.582 210 182 206.418 182 202Z"/>
</mask>
<path fill-rule="evenodd" clip-rule="evenodd" d="M182 202V196.5V195C182 194.406 182.065 193.826 182.188 193.269C183.787 179.604 195.405 169 209.5 169C216.87 169 223.563 171.899 228.5 176.619C223.995 180.926 220.951 186.749 220.188 193.269C220.065 193.826 220 194.406 220 195V196.5V210H190C185.582 210 182 206.418 182 202Z" fill="#F7C22E"/>
<path d="M182.188 193.269L186.094 194.13L186.137 193.934L186.161 193.734L182.188 193.269ZM228.5 176.619L231.264 179.51L234.289 176.619L231.264 173.728L228.5 176.619ZM220.188 193.269L224.094 194.13L224.137 193.934L224.161 193.734L220.188 193.269ZM220 210V214H224V210H220ZM178 196.5V202H186V196.5H178ZM178 195V196.5H186V195H178ZM178.282 192.407C178.097 193.246 178 194.114 178 195H186C186 194.697 186.033 194.407 186.094 194.13L178.282 192.407ZM209.5 165C193.352 165 180.048 177.147 178.215 192.804L186.161 193.734C187.527 182.06 197.458 173 209.5 173V165ZM231.264 173.728C225.612 168.325 217.94 165 209.5 165V173C215.8 173 221.513 175.473 225.736 179.51L231.264 173.728ZM224.161 193.734C224.812 188.17 227.408 183.196 231.264 179.51L225.736 173.728C220.581 178.656 217.09 185.327 216.215 192.804L224.161 193.734ZM224 195C224 194.697 224.033 194.407 224.094 194.13L216.282 192.407C216.097 193.246 216 194.114 216 195H224ZM224 196.5V195H216V196.5H224ZM224 210V196.5H216V210H224ZM190 214H220V206H190V214ZM178 202C178 208.627 183.373 214 190 214V206C187.791 206 186 204.209 186 202H178Z" fill="#000E41" mask="url(#path-20-inside-2_615_1131)"/>
<mask id="path-22-inside-3_615_1131" fill="white">
<path fill-rule="evenodd" clip-rule="evenodd" d="M285 210H314C318.418 210 322 206.418 322 202V196.5V195C322 194.406 321.935 193.826 321.812 193.269C320.213 179.604 308.595 169 294.5 169C287.376 169 280.885 171.709 276 176.153C280.78 180.501 284.021 186.51 284.812 193.269C284.935 193.826 285 194.406 285 195V196.5V210Z"/>
</mask>
<path fill-rule="evenodd" clip-rule="evenodd" d="M285 210H314C318.418 210 322 206.418 322 202V196.5V195C322 194.406 321.935 193.826 321.812 193.269C320.213 179.604 308.595 169 294.5 169C287.376 169 280.885 171.709 276 176.153C280.78 180.501 284.021 186.51 284.812 193.269C284.935 193.826 285 194.406 285 195V196.5V210Z" fill="#F7C22E"/>
<path d="M285 210H281V214H285V210ZM321.812 193.269L317.839 193.734L317.863 193.934L317.906 194.13L321.812 193.269ZM276 176.153L273.308 173.194L270.056 176.153L273.308 179.112L276 176.153ZM284.812 193.269L280.839 193.734L280.863 193.934L280.906 194.13L284.812 193.269ZM285 214H314V206H285V214ZM314 214C320.627 214 326 208.627 326 202H318C318 204.209 316.209 206 314 206V214ZM326 202V196.5H318V202H326ZM326 196.5V195H318V196.5H326ZM326 195C326 194.114 325.903 193.246 325.718 192.407L317.906 194.13C317.967 194.407 318 194.697 318 195H326ZM325.785 192.804C323.952 177.147 310.648 165 294.5 165V173C306.542 173 316.473 182.06 317.839 193.734L325.785 192.804ZM294.5 165C286.342 165 278.901 168.106 273.308 173.194L278.692 179.112C282.869 175.311 288.41 173 294.5 173V165ZM273.308 179.112C277.399 182.833 280.164 187.967 280.839 193.734L288.785 192.804C287.878 185.054 284.16 178.169 278.692 173.194L273.308 179.112ZM280.906 194.13C280.967 194.407 281 194.697 281 195H289C289 194.114 288.903 193.246 288.718 192.407L280.906 194.13ZM281 195V196.5H289V195H281ZM281 196.5V210H289V196.5H281Z" fill="#000E41" mask="url(#path-22-inside-3_615_1131)"/>
<mask id="path-24-inside-4_615_1131" fill="white">
<path fill-rule="evenodd" clip-rule="evenodd" d="M594 196.5V202C594 206.418 597.582 210 602 210H641C645.418 210 649 206.418 649 202V196.5V195C649 194.406 648.935 193.826 648.812 193.269C647.213 179.604 635.595 169 621.5 169C607.405 169 595.787 179.604 594.188 193.269C594.065 193.826 594 194.406 594 195V196.5Z"/>
</mask>
<path fill-rule="evenodd" clip-rule="evenodd" d="M594 196.5V202C594 206.418 597.582 210 602 210H641C645.418 210 649 206.418 649 202V196.5V195C649 194.406 648.935 193.826 648.812 193.269C647.213 179.604 635.595 169 621.5 169C607.405 169 595.787 179.604 594.188 193.269C594.065 193.826 594 194.406 594 195V196.5Z" fill="#2459D1"/>
<path d="M648.812 193.269L644.839 193.734L644.863 193.934L644.906 194.13L648.812 193.269ZM594.188 193.269L598.094 194.13L598.137 193.934L598.161 193.734L594.188 193.269ZM598 202V196.5H590V202H598ZM602 206C599.791 206 598 204.209 598 202H590C590 208.627 595.373 214 602 214V206ZM641 206H602V214H641V206ZM645 202C645 204.209 643.209 206 641 206V214C647.627 214 653 208.627 653 202H645ZM645 196.5V202H653V196.5H645ZM645 195V196.5H653V195H645ZM644.906 194.13C644.967 194.407 645 194.697 645 195H653C653 194.114 652.903 193.246 652.718 192.407L644.906 194.13ZM652.785 192.804C650.952 177.147 637.648 165 621.5 165V173C633.542 173 643.473 182.06 644.839 193.734L652.785 192.804ZM621.5 165C605.352 165 592.048 177.147 590.215 192.804L598.161 193.734C599.527 182.06 609.458 173 621.5 173V165ZM598 195C598 194.697 598.033 194.407 598.094 194.13L590.282 192.407C590.097 193.246 590 194.114 590 195H598ZM598 196.5V195H590V196.5H598Z" fill="#000E41" mask="url(#path-24-inside-4_615_1131)"/>
<circle cx="578" cy="150" r="13" fill="#2459D1" stroke="#000E41" stroke-width="4"/>
<circle cx="621" cy="150" r="13" fill="#2459D1" stroke="#000E41" stroke-width="4"/>
<circle cx="663" cy="150" r="13" fill="#2459D1" stroke="#000E41" stroke-width="4"/>
<mask id="path-29-inside-5_615_1131" fill="white">
<path fill-rule="evenodd" clip-rule="evenodd" d="M551 202V196.5V195C551 194.406 551.065 193.826 551.188 193.269C552.787 179.604 564.405 169 578.5 169C585.87 169 592.563 171.899 597.5 176.619C592.995 180.926 589.951 186.749 589.188 193.269C589.065 193.826 589 194.406 589 195V196.5V210H559C554.582 210 551 206.418 551 202Z"/>
</mask>
<path fill-rule="evenodd" clip-rule="evenodd" d="M551 202V196.5V195C551 194.406 551.065 193.826 551.188 193.269C552.787 179.604 564.405 169 578.5 169C585.87 169 592.563 171.899 597.5 176.619C592.995 180.926 589.951 186.749 589.188 193.269C589.065 193.826 589 194.406 589 195V196.5V210H559C554.582 210 551 206.418 551 202Z" fill="#2459D1"/>
<path d="M551.188 193.269L555.094 194.13L555.137 193.934L555.161 193.734L551.188 193.269ZM597.5 176.619L600.264 179.51L603.289 176.619L600.264 173.728L597.5 176.619ZM589.188 193.269L593.094 194.13L593.137 193.934L593.161 193.734L589.188 193.269ZM589 210V214H593V210H589ZM547 196.5V202H555V196.5H547ZM547 195V196.5H555V195H547ZM547.282 192.407C547.097 193.246 547 194.114 547 195H555C555 194.697 555.033 194.407 555.094 194.13L547.282 192.407ZM578.5 165C562.352 165 549.048 177.147 547.215 192.804L555.161 193.734C556.527 182.06 566.458 173 578.5 173V165ZM600.264 173.728C594.612 168.325 586.94 165 578.5 165V173C584.8 173 590.513 175.473 594.736 179.51L600.264 173.728ZM593.161 193.734C593.812 188.17 596.408 183.196 600.264 179.51L594.736 173.728C589.581 178.656 586.09 185.327 585.215 192.804L593.161 193.734ZM593 195C593 194.697 593.033 194.407 593.094 194.13L585.282 192.407C585.097 193.246 585 194.114 585 195H593ZM593 196.5V195H585V196.5H593ZM593 210V196.5H585V210H593ZM559 214H589V206H559V214ZM547 202C547 208.627 552.373 214 559 214V206C556.791 206 555 204.209 555 202H547Z" fill="#000E41" mask="url(#path-29-inside-5_615_1131)"/>
<mask id="path-31-inside-6_615_1131" fill="white">
<path fill-rule="evenodd" clip-rule="evenodd" d="M654 210H683C687.418 210 691 206.418 691 202V196.5V195C691 194.406 690.935 193.826 690.812 193.269C689.213 179.604 677.595 169 663.5 169C656.376 169 649.885 171.709 645 176.153C649.78 180.501 653.021 186.51 653.812 193.269C653.935 193.826 654 194.406 654 195V196.5V210Z"/>
</mask>
<path fill-rule="evenodd" clip-rule="evenodd" d="M654 210H683C687.418 210 691 206.418 691 202V196.5V195C691 194.406 690.935 193.826 690.812 193.269C689.213 179.604 677.595 169 663.5 169C656.376 169 649.885 171.709 645 176.153C649.78 180.501 653.021 186.51 653.812 193.269C653.935 193.826 654 194.406 654 195V196.5V210Z" fill="#2459D1"/>
<path d="M654 210H650V214H654V210ZM690.812 193.269L686.839 193.734L686.863 193.934L686.906 194.13L690.812 193.269ZM645 176.153L642.308 173.194L639.056 176.153L642.308 179.112L645 176.153ZM653.812 193.269L649.839 193.734L649.863 193.934L649.906 194.13L653.812 193.269ZM654 214H683V206H654V214ZM683 214C689.627 214 695 208.627 695 202H687C687 204.209 685.209 206 683 206V214ZM695 202V196.5H687V202H695ZM695 196.5V195H687V196.5H695ZM695 195C695 194.114 694.903 193.246 694.718 192.407L686.906 194.13C686.967 194.407 687 194.697 687 195H695ZM694.785 192.804C692.952 177.147 679.648 165 663.5 165V173C675.542 173 685.473 182.06 686.839 193.734L694.785 192.804ZM663.5 165C655.342 165 647.901 168.106 642.308 173.194L647.692 179.112C651.869 175.311 657.41 173 663.5 173V165ZM642.308 179.112C646.399 182.833 649.164 187.967 649.839 193.734L657.785 192.804C656.878 185.054 653.16 178.169 647.692 173.194L642.308 179.112ZM649.906 194.13C649.967 194.407 650 194.697 650 195H658C658 194.114 657.903 193.246 657.718 192.407L649.906 194.13ZM650 195V196.5H658V195H650ZM650 196.5V210H658V196.5H650Z" fill="#000E41" mask="url(#path-31-inside-6_615_1131)"/>
<mask id="path-33-inside-7_615_1131" fill="white">
<path fill-rule="evenodd" clip-rule="evenodd" d="M963 196.5V202C963 206.418 966.582 210 971 210H1010C1014.42 210 1018 206.418 1018 202V196.5V195C1018 194.406 1017.94 193.826 1017.81 193.269C1016.21 179.604 1004.59 169 990.5 169C976.405 169 964.787 179.604 963.188 193.269C963.065 193.826 963 194.406 963 195V196.5Z"/>
</mask>
<path fill-rule="evenodd" clip-rule="evenodd" d="M963 196.5V202C963 206.418 966.582 210 971 210H1010C1014.42 210 1018 206.418 1018 202V196.5V195C1018 194.406 1017.94 193.826 1017.81 193.269C1016.21 179.604 1004.59 169 990.5 169C976.405 169 964.787 179.604 963.188 193.269C963.065 193.826 963 194.406 963 195V196.5Z" fill="#29B57D"/>
<path d="M1017.81 193.269L1013.84 193.734L1013.86 193.934L1013.91 194.13L1017.81 193.269ZM963.188 193.269L967.094 194.13L967.137 193.934L967.161 193.734L963.188 193.269ZM967 202V196.5H959V202H967ZM971 206C968.791 206 967 204.209 967 202H959C959 208.627 964.373 214 971 214V206ZM1010 206H971V214H1010V206ZM1014 202C1014 204.209 1012.21 206 1010 206V214C1016.63 214 1022 208.627 1022 202H1014ZM1014 196.5V202H1022V196.5H1014ZM1014 195V196.5H1022V195H1014ZM1013.91 194.13C1013.97 194.407 1014 194.697 1014 195H1022C1022 194.114 1021.9 193.246 1021.72 192.407L1013.91 194.13ZM1021.79 192.804C1019.95 177.147 1006.65 165 990.5 165V173C1002.54 173 1012.47 182.06 1013.84 193.734L1021.79 192.804ZM990.5 165C974.352 165 961.048 177.147 959.215 192.804L967.161 193.734C968.527 182.06 978.458 173 990.5 173V165ZM967 195C967 194.697 967.033 194.407 967.094 194.13L959.282 192.407C959.097 193.246 959 194.114 959 195H967ZM967 196.5V195H959V196.5H967Z" fill="#000E41" mask="url(#path-33-inside-7_615_1131)"/>
<circle cx="947" cy="150" r="13" fill="#29B57D" stroke="#000E41" stroke-width="4"/>
<circle cx="990" cy="150" r="13" fill="#29B57D" stroke="#000E41" stroke-width="4"/>
<circle cx="1032" cy="150" r="13" fill="#29B57D" stroke="#000E41" stroke-width="4"/>
<mask id="path-38-inside-8_615_1131" fill="white">
<path fill-rule="evenodd" clip-rule="evenodd" d="M920 202V196.5V195C920 194.406 920.065 193.826 920.188 193.269C921.787 179.604 933.405 169 947.5 169C954.87 169 961.563 171.899 966.5 176.619C961.995 180.926 958.951 186.749 958.188 193.269C958.065 193.826 958 194.406 958 195V196.5V210H928C923.582 210 920 206.418 920 202Z"/>
</mask>
<path fill-rule="evenodd" clip-rule="evenodd" d="M920 202V196.5V195C920 194.406 920.065 193.826 920.188 193.269C921.787 179.604 933.405 169 947.5 169C954.87 169 961.563 171.899 966.5 176.619C961.995 180.926 958.951 186.749 958.188 193.269C958.065 193.826 958 194.406 958 195V196.5V210H928C923.582 210 920 206.418 920 202Z" fill="#29B57D"/>
<path d="M920.188 193.269L924.094 194.13L924.137 193.934L924.161 193.734L920.188 193.269ZM966.5 176.619L969.264 179.51L972.289 176.619L969.264 173.728L966.5 176.619ZM958.188 193.269L962.094 194.13L962.137 193.934L962.161 193.734L958.188 193.269ZM958 210V214H962V210H958ZM916 196.5V202H924V196.5H916ZM916 195V196.5H924V195H916ZM916.282 192.407C916.097 193.246 916 194.114 916 195H924C924 194.697 924.033 194.407 924.094 194.13L916.282 192.407ZM947.5 165C931.352 165 918.048 177.147 916.215 192.804L924.161 193.734C925.527 182.06 935.458 173 947.5 173V165ZM969.264 173.728C963.612 168.325 955.94 165 947.5 165V173C953.8 173 959.513 175.473 963.736 179.51L969.264 173.728ZM962.161 193.734C962.812 188.17 965.408 183.196 969.264 179.51L963.736 173.728C958.581 178.656 955.09 185.327 954.215 192.804L962.161 193.734ZM962 195C962 194.697 962.033 194.407 962.094 194.13L954.282 192.407C954.097 193.246 954 194.114 954 195H962ZM962 196.5V195H954V196.5H962ZM962 210V196.5H954V210H962ZM928 214H958V206H928V214ZM916 202C916 208.627 921.373 214 928 214V206C925.791 206 924 204.209 924 202H916Z" fill="#000E41" mask="url(#path-38-inside-8_615_1131)"/>
<mask id="path-40-inside-9_615_1131" fill="white">
<path fill-rule="evenodd" clip-rule="evenodd" d="M1023 210H1052C1056.42 210 1060 206.418 1060 202V196.5V195C1060 194.406 1059.94 193.826 1059.81 193.269C1058.21 179.604 1046.59 169 1032.5 169C1025.38 169 1018.88 171.709 1014 176.153C1018.78 180.501 1022.02 186.51 1022.81 193.269C1022.94 193.826 1023 194.406 1023 195V196.5V210Z"/>
</mask>
<path fill-rule="evenodd" clip-rule="evenodd" d="M1023 210H1052C1056.42 210 1060 206.418 1060 202V196.5V195C1060 194.406 1059.94 193.826 1059.81 193.269C1058.21 179.604 1046.59 169 1032.5 169C1025.38 169 1018.88 171.709 1014 176.153C1018.78 180.501 1022.02 186.51 1022.81 193.269C1022.94 193.826 1023 194.406 1023 195V196.5V210Z" fill="#29B57D"/>
<path d="M1023 210H1019V214H1023V210ZM1059.81 193.269L1055.84 193.734L1055.86 193.934L1055.91 194.13L1059.81 193.269ZM1014 176.153L1011.31 173.194L1008.06 176.153L1011.31 179.112L1014 176.153ZM1022.81 193.269L1018.84 193.734L1018.86 193.934L1018.91 194.13L1022.81 193.269ZM1023 214H1052V206H1023V214ZM1052 214C1058.63 214 1064 208.627 1064 202H1056C1056 204.209 1054.21 206 1052 206V214ZM1064 202V196.5H1056V202H1064ZM1064 196.5V195H1056V196.5H1064ZM1064 195C1064 194.114 1063.9 193.246 1063.72 192.407L1055.91 194.13C1055.97 194.407 1056 194.697 1056 195H1064ZM1063.79 192.804C1061.95 177.147 1048.65 165 1032.5 165V173C1044.54 173 1054.47 182.06 1055.84 193.734L1063.79 192.804ZM1032.5 165C1024.34 165 1016.9 168.106 1011.31 173.194L1016.69 179.112C1020.87 175.311 1026.41 173 1032.5 173V165ZM1011.31 179.112C1015.4 182.833 1018.16 187.967 1018.84 193.734L1026.79 192.804C1025.88 185.054 1022.16 178.169 1016.69 173.194L1011.31 179.112ZM1018.91 194.13C1018.97 194.407 1019 194.697 1019 195H1027C1027 194.114 1026.9 193.246 1026.72 192.407L1018.91 194.13ZM1019 195V196.5H1027V195H1019ZM1019 196.5V210H1027V196.5H1019Z" fill="#000E41" mask="url(#path-40-inside-9_615_1131)"/>
</svg>
