<svg width="1200" height="600" viewBox="0 0 1200 600" fill="none" xmlns="http://www.w3.org/2000/svg">
<rect width="1200" height="600" rx="4" fill="#F7F9FC"/>
<rect x="235" y="74" width="732" height="400" rx="15" fill="#E6E7F2" stroke="#000E41" stroke-width="2"/>
<rect x="468" y="161" width="264" height="278" rx="15" fill="white" stroke="#000E41" stroke-width="2"/>
<path d="M660.731 205.166H624.28C622.721 205.166 621.457 206.43 621.457 207.988V260.165C621.457 261.724 622.721 262.987 624.28 262.987H660.731C662.289 262.987 663.553 261.724 663.553 260.165V207.988C663.553 206.43 662.289 205.166 660.731 205.166Z" fill="#2459D1"/>
<path d="M660.731 264.399H624.28C621.945 264.399 620.046 262.5 620.046 260.165V207.988C620.046 205.654 621.945 203.755 624.28 203.755H660.731C663.065 203.755 664.964 205.654 664.964 207.988V260.165C664.964 262.5 663.065 264.399 660.731 264.399ZM624.28 206.577C623.502 206.577 622.868 207.21 622.868 207.988V260.165C622.868 260.943 623.502 261.576 624.28 261.576H660.731C661.509 261.576 662.142 260.943 662.142 260.165V207.988C662.142 207.21 661.509 206.577 660.731 206.577H624.28Z" fill="#000E41"/>
<path d="M656.719 224.073H628.652C627.873 224.073 627.241 223.442 627.241 222.662C627.241 221.882 627.873 221.251 628.652 221.251H656.719C657.498 221.251 658.13 221.882 658.13 222.662C658.13 223.442 657.498 224.073 656.719 224.073Z" fill="#000E41"/>
<path d="M656.719 217.69H628.652C627.873 217.69 627.241 217.058 627.241 216.278C627.241 215.499 627.873 214.867 628.652 214.867H656.719C657.498 214.867 658.13 215.499 658.13 216.278C658.13 217.058 657.498 217.69 656.719 217.69Z" fill="#000E41"/>
<path d="M656.719 230.457H628.652C627.873 230.457 627.241 229.826 627.241 229.046C627.241 228.266 627.873 227.635 628.652 227.635H656.719C657.498 227.635 658.13 228.266 658.13 229.046C658.13 229.826 657.498 230.457 656.719 230.457Z" fill="#000E41"/>
<path d="M656.719 236.841H628.652C627.873 236.841 627.241 236.209 627.241 235.43C627.241 234.65 627.873 234.019 628.652 234.019H656.719C657.498 234.019 658.13 234.65 658.13 235.43C658.13 236.209 657.498 236.841 656.719 236.841Z" fill="#000E41"/>
<path d="M656.719 243.226H628.652C627.873 243.226 627.241 242.594 627.241 241.814C627.241 241.035 627.873 240.403 628.652 240.403H656.719C657.498 240.403 658.13 241.035 658.13 241.814C658.13 242.594 657.498 243.226 656.719 243.226Z" fill="#000E41"/>
<path d="M656.719 249.609H628.652C627.873 249.609 627.241 248.978 627.241 248.198C627.241 247.419 627.873 246.787 628.652 246.787H656.719C657.498 246.787 658.13 247.419 658.13 248.198C658.13 248.978 657.498 249.609 656.719 249.609Z" fill="#000E41"/>
<path d="M656.719 255.993H628.652C627.873 255.993 627.241 255.362 627.241 254.582C627.241 253.802 627.873 253.171 628.652 253.171H656.719C657.498 253.171 658.13 253.802 658.13 254.582C658.13 255.362 657.498 255.993 656.719 255.993Z" fill="#000E41"/>
<path d="M653.768 202.091H631.243C629.684 202.091 628.42 203.354 628.42 204.913V205.418C628.42 206.976 629.684 208.24 631.243 208.24H653.768C655.326 208.24 656.59 206.976 656.59 205.418V204.913C656.59 203.354 655.326 202.091 653.768 202.091Z" fill="#2459D1"/>
<path d="M653.768 209.651H631.243C628.908 209.651 627.009 207.752 627.009 205.418V204.913C627.009 202.579 628.908 200.68 631.243 200.68H653.768C656.102 200.68 658.001 202.579 658.001 204.913V205.418C658.001 207.752 656.102 209.651 653.768 209.651ZM631.243 203.502C630.465 203.502 629.832 204.135 629.832 204.913V205.418C629.832 206.196 630.465 206.829 631.243 206.829H653.768C654.545 206.829 655.179 206.196 655.179 205.418V204.913C655.179 204.135 654.545 203.502 653.768 203.502H631.243Z" fill="#000E41"/>
<path d="M691.767 277H611.233C608.896 277 607 275.104 607 272.767V192.233C607 189.896 608.896 188 611.233 188H691.767C694.104 188 696 189.896 696 192.233V272.767C696 275.104 694.104 277 691.767 277ZM611.233 190.822C610.457 190.822 609.822 191.457 609.822 192.233V272.767C609.822 273.543 610.457 274.178 611.233 274.178H691.767C692.543 274.178 693.178 273.543 693.178 272.767V192.233C693.178 191.457 692.543 190.822 691.767 190.822H611.233Z" fill="#000E41"/>
<path d="M676.11 231.684C679.11 231.684 681.543 229.252 681.543 226.251C681.543 223.251 679.11 220.818 676.11 220.818C673.109 220.818 670.677 223.251 670.677 226.251C670.677 229.252 673.109 231.684 676.11 231.684Z" fill="#29B57D"/>
<path d="M676.11 233.095C672.336 233.095 669.266 230.025 669.266 226.251C669.266 222.477 672.336 219.407 676.11 219.407C679.884 219.407 682.954 222.477 682.954 226.251C682.954 230.025 679.884 233.095 676.11 233.095ZM676.11 222.229C673.892 222.229 672.088 224.033 672.088 226.25C672.088 228.468 673.892 230.272 676.11 230.272C678.327 230.272 680.132 228.468 680.132 226.25C680.132 224.033 678.327 222.229 676.11 222.229Z" fill="#000E41"/>
<path d="M676.11 216.033C679.11 216.033 681.543 213.6 681.543 210.6C681.543 207.599 679.11 205.167 676.11 205.167C673.109 205.167 670.677 207.599 670.677 210.6C670.677 213.6 673.109 216.033 676.11 216.033Z" fill="#29B57D"/>
<path d="M676.11 217.444C672.336 217.444 669.266 214.374 669.266 210.6C669.266 206.826 672.336 203.756 676.11 203.756C679.884 203.756 682.954 206.826 682.954 210.6C682.954 214.374 679.884 217.444 676.11 217.444ZM676.11 206.577C673.892 206.577 672.088 208.382 672.088 210.599C672.088 212.816 673.892 214.621 676.11 214.621C678.327 214.621 680.132 212.816 680.132 210.599C680.132 208.382 678.327 206.577 676.11 206.577Z" fill="#000E41"/>
<path d="M676.11 247.336C679.11 247.336 681.543 244.903 681.543 241.903C681.543 238.902 679.11 236.47 676.11 236.47C673.109 236.47 670.677 238.902 670.677 241.903C670.677 244.903 673.109 247.336 676.11 247.336Z" fill="#29B57D"/>
<path d="M676.11 248.747C672.336 248.747 669.266 245.677 669.266 241.903C669.266 238.129 672.336 235.059 676.11 235.059C679.884 235.059 682.954 238.129 682.954 241.903C682.954 245.677 679.884 248.747 676.11 248.747ZM676.11 237.88C673.892 237.88 672.088 239.685 672.088 241.902C672.088 244.119 673.892 245.924 676.11 245.924C678.327 245.924 680.132 244.119 680.132 241.902C680.132 239.685 678.327 237.88 676.11 237.88Z" fill="#000E41"/>
<path d="M676.11 262.987C679.11 262.987 681.543 260.555 681.543 257.554C681.543 254.554 679.11 252.121 676.11 252.121C673.109 252.121 670.677 254.554 670.677 257.554C670.677 260.555 673.109 262.987 676.11 262.987Z" fill="#29B57D"/>
<path d="M676.11 264.398C672.336 264.398 669.266 261.328 669.266 257.554C669.266 253.78 672.336 250.71 676.11 250.71C679.884 250.71 682.954 253.78 682.954 257.554C682.954 261.328 679.884 264.398 676.11 264.398ZM676.11 253.531C673.892 253.531 672.088 255.336 672.088 257.553C672.088 259.77 673.892 261.575 676.11 261.575C678.327 261.575 680.132 259.77 680.132 257.553C680.132 255.336 678.327 253.531 676.11 253.531Z" fill="#000E41"/>
<g clip-path="url(#clip0_623_4020)">
<path d="M544.642 208.772C531.615 208.772 521.059 219.398 521.059 232.509C521.059 245.621 531.615 256.247 544.642 256.247C557.669 256.247 568.225 245.621 568.225 232.509C568.225 219.398 557.66 208.772 544.642 208.772ZM544.633 238.623C541.283 238.623 538.559 235.882 538.559 232.509C538.559 229.137 541.283 226.396 544.633 226.396C547.983 226.396 550.706 229.137 550.706 232.509C550.706 235.882 547.992 238.623 544.633 238.623Z" fill="#F7C22E"/>
<path d="M544.633 239.819C540.628 239.819 537.371 236.541 537.371 232.51C537.371 228.478 540.628 225.2 544.633 225.2C548.638 225.2 551.895 228.478 551.895 232.51C551.895 236.541 548.638 239.819 544.633 239.819ZM544.633 228.214C542.284 228.214 540.366 230.145 540.366 232.51C540.366 234.874 542.284 236.805 544.633 236.805C546.982 236.805 548.9 234.874 548.9 232.51C548.9 230.145 546.982 228.214 544.633 228.214Z" fill="#000E41"/>
<path d="M544.502 257C538.737 257 532.795 255.945 526.843 253.872C522.07 252.215 517.279 249.897 512.59 246.977C504.533 241.966 499.488 236.899 498.936 236.343L498.281 235.674C496.578 233.922 496.569 231.077 498.281 229.335L498.936 228.666C499.76 227.818 519.412 208.019 544.502 208.019C550.257 208.019 556.2 209.074 562.152 211.146C566.924 212.804 571.716 215.121 576.404 218.041C584.331 222.958 589.338 227.941 590.03 228.647L590.068 228.685L590.723 229.354C592.426 231.106 592.426 233.941 590.723 235.693L590.068 236.362C589.515 236.927 584.481 241.995 576.414 246.996C571.725 249.907 566.924 252.224 562.161 253.891C556.2 255.954 550.257 257 544.502 257ZM544.502 211.033C520.648 211.033 501.865 229.975 501.07 230.785L500.415 231.454C499.844 232.038 499.844 232.99 500.415 233.564L501.07 234.233C501.856 235.043 520.638 253.985 544.502 253.985C568.366 253.985 587.148 235.043 587.934 234.233L588.589 233.564C589.16 232.98 589.16 232.038 588.589 231.454L587.934 230.785C587.138 229.975 568.338 211.033 544.502 211.033Z" fill="#000E41"/>
<path d="M544.633 257C538.129 257 532.018 254.457 527.423 249.822C522.828 245.188 520.292 239.047 520.292 232.5C520.292 225.953 522.819 219.803 527.423 215.178C532.018 210.553 538.129 208 544.633 208C551.137 208 557.248 210.543 561.843 215.178C566.438 219.812 568.974 225.953 568.974 232.5C568.974 239.047 566.447 245.197 561.843 249.822C557.239 254.447 551.137 257 544.633 257ZM544.633 211.033C538.934 211.033 533.571 213.265 529.547 217.325C525.523 221.385 523.296 226.773 523.296 232.509C523.296 238.246 525.514 243.643 529.547 247.694C533.581 251.744 538.934 253.986 544.633 253.986C550.332 253.986 555.694 251.753 559.719 247.694C563.743 243.634 565.97 238.246 565.97 232.509C565.97 226.773 563.752 221.376 559.719 217.325C555.685 213.275 550.341 211.033 544.633 211.033Z" fill="#000E41"/>
<path d="M544.633 226.707C541.451 226.707 538.868 229.307 538.868 232.509C538.868 235.712 541.451 238.312 544.633 238.312C547.815 238.312 550.398 235.712 550.398 232.509C550.398 229.307 547.824 226.707 544.633 226.707ZM542.874 233.037C541.788 233.037 540.908 232.151 540.908 231.059C540.908 229.966 541.788 229.081 542.874 229.081C543.959 229.081 544.839 229.966 544.839 231.059C544.839 232.151 543.959 233.037 542.874 233.037Z" fill="#000E41"/>
</g>
<path d="M86.4123 510.336C86.4123 510.905 86.2816 511.428 86.0203 511.904C85.759 512.371 85.3576 512.749 84.8163 513.038C84.275 513.327 83.603 513.472 82.8003 513.472H81.3163V517H78.9223V507.172H82.8003C83.5843 507.172 84.247 507.307 84.7883 507.578C85.3296 507.849 85.7356 508.222 86.0063 508.698C86.277 509.174 86.4123 509.72 86.4123 510.336ZM82.6183 511.568C83.0756 511.568 83.4163 511.461 83.6403 511.246C83.8643 511.031 83.9763 510.728 83.9763 510.336C83.9763 509.944 83.8643 509.641 83.6403 509.426C83.4163 509.211 83.0756 509.104 82.6183 509.104H81.3163V511.568H82.6183ZM90.2026 507.172V517H87.8086V507.172H90.2026ZM99.5775 510.336C99.5775 510.905 99.4469 511.428 99.1855 511.904C98.9242 512.371 98.5229 512.749 97.9815 513.038C97.4402 513.327 96.7682 513.472 95.9655 513.472H94.4815V517H92.0875V507.172H95.9655C96.7495 507.172 97.4122 507.307 97.9535 507.578C98.4949 507.849 98.9009 508.222 99.1715 508.698C99.4422 509.174 99.5775 509.72 99.5775 510.336ZM95.7835 511.568C96.2409 511.568 96.5815 511.461 96.8055 511.246C97.0295 511.031 97.1415 510.728 97.1415 510.336C97.1415 509.944 97.0295 509.641 96.8055 509.426C96.5815 509.211 96.2409 509.104 95.7835 509.104H94.4815V511.568H95.7835ZM103.368 509.09V511.078H106.574V512.926H103.368V515.082H106.994V517H100.974V507.172H106.994V509.09H103.368ZM111.092 515.152H114.228V517H108.698V507.172H111.092V515.152ZM117.914 507.172V517H115.52V507.172H117.914ZM128.591 517H126.197L122.193 510.938V517H119.799V507.172H122.193L126.197 513.262V507.172H128.591V517ZM132.87 509.09V511.078H136.076V512.926H132.87V515.082H136.496V517H130.476V507.172H136.496V509.09H132.87ZM141.756 517.098C141.038 517.098 140.394 516.981 139.824 516.748C139.255 516.515 138.798 516.169 138.452 515.712C138.116 515.255 137.939 514.704 137.92 514.06H140.468C140.506 514.424 140.632 514.704 140.846 514.9C141.061 515.087 141.341 515.18 141.686 515.18C142.041 515.18 142.321 515.101 142.526 514.942C142.732 514.774 142.834 514.545 142.834 514.256C142.834 514.013 142.75 513.813 142.582 513.654C142.424 513.495 142.223 513.365 141.98 513.262C141.747 513.159 141.411 513.043 140.972 512.912C140.338 512.716 139.82 512.52 139.418 512.324C139.017 512.128 138.672 511.839 138.382 511.456C138.093 511.073 137.948 510.574 137.948 509.958C137.948 509.043 138.28 508.329 138.942 507.816C139.605 507.293 140.468 507.032 141.532 507.032C142.615 507.032 143.488 507.293 144.15 507.816C144.813 508.329 145.168 509.048 145.214 509.972H142.624C142.606 509.655 142.489 509.407 142.274 509.23C142.06 509.043 141.784 508.95 141.448 508.95C141.159 508.95 140.926 509.029 140.748 509.188C140.571 509.337 140.482 509.557 140.482 509.846C140.482 510.163 140.632 510.411 140.93 510.588C141.229 510.765 141.696 510.957 142.33 511.162C142.965 511.377 143.478 511.582 143.87 511.778C144.272 511.974 144.617 512.259 144.906 512.632C145.196 513.005 145.34 513.486 145.34 514.074C145.34 514.634 145.196 515.143 144.906 515.6C144.626 516.057 144.216 516.421 143.674 516.692C143.133 516.963 142.494 517.098 141.756 517.098Z" fill="#000E41"/>
<path d="M1049.68 517.098C1048.76 517.098 1047.91 516.883 1047.13 516.454C1046.37 516.025 1045.76 515.427 1045.3 514.662C1044.85 513.887 1044.63 513.019 1044.63 512.058C1044.63 511.097 1044.85 510.233 1045.3 509.468C1045.76 508.703 1046.37 508.105 1047.13 507.676C1047.91 507.247 1048.76 507.032 1049.68 507.032C1050.61 507.032 1051.45 507.247 1052.22 507.676C1052.99 508.105 1053.6 508.703 1054.04 509.468C1054.48 510.233 1054.71 511.097 1054.71 512.058C1054.71 513.019 1054.48 513.887 1054.04 514.662C1053.59 515.427 1052.98 516.025 1052.22 516.454C1051.45 516.883 1050.61 517.098 1049.68 517.098ZM1049.68 514.914C1050.47 514.914 1051.09 514.653 1051.56 514.13C1052.03 513.607 1052.27 512.917 1052.27 512.058C1052.27 511.19 1052.03 510.499 1051.56 509.986C1051.09 509.463 1050.47 509.202 1049.68 509.202C1048.89 509.202 1048.25 509.459 1047.78 509.972C1047.31 510.485 1047.08 511.181 1047.08 512.058C1047.08 512.926 1047.31 513.621 1047.78 514.144C1048.25 514.657 1048.89 514.914 1049.68 514.914ZM1063.68 510.336C1063.68 510.905 1063.55 511.428 1063.29 511.904C1063.03 512.371 1062.63 512.749 1062.08 513.038C1061.54 513.327 1060.87 513.472 1060.07 513.472H1058.58V517H1056.19V507.172H1060.07C1060.85 507.172 1061.51 507.307 1062.06 507.578C1062.6 507.849 1063 508.222 1063.27 508.698C1063.54 509.174 1063.68 509.72 1063.68 510.336ZM1059.89 511.568C1060.34 511.568 1060.68 511.461 1060.91 511.246C1061.13 511.031 1061.24 510.728 1061.24 510.336C1061.24 509.944 1061.13 509.641 1060.91 509.426C1060.68 509.211 1060.34 509.104 1059.89 509.104H1058.58V511.568H1059.89ZM1067.47 509.09V511.078H1070.68V512.926H1067.47V515.082H1071.1V517H1065.08V507.172H1071.1V509.09H1067.47ZM1077.81 517L1075.77 513.29H1075.19V517H1072.8V507.172H1076.82C1077.59 507.172 1078.25 507.307 1078.79 507.578C1079.34 507.849 1079.75 508.222 1080.02 508.698C1080.29 509.165 1080.43 509.687 1080.43 510.266C1080.43 510.919 1080.24 511.503 1079.87 512.016C1079.51 512.529 1078.96 512.893 1078.25 513.108L1080.51 517H1077.81ZM1075.19 511.596H1076.68C1077.12 511.596 1077.44 511.489 1077.66 511.274C1077.88 511.059 1077.99 510.756 1077.99 510.364C1077.99 509.991 1077.88 509.697 1077.66 509.482C1077.44 509.267 1077.12 509.16 1076.68 509.16H1075.19V511.596ZM1088.2 515.264H1084.53L1083.95 517H1081.44L1085 507.172H1087.77L1091.32 517H1088.79L1088.2 515.264ZM1087.59 513.416L1086.37 509.818L1085.16 513.416H1087.59ZM1099.63 507.172V509.09H1097.02V517H1094.63V509.09H1092.02V507.172H1099.63ZM1103.37 507.172V517H1100.98V507.172H1103.37ZM1109.9 517.098C1108.98 517.098 1108.13 516.883 1107.36 516.454C1106.59 516.025 1105.98 515.427 1105.52 514.662C1105.07 513.887 1104.85 513.019 1104.85 512.058C1104.85 511.097 1105.07 510.233 1105.52 509.468C1105.98 508.703 1106.59 508.105 1107.36 507.676C1108.13 507.247 1108.98 507.032 1109.9 507.032C1110.83 507.032 1111.67 507.247 1112.44 507.676C1113.21 508.105 1113.82 508.703 1114.26 509.468C1114.71 510.233 1114.93 511.097 1114.93 512.058C1114.93 513.019 1114.71 513.887 1114.26 514.662C1113.81 515.427 1113.2 516.025 1112.44 516.454C1111.67 516.883 1110.83 517.098 1109.9 517.098ZM1109.9 514.914C1110.69 514.914 1111.31 514.653 1111.78 514.13C1112.26 513.607 1112.49 512.917 1112.49 512.058C1112.49 511.19 1112.26 510.499 1111.78 509.986C1111.31 509.463 1110.69 509.202 1109.9 509.202C1109.11 509.202 1108.48 509.459 1108 509.972C1107.53 510.485 1107.3 511.181 1107.3 512.058C1107.3 512.926 1107.53 513.621 1108 514.144C1108.48 514.657 1109.11 514.914 1109.9 514.914ZM1125.2 517H1122.81L1118.81 510.938V517H1116.41V507.172H1118.81L1122.81 513.262V507.172H1125.2V517ZM1130.64 517.098C1129.93 517.098 1129.28 516.981 1128.71 516.748C1128.14 516.515 1127.69 516.169 1127.34 515.712C1127 515.255 1126.83 514.704 1126.81 514.06H1129.36C1129.39 514.424 1129.52 514.704 1129.73 514.9C1129.95 515.087 1130.23 515.18 1130.57 515.18C1130.93 515.18 1131.21 515.101 1131.41 514.942C1131.62 514.774 1131.72 514.545 1131.72 514.256C1131.72 514.013 1131.64 513.813 1131.47 513.654C1131.31 513.495 1131.11 513.365 1130.87 513.262C1130.64 513.159 1130.3 513.043 1129.86 512.912C1129.23 512.716 1128.71 512.52 1128.31 512.324C1127.91 512.128 1127.56 511.839 1127.27 511.456C1126.98 511.073 1126.84 510.574 1126.84 509.958C1126.84 509.043 1127.17 508.329 1127.83 507.816C1128.49 507.293 1129.36 507.032 1130.42 507.032C1131.5 507.032 1132.38 507.293 1133.04 507.816C1133.7 508.329 1134.06 509.048 1134.1 509.972H1131.51C1131.49 509.655 1131.38 509.407 1131.16 509.23C1130.95 509.043 1130.67 508.95 1130.34 508.95C1130.05 508.95 1129.81 509.029 1129.64 509.188C1129.46 509.337 1129.37 509.557 1129.37 509.846C1129.37 510.163 1129.52 510.411 1129.82 510.588C1130.12 510.765 1130.58 510.957 1131.22 511.162C1131.85 511.377 1132.37 511.582 1132.76 511.778C1133.16 511.974 1133.51 512.259 1133.79 512.632C1134.08 513.005 1134.23 513.486 1134.23 514.074C1134.23 514.634 1134.08 515.143 1133.79 515.6C1133.51 516.057 1133.1 516.421 1132.56 516.692C1132.02 516.963 1131.38 517.098 1130.64 517.098Z" fill="#000E41"/>
<path d="M330.236 501.336C330.236 501.905 330.105 502.428 329.844 502.904C329.582 503.371 329.181 503.749 328.64 504.038C328.098 504.327 327.426 504.472 326.624 504.472H325.14V508H322.746V498.172H326.624C327.408 498.172 328.07 498.307 328.612 498.578C329.153 498.849 329.559 499.222 329.83 499.698C330.1 500.174 330.236 500.72 330.236 501.336ZM326.442 502.568C326.899 502.568 327.24 502.461 327.464 502.246C327.688 502.031 327.8 501.728 327.8 501.336C327.8 500.944 327.688 500.641 327.464 500.426C327.24 500.211 326.899 500.104 326.442 500.104H325.14V502.568H326.442ZM334.026 498.172V508H331.632V498.172H334.026ZM343.401 501.336C343.401 501.905 343.27 502.428 343.009 502.904C342.747 503.371 342.346 503.749 341.805 504.038C341.263 504.327 340.591 504.472 339.789 504.472H338.305V508H335.911V498.172H339.789C340.573 498.172 341.235 498.307 341.777 498.578C342.318 498.849 342.724 499.222 342.995 499.698C343.265 500.174 343.401 500.72 343.401 501.336ZM339.607 502.568C340.064 502.568 340.405 502.461 340.629 502.246C340.853 502.031 340.965 501.728 340.965 501.336C340.965 500.944 340.853 500.641 340.629 500.426C340.405 500.211 340.064 500.104 339.607 500.104H338.305V502.568H339.607ZM347.191 500.09V502.078H350.397V503.926H347.191V506.082H350.817V508H344.797V498.172H350.817V500.09H347.191ZM354.915 506.152H358.051V508H352.521V498.172H354.915V506.152ZM361.737 498.172V508H359.343V498.172H361.737ZM372.414 508H370.02L366.016 501.938V508H363.622V498.172H366.016L370.02 504.262V498.172H372.414V508ZM376.693 500.09V502.078H379.899V503.926H376.693V506.082H380.319V508H374.299V498.172H380.319V500.09H376.693ZM321.161 526L319.117 522.29H318.543V526H316.149V516.172H320.167C320.941 516.172 321.599 516.307 322.141 516.578C322.691 516.849 323.102 517.222 323.373 517.698C323.643 518.165 323.779 518.687 323.779 519.266C323.779 519.919 323.592 520.503 323.219 521.016C322.855 521.529 322.313 521.893 321.595 522.108L323.863 526H321.161ZM318.543 520.596H320.027C320.465 520.596 320.792 520.489 321.007 520.274C321.231 520.059 321.343 519.756 321.343 519.364C321.343 518.991 321.231 518.697 321.007 518.482C320.792 518.267 320.465 518.16 320.027 518.16H318.543V520.596ZM327.825 518.09V520.078H331.031V521.926H327.825V524.082H331.451V526H325.431V516.172H331.451V518.09H327.825ZM332.75 521.072C332.75 520.101 332.96 519.238 333.38 518.482C333.8 517.717 334.383 517.124 335.13 516.704C335.886 516.275 336.74 516.06 337.692 516.06C338.858 516.06 339.857 516.368 340.688 516.984C341.518 517.6 342.074 518.44 342.354 519.504H339.722C339.526 519.093 339.246 518.781 338.882 518.566C338.527 518.351 338.121 518.244 337.664 518.244C336.926 518.244 336.329 518.501 335.872 519.014C335.414 519.527 335.186 520.213 335.186 521.072C335.186 521.931 335.414 522.617 335.872 523.13C336.329 523.643 336.926 523.9 337.664 523.9C338.121 523.9 338.527 523.793 338.882 523.578C339.246 523.363 339.526 523.051 339.722 522.64H342.354C342.074 523.704 341.518 524.544 340.688 525.16C339.857 525.767 338.858 526.07 337.692 526.07C336.74 526.07 335.886 525.86 335.13 525.44C334.383 525.011 333.8 524.418 333.38 523.662C332.96 522.906 332.75 522.043 332.75 521.072ZM348.618 526.098C347.694 526.098 346.844 525.883 346.07 525.454C345.304 525.025 344.693 524.427 344.236 523.662C343.788 522.887 343.564 522.019 343.564 521.058C343.564 520.097 343.788 519.233 344.236 518.468C344.693 517.703 345.304 517.105 346.07 516.676C346.844 516.247 347.694 516.032 348.618 516.032C349.542 516.032 350.386 516.247 351.152 516.676C351.926 517.105 352.533 517.703 352.972 518.468C353.42 519.233 353.644 520.097 353.644 521.058C353.644 522.019 353.42 522.887 352.972 523.662C352.524 524.427 351.917 525.025 351.152 525.454C350.386 525.883 349.542 526.098 348.618 526.098ZM348.618 523.914C349.402 523.914 350.027 523.653 350.494 523.13C350.97 522.607 351.208 521.917 351.208 521.058C351.208 520.19 350.97 519.499 350.494 518.986C350.027 518.463 349.402 518.202 348.618 518.202C347.824 518.202 347.19 518.459 346.714 518.972C346.247 519.485 346.014 520.181 346.014 521.058C346.014 521.926 346.247 522.621 346.714 523.144C347.19 523.657 347.824 523.914 348.618 523.914ZM360.138 526L358.094 522.29H357.52V526H355.126V516.172H359.144C359.918 516.172 360.576 516.307 361.118 516.578C361.668 516.849 362.079 517.222 362.35 517.698C362.62 518.165 362.756 518.687 362.756 519.266C362.756 519.919 362.569 520.503 362.196 521.016C361.832 521.529 361.29 521.893 360.572 522.108L362.84 526H360.138ZM357.52 520.596H359.004C359.442 520.596 359.769 520.489 359.984 520.274C360.208 520.059 360.32 519.756 360.32 519.364C360.32 518.991 360.208 518.697 359.984 518.482C359.769 518.267 359.442 518.16 359.004 518.16H357.52V520.596ZM368.09 516.172C369.126 516.172 370.032 516.377 370.806 516.788C371.581 517.199 372.178 517.777 372.598 518.524C373.028 519.261 373.242 520.115 373.242 521.086C373.242 522.047 373.028 522.901 372.598 523.648C372.178 524.395 371.576 524.973 370.792 525.384C370.018 525.795 369.117 526 368.09 526H364.408V516.172H368.09ZM367.936 523.928C368.842 523.928 369.546 523.681 370.05 523.186C370.554 522.691 370.806 521.991 370.806 521.086C370.806 520.181 370.554 519.476 370.05 518.972C369.546 518.468 368.842 518.216 367.936 518.216H366.802V523.928H367.936ZM377.124 518.09V520.078H380.33V521.926H377.124V524.082H380.75V526H374.73V516.172H380.75V518.09H377.124ZM387.467 526L385.423 522.29H384.849V526H382.455V516.172H386.473C387.247 516.172 387.905 516.307 388.447 516.578C388.997 516.849 389.408 517.222 389.679 517.698C389.949 518.165 390.085 518.687 390.085 519.266C390.085 519.919 389.898 520.503 389.525 521.016C389.161 521.529 388.619 521.893 387.901 522.108L390.169 526H387.467ZM384.849 520.596H386.333C386.771 520.596 387.098 520.489 387.313 520.274C387.537 520.059 387.649 519.756 387.649 519.364C387.649 518.991 387.537 518.697 387.313 518.482C387.098 518.267 386.771 518.16 386.333 518.16H384.849V520.596Z" fill="#000E41"/>
<path d="M562.415 503.072C562.415 502.101 562.625 501.238 563.045 500.482C563.465 499.717 564.048 499.124 564.795 498.704C565.551 498.275 566.405 498.06 567.357 498.06C568.524 498.06 569.522 498.368 570.353 498.984C571.184 499.6 571.739 500.44 572.019 501.504H569.387C569.191 501.093 568.911 500.781 568.547 500.566C568.192 500.351 567.786 500.244 567.329 500.244C566.592 500.244 565.994 500.501 565.537 501.014C565.08 501.527 564.851 502.213 564.851 503.072C564.851 503.931 565.08 504.617 565.537 505.13C565.994 505.643 566.592 505.9 567.329 505.9C567.786 505.9 568.192 505.793 568.547 505.578C568.911 505.363 569.191 505.051 569.387 504.64H572.019C571.739 505.704 571.184 506.544 570.353 507.16C569.522 507.767 568.524 508.07 567.357 508.07C566.405 508.07 565.551 507.86 564.795 507.44C564.048 507.011 563.465 506.418 563.045 505.662C562.625 504.906 562.415 504.043 562.415 503.072ZM578.283 508.098C577.359 508.098 576.51 507.883 575.735 507.454C574.97 507.025 574.358 506.427 573.901 505.662C573.453 504.887 573.229 504.019 573.229 503.058C573.229 502.097 573.453 501.233 573.901 500.468C574.358 499.703 574.97 499.105 575.735 498.676C576.51 498.247 577.359 498.032 578.283 498.032C579.207 498.032 580.052 498.247 580.817 498.676C581.592 499.105 582.198 499.703 582.637 500.468C583.085 501.233 583.309 502.097 583.309 503.058C583.309 504.019 583.085 504.887 582.637 505.662C582.189 506.427 581.582 507.025 580.817 507.454C580.052 507.883 579.207 508.098 578.283 508.098ZM578.283 505.914C579.067 505.914 579.692 505.653 580.159 505.13C580.635 504.607 580.873 503.917 580.873 503.058C580.873 502.19 580.635 501.499 580.159 500.986C579.692 500.463 579.067 500.202 578.283 500.202C577.49 500.202 576.855 500.459 576.379 500.972C575.912 501.485 575.679 502.181 575.679 503.058C575.679 503.926 575.912 504.621 576.379 505.144C576.855 505.657 577.49 505.914 578.283 505.914ZM593.583 508H591.189L587.185 501.938V508H584.791V498.172H587.185L591.189 504.262V498.172H593.583V508ZM602.538 498.172V500.09H599.934V508H597.54V500.09H594.936V498.172H602.538ZM606.284 498.172V508H603.89V498.172H606.284ZM616.961 508H614.567L610.563 501.938V508H608.169V498.172H610.563L614.567 504.262V498.172H616.961V508ZM621.24 498.172V508H618.846V498.172H621.24ZM627.773 508.098C626.849 508.098 626 507.883 625.225 507.454C624.46 507.025 623.848 506.427 623.391 505.662C622.943 504.887 622.719 504.019 622.719 503.058C622.719 502.097 622.943 501.233 623.391 500.468C623.848 499.703 624.46 499.105 625.225 498.676C626 498.247 626.849 498.032 627.773 498.032C628.697 498.032 629.542 498.247 630.307 498.676C631.082 499.105 631.688 499.703 632.127 500.468C632.575 501.233 632.799 502.097 632.799 503.058C632.799 504.019 632.575 504.887 632.127 505.662C631.679 506.427 631.072 507.025 630.307 507.454C629.542 507.883 628.697 508.098 627.773 508.098ZM627.773 505.914C628.557 505.914 629.182 505.653 629.649 505.13C630.125 504.607 630.363 503.917 630.363 503.058C630.363 502.19 630.125 501.499 629.649 500.986C629.182 500.463 628.557 500.202 627.773 500.202C626.98 500.202 626.345 500.459 625.869 500.972C625.402 501.485 625.169 502.181 625.169 503.058C625.169 503.926 625.402 504.621 625.869 505.144C626.345 505.657 626.98 505.914 627.773 505.914ZM636.633 498.172V504.052C636.633 504.64 636.777 505.093 637.067 505.41C637.356 505.727 637.781 505.886 638.341 505.886C638.901 505.886 639.33 505.727 639.629 505.41C639.927 505.093 640.077 504.64 640.077 504.052V498.172H642.471V504.038C642.471 504.915 642.284 505.657 641.911 506.264C641.537 506.871 641.033 507.328 640.399 507.636C639.773 507.944 639.073 508.098 638.299 508.098C637.524 508.098 636.829 507.949 636.213 507.65C635.606 507.342 635.125 506.885 634.771 506.278C634.416 505.662 634.239 504.915 634.239 504.038V498.172H636.633ZM647.858 508.098C647.139 508.098 646.495 507.981 645.926 507.748C645.356 507.515 644.899 507.169 644.554 506.712C644.218 506.255 644.04 505.704 644.022 505.06H646.57C646.607 505.424 646.733 505.704 646.948 505.9C647.162 506.087 647.442 506.18 647.788 506.18C648.142 506.18 648.422 506.101 648.628 505.942C648.833 505.774 648.936 505.545 648.936 505.256C648.936 505.013 648.852 504.813 648.684 504.654C648.525 504.495 648.324 504.365 648.082 504.262C647.848 504.159 647.512 504.043 647.074 503.912C646.439 503.716 645.921 503.52 645.52 503.324C645.118 503.128 644.773 502.839 644.484 502.456C644.194 502.073 644.05 501.574 644.05 500.958C644.05 500.043 644.381 499.329 645.044 498.816C645.706 498.293 646.57 498.032 647.634 498.032C648.716 498.032 649.589 498.293 650.252 498.816C650.914 499.329 651.269 500.048 651.316 500.972H648.726C648.707 500.655 648.59 500.407 648.376 500.23C648.161 500.043 647.886 499.95 647.55 499.95C647.26 499.95 647.027 500.029 646.85 500.188C646.672 500.337 646.584 500.557 646.584 500.846C646.584 501.163 646.733 501.411 647.032 501.588C647.33 501.765 647.797 501.957 648.432 502.162C649.066 502.377 649.58 502.582 649.972 502.778C650.373 502.974 650.718 503.259 651.008 503.632C651.297 504.005 651.442 504.486 651.442 505.074C651.442 505.634 651.297 506.143 651.008 506.6C650.728 507.057 650.317 507.421 649.776 507.692C649.234 507.963 648.595 508.098 647.858 508.098ZM560.214 521.072C560.214 520.101 560.424 519.238 560.844 518.482C561.264 517.717 561.847 517.124 562.594 516.704C563.35 516.275 564.204 516.06 565.156 516.06C566.322 516.06 567.321 516.368 568.152 516.984C568.982 517.6 569.538 518.44 569.818 519.504H567.186C566.99 519.093 566.71 518.781 566.346 518.566C565.991 518.351 565.585 518.244 565.128 518.244C564.39 518.244 563.793 518.501 563.336 519.014C562.878 519.527 562.65 520.213 562.65 521.072C562.65 521.931 562.878 522.617 563.336 523.13C563.793 523.643 564.39 523.9 565.128 523.9C565.585 523.9 565.991 523.793 566.346 523.578C566.71 523.363 566.99 523.051 567.186 522.64H569.818C569.538 523.704 568.982 524.544 568.152 525.16C567.321 525.767 566.322 526.07 565.156 526.07C564.204 526.07 563.35 525.86 562.594 525.44C561.847 525.011 561.264 524.418 560.844 523.662C560.424 522.906 560.214 522.043 560.214 521.072ZM576.082 526.098C575.158 526.098 574.308 525.883 573.534 525.454C572.768 525.025 572.157 524.427 571.7 523.662C571.252 522.887 571.028 522.019 571.028 521.058C571.028 520.097 571.252 519.233 571.7 518.468C572.157 517.703 572.768 517.105 573.534 516.676C574.308 516.247 575.158 516.032 576.082 516.032C577.006 516.032 577.85 516.247 578.616 516.676C579.39 517.105 579.997 517.703 580.436 518.468C580.884 519.233 581.108 520.097 581.108 521.058C581.108 522.019 580.884 522.887 580.436 523.662C579.988 524.427 579.381 525.025 578.616 525.454C577.85 525.883 577.006 526.098 576.082 526.098ZM576.082 523.914C576.866 523.914 577.491 523.653 577.958 523.13C578.434 522.607 578.672 521.917 578.672 521.058C578.672 520.19 578.434 519.499 577.958 518.986C577.491 518.463 576.866 518.202 576.082 518.202C575.288 518.202 574.654 518.459 574.178 518.972C573.711 519.485 573.478 520.181 573.478 521.058C573.478 521.926 573.711 522.621 574.178 523.144C574.654 523.657 575.288 523.914 576.082 523.914ZM593.72 516.172V526H591.326V520.106L589.128 526H587.196L584.984 520.092V526H582.59V516.172H585.418L588.176 522.976L590.906 516.172H593.72ZM603.081 519.336C603.081 519.905 602.951 520.428 602.689 520.904C602.428 521.371 602.027 521.749 601.485 522.038C600.944 522.327 600.272 522.472 599.469 522.472H597.985V526H595.591V516.172H599.469C600.253 516.172 600.916 516.307 601.457 516.578C601.999 516.849 602.405 517.222 602.675 517.698C602.946 518.174 603.081 518.72 603.081 519.336ZM599.287 520.568C599.745 520.568 600.085 520.461 600.309 520.246C600.533 520.031 600.645 519.728 600.645 519.336C600.645 518.944 600.533 518.641 600.309 518.426C600.085 518.211 599.745 518.104 599.287 518.104H597.985V520.568H599.287ZM606.872 524.152H610.008V526H604.478V516.172H606.872V524.152ZM613.693 516.172V526H611.299V516.172H613.693ZM621.696 524.264H618.028L617.44 526H614.934L618.49 516.172H621.262L624.818 526H622.284L621.696 524.264ZM621.08 522.416L619.862 518.818L618.658 522.416H621.08ZM634.843 526H632.449L628.445 519.938V526H626.051V516.172H628.445L632.449 522.262V516.172H634.843V526ZM636.322 521.072C636.322 520.101 636.532 519.238 636.952 518.482C637.372 517.717 637.955 517.124 638.702 516.704C639.458 516.275 640.312 516.06 641.264 516.06C642.431 516.06 643.429 516.368 644.26 516.984C645.091 517.6 645.646 518.44 645.926 519.504H643.294C643.098 519.093 642.818 518.781 642.454 518.566C642.099 518.351 641.693 518.244 641.236 518.244C640.499 518.244 639.901 518.501 639.444 519.014C638.987 519.527 638.758 520.213 638.758 521.072C638.758 521.931 638.987 522.617 639.444 523.13C639.901 523.643 640.499 523.9 641.236 523.9C641.693 523.9 642.099 523.793 642.454 523.578C642.818 523.363 643.098 523.051 643.294 522.64H645.926C645.646 523.704 645.091 524.544 644.26 525.16C643.429 525.767 642.431 526.07 641.264 526.07C640.312 526.07 639.458 525.86 638.702 525.44C637.955 525.011 637.372 524.418 636.952 523.662C636.532 522.906 636.322 522.043 636.322 521.072ZM649.936 518.09V520.078H653.142V521.926H649.936V524.082H653.562V526H647.542V516.172H653.562V518.09H649.936Z" fill="#000E41"/>
<path d="M798.338 500.09V502.078H801.544V503.926H798.338V506.082H801.964V508H795.944V498.172H801.964V500.09H798.338ZM812.46 508H810.066L806.062 501.938V508H803.668V498.172H806.062L810.066 504.262V498.172H812.46V508ZM823.572 498.172L820.086 508H817.09L813.604 498.172H816.152L818.588 505.592L821.038 498.172H823.572ZM827.116 498.172V508H824.722V498.172H827.116ZM834.013 508L831.969 504.29H831.395V508H829.001V498.172H833.019C833.794 498.172 834.452 498.307 834.993 498.578C835.544 498.849 835.955 499.222 836.225 499.698C836.496 500.165 836.631 500.687 836.631 501.266C836.631 501.919 836.445 502.503 836.071 503.016C835.707 503.529 835.166 503.893 834.447 504.108L836.715 508H834.013ZM831.395 502.596H832.879C833.318 502.596 833.645 502.489 833.859 502.274C834.083 502.059 834.195 501.756 834.195 501.364C834.195 500.991 834.083 500.697 833.859 500.482C833.645 500.267 833.318 500.16 832.879 500.16H831.395V502.596ZM842.932 508.098C842.008 508.098 841.159 507.883 840.384 507.454C839.619 507.025 839.007 506.427 838.55 505.662C838.102 504.887 837.878 504.019 837.878 503.058C837.878 502.097 838.102 501.233 838.55 500.468C839.007 499.703 839.619 499.105 840.384 498.676C841.159 498.247 842.008 498.032 842.932 498.032C843.856 498.032 844.701 498.247 845.466 498.676C846.241 499.105 846.847 499.703 847.286 500.468C847.734 501.233 847.958 502.097 847.958 503.058C847.958 504.019 847.734 504.887 847.286 505.662C846.838 506.427 846.231 507.025 845.466 507.454C844.701 507.883 843.856 508.098 842.932 508.098ZM842.932 505.914C843.716 505.914 844.341 505.653 844.808 505.13C845.284 504.607 845.522 503.917 845.522 503.058C845.522 502.19 845.284 501.499 844.808 500.986C844.341 500.463 843.716 500.202 842.932 500.202C842.139 500.202 841.504 500.459 841.028 500.972C840.561 501.485 840.328 502.181 840.328 503.058C840.328 503.926 840.561 504.621 841.028 505.144C841.504 505.657 842.139 505.914 842.932 505.914ZM858.232 508H855.838L851.834 501.938V508H849.44V498.172H851.834L855.838 504.262V498.172H858.232V508ZM871.247 498.172V508H868.853V502.106L866.655 508H864.723L862.511 502.092V508H860.117V498.172H862.945L865.703 504.976L868.433 498.172H871.247ZM875.513 500.09V502.078H878.719V503.926H875.513V506.082H879.139V508H873.119V498.172H879.139V500.09H875.513ZM889.635 508H887.241L883.237 501.938V508H880.843V498.172H883.237L887.241 504.262V498.172H889.635V508ZM898.59 498.172V500.09H895.986V508H893.592V500.09H890.988V498.172H898.59ZM815.161 526L813.117 522.29H812.543V526H810.149V516.172H814.167C814.941 516.172 815.599 516.307 816.141 516.578C816.691 516.849 817.102 517.222 817.373 517.698C817.643 518.165 817.779 518.687 817.779 519.266C817.779 519.919 817.592 520.503 817.219 521.016C816.855 521.529 816.313 521.893 815.595 522.108L817.863 526H815.161ZM812.543 520.596H814.027C814.465 520.596 814.792 520.489 815.007 520.274C815.231 520.059 815.343 519.756 815.343 519.364C815.343 518.991 815.231 518.697 815.007 518.482C814.792 518.267 814.465 518.16 814.027 518.16H812.543V520.596ZM821.825 518.09V520.078H825.031V521.926H821.825V524.082H825.451V526H819.431V516.172H825.451V518.09H821.825ZM826.75 521.072C826.75 520.101 826.96 519.238 827.38 518.482C827.8 517.717 828.383 517.124 829.13 516.704C829.886 516.275 830.74 516.06 831.692 516.06C832.858 516.06 833.857 516.368 834.688 516.984C835.518 517.6 836.074 518.44 836.354 519.504H833.722C833.526 519.093 833.246 518.781 832.882 518.566C832.527 518.351 832.121 518.244 831.664 518.244C830.926 518.244 830.329 518.501 829.872 519.014C829.414 519.527 829.186 520.213 829.186 521.072C829.186 521.931 829.414 522.617 829.872 523.13C830.329 523.643 830.926 523.9 831.664 523.9C832.121 523.9 832.527 523.793 832.882 523.578C833.246 523.363 833.526 523.051 833.722 522.64H836.354C836.074 523.704 835.518 524.544 834.688 525.16C833.857 525.767 832.858 526.07 831.692 526.07C830.74 526.07 829.886 525.86 829.13 525.44C828.383 525.011 827.8 524.418 827.38 523.662C826.96 522.906 826.75 522.043 826.75 521.072ZM842.618 526.098C841.694 526.098 840.844 525.883 840.07 525.454C839.304 525.025 838.693 524.427 838.236 523.662C837.788 522.887 837.564 522.019 837.564 521.058C837.564 520.097 837.788 519.233 838.236 518.468C838.693 517.703 839.304 517.105 840.07 516.676C840.844 516.247 841.694 516.032 842.618 516.032C843.542 516.032 844.386 516.247 845.152 516.676C845.926 517.105 846.533 517.703 846.972 518.468C847.42 519.233 847.644 520.097 847.644 521.058C847.644 522.019 847.42 522.887 846.972 523.662C846.524 524.427 845.917 525.025 845.152 525.454C844.386 525.883 843.542 526.098 842.618 526.098ZM842.618 523.914C843.402 523.914 844.027 523.653 844.494 523.13C844.97 522.607 845.208 521.917 845.208 521.058C845.208 520.19 844.97 519.499 844.494 518.986C844.027 518.463 843.402 518.202 842.618 518.202C841.824 518.202 841.19 518.459 840.714 518.972C840.247 519.485 840.014 520.181 840.014 521.058C840.014 521.926 840.247 522.621 840.714 523.144C841.19 523.657 841.824 523.914 842.618 523.914ZM854.138 526L852.094 522.29H851.52V526H849.126V516.172H853.144C853.918 516.172 854.576 516.307 855.118 516.578C855.668 516.849 856.079 517.222 856.35 517.698C856.62 518.165 856.756 518.687 856.756 519.266C856.756 519.919 856.569 520.503 856.196 521.016C855.832 521.529 855.29 521.893 854.572 522.108L856.84 526H854.138ZM851.52 520.596H853.004C853.442 520.596 853.769 520.489 853.984 520.274C854.208 520.059 854.32 519.756 854.32 519.364C854.32 518.991 854.208 518.697 853.984 518.482C853.769 518.267 853.442 518.16 853.004 518.16H851.52V520.596ZM862.09 516.172C863.126 516.172 864.032 516.377 864.806 516.788C865.581 517.199 866.178 517.777 866.598 518.524C867.028 519.261 867.242 520.115 867.242 521.086C867.242 522.047 867.028 522.901 866.598 523.648C866.178 524.395 865.576 524.973 864.792 525.384C864.018 525.795 863.117 526 862.09 526H858.408V516.172H862.09ZM861.936 523.928C862.842 523.928 863.546 523.681 864.05 523.186C864.554 522.691 864.806 521.991 864.806 521.086C864.806 520.181 864.554 519.476 864.05 518.972C863.546 518.468 862.842 518.216 861.936 518.216H860.802V523.928H861.936ZM871.124 518.09V520.078H874.33V521.926H871.124V524.082H874.75V526H868.73V516.172H874.75V518.09H871.124ZM881.467 526L879.423 522.29H878.849V526H876.455V516.172H880.473C881.247 516.172 881.905 516.307 882.447 516.578C882.997 516.849 883.408 517.222 883.679 517.698C883.949 518.165 884.085 518.687 884.085 519.266C884.085 519.919 883.898 520.503 883.525 521.016C883.161 521.529 882.619 521.893 881.901 522.108L884.169 526H881.467ZM878.849 520.596H880.333C880.771 520.596 881.098 520.489 881.313 520.274C881.537 520.059 881.649 519.756 881.649 519.364C881.649 518.991 881.537 518.697 881.313 518.482C881.098 518.267 880.771 518.16 880.333 518.16H878.849V520.596Z" fill="#000E41"/>
<g clip-path="url(#clip1_623_4020)">
<path d="M636.348 342.146C634.463 340.461 631.57 340.634 629.895 342.528L591.867 385.494L590.668 386.853C572.244 406.756 541.182 408.326 520.874 390.144C510.919 381.245 505.019 368.939 504.239 355.523C503.458 342.107 507.912 329.208 516.782 319.199C526.641 308.06 540.364 302.376 554.144 302.376C565.963 302.376 577.84 306.567 587.337 315.065L593.409 308.213C569.027 286.434 531.589 288.616 509.93 313.094C499.442 324.94 494.189 340.193 495.103 356.059C496.016 371.925 503.002 386.47 514.783 396.996C526.032 407.063 540.059 412 554.048 412C569.922 412 585.758 405.608 597.33 393.092L598.415 391.905L636.728 348.633C638.384 346.72 638.232 343.83 636.348 342.146Z" fill="#29B57D"/>
<path d="M699.899 348.939C698.986 333.074 692 318.529 680.219 308.002C656.294 286.606 619.751 288.347 597.939 311.62L597.139 312.538C597.025 312.653 596.892 312.768 596.797 312.883L558.293 356.365C556.618 358.26 556.789 361.169 558.673 362.853C559.549 363.637 560.634 364.02 561.7 364.02C562.956 364.02 564.212 363.504 565.107 362.489L603.611 319.007C603.63 318.988 603.649 318.95 603.687 318.93L604.6 317.954C614.383 307.524 627.649 302.204 640.973 302.204C652.792 302.204 664.669 306.395 674.166 314.892C694.741 333.303 696.587 365.13 678.278 385.838C659.968 406.526 628.316 408.383 607.722 389.972L601.65 396.823C612.899 406.89 626.926 411.828 640.916 411.828C657.208 411.828 673.443 405.11 685.091 391.943C695.56 380.058 700.813 364.805 699.899 348.939Z" fill="#29B57D"/>
<path d="M631.913 362.623L652.773 339.083C653.573 338.183 654.695 337.628 655.914 337.552C657.113 337.475 658.293 337.896 659.206 338.7L668.475 347.006C670.341 348.69 670.512 351.58 668.856 353.456C667.181 355.331 664.307 355.504 662.442 353.839L656.561 348.576L638.727 368.709C637.052 370.585 634.178 370.757 632.313 369.092C630.409 367.388 630.257 364.518 631.913 362.623Z" fill="#29B57D"/>
<path d="M563.717 342.375L542.857 365.915C542.057 366.815 540.935 367.37 539.716 367.446C538.517 367.523 537.337 367.102 536.424 366.298L527.155 357.992C525.289 356.308 525.118 353.418 526.774 351.542C528.449 349.667 531.323 349.494 533.188 351.159L539.069 356.422L556.903 336.289C558.578 334.413 561.452 334.241 563.317 335.906C565.221 337.59 565.392 340.48 563.717 342.375Z" fill="#29B57D"/>
</g>
<path d="M564.063 111.152V128H559.959V117.896L556.191 128H552.879L549.087 117.872V128H544.983V111.152H549.831L554.559 122.816L559.239 111.152H564.063ZM571.298 114.44V117.848H576.794V121.016H571.298V124.712H577.514V128H567.194V111.152H577.514V114.44H571.298ZM588.951 128L585.447 121.64H584.463V128H580.359V111.152H587.247C588.575 111.152 589.703 111.384 590.631 111.848C591.575 112.312 592.279 112.952 592.743 113.768C593.207 114.568 593.439 115.464 593.439 116.456C593.439 117.576 593.119 118.576 592.479 119.456C591.855 120.336 590.927 120.96 589.695 121.328L593.583 128H588.951ZM584.463 118.736H587.007C587.759 118.736 588.319 118.552 588.687 118.184C589.071 117.816 589.263 117.296 589.263 116.624C589.263 115.984 589.071 115.48 588.687 115.112C588.319 114.744 587.759 114.56 587.007 114.56H584.463V118.736ZM605.963 128L600.299 120.56V128H596.195V111.152H600.299V118.544L605.915 111.152H610.739L604.211 119.408L610.979 128H605.963ZM617.213 114.44V117.848H622.709V121.016H617.213V124.712H623.429V128H613.109V111.152H623.429V114.44H617.213ZM630.378 124.832H635.754V128H626.274V111.152H630.378V124.832ZM652.339 111.152L646.507 122.432V128H642.403V122.432L636.571 111.152H641.227L644.491 118.208L647.731 111.152H652.339Z" fill="#000E41"/>
<path d="M165.435 358H59.5654C56.4928 358 54 355.507 54 352.435V246.565C54 243.493 56.4928 241 59.5654 241H165.435C168.507 241 171 243.493 171 246.565V352.435C171 355.507 168.507 358 165.435 358ZM59.5654 244.71C58.545 244.71 57.7102 245.545 57.7102 246.565V352.435C57.7102 353.455 58.545 354.29 59.5654 354.29H165.435C166.455 354.29 167.29 353.455 167.29 352.435V246.565C167.29 245.545 166.455 244.71 165.435 244.71H59.5654Z" fill="#000E41"/>
<rect x="77" y="294" width="71" height="33" fill="#29B57D"/>
<rect x="93" y="266" width="38" height="10" rx="5" fill="#29B57D"/>
<ellipse cx="113.5" cy="297" rx="12.5" ry="12" fill="#29B57D"/>
<rect x="92" y="265" width="41" height="12" rx="6" stroke="#000E41" stroke-width="4"/>
<line x1="77" y1="287" x2="77" y2="335" stroke="#000E41" stroke-width="4" stroke-linecap="round"/>
<line x1="76" y1="327" x2="148" y2="327" stroke="#000E41" stroke-width="4"/>
<line x1="76" y1="294" x2="148" y2="294" stroke="#000E41" stroke-width="4"/>
<line x1="148" y1="287" x2="148" y2="335" stroke="#000E41" stroke-width="4" stroke-linecap="round"/>
<line x1="113" y1="278" x2="113" y2="286" stroke="#000E41" stroke-width="4"/>
<path fill-rule="evenodd" clip-rule="evenodd" d="M121.001 292C119.176 289.571 116.272 288 113 288C109.728 288 106.824 289.571 104.999 292H100.347C102.594 287.27 107.415 284 113 284C118.585 284 123.406 287.27 125.653 292H121.001Z" fill="#000E41"/>
<path d="M1142.43 277H1036.57C1033.49 277 1031 274.507 1031 271.435V165.565C1031 162.493 1033.49 160 1036.57 160H1142.43C1145.51 160 1148 162.493 1148 165.565V271.435C1148 274.507 1145.51 277 1142.43 277ZM1036.57 163.71C1035.55 163.71 1034.71 164.545 1034.71 165.565V271.435C1034.71 272.455 1035.55 273.29 1036.57 273.29H1142.43C1143.45 273.29 1144.29 272.455 1144.29 271.435V165.565C1144.29 164.545 1143.45 163.71 1142.43 163.71H1036.57Z" fill="#000E41"/>
<path d="M1079.16 212.454H1052.6C1050.55 212.454 1048.89 210.796 1048.89 208.744V182.181C1048.89 180.129 1050.55 178.471 1052.6 178.471H1079.16C1081.22 178.471 1082.87 180.129 1082.87 182.181V208.744C1082.87 210.796 1081.22 212.454 1079.16 212.454Z" fill="#29B57D"/>
<path d="M1079.16 214.309H1052.6C1049.53 214.309 1047.04 211.816 1047.04 208.744V182.181C1047.04 179.108 1049.53 176.615 1052.6 176.615H1079.16C1082.24 176.615 1084.73 179.108 1084.73 182.181V208.744C1084.73 211.816 1082.24 214.309 1079.16 214.309ZM1052.6 180.325C1051.58 180.325 1050.75 181.16 1050.75 182.181V208.744C1050.75 209.764 1051.58 210.599 1052.6 210.599H1079.16C1080.18 210.599 1081.02 209.764 1081.02 208.744V182.181C1081.02 181.16 1080.18 180.325 1079.16 180.325H1052.6Z" fill="#000E41"/>
<path d="M1124.17 212.454H1097.61C1095.56 212.454 1093.9 210.796 1093.9 208.744V182.181C1093.9 180.129 1095.56 178.471 1097.61 178.471H1124.17C1126.23 178.471 1127.88 180.129 1127.88 182.181V208.744C1127.88 210.796 1126.21 212.454 1124.17 212.454Z" fill="#ED475C"/>
<path d="M1124.17 214.309H1097.61C1094.54 214.309 1092.04 211.816 1092.04 208.744V182.181C1092.04 179.108 1094.54 176.615 1097.61 176.615H1124.17C1127.25 176.615 1129.74 179.108 1129.74 182.181V208.744C1129.74 211.816 1127.23 214.309 1124.17 214.309ZM1097.61 180.325C1096.59 180.325 1095.76 181.16 1095.76 182.181V208.744C1095.76 209.764 1096.59 210.599 1097.61 210.599H1124.17C1125.19 210.599 1126.03 209.764 1126.03 208.744V182.181C1126.03 181.16 1125.19 180.325 1124.17 180.325H1097.61Z" fill="#000E41"/>
<path d="M1079.16 258.53H1052.6C1050.55 258.53 1048.89 256.872 1048.89 254.82V228.245C1048.89 226.193 1050.55 224.535 1052.6 224.535H1079.16C1081.22 224.535 1082.87 226.193 1082.87 228.245V254.808C1082.87 256.861 1081.22 258.53 1079.16 258.53Z" fill="#29B57D"/>
<path d="M1079.16 260.385H1052.6C1049.53 260.385 1047.04 257.892 1047.04 254.82V228.245C1047.04 225.173 1049.53 222.68 1052.6 222.68H1079.16C1082.24 222.68 1084.73 225.173 1084.73 228.245V254.808C1084.73 257.881 1082.24 260.385 1079.16 260.385ZM1052.6 226.39C1051.58 226.39 1050.75 227.225 1050.75 228.245V254.808C1050.75 255.828 1051.58 256.663 1052.6 256.663H1079.16C1080.18 256.663 1081.02 255.828 1081.02 254.808V228.245C1081.02 227.225 1080.18 226.39 1079.16 226.39H1052.6Z" fill="#000E41"/>
<path d="M1124.17 258.53H1097.61C1095.56 258.53 1093.9 256.872 1093.9 254.82V228.245C1093.9 226.193 1095.56 224.535 1097.61 224.535H1124.17C1126.23 224.535 1127.88 226.193 1127.88 228.245V254.808C1127.88 256.861 1126.21 258.53 1124.17 258.53Z" fill="#29B57D"/>
<path d="M1124.17 260.385H1097.61C1094.54 260.385 1092.04 257.892 1092.04 254.82V228.245C1092.04 225.173 1094.54 222.68 1097.61 222.68H1124.17C1127.25 222.68 1129.74 225.173 1129.74 228.245V254.808C1129.74 257.881 1127.23 260.385 1124.17 260.385ZM1097.61 226.39C1096.59 226.39 1095.76 227.225 1095.76 228.245V254.808C1095.76 255.828 1096.59 256.663 1097.61 256.663H1124.17C1125.19 256.663 1126.03 255.828 1126.03 254.808V228.245C1126.03 227.225 1125.19 226.39 1124.17 226.39H1097.61Z" fill="#000E41"/>
<path d="M1142.43 440H1036.57C1033.49 440 1031 437.507 1031 434.435V328.565C1031 325.493 1033.49 323 1036.57 323H1142.43C1145.51 323 1148 325.493 1148 328.565V434.435C1148 437.507 1145.51 440 1142.43 440ZM1036.57 326.71C1035.55 326.71 1034.71 327.545 1034.71 328.565V434.435C1034.71 435.455 1035.55 436.29 1036.57 436.29H1142.43C1143.45 436.29 1144.29 435.455 1144.29 434.435V328.565C1144.29 327.545 1143.45 326.71 1142.43 326.71H1036.57Z" fill="#000E41"/>
<path d="M1079.16 375.454H1052.6C1050.55 375.454 1048.89 373.796 1048.89 371.744V345.181C1048.89 343.129 1050.55 341.471 1052.6 341.471H1079.16C1081.22 341.471 1082.87 343.129 1082.87 345.181V371.744C1082.87 373.796 1081.22 375.454 1079.16 375.454Z" fill="#29B57D"/>
<path d="M1079.16 377.309H1052.6C1049.53 377.309 1047.04 374.816 1047.04 371.744V345.181C1047.04 342.108 1049.53 339.615 1052.6 339.615H1079.16C1082.24 339.615 1084.73 342.108 1084.73 345.181V371.744C1084.73 374.816 1082.24 377.309 1079.16 377.309ZM1052.6 343.325C1051.58 343.325 1050.75 344.16 1050.75 345.181V371.744C1050.75 372.764 1051.58 373.599 1052.6 373.599H1079.16C1080.18 373.599 1081.02 372.764 1081.02 371.744V345.181C1081.02 344.16 1080.18 343.325 1079.16 343.325H1052.6Z" fill="#000E41"/>
<path d="M1124.17 375.454H1097.61C1095.56 375.454 1093.9 373.796 1093.9 371.744V345.181C1093.9 343.129 1095.56 341.471 1097.61 341.471H1124.17C1126.23 341.471 1127.88 343.129 1127.88 345.181V371.744C1127.88 373.796 1126.21 375.454 1124.17 375.454Z" fill="#29B57D"/>
<path d="M1124.17 377.309H1097.61C1094.54 377.309 1092.04 374.816 1092.04 371.744V345.181C1092.04 342.108 1094.54 339.615 1097.61 339.615H1124.17C1127.25 339.615 1129.74 342.108 1129.74 345.181V371.744C1129.74 374.816 1127.23 377.309 1124.17 377.309ZM1097.61 343.325C1096.59 343.325 1095.76 344.16 1095.76 345.181V371.744C1095.76 372.764 1096.59 373.599 1097.61 373.599H1124.17C1125.19 373.599 1126.03 372.764 1126.03 371.744V345.181C1126.03 344.16 1125.19 343.325 1124.17 343.325H1097.61Z" fill="#000E41"/>
<path d="M1079.16 421.53H1052.6C1050.55 421.53 1048.89 419.872 1048.89 417.82V391.245C1048.89 389.193 1050.55 387.535 1052.6 387.535H1079.16C1081.22 387.535 1082.87 389.193 1082.87 391.245V417.808C1082.87 419.861 1081.22 421.53 1079.16 421.53Z" fill="#29B57D"/>
<path d="M1079.16 423.385H1052.6C1049.53 423.385 1047.04 420.892 1047.04 417.82V391.245C1047.04 388.173 1049.53 385.68 1052.6 385.68H1079.16C1082.24 385.68 1084.73 388.173 1084.73 391.245V417.808C1084.73 420.881 1082.24 423.385 1079.16 423.385ZM1052.6 389.39C1051.58 389.39 1050.75 390.225 1050.75 391.245V417.808C1050.75 418.828 1051.58 419.663 1052.6 419.663H1079.16C1080.18 419.663 1081.02 418.828 1081.02 417.808V391.245C1081.02 390.225 1080.18 389.39 1079.16 389.39H1052.6Z" fill="#000E41"/>
<path d="M1124.17 421.53H1097.61C1095.56 421.53 1093.9 419.872 1093.9 417.82V391.245C1093.9 389.193 1095.56 387.535 1097.61 387.535H1124.17C1126.23 387.535 1127.88 389.193 1127.88 391.245V417.808C1127.88 419.861 1126.21 421.53 1124.17 421.53Z" fill="#29B57D"/>
<path d="M1124.17 423.385H1097.61C1094.54 423.385 1092.04 420.892 1092.04 417.82V391.245C1092.04 388.173 1094.54 385.68 1097.61 385.68H1124.17C1127.25 385.68 1129.74 388.173 1129.74 391.245V417.808C1129.74 420.881 1127.23 423.385 1124.17 423.385ZM1097.61 389.39C1096.59 389.39 1095.76 390.225 1095.76 391.245V417.808C1095.76 418.828 1096.59 419.663 1097.61 419.663H1124.17C1125.19 419.663 1126.03 418.828 1126.03 417.808V391.245C1126.03 390.225 1125.19 389.39 1124.17 389.39H1097.61Z" fill="#000E41"/>
<path d="M314 273V261H326" stroke="#000E41" stroke-width="4" stroke-linecap="round" stroke-linejoin="round"/>
<path d="M380 261L392 261L392 273" stroke="#000E41" stroke-width="4" stroke-linecap="round" stroke-linejoin="round"/>
<path d="M392 327L392 339L380 339" stroke="#000E41" stroke-width="4" stroke-linecap="round" stroke-linejoin="round"/>
<path d="M326 339L314 339L314 327" stroke="#000E41" stroke-width="4" stroke-linecap="round" stroke-linejoin="round"/>
<path d="M339.394 344H337.322V334.228H341.102C341.578 334.228 342.003 334.303 342.376 334.452C342.75 334.592 343.062 334.797 343.314 335.068C343.576 335.339 343.772 335.665 343.902 336.048C344.033 336.431 344.098 336.86 344.098 337.336C344.098 338.027 343.949 338.619 343.65 339.114C343.352 339.609 342.927 339.935 342.376 340.094L344.294 344H341.998L340.36 340.374H339.394V344ZM340.598 338.75C341.093 338.75 341.434 338.657 341.62 338.47C341.816 338.283 341.914 337.975 341.914 337.546V337.126C341.914 336.697 341.816 336.389 341.62 336.202C341.434 336.015 341.093 335.922 340.598 335.922H339.394V338.75H340.598ZM345.923 344V334.228H352.167V335.95H348.023V338.19H352.027V339.912H348.023V342.278H352.167V344H345.923ZM357.771 344.168C356.465 344.168 355.494 343.729 354.859 342.852C354.234 341.965 353.921 340.719 353.921 339.114C353.921 337.509 354.234 336.267 354.859 335.39C355.494 334.503 356.465 334.06 357.771 334.06C358.275 334.06 358.719 334.13 359.101 334.27C359.493 334.401 359.829 334.587 360.109 334.83C360.389 335.073 360.618 335.367 360.795 335.712C360.982 336.057 361.127 336.445 361.229 336.874L359.269 337.35C359.213 337.117 359.148 336.902 359.073 336.706C358.999 336.51 358.901 336.342 358.779 336.202C358.667 336.062 358.523 335.955 358.345 335.88C358.177 335.796 357.972 335.754 357.729 335.754C357.16 335.754 356.754 335.978 356.511 336.426C356.278 336.865 356.161 337.476 356.161 338.26V339.968C356.161 340.752 356.278 341.368 356.511 341.816C356.754 342.255 357.16 342.474 357.729 342.474C358.215 342.474 358.565 342.325 358.779 342.026C359.003 341.727 359.167 341.345 359.269 340.878L361.229 341.354C361.127 341.783 360.982 342.171 360.795 342.516C360.618 342.861 360.389 343.16 360.109 343.412C359.829 343.655 359.493 343.841 359.101 343.972C358.719 344.103 358.275 344.168 357.771 344.168Z" fill="#000E41"/>
<path d="M406.435 358H300.565C297.493 358 295 355.507 295 352.435V246.565C295 243.493 297.493 241 300.565 241H406.435C409.507 241 412 243.493 412 246.565V352.435C412 355.507 409.507 358 406.435 358ZM300.565 244.71C299.545 244.71 298.71 245.545 298.71 246.565V352.435C298.71 353.455 299.545 354.29 300.565 354.29H406.435C407.455 354.29 408.29 353.455 408.29 352.435V246.565C408.29 245.545 407.455 244.71 406.435 244.71H300.565Z" fill="#000E41"/>
<rect x="325.392" y="292.716" width="56.6081" height="26.3108" fill="#29B57D"/>
<rect x="338.149" y="270.392" width="30.2973" height="7.97297" rx="3.98649" fill="#29B57D"/>
<ellipse cx="354.493" cy="295.108" rx="9.96622" ry="9.56757" fill="#29B57D"/>
<rect x="338" y="270" width="32" height="9" rx="4.5" stroke="#000E41" stroke-width="4"/>
<line x1="326" y1="288" x2="326" y2="325" stroke="#000E41" stroke-width="4" stroke-linecap="round"/>
<line x1="325" y1="319" x2="382" y2="319" stroke="#000E41" stroke-width="4"/>
<line x1="325" y1="292" x2="382" y2="292" stroke="#000E41" stroke-width="4"/>
<line x1="382" y1="288" x2="382" y2="325" stroke="#000E41" stroke-width="4" stroke-linecap="round"/>
<line x1="354" y1="280" x2="354" y2="286" stroke="#000E41" stroke-width="4"/>
<path fill-rule="evenodd" clip-rule="evenodd" d="M359.425 291.122C358.114 289.662 356.211 288.743 354.095 288.743C351.978 288.743 350.075 289.662 348.764 291.122H344.007C345.798 287.35 349.642 284.743 354.095 284.743C358.547 284.743 362.391 287.35 364.183 291.122H359.425Z" fill="#000E41"/>
<path d="M369 342.969C371.192 342.969 372.969 341.192 372.969 339C372.969 336.808 371.192 335.031 369 335.031C366.808 335.031 365.031 336.808 365.031 339C365.031 341.192 366.808 342.969 369 342.969Z" fill="#ED475C"/>
<path d="M369 344C366.243 344 364 341.757 364 339C364 336.243 366.243 334 369 334C371.757 334 374 336.243 374 339C374 341.757 371.757 344 369 344ZM369 336.061C367.38 336.061 366.062 337.38 366.062 338.999C366.062 340.619 367.38 341.938 369 341.938C370.62 341.938 371.938 340.619 371.938 338.999C371.938 337.38 370.62 336.061 369 336.061Z" fill="#000E41"/>
<path d="M416.013 298.037C415.185 298.03 414.507 298.695 414.5 299.523C414.492 300.352 415.158 301.03 415.986 301.037L416.013 298.037ZM464.051 301.035C464.642 300.454 464.651 299.504 464.07 298.913L454.612 289.281C454.031 288.69 453.081 288.681 452.49 289.262C451.899 289.842 451.891 290.792 452.471 291.383L460.879 299.945L452.317 308.353C451.726 308.933 451.717 309.883 452.298 310.474C452.878 311.065 453.828 311.074 454.419 310.493L464.051 301.035ZM415.986 301.037L462.986 301.464L463.014 298.464L416.013 298.037L415.986 301.037Z" fill="#29B57D"/>
<path d="M175 298C174.172 298 173.5 298.672 173.5 299.5C173.5 300.328 174.172 301 175 301V298ZM292.061 300.561C292.646 299.975 292.646 299.025 292.061 298.439L282.515 288.893C281.929 288.308 280.979 288.308 280.393 288.893C279.808 289.479 279.808 290.429 280.393 291.015L288.879 299.5L280.393 307.985C279.808 308.571 279.808 309.521 280.393 310.107C280.979 310.692 281.929 310.692 282.515 310.107L292.061 300.561ZM175 301H291V298H175V301Z" fill="#29B57D"/>
<rect x="210" y="277" width="46" height="46" rx="8" fill="#000E41"/>
<path d="M224.188 302.408L229.534 299.582V299.438L224.188 296.612V294.128L231.928 298.268V300.752L224.188 304.892V302.408ZM234.629 308.456V306.278H243.269V308.456H234.629Z" fill="white"/>
<path d="M808 355V343H820" stroke="#000E41" stroke-width="4" stroke-linecap="round" stroke-linejoin="round"/>
<path d="M874 343L886 343L886 355" stroke="#000E41" stroke-width="4" stroke-linecap="round" stroke-linejoin="round"/>
<path d="M886 409L886 421L874 421" stroke="#000E41" stroke-width="4" stroke-linecap="round" stroke-linejoin="round"/>
<path d="M820 421L808 421L808 409" stroke="#000E41" stroke-width="4" stroke-linecap="round" stroke-linejoin="round"/>
<path d="M833.394 426H831.322V416.228H835.102C835.578 416.228 836.003 416.303 836.376 416.452C836.75 416.592 837.062 416.797 837.314 417.068C837.576 417.339 837.772 417.665 837.902 418.048C838.033 418.431 838.098 418.86 838.098 419.336C838.098 420.027 837.949 420.619 837.65 421.114C837.352 421.609 836.927 421.935 836.376 422.094L838.294 426H835.998L834.36 422.374H833.394V426ZM834.598 420.75C835.093 420.75 835.434 420.657 835.62 420.47C835.816 420.283 835.914 419.975 835.914 419.546V419.126C835.914 418.697 835.816 418.389 835.62 418.202C835.434 418.015 835.093 417.922 834.598 417.922H833.394V420.75H834.598ZM839.923 426V416.228H846.167V417.95H842.023V420.19H846.027V421.912H842.023V424.278H846.167V426H839.923ZM851.771 426.168C850.465 426.168 849.494 425.729 848.859 424.852C848.234 423.965 847.921 422.719 847.921 421.114C847.921 419.509 848.234 418.267 848.859 417.39C849.494 416.503 850.465 416.06 851.771 416.06C852.275 416.06 852.719 416.13 853.101 416.27C853.493 416.401 853.829 416.587 854.109 416.83C854.389 417.073 854.618 417.367 854.795 417.712C854.982 418.057 855.127 418.445 855.229 418.874L853.269 419.35C853.213 419.117 853.148 418.902 853.073 418.706C852.999 418.51 852.901 418.342 852.779 418.202C852.667 418.062 852.523 417.955 852.345 417.88C852.177 417.796 851.972 417.754 851.729 417.754C851.16 417.754 850.754 417.978 850.511 418.426C850.278 418.865 850.161 419.476 850.161 420.26V421.968C850.161 422.752 850.278 423.368 850.511 423.816C850.754 424.255 851.16 424.474 851.729 424.474C852.215 424.474 852.565 424.325 852.779 424.026C853.003 423.727 853.167 423.345 853.269 422.878L855.229 423.354C855.127 423.783 854.982 424.171 854.795 424.516C854.618 424.861 854.389 425.16 854.109 425.412C853.829 425.655 853.493 425.841 853.101 425.972C852.719 426.103 852.275 426.168 851.771 426.168Z" fill="#000E41"/>
<path d="M900.435 440H794.565C791.493 440 789 437.507 789 434.435V328.565C789 325.493 791.493 323 794.565 323H900.435C903.507 323 906 325.493 906 328.565V434.435C906 437.507 903.507 440 900.435 440ZM794.565 326.71C793.545 326.71 792.71 327.545 792.71 328.565V434.435C792.71 435.455 793.545 436.29 794.565 436.29H900.435C901.455 436.29 902.29 435.455 902.29 434.435V328.565C902.29 327.545 901.455 326.71 900.435 326.71H794.565Z" fill="#000E41"/>
<path d="M863 424.969C865.192 424.969 866.969 423.192 866.969 421C866.969 418.808 865.192 417.031 863 417.031C860.808 417.031 859.031 418.808 859.031 421C859.031 423.192 860.808 424.969 863 424.969Z" fill="#ED475C"/>
<path d="M863 426C860.243 426 858 423.757 858 421C858 418.243 860.243 416 863 416C865.757 416 868 418.243 868 421C868 423.757 865.757 426 863 426ZM863 418.061C861.38 418.061 860.062 419.38 860.062 420.999C860.062 422.619 861.38 423.938 863 423.938C864.62 423.938 865.938 422.619 865.938 420.999C865.938 419.38 864.62 418.061 863 418.061Z" fill="#000E41"/>
<mask id="path-98-inside-1_623_4020" fill="white">
<rect x="832" y="366" width="14" height="14" rx="2"/>
</mask>
<rect x="832" y="366" width="14" height="14" rx="2" fill="#29B57D" stroke="#000E41" stroke-width="8" stroke-linejoin="round" mask="url(#path-98-inside-1_623_4020)"/>
<mask id="path-99-inside-2_623_4020" fill="white">
<rect x="832" y="384" width="14" height="14" rx="2"/>
</mask>
<rect x="832" y="384" width="14" height="14" rx="2" fill="#29B57D" stroke="#000E41" stroke-width="8" stroke-linejoin="round" mask="url(#path-99-inside-2_623_4020)"/>
<mask id="path-100-inside-3_623_4020" fill="white">
<rect x="850" y="366" width="14" height="14" rx="2"/>
</mask>
<rect x="850" y="366" width="14" height="14" rx="2" fill="#29B57D" stroke="#000E41" stroke-width="8" stroke-linejoin="round" mask="url(#path-100-inside-3_623_4020)"/>
<mask id="path-101-inside-4_623_4020" fill="white">
<rect x="850" y="384" width="14" height="14" rx="2"/>
</mask>
<rect x="850" y="384" width="14" height="14" rx="2" fill="#29B57D" stroke="#000E41" stroke-width="8" stroke-linejoin="round" mask="url(#path-101-inside-4_623_4020)"/>
<mask id="path-102-inside-5_623_4020" fill="white">
<rect x="822" y="356" width="51" height="51" rx="2"/>
</mask>
<rect x="822" y="356" width="51" height="51" rx="2" stroke="#000E41" stroke-width="8" stroke-linejoin="round" mask="url(#path-102-inside-5_623_4020)"/>
<path d="M808 192V180H820" stroke="#000E41" stroke-width="4" stroke-linecap="round" stroke-linejoin="round"/>
<path d="M874 180L886 180L886 192" stroke="#000E41" stroke-width="4" stroke-linecap="round" stroke-linejoin="round"/>
<path d="M886 246L886 258L874 258" stroke="#000E41" stroke-width="4" stroke-linecap="round" stroke-linejoin="round"/>
<path d="M820 258L808 258L808 246" stroke="#000E41" stroke-width="4" stroke-linecap="round" stroke-linejoin="round"/>
<path d="M833.394 263H831.322V253.228H835.102C835.578 253.228 836.003 253.303 836.376 253.452C836.75 253.592 837.062 253.797 837.314 254.068C837.576 254.339 837.772 254.665 837.902 255.048C838.033 255.431 838.098 255.86 838.098 256.336C838.098 257.027 837.949 257.619 837.65 258.114C837.352 258.609 836.927 258.935 836.376 259.094L838.294 263H835.998L834.36 259.374H833.394V263ZM834.598 257.75C835.093 257.75 835.434 257.657 835.62 257.47C835.816 257.283 835.914 256.975 835.914 256.546V256.126C835.914 255.697 835.816 255.389 835.62 255.202C835.434 255.015 835.093 254.922 834.598 254.922H833.394V257.75H834.598ZM839.923 263V253.228H846.167V254.95H842.023V257.19H846.027V258.912H842.023V261.278H846.167V263H839.923ZM851.771 263.168C850.465 263.168 849.494 262.729 848.859 261.852C848.234 260.965 847.921 259.719 847.921 258.114C847.921 256.509 848.234 255.267 848.859 254.39C849.494 253.503 850.465 253.06 851.771 253.06C852.275 253.06 852.719 253.13 853.101 253.27C853.493 253.401 853.829 253.587 854.109 253.83C854.389 254.073 854.618 254.367 854.795 254.712C854.982 255.057 855.127 255.445 855.229 255.874L853.269 256.35C853.213 256.117 853.148 255.902 853.073 255.706C852.999 255.51 852.901 255.342 852.779 255.202C852.667 255.062 852.523 254.955 852.345 254.88C852.177 254.796 851.972 254.754 851.729 254.754C851.16 254.754 850.754 254.978 850.511 255.426C850.278 255.865 850.161 256.476 850.161 257.26V258.968C850.161 259.752 850.278 260.368 850.511 260.816C850.754 261.255 851.16 261.474 851.729 261.474C852.215 261.474 852.565 261.325 852.779 261.026C853.003 260.727 853.167 260.345 853.269 259.878L855.229 260.354C855.127 260.783 854.982 261.171 854.795 261.516C854.618 261.861 854.389 262.16 854.109 262.412C853.829 262.655 853.493 262.841 853.101 262.972C852.719 263.103 852.275 263.168 851.771 263.168Z" fill="#000E41"/>
<path d="M900.435 277H794.565C791.493 277 789 274.507 789 271.435V165.565C789 162.493 791.493 160 794.565 160H900.435C903.507 160 906 162.493 906 165.565V271.435C906 274.507 903.507 277 900.435 277ZM794.565 163.71C793.545 163.71 792.71 164.545 792.71 165.565V271.435C792.71 272.455 793.545 273.29 794.565 273.29H900.435C901.455 273.29 902.29 272.455 902.29 271.435V165.565C902.29 164.545 901.455 163.71 900.435 163.71H794.565Z" fill="#000E41"/>
<path d="M863 261.969C865.192 261.969 866.969 260.192 866.969 258C866.969 255.808 865.192 254.031 863 254.031C860.808 254.031 859.031 255.808 859.031 258C859.031 260.192 860.808 261.969 863 261.969Z" fill="#ED475C"/>
<path d="M863 263C860.243 263 858 260.757 858 258C858 255.243 860.243 253 863 253C865.757 253 868 255.243 868 258C868 260.757 865.757 263 863 263ZM863 255.061C861.38 255.061 860.062 256.38 860.062 257.999C860.062 259.619 861.38 260.938 863 260.938C864.62 260.938 865.938 259.619 865.938 257.999C865.938 256.38 864.62 255.061 863 255.061Z" fill="#000E41"/>
<mask id="path-111-inside-6_623_4020" fill="white">
<rect x="832" y="203" width="14" height="14" rx="2"/>
</mask>
<rect x="832" y="203" width="14" height="14" rx="2" fill="#29B57D" stroke="#000E41" stroke-width="8" stroke-linejoin="round" mask="url(#path-111-inside-6_623_4020)"/>
<mask id="path-112-inside-7_623_4020" fill="white">
<rect x="832" y="221" width="14" height="14" rx="2"/>
</mask>
<rect x="832" y="221" width="14" height="14" rx="2" fill="#29B57D" stroke="#000E41" stroke-width="8" stroke-linejoin="round" mask="url(#path-112-inside-7_623_4020)"/>
<mask id="path-113-inside-8_623_4020" fill="white">
<rect x="850" y="203" width="14" height="14" rx="2"/>
</mask>
<rect x="850" y="203" width="14" height="14" rx="2" fill="#ED475C" stroke="#000E41" stroke-width="8" stroke-linejoin="round" mask="url(#path-113-inside-8_623_4020)"/>
<mask id="path-114-inside-9_623_4020" fill="white">
<rect x="850" y="221" width="14" height="14" rx="2"/>
</mask>
<rect x="850" y="221" width="14" height="14" rx="2" fill="#29B57D" stroke="#000E41" stroke-width="8" stroke-linejoin="round" mask="url(#path-114-inside-9_623_4020)"/>
<mask id="path-115-inside-10_623_4020" fill="white">
<rect x="822" y="193" width="51" height="51" rx="2"/>
</mask>
<rect x="822" y="193" width="51" height="51" rx="2" stroke="#000E41" stroke-width="8" stroke-linejoin="round" mask="url(#path-115-inside-10_623_4020)"/>
<path d="M1027 220C1027.83 220 1028.5 219.328 1028.5 218.5C1028.5 217.672 1027.83 217 1027 217V220ZM908.939 217.439C908.354 218.025 908.354 218.975 908.939 219.561L918.485 229.107C919.071 229.692 920.021 229.692 920.607 229.107C921.192 228.521 921.192 227.571 920.607 226.985L912.121 218.5L920.607 210.015C921.192 209.429 921.192 208.479 920.607 207.893C920.021 207.308 919.071 207.308 918.485 207.893L908.939 217.439ZM1027 217H910V220H1027V217Z" fill="#29B57D"/>
<path d="M1027 383C1027.83 383 1028.5 382.328 1028.5 381.5C1028.5 380.672 1027.83 380 1027 380V383ZM908.939 380.439C908.354 381.025 908.354 381.975 908.939 382.561L918.485 392.107C919.071 392.692 920.021 392.692 920.607 392.107C921.192 391.521 921.192 390.571 920.607 389.985L912.121 381.5L920.607 373.015C921.192 372.429 921.192 371.479 920.607 370.893C920.021 370.308 919.071 370.308 918.485 370.893L908.939 380.439ZM1027 380H910V383H1027V380Z" fill="#29B57D"/>
<rect x="945" y="196" width="46" height="46" rx="8" fill="#000E41"/>
<path d="M959.188 221.408L964.534 218.582V218.438L959.188 215.612V213.128L966.928 217.268V219.752L959.188 223.892V221.408ZM969.629 227.456V225.278H978.269V227.456H969.629Z" fill="white"/>
<path d="M787.232 222.389C787.818 221.803 787.818 220.853 787.232 220.267C786.646 219.682 785.697 219.682 785.111 220.267L787.232 222.389ZM736.5 269.5C736.5 270.328 737.172 271 738 271H751.5C752.328 271 753 270.328 753 269.5C753 268.671 752.328 268 751.5 268H739.5V256C739.5 255.171 738.828 254.5 738 254.5C737.172 254.5 736.5 255.171 736.5 256V269.5ZM785.111 220.267L736.939 268.439L739.061 270.56L787.232 222.389L785.111 220.267Z" fill="#29B57D"/>
<path d="M785.111 379.732C785.697 380.318 786.646 380.318 787.232 379.732C787.818 379.146 787.818 378.197 787.232 377.611L785.111 379.732ZM738 329C737.172 329 736.5 329.672 736.5 330.5V344C736.5 344.828 737.172 345.5 738 345.5C738.828 345.5 739.5 344.828 739.5 344V332H751.5C752.328 332 753 331.328 753 330.5C753 329.672 752.328 329 751.5 329H738ZM787.232 377.611L739.061 329.439L736.939 331.561L785.111 379.732L787.232 377.611Z" fill="#29B57D"/>
<rect x="945" y="359" width="46" height="46" rx="8" fill="#000E41"/>
<path d="M959.188 384.408L964.534 381.582V381.438L959.188 378.612V376.128L966.928 380.268V382.752L959.188 386.892V384.408ZM969.629 390.456V388.278H978.269V390.456H969.629Z" fill="white"/>
<defs>
<clipPath id="clip0_623_4020">
<rect width="95" height="49" fill="white" transform="translate(497 208)"/>
</clipPath>
<clipPath id="clip1_623_4020">
<rect width="205" height="119" fill="white" transform="translate(495 293)"/>
</clipPath>
</defs>
</svg>
