<?xml version="1.0" encoding="utf-8"?>
<!-- Generator: Adobe Illustrator 26.2.0, SVG Export Plug-In . SVG Version: 6.00 Build 0)  -->
<svg version="1.1" id="Layer_1" xmlns="http://www.w3.org/2000/svg" xmlns:xlink="http://www.w3.org/1999/xlink" x="0px" y="0px"
	 viewBox="0 0 624.8 700" style="enable-background:new 0 0 624.8 700;" xml:space="preserve">
<style type="text/css">
	.st0{fill:#FFFFFF;}
</style>
<path class="st0" d="M510,0c-60.7,0-110,49.3-110,110c0,49.3,33.2,92.6,80,105.8V270c0,27.6-22.4,50-50,50H190
	c-27.6,0-50-22.4-50-50v-54.2c46.8-13.3,80-56.5,80-105.8C220,49.3,170.7,0,110,0S0,49.3,0,110c0,49.3,33.2,92.6,80,105.8V270
	c0,60.7,49.3,110,110,110h90v104.2c-46.8,13.3-80,56.5-80,105.8c0,60.7,49.3,110,110,110s110-49.3,110-110
	c0-49.3-33.2-92.6-80-105.8V380h90c60.7,0,110-49.3,110-110v-54.2c46.8-13.3,80-56.5,80-105.8C620,49.3,570.7,0,510,0z M510,60
	c27.6,0,50,22.4,50,50s-22.4,50-50,50s-50-22.4-50-50S482.4,60,510,60z M310,640c-27.6,0-50-22.4-50-50c0-27.6,22.4-50,50-50
	s50,22.4,50,50C360,617.5,337.6,640,310,640z M110,60c27.6,0,50,22.4,50,50s-22.4,50-50,50c-27.6,0-50-22.4-50-50S82.4,60,110,60z"
	/>
</svg>
