<?xml version="1.0" encoding="utf-8"?>
<!-- Generator: Adobe Illustrator 27.9.0, SVG Export Plug-In . SVG Version: 6.00 Build 0)  -->
<svg version="1.1" id="Layer_1" xmlns="http://www.w3.org/2000/svg" xmlns:xlink="http://www.w3.org/1999/xlink" x="0px" y="0px"
	 viewBox="0 0 966.4 164.9" style="enable-background:new 0 0 966.4 164.9;" xml:space="preserve">
<style type="text/css">
	.st0{fill:#FFFFFF;}
	.st1{fill:#000D40;}
	.st2{fill:#2459D1;}
	.st3{fill:#29B57D;}
	.st4{fill:#F7C22E;}
	.st5{fill:#ED475C;}
</style>
<g>
	<g>
		<path class="st0" d="M651.8,113.3c0.5-0.6,1.5-0.7,2.1-0.1c6.5,7,16.6,13.4,30.1,13.4c20.5,0,26.4-11.4,26.4-19.9
			c0-14.1-13.3-18-27.4-21.7c-15.7-4.3-32.5-8.8-32.5-27.3c0-16.3,14.7-26.7,32.8-26.7c14.4,0,25.2,4.9,33,13.1
			c0.5,0.5,0.5,1.4,0,1.9l-3.8,4.1c-0.6,0.6-1.5,0.6-2.1,0c-7.1-7.9-16.9-11.4-27.6-11.4c-13.3,0-23.4,7.6-23.4,18.4
			c0,11.8,12.4,15.3,26.1,18.9c16.2,4.6,33.9,9.7,33.9,30c0,12.9-8.5,28.3-35.5,28.3c-15.9,0-28.1-6.2-35.8-15
			c-0.5-0.5-0.4-1.3,0-1.8L651.8,113.3z"/>
	</g>
	<path class="st0" d="M732.2,131.2V34.1c0-0.8,0.6-1.4,1.4-1.4h30.5c31,0,50.5,22.6,50.5,50c0,27.7-19.5,49.9-50.5,49.9h-30.5
		C732.9,132.6,732.2,132,732.2,131.2z M740.8,123.4c0,0.8,0.6,1.4,1.4,1.4h21.9c26.4,0,41.5-18.7,41.5-42.1s-15-42.2-41.5-42.2
		h-21.9c-0.8,0-1.4,0.6-1.4,1.4V123.4z"/>
	<path class="st1" d="M1318.6,96.5"/>
	<path class="st0" d="M827,131.2V34.1c0-0.8,0.6-1.4,1.4-1.4h5.7c0.8,0,1.4,0.6,1.4,1.4v90.7h47c0.8,0,1.4,0.6,1.4,1.4v5
		c0,0.8-0.6,1.4-1.4,1.4h-54.1C827.7,132.6,827,132,827,131.2z"/>
</g>
<g>
	<g>
		<path class="st2" d="M138.8,38.3c0,7-5.7,12.8-12.8,12.8c-7,0-12.8-5.7-12.8-12.8c0-7,5.7-12.8,12.8-12.8S138.8,31.2,138.8,38.3
			 M164.4,71.1V5.4c0-3-2.5-5.5-5.5-5.5H93.3c-3,0-5.5,2.5-5.5,5.5v65.7c0,3,2.5,5.5,5.5,5.5h65.6C161.9,76.6,164.4,74.1,164.4,71.1
			"/>
		<path class="st3" d="M38.3,0C17.2,0,0,17.1,0,38.3s17.1,38.3,38.3,38.3s38.3-17.1,38.3-38.3S59.5,0,38.3,0"/>
		<path class="st4" d="M71.1,88.2H38.3H5.5c-3,0-5.5,2.5-5.5,5.5v32.9l0,0c0,21.2,17.1,38.3,38.3,38.3s38.3-17.1,38.3-38.3l0,0V93.7
			C76.6,90.6,74.2,88.2,71.1,88.2"/>
		<path class="st5" d="M164.4,126.7L164.4,126.7c0-21.3-17.1-38.4-38.3-38.4s-38.3,17.1-38.3,38.3s17.1,38.3,38.3,38.3h0.1l0,0h32.7
			c3,0,5.5-2.5,5.5-5.5V126.7L164.4,126.7z"/>
	</g>
	<path class="st0" d="M443.7,111.8c0,15.5-13.5,23-28.9,23c-14,0-24.4-5.7-29.8-16.2c-0.3-0.5-0.1-1.1,0.4-1.4l14.2-8
		c0.6-0.3,1.3-0.1,1.5,0.5c2.2,5.2,7,8.2,13.7,8.2c5.9,0,9.9-2,9.9-6.2c0-10.5-37.1-4.7-37.1-30.1c0-14.7,12.5-22.9,27.3-22.9
		c11.3,0,21.1,5,26.8,14.3c0.3,0.5,0.1,1.2-0.4,1.5l-13.9,7.6c-0.5,0.3-1.1,0.1-1.4-0.4c-2.2-4.1-6.1-6.4-11.1-6.4
		c-4.6,0-8.3,2-8.3,5.9C406.5,91.9,443.7,85.3,443.7,111.8z"/>
	<path class="st0" d="M456.4,27.7h16.4c0.6,0,1,0.5,1,1v103c0,0.6-0.5,1-1,1h-16.4c-0.6,0-1-0.5-1-1v-103
		C455.3,28.2,455.8,27.7,456.4,27.7z"/>
	<path class="st0" d="M484.8,40.8c0-6.2,5.2-11.5,11.4-11.5c6.3,0,11.5,5.3,11.5,11.5s-5.2,11.4-11.5,11.4
		C489.9,52.2,484.8,47,484.8,40.8z M488,60.9h16.4c0.6,0,1,0.5,1,1v69.9c0,0.6-0.5,1-1,1H488c-0.6,0-1-0.5-1-1V61.9
		C486.9,61.3,487.4,60.9,488,60.9z"/>
	<path class="st0" d="M275.1,96.5l28.4-34.7c0.6-0.7,0.1-1.7-0.8-1.7h-18.3c-0.6,0-1.3,0.3-1.6,0.8l-24.8,31
		c-0.3,0.4-0.5,0.8-0.5,1.3v6.7c0,0.5,0.2,0.9,0.5,1.3l24.8,31c0.4,0.5,1,0.8,1.6,0.8h18.3c0.9,0,1.4-1,0.8-1.7L275.1,96.5z"/>
	<path class="st0" d="M340.1,58.7c-21.1,0-38.2,17.1-38.2,38.2S319,135,340.1,135s38.2-17.1,38.2-38.2S361.1,58.7,340.1,58.7
		 M340.1,115.6c-10.4,0-18.8-8.4-18.8-18.8S329.7,78,340.1,78s18.8,8.4,18.8,18.8S350.5,115.6,340.1,115.6"/>
	<path class="st0" d="M236.3,31.9h16.4c0.6,0,1,0.5,1,1v98.8c0,0.6-0.5,1-1,1h-16.4c-0.6,0-1-0.5-1-1V32.9
		C235.2,32.4,235.7,31.9,236.3,31.9z"/>
</g>
<path class="st0" d="M595.2,111.8c0,15.5-13.5,23-28.9,23c-14,0-24.4-5.7-29.8-16.2c-0.3-0.5-0.1-1.1,0.4-1.4l14.2-8
	c0.6-0.3,1.3-0.1,1.5,0.5c2.2,5.2,7,8.2,13.7,8.2c5.9,0,9.9-2,9.9-6.2c0-10.5-37.1-4.7-37.1-30.1c0-14.7,12.5-22.9,27.3-22.9
	c11.3,0,21.1,5,26.8,14.3c0.3,0.5,0.1,1.2-0.4,1.5l-13.9,7.6c-0.5,0.3-1.1,0.1-1.4-0.4c-2.2-4.1-6.1-6.4-11.1-6.4
	c-4.6,0-8.3,2-8.3,5.9C558.1,91.9,595.2,85.3,595.2,111.8z"/>
<g>
	<path class="st0" d="M517.3,76.1c2.2-1.5,4.5-3.9,6-6.4c0.5-0.9-0.2-2.1-1.2-2.1l0,0c-4.4,0-8-3.4-8-8.5c0-5.2,4.3-9.5,9.5-9.5
		c5.5,0,10.5,4.3,10.5,11.9c0,8-4.2,15.1-10.8,20.2c-0.5,0.4-1.2,0.4-1.7,0c-1.1-0.9-2.9-2.3-4.2-3.4
		C516.5,77.8,516.6,76.7,517.3,76.1z"/>
</g>
<g>
	<path class="st0" d="M880.1,82.7c0-30.7,22.3-51.7,50.3-51.7c15.5,0,27.2,6.5,35.7,16.4c0.6,0.6,0.4,1.6-0.3,2.1l-4.7,3.1
		c-0.6,0.4-1.4,0.2-1.9-0.3c-6.4-8.1-16.9-13.5-28.7-13.5c-23.2,0-41.3,17.8-41.3,43.9c0,25.8,18.1,43.9,41.3,43.9
		c11.8,0,22.3-5.4,28.7-13.5c0.5-0.6,1.3-0.7,1.9-0.3l4.7,2.9c0.7,0.5,0.9,1.5,0.3,2.1c-8.7,10.2-20.1,16.6-35.6,16.6
		C902.4,134.3,880.1,113.3,880.1,82.7z"/>
</g>
</svg>
