<?xml version="1.0" encoding="utf-8"?>
<!-- Generator: Adobe Illustrator 27.9.0, SVG Export Plug-In . SVG Version: 6.00 Build 0)  -->
<svg version="1.1" id="Layer_1" xmlns="http://www.w3.org/2000/svg" xmlns:xlink="http://www.w3.org/1999/xlink" x="0px" y="0px"
	 viewBox="0 0 2557.7 164.9" style="enable-background:new 0 0 2557.7 164.9;" xml:space="preserve">
<style type="text/css">
	.st0{fill:#FFFFFF;}
	.st1{fill:#2459D1;}
	.st2{fill:#29B57D;}
	.st3{fill:#F7C22E;}
	.st4{fill:#ED475C;}
</style>
<g>
	<path class="st0" d="M651.8,113.3c0.5-0.6,1.5-0.7,2.1-0.1c6.5,7,16.6,13.4,30.1,13.4c20.5,0,26.4-11.4,26.4-19.9
		c0-14.1-13.3-18-27.4-21.7c-15.7-4.3-32.5-8.8-32.5-27.3c0-16.3,14.7-26.7,32.8-26.7c14.4,0,25.2,4.9,33,13.1
		c0.5,0.5,0.5,1.4,0,1.9l-3.8,4.1c-0.6,0.6-1.5,0.6-2.1,0c-7.1-7.9-16.9-11.4-27.6-11.4c-13.3,0-23.4,7.6-23.4,18.4
		c0,11.8,12.4,15.3,26.1,18.9c16.2,4.6,33.9,9.7,33.9,30c0,12.9-8.5,28.3-35.5,28.3c-15.9,0-28.1-6.2-35.8-15
		c-0.5-0.5-0.4-1.3,0-1.8L651.8,113.3z"/>
	<path class="st0" d="M730.3,96.4c0-21.1,13.6-37.9,34.7-37.9c21.4,0,34.9,16.8,34.9,37.9c0,21.1-13.5,38-34.9,38
		C744,134.4,730.3,117.5,730.3,96.4z M791.6,96.4c0-16-9.4-30.9-26.5-30.9c-16.8,0-26.4,14.8-26.4,30.9c0,16.2,9.6,31,26.4,31
		C782.2,127.4,791.6,112.6,791.6,96.4z"/>
</g>
<path class="st0" d="M824.4,67.2v64c0,0.8-0.6,1.4-1.4,1.4h-5c-0.8,0-1.4-0.6-1.4-1.4v-64h-10.6c-0.8,0-1.4-0.6-1.4-1.4v-4.1
	c0-0.8,0.6-1.4,1.4-1.4h10.6v-6.6c0-14.2,7.6-22.5,19.6-22.5c3.1,0,6,0.4,8.5,1.6c0.7,0.3,1,1.1,0.7,1.8l-1.4,3.5
	c-0.3,0.8-1.2,1.1-1.9,0.8c-1.5-0.6-3.2-1-5.2-1c-8.2,0-12.6,5.7-12.6,15.7v6.6h13.3c0.8,0,1.4,0.6,1.4,1.4v4.1
	c0,0.8-0.6,1.4-1.4,1.4H824.4z"/>
<path class="st0" d="M858.3,118.7V67.2h-10.6c-0.8,0-1.4-0.6-1.4-1.4v-4.1c0-0.8,0.6-1.4,1.4-1.4h10.6V41.9c0-0.8,0.6-1.4,1.4-1.4
	h5.1c0.8,0,1.4,0.6,1.4,1.4v18.4h13.3c0.8,0,1.4,0.6,1.4,1.4v4.1c0,0.8-0.6,1.4-1.4,1.4h-13.3v50.3c0,5.8,2.4,9.9,7.5,9.9
	c2.7,0,5.1-1,6.8-2.3c0.7-0.5,1.7-0.3,2.1,0.5l1.7,3.4c0.3,0.6,0.1,1.3-0.4,1.7c-2.7,2.3-6,3.7-11.4,3.7
	C862.9,134.4,858.3,128.6,858.3,118.7z"/>
<path class="st0" d="M959.6,131.6l-19.9-60.9l-20,60.9c-0.2,0.6-0.7,1-1.3,1h-5.4c-0.6,0-1.2-0.4-1.3-1L889,62.1
	c-0.3-0.9,0.4-1.9,1.3-1.9h5.4c0.6,0,1.2,0.4,1.4,1l18.9,60.4l20-60.4c0.2-0.6,0.7-1,1.3-1h4.7c0.6,0,1.2,0.4,1.3,1l20,60.4
	l18.9-60.4c0.2-0.6,0.7-1,1.4-1h5.4c1,0,1.6,0.9,1.3,1.9l-22.6,69.5c-0.2,0.6-0.7,1-1.3,1H961C960.4,132.6,959.8,132.2,959.6,131.6z
	"/>
<path class="st0" d="M1045.6,131.2v-7.1c-6.4,7-14.5,10.3-24.6,10.3c-12.4,0-25.3-8.5-25.3-24.1c0-15.7,12.7-24,25.3-24
	c10,0,18.3,3.3,24.6,10.3l0-23.1c-9.9-12.4-30.6-9.8-41,1.2c-0.6,0.6-1.6,0.6-2.1-0.1l-1.9-2.4c-0.9-1.1-0.8-2.3-0.1-3.1
	c7.2-7.2,15.3-10.8,26.5-10.8c14.7,0,26.4,7,26.4,23.2v49.5c0,0.8-0.6,1.4-1.4,1.4h-5C1046.3,132.6,1045.6,132,1045.6,131.2z
	 M1045.6,103c0-0.3-0.1-0.6-0.3-0.9c-5.1-6.3-13-9.6-21.6-9.6c-12,0-19.8,7.6-19.8,18c0,10.2,7.8,17.8,19.8,17.8
	c8.5,0,16.4-3.2,21.6-9.5c0.2-0.3,0.3-0.6,0.3-0.9V103z"/>
<path class="st0" d="M1065.7,131.2V61.7c0-0.8,0.6-1.4,1.4-1.4h5c0.8,0,1.4,0.6,1.4,1.4v11c5.8-7.7,13.5-13.3,22.9-13.9
	c0.8,0,1.5,0.6,1.5,1.4l0,5.4c0,0.8-0.7,1.5-1.6,1.4c-0.7-0.1-1.5-0.1-2.3-0.1c-7.2,0-16.9,6.4-20.3,12.6c-0.1,0.2-0.2,0.5-0.2,0.7
	v50.9c0,0.8-0.6,1.4-1.4,1.4h-5C1066.3,132.6,1065.7,132,1065.7,131.2z"/>
<path class="st0" d="M1134.9,58.5c22,0,34.2,17.5,34.2,38.3v0.7c0,0.8-0.6,1.4-1.4,1.4h-57.6c-0.8,0-1.5,0.7-1.4,1.6
	c1.4,15,11.7,27.2,28.2,27.2c8.6,0,16.6-3.1,22.6-8.9c0.6-0.6,1.6-0.5,2.1,0.2l2.3,2.8c0.4,0.6,0.4,1.4-0.1,1.9
	c-7.1,6.9-15.9,10.8-27.4,10.8c-21.1,0-36.2-15.7-36.2-38C1100,75.4,1114.8,58.5,1134.9,58.5z M1110.1,92.8l49.6,0
	c0.8,0,1.5-0.7,1.4-1.5c-0.8-12-8.9-26-26.3-26c-16.4,0-24.9,13.8-26.1,26C1108.6,92,1109.2,92.8,1110.1,92.8z"/>
<path class="st0" d="M1228.2,131.2V34.1c0-0.8,0.6-1.4,1.4-1.4h30.5c31,0,50.5,22.6,50.5,50c0,27.7-19.5,49.9-50.5,49.9h-30.5
	C1228.9,132.6,1228.2,132,1228.2,131.2z M1236.8,123.4c0,0.8,0.6,1.4,1.4,1.4h21.9c26.4,0,41.5-18.7,41.5-42.1s-15-42.2-41.5-42.2
	h-21.9c-0.8,0-1.4,0.6-1.4,1.4V123.4z"/>
<path class="st0" d="M1353.3,58.5c22,0,34.2,17.5,34.2,38.3v0.7c0,0.8-0.6,1.4-1.4,1.4h-57.6c-0.8,0-1.5,0.7-1.4,1.6
	c1.3,15,11.7,27.2,28.2,27.2c8.6,0,16.6-3.1,22.6-8.9c0.6-0.6,1.6-0.5,2.1,0.2l2.3,2.8c0.4,0.6,0.4,1.4-0.1,1.9
	c-7.1,6.9-15.9,10.8-27.4,10.8c-21.1,0-36.2-15.7-36.2-38C1318.4,75.4,1333.2,58.5,1353.3,58.5z M1328.5,92.8l49.6,0
	c0.8,0,1.5-0.7,1.4-1.5c-0.8-12-8.9-26-26.3-26c-16.4,0-24.9,13.8-26.1,26C1327,92,1327.6,92.8,1328.5,92.8z"/>
<path class="st0" d="M1417.6,131.8l-29.4-69.5c-0.4-0.9,0.3-2,1.3-2h5.6c0.6,0,1.1,0.3,1.3,0.9l26,62.3l25.7-62.3
	c0.2-0.5,0.7-0.9,1.3-0.9h5.8c1,0,1.7,1,1.3,2l-29.4,69.5c-0.2,0.5-0.7,0.9-1.3,0.9h-7C1418.4,132.6,1417.9,132.3,1417.6,131.8z"/>
<path class="st0" d="M1492.3,58.5c22,0,34.2,17.5,34.2,38.3v0.7c0,0.8-0.6,1.4-1.4,1.4h-57.6c-0.8,0-1.5,0.7-1.4,1.6
	c1.4,15,11.7,27.2,28.2,27.2c8.6,0,16.6-3.1,22.6-8.9c0.6-0.6,1.6-0.5,2.1,0.2l2.3,2.8c0.4,0.6,0.4,1.4-0.1,1.9
	c-7.1,6.9-15.9,10.8-27.4,10.8c-21.1,0-36.2-15.7-36.2-38C1457.4,75.4,1472.2,58.5,1492.3,58.5z M1467.5,92.8l49.6,0
	c0.8,0,1.5-0.7,1.4-1.5c-0.8-12-8.9-26-26.3-26c-16.4,0-24.9,13.8-26.1,26C1466,92,1466.6,92.8,1467.5,92.8z"/>
<path class="st0" d="M1537.5,131.2V34.1c0-0.8,0.6-1.4,1.4-1.4h5c0.8,0,1.4,0.6,1.4,1.4v97.1c0,0.8-0.6,1.4-1.4,1.4h-5
	C1538.2,132.6,1537.5,132,1537.5,131.2z"/>
<path class="st0" d="M1556.4,96.4c0-21.1,13.6-37.9,34.7-37.9c21.4,0,34.9,16.8,34.9,37.9c0,21.1-13.5,38-34.9,38
	C1570,134.4,1556.4,117.5,1556.4,96.4z M1617.7,96.4c0-16-9.4-30.9-26.5-30.9c-16.8,0-26.4,14.8-26.4,30.9c0,16.2,9.6,31,26.4,31
	C1608.2,127.4,1617.7,112.6,1617.7,96.4z"/>
<path class="st0" d="M1643.5,160.2h-5c-0.8,0-1.4-0.6-1.4-1.4V61.7c0-0.8,0.6-1.4,1.4-1.4h5c0.8,0,1.4,0.6,1.4,1.4v10
	c5.1-7.3,14.4-13.2,25.2-13.2c19.3,0,32.4,14.7,32.4,37.9c0,23.1-13,38-32.4,38c-10.2,0-19.3-5.2-25.2-13.5v37.8
	C1644.9,159.5,1644.3,160.2,1643.5,160.2z M1668.7,65.5c-9.9,0-19.3,5.8-23.6,12.5c-0.1,0.2-0.2,0.5-0.2,0.8v35
	c0,0.3,0.1,0.5,0.2,0.8c4.3,6.8,13.7,12.8,23.6,12.8c16.2,0,25.3-13.5,25.3-31C1694.1,78.8,1684.9,65.5,1668.7,65.5z"/>
<path class="st0" d="M1801.1,132.6c-0.8,0-1.4-0.6-1.4-1.4V82c0-10.2-4.3-16.5-14.5-16.5c-7.6,0-16.3,5.5-20.4,11.9
	c-0.1,0.2-0.2,0.5-0.2,0.8l0,53c0,0.8-0.6,1.4-1.4,1.4h-5.1c-0.8,0-1.4-0.6-1.4-1.4V82c0-10.2-4.2-16.5-14.5-16.5
	c-7.5,0-16,5.6-20.4,12.1c-0.2,0.2-0.2,0.5-0.2,0.8l0,52.8c0,0.8-0.6,1.4-1.4,1.4h-5c-0.8,0-1.4-0.6-1.4-1.4V61.7
	c0-0.8,0.6-1.4,1.4-1.4h5c0.8,0,1.4,0.6,1.4,1.4l0,9.5c3-4.6,12.9-12.7,23.4-12.7c11.2,0,17.2,6.6,19,13.6c4-6.7,13.8-13.6,24-13.6
	c13.3,0,19.8,7.5,19.8,22v50.7c0,0.8-0.6,1.4-1.4,1.4H1801.1z"/>
<path class="st0" d="M1853.4,58.5c22,0,34.2,17.5,34.2,38.3v0.7c0,0.8-0.6,1.4-1.4,1.4h-57.6c-0.8,0-1.5,0.7-1.4,1.6
	c1.4,15,11.7,27.2,28.2,27.2c8.6,0,16.6-3.1,22.6-8.9c0.6-0.6,1.6-0.5,2.1,0.2l2.3,2.8c0.4,0.6,0.4,1.4-0.1,1.9
	c-7.1,6.9-15.9,10.8-27.4,10.8c-21.1,0-36.2-15.7-36.2-38C1818.5,75.4,1833.4,58.5,1853.4,58.5z M1828.6,92.8l49.6,0
	c0.8,0,1.5-0.7,1.4-1.5c-0.8-12-8.9-26-26.3-26c-16.4,0-24.9,13.8-26.1,26C1827.1,92,1827.7,92.8,1828.6,92.8z"/>
<path class="st0" d="M1948.9,132.6c-0.8,0-1.4-0.6-1.4-1.4V83.6c0-13.9-7-18.1-17.5-18.1c-9.1,0-18.5,5.6-23.2,12.1
	c-0.2,0.2-0.3,0.5-0.3,0.8l0,52.8c0,0.8-0.6,1.4-1.4,1.4h-5c-0.8,0-1.4-0.6-1.4-1.4V61.7c0-0.8,0.6-1.4,1.4-1.4h5
	c0.8,0,1.4,0.6,1.4,1.4l0,9.5c5.2-6.3,15.6-12.7,26.1-12.7c14.7,0,22.8,7.2,22.8,23.5v49.2c0,0.8-0.6,1.4-1.4,1.4H1948.9z"/>
<path class="st0" d="M1975.1,118.7V67.2h-10.6c-0.8,0-1.4-0.6-1.4-1.4v-4.1c0-0.8,0.6-1.4,1.4-1.4h10.6V41.9c0-0.8,0.6-1.4,1.4-1.4
	h5.1c0.8,0,1.4,0.6,1.4,1.4v18.4h13.3c0.8,0,1.4,0.6,1.4,1.4v4.1c0,0.8-0.6,1.4-1.4,1.4H1983v50.3c0,5.8,2.4,9.9,7.5,9.9
	c2.7,0,5.1-1,6.8-2.3c0.7-0.5,1.7-0.3,2.1,0.5l1.7,3.4c0.3,0.6,0.1,1.3-0.4,1.7c-2.7,2.3-6,3.7-11.4,3.7
	C1979.7,134.4,1975.1,128.6,1975.1,118.7z"/>
<path class="st0" d="M2053.8,131.2V34.1c0-0.8,0.6-1.4,1.4-1.4h5.7c0.8,0,1.4,0.6,1.4,1.4v90.7h47c0.8,0,1.4,0.6,1.4,1.4v5
	c0,0.8-0.6,1.4-1.4,1.4h-54.1C2054.5,132.6,2053.8,132,2053.8,131.2z"/>
<path class="st0" d="M2120.9,42c0-5.2,7.1-8.9,11.3-2.8c0.1,0.1,0.1,0.2,0.2,0.3c1.8,4.3-1.4,8.5-5.5,8.5
	C2123.8,48,2120.9,45.3,2120.9,42z M2123,131.2V61.7c0-0.8,0.6-1.4,1.4-1.4h5c0.8,0,1.4,0.6,1.4,1.4v69.5c0,0.8-0.6,1.4-1.4,1.4h-5
	C2123.7,132.6,2123,132,2123,131.2z"/>
<path class="st0" d="M2162.4,67.2v64c0,0.8-0.6,1.4-1.4,1.4h-5c-0.8,0-1.4-0.6-1.4-1.4v-64h-10.6c-0.8,0-1.4-0.6-1.4-1.4v-4.1
	c0-0.8,0.6-1.4,1.4-1.4h10.6v-6.6c0-14.2,7.6-22.5,19.6-22.5c3.1,0,6,0.4,8.5,1.6c0.7,0.3,1,1.1,0.7,1.8l-1.4,3.5
	c-0.3,0.8-1.2,1.1-1.9,0.8c-1.5-0.6-3.2-1-5.2-1c-8.2,0-12.6,5.7-12.6,15.7v6.6h13.3c0.8,0,1.4,0.6,1.4,1.4v4.1
	c0,0.8-0.6,1.4-1.4,1.4H2162.4z"/>
<path class="st0" d="M2213.5,58.5c22,0,34.2,17.5,34.2,38.3v0.7c0,0.8-0.6,1.4-1.4,1.4h-57.6c-0.8,0-1.5,0.7-1.4,1.6
	c1.4,15,11.7,27.2,28.2,27.2c8.6,0,16.6-3.1,22.6-8.9c0.6-0.6,1.6-0.5,2.1,0.2l2.3,2.8c0.4,0.6,0.4,1.4-0.1,1.9
	c-7.1,6.9-15.9,10.8-27.4,10.8c-21.1,0-36.2-15.7-36.2-38C2178.6,75.4,2193.4,58.5,2213.5,58.5z M2188.7,92.8l49.6,0
	c0.8,0,1.5-0.7,1.4-1.5c-0.8-12-8.9-26-26.3-26c-16.4,0-24.9,13.8-26.1,26C2187.2,92,2187.8,92.8,2188.7,92.8z"/>
<path class="st0" d="M2292.7,58.5c12,0,19.1,4.5,24.8,11.2c0.5,0.6,0.4,1.5-0.2,2l-3.2,2.9c-0.6,0.5-1.5,0.5-2-0.2
	c-5.1-6.3-11.4-8.9-18.9-8.9c-16.9,0-27.3,13.5-27.3,30.9s10.3,31,27.3,31c7.5,0,13.8-2.7,18.9-9c0.5-0.6,1.4-0.7,2-0.2l2.5,2.2
	c1.1,1,1.2,2.3,0.5,3.2c-5.6,6.6-12.6,10.8-24.3,10.8c-21.3,0-35.2-16.9-35.2-38C2257.5,75.3,2271.5,58.5,2292.7,58.5z"/>
<path class="st0" d="M2332,155.4c0.2-0.8,1-1.3,1.8-1.1c1.6,0.4,3.5,0.7,4.8,0.7c4.8,0,8.1-1.9,10.9-8.8l5.4-12.3
	c0.2-0.4,0.2-0.8,0-1.1l-29.5-70.4c-0.4-0.9,0.3-2,1.3-2h5.6c0.6,0,1.1,0.3,1.3,0.9l26,62.3l25.7-62.3c0.2-0.5,0.7-0.9,1.3-0.9h5.7
	c1,0,1.7,1,1.3,2l-36.6,86.3c-3.9,9.1-10,13.5-18.6,13.5c-1.9,0-4.4-0.3-6.3-0.7c-0.7-0.2-1.2-0.9-1.1-1.6L2332,155.4z"/>
<path class="st0" d="M2429.8,58.5c12,0,19.1,4.5,24.8,11.2c0.5,0.6,0.4,1.5-0.2,2l-3.2,2.9c-0.6,0.5-1.5,0.5-2-0.2
	c-5.1-6.3-11.4-8.9-18.9-8.9c-16.9,0-27.3,13.5-27.3,30.9s10.3,31,27.3,31c7.5,0,13.8-2.7,18.9-9c0.5-0.6,1.4-0.7,2-0.2l2.5,2.2
	c1.1,1,1.2,2.3,0.5,3.2c-5.6,6.6-12.6,10.8-24.3,10.8c-21.3,0-35.2-16.9-35.2-38C2394.6,75.3,2408.5,58.5,2429.8,58.5z"/>
<path class="st0" d="M2469.8,131.2V34.1c0-0.8,0.6-1.4,1.4-1.4h5c0.8,0,1.4,0.6,1.4,1.4v97.1c0,0.8-0.6,1.4-1.4,1.4h-5
	C2470.4,132.6,2469.8,132,2469.8,131.2z"/>
<path class="st0" d="M2523.6,58.5c22,0,34.2,17.5,34.2,38.3v0.7c0,0.8-0.6,1.4-1.4,1.4h-57.6c-0.8,0-1.5,0.7-1.4,1.6
	c1.3,15,11.7,27.2,28.2,27.2c8.6,0,16.6-3.1,22.6-8.9c0.6-0.6,1.6-0.5,2.1,0.2l2.3,2.8c0.4,0.6,0.4,1.4-0.1,1.9
	c-7.1,6.9-15.9,10.8-27.4,10.8c-21.1,0-36.2-15.7-36.2-38C2488.7,75.4,2503.5,58.5,2523.6,58.5z M2498.7,92.8l49.6,0
	c0.8,0,1.5-0.7,1.4-1.5c-0.8-12-8.9-26-26.3-26c-16.4,0-24.9,13.8-26.1,26C2497.2,92,2497.9,92.8,2498.7,92.8z"/>
<g>
	<path class="st1" d="M138.8,38.3c0,7-5.7,12.8-12.8,12.8c-7,0-12.8-5.7-12.8-12.8c0-7,5.7-12.8,12.8-12.8
		C133.1,25.5,138.8,31.2,138.8,38.3 M164.4,71.1V5.4c0-3-2.5-5.5-5.5-5.5H93.3c-3,0-5.5,2.5-5.5,5.5v65.7c0,3,2.5,5.5,5.5,5.5h65.6
		C161.9,76.6,164.4,74.1,164.4,71.1"/>
	<path class="st2" d="M38.3,0C17.2,0,0,17.1,0,38.3s17.1,38.3,38.3,38.3s38.3-17.1,38.3-38.3C76.6,17.1,59.5,0,38.3,0"/>
	<path class="st3" d="M71.1,88.2H38.3H5.5c-3,0-5.5,2.5-5.5,5.5v32.9l0,0c0,21.2,17.1,38.3,38.3,38.3s38.3-17.1,38.3-38.3l0,0V93.7
		C76.6,90.6,74.2,88.2,71.1,88.2"/>
	<path class="st4" d="M164.4,126.7c0,0,0-0.1,0-0.1c0-21.2-17.1-38.3-38.3-38.3s-38.3,17.1-38.3,38.3s17.1,38.3,38.3,38.3
		c0,0,0.1,0,0.1,0l0,0h32.7c3,0,5.5-2.5,5.5-5.5L164.4,126.7L164.4,126.7z"/>
</g>
<path class="st0" d="M443.7,111.8c0,15.5-13.5,23-28.9,23c-14,0-24.4-5.7-29.8-16.2c-0.3-0.5-0.1-1.1,0.4-1.4l14.2-8
	c0.6-0.3,1.3-0.1,1.5,0.5c2.2,5.2,7,8.2,13.7,8.2c5.9,0,9.9-2,9.9-6.2c0-10.5-37.1-4.7-37.1-30.1c0-14.7,12.5-22.9,27.3-22.9
	c11.3,0,21.1,5,26.8,14.3c0.3,0.5,0.1,1.2-0.4,1.5l-13.9,7.6c-0.5,0.3-1.1,0.1-1.4-0.4c-2.2-4.1-6.1-6.4-11.1-6.4
	c-4.6,0-8.3,2-8.3,5.9C406.5,91.9,443.7,85.3,443.7,111.8z"/>
<path class="st0" d="M456.4,27.7h16.4c0.6,0,1,0.5,1,1v103c0,0.6-0.5,1-1,1h-16.4c-0.6,0-1-0.5-1-1v-103
	C455.3,28.2,455.8,27.7,456.4,27.7z"/>
<path class="st0" d="M484.8,40.8c0-6.2,5.2-11.5,11.4-11.5c6.3,0,11.5,5.3,11.5,11.5c0,6.2-5.2,11.4-11.5,11.4
	C489.9,52.2,484.8,47,484.8,40.8z M488,60.9h16.4c0.6,0,1,0.5,1,1v69.9c0,0.6-0.5,1-1,1H488c-0.6,0-1-0.5-1-1V61.9
	C486.9,61.3,487.4,60.9,488,60.9z"/>
<path class="st0" d="M275.1,96.5l28.4-34.7c0.6-0.7,0.1-1.7-0.8-1.7h-18.3c-0.6,0-1.3,0.3-1.6,0.8l-24.8,31
	c-0.3,0.4-0.5,0.8-0.5,1.3v6.7c0,0.5,0.2,0.9,0.5,1.3l24.8,31c0.4,0.5,1,0.8,1.6,0.8h18.3c0.9,0,1.4-1,0.8-1.7L275.1,96.5z"/>
<path class="st0" d="M340.1,58.7c-21.1,0-38.2,17.1-38.2,38.2S319,135,340.1,135c21.1,0,38.2-17.1,38.2-38.2S361.1,58.7,340.1,58.7
	 M340.1,115.6c-10.4,0-18.8-8.4-18.8-18.8S329.7,78,340.1,78c10.4,0,18.8,8.4,18.8,18.8S350.5,115.6,340.1,115.6"/>
<path class="st0" d="M236.3,31.9h16.4c0.6,0,1,0.5,1,1v98.8c0,0.6-0.5,1-1,1h-16.4c-0.6,0-1-0.5-1-1V32.9
	C235.2,32.4,235.7,31.9,236.3,31.9z"/>
<path class="st0" d="M595.2,111.8c0,15.5-13.5,23-28.9,23c-14,0-24.4-5.7-29.8-16.2c-0.3-0.5-0.1-1.1,0.4-1.4l14.2-8
	c0.6-0.3,1.3-0.1,1.5,0.5c2.2,5.2,7,8.2,13.7,8.2c5.9,0,9.9-2,9.9-6.2c0-10.5-37.1-4.7-37.1-30.1c0-14.7,12.5-22.9,27.3-22.9
	c11.3,0,21.1,5,26.8,14.3c0.3,0.5,0.1,1.2-0.4,1.5l-13.9,7.6c-0.5,0.3-1.1,0.1-1.4-0.4c-2.2-4.1-6.1-6.4-11.1-6.4
	c-4.6,0-8.3,2-8.3,5.9C558.1,91.9,595.2,85.3,595.2,111.8z"/>
<path class="st0" d="M517.3,76.1c2.2-1.5,4.5-3.9,6-6.4c0.5-0.9-0.2-2.1-1.2-2.1l0,0c-4.4,0-8-3.4-8-8.5c0-5.2,4.3-9.5,9.5-9.5
	c5.5,0,10.5,4.3,10.5,11.9c0,8-4.2,15.1-10.8,20.2c-0.5,0.4-1.2,0.4-1.7,0c-1.1-0.9-2.9-2.3-4.2-3.4
	C516.5,77.8,516.6,76.7,517.3,76.1z"/>
</svg>
