<?xml version="1.0" encoding="utf-8"?>
<!-- Generator: Adobe Illustrator 26.2.0, SVG Export Plug-In . SVG Version: 6.00 Build 0)  -->
<svg version="1.1" id="Layer_1" xmlns="http://www.w3.org/2000/svg" xmlns:xlink="http://www.w3.org/1999/xlink" x="0px" y="0px"
	 viewBox="0 0 1773.6 164.9" style="enable-background:new 0 0 1773.6 164.9;" xml:space="preserve">
<style type="text/css">
	.st0{fill:#FFFFFF;}
	.st1{fill:#ED475C;}
	.st2{fill:#29B57D;}
	.st3{fill:#2459D1;}
	.st4{fill:#F7C22E;}
</style>
<path class="st0" d="M255.5,34.6H193v10.9h25.5v75.8h11.4V45.5h25.6V34.6z M297.4,57.8c-8.7,0-15.5,3.2-20.1,10.5V34.6h-10.8v86.7
	h10.8V88.5c0-14.6,8-20.4,18-20.4c9.5,0,15.4,5.7,15.4,15.8v37.4h10.8v-38C321.4,67.4,311.9,57.8,297.4,57.8z M344.8,95.3h51.9
	c0.2-1.6,0.4-3.2,0.4-4.8c0-17.3-12.1-32.7-30.8-32.7c-19.3,0-32.4,14.2-32.4,32.6c0,18.6,13.2,32.6,33.2,32.6
	c12.4,0,21.8-5.6,27.2-14l-9.2-5.2c-3.1,5.1-9.3,9-17.8,9C355.7,112.7,346.9,106.4,344.8,95.3z M366.2,67.9c9.3,0,18.1,5.7,19.9,18
	h-41.4C346.5,75.1,354.6,67.9,366.2,67.9z M476.8,34.6H443v86.7h33.8c23.9,0,41.1-19.3,41.1-43.3S500.7,34.6,476.8,34.6z
	 M476.8,110.4h-22.3V45.5h22.3c17.8,0,30.1,14.1,30.1,32.4S494.7,110.4,476.8,110.4z M539.1,95.3H591c0.2-1.6,0.4-3.2,0.4-4.8
	c0-17.3-12.1-32.7-30.8-32.7c-19.3,0-32.4,14.2-32.4,32.6c0,18.6,13.2,32.6,33.2,32.6c12.4,0,21.8-5.6,27.2-14l-9.2-5.2
	c-3.1,5.1-9.3,9-17.8,9C550,112.7,541.2,106.4,539.1,95.3z M560.6,67.9c9.3,0,18.1,5.7,19.9,18h-41.4
	C540.9,75.1,548.9,67.9,560.6,67.9z M645.5,59.4L626,109.8l-19.4-50.4h-11.6l24.8,61.9h12.6l24.8-61.9H645.5z M708.4,122.9
	c25.1,0,44.9-20.1,44.9-44.9c0-25-19.8-44.9-44.9-44.9c-25.1,0-44.8,19.9-44.8,44.9C663.5,102.8,683.2,122.9,708.4,122.9z
	 M708.4,111.6c-18.9,0-33.4-14.7-33.4-33.7c0-19.1,14.5-33.8,33.4-33.8c18.9,0,33.4,14.7,33.4,33.8
	C741.8,96.9,727.3,111.6,708.4,111.6z M801,57.8c-10.5,0-18.5,4.7-23.4,12.3V59.4h-10.8v86.7h10.8v-35.4c5,7.6,12.9,12.3,23.4,12.3
	c17.2,0,31.3-14.2,31.3-32.6S818.2,57.8,801,57.8z M799.6,112.5c-12.5,0-22-9.5-22-22.2s9.5-22.2,22-22.2c12.4,0,21.9,9.5,21.9,22.2
	S812,112.5,799.6,112.5z M853.9,76.1c0-5.6,5.4-8.3,11-8.3c5.4,0,10.9,2.4,13.2,7.9l9-5.1c-4-8-12.1-12.9-22.3-12.9
	c-12.5,0-21.9,7.6-21.9,18.5c0,22.4,34.7,14.9,34.7,28.1c0,6.1-5.7,8.4-12.3,8.4c-7.7,0-13.4-3.7-15.4-9.7l-9.3,5.3
	c3.6,8.5,12.3,14.5,24.6,14.5c13.2,0,23.2-7.1,23.2-18.6C888.6,81.5,853.9,89.3,853.9,76.1z M943.9,122.9c16.1,0,30.2-8.4,37.4-21.2
	l-10-5.7c-5,9.4-15.5,15.6-27.4,15.6c-20.3,0-33.9-14.7-33.9-33.7c0-19.1,13.6-33.8,33.9-33.8c11.9,0,22.4,6.2,27.4,15.7l10-5.8
	C974,41.3,959.9,33,943.9,33c-26.5,0-45.3,19.9-45.3,44.9C898.6,102.8,917.4,122.9,943.9,122.9z M1049.7,34.6h-62.5v10.9h25.5v75.8
	h11.4V45.5h25.6V34.6z M1073.4,110.4V34.6h-11.5v86.7h48.9v-10.9H1073.4z M1204.7,45.5V34.6h-49.9v86.7h11.5V84.5h36.8V73.6h-36.8
	V45.5H1204.7z M1229.1,69.8V59.4h-10.8v61.9h10.8V88.5c0-14.6,10-19.3,19.3-18.9V58.3C1240.6,58.3,1233,61.1,1229.1,69.8z
	 M1307.6,59.4V70c-5-7.6-12.9-12.3-23.4-12.3c-17.2,0-31.3,14.2-31.3,32.6s14.1,32.6,31.3,32.6c10.5,0,18.5-4.7,23.4-12.3v10.6h10.8
	V59.4H1307.6z M1285.6,112.5c-12.4,0-21.9-9.5-21.9-22.2s9.5-22.2,21.9-22.2c12.5,0,22,9.5,22,22.2S1298.1,112.5,1285.6,112.5z
	 M1402.3,57.8c-8,0-15.1,3.5-19.4,10.5c-3.6-6.7-9.8-10.5-18.2-10.5c-7.6,0-14,3-18.5,9.9v-8.3h-10.8v61.9h10.8V86.9
	c0-13.4,7.6-18.8,15.8-18.8c8,0,13.1,5.3,13.1,15.1v38.1h10.8V86.9c0-13.4,6.6-18.8,15.2-18.8c8.2,0,13.6,5.3,13.6,15.1v38.1h10.8
	V82.8C1425.6,67.3,1416.1,57.8,1402.3,57.8z M1448.9,95.3h51.9c0.2-1.6,0.4-3.2,0.4-4.8c0-17.3-12.1-32.7-30.8-32.7
	c-19.3,0-32.4,14.2-32.4,32.6c0,18.6,13.2,32.6,33.2,32.6c12.4,0,21.8-5.6,27.2-14l-9.2-5.2c-3.1,5.1-9.3,9-17.8,9
	C1459.8,112.7,1451,106.4,1448.9,95.3z M1470.3,67.9c9.3,0,18.1,5.7,19.9,18h-41.4C1450.6,75.1,1458.7,67.9,1470.3,67.9z
	 M1584.8,59.4l-13.6,47.2l-14.6-47.2h-10.4l-14.6,47.1l-13.6-47.1h-11.3l19.2,61.9h11l14.5-45.8l14.5,45.8h11l19.2-61.9H1584.8z
	 M1634.6,122.9c18.1,0,32.7-14.2,32.7-32.6s-14.6-32.6-32.7-32.6c-18.1,0-32.6,14.2-32.6,32.6S1616.5,122.9,1634.6,122.9z
	 M1634.6,112.4c-12.3,0-21.8-9.5-21.8-22s9.5-22,21.8-22c12.4,0,21.9,9.5,21.9,22S1647,112.4,1634.6,112.4z M1691.5,69.8V59.4h-10.8
	v61.9h10.8V88.5c0-14.6,10-19.3,19.3-18.9V58.3C1703.1,58.3,1695.5,61.1,1691.5,69.8z M1774.6,121.3L1744,89.3l29.6-30h-13.9
	l-26.7,27.4V34.6h-10.8v86.7h10.8V91.9l28.2,29.3H1774.6z"/>
<g>
	<g>
		<path class="st1" d="M109.7,54.4c3.9,0,7.5,1.5,10.3,4.3l40.7,40.7c5.7,5.7,5.7,14.9,0,20.6L120,160.7c-5.7,5.7-14.9,5.7-20.6,0
			L58.7,120c-5.7-5.7-5.7-14.9,0-20.6l40.7-40.7C102.1,55.9,105.8,54.4,109.7,54.4z M109.7,155.2c1.3,0,2.5-0.5,3.4-1.4l40.7-40.7
			c0.9-0.9,1.4-2.1,1.4-3.4s-0.5-2.5-1.4-3.4l-40.7-40.7c-1.8-1.8-5-1.8-6.9,0l-40.7,40.7c-0.9,0.9-1.4,2.1-1.4,3.4s0.5,2.5,1.4,3.4
			l40.7,40.7C107.2,154.7,108.4,155.2,109.7,155.2z"/>
		<path class="st2" d="M55.3,110.5c-3.9,0-7.5-1.5-10.3-4.3L4.3,65.6c-5.7-5.7-5.7-14.9,0-20.6L45,4.3c5.7-5.7,14.9-5.7,20.6,0
			L106.3,45c5.7,5.7,5.7,14.9,0,20.6l-40.7,40.7C62.8,109,59.1,110.5,55.3,110.5z M55.3,9.7c-1.3,0-2.5,0.5-3.4,1.4L11.1,51.8
			c-0.9,0.9-1.4,2.1-1.4,3.4c0,1.3,0.5,2.5,1.4,3.4l40.7,40.7c1.8,1.8,5,1.8,6.9,0l40.7-40.7c0.9-0.9,1.4-2.1,1.4-3.4
			c0-1.3-0.5-2.5-1.4-3.4L58.7,11.1C57.8,10.2,56.6,9.7,55.3,9.7z"/>
	</g>
	<path class="st3" d="M109.7,110.5c-3.9,0-7.5-1.5-10.3-4.3L58.7,65.6C53,59.9,53,50.6,58.7,45L99.4,4.3c5.7-5.7,14.9-5.7,20.6,0
		L160.7,45c5.7,5.7,5.7,14.9,0,20.6L120,106.3C117.2,109,113.6,110.5,109.7,110.5z M109.7,9.7c-1.3,0-2.5,0.5-3.4,1.4L65.6,51.8
		c-0.9,0.9-1.4,2.1-1.4,3.4s0.5,2.5,1.4,3.4l40.7,40.7c1.8,1.8,5,1.8,6.9,0l40.7-40.7c0.9-0.9,1.4-2.1,1.4-3.4s-0.5-2.5-1.4-3.4
		l-40.7-40.7C112.2,10.2,111,9.7,109.7,9.7z"/>
	<path class="st4" d="M55.3,54.4c3.9,0,7.5,1.5,10.3,4.3l40.7,40.7c5.7,5.7,5.7,14.9,0,20.6l-40.7,40.7c-5.7,5.7-14.9,5.7-20.6,0
		L4.3,120c-5.7-5.7-5.7-14.9,0-20.6L45,58.7C47.7,55.9,51.4,54.4,55.3,54.4z M55.3,155.2c1.3,0,2.5-0.5,3.4-1.4l40.7-40.7
		c0.9-0.9,1.4-2.1,1.4-3.4s-0.5-2.5-1.4-3.4L58.7,65.6c-1.8-1.8-5-1.8-6.9,0l-40.7,40.7c-0.9,0.9-1.4,2.1-1.4,3.4s0.5,2.5,1.4,3.4
		l40.7,40.7C52.8,154.7,54,155.2,55.3,155.2z"/>
	<rect x="77.6" y="22.9" transform="matrix(0.7071 -0.7071 0.7071 0.7071 4.3305 66.5147)" class="st2" width="9.7" height="10.3"/>
	
		<rect x="77.7" y="131.4" transform="matrix(0.7071 -0.7071 0.7071 0.7071 -72.6803 98.4814)" class="st1" width="9.7" height="11.2"/>
	
		<rect x="77.4" y="77.6" transform="matrix(0.7071 -0.7071 0.7071 0.7071 -34.1825 82.4616)" class="st2" width="10.2" height="9.7"/>
</g>
</svg>
