<?xml version="1.0" encoding="utf-8"?>
<!-- Generator: Adobe Illustrator 28.0.0, SVG Export Plug-In . SVG Version: 6.00 Build 0)  -->
<svg version="1.1" id="Layer_1" xmlns="http://www.w3.org/2000/svg" xmlns:xlink="http://www.w3.org/1999/xlink" x="0px" y="0px"
	 viewBox="0 0 1936 164.9" style="enable-background:new 0 0 1936 164.9;" xml:space="preserve">
<style type="text/css">
	.st0{fill:#ED475C;}
	.st1{fill:#29B57D;}
	.st2{fill:#2459D1;}
	.st3{fill:#F7C22E;}
	.st4{fill:#FFFFFF;}
</style>
<g>
	<g>
		<path class="st0" d="M109.7,54.4c3.9,0,7.5,1.5,10.3,4.3l40.7,40.7c5.7,5.7,5.7,14.9,0,20.6L120,160.7c-5.7,5.7-14.9,5.7-20.6,0
			L58.7,120c-5.7-5.7-5.7-14.9,0-20.6l40.7-40.7C102.1,55.9,105.8,54.4,109.7,54.4z M109.7,155.2c1.3,0,2.5-0.5,3.4-1.4l40.7-40.7
			c0.9-0.9,1.4-2.1,1.4-3.4s-0.5-2.5-1.4-3.4l-40.7-40.7c-1.8-1.8-5-1.8-6.9,0l-40.7,40.7c-0.9,0.9-1.4,2.1-1.4,3.4s0.5,2.5,1.4,3.4
			l40.7,40.7C107.2,154.7,108.4,155.2,109.7,155.2z"/>
		<path class="st1" d="M55.3,110.5c-3.9,0-7.5-1.5-10.3-4.3L4.3,65.6c-5.7-5.7-5.7-14.9,0-20.6L45,4.3c5.7-5.7,14.9-5.7,20.6,0
			L106.3,45c5.7,5.7,5.7,14.9,0,20.6l-40.7,40.7C62.8,109,59.1,110.5,55.3,110.5z M55.3,9.7c-1.3,0-2.5,0.5-3.4,1.4L11.1,51.8
			c-0.9,0.9-1.4,2.1-1.4,3.4c0,1.3,0.5,2.5,1.4,3.4l40.7,40.7c1.8,1.8,5,1.8,6.9,0l40.7-40.7c0.9-0.9,1.4-2.1,1.4-3.4
			c0-1.3-0.5-2.5-1.4-3.4L58.7,11.1C57.8,10.2,56.6,9.7,55.3,9.7z"/>
	</g>
	<path class="st2" d="M109.7,110.5c-3.9,0-7.5-1.5-10.3-4.3L58.7,65.6c-5.7-5.7-5.7-15,0-20.6L99.4,4.3c5.7-5.7,14.9-5.7,20.6,0
		L160.7,45c5.7,5.7,5.7,14.9,0,20.6L120,106.3C117.2,109,113.6,110.5,109.7,110.5z M109.7,9.7c-1.3,0-2.5,0.5-3.4,1.4L65.6,51.8
		c-0.9,0.9-1.4,2.1-1.4,3.4s0.5,2.5,1.4,3.4l40.7,40.7c1.8,1.8,5,1.8,6.9,0l40.7-40.7c0.9-0.9,1.4-2.1,1.4-3.4s-0.5-2.5-1.4-3.4
		l-40.7-40.7C112.2,10.2,111,9.7,109.7,9.7z"/>
	<path class="st3" d="M55.3,54.4c3.9,0,7.5,1.5,10.3,4.3l40.7,40.7c5.7,5.7,5.7,14.9,0,20.6l-40.7,40.7c-5.7,5.7-14.9,5.7-20.6,0
		L4.3,120c-5.7-5.7-5.7-14.9,0-20.6L45,58.7C47.7,55.9,51.4,54.4,55.3,54.4z M55.3,155.2c1.3,0,2.5-0.5,3.4-1.4l40.7-40.7
		c0.9-0.9,1.4-2.1,1.4-3.4s-0.5-2.5-1.4-3.4L58.7,65.6c-1.8-1.8-5-1.8-6.9,0l-40.7,40.7c-0.9,0.9-1.4,2.1-1.4,3.4s0.5,2.5,1.4,3.4
		l40.7,40.7C52.8,154.7,54,155.2,55.3,155.2z"/>
	<rect x="77.6" y="22.9" transform="matrix(0.7071 -0.7071 0.7071 0.7071 4.3202 66.5268)" class="st1" width="9.7" height="10.3"/>
	
		<rect x="77.7" y="131.4" transform="matrix(0.7071 -0.7071 0.7071 0.7071 -72.6793 98.5026)" class="st0" width="9.7" height="11.2"/>
	
		<rect x="77.4" y="77.6" transform="matrix(0.7071 -0.7071 0.7071 0.7071 -34.134 82.4456)" class="st1" width="10.2" height="9.7"/>
</g>
<g>
	<path class="st4" d="M200.8,97.7c5.7,6.3,14.7,11.8,26.5,11.8c13.6,0,18.4-6.9,18.4-13c0-8.8-9.6-11.3-20.3-14.1
		c-13.5-3.5-29.1-7.4-29.1-24.6c0-13.9,12.2-23.9,29.7-23.9c13,0,23.2,4.2,30.6,11.7l-7.3,9.3c-6.4-6.8-15.2-9.8-24.3-9.8
		c-9.3,0-15.8,4.8-15.8,11.8c0,7.6,9.1,10,19.5,12.6c13.7,3.7,29.7,7.9,29.7,25.8c0,13.1-9.1,25.3-31.8,25.3c-15,0-26-5.4-33.1-13.4
		L200.8,97.7z"/>
	<path class="st4" d="M299.5,56.8c18.3,0,29.6,14.2,29.6,32.9v2.8H281c0.9,10.3,8.4,18.9,20.7,18.9c6.4,0,13.5-2.5,18-7.2l5.3,7.4
		c-6,5.9-14.6,9.1-24.4,9.1c-18.1,0-31.5-12.9-31.5-32C269,71.1,281.8,56.8,299.5,56.8z M280.9,84.3h37.2
		c-0.3-8.1-5.7-18.1-18.5-18.1C287.3,66.1,281.5,76,280.9,84.3z"/>
	<path class="st4" d="M370.6,56.8c11.5,0,18.4,4.8,22.8,10.7l-7.6,6.9c-3.7-5.2-8.6-7.6-14.7-7.6c-12,0-19.7,9.2-19.7,21.8
		s7.7,21.9,19.7,21.9c6.2,0,11.1-2.5,14.7-7.6l7.6,6.9c-4.4,5.9-11.3,10.7-22.8,10.7c-18.4,0-31-13.7-31-32
		C339.6,70.4,352.2,56.8,370.6,56.8z"/>
	<path class="st4" d="M447,119.2v-8.3c-4.7,5-12.3,9.8-21.7,9.8c-13,0-19.4-6.6-19.4-19.4v-43h11.3v39.2c0,10.1,5,13.1,12.9,13.1
		c7.1,0,13.5-4,16.9-8.6V58.3h11.3v60.9H447z"/>
	<path class="st4" d="M473.8,119.2V58.3h11.3v9.3C489.8,61.6,497,57,505,57v11.5c-1.1-0.3-2.4-0.4-3.9-0.4c-5.7,0-13.4,4.3-16,8.8
		v42.3H473.8z"/>
	<path class="st4" d="M540.6,56.8c18.3,0,29.6,14.2,29.6,32.9v2.8H522c0.9,10.3,8.4,18.9,20.7,18.9c6.4,0,13.5-2.5,18-7.2l5.3,7.4
		c-6,5.9-14.6,9.1-24.4,9.1c-18.1,0-31.5-12.9-31.5-32C510.1,71.1,522.8,56.8,540.6,56.8z M521.9,84.3h37.2
		c-0.3-8.1-5.7-18.1-18.5-18.1C528.3,66.1,522.6,76,521.9,84.3z"/>
	<path class="st4" d="M619.2,97.7c5.7,6.3,14.7,11.8,26.5,11.8c13.6,0,18.4-6.9,18.4-13c0-8.8-9.6-11.3-20.3-14.1
		c-13.5-3.5-29.1-7.4-29.1-24.6c0-13.9,12.2-23.9,29.7-23.9c13,0,23.2,4.2,30.6,11.7l-7.3,9.3c-6.4-6.8-15.2-9.8-24.3-9.8
		c-9.3,0-15.8,4.8-15.8,11.8c0,7.6,9.1,10,19.5,12.6c13.7,3.7,29.7,7.9,29.7,25.8c0,13.1-9.1,25.3-31.8,25.3c-15,0-26-5.4-33.1-13.4
		L619.2,97.7z"/>
	<path class="st4" d="M691.5,119.2v-84h30c26.2,0,43.6,17.9,43.6,42.1c0,24.3-17.4,42-43.6,42H691.5z M704.1,108.1h17.4
		c19.4,0,30.6-13.9,30.6-30.9c0-17.3-10.8-31-30.6-31h-17.4V108.1z"/>
	<path class="st4" d="M780.3,119.2v-84h12.6v73h38.2v11.1H780.3z"/>
	<path class="st4" d="M837.4,77.2c0-25.8,19.2-43.5,43.1-43.5c16.5,0,26.8,7.9,33.4,17.8l-10.7,5.7c-4.4-7.1-12.7-12.2-22.7-12.2
		c-17,0-30.1,13.4-30.1,32.3c0,18.8,13.1,32.3,30.1,32.3c10,0,18.3-5.2,22.7-12.2l10.7,5.7c-6.7,9.8-16.9,17.8-33.4,17.8
		C856.6,120.7,837.4,103.1,837.4,77.2z"/>
	<path class="st4" d="M959,119.2v-84h35.4c17.3,0,26.8,11.8,26.8,25.8s-9.7,25.8-26.8,25.8h-22.8v32.4H959z M992.8,46.2h-21.2v29.5
		h21.2c9.1,0,15.5-5.9,15.5-14.7C1008.3,52.2,1001.9,46.2,992.8,46.2z"/>
	<path class="st4" d="M1034,119.2V58.3h11.3v9.3c4.7-6,11.8-10.7,19.9-10.7v11.5c-1.1-0.3-2.4-0.4-3.9-0.4c-5.7,0-13.4,4.3-16,8.8
		v42.3H1034z"/>
	<path class="st4" d="M1072.8,88.7c0-17.5,11.8-31.9,30.7-31.9c19,0,30.7,14.4,30.7,31.9c0,17.6-11.7,32-30.7,32
		C1084.6,120.7,1072.8,106.3,1072.8,88.7z M1122.4,88.7c0-11.5-6.7-21.8-18.9-21.8c-12.1,0-18.9,10.3-18.9,21.8
		c0,11.6,6.8,21.9,18.9,21.9C1115.8,110.6,1122.4,100.3,1122.4,88.7z"/>
	<path class="st4" d="M1175.9,56.8c11.5,0,18.4,4.8,22.8,10.7l-7.6,6.9c-3.7-5.2-8.6-7.6-14.7-7.6c-12,0-19.7,9.2-19.7,21.8
		s7.7,21.9,19.7,21.9c6.2,0,11.1-2.5,14.7-7.6l7.6,6.9c-4.4,5.9-11.3,10.7-22.8,10.7c-18.4,0-31-13.7-31-32
		C1144.9,70.4,1157.5,56.8,1175.9,56.8z"/>
	<path class="st4" d="M1237.8,56.8c18.3,0,29.6,14.2,29.6,32.9v2.8h-48.1c0.9,10.3,8.4,18.9,20.7,18.9c6.4,0,13.5-2.5,18-7.2
		l5.3,7.4c-6,5.9-14.6,9.1-24.4,9.1c-18.1,0-31.5-12.9-31.5-32C1207.3,71.1,1220.1,56.8,1237.8,56.8z M1219.2,84.3h37.2
		c-0.3-8.1-5.7-18.1-18.5-18.1C1225.6,66.1,1219.8,76,1219.2,84.3z"/>
	<path class="st4" d="M1281.8,102.9c4.2,4.5,12.2,8.7,20.4,8.7c8.6,0,13.1-3.5,13.1-8.7c0-6-6.9-8.1-14.7-9.8
		c-10.3-2.4-22.4-5.2-22.4-18.3c0-9.7,8.3-18,23.2-18c10.5,0,18,3.8,23.2,8.7l-5,7.9c-3.5-4.3-10.3-7.4-18-7.4S1289,69,1289,74
		c0,5.3,6.6,7.1,14.1,8.8c10.6,2.4,23.2,5.3,23.2,19.3c0,10.5-8.6,18.6-24.6,18.6c-10.2,0-19.2-3.2-25.3-9.5L1281.8,102.9z"/>
	<path class="st4" d="M1340.8,102.9c4.2,4.5,12.2,8.7,20.4,8.7c8.6,0,13.1-3.5,13.1-8.7c0-6-6.9-8.1-14.7-9.8
		c-10.3-2.4-22.4-5.2-22.4-18.3c0-9.7,8.3-18,23.2-18c10.5,0,18,3.8,23.2,8.7l-5,7.9c-3.5-4.3-10.3-7.4-18-7.4S1348,69,1348,74
		c0,5.3,6.6,7.1,14.1,8.8c10.6,2.4,23.2,5.3,23.2,19.3c0,10.5-8.6,18.6-24.6,18.6c-10.2,0-19.2-3.2-25.3-9.5L1340.8,102.9z"/>
	<path class="st4" d="M1452.9,119.2v-73h-26.1V35.2h64.6v11.1h-26v73H1452.9z"/>
	<path class="st4" d="M1517.2,56.8c18.3,0,29.6,14.2,29.6,32.9v2.8h-48.1c0.9,10.3,8.4,18.9,20.7,18.9c6.4,0,13.5-2.5,18-7.2
		l5.3,7.4c-6,5.9-14.6,9.1-24.4,9.1c-18.1,0-31.5-12.9-31.5-32C1486.7,71.1,1499.4,56.8,1517.2,56.8z M1498.5,84.3h37.2
		c-0.3-8.1-5.7-18.1-18.5-18.1C1505,66.1,1499.2,76,1498.5,84.3z"/>
	<path class="st4" d="M1635,119.2V78.6c0-7.1-3.2-11.7-10.6-11.7c-6.2,0-12.2,4.3-15.1,8.7v43.6h-11.3V78.6c0-7.1-3-11.7-10.7-11.7
		c-5.9,0-11.8,4.4-14.9,8.8v43.5H1561V58.3h11.3v8.6c2.5-3.8,10.6-10.1,19.7-10.1c9.2,0,14.6,4.8,16.5,11.3
		c3.5-5.7,11.6-11.3,20.5-11.3c11.2,0,17.3,6.2,17.3,18.4v44H1635z"/>
	<path class="st4" d="M1673.2,142.4h-11.3v-84h11.3V67c4.4-6,11.7-10.2,19.9-10.2c15.9,0,27.1,12,27.1,31.9s-11.2,32-27.1,32
		c-7.9,0-15-3.7-19.9-10.3V142.4z M1690.1,66.9c-6.9,0-13.9,4-16.9,8.9v25.8c3,4.8,10,8.9,16.9,8.9c11.3,0,18.3-9.2,18.3-21.9
		C1708.3,76.1,1701.4,66.9,1690.1,66.9z"/>
	<path class="st4" d="M1732,119.2v-84h11.3v84H1732z"/>
	<path class="st4" d="M1796.4,119.2v-6.7c-4.8,5.3-11.7,8.2-19.9,8.2c-10.1,0-21.2-6.8-21.2-20.2c0-13.9,11-19.9,21.2-19.9
		c8.2,0,15.2,2.6,19.9,8.1V78.6c0-7.6-6.2-12.1-14.9-12.1c-6.9,0-12.9,2.6-18.3,8.1l-4.9-7.8c6.8-6.7,15.1-10,24.9-10
		c13.2,0,24.4,5.8,24.4,21.3v41.1H1796.4z M1796.4,95.5c-3.4-4.5-9.3-6.9-15.6-6.9c-8.2,0-14,4.9-14,12.1s5.8,12.1,14,12.1
		c6.3,0,12.2-2.4,15.6-6.9V95.5z"/>
	<path class="st4" d="M1825.6,105.7V68.3h-10.1v-10h10.1V41.7h11.3v16.6h12.3v10H1837v34.9c0,4.3,2,7.4,5.9,7.4c2.6,0,5-1.1,6.2-2.4
		l2.9,8.6c-2.4,2.3-5.9,3.9-11.8,3.9C1830.5,120.7,1825.6,115.3,1825.6,105.7z"/>
	<path class="st4" d="M1888.6,56.8c18.3,0,29.6,14.2,29.6,32.9v2.8h-48.1c0.9,10.3,8.4,18.9,20.7,18.9c6.4,0,13.5-2.5,18-7.2
		l5.3,7.4c-6,5.9-14.6,9.1-24.4,9.1c-18.1,0-31.5-12.9-31.5-32C1858.1,71.1,1870.9,56.8,1888.6,56.8z M1870,84.3h37.2
		c-0.3-8.1-5.7-18.1-18.5-18.1C1876.4,66.1,1870.6,76,1870,84.3z"/>
</g>
</svg>
