<svg width="1936" height="165" viewBox="0 0 1936 165" fill="none" xmlns="http://www.w3.org/2000/svg">
<g clip-path="url(#clip0_223_550)">
<path d="M109.697 54.3984C113.597 54.3984 117.197 55.8984 119.997 58.6984L160.697 99.3984C166.397 105.098 166.397 114.298 160.697 119.998L119.997 160.698C114.297 166.398 105.097 166.398 99.3969 160.698L58.6969 119.998C52.9969 114.298 52.9969 105.098 58.6969 99.3984L99.3969 58.6984C102.097 55.8984 105.797 54.3984 109.697 54.3984ZM109.697 155.198C110.997 155.198 112.197 154.698 113.097 153.798L153.797 113.098C154.697 112.198 155.197 110.998 155.197 109.698C155.197 108.398 154.697 107.198 153.797 106.298L113.097 65.5984C111.297 63.7984 108.097 63.7984 106.197 65.5984L65.4969 106.298C64.5969 107.198 64.0969 108.398 64.0969 109.698C64.0969 110.998 64.5969 112.198 65.4969 113.098L106.197 153.798C107.197 154.698 108.397 155.198 109.697 155.198Z" fill="#C8463A"/>
<path d="M55.2984 110.498C51.3984 110.498 47.7984 108.998 44.9984 106.198L4.29844 65.5984C-1.40156 59.8984 -1.40156 50.6984 4.29844 44.9984L44.9984 4.29844C50.6984 -1.40156 59.8984 -1.40156 65.5984 4.29844L106.298 44.9984C111.998 50.6984 111.998 59.8984 106.298 65.5984L65.5984 106.298C62.7984 108.998 59.0984 110.498 55.2984 110.498ZM55.2984 9.69844C53.9984 9.69844 52.7984 10.1984 51.8984 11.0984L11.0984 51.7984C10.1984 52.6984 9.69844 53.8984 9.69844 55.1984C9.69844 56.4984 10.1984 57.6984 11.0984 58.5984L51.7984 99.2984C53.5984 101.098 56.7984 101.098 58.6984 99.2984L99.3984 58.5984C100.298 57.6984 100.798 56.4984 100.798 55.1984C100.798 53.8984 100.298 52.6984 99.3984 51.7984L58.6984 11.0984C57.7984 10.1984 56.5984 9.69844 55.2984 9.69844Z" fill="#4EAC78"/>
<path d="M109.697 110.498C105.797 110.498 102.197 108.998 99.3969 106.198L58.6969 65.5984C52.9969 59.8984 52.9969 50.5984 58.6969 44.9984L99.3969 4.29844C105.097 -1.40156 114.297 -1.40156 119.997 4.29844L160.697 44.9984C166.397 50.6984 166.397 59.8984 160.697 65.5984L119.997 106.298C117.197 108.998 113.597 110.498 109.697 110.498ZM109.697 9.69844C108.397 9.69844 107.197 10.1984 106.297 11.0984L65.5969 51.7984C64.6969 52.6984 64.1969 53.8984 64.1969 55.1984C64.1969 56.4984 64.6969 57.6984 65.5969 58.5984L106.297 99.2984C108.097 101.098 111.297 101.098 113.197 99.2984L153.897 58.5984C154.797 57.6984 155.297 56.4984 155.297 55.1984C155.297 53.8984 154.797 52.6984 153.897 51.7984L113.197 11.0984C112.197 10.1984 110.997 9.69844 109.697 9.69844Z" fill="#1E55CD"/>
<path d="M55.2984 54.3984C59.1984 54.3984 62.7984 55.8984 65.5984 58.6984L106.298 99.3984C111.998 105.098 111.998 114.298 106.298 119.998L65.5984 160.698C59.8984 166.398 50.6984 166.398 44.9984 160.698L4.29844 119.998C-1.40156 114.298 -1.40156 105.098 4.29844 99.3984L44.9984 58.6984C47.6984 55.8984 51.3984 54.3984 55.2984 54.3984ZM55.2984 155.198C56.5984 155.198 57.7984 154.698 58.6984 153.798L99.3984 113.098C100.298 112.198 100.798 110.998 100.798 109.698C100.798 108.398 100.298 107.198 99.3984 106.298L58.6984 65.5984C56.8984 63.7984 53.6984 63.7984 51.7984 65.5984L11.0984 106.298C10.1984 107.198 9.69844 108.398 9.69844 109.698C9.69844 110.998 10.1984 112.198 11.0984 113.098L51.7984 153.798C52.7984 154.698 53.9984 155.198 55.2984 155.198Z" fill="#E5BE65"/>
<path d="M82.2417 20.9849L75.3828 27.8438L82.6659 35.1269L89.5248 28.268L82.2417 20.9849Z" fill="#4EAC78"/>
<path d="M82.0307 129.61L75.1719 136.469L83.0914 144.388L89.9503 137.529L82.0307 129.61Z" fill="#C8463A"/>
<path d="M82.6773 75.3735L75.4648 82.5859L82.3237 89.4448L89.5361 82.2324L82.6773 75.3735Z" fill="#4EAC78"/>
<path d="M200.8 97.7062C206.5 104.006 215.5 109.506 227.3 109.506C240.9 109.506 245.7 102.606 245.7 96.5062C245.7 87.7062 236.1 85.2062 225.4 82.4062C211.9 78.9062 196.3 75.0062 196.3 57.8062C196.3 43.9062 208.5 33.9062 226 33.9062C239 33.9062 249.2 38.1062 256.6 45.6062L249.3 54.9062C242.9 48.1062 234.1 45.1062 225 45.1062C215.7 45.1062 209.2 49.9062 209.2 56.9062C209.2 64.5062 218.3 66.9062 228.7 69.5062C242.4 73.2062 258.4 77.4063 258.4 95.3063C258.4 108.406 249.3 120.606 226.6 120.606C211.6 120.606 200.6 115.206 193.5 107.206L200.8 97.7062Z" fill="white"/>
<path d="M299.498 56.8047C317.798 56.8047 329.098 71.0047 329.098 89.7047V92.5047H280.998C281.898 102.805 289.398 111.405 301.698 111.405C308.098 111.405 315.198 108.905 319.698 104.205L324.998 111.605C318.998 117.505 310.398 120.705 300.598 120.705C282.498 120.705 269.098 107.805 269.098 88.7047C268.998 71.1047 281.798 56.8047 299.498 56.8047ZM280.898 84.3047H318.098C317.798 76.2047 312.398 66.2047 299.598 66.2047C287.298 66.1047 281.498 76.0047 280.898 84.3047Z" fill="white"/>
<path d="M370.602 56.8047C382.102 56.8047 389.002 61.6047 393.402 67.5047L385.802 74.4047C382.102 69.2047 377.202 66.8047 371.102 66.8047C359.102 66.8047 351.402 76.0047 351.402 88.6047C351.402 101.205 359.102 110.505 371.102 110.505C377.302 110.505 382.202 108.005 385.802 102.905L393.402 109.805C389.002 115.705 382.102 120.505 370.602 120.505C352.202 120.505 339.602 106.805 339.602 88.5047C339.602 70.4047 352.202 56.8047 370.602 56.8047Z" fill="white"/>
<path d="M446.998 119.205V110.905C442.298 115.905 434.698 120.705 425.298 120.705C412.298 120.705 405.898 114.105 405.898 101.305V58.3047H417.198V97.5047C417.198 107.605 422.198 110.605 430.098 110.605C437.198 110.605 443.598 106.605 446.998 102.005V58.3047H458.298V119.205H446.998Z" fill="white"/>
<path d="M473.801 119.2V58.3H485.101V67.6C489.801 61.6 497.001 57 505.001 57V68.5C503.901 68.2 502.601 68.1 501.101 68.1C495.401 68.1 487.701 72.4 485.101 76.9V119.2H473.801Z" fill="white"/>
<path d="M540.602 56.8047C558.902 56.8047 570.202 71.0047 570.202 89.7047V92.5047H522.002C522.902 102.805 530.402 111.405 542.702 111.405C549.102 111.405 556.202 108.905 560.702 104.205L566.002 111.605C560.002 117.505 551.402 120.705 541.602 120.705C523.502 120.705 510.102 107.805 510.102 88.7047C510.102 71.1047 522.802 56.8047 540.602 56.8047ZM521.902 84.3047H559.102C558.802 76.2047 553.402 66.2047 540.602 66.2047C528.302 66.1047 522.602 76.0047 521.902 84.3047Z" fill="white"/>
<path d="M619.198 97.7062C624.898 104.006 633.898 109.506 645.698 109.506C659.298 109.506 664.098 102.606 664.098 96.5062C664.098 87.7062 654.498 85.2062 643.798 82.4062C630.298 78.9062 614.698 75.0062 614.698 57.8062C614.698 43.9062 626.898 33.9062 644.398 33.9062C657.398 33.9062 667.598 38.1062 674.998 45.6062L667.698 54.9062C661.298 48.1062 652.498 45.1062 643.398 45.1062C634.098 45.1062 627.598 49.9062 627.598 56.9062C627.598 64.5062 636.698 66.9062 647.098 69.5062C660.798 73.2062 676.798 77.4063 676.798 95.3063C676.798 108.406 667.698 120.606 644.998 120.606C629.998 120.606 618.998 115.206 611.898 107.206L619.198 97.7062Z" fill="white"/>
<path d="M691.5 119.203V35.2031H721.5C747.7 35.2031 765.1 53.1031 765.1 77.3031C765.1 101.603 747.7 119.303 721.5 119.303H691.5V119.203ZM704.1 108.103H721.5C740.9 108.103 752.1 94.2031 752.1 77.2031C752.1 59.9031 741.3 46.2031 721.5 46.2031H704.1V108.103Z" fill="white"/>
<path d="M780.301 119.203V35.2031H792.901V108.203H831.101V119.303H780.301V119.203Z" fill="white"/>
<path d="M837.398 77.2031C837.398 51.4031 856.598 33.7031 880.498 33.7031C896.998 33.7031 907.298 41.6031 913.898 51.5031L903.198 57.2031C898.798 50.1031 890.498 45.0031 880.498 45.0031C863.498 45.0031 850.398 58.4031 850.398 77.3031C850.398 96.1031 863.498 109.603 880.498 109.603C890.498 109.603 898.798 104.403 903.198 97.4031L913.898 103.103C907.198 112.903 896.998 120.903 880.498 120.903C856.598 120.703 837.398 103.103 837.398 77.2031Z" fill="white"/>
<path d="M959 119.203V35.2031H994.4C1011.7 35.2031 1021.2 47.0031 1021.2 61.0031C1021.2 75.0031 1011.5 86.8031 994.4 86.8031H971.6V119.203H959ZM992.8 46.2031H971.6V75.7031H992.8C1001.9 75.7031 1008.3 69.8031 1008.3 61.0031C1008.3 52.2031 1001.9 46.2031 992.8 46.2031Z" fill="white"/>
<path d="M1034 119.206V58.3062H1045.3V67.6062C1050 61.6062 1057.1 56.9062 1065.2 56.9062V68.4062C1064.1 68.1062 1062.8 68.0062 1061.3 68.0062C1055.6 68.0062 1047.9 72.3063 1045.3 76.8063V119.106H1034V119.206Z" fill="white"/>
<path d="M1072.8 88.7047C1072.8 71.2047 1084.6 56.8047 1103.5 56.8047C1122.5 56.8047 1134.2 71.2047 1134.2 88.7047C1134.2 106.305 1122.5 120.705 1103.5 120.705C1084.6 120.705 1072.8 106.305 1072.8 88.7047ZM1122.4 88.7047C1122.4 77.2047 1115.7 66.9047 1103.5 66.9047C1091.4 66.9047 1084.6 77.2047 1084.6 88.7047C1084.6 100.305 1091.4 110.605 1103.5 110.605C1115.8 110.605 1122.4 100.305 1122.4 88.7047Z" fill="white"/>
<path d="M1175.9 56.8047C1187.4 56.8047 1194.3 61.6047 1198.7 67.5047L1191.1 74.4047C1187.4 69.2047 1182.5 66.8047 1176.4 66.8047C1164.4 66.8047 1156.7 76.0047 1156.7 88.6047C1156.7 101.205 1164.4 110.505 1176.4 110.505C1182.6 110.505 1187.5 108.005 1191.1 102.905L1198.7 109.805C1194.3 115.705 1187.4 120.505 1175.9 120.505C1157.5 120.505 1144.9 106.805 1144.9 88.5047C1144.9 70.4047 1157.5 56.8047 1175.9 56.8047Z" fill="white"/>
<path d="M1237.8 56.8047C1256.1 56.8047 1267.4 71.0047 1267.4 89.7047V92.5047H1219.3C1220.2 102.805 1227.7 111.405 1240 111.405C1246.4 111.405 1253.5 108.905 1258 104.205L1263.3 111.605C1257.3 117.505 1248.7 120.705 1238.9 120.705C1220.8 120.705 1207.4 107.805 1207.4 88.7047C1207.3 71.1047 1220.1 56.8047 1237.8 56.8047ZM1219.2 84.3047H1256.4C1256.1 76.2047 1250.7 66.2047 1237.9 66.2047C1225.6 66.1047 1219.8 76.0047 1219.2 84.3047Z" fill="white"/>
<path d="M1281.8 102.905C1286 107.405 1294 111.605 1302.2 111.605C1310.8 111.605 1315.3 108.105 1315.3 102.905C1315.3 96.9047 1308.4 94.8047 1300.6 93.1047C1290.3 90.7047 1278.2 87.9047 1278.2 74.8047C1278.2 65.1047 1286.5 56.8047 1301.4 56.8047C1311.9 56.8047 1319.4 60.6047 1324.6 65.5047L1319.6 73.4047C1316.1 69.1047 1309.3 66.0047 1301.6 66.0047C1293.9 66.0047 1289 69.0047 1289 74.0047C1289 79.3047 1295.6 81.1047 1303.1 82.8047C1313.7 85.2047 1326.3 88.1047 1326.3 102.105C1326.3 112.605 1317.7 120.705 1301.7 120.705C1291.5 120.705 1282.5 117.505 1276.4 111.205L1281.8 102.905Z" fill="white"/>
<path d="M1340.8 102.905C1345 107.405 1353 111.605 1361.2 111.605C1369.8 111.605 1374.3 108.105 1374.3 102.905C1374.3 96.9047 1367.4 94.8047 1359.6 93.1047C1349.3 90.7047 1337.2 87.9047 1337.2 74.8047C1337.2 65.1047 1345.5 56.8047 1360.4 56.8047C1370.9 56.8047 1378.4 60.6047 1383.6 65.5047L1378.6 73.4047C1375.1 69.1047 1368.3 66.0047 1360.6 66.0047C1352.9 66.0047 1348 69.0047 1348 74.0047C1348 79.3047 1354.6 81.1047 1362.1 82.8047C1372.7 85.2047 1385.3 88.1047 1385.3 102.105C1385.3 112.605 1376.7 120.705 1360.7 120.705C1350.5 120.705 1341.5 117.505 1335.4 111.205L1340.8 102.905Z" fill="white"/>
<path d="M1452.9 119.203V46.2031H1426.8V35.2031H1491.4V46.3031H1465.4V119.303H1452.9V119.203Z" fill="white"/>
<path d="M1517.2 56.8047C1535.5 56.8047 1546.8 71.0047 1546.8 89.7047V92.5047H1498.7C1499.6 102.805 1507.1 111.405 1519.4 111.405C1525.8 111.405 1532.9 108.905 1537.4 104.205L1542.7 111.605C1536.7 117.505 1528.1 120.705 1518.3 120.705C1500.2 120.705 1486.8 107.805 1486.8 88.7047C1486.7 71.1047 1499.4 56.8047 1517.2 56.8047ZM1498.5 84.3047H1535.7C1535.4 76.2047 1530 66.2047 1517.2 66.2047C1505 66.1047 1499.2 76.0047 1498.5 84.3047Z" fill="white"/>
<path d="M1635 119.205V78.6047C1635 71.5047 1631.8 66.9047 1624.4 66.9047C1618.2 66.9047 1612.2 71.2047 1609.3 75.6047V119.205H1598V78.6047C1598 71.5047 1595 66.9047 1587.3 66.9047C1581.4 66.9047 1575.5 71.3047 1572.4 75.7047V119.205H1561V58.3047H1572.3V66.9047C1574.8 63.1047 1582.9 56.8047 1592 56.8047C1601.2 56.8047 1606.6 61.6047 1608.5 68.1047C1612 62.4047 1620.1 56.8047 1629 56.8047C1640.2 56.8047 1646.3 63.0047 1646.3 75.2047V119.205H1635Z" fill="white"/>
<path d="M1673.2 142.405H1661.9V58.4047H1673.2V67.0047C1677.6 61.0047 1684.9 56.8047 1693.1 56.8047C1709 56.8047 1720.2 68.8047 1720.2 88.7047C1720.2 108.605 1709 120.705 1693.1 120.705C1685.2 120.705 1678.1 117.005 1673.2 110.405V142.405ZM1690.1 66.9047C1683.2 66.9047 1676.2 70.9047 1673.2 75.8047V101.605C1676.2 106.405 1683.2 110.505 1690.1 110.505C1701.4 110.505 1708.4 101.305 1708.4 88.6047C1708.3 76.1047 1701.4 66.9047 1690.1 66.9047Z" fill="white"/>
<path d="M1732 119.203V35.2031H1743.3V119.203H1732Z" fill="white"/>
<path d="M1796.4 119.205V112.505C1791.6 117.805 1784.7 120.705 1776.5 120.705C1766.4 120.705 1755.3 113.905 1755.3 100.505C1755.3 86.6047 1766.3 80.6047 1776.5 80.6047C1784.7 80.6047 1791.7 83.2047 1796.4 88.7047V78.6047C1796.4 71.0047 1790.2 66.5047 1781.5 66.5047C1774.6 66.5047 1768.6 69.1047 1763.2 74.6047L1758.3 66.8047C1765.1 60.1047 1773.4 56.8047 1783.2 56.8047C1796.4 56.8047 1807.6 62.6047 1807.6 78.1047V119.205H1796.4ZM1796.4 95.5047C1793 91.0047 1787.1 88.6047 1780.8 88.6047C1772.6 88.6047 1766.8 93.5047 1766.8 100.705C1766.8 107.905 1772.6 112.805 1780.8 112.805C1787.1 112.805 1793 110.405 1796.4 105.905V95.5047Z" fill="white"/>
<path d="M1825.6 105.703V68.3031H1815.5V58.3031H1825.6V41.7031H1836.9V58.3031H1849.2V68.3031H1837V103.203C1837 107.503 1839 110.603 1842.9 110.603C1845.5 110.603 1847.9 109.503 1849.1 108.203L1852 116.803C1849.6 119.103 1846.1 120.703 1840.2 120.703C1830.5 120.703 1825.6 115.303 1825.6 105.703Z" fill="white"/>
<path d="M1888.6 56.8047C1906.9 56.8047 1918.2 71.0047 1918.2 89.7047V92.5047H1870.1C1871 102.805 1878.5 111.405 1890.8 111.405C1897.2 111.405 1904.3 108.905 1908.8 104.205L1914.1 111.605C1908.1 117.505 1899.5 120.705 1889.7 120.705C1871.6 120.705 1858.2 107.805 1858.2 88.7047C1858.1 71.1047 1870.9 56.8047 1888.6 56.8047ZM1870 84.3047H1907.2C1906.9 76.2047 1901.5 66.2047 1888.7 66.2047C1876.4 66.1047 1870.6 76.0047 1870 84.3047Z" fill="white"/>
</g>
<defs>
<clipPath id="clip0_223_550">
<rect width="1936" height="164.9" fill="white"/>
</clipPath>
</defs>
</svg>
