<?xml version="1.0" encoding="utf-8"?>
<!-- Generator: Adobe Illustrator 26.2.0, SVG Export Plug-In . SVG Version: 6.00 Build 0)  -->
<svg version="1.1" id="Layer_1" xmlns="http://www.w3.org/2000/svg" xmlns:xlink="http://www.w3.org/1999/xlink" x="0px" y="0px"
	 viewBox="0 0 165 164.9" style="enable-background:new 0 0 165 164.9;" xml:space="preserve">
<style type="text/css">
	.st0{fill:#ED475C;}
	.st1{fill:#29B57D;}
	.st2{fill:#2459D1;}
	.st3{fill:#F7C22E;}
</style>
<g>
	<g>
		<path class="st0" d="M109.7,54.4c3.9,0,7.5,1.5,10.3,4.3l40.7,40.7c5.7,5.7,5.7,14.9,0,20.6L120,160.7c-5.7,5.7-14.9,5.7-20.6,0
			L58.7,120c-5.7-5.7-5.7-14.9,0-20.6l40.7-40.7C102.1,55.9,105.8,54.4,109.7,54.4z M109.7,155.2c1.3,0,2.5-0.5,3.4-1.4l40.7-40.7
			c0.9-0.9,1.4-2.1,1.4-3.4s-0.5-2.5-1.4-3.4l-40.7-40.7c-1.8-1.8-5-1.8-6.9,0l-40.7,40.7c-0.9,0.9-1.4,2.1-1.4,3.4s0.5,2.5,1.4,3.4
			l40.7,40.7C107.2,154.7,108.4,155.2,109.7,155.2z"/>
		<path class="st1" d="M55.3,110.5c-3.9,0-7.5-1.5-10.3-4.3L4.3,65.6c-5.7-5.7-5.7-14.9,0-20.6L45,4.3c5.7-5.7,14.9-5.7,20.6,0
			L106.3,45c5.7,5.7,5.7,14.9,0,20.6l-40.7,40.7C62.8,109,59.1,110.5,55.3,110.5z M55.3,9.7c-1.3,0-2.5,0.5-3.4,1.4L11.1,51.8
			c-0.9,0.9-1.4,2.1-1.4,3.4c0,1.3,0.5,2.5,1.4,3.4l40.7,40.7c1.8,1.8,5,1.8,6.9,0l40.7-40.7c0.9-0.9,1.4-2.1,1.4-3.4
			c0-1.3-0.5-2.5-1.4-3.4L58.7,11.1C57.8,10.2,56.6,9.7,55.3,9.7z"/>
	</g>
	<path class="st2" d="M109.7,110.5c-3.9,0-7.5-1.5-10.3-4.3L58.7,65.6C53,59.9,53,50.6,58.7,45L99.4,4.3c5.7-5.7,14.9-5.7,20.6,0
		L160.7,45c5.7,5.7,5.7,14.9,0,20.6L120,106.3C117.2,109,113.6,110.5,109.7,110.5z M109.7,9.7c-1.3,0-2.5,0.5-3.4,1.4L65.6,51.8
		c-0.9,0.9-1.4,2.1-1.4,3.4s0.5,2.5,1.4,3.4l40.7,40.7c1.8,1.8,5,1.8,6.9,0l40.7-40.7c0.9-0.9,1.4-2.1,1.4-3.4s-0.5-2.5-1.4-3.4
		l-40.7-40.7C112.2,10.2,111,9.7,109.7,9.7z"/>
	<path class="st3" d="M55.3,54.4c3.9,0,7.5,1.5,10.3,4.3l40.7,40.7c5.7,5.7,5.7,14.9,0,20.6l-40.7,40.7c-5.7,5.7-14.9,5.7-20.6,0
		L4.3,120c-5.7-5.7-5.7-14.9,0-20.6L45,58.7C47.7,55.9,51.4,54.4,55.3,54.4z M55.3,155.2c1.3,0,2.5-0.5,3.4-1.4l40.7-40.7
		c0.9-0.9,1.4-2.1,1.4-3.4s-0.5-2.5-1.4-3.4L58.7,65.6c-1.8-1.8-5-1.8-6.9,0l-40.7,40.7c-0.9,0.9-1.4,2.1-1.4,3.4s0.5,2.5,1.4,3.4
		l40.7,40.7C52.8,154.7,54,155.2,55.3,155.2z"/>
	<rect x="77.6" y="22.9" transform="matrix(0.7071 -0.7071 0.7071 0.7071 4.3305 66.5147)" class="st1" width="9.7" height="10.3"/>
	
		<rect x="77.7" y="131.4" transform="matrix(0.7071 -0.7071 0.7071 0.7071 -72.6803 98.4814)" class="st0" width="9.7" height="11.2"/>
	
		<rect x="77.4" y="77.6" transform="matrix(0.7071 -0.7071 0.7071 0.7071 -34.1825 82.4616)" class="st1" width="10.2" height="9.7"/>
</g>
</svg>
